<?xml version="1.0" encoding="UTF-8" standalone="no"?>
<!DOCTYPE svg PUBLIC "-//W3C//DTD SVG 1.1//EN"
 "http://www.w3.org/Graphics/SVG/1.1/DTD/svg11.dtd">
<!-- Generated by graphviz version 2.38.0 (20140413.2041)
 -->
<!-- Title: osdk&#45;core/advanced&#45;sensing&#45;2.0.0 Pages: 1 -->
<svg width="248pt" height="159pt"
 viewBox="0.00 0.00 248.00 159.00" xmlns="http://www.w3.org/2000/svg" xmlns:xlink="http://www.w3.org/1999/xlink">
<g id="graph0" class="graph" transform="scale(1 1) rotate(0) translate(4 155)">
<title>osdk&#45;core/advanced&#45;sensing&#45;2.0.0</title>
<polygon fill="white" stroke="none" points="-4,4 -4,-155 244,-155 244,4 -4,4"/>
<g id="clust1" class="cluster"><title>clusterdir_95d02babf7f2c2cbb8138434e234b0a4</title>
<g id="a_clust1"><a xlink:href="dir_95d02babf7f2c2cbb8138434e234b0a4.html" target="_top" xlink:title="osdk&#45;core">
<polygon fill="#ddddee" stroke="black" points="8,-56 8,-143 232,-143 232,-56 8,-56"/>
<text text-anchor="middle" x="120" y="-131" font-family="Helvetica,sans-Serif" font-size="10.00">osdk&#45;core</text>
</a>
</g>
</g>
<g id="clust2" class="cluster"><title>clusterdir_f2583c6e7b7612631c3fdbaaac734bac</title>
<g id="a_clust2"><a xlink:href="dir_f2583c6e7b7612631c3fdbaaac734bac.html" target="_top">
<polygon fill="#eeeeff" stroke="black" points="16,-64 16,-116 224,-116 224,-64 16,-64"/>
</a>
</g>
</g>
<!-- dir_f2583c6e7b7612631c3fdbaaac734bac -->
<g id="node1" class="node"><title>dir_f2583c6e7b7612631c3fdbaaac734bac</title>
<text text-anchor="middle" x="156" y="-87.5" font-family="Helvetica,sans-Serif" font-size="10.00">advanced&#45;sensing&#45;2.0.0</text>
</g>
<!-- dir_a3f83bc09053d57469bb64017c364da9 -->
<g id="node2" class="node"><title>dir_a3f83bc09053d57469bb64017c364da9</title>
<g id="a_node2"><a xlink:href="dir_a3f83bc09053d57469bb64017c364da9.html" target="_top" xlink:title="inc">
<polygon fill="white" stroke="black" points="78,-108 24,-108 24,-72 78,-72 78,-108"/>
<text text-anchor="middle" x="51" y="-87.5" font-family="Helvetica,sans-Serif" font-size="10.00">inc</text>
</a>
</g>
</g>
<!-- dir_ef926edda2a887b065db034fc3005c14 -->
<g id="node3" class="node"><title>dir_ef926edda2a887b065db034fc3005c14</title>
<g id="a_node3"><a xlink:href="dir_ef926edda2a887b065db034fc3005c14.html" target="_top" xlink:title="api">
<polygon fill="white" stroke="red" points="78,-36 24,-36 24,-0 78,-0 78,-36"/>
<text text-anchor="middle" x="51" y="-15.5" font-family="Helvetica,sans-Serif" font-size="10.00">api</text>
</a>
</g>
</g>
<!-- dir_a3f83bc09053d57469bb64017c364da9&#45;&gt;dir_ef926edda2a887b065db034fc3005c14 -->
<g id="edge1" class="edge"><title>dir_a3f83bc09053d57469bb64017c364da9&#45;&gt;dir_ef926edda2a887b065db034fc3005c14</title>
<path fill="none" stroke="black" d="M51,-71.6966C51,-63.9827 51,-54.7125 51,-46.1124"/>
<polygon fill="black" stroke="black" points="54.5001,-46.1043 51,-36.1043 47.5001,-46.1044 54.5001,-46.1043"/>
<g id="a_edge1&#45;headlabel"><a xlink:href="dir_000004_000005.html" target="_top" xlink:title="3">
<text text-anchor="middle" x="57.3393" y="-47.199" font-family="Helvetica,sans-Serif" font-size="10.00">3</text>
</a>
</g>
</g>
</g>
</svg>
