<?xml version="1.0" encoding="UTF-8" standalone="no"?>
<!DOCTYPE svg PUBLIC "-//W3C//DTD SVG 1.1//EN"
 "http://www.w3.org/Graphics/SVG/1.1/DTD/svg11.dtd">
<!-- Generated by graphviz version 2.40.1 (20161225.0304)
 -->
<!-- Title: osdk&#45;core/platform/linux Pages: 1 -->
<svg width="236pt" height="230pt"
 viewBox="0.00 0.00 236.00 230.00" xmlns="http://www.w3.org/2000/svg" xmlns:xlink="http://www.w3.org/1999/xlink">
<g id="graph0" class="graph" transform="scale(1 1) rotate(0) translate(4 226)">
<title>osdk&#45;core/platform/linux</title>
<polygon fill="#ffffff" stroke="transparent" points="-4,4 -4,-226 232,-226 232,4 -4,4"/>
<g id="clust1" class="cluster">
<title>clusterdir_50faeb5d8d1628bfd79a767c77d47f2b</title>
<g id="a_clust1"><a xlink:href="dir_50faeb5d8d1628bfd79a767c77d47f2b.html" target="_top" xlink:title="platform">
<polygon fill="#ddddee" stroke="#000000" points="8,-56 8,-214 166,-214 166,-56 8,-56"/>
<text text-anchor="middle" x="87" y="-202" font-family="Helvetica,sans-Serif" font-size="10.00" fill="#000000">platform</text>
</a>
</g>
</g>
<g id="clust2" class="cluster">
<title>clusterdir_46d8e2746c43089a4f7a5f7f15101a6a</title>
<g id="a_clust2"><a xlink:href="dir_46d8e2746c43089a4f7a5f7f15101a6a.html" target="_top">
<polygon fill="#eeeeff" stroke="#000000" points="16,-64 16,-188 158,-188 158,-64 16,-64"/>
</a>
</g>
</g>
<!-- dir_46d8e2746c43089a4f7a5f7f15101a6a -->
<g id="node1" class="node">
<title>dir_46d8e2746c43089a4f7a5f7f15101a6a</title>
<text text-anchor="middle" x="123" y="-159" font-family="Helvetica,sans-Serif" font-size="10.00" fill="#000000">linux</text>
</g>
<!-- dir_bd0bc0336deaf85967edaa654261a041 -->
<g id="node2" class="node">
<title>dir_bd0bc0336deaf85967edaa654261a041</title>
<g id="a_node2"><a xlink:href="dir_bd0bc0336deaf85967edaa654261a041.html" target="_top" xlink:title="inc">
<polygon fill="#ffffff" stroke="#000000" points="114,-108 60,-108 60,-72 114,-72 114,-108"/>
<text text-anchor="middle" x="87" y="-87" font-family="Helvetica,sans-Serif" font-size="10.00" fill="#000000">inc</text>
</a>
</g>
</g>
<!-- dir_8d9255a88efd7d3d96544da8319c49d3 -->
<g id="node5" class="node">
<title>dir_8d9255a88efd7d3d96544da8319c49d3</title>
<g id="a_node5"><a xlink:href="dir_8d9255a88efd7d3d96544da8319c49d3.html" target="_top" xlink:title="hal">
<polygon fill="#ffffff" stroke="#ff0000" points="171,-36 117,-36 117,0 171,0 171,-36"/>
<text text-anchor="middle" x="144" y="-15" font-family="Helvetica,sans-Serif" font-size="10.00" fill="#000000">hal</text>
</a>
</g>
</g>
<!-- dir_bd0bc0336deaf85967edaa654261a041&#45;&gt;dir_8d9255a88efd7d3d96544da8319c49d3 -->
<g id="edge2" class="edge">
<title>dir_bd0bc0336deaf85967edaa654261a041&#45;&gt;dir_8d9255a88efd7d3d96544da8319c49d3</title>
<path fill="none" stroke="#000000" d="M101.3835,-71.8314C107.9486,-63.5386 115.8507,-53.557 123.0578,-44.4533"/>
<polygon fill="#000000" stroke="#000000" points="125.9599,-46.4262 129.4228,-36.4133 120.4716,-42.0813 125.9599,-46.4262"/>
<g id="a_edge2&#45;headlabel"><a xlink:href="dir_000011_000006.html" target="_top" xlink:title="1">
<text text-anchor="middle" x="125.9549" y="-48.0069" font-family="Helvetica,sans-Serif" font-size="10.00" fill="#000000">1</text>
</a>
</g>
</g>
<!-- dir_3a1512873a0b6828fd14833aa9747628 -->
<g id="node3" class="node">
<title>dir_3a1512873a0b6828fd14833aa9747628</title>
<g id="a_node3"><a xlink:href="dir_3a1512873a0b6828fd14833aa9747628.html" target="_top" xlink:title="src">
<polygon fill="#ffffff" stroke="#000000" points="78,-180 24,-180 24,-144 78,-144 78,-180"/>
<text text-anchor="middle" x="51" y="-159" font-family="Helvetica,sans-Serif" font-size="10.00" fill="#000000">src</text>
</a>
</g>
</g>
<!-- dir_3a1512873a0b6828fd14833aa9747628&#45;&gt;dir_bd0bc0336deaf85967edaa654261a041 -->
<g id="edge4" class="edge">
<title>dir_3a1512873a0b6828fd14833aa9747628&#45;&gt;dir_bd0bc0336deaf85967edaa654261a041</title>
<path fill="none" stroke="#000000" d="M60.0843,-143.8314C64.0615,-135.8771 68.8155,-126.369 73.2139,-117.5723"/>
<polygon fill="#000000" stroke="#000000" points="76.4517,-118.9228 77.7934,-108.4133 70.1907,-115.7923 76.4517,-118.9228"/>
<g id="a_edge4&#45;headlabel"><a xlink:href="dir_000012_000011.html" target="_top" xlink:title="3">
<text text-anchor="middle" x="77.3837" y="-120.4077" font-family="Helvetica,sans-Serif" font-size="10.00" fill="#000000">3</text>
</a>
</g>
</g>
<!-- dir_ef926edda2a887b065db034fc3005c14 -->
<g id="node4" class="node">
<title>dir_ef926edda2a887b065db034fc3005c14</title>
<g id="a_node4"><a xlink:href="dir_ef926edda2a887b065db034fc3005c14.html" target="_top" xlink:title="api">
<polygon fill="#ffffff" stroke="#ff0000" points="228,-108 174,-108 174,-72 228,-72 228,-108"/>
<text text-anchor="middle" x="201" y="-87" font-family="Helvetica,sans-Serif" font-size="10.00" fill="#000000">api</text>
</a>
</g>
</g>
<!-- dir_3a1512873a0b6828fd14833aa9747628&#45;&gt;dir_ef926edda2a887b065db034fc3005c14 -->
<g id="edge3" class="edge">
<title>dir_3a1512873a0b6828fd14833aa9747628&#45;&gt;dir_ef926edda2a887b065db034fc3005c14</title>
<path fill="none" stroke="#000000" d="M78.0963,-148.3747C81.096,-146.8893 84.1099,-145.4068 87,-144 112.8442,-131.4197 142.1537,-117.5449 164.5818,-107.0097"/>
<polygon fill="#000000" stroke="#000000" points="166.1753,-110.1282 173.7424,-102.7126 163.2025,-103.7908 166.1753,-110.1282"/>
<g id="a_edge3&#45;headlabel"><a xlink:href="dir_000012_000003.html" target="_top" xlink:title="1">
<text text-anchor="middle" x="164.1268" y="-111.2252" font-family="Helvetica,sans-Serif" font-size="10.00" fill="#000000">1</text>
</a>
</g>
</g>
<!-- dir_ef926edda2a887b065db034fc3005c14&#45;&gt;dir_8d9255a88efd7d3d96544da8319c49d3 -->
<g id="edge1" class="edge">
<title>dir_ef926edda2a887b065db034fc3005c14&#45;&gt;dir_8d9255a88efd7d3d96544da8319c49d3</title>
<path fill="none" stroke="#000000" d="M186.6165,-71.8314C180.0514,-63.5386 172.1493,-53.557 164.9422,-44.4533"/>
<polygon fill="#000000" stroke="#000000" points="167.5284,-42.0813 158.5772,-36.4133 162.0401,-46.4262 167.5284,-42.0813"/>
<g id="a_edge1&#45;headlabel"><a xlink:href="dir_000003_000006.html" target="_top" xlink:title="1">
<text text-anchor="middle" x="171.9857" y="-40.1373" font-family="Helvetica,sans-Serif" font-size="10.00" fill="#000000">1</text>
</a>
</g>
</g>
</g>
</svg>
