<?xml version="1.0" encoding="UTF-8" standalone="no"?>
<!DOCTYPE svg PUBLIC "-//W3C//DTD SVG 1.1//EN"
 "http://www.w3.org/Graphics/SVG/1.1/DTD/svg11.dtd">
<!-- Generated by graphviz version 2.40.1 (20161225.0304)
 -->
<!-- Title: osdk&#45;core/api Pages: 1 -->
<svg width="236pt" height="182pt"
 viewBox="0.00 0.00 236.00 182.00" xmlns="http://www.w3.org/2000/svg" xmlns:xlink="http://www.w3.org/1999/xlink">
<g id="graph0" class="graph" transform="scale(1 1) rotate(0) translate(4 178)">
<title>osdk&#45;core/api</title>
<polygon fill="#ffffff" stroke="transparent" points="-4,4 -4,-178 232,-178 232,4 -4,4"/>
<g id="clust1" class="cluster">
<title>clusterdir_95d02babf7f2c2cbb8138434e234b0a4</title>
<g id="a_clust1"><a xlink:href="dir_95d02babf7f2c2cbb8138434e234b0a4.html" target="_top" xlink:title="osdk&#45;core">
<polygon fill="#ddddee" stroke="#000000" points="8,-8 8,-166 166,-166 166,-8 8,-8"/>
<text text-anchor="middle" x="87" y="-154" font-family="Helvetica,sans-Serif" font-size="10.00" fill="#000000">osdk&#45;core</text>
</a>
</g>
</g>
<g id="clust2" class="cluster">
<title>clusterdir_ef926edda2a887b065db034fc3005c14</title>
<g id="a_clust2"><a xlink:href="dir_ef926edda2a887b065db034fc3005c14.html" target="_top">
<polygon fill="#eeeeff" stroke="#000000" points="16,-16 16,-140 158,-140 158,-16 16,-16"/>
</a>
</g>
</g>
<!-- dir_ef926edda2a887b065db034fc3005c14 -->
<g id="node1" class="node">
<title>dir_ef926edda2a887b065db034fc3005c14</title>
<text text-anchor="middle" x="123" y="-111" font-family="Helvetica,sans-Serif" font-size="10.00" fill="#000000">api</text>
</g>
<!-- dir_0fb058e33548cd6e720172c5f012eda8 -->
<g id="node2" class="node">
<title>dir_0fb058e33548cd6e720172c5f012eda8</title>
<g id="a_node2"><a xlink:href="dir_0fb058e33548cd6e720172c5f012eda8.html" target="_top" xlink:title="inc">
<polygon fill="#ffffff" stroke="#000000" points="78,-60 24,-60 24,-24 78,-24 78,-60"/>
<text text-anchor="middle" x="51" y="-39" font-family="Helvetica,sans-Serif" font-size="10.00" fill="#000000">inc</text>
</a>
</g>
</g>
<!-- dir_05087cb4e1ba3c7e2094d4d0781afa8f -->
<g id="node3" class="node">
<title>dir_05087cb4e1ba3c7e2094d4d0781afa8f</title>
<g id="a_node3"><a xlink:href="dir_05087cb4e1ba3c7e2094d4d0781afa8f.html" target="_top" xlink:title="src">
<polygon fill="#ffffff" stroke="#000000" points="78,-132 24,-132 24,-96 78,-96 78,-132"/>
<text text-anchor="middle" x="51" y="-111" font-family="Helvetica,sans-Serif" font-size="10.00" fill="#000000">src</text>
</a>
</g>
</g>
<!-- dir_05087cb4e1ba3c7e2094d4d0781afa8f&#45;&gt;dir_0fb058e33548cd6e720172c5f012eda8 -->
<g id="edge1" class="edge">
<title>dir_05087cb4e1ba3c7e2094d4d0781afa8f&#45;&gt;dir_0fb058e33548cd6e720172c5f012eda8</title>
<path fill="none" stroke="#000000" d="M51,-95.8314C51,-88.131 51,-78.9743 51,-70.4166"/>
<polygon fill="#000000" stroke="#000000" points="54.5001,-70.4132 51,-60.4133 47.5001,-70.4133 54.5001,-70.4132"/>
<g id="a_edge1&#45;headlabel"><a xlink:href="dir_000005_000004.html" target="_top" xlink:title="32">
<text text-anchor="middle" x="57.3393" y="-71.0079" font-family="Helvetica,sans-Serif" font-size="10.00" fill="#000000">32</text>
</a>
</g>
</g>
<!-- dir_8d9255a88efd7d3d96544da8319c49d3 -->
<g id="node4" class="node">
<title>dir_8d9255a88efd7d3d96544da8319c49d3</title>
<g id="a_node4"><a xlink:href="dir_8d9255a88efd7d3d96544da8319c49d3.html" target="_top" xlink:title="hal">
<polygon fill="#ffffff" stroke="#ff0000" points="228,-60 174,-60 174,-24 228,-24 228,-60"/>
<text text-anchor="middle" x="201" y="-39" font-family="Helvetica,sans-Serif" font-size="10.00" fill="#000000">hal</text>
</a>
</g>
</g>
<!-- dir_05087cb4e1ba3c7e2094d4d0781afa8f&#45;&gt;dir_8d9255a88efd7d3d96544da8319c49d3 -->
<g id="edge2" class="edge">
<title>dir_05087cb4e1ba3c7e2094d4d0781afa8f&#45;&gt;dir_8d9255a88efd7d3d96544da8319c49d3</title>
<path fill="none" stroke="#000000" d="M78.0963,-100.3747C81.096,-98.8893 84.1099,-97.4068 87,-96 112.8442,-83.4197 142.1537,-69.5449 164.5818,-59.0097"/>
<polygon fill="#000000" stroke="#000000" points="166.1753,-62.1282 173.7424,-54.7126 163.2025,-55.7908 166.1753,-62.1282"/>
<g id="a_edge2&#45;headlabel"><a xlink:href="dir_000005_000006.html" target="_top" xlink:title="1">
<text text-anchor="middle" x="164.1268" y="-63.2252" font-family="Helvetica,sans-Serif" font-size="10.00" fill="#000000">1</text>
</a>
</g>
</g>
</g>
</svg>
