<?xml version="1.0" encoding="UTF-8" standalone="no"?>
<!DOCTYPE svg PUBLIC "-//W3C//DTD SVG 1.1//EN"
 "http://www.w3.org/Graphics/SVG/1.1/DTD/svg11.dtd">
<!-- Generated by graphviz version 2.40.1 (20161225.0304)
 -->
<!-- Title: osdk&#45;core/platform/linux/src Pages: 1 -->
<svg width="134pt" height="150pt"
 viewBox="0.00 0.00 134.00 150.00" xmlns="http://www.w3.org/2000/svg" xmlns:xlink="http://www.w3.org/1999/xlink">
<g id="graph0" class="graph" transform="scale(1 1) rotate(0) translate(4 146)">
<title>osdk&#45;core/platform/linux/src</title>
<polygon fill="#ffffff" stroke="transparent" points="-4,4 -4,-146 130,-146 130,4 -4,4"/>
<g id="clust1" class="cluster">
<title>clusterdir_46d8e2746c43089a4f7a5f7f15101a6a</title>
<g id="a_clust1"><a xlink:href="dir_46d8e2746c43089a4f7a5f7f15101a6a.html" target="_top" xlink:title="linux">
<polygon fill="#ddddee" stroke="#000000" points="28,-64 28,-134 98,-134 98,-64 28,-64"/>
<text text-anchor="middle" x="63" y="-122" font-family="Helvetica,sans-Serif" font-size="10.00" fill="#000000">linux</text>
</a>
</g>
</g>
<!-- dir_3a1512873a0b6828fd14833aa9747628 -->
<g id="node1" class="node">
<title>dir_3a1512873a0b6828fd14833aa9747628</title>
<g id="a_node1"><a xlink:href="dir_3a1512873a0b6828fd14833aa9747628.html" target="_top" xlink:title="src">
<polygon fill="#eeeeff" stroke="#000000" points="90,-108 36,-108 36,-72 90,-72 90,-108"/>
<text text-anchor="middle" x="63" y="-87" font-family="Helvetica,sans-Serif" font-size="10.00" fill="#000000">src</text>
</a>
</g>
</g>
<!-- dir_ef926edda2a887b065db034fc3005c14 -->
<g id="node2" class="node">
<title>dir_ef926edda2a887b065db034fc3005c14</title>
<g id="a_node2"><a xlink:href="dir_ef926edda2a887b065db034fc3005c14.html" target="_top" xlink:title="api">
<polygon fill="#ffffff" stroke="#ff0000" points="54,-36 0,-36 0,0 54,0 54,-36"/>
<text text-anchor="middle" x="27" y="-15" font-family="Helvetica,sans-Serif" font-size="10.00" fill="#000000">api</text>
</a>
</g>
</g>
<!-- dir_3a1512873a0b6828fd14833aa9747628&#45;&gt;dir_ef926edda2a887b065db034fc3005c14 -->
<g id="edge1" class="edge">
<title>dir_3a1512873a0b6828fd14833aa9747628&#45;&gt;dir_ef926edda2a887b065db034fc3005c14</title>
<path fill="none" stroke="#000000" d="M53.9157,-71.8314C49.9385,-63.8771 45.1845,-54.369 40.7861,-45.5723"/>
<polygon fill="#000000" stroke="#000000" points="43.8093,-43.7923 36.2066,-36.4133 37.5483,-46.9228 43.8093,-43.7923"/>
<g id="a_edge1&#45;headlabel"><a xlink:href="dir_000012_000003.html" target="_top" xlink:title="1">
<text text-anchor="middle" x="47.9563" y="-42.7377" font-family="Helvetica,sans-Serif" font-size="10.00" fill="#000000">1</text>
</a>
</g>
</g>
<!-- dir_bd0bc0336deaf85967edaa654261a041 -->
<g id="node3" class="node">
<title>dir_bd0bc0336deaf85967edaa654261a041</title>
<g id="a_node3"><a xlink:href="dir_bd0bc0336deaf85967edaa654261a041.html" target="_top" xlink:title="inc">
<polygon fill="none" stroke="#000000" points="126,-36 72,-36 72,0 126,0 126,-36"/>
<text text-anchor="middle" x="99" y="-15" font-family="Helvetica,sans-Serif" font-size="10.00" fill="#000000">inc</text>
</a>
</g>
</g>
<!-- dir_3a1512873a0b6828fd14833aa9747628&#45;&gt;dir_bd0bc0336deaf85967edaa654261a041 -->
<g id="edge2" class="edge">
<title>dir_3a1512873a0b6828fd14833aa9747628&#45;&gt;dir_bd0bc0336deaf85967edaa654261a041</title>
<path fill="none" stroke="#000000" d="M72.0843,-71.8314C76.0615,-63.8771 80.8155,-54.369 85.2139,-45.5723"/>
<polygon fill="#000000" stroke="#000000" points="88.4517,-46.9228 89.7934,-36.4133 82.1907,-43.7923 88.4517,-46.9228"/>
<g id="a_edge2&#45;headlabel"><a xlink:href="dir_000012_000011.html" target="_top" xlink:title="3">
<text text-anchor="middle" x="89.3837" y="-48.4077" font-family="Helvetica,sans-Serif" font-size="10.00" fill="#000000">3</text>
</a>
</g>
</g>
</g>
</svg>
