<?xml version="1.0" encoding="UTF-8" standalone="no"?>
<!DOCTYPE svg PUBLIC "-//W3C//DTD SVG 1.1//EN"
 "http://www.w3.org/Graphics/SVG/1.1/DTD/svg11.dtd">
<!-- Generated by graphviz version 2.40.1 (20161225.0304)
 -->
<!-- Title: osdk&#45;core/hal/src Pages: 1 -->
<svg width="94pt" height="150pt"
 viewBox="0.00 0.00 94.00 150.00" xmlns="http://www.w3.org/2000/svg" xmlns:xlink="http://www.w3.org/1999/xlink">
<g id="graph0" class="graph" transform="scale(1 1) rotate(0) translate(4 146)">
<title>osdk&#45;core/hal/src</title>
<polygon fill="#ffffff" stroke="transparent" points="-4,4 -4,-146 90,-146 90,4 -4,4"/>
<g id="clust1" class="cluster">
<title>clusterdir_8d9255a88efd7d3d96544da8319c49d3</title>
<g id="a_clust1"><a xlink:href="dir_8d9255a88efd7d3d96544da8319c49d3.html" target="_top" xlink:title="hal">
<polygon fill="#ddddee" stroke="#000000" points="8,-64 8,-134 78,-134 78,-64 8,-64"/>
<text text-anchor="middle" x="43" y="-122" font-family="Helvetica,sans-Serif" font-size="10.00" fill="#000000">hal</text>
</a>
</g>
</g>
<!-- dir_973126d21f563378849b6c368047e99c -->
<g id="node1" class="node">
<title>dir_973126d21f563378849b6c368047e99c</title>
<g id="a_node1"><a xlink:href="dir_973126d21f563378849b6c368047e99c.html" target="_top" xlink:title="src">
<polygon fill="#eeeeff" stroke="#000000" points="70,-108 16,-108 16,-72 70,-72 70,-108"/>
<text text-anchor="middle" x="43" y="-87" font-family="Helvetica,sans-Serif" font-size="10.00" fill="#000000">src</text>
</a>
</g>
</g>
<!-- dir_04e1a489ba4c386a99bb2fd9dc98d6e6 -->
<g id="node2" class="node">
<title>dir_04e1a489ba4c386a99bb2fd9dc98d6e6</title>
<g id="a_node2"><a xlink:href="dir_04e1a489ba4c386a99bb2fd9dc98d6e6.html" target="_top" xlink:title="inc">
<polygon fill="none" stroke="#000000" points="70,-36 16,-36 16,0 70,0 70,-36"/>
<text text-anchor="middle" x="43" y="-15" font-family="Helvetica,sans-Serif" font-size="10.00" fill="#000000">inc</text>
</a>
</g>
</g>
<!-- dir_973126d21f563378849b6c368047e99c&#45;&gt;dir_04e1a489ba4c386a99bb2fd9dc98d6e6 -->
<g id="edge1" class="edge">
<title>dir_973126d21f563378849b6c368047e99c&#45;&gt;dir_04e1a489ba4c386a99bb2fd9dc98d6e6</title>
<path fill="none" stroke="#000000" d="M43,-71.8314C43,-64.131 43,-54.9743 43,-46.4166"/>
<polygon fill="#000000" stroke="#000000" points="46.5001,-46.4132 43,-36.4133 39.5001,-46.4133 46.5001,-46.4132"/>
<g id="a_edge1&#45;headlabel"><a xlink:href="dir_000008_000007.html" target="_top" xlink:title="1">
<text text-anchor="middle" x="49.3393" y="-47.0079" font-family="Helvetica,sans-Serif" font-size="10.00" fill="#000000">1</text>
</a>
</g>
</g>
</g>
</svg>
