<?xml version="1.0" encoding="UTF-8" standalone="no"?>
<!DOCTYPE svg PUBLIC "-//W3C//DTD SVG 1.1//EN"
 "http://www.w3.org/Graphics/SVG/1.1/DTD/svg11.dtd">
<!-- Generated by graphviz version 2.40.1 (20161225.0304)
 -->
<!-- Title: osdk&#45;core/platform/linux/inc Pages: 1 -->
<svg width="94pt" height="150pt"
 viewBox="0.00 0.00 94.00 150.00" xmlns="http://www.w3.org/2000/svg" xmlns:xlink="http://www.w3.org/1999/xlink">
<g id="graph0" class="graph" transform="scale(1 1) rotate(0) translate(4 146)">
<title>osdk&#45;core/platform/linux/inc</title>
<polygon fill="#ffffff" stroke="transparent" points="-4,4 -4,-146 90,-146 90,4 -4,4"/>
<g id="clust1" class="cluster">
<title>clusterdir_46d8e2746c43089a4f7a5f7f15101a6a</title>
<g id="a_clust1"><a xlink:href="dir_46d8e2746c43089a4f7a5f7f15101a6a.html" target="_top" xlink:title="linux">
<polygon fill="#ddddee" stroke="#000000" points="8,-64 8,-134 78,-134 78,-64 8,-64"/>
<text text-anchor="middle" x="43" y="-122" font-family="Helvetica,sans-Serif" font-size="10.00" fill="#000000">linux</text>
</a>
</g>
</g>
<!-- dir_bd0bc0336deaf85967edaa654261a041 -->
<g id="node1" class="node">
<title>dir_bd0bc0336deaf85967edaa654261a041</title>
<g id="a_node1"><a xlink:href="dir_bd0bc0336deaf85967edaa654261a041.html" target="_top" xlink:title="inc">
<polygon fill="#eeeeff" stroke="#000000" points="70,-108 16,-108 16,-72 70,-72 70,-108"/>
<text text-anchor="middle" x="43" y="-87" font-family="Helvetica,sans-Serif" font-size="10.00" fill="#000000">inc</text>
</a>
</g>
</g>
<!-- dir_8d9255a88efd7d3d96544da8319c49d3 -->
<g id="node2" class="node">
<title>dir_8d9255a88efd7d3d96544da8319c49d3</title>
<g id="a_node2"><a xlink:href="dir_8d9255a88efd7d3d96544da8319c49d3.html" target="_top" xlink:title="hal">
<polygon fill="#ffffff" stroke="#ff0000" points="70,-36 16,-36 16,0 70,0 70,-36"/>
<text text-anchor="middle" x="43" y="-15" font-family="Helvetica,sans-Serif" font-size="10.00" fill="#000000">hal</text>
</a>
</g>
</g>
<!-- dir_bd0bc0336deaf85967edaa654261a041&#45;&gt;dir_8d9255a88efd7d3d96544da8319c49d3 -->
<g id="edge1" class="edge">
<title>dir_bd0bc0336deaf85967edaa654261a041&#45;&gt;dir_8d9255a88efd7d3d96544da8319c49d3</title>
<path fill="none" stroke="#000000" d="M43,-71.8314C43,-64.131 43,-54.9743 43,-46.4166"/>
<polygon fill="#000000" stroke="#000000" points="46.5001,-46.4132 43,-36.4133 39.5001,-46.4133 46.5001,-46.4132"/>
<g id="a_edge1&#45;headlabel"><a xlink:href="dir_000011_000006.html" target="_top" xlink:title="1">
<text text-anchor="middle" x="49.3393" y="-47.0079" font-family="Helvetica,sans-Serif" font-size="10.00" fill="#000000">1</text>
</a>
</g>
</g>
</g>
</svg>
