<?xml version="1.0" encoding="UTF-8" standalone="no"?>
<!DOCTYPE svg PUBLIC "-//W3C//DTD SVG 1.1//EN"
 "http://www.w3.org/Graphics/SVG/1.1/DTD/svg11.dtd">
<!-- Generated by graphviz version 2.40.1 (20161225.0304)
 -->
<!-- Title: osdk&#45;core/hal Pages: 1 -->
<svg width="182pt" height="182pt"
 viewBox="0.00 0.00 182.00 182.00" xmlns="http://www.w3.org/2000/svg" xmlns:xlink="http://www.w3.org/1999/xlink">
<g id="graph0" class="graph" transform="scale(1 1) rotate(0) translate(4 178)">
<title>osdk&#45;core/hal</title>
<polygon fill="#ffffff" stroke="transparent" points="-4,4 -4,-178 178,-178 178,4 -4,4"/>
<g id="clust1" class="cluster">
<title>clusterdir_95d02babf7f2c2cbb8138434e234b0a4</title>
<g id="a_clust1"><a xlink:href="dir_95d02babf7f2c2cbb8138434e234b0a4.html" target="_top" xlink:title="osdk&#45;core">
<polygon fill="#ddddee" stroke="#000000" points="8,-8 8,-166 166,-166 166,-8 8,-8"/>
<text text-anchor="middle" x="87" y="-154" font-family="Helvetica,sans-Serif" font-size="10.00" fill="#000000">osdk&#45;core</text>
</a>
</g>
</g>
<g id="clust2" class="cluster">
<title>clusterdir_8d9255a88efd7d3d96544da8319c49d3</title>
<g id="a_clust2"><a xlink:href="dir_8d9255a88efd7d3d96544da8319c49d3.html" target="_top">
<polygon fill="#eeeeff" stroke="#000000" points="16,-16 16,-140 158,-140 158,-16 16,-16"/>
</a>
</g>
</g>
<!-- dir_8d9255a88efd7d3d96544da8319c49d3 -->
<g id="node1" class="node">
<title>dir_8d9255a88efd7d3d96544da8319c49d3</title>
<text text-anchor="middle" x="123" y="-111" font-family="Helvetica,sans-Serif" font-size="10.00" fill="#000000">hal</text>
</g>
<!-- dir_04e1a489ba4c386a99bb2fd9dc98d6e6 -->
<g id="node2" class="node">
<title>dir_04e1a489ba4c386a99bb2fd9dc98d6e6</title>
<g id="a_node2"><a xlink:href="dir_04e1a489ba4c386a99bb2fd9dc98d6e6.html" target="_top" xlink:title="inc">
<polygon fill="#ffffff" stroke="#000000" points="78,-60 24,-60 24,-24 78,-24 78,-60"/>
<text text-anchor="middle" x="51" y="-39" font-family="Helvetica,sans-Serif" font-size="10.00" fill="#000000">inc</text>
</a>
</g>
</g>
<!-- dir_973126d21f563378849b6c368047e99c -->
<g id="node3" class="node">
<title>dir_973126d21f563378849b6c368047e99c</title>
<g id="a_node3"><a xlink:href="dir_973126d21f563378849b6c368047e99c.html" target="_top" xlink:title="src">
<polygon fill="#ffffff" stroke="#000000" points="78,-132 24,-132 24,-96 78,-96 78,-132"/>
<text text-anchor="middle" x="51" y="-111" font-family="Helvetica,sans-Serif" font-size="10.00" fill="#000000">src</text>
</a>
</g>
</g>
<!-- dir_973126d21f563378849b6c368047e99c&#45;&gt;dir_04e1a489ba4c386a99bb2fd9dc98d6e6 -->
<g id="edge1" class="edge">
<title>dir_973126d21f563378849b6c368047e99c&#45;&gt;dir_04e1a489ba4c386a99bb2fd9dc98d6e6</title>
<path fill="none" stroke="#000000" d="M51,-95.8314C51,-88.131 51,-78.9743 51,-70.4166"/>
<polygon fill="#000000" stroke="#000000" points="54.5001,-70.4132 51,-60.4133 47.5001,-70.4133 54.5001,-70.4132"/>
<g id="a_edge1&#45;headlabel"><a xlink:href="dir_000008_000007.html" target="_top" xlink:title="1">
<text text-anchor="middle" x="57.3393" y="-71.0079" font-family="Helvetica,sans-Serif" font-size="10.00" fill="#000000">1</text>
</a>
</g>
</g>
</g>
</svg>
