<?xml version="1.0" encoding="UTF-8" standalone="no"?>
<!DOCTYPE svg PUBLIC "-//W3C//DTD SVG 1.1//EN"
 "http://www.w3.org/Graphics/SVG/1.1/DTD/svg11.dtd">
<!-- Generated by graphviz version 2.40.1 (20161225.0304)
 -->
<!-- Title: osdk&#45;core/api/src/dji_subscription.cpp Pages: 1 -->
<!--zoomable 422 -->
<svg id="main" version="1.1" xmlns="http://www.w3.org/2000/svg" xmlns:xlink="http://www.w3.org/1999/xlink" xml:space="preserve" onload="init(evt)">
<style type="text/css"><![CDATA[
.edge:hover path { stroke: red; }
.edge:hover polygon { stroke: red; fill: red; }
]]></style>
<script type="text/javascript"><![CDATA[
var edges = document.getElementsByTagName('g');
if (edges && edges.length) {
  for (var i=0;i<edges.length;i++) {
    if (edges[i].id.substr(0,4)=='edge') {
      edges[i].setAttribute('class','edge');
    }
  }
}
]]></script>
        <defs>
                <circle id="rim" cx="0" cy="0" r="7"/>
                <circle id="rim2" cx="0" cy="0" r="3.5"/>
                <g id="zoomPlus">
                        <use xlink:href="#rim" fill="#404040">
                                <set attributeName="fill" to="#808080" begin="zoomplus.mouseover" end="zoomplus.mouseout"/>
                        </use>
                        <path d="M-4,0h8M0,-4v8" fill="none" stroke="white" stroke-width="1.5" pointer-events="none"/>
                </g>
                <g id="zoomMin">
                        <use xlink:href="#rim" fill="#404040">
                                <set attributeName="fill" to="#808080" begin="zoomminus.mouseover" end="zoomminus.mouseout"/>
                        </use>
                        <path d="M-4,0h8" fill="none" stroke="white" stroke-width="1.5" pointer-events="none"/>
                </g>
                <g id="dirArrow">
                        <path fill="none" stroke="white" stroke-width="1.5" d="M0,-3.0v7 M-2.5,-0.5L0,-3.0L2.5,-0.5"/>
                </g>
               <g id="resetDef">
                       <use xlink:href="#rim2" fill="#404040">
                               <set attributeName="fill" to="#808080" begin="reset.mouseover" end="reset.mouseout"/>
                       </use>
               </g>
        </defs>

<script type="text/javascript">
var viewWidth = 2127;
var viewHeight = 422;
var sectionId = 'dynsection-0';
</script>
<script xlink:href="svgpan.js"/>
<svg id="graph" class="graph">
<g id="viewport">
<title>osdk&#45;core/api/src/dji_subscription.cpp</title>
<polygon fill="#ffffff" stroke="transparent" points="-4,4 -4,-418 2122.9988,-418 2122.9988,4 -4,4"/>
<!-- Node0 -->
<g id="node1" class="node">
<title>Node0</title>
<g id="a_node1"><a xlink:title="Telemetry Subscription API for DJI OSDK library.">
<polygon fill="#bfbfbf" stroke="#000000" points="552.0171,-385.5 552.0171,-413.5 656.938,-413.5 656.938,-385.5 552.0171,-385.5"/>
<text text-anchor="start" x="560.0171" y="-401.5" font-family="Helvetica,sans-Serif" font-size="10.00" fill="#000000">osdk&#45;core/api/src/dji</text>
<text text-anchor="middle" x="604.4775" y="-391.5" font-family="Helvetica,sans-Serif" font-size="10.00" fill="#000000">_subscription.cpp</text>
</a>
</g>
</g>
<!-- Node1 -->
<g id="node2" class="node">
<title>Node1</title>
<g id="a_node2"><a xlink:href="dji__subscription_8hpp.html" target="_top" xlink:title="Telemetry Subscription API for DJI OSDK library.">
<polygon fill="#ffffff" stroke="#000000" points="123.2832,-220.5 123.2832,-238.5 227.6719,-238.5 227.6719,-220.5 123.2832,-220.5"/>
<text text-anchor="middle" x="175.4775" y="-226.5" font-family="Helvetica,sans-Serif" font-size="10.00" fill="#000000">dji_subscription.hpp</text>
</a>
</g>
</g>
<!-- Node0&#45;&gt;Node1 -->
<g id="edge1" class="edge">
<title>Node0&#45;&gt;Node1</title>
<path fill="none" stroke="#191970" d="M551.801,-391.1202C479.9821,-378.1191 348.9099,-348.6941 249.4775,-294 226.5469,-281.3867 204.4993,-260.697 190.5264,-246.1588"/>
<polygon fill="#191970" stroke="#191970" points="193.0302,-243.712 183.64,-238.8052 187.9207,-248.4968 193.0302,-243.712"/>
</g>
<!-- Node8 -->
<g id="node9" class="node">
<title>Node8</title>
<g id="a_node9"><a xlink:href="dji__vehicle_8hpp.html" target="_top" xlink:title="Vehicle API for DJI onboardSDK library.">
<polygon fill="#ffffff" stroke="#000000" points="1151.3989,-330.5 1151.3989,-348.5 1233.5562,-348.5 1233.5562,-330.5 1151.3989,-330.5"/>
<text text-anchor="middle" x="1192.4775" y="-336.5" font-family="Helvetica,sans-Serif" font-size="10.00" fill="#000000">dji_vehicle.hpp</text>
</a>
</g>
</g>
<!-- Node0&#45;&gt;Node8 -->
<g id="edge9" class="edge">
<title>Node0&#45;&gt;Node8</title>
<path fill="none" stroke="#191970" d="M657.1761,-394.1226C769.2739,-382.684 1030.1682,-356.0622 1141.0927,-344.7433"/>
<polygon fill="#191970" stroke="#191970" points="1141.7562,-348.1939 1151.3492,-343.6968 1141.0455,-341.2301 1141.7562,-348.1939"/>
</g>
<!-- Node2 -->
<g id="node3" class="node">
<title>Node2</title>
<g id="a_node3"><a xlink:title=" ">
<polygon fill="#ffffff" stroke="#bfbfbf" points="464.271,-55.5 464.271,-73.5 578.6841,-73.5 578.6841,-55.5 464.271,-55.5"/>
<text text-anchor="middle" x="521.4775" y="-61.5" font-family="Helvetica,sans-Serif" font-size="10.00" fill="#000000">dji_open_protocol.hpp</text>
</a>
</g>
</g>
<!-- Node1&#45;&gt;Node2 -->
<g id="edge2" class="edge">
<title>Node1&#45;&gt;Node2</title>
<path fill="none" stroke="#191970" d="M179.8816,-220.4859C191.4986,-197.7541 225.3493,-137.9208 272.4775,-110 302.4719,-92.23 390.9374,-79.0089 453.8718,-71.5242"/>
<polygon fill="#191970" stroke="#191970" points="454.6035,-74.9627 464.1307,-70.3277 453.7925,-68.0098 454.6035,-74.9627"/>
</g>
<!-- Node3 -->
<g id="node4" class="node">
<title>Node3</title>
<g id="a_node4"><a xlink:href="dji__telemetry_8hpp.html" target="_top" xlink:title="Enumeration of all telemetry data types, structures and maps.">
<polygon fill="#ffffff" stroke="#000000" points="748.77,-165.5 748.77,-183.5 840.1851,-183.5 840.1851,-165.5 748.77,-165.5"/>
<text text-anchor="middle" x="794.4775" y="-171.5" font-family="Helvetica,sans-Serif" font-size="10.00" fill="#000000">dji_telemetry.hpp</text>
</a>
</g>
</g>
<!-- Node1&#45;&gt;Node3 -->
<g id="edge3" class="edge">
<title>Node1&#45;&gt;Node3</title>
<path fill="none" stroke="#191970" d="M227.6864,-221.1121C230.6577,-220.7148 233.6038,-220.3405 236.4775,-220 419.4264,-198.3245 637.3555,-183.8033 738.1752,-177.7247"/>
<polygon fill="#191970" stroke="#191970" points="738.6592,-181.2021 748.4323,-177.1111 738.2411,-174.2146 738.6592,-181.2021"/>
</g>
<!-- Node7 -->
<g id="node8" class="node">
<title>Node7</title>
<g id="a_node8"><a xlink:href="dji__vehicle__callback_8hpp.html" target="_top" xlink:title="Type definition for new Vehicle&#45;style callbacks.">
<polygon fill="#ffffff" stroke="#000000" points="281.5542,-110.5 281.5542,-128.5 405.4009,-128.5 405.4009,-110.5 281.5542,-110.5"/>
<text text-anchor="middle" x="343.4775" y="-116.5" font-family="Helvetica,sans-Serif" font-size="10.00" fill="#000000">dji_vehicle_callback.hpp</text>
</a>
</g>
</g>
<!-- Node1&#45;&gt;Node7 -->
<g id="edge7" class="edge">
<title>Node1&#45;&gt;Node7</title>
<path fill="none" stroke="#191970" d="M189.2257,-220.4982C218.1445,-201.5633 285.5075,-157.4566 320.8748,-134.2994"/>
<polygon fill="#191970" stroke="#191970" points="323.0905,-137.0322 329.5394,-128.6261 319.256,-131.1759 323.0905,-137.0322"/>
</g>
<!-- Node4 -->
<g id="node5" class="node">
<title>Node4</title>
<g id="a_node5"><a xlink:href="dji__type_8hpp.html" target="_top" xlink:title="Data type and Data Structure definitions for use throughout DJI OSDK.">
<polygon fill="#ffffff" stroke="#000000" points="1138.5122,-110.5 1138.5122,-128.5 1208.4429,-128.5 1208.4429,-110.5 1138.5122,-110.5"/>
<text text-anchor="middle" x="1173.4775" y="-116.5" font-family="Helvetica,sans-Serif" font-size="10.00" fill="#000000">dji_type.hpp</text>
</a>
</g>
</g>
<!-- Node3&#45;&gt;Node4 -->
<g id="edge4" class="edge">
<title>Node3&#45;&gt;Node4</title>
<path fill="none" stroke="#191970" d="M840.3286,-167.166C845.1049,-166.4243 849.8888,-165.6905 854.4775,-165 951.7451,-150.3637 1065.8834,-134.3688 1127.8334,-125.786"/>
<polygon fill="#191970" stroke="#191970" points="1128.6219,-129.2103 1138.0477,-124.3725 1127.6623,-122.2764 1128.6219,-129.2103"/>
</g>
<!-- Node5 -->
<g id="node6" class="node">
<title>Node5</title>
<g id="a_node6"><a xlink:title=" ">
<polygon fill="#ffffff" stroke="#bfbfbf" points="1152.416,-55.5 1152.416,-73.5 1194.5391,-73.5 1194.5391,-55.5 1152.416,-55.5"/>
<text text-anchor="middle" x="1173.4775" y="-61.5" font-family="Helvetica,sans-Serif" font-size="10.00" fill="#000000">cstdio</text>
</a>
</g>
</g>
<!-- Node4&#45;&gt;Node5 -->
<g id="edge5" class="edge">
<title>Node4&#45;&gt;Node5</title>
<path fill="none" stroke="#191970" d="M1173.4775,-110.4179C1173.4775,-103.2164 1173.4775,-92.8962 1173.4775,-83.8632"/>
<polygon fill="#191970" stroke="#191970" points="1176.9776,-83.7794 1173.4775,-73.7795 1169.9776,-83.7795 1176.9776,-83.7794"/>
</g>
<!-- Node6 -->
<g id="node7" class="node">
<title>Node6</title>
<g id="a_node7"><a xlink:title=" ">
<polygon fill="#ffffff" stroke="#bfbfbf" points="1312.3569,-.5 1312.3569,-18.5 1360.5981,-18.5 1360.5981,-.5 1312.3569,-.5"/>
<text text-anchor="middle" x="1336.4775" y="-6.5" font-family="Helvetica,sans-Serif" font-size="10.00" fill="#000000">stdint.h</text>
</a>
</g>
</g>
<!-- Node4&#45;&gt;Node6 -->
<g id="edge6" class="edge">
<title>Node4&#45;&gt;Node6</title>
<path fill="none" stroke="#191970" d="M1186.8165,-110.4982C1214.8747,-91.5633 1280.2328,-47.4566 1314.5475,-24.2994"/>
<polygon fill="#191970" stroke="#191970" points="1316.623,-27.1212 1322.9543,-18.6261 1312.7073,-21.3189 1316.623,-27.1212"/>
</g>
<!-- Node7&#45;&gt;Node2 -->
<g id="edge8" class="edge">
<title>Node7&#45;&gt;Node2</title>
<path fill="none" stroke="#191970" d="M372.8706,-110.4179C402.8487,-101.155 449.5252,-86.7325 482.557,-76.526"/>
<polygon fill="#191970" stroke="#191970" points="483.8156,-79.8005 492.3366,-73.5042 481.7491,-73.1124 483.8156,-79.8005"/>
</g>
<!-- Node8&#45;&gt;Node1 -->
<g id="edge60" class="edge">
<title>Node8&#45;&gt;Node1</title>
<path fill="none" stroke="#191970" d="M1151.1458,-338.4092C986.7343,-333.9313 384.0382,-316.1464 301.4775,-294 262.3307,-283.4991 221.3267,-259.757 197.1071,-244.1937"/>
<polygon fill="#191970" stroke="#191970" points="198.9676,-241.2284 188.6853,-238.674 195.1305,-247.083 198.9676,-241.2284"/>
</g>
<!-- Node8&#45;&gt;Node2 -->
<g id="edge57" class="edge">
<title>Node8&#45;&gt;Node2</title>
<path fill="none" stroke="#191970" d="M1151.0934,-338.6135C1038.0228,-335.8038 725.8423,-325.3485 628.4775,-294 575.6221,-276.9821 521.4775,-285.0275 521.4775,-229.5 521.4775,-229.5 521.4775,-229.5 521.4775,-174.5 521.4775,-142.7718 521.4775,-105.8957 521.4775,-83.917"/>
<polygon fill="#191970" stroke="#191970" points="524.9776,-83.6266 521.4775,-73.6267 517.9776,-83.6267 524.9776,-83.6266"/>
</g>
<!-- Node8&#45;&gt;Node4 -->
<g id="edge62" class="edge">
<title>Node8&#45;&gt;Node4</title>
<path fill="none" stroke="#191970" d="M1209.1224,-330.4582C1221.8628,-322.5932 1238.694,-309.9596 1247.4775,-294 1275.1621,-243.6973 1283.4791,-214.555 1254.4775,-165 1245.7069,-150.0137 1229.9883,-139.5853 1214.7165,-132.5315"/>
<polygon fill="#191970" stroke="#191970" points="1215.9052,-129.2342 1205.3315,-128.5651 1213.1801,-135.682 1215.9052,-129.2342"/>
</g>
<!-- Node8&#45;&gt;Node7 -->
<g id="edge63" class="edge">
<title>Node8&#45;&gt;Node7</title>
<path fill="none" stroke="#191970" d="M1151.1465,-339.3567C992.8317,-338.5216 425.1242,-332.8254 249.4775,-294 186.2162,-280.0166 150.6287,-292.7645 114.4775,-239 109.7656,-231.9924 109.8595,-227.0698 114.4775,-220 148.9401,-167.2402 217.9383,-142.0006 271.2321,-130.0349"/>
<polygon fill="#191970" stroke="#191970" points="272.2766,-133.3909 281.3271,-127.8829 270.8172,-126.5447 272.2766,-133.3909"/>
</g>
<!-- Node9 -->
<g id="node10" class="node">
<title>Node9</title>
<g id="a_node10"><a xlink:title=" ">
<polygon fill="#ffffff" stroke="#bfbfbf" points="1859.0269,-110.5 1859.0269,-128.5 1903.9282,-128.5 1903.9282,-110.5 1859.0269,-110.5"/>
<text text-anchor="middle" x="1881.4775" y="-116.5" font-family="Helvetica,sans-Serif" font-size="10.00" fill="#000000">cstdint</text>
</a>
</g>
</g>
<!-- Node8&#45;&gt;Node9 -->
<g id="edge10" class="edge">
<title>Node8&#45;&gt;Node9</title>
<path fill="none" stroke="#191970" d="M1233.6356,-339.0058C1407.3584,-336.7225 2073.1211,-325.9104 2103.4775,-294 2172.3553,-221.5962 1990.7794,-153.856 1913.9395,-129.2608"/>
<polygon fill="#191970" stroke="#191970" points="1914.8447,-125.8765 1904.2552,-126.2124 1912.7429,-132.5535 1914.8447,-125.8765"/>
</g>
<!-- Node10 -->
<g id="node11" class="node">
<title>Node10</title>
<g id="a_node11"><a xlink:href="dji__broadcast_8hpp.html" target="_top" xlink:title="Broadcast Telemetry API for DJI onboardSDK library.">
<polygon fill="#ffffff" stroke="#000000" points="549.0049,-220.5 549.0049,-238.5 643.9502,-238.5 643.9502,-220.5 549.0049,-220.5"/>
<text text-anchor="middle" x="596.4775" y="-226.5" font-family="Helvetica,sans-Serif" font-size="10.00" fill="#000000">dji_broadcast.hpp</text>
</a>
</g>
</g>
<!-- Node8&#45;&gt;Node10 -->
<g id="edge11" class="edge">
<title>Node8&#45;&gt;Node10</title>
<path fill="none" stroke="#191970" d="M1151.3049,-337.6373C1033.9845,-332.0993 703.5668,-314.8189 659.4775,-294 637.6752,-283.7049 619.3016,-262.4481 608.1237,-247.1476"/>
<polygon fill="#191970" stroke="#191970" points="610.7159,-244.7456 602.1274,-238.5418 604.9726,-248.7475 610.7159,-244.7456"/>
</g>
<!-- Node11 -->
<g id="node12" class="node">
<title>Node11</title>
<g id="a_node12"><a xlink:href="dji__camera_8hpp.html" target="_top" xlink:title="Camera/Gimbal API for DJI onboardSDK library.">
<polygon fill="#ffffff" stroke="#000000" points="1458.2905,-165.5 1458.2905,-183.5 1542.6646,-183.5 1542.6646,-165.5 1458.2905,-165.5"/>
<text text-anchor="middle" x="1500.4775" y="-171.5" font-family="Helvetica,sans-Serif" font-size="10.00" fill="#000000">dji_camera.hpp</text>
</a>
</g>
</g>
<!-- Node8&#45;&gt;Node11 -->
<g id="edge14" class="edge">
<title>Node8&#45;&gt;Node11</title>
<path fill="none" stroke="#191970" d="M1233.7032,-332.0091C1262.5763,-325.3648 1301.0935,-313.594 1330.4775,-294 1366.6549,-269.8761 1359.3831,-245.6739 1394.4775,-220 1414.2912,-205.505 1439.4349,-194.4588 1460.2609,-186.8822"/>
<polygon fill="#191970" stroke="#191970" points="1461.5116,-190.1527 1469.7923,-183.5436 1459.1975,-183.5462 1461.5116,-190.1527"/>
</g>
<!-- Node12 -->
<g id="node13" class="node">
<title>Node12</title>
<g id="a_node13"><a xlink:href="dji__command_8hpp.html" target="_top" xlink:title="All DJI OSDK OpenProtocol Command IDs.">
<polygon fill="#ffffff" stroke="#000000" points="1353.0098,-110.5 1353.0098,-128.5 1447.9453,-128.5 1447.9453,-110.5 1353.0098,-110.5"/>
<text text-anchor="middle" x="1400.4775" y="-116.5" font-family="Helvetica,sans-Serif" font-size="10.00" fill="#000000">dji_command.hpp</text>
</a>
</g>
</g>
<!-- Node8&#45;&gt;Node12 -->
<g id="edge21" class="edge">
<title>Node8&#45;&gt;Node12</title>
<path fill="none" stroke="#191970" d="M1233.6476,-330.7696C1266.9366,-323.0429 1314.6487,-310.4431 1354.4775,-294 1447.1691,-255.7328 1500.7158,-270.4832 1551.4775,-184 1574.5432,-144.7029 1509.9357,-129.3331 1458.147,-123.3311"/>
<polygon fill="#191970" stroke="#191970" points="1458.304,-119.8282 1447.99,-122.2513 1457.5639,-126.7889 1458.304,-119.8282"/>
</g>
<!-- Node14 -->
<g id="node15" class="node">
<title>Node14</title>
<g id="a_node15"><a xlink:title=" ">
<polygon fill="#ffffff" stroke="#bfbfbf" points="1474.6445,-275.5 1474.6445,-293.5 1588.3105,-293.5 1588.3105,-275.5 1474.6445,-275.5"/>
<text text-anchor="middle" x="1531.4775" y="-281.5" font-family="Helvetica,sans-Serif" font-size="10.00" fill="#000000">dji_circular_buffer.hpp</text>
</a>
</g>
</g>
<!-- Node8&#45;&gt;Node14 -->
<g id="edge20" class="edge">
<title>Node8&#45;&gt;Node14</title>
<path fill="none" stroke="#191970" d="M1233.7067,-332.8109C1291.4427,-323.4437 1396.9964,-306.3185 1465.6703,-295.1767"/>
<polygon fill="#191970" stroke="#191970" points="1466.633,-298.5664 1475.9433,-293.51 1465.5119,-291.6567 1466.633,-298.5664"/>
</g>
<!-- Node15 -->
<g id="node16" class="node">
<title>Node15</title>
<g id="a_node16"><a xlink:href="dji__control_8hpp.html" target="_top" xlink:title="Control API for DJI OSDK library.">
<polygon fill="#ffffff" stroke="#000000" points="668.9556,-275.5 668.9556,-293.5 749.9995,-293.5 749.9995,-275.5 668.9556,-275.5"/>
<text text-anchor="middle" x="709.4775" y="-281.5" font-family="Helvetica,sans-Serif" font-size="10.00" fill="#000000">dji_control.hpp</text>
</a>
</g>
</g>
<!-- Node8&#45;&gt;Node15 -->
<g id="edge22" class="edge">
<title>Node8&#45;&gt;Node15</title>
<path fill="none" stroke="#191970" d="M1151.2972,-334.8107C1063.143,-324.7725 856.3876,-301.2289 760.2677,-290.2836"/>
<polygon fill="#191970" stroke="#191970" points="760.5442,-286.7925 750.2124,-289.1385 759.7521,-293.7476 760.5442,-286.7925"/>
</g>
<!-- Node18 -->
<g id="node19" class="node">
<title>Node18</title>
<g id="a_node19"><a xlink:href="dji__version_8hpp.html" target="_top" xlink:title="Drone/SDK Version definition for DJI onboardSDK library.">
<polygon fill="#ffffff" stroke="#000000" points="1598.8447,-165.5 1598.8447,-183.5 1682.1104,-183.5 1682.1104,-165.5 1598.8447,-165.5"/>
<text text-anchor="middle" x="1640.4775" y="-171.5" font-family="Helvetica,sans-Serif" font-size="10.00" fill="#000000">dji_version.hpp</text>
</a>
</g>
</g>
<!-- Node8&#45;&gt;Node18 -->
<g id="edge64" class="edge">
<title>Node8&#45;&gt;Node18</title>
<path fill="none" stroke="#191970" d="M1233.7993,-335.1879C1280.6442,-329.4235 1358.7758,-317.1353 1422.4775,-294 1462.2214,-279.5658 1568.833,-217.2229 1616.6715,-188.7637"/>
<polygon fill="#191970" stroke="#191970" points="1618.622,-191.6757 1625.4183,-183.5479 1615.0368,-185.6635 1618.622,-191.6757"/>
</g>
<!-- Node20 -->
<g id="node21" class="node">
<title>Node20</title>
<g id="a_node21"><a xlink:href="dji__gimbal_8hpp.html" target="_top" xlink:title="Gimbal API for OSDK library.">
<polygon fill="#ffffff" stroke="#000000" points="1360.2339,-165.5 1360.2339,-183.5 1440.7212,-183.5 1440.7212,-165.5 1360.2339,-165.5"/>
<text text-anchor="middle" x="1400.4775" y="-171.5" font-family="Helvetica,sans-Serif" font-size="10.00" fill="#000000">dji_gimbal.hpp</text>
</a>
</g>
</g>
<!-- Node8&#45;&gt;Node20 -->
<g id="edge35" class="edge">
<title>Node8&#45;&gt;Node20</title>
<path fill="none" stroke="#191970" d="M1232.4627,-330.4465C1256.4351,-323.5022 1286.4402,-311.9885 1308.4775,-294 1338.8465,-269.2106 1332.0713,-250.6778 1356.4775,-220 1364.6486,-209.7292 1374.7728,-199.1381 1383.249,-190.7612"/>
<polygon fill="#191970" stroke="#191970" points="1385.7234,-193.2372 1390.4666,-183.7634 1380.8507,-188.2115 1385.7234,-193.2372"/>
</g>
<!-- Node21 -->
<g id="node22" class="node">
<title>Node21</title>
<g id="a_node22"><a xlink:title=" ">
<polygon fill="#ffffff" stroke="#bfbfbf" points="1605.9458,-275.5 1605.9458,-293.5 1707.0093,-293.5 1707.0093,-275.5 1605.9458,-275.5"/>
<text text-anchor="middle" x="1656.4775" y="-281.5" font-family="Helvetica,sans-Serif" font-size="10.00" fill="#000000">dji_hard_driver.hpp</text>
</a>
</g>
</g>
<!-- Node8&#45;&gt;Node21 -->
<g id="edge38" class="edge">
<title>Node8&#45;&gt;Node21</title>
<path fill="none" stroke="#191970" d="M1233.6627,-335.5294C1305.2403,-328.4858 1457.4534,-312.8773 1595.7218,-294.1924"/>
<polygon fill="#191970" stroke="#191970" points="1596.2147,-297.6577 1605.6517,-292.8418 1595.2712,-290.7215 1596.2147,-297.6577"/>
</g>
<!-- Node22 -->
<g id="node23" class="node">
<title>Node22</title>
<g id="a_node23"><a xlink:href="dji__hardware__sync_8hpp.html" target="_top" xlink:title="Hardware Sync API for DJI OSDK.">
<polygon fill="#ffffff" stroke="#000000" points="737.0566,-220.5 737.0566,-238.5 855.8984,-238.5 855.8984,-220.5 737.0566,-220.5"/>
<text text-anchor="middle" x="796.4775" y="-226.5" font-family="Helvetica,sans-Serif" font-size="10.00" fill="#000000">dji_hardware_sync.hpp</text>
</a>
</g>
</g>
<!-- Node8&#45;&gt;Node22 -->
<g id="edge39" class="edge">
<title>Node8&#45;&gt;Node22</title>
<path fill="none" stroke="#191970" d="M1151.3173,-331.7157C1109.6945,-323.5284 1043.6626,-309.6732 987.4775,-294 931.6185,-278.4177 868.0543,-255.9861 830.1595,-242.0992"/>
<polygon fill="#191970" stroke="#191970" points="831.2326,-238.7646 820.6392,-238.592 828.8128,-245.3331 831.2326,-238.7646"/>
</g>
<!-- Node23 -->
<g id="node24" class="node">
<title>Node23</title>
<g id="a_node24"><a xlink:href="dji__mfio_8hpp.html" target="_top" xlink:title="MFIO API for DJI OSDK library.">
<polygon fill="#ffffff" stroke="#000000" points="245.5171,-220.5 245.5171,-238.5 315.438,-238.5 315.438,-220.5 245.5171,-220.5"/>
<text text-anchor="middle" x="280.4775" y="-226.5" font-family="Helvetica,sans-Serif" font-size="10.00" fill="#000000">dji_mfio.hpp</text>
</a>
</g>
</g>
<!-- Node8&#45;&gt;Node23 -->
<g id="edge41" class="edge">
<title>Node8&#45;&gt;Node23</title>
<path fill="none" stroke="#191970" d="M1151.2938,-338.3166C984.2081,-333.3895 364.06,-313.8341 327.4775,-294 309.0699,-284.0198 296.0164,-263.3452 288.4105,-248.0806"/>
<polygon fill="#191970" stroke="#191970" points="291.3894,-246.1835 284.0163,-238.5751 285.0355,-249.1208 291.3894,-246.1835"/>
</g>
<!-- Node24 -->
<g id="node25" class="node">
<title>Node24</title>
<g id="a_node25"><a xlink:href="dji__mission__manager_8hpp.html" target="_top" xlink:title="Mission&#45;Manager API for DJI OSDK library.">
<polygon fill="#ffffff" stroke="#000000" points="996.7734,-275.5 996.7734,-293.5 1126.1816,-293.5 1126.1816,-275.5 996.7734,-275.5"/>
<text text-anchor="middle" x="1061.4775" y="-281.5" font-family="Helvetica,sans-Serif" font-size="10.00" fill="#000000">dji_mission_manager.hpp</text>
</a>
</g>
</g>
<!-- Node8&#45;&gt;Node24 -->
<g id="edge43" class="edge">
<title>Node8&#45;&gt;Node24</title>
<path fill="none" stroke="#191970" d="M1170.8456,-330.4179C1149.5126,-321.4613 1116.6896,-307.6806 1092.565,-297.552"/>
<polygon fill="#191970" stroke="#191970" points="1093.7169,-294.2397 1083.1417,-293.5956 1091.0071,-300.6939 1093.7169,-294.2397"/>
</g>
<!-- Node28 -->
<g id="node29" class="node">
<title>Node28</title>
<g id="a_node29"><a xlink:href="dji__mobile__communication_8hpp.html" target="_top" xlink:title="Implementation of DJI Mobile&#45;Onboard SDK Communication (MOC)">
<polygon fill="#ffffff" stroke="#000000" points="336.8276,-275.5 336.8276,-293.5 490.1274,-293.5 490.1274,-275.5 336.8276,-275.5"/>
<text text-anchor="middle" x="413.4775" y="-281.5" font-family="Helvetica,sans-Serif" font-size="10.00" fill="#000000">dji_mobile_communication.hpp</text>
</a>
</g>
</g>
<!-- Node8&#45;&gt;Node28 -->
<g id="edge52" class="edge">
<title>Node8&#45;&gt;Node28</title>
<path fill="none" stroke="#191970" d="M1151.1308,-337.2507C1044.4595,-331.3398 751.2533,-314.4086 507.4775,-294 505.0985,-293.8008 502.6862,-293.5936 500.252,-293.3799"/>
<polygon fill="#191970" stroke="#191970" points="500.4252,-289.8814 490.1511,-292.4686 499.7962,-296.8531 500.4252,-289.8814"/>
</g>
<!-- Node30 -->
<g id="node31" class="node">
<title>Node30</title>
<g id="a_node31"><a xlink:href="dji__mobile__device_8hpp.html" target="_top" xlink:title="Implementation of DJI Mobile Device Abstraction.">
<polygon fill="#ffffff" stroke="#000000" points="0,-165.5 0,-183.5 114.9551,-183.5 114.9551,-165.5 0,-165.5"/>
<text text-anchor="middle" x="57.4775" y="-171.5" font-family="Helvetica,sans-Serif" font-size="10.00" fill="#000000">dji_mobile_device.hpp</text>
</a>
</g>
</g>
<!-- Node8&#45;&gt;Node30 -->
<g id="edge55" class="edge">
<title>Node8&#45;&gt;Node30</title>
<path fill="none" stroke="#191970" d="M1151.341,-339.226C955.2198,-337.7423 122.9036,-329.3744 81.4775,-294 52.7531,-269.4717 52.4175,-221.0505 54.8468,-193.9809"/>
<polygon fill="#191970" stroke="#191970" points="58.3501,-194.1457 55.9825,-183.8188 51.3934,-193.3681 58.3501,-194.1457"/>
</g>
<!-- Node31 -->
<g id="node32" class="node">
<title>Node31</title>
<g id="a_node32"><a xlink:title=" ">
<polygon fill="#ffffff" stroke="#bfbfbf" points="1724.6602,-275.5 1724.6602,-293.5 1856.2949,-293.5 1856.2949,-275.5 1724.6602,-275.5"/>
<text text-anchor="middle" x="1790.4775" y="-281.5" font-family="Helvetica,sans-Serif" font-size="10.00" fill="#000000">dji_platform_manager.hpp</text>
</a>
</g>
</g>
<!-- Node8&#45;&gt;Node31 -->
<g id="edge58" class="edge">
<title>Node8&#45;&gt;Node31</title>
<path fill="none" stroke="#191970" d="M1233.6339,-336.5043C1320.5063,-330.0564 1529.2173,-313.9086 1714.1464,-294.2191"/>
<polygon fill="#191970" stroke="#191970" points="1714.7583,-297.6737 1724.3288,-293.1288 1714.0129,-290.7135 1714.7583,-297.6737"/>
</g>
<!-- Node32 -->
<g id="node33" class="node">
<title>Node32</title>
<g id="a_node33"><a xlink:href="dji__status_8hpp.html" target="_top" xlink:title="Status information for DJI Vehicle.">
<polygon fill="#ffffff" stroke="#000000" points="1874.623,-275.5 1874.623,-293.5 1952.332,-293.5 1952.332,-275.5 1874.623,-275.5"/>
<text text-anchor="middle" x="1913.4775" y="-281.5" font-family="Helvetica,sans-Serif" font-size="10.00" fill="#000000">dji_status.hpp</text>
</a>
</g>
</g>
<!-- Node8&#45;&gt;Node32 -->
<g id="edge59" class="edge">
<title>Node8&#45;&gt;Node32</title>
<path fill="none" stroke="#191970" d="M1233.6284,-338.5485C1337.6466,-335.7529 1619.6277,-325.7447 1864.3591,-293.9781"/>
<polygon fill="#191970" stroke="#191970" points="1865.0549,-297.4169 1874.514,-292.6445 1864.1434,-290.4765 1865.0549,-297.4169"/>
</g>
<!-- Node33 -->
<g id="node34" class="node">
<title>Node33</title>
<g id="a_node34"><a xlink:title=" ">
<polygon fill="#ffffff" stroke="#bfbfbf" points="1970.5444,-275.5 1970.5444,-293.5 2094.4106,-293.5 2094.4106,-275.5 1970.5444,-275.5"/>
<text text-anchor="middle" x="2032.4775" y="-281.5" font-family="Helvetica,sans-Serif" font-size="10.00" fill="#000000">dji_thread_manager.hpp</text>
</a>
</g>
</g>
<!-- Node8&#45;&gt;Node33 -->
<g id="edge61" class="edge">
<title>Node8&#45;&gt;Node33</title>
<path fill="none" stroke="#191970" d="M1233.8244,-338.1296C1347.8245,-334.1216 1676.4239,-321.0237 1960.0977,-294.0668"/>
<polygon fill="#191970" stroke="#191970" points="1960.5488,-297.5397 1970.1695,-293.102 1959.8813,-290.5716 1960.5488,-297.5397"/>
</g>
<!-- Node34 -->
<g id="node35" class="node">
<title>Node34</title>
<g id="a_node35"><a xlink:href="dji__virtual__rc_8hpp.html" target="_top" xlink:title="Virtual Radio Control API for DJI onboardSDK library.">
<polygon fill="#ffffff" stroke="#000000" points="1146.6797,-275.5 1146.6797,-293.5 1238.2754,-293.5 1238.2754,-275.5 1146.6797,-275.5"/>
<text text-anchor="middle" x="1192.4775" y="-281.5" font-family="Helvetica,sans-Serif" font-size="10.00" fill="#000000">dji_virtual_rc.hpp</text>
</a>
</g>
</g>
<!-- Node8&#45;&gt;Node34 -->
<g id="edge65" class="edge">
<title>Node8&#45;&gt;Node34</title>
<path fill="none" stroke="#191970" d="M1192.4775,-330.4179C1192.4775,-323.2164 1192.4775,-312.8962 1192.4775,-303.8632"/>
<polygon fill="#191970" stroke="#191970" points="1195.9776,-303.7794 1192.4775,-293.7795 1188.9776,-303.7795 1195.9776,-303.7794"/>
</g>
<!-- Node10&#45;&gt;Node3 -->
<g id="edge12" class="edge">
<title>Node10&#45;&gt;Node3</title>
<path fill="none" stroke="#191970" d="M629.1732,-220.4179C662.8071,-211.0751 715.3373,-196.4834 752.1308,-186.263"/>
<polygon fill="#191970" stroke="#191970" points="753.364,-189.553 762.0624,-183.5042 751.4904,-182.8084 753.364,-189.553"/>
</g>
<!-- Node10&#45;&gt;Node7 -->
<g id="edge13" class="edge">
<title>Node10&#45;&gt;Node7</title>
<path fill="none" stroke="#191970" d="M578.041,-220.3432C551.8984,-207.4687 502.451,-183.5199 459.4775,-165 432.1861,-153.2385 400.7814,-140.9976 377.5368,-132.1788"/>
<polygon fill="#191970" stroke="#191970" points="378.702,-128.8776 368.1103,-128.6201 376.2297,-135.4265 378.702,-128.8776"/>
</g>
<!-- Node11&#45;&gt;Node4 -->
<g id="edge19" class="edge">
<title>Node11&#45;&gt;Node4</title>
<path fill="none" stroke="#191970" d="M1458.189,-166.5528C1455.2421,-166.0205 1452.3162,-165.4983 1449.4775,-165 1368.3682,-150.7616 1273.6134,-135.4224 1218.8777,-126.688"/>
<polygon fill="#191970" stroke="#191970" points="1219.2339,-123.2006 1208.8077,-125.0835 1218.1325,-130.1134 1219.2339,-123.2006"/>
</g>
<!-- Node11&#45;&gt;Node12 -->
<g id="edge15" class="edge">
<title>Node11&#45;&gt;Node12</title>
<path fill="none" stroke="#191970" d="M1483.9646,-165.4179C1468.1865,-156.7399 1444.1747,-143.5334 1425.9461,-133.5077"/>
<polygon fill="#191970" stroke="#191970" points="1427.4639,-130.3481 1417.015,-128.5956 1424.0905,-136.4816 1427.4639,-130.3481"/>
</g>
<!-- Node12&#45;&gt;Node6 -->
<g id="edge18" class="edge">
<title>Node12&#45;&gt;Node6</title>
<path fill="none" stroke="#191970" d="M1388.4812,-110.2741C1378.3157,-101.857 1364.0608,-88.5434 1355.4775,-74 1347.2265,-60.0196 1342.3331,-42.1952 1339.5842,-28.8283"/>
<polygon fill="#191970" stroke="#191970" points="1342.9975,-28.0365 1337.7529,-18.8308 1336.112,-29.2978 1342.9975,-28.0365"/>
</g>
<!-- Node13 -->
<g id="node14" class="node">
<title>Node13</title>
<g id="a_node14"><a xlink:href="dji__error_8hpp.html" target="_top" xlink:title="All DJI OSDK OpenProtocol ACK Error Codes.">
<polygon fill="#ffffff" stroke="#000000" points="1364.6797,-55.5 1364.6797,-73.5 1436.2754,-73.5 1436.2754,-55.5 1364.6797,-55.5"/>
<text text-anchor="middle" x="1400.4775" y="-61.5" font-family="Helvetica,sans-Serif" font-size="10.00" fill="#000000">dji_error.hpp</text>
</a>
</g>
</g>
<!-- Node12&#45;&gt;Node13 -->
<g id="edge16" class="edge">
<title>Node12&#45;&gt;Node13</title>
<path fill="none" stroke="#191970" d="M1400.4775,-110.4179C1400.4775,-103.2164 1400.4775,-92.8962 1400.4775,-83.8632"/>
<polygon fill="#191970" stroke="#191970" points="1403.9776,-83.7794 1400.4775,-73.7795 1396.9776,-83.7795 1403.9776,-83.7794"/>
</g>
<!-- Node13&#45;&gt;Node6 -->
<g id="edge17" class="edge">
<title>Node13&#45;&gt;Node6</title>
<path fill="none" stroke="#191970" d="M1389.9092,-55.4179C1380.4243,-47.2667 1366.2901,-35.1201 1354.9409,-25.3669"/>
<polygon fill="#191970" stroke="#191970" points="1357.1409,-22.6427 1347.2755,-18.7795 1352.5785,-27.9516 1357.1409,-22.6427"/>
</g>
<!-- Node15&#45;&gt;Node2 -->
<g id="edge32" class="edge">
<title>Node15&#45;&gt;Node2</title>
<path fill="none" stroke="#191970" d="M701.6388,-275.327C672.9729,-241.7818 573.5555,-125.4423 535.9973,-81.4912"/>
<polygon fill="#191970" stroke="#191970" points="538.5072,-79.0407 529.3498,-73.7122 533.1855,-83.5883 538.5072,-79.0407"/>
</g>
<!-- Node15&#45;&gt;Node4 -->
<g id="edge33" class="edge">
<title>Node15&#45;&gt;Node4</title>
<path fill="none" stroke="#191970" d="M708.6084,-275.2511C707.0374,-252.5012 706.518,-193.597 739.4775,-165 768.4479,-139.8642 1023.1587,-126.0238 1128.3418,-121.3373"/>
<polygon fill="#191970" stroke="#191970" points="1128.501,-124.8337 1138.3382,-120.8994 1128.1946,-117.8404 1128.501,-124.8337"/>
</g>
<!-- Node15&#45;&gt;Node7 -->
<g id="edge34" class="edge">
<title>Node15&#45;&gt;Node7</title>
<path fill="none" stroke="#191970" d="M668.7982,-276.921C633.8806,-269.6297 582.663,-257.0413 540.4775,-239 471.9396,-209.6887 398.7979,-159.7307 364.0709,-134.7155"/>
<polygon fill="#191970" stroke="#191970" points="365.8588,-131.6881 355.7121,-128.6394 361.7429,-137.3503 365.8588,-131.6881"/>
</g>
<!-- Node16 -->
<g id="node17" class="node">
<title>Node16</title>
<g id="a_node17"><a xlink:href="dji__ack_8hpp.html" target="_top" xlink:title="All DJI OSDK ACK parsing.">
<polygon fill="#ffffff" stroke="#000000" points="1162.1821,-220.5 1162.1821,-238.5 1228.7729,-238.5 1228.7729,-220.5 1162.1821,-220.5"/>
<text text-anchor="middle" x="1195.4775" y="-226.5" font-family="Helvetica,sans-Serif" font-size="10.00" fill="#000000">dji_ack.hpp</text>
</a>
</g>
</g>
<!-- Node15&#45;&gt;Node16 -->
<g id="edge23" class="edge">
<title>Node15&#45;&gt;Node16</title>
<path fill="none" stroke="#191970" d="M750.1141,-280.0356C823.2249,-271.9835 981.7803,-254.4298 1115.4775,-239 1127.2985,-237.6358 1140.0982,-236.129 1151.9205,-234.7252"/>
<polygon fill="#191970" stroke="#191970" points="1152.4929,-238.1819 1162.009,-233.5242 1151.6653,-231.231 1152.4929,-238.1819"/>
</g>
<!-- Node16&#45;&gt;Node4 -->
<g id="edge27" class="edge">
<title>Node16&#45;&gt;Node4</title>
<path fill="none" stroke="#191970" d="M1162.1545,-221.1077C1143.1458,-214.4256 1120.8937,-202.9555 1109.4775,-184 1097.3713,-163.8988 1120.9418,-145.3806 1142.8161,-133.3924"/>
<polygon fill="#191970" stroke="#191970" points="1144.6937,-136.3623 1151.9781,-128.6689 1141.4859,-130.1405 1144.6937,-136.3623"/>
</g>
<!-- Node16&#45;&gt;Node12 -->
<g id="edge24" class="edge">
<title>Node16&#45;&gt;Node12</title>
<path fill="none" stroke="#191970" d="M1212.2535,-220.4982C1247.9919,-201.3216 1331.8466,-156.3263 1374.5303,-133.4229"/>
<polygon fill="#191970" stroke="#191970" points="1376.313,-136.4384 1383.4697,-128.6261 1373.0032,-130.2703 1376.313,-136.4384"/>
</g>
<!-- Node17 -->
<g id="node18" class="node">
<title>Node17</title>
<g id="a_node18"><a xlink:href="dji__mission__type_8hpp.html" target="_top" xlink:title="Mission related data struct for DJI OSDK library.">
<polygon fill="#ffffff" stroke="#000000" points="1118.7832,-165.5 1118.7832,-183.5 1228.1719,-183.5 1228.1719,-165.5 1118.7832,-165.5"/>
<text text-anchor="middle" x="1173.4775" y="-171.5" font-family="Helvetica,sans-Serif" font-size="10.00" fill="#000000">dji_mission_type.hpp</text>
</a>
</g>
</g>
<!-- Node16&#45;&gt;Node17 -->
<g id="edge25" class="edge">
<title>Node16&#45;&gt;Node17</title>
<path fill="none" stroke="#191970" d="M1191.8447,-220.4179C1188.9008,-213.0581 1184.654,-202.441 1180.9853,-193.2695"/>
<polygon fill="#191970" stroke="#191970" points="1184.153,-191.7643 1177.1893,-183.7795 1177.6536,-194.3641 1184.153,-191.7643"/>
</g>
<!-- Node16&#45;&gt;Node18 -->
<g id="edge28" class="edge">
<title>Node16&#45;&gt;Node18</title>
<path fill="none" stroke="#191970" d="M1228.9249,-225.3661C1305.9782,-215.8426 1496.4375,-192.3027 1588.7151,-180.8976"/>
<polygon fill="#191970" stroke="#191970" points="1589.1726,-184.3678 1598.6677,-179.6675 1588.3139,-177.4206 1589.1726,-184.3678"/>
</g>
<!-- Node19 -->
<g id="node20" class="node">
<title>Node19</title>
<g id="a_node20"><a xlink:title=" ">
<polygon fill="#ffffff" stroke="#bfbfbf" points="1026.751,-165.5 1026.751,-183.5 1062.2041,-183.5 1062.2041,-165.5 1026.751,-165.5"/>
<text text-anchor="middle" x="1044.4775" y="-171.5" font-family="Helvetica,sans-Serif" font-size="10.00" fill="#000000">map</text>
</a>
</g>
</g>
<!-- Node16&#45;&gt;Node19 -->
<g id="edge31" class="edge">
<title>Node16&#45;&gt;Node19</title>
<path fill="none" stroke="#191970" d="M1170.543,-220.4179C1143.387,-210.5266 1100.0787,-194.7521 1071.9598,-184.5101"/>
<polygon fill="#191970" stroke="#191970" points="1072.9396,-181.1421 1062.3456,-181.0082 1070.5438,-187.7194 1072.9396,-181.1421"/>
</g>
<!-- Node17&#45;&gt;Node4 -->
<g id="edge26" class="edge">
<title>Node17&#45;&gt;Node4</title>
<path fill="none" stroke="#191970" d="M1173.4775,-165.4179C1173.4775,-158.2164 1173.4775,-147.8962 1173.4775,-138.8632"/>
<polygon fill="#191970" stroke="#191970" points="1176.9776,-138.7794 1173.4775,-128.7795 1169.9776,-138.7795 1176.9776,-138.7794"/>
</g>
<!-- Node18&#45;&gt;Node9 -->
<g id="edge30" class="edge">
<title>Node18&#45;&gt;Node9</title>
<path fill="none" stroke="#191970" d="M1680.0039,-165.4795C1727.2291,-154.7019 1805.3374,-136.8764 1849.1347,-126.8811"/>
<polygon fill="#191970" stroke="#191970" points="1850.0026,-130.2732 1858.9731,-124.6359 1848.445,-123.4486 1850.0026,-130.2732"/>
</g>
<!-- Node18&#45;&gt;Node12 -->
<g id="edge29" class="edge">
<title>Node18&#45;&gt;Node12</title>
<path fill="none" stroke="#191970" d="M1601.1152,-165.4795C1559.6982,-155.9881 1494.4287,-141.0305 1449.6504,-130.7688"/>
<polygon fill="#191970" stroke="#191970" points="1450.3906,-127.3477 1439.8614,-128.5255 1448.8269,-134.1709 1450.3906,-127.3477"/>
</g>
<!-- Node20&#45;&gt;Node4 -->
<g id="edge37" class="edge">
<title>Node20&#45;&gt;Node4</title>
<path fill="none" stroke="#191970" d="M1363.2473,-165.4795C1323.5397,-155.8587 1260.6522,-140.6216 1218.2655,-130.3517"/>
<polygon fill="#191970" stroke="#191970" points="1219.032,-126.9362 1208.489,-127.983 1217.3836,-133.7394 1219.032,-126.9362"/>
</g>
<!-- Node20&#45;&gt;Node12 -->
<g id="edge36" class="edge">
<title>Node20&#45;&gt;Node12</title>
<path fill="none" stroke="#191970" d="M1400.4775,-165.4179C1400.4775,-158.2164 1400.4775,-147.8962 1400.4775,-138.8632"/>
<polygon fill="#191970" stroke="#191970" points="1403.9776,-138.7794 1400.4775,-128.7795 1396.9776,-138.7795 1403.9776,-138.7794"/>
</g>
<!-- Node22&#45;&gt;Node4 -->
<g id="edge40" class="edge">
<title>Node22&#45;&gt;Node4</title>
<path fill="none" stroke="#191970" d="M806.1938,-220.2564C821.908,-205.8885 854.4842,-178.4537 887.4775,-165 930.2653,-147.5525 1059.0573,-131.7026 1128.2878,-124.1512"/>
<polygon fill="#191970" stroke="#191970" points="1128.8918,-127.6065 1138.4591,-123.0548 1128.1415,-120.6468 1128.8918,-127.6065"/>
</g>
<!-- Node23&#45;&gt;Node7 -->
<g id="edge42" class="edge">
<title>Node23&#45;&gt;Node7</title>
<path fill="none" stroke="#191970" d="M285.6331,-220.4982C296.0162,-202.369 319.615,-161.1647 333.2452,-137.3659"/>
<polygon fill="#191970" stroke="#191970" points="336.318,-139.0432 338.2507,-128.6261 330.2437,-135.5643 336.318,-139.0432"/>
</g>
<!-- Node25 -->
<g id="node26" class="node">
<title>Node25</title>
<g id="a_node26"><a xlink:href="dji__hotpoint_8hpp.html" target="_top" xlink:title="Implementation of HotPoint (Point of Interest) Missions for DJI OSDK.">
<polygon fill="#ffffff" stroke="#000000" points="911.1699,-220.5 911.1699,-238.5 997.7852,-238.5 997.7852,-220.5 911.1699,-220.5"/>
<text text-anchor="middle" x="954.4775" y="-226.5" font-family="Helvetica,sans-Serif" font-size="10.00" fill="#000000">dji_hotpoint.hpp</text>
</a>
</g>
</g>
<!-- Node24&#45;&gt;Node25 -->
<g id="edge44" class="edge">
<title>Node24&#45;&gt;Node25</title>
<path fill="none" stroke="#191970" d="M1043.8087,-275.4179C1026.7712,-266.6603 1000.7613,-253.2907 981.1936,-243.2326"/>
<polygon fill="#191970" stroke="#191970" points="982.6666,-240.0544 972.1727,-238.5956 979.4664,-246.2801 982.6666,-240.0544"/>
</g>
<!-- Node27 -->
<g id="node28" class="node">
<title>Node27</title>
<g id="a_node28"><a xlink:href="dji__waypoint_8hpp.html" target="_top" xlink:title="Implementation of GPS Waypoint Missions for DJI OSDK.">
<polygon fill="#ffffff" stroke="#000000" points="1016.229,-220.5 1016.229,-238.5 1106.7261,-238.5 1106.7261,-220.5 1016.229,-220.5"/>
<text text-anchor="middle" x="1061.4775" y="-226.5" font-family="Helvetica,sans-Serif" font-size="10.00" fill="#000000">dji_waypoint.hpp</text>
</a>
</g>
</g>
<!-- Node24&#45;&gt;Node27 -->
<g id="edge50" class="edge">
<title>Node24&#45;&gt;Node27</title>
<path fill="none" stroke="#191970" d="M1061.4775,-275.4179C1061.4775,-268.2164 1061.4775,-257.8962 1061.4775,-248.8632"/>
<polygon fill="#191970" stroke="#191970" points="1064.9776,-248.7794 1061.4775,-238.7795 1057.9776,-248.7795 1064.9776,-248.7794"/>
</g>
<!-- Node25&#45;&gt;Node3 -->
<g id="edge49" class="edge">
<title>Node25&#45;&gt;Node3</title>
<path fill="none" stroke="#191970" d="M928.0568,-220.4179C901.3425,-211.2348 859.8761,-196.9807 830.2329,-186.7909"/>
<polygon fill="#191970" stroke="#191970" points="831.2663,-183.4452 820.6716,-183.5042 828.9907,-190.065 831.2663,-183.4452"/>
</g>
<!-- Node26 -->
<g id="node27" class="node">
<title>Node26</title>
<g id="a_node27"><a xlink:href="dji__mission__base_8hpp.html" target="_top" xlink:title="Mission&#45;Base abstract class for DJI OSDK library.">
<polygon fill="#ffffff" stroke="#000000" points="896.3916,-165.5 896.3916,-183.5 1008.5635,-183.5 1008.5635,-165.5 896.3916,-165.5"/>
<text text-anchor="middle" x="952.4775" y="-171.5" font-family="Helvetica,sans-Serif" font-size="10.00" fill="#000000">dji_mission_base.hpp</text>
</a>
</g>
</g>
<!-- Node25&#45;&gt;Node26 -->
<g id="edge45" class="edge">
<title>Node25&#45;&gt;Node26</title>
<path fill="none" stroke="#191970" d="M954.1473,-220.4179C953.8854,-213.2164 953.5101,-202.8962 953.1817,-193.8632"/>
<polygon fill="#191970" stroke="#191970" points="956.6762,-193.6456 952.815,-183.7795 949.6808,-193.9001 956.6762,-193.6456"/>
</g>
<!-- Node26&#45;&gt;Node4 -->
<g id="edge47" class="edge">
<title>Node26&#45;&gt;Node4</title>
<path fill="none" stroke="#191970" d="M988.9712,-165.4179C1027.2529,-155.8907 1087.4666,-140.9054 1128.6223,-130.6631"/>
<polygon fill="#191970" stroke="#191970" points="1129.532,-134.0435 1138.3908,-128.232 1127.8415,-127.2507 1129.532,-134.0435"/>
</g>
<!-- Node26&#45;&gt;Node7 -->
<g id="edge48" class="edge">
<title>Node26&#45;&gt;Node7</title>
<path fill="none" stroke="#191970" d="M896.3502,-169.2997C881.1407,-167.8969 864.6788,-166.3845 849.4775,-165 694.8642,-150.9183 513.6488,-134.6903 415.5097,-125.9249"/>
<polygon fill="#191970" stroke="#191970" points="415.6792,-122.4262 405.4075,-125.0227 415.0565,-129.3984 415.6792,-122.4262"/>
</g>
<!-- Node26&#45;&gt;Node12 -->
<g id="edge46" class="edge">
<title>Node26&#45;&gt;Node12</title>
<path fill="none" stroke="#191970" d="M1008.8348,-166.1686C1011.7568,-165.7662 1014.6511,-165.3744 1017.4775,-165 1132.7051,-149.7379 1267.7627,-134.2534 1342.7793,-125.8654"/>
<polygon fill="#191970" stroke="#191970" points="1343.4075,-129.3171 1352.9576,-124.7296 1342.6311,-122.3602 1343.4075,-129.3171"/>
</g>
<!-- Node27&#45;&gt;Node26 -->
<g id="edge51" class="edge">
<title>Node27&#45;&gt;Node26</title>
<path fill="none" stroke="#191970" d="M1043.4784,-220.4179C1026.1225,-211.6603 999.6265,-198.2907 979.693,-188.2326"/>
<polygon fill="#191970" stroke="#191970" points="981.008,-184.9758 970.5034,-183.5956 977.8545,-191.2253 981.008,-184.9758"/>
</g>
<!-- Node28&#45;&gt;Node7 -->
<g id="edge54" class="edge">
<title>Node28&#45;&gt;Node7</title>
<path fill="none" stroke="#191970" d="M398.4009,-275.2673C386.627,-267.2108 370.8969,-254.4114 362.4775,-239 345.0017,-207.0109 342.4873,-163.4853 342.6813,-138.7591"/>
<polygon fill="#191970" stroke="#191970" points="346.1854,-138.6281 342.9285,-128.5463 339.1874,-138.4586 346.1854,-138.6281"/>
</g>
<!-- Node29 -->
<g id="node30" class="node">
<title>Node29</title>
<g id="a_node30"><a xlink:title=" ">
<polygon fill="#ffffff" stroke="#bfbfbf" points="371.5713,-220.5 371.5713,-238.5 455.3838,-238.5 455.3838,-220.5 371.5713,-220.5"/>
<text text-anchor="middle" x="413.4775" y="-226.5" font-family="Helvetica,sans-Serif" font-size="10.00" fill="#000000">dji_macros.hpp</text>
</a>
</g>
</g>
<!-- Node28&#45;&gt;Node29 -->
<g id="edge53" class="edge">
<title>Node28&#45;&gt;Node29</title>
<path fill="none" stroke="#191970" d="M413.4775,-275.4179C413.4775,-268.2164 413.4775,-257.8962 413.4775,-248.8632"/>
<polygon fill="#191970" stroke="#191970" points="416.9776,-248.7794 413.4775,-238.7795 409.9776,-248.7795 416.9776,-248.7794"/>
</g>
<!-- Node30&#45;&gt;Node7 -->
<g id="edge56" class="edge">
<title>Node30&#45;&gt;Node7</title>
<path fill="none" stroke="#191970" d="M104.3844,-165.4795C154.258,-155.8884 233.1562,-140.7156 286.5533,-130.447"/>
<polygon fill="#191970" stroke="#191970" points="287.386,-133.851 296.5451,-128.5255 286.064,-126.977 287.386,-133.851"/>
</g>
<!-- Node34&#45;&gt;Node2 -->
<g id="edge67" class="edge">
<title>Node34&#45;&gt;Node2</title>
<path fill="none" stroke="#191970" d="M1146.4428,-276.7795C1142.7337,-276.1721 1139.0435,-275.5726 1135.4775,-275 1032.0186,-258.3865 1002.3159,-270.8127 902.4775,-239 884.4865,-233.2673 882.0682,-226.8639 864.4775,-220 810.6188,-198.9843 792.9296,-206.0294 739.4775,-184 664.9841,-153.2988 583.2112,-103.8282 544.388,-79.2878"/>
<polygon fill="#191970" stroke="#191970" points="545.7888,-76.0305 535.4736,-73.6124 542.0295,-81.9354 545.7888,-76.0305"/>
</g>
<!-- Node34&#45;&gt;Node3 -->
<g id="edge69" class="edge">
<title>Node34&#45;&gt;Node3</title>
<path fill="none" stroke="#191970" d="M1184.5867,-275.1619C1171.743,-260.6647 1144.788,-233.0558 1115.4775,-220 1091.7927,-209.4501 935.9052,-190.5153 850.3949,-180.7314"/>
<polygon fill="#191970" stroke="#191970" points="850.6612,-177.2392 840.3293,-179.5848 849.8689,-184.1942 850.6612,-177.2392"/>
</g>
<!-- Node34&#45;&gt;Node4 -->
<g id="edge68" class="edge">
<title>Node34&#45;&gt;Node4</title>
<path fill="none" stroke="#191970" d="M1205.9756,-275.4856C1216.7819,-267.386 1231.1426,-254.4141 1237.4775,-239 1249.9796,-208.58 1252.5593,-194.227 1237.4775,-165 1230.4347,-151.3517 1217.1965,-140.9043 1204.5795,-133.4837"/>
<polygon fill="#191970" stroke="#191970" points="1206.0586,-130.3042 1195.5996,-128.6127 1202.7209,-136.4573 1206.0586,-130.3042"/>
</g>
<!-- Node34&#45;&gt;Node16 -->
<g id="edge66" class="edge">
<title>Node34&#45;&gt;Node16</title>
<path fill="none" stroke="#191970" d="M1192.9729,-275.4179C1193.3657,-268.2164 1193.9287,-257.8962 1194.4214,-248.8632"/>
<polygon fill="#191970" stroke="#191970" points="1197.9215,-248.9553 1194.9714,-238.7795 1190.9318,-248.574 1197.9215,-248.9553"/>
</g>
</g>
</svg>
        <g id="navigator" transform="translate(0 0)" fill="#404254">
                <rect fill="#f2f5e9" fill-opacity="0.5" stroke="#606060" stroke-width=".5" x="0" y="0" width="60" height="60"/>
                <use id="zoomplus" xlink:href="#zoomPlus" x="17" y="9" onmousedown="handleZoom(evt,'in')"/>
                <use id="zoomminus" xlink:href="#zoomMin" x="42" y="9" onmousedown="handleZoom(evt,'out')"/>
                <use id="reset" xlink:href="#resetDef" x="30" y="36" onmousedown="handleReset()"/>
                <g id="arrowUp" xlink:href="#dirArrow" transform="translate(30 24)" onmousedown="handlePan(0,-1)">
                  <use xlink:href="#rim" fill="#404040">
                        <set attributeName="fill" to="#808080" begin="arrowUp.mouseover" end="arrowUp.mouseout"/>
                  </use>
                  <path fill="none" stroke="white" stroke-width="1.5" d="M0,-3.0v7 M-2.5,-0.5L0,-3.0L2.5,-0.5"/>
                </g>
                <g id="arrowRight" xlink:href="#dirArrow" transform="rotate(90) translate(36 -43)" onmousedown="handlePan(1,0)">
                  <use xlink:href="#rim" fill="#404040">
                        <set attributeName="fill" to="#808080" begin="arrowRight.mouseover" end="arrowRight.mouseout"/>
                  </use>
                  <path fill="none" stroke="white" stroke-width="1.5" d="M0,-3.0v7 M-2.5,-0.5L0,-3.0L2.5,-0.5"/>
                </g>
                <g id="arrowDown" xlink:href="#dirArrow" transform="rotate(180) translate(-30 -48)" onmousedown="handlePan(0,1)">
                  <use xlink:href="#rim" fill="#404040">
                        <set attributeName="fill" to="#808080" begin="arrowDown.mouseover" end="arrowDown.mouseout"/>
                  </use>
                  <path fill="none" stroke="white" stroke-width="1.5" d="M0,-3.0v7 M-2.5,-0.5L0,-3.0L2.5,-0.5"/>
                </g>
                <g id="arrowLeft" xlink:href="#dirArrow" transform="rotate(270) translate(-36 17)" onmousedown="handlePan(-1,0)">
                  <use xlink:href="#rim" fill="#404040">
                        <set attributeName="fill" to="#808080" begin="arrowLeft.mouseover" end="arrowLeft.mouseout"/>
                  </use>
                  <path fill="none" stroke="white" stroke-width="1.5" d="M0,-3.0v7 M-2.5,-0.5L0,-3.0L2.5,-0.5"/>
                </g>
        </g>
        <svg viewBox="0 0 15 15" width="100%" height="30px" preserveAspectRatio="xMaxYMin meet">
         <g id="arrow_out" transform="scale(0.3 0.3)">
          <a xlink:href="dji__subscription_8cpp__incl_org.svg" target="_base">
           <rect id="button" ry="5" rx="5" y="6" x="6" height="38" width="38"
                fill="#f2f5e9" fill-opacity="0.5" stroke="#606060" stroke-width="1.0"/>
           <path id="arrow"
             d="M 11.500037,31.436501 C 11.940474,20.09759 22.043105,11.32322 32.158766,21.979434 L 37.068811,17.246167 C 37.068811,17.246167 37.088388,32 37.088388,32 L 22.160133,31.978069 C 22.160133,31.978069 26.997745,27.140456 26.997745,27.140456 C 18.528582,18.264221 13.291696,25.230495 11.500037,31.436501 z"
             style="fill:#404040;"/>
          </a>
         </g>
        </svg>
</svg>
