<?xml version="1.0" encoding="UTF-8" standalone="no"?>
<!DOCTYPE svg PUBLIC "-//W3C//DTD SVG 1.1//EN"
 "http://www.w3.org/Graphics/SVG/1.1/DTD/svg11.dtd">
<!-- Generated by graphviz version 2.40.1 (20161225.0304)
 -->
<!-- Title: osdk&#45;core/api/src/dji_mfio.cpp Pages: 1 -->
<svg width="2165pt" height="422pt"
 viewBox="0.00 0.00 2165.15 422.00" xmlns="http://www.w3.org/2000/svg" xmlns:xlink="http://www.w3.org/1999/xlink">
<g id="graph0" class="graph" transform="scale(1 1) rotate(0) translate(4 418)">
<title>osdk&#45;core/api/src/dji_mfio.cpp</title>
<polygon fill="#ffffff" stroke="transparent" points="-4,4 -4,-418 2161.1544,-418 2161.1544,4 -4,4"/>
<!-- Node0 -->
<g id="node1" class="node">
<title>Node0</title>
<g id="a_node1"><a xlink:title="MFIO API for DJI OSDK library.">
<polygon fill="#bfbfbf" stroke="#000000" points="463.5,-385.5 463.5,-413.5 568.4209,-413.5 568.4209,-385.5 463.5,-385.5"/>
<text text-anchor="start" x="471.5" y="-401.5" font-family="Helvetica,sans-Serif" font-size="10.00" fill="#000000">osdk&#45;core/api/src/dji</text>
<text text-anchor="middle" x="515.9604" y="-391.5" font-family="Helvetica,sans-Serif" font-size="10.00" fill="#000000">_mfio.cpp</text>
</a>
</g>
</g>
<!-- Node1 -->
<g id="node2" class="node">
<title>Node1</title>
<g id="a_node2"><a xlink:href="dji__mfio_8hpp.html" target="_top" xlink:title="MFIO API for DJI OSDK library.">
<polygon fill="#ffffff" stroke="#000000" points="0,-275.5 0,-293.5 69.9209,-293.5 69.9209,-275.5 0,-275.5"/>
<text text-anchor="middle" x="34.9604" y="-281.5" font-family="Helvetica,sans-Serif" font-size="10.00" fill="#000000">dji_mfio.hpp</text>
</a>
</g>
</g>
<!-- Node0&#45;&gt;Node1 -->
<g id="edge1" class="edge">
<title>Node0&#45;&gt;Node1</title>
<path fill="none" stroke="#191970" d="M463.1091,-386.864C367.8215,-364.0822 168.8721,-316.5163 79.7819,-295.2161"/>
<polygon fill="#191970" stroke="#191970" points="80.5229,-291.7947 69.9831,-292.8734 78.8951,-298.6029 80.5229,-291.7947"/>
</g>
<!-- Node4 -->
<g id="node5" class="node">
<title>Node4</title>
<g id="a_node5"><a xlink:href="dji__vehicle_8hpp.html" target="_top" xlink:title="Vehicle API for DJI onboardSDK library.">
<polygon fill="#ffffff" stroke="#000000" points="944.8818,-330.5 944.8818,-348.5 1027.0391,-348.5 1027.0391,-330.5 944.8818,-330.5"/>
<text text-anchor="middle" x="985.9604" y="-336.5" font-family="Helvetica,sans-Serif" font-size="10.00" fill="#000000">dji_vehicle.hpp</text>
</a>
</g>
</g>
<!-- Node0&#45;&gt;Node4 -->
<g id="edge4" class="edge">
<title>Node0&#45;&gt;Node4</title>
<path fill="none" stroke="#191970" d="M568.5073,-392.7919C659.384,-381.1906 844.7859,-357.5223 934.7362,-346.0393"/>
<polygon fill="#191970" stroke="#191970" points="935.2237,-349.5055 944.6999,-344.7673 934.3372,-342.5619 935.2237,-349.5055"/>
</g>
<!-- Node2 -->
<g id="node3" class="node">
<title>Node2</title>
<g id="a_node3"><a xlink:href="dji__vehicle__callback_8hpp.html" target="_top" xlink:title="Type definition for new Vehicle&#45;style callbacks.">
<polygon fill="#ffffff" stroke="#000000" points="357.0371,-110.5 357.0371,-128.5 480.8838,-128.5 480.8838,-110.5 357.0371,-110.5"/>
<text text-anchor="middle" x="418.9604" y="-116.5" font-family="Helvetica,sans-Serif" font-size="10.00" fill="#000000">dji_vehicle_callback.hpp</text>
</a>
</g>
</g>
<!-- Node1&#45;&gt;Node2 -->
<g id="edge2" class="edge">
<title>Node1&#45;&gt;Node2</title>
<path fill="none" stroke="#191970" d="M43.2114,-275.3128C55.516,-261.9742 79.8225,-236.9875 103.9604,-220 147.6874,-189.2263 160.6424,-183.0874 210.9604,-165 255.469,-149.0009 307.4459,-137.6285 348.3072,-130.2546"/>
<polygon fill="#191970" stroke="#191970" points="348.9383,-133.6974 358.1774,-128.5118 347.7211,-126.804 348.9383,-133.6974"/>
</g>
<!-- Node3 -->
<g id="node4" class="node">
<title>Node3</title>
<g id="a_node4"><a xlink:title=" ">
<polygon fill="#ffffff" stroke="#bfbfbf" points="451.7539,-55.5 451.7539,-73.5 566.167,-73.5 566.167,-55.5 451.7539,-55.5"/>
<text text-anchor="middle" x="508.9604" y="-61.5" font-family="Helvetica,sans-Serif" font-size="10.00" fill="#000000">dji_open_protocol.hpp</text>
</a>
</g>
</g>
<!-- Node2&#45;&gt;Node3 -->
<g id="edge3" class="edge">
<title>Node2&#45;&gt;Node3</title>
<path fill="none" stroke="#191970" d="M433.8221,-110.4179C447.7618,-101.8992 468.8424,-89.0166 485.1305,-79.0627"/>
<polygon fill="#191970" stroke="#191970" points="487.369,-81.7967 494.0767,-73.5956 483.7188,-75.8237 487.369,-81.7967"/>
</g>
<!-- Node4&#45;&gt;Node1 -->
<g id="edge39" class="edge">
<title>Node4&#45;&gt;Node1</title>
<path fill="none" stroke="#191970" d="M944.7762,-338.1961C791.4907,-333.2227 254.1063,-314.6803 83.9604,-294 82.6782,-293.8442 81.3792,-293.6742 80.0696,-293.4924"/>
<polygon fill="#191970" stroke="#191970" points="80.3507,-289.9938 69.9291,-291.9017 79.2659,-296.9092 80.3507,-289.9938"/>
</g>
<!-- Node4&#45;&gt;Node2 -->
<g id="edge63" class="edge">
<title>Node4&#45;&gt;Node2</title>
<path fill="none" stroke="#191970" d="M944.5873,-338.8759C805.9662,-336.4904 363.5381,-326.389 308.9604,-294 277.673,-275.4326 257.084,-252.231 273.9604,-220 296.9472,-176.0995 348.7936,-147.5475 383.8406,-132.4782"/>
<polygon fill="#191970" stroke="#191970" points="385.3429,-135.6444 393.2422,-128.5839 382.664,-129.1773 385.3429,-135.6444"/>
</g>
<!-- Node4&#45;&gt;Node3 -->
<g id="edge54" class="edge">
<title>Node4&#45;&gt;Node3</title>
<path fill="none" stroke="#191970" d="M944.8357,-338.1195C794.3977,-332.9289 279.0609,-313.8643 207.9604,-294 157.601,-279.9304 130.9408,-283.7894 103.9604,-239 26.2821,-110.0482 306.8555,-76.2413 441.1771,-67.4962"/>
<polygon fill="#191970" stroke="#191970" points="441.605,-70.9764 451.3685,-66.8625 441.1705,-63.9899 441.605,-70.9764"/>
</g>
<!-- Node5 -->
<g id="node6" class="node">
<title>Node5</title>
<g id="a_node6"><a xlink:title=" ">
<polygon fill="#ffffff" stroke="#bfbfbf" points="655.5098,-110.5 655.5098,-128.5 700.4111,-128.5 700.4111,-110.5 655.5098,-110.5"/>
<text text-anchor="middle" x="677.9604" y="-116.5" font-family="Helvetica,sans-Serif" font-size="10.00" fill="#000000">cstdint</text>
</a>
</g>
</g>
<!-- Node4&#45;&gt;Node5 -->
<g id="edge5" class="edge">
<title>Node4&#45;&gt;Node5</title>
<path fill="none" stroke="#191970" d="M944.7042,-335.2591C883.6275,-328.4274 772.6294,-313.7284 737.9604,-294 681.5635,-261.9072 664.7445,-244.7574 641.9604,-184 635.4722,-166.6979 647.6934,-148.4386 659.6179,-135.7812"/>
<polygon fill="#191970" stroke="#191970" points="662.1596,-138.1905 666.8343,-128.6828 657.2507,-133.2002 662.1596,-138.1905"/>
</g>
<!-- Node6 -->
<g id="node7" class="node">
<title>Node6</title>
<g id="a_node7"><a xlink:href="dji__broadcast_8hpp.html" target="_top" xlink:title="Broadcast Telemetry API for DJI onboardSDK library.">
<polygon fill="#ffffff" stroke="#000000" points="422.4878,-220.5 422.4878,-238.5 517.4331,-238.5 517.4331,-220.5 422.4878,-220.5"/>
<text text-anchor="middle" x="469.9604" y="-226.5" font-family="Helvetica,sans-Serif" font-size="10.00" fill="#000000">dji_broadcast.hpp</text>
</a>
</g>
</g>
<!-- Node4&#45;&gt;Node6 -->
<g id="edge6" class="edge">
<title>Node4&#45;&gt;Node6</title>
<path fill="none" stroke="#191970" d="M944.8525,-336.8123C880.6928,-331.9832 753.1901,-319.8325 647.9604,-294 594.5023,-280.8767 534.8119,-257.3208 499.9204,-242.5979"/>
<polygon fill="#191970" stroke="#191970" points="500.9141,-239.2168 490.3425,-238.5146 498.1688,-245.656 500.9141,-239.2168"/>
</g>
<!-- Node8 -->
<g id="node9" class="node">
<title>Node8</title>
<g id="a_node9"><a xlink:href="dji__type_8hpp.html" target="_top" xlink:title="Data type and Data Structure definitions for use throughout DJI OSDK.">
<polygon fill="#ffffff" stroke="#000000" points="1166.9951,-110.5 1166.9951,-128.5 1236.9258,-128.5 1236.9258,-110.5 1166.9951,-110.5"/>
<text text-anchor="middle" x="1201.9604" y="-116.5" font-family="Helvetica,sans-Serif" font-size="10.00" fill="#000000">dji_type.hpp</text>
</a>
</g>
</g>
<!-- Node4&#45;&gt;Node8 -->
<g id="edge62" class="edge">
<title>Node4&#45;&gt;Node8</title>
<path fill="none" stroke="#191970" d="M1027.0622,-335.823C1101.4868,-328.8079 1255.5346,-312.5496 1305.9604,-294 1348.8932,-278.2068 1370.8876,-279.0678 1392.9604,-239 1408.8298,-210.193 1413.3445,-190.8103 1392.9604,-165 1383.8801,-153.5024 1300.8556,-136.9272 1247.2983,-127.2796"/>
<polygon fill="#191970" stroke="#191970" points="1247.7972,-123.8134 1237.3381,-125.5038 1246.5685,-130.7048 1247.7972,-123.8134"/>
</g>
<!-- Node11 -->
<g id="node12" class="node">
<title>Node11</title>
<g id="a_node12"><a xlink:href="dji__camera_8hpp.html" target="_top" xlink:title="Camera/Gimbal API for DJI onboardSDK library.">
<polygon fill="#ffffff" stroke="#000000" points="1537.7734,-165.5 1537.7734,-183.5 1622.1475,-183.5 1622.1475,-165.5 1537.7734,-165.5"/>
<text text-anchor="middle" x="1579.9604" y="-171.5" font-family="Helvetica,sans-Serif" font-size="10.00" fill="#000000">dji_camera.hpp</text>
</a>
</g>
</g>
<!-- Node4&#45;&gt;Node11 -->
<g id="edge12" class="edge">
<title>Node4&#45;&gt;Node11</title>
<path fill="none" stroke="#191970" d="M1027.1851,-338.7256C1125.8767,-336.3506 1373.0715,-327.17 1447.9604,-294 1500.0175,-270.9428 1545.4941,-219.2081 1566.9136,-191.9948"/>
<polygon fill="#191970" stroke="#191970" points="1569.9075,-193.8432 1573.2301,-183.7829 1564.3589,-189.5754 1569.9075,-193.8432"/>
</g>
<!-- Node12 -->
<g id="node13" class="node">
<title>Node12</title>
<g id="a_node13"><a xlink:href="dji__command_8hpp.html" target="_top" xlink:title="All DJI OSDK OpenProtocol Command IDs.">
<polygon fill="#ffffff" stroke="#000000" points="1284.4927,-110.5 1284.4927,-128.5 1379.4282,-128.5 1379.4282,-110.5 1284.4927,-110.5"/>
<text text-anchor="middle" x="1331.9604" y="-116.5" font-family="Helvetica,sans-Serif" font-size="10.00" fill="#000000">dji_command.hpp</text>
</a>
</g>
</g>
<!-- Node4&#45;&gt;Node12 -->
<g id="edge19" class="edge">
<title>Node4&#45;&gt;Node12</title>
<path fill="none" stroke="#191970" d="M1027.1199,-338.6594C1231.1595,-334.3974 2125.1808,-314.5714 2144.9604,-294 2253.6329,-180.9775 1592.5225,-134.1206 1389.7495,-122.5187"/>
<polygon fill="#191970" stroke="#191970" points="1389.7763,-119.0147 1379.5948,-121.9453 1389.3816,-126.0036 1389.7763,-119.0147"/>
</g>
<!-- Node14 -->
<g id="node15" class="node">
<title>Node14</title>
<g id="a_node15"><a xlink:title=" ">
<polygon fill="#ffffff" stroke="#bfbfbf" points="1516.1274,-275.5 1516.1274,-293.5 1629.7935,-293.5 1629.7935,-275.5 1516.1274,-275.5"/>
<text text-anchor="middle" x="1572.9604" y="-281.5" font-family="Helvetica,sans-Serif" font-size="10.00" fill="#000000">dji_circular_buffer.hpp</text>
</a>
</g>
</g>
<!-- Node4&#45;&gt;Node14 -->
<g id="edge18" class="edge">
<title>Node4&#45;&gt;Node14</title>
<path fill="none" stroke="#191970" d="M1027.1585,-336.5011C1114.6981,-329.9895 1325.6532,-313.5584 1501.9604,-294 1503.2467,-293.8573 1504.5457,-293.7105 1505.8543,-293.5602"/>
<polygon fill="#191970" stroke="#191970" points="1506.5065,-297.0073 1516.0219,-292.3482 1505.6778,-290.0565 1506.5065,-297.0073"/>
</g>
<!-- Node15 -->
<g id="node16" class="node">
<title>Node15</title>
<g id="a_node16"><a xlink:href="dji__control_8hpp.html" target="_top" xlink:title="Control API for DJI OSDK library.">
<polygon fill="#ffffff" stroke="#000000" points="747.4385,-275.5 747.4385,-293.5 828.4824,-293.5 828.4824,-275.5 747.4385,-275.5"/>
<text text-anchor="middle" x="787.9604" y="-281.5" font-family="Helvetica,sans-Serif" font-size="10.00" fill="#000000">dji_control.hpp</text>
</a>
</g>
</g>
<!-- Node4&#45;&gt;Node15 -->
<g id="edge20" class="edge">
<title>Node4&#45;&gt;Node15</title>
<path fill="none" stroke="#191970" d="M953.2648,-330.4179C919.6309,-321.0751 867.1007,-306.4834 830.3072,-296.263"/>
<polygon fill="#191970" stroke="#191970" points="830.9476,-292.8084 820.3756,-293.5042 829.074,-299.553 830.9476,-292.8084"/>
</g>
<!-- Node18 -->
<g id="node19" class="node">
<title>Node18</title>
<g id="a_node19"><a xlink:href="dji__version_8hpp.html" target="_top" xlink:title="Drone/SDK Version definition for DJI onboardSDK library.">
<polygon fill="#ffffff" stroke="#000000" points="1056.3276,-165.5 1056.3276,-183.5 1139.5933,-183.5 1139.5933,-165.5 1056.3276,-165.5"/>
<text text-anchor="middle" x="1097.9604" y="-171.5" font-family="Helvetica,sans-Serif" font-size="10.00" fill="#000000">dji_version.hpp</text>
</a>
</g>
</g>
<!-- Node4&#45;&gt;Node18 -->
<g id="edge64" class="edge">
<title>Node4&#45;&gt;Node18</title>
<path fill="none" stroke="#191970" d="M988.7885,-330.3674C995.613,-309.3225 1014.5476,-256.4319 1042.9604,-220 1052.101,-208.2796 1064.7492,-197.5542 1075.6119,-189.4641"/>
<polygon fill="#191970" stroke="#191970" points="1077.747,-192.2401 1083.8397,-183.5723 1073.6715,-186.5488 1077.747,-192.2401"/>
</g>
<!-- Node20 -->
<g id="node21" class="node">
<title>Node20</title>
<g id="a_node21"><a xlink:href="dji__gimbal_8hpp.html" target="_top" xlink:title="Gimbal API for OSDK library.">
<polygon fill="#ffffff" stroke="#000000" points="1439.7168,-165.5 1439.7168,-183.5 1520.2041,-183.5 1520.2041,-165.5 1439.7168,-165.5"/>
<text text-anchor="middle" x="1479.9604" y="-171.5" font-family="Helvetica,sans-Serif" font-size="10.00" fill="#000000">dji_gimbal.hpp</text>
</a>
</g>
</g>
<!-- Node4&#45;&gt;Node20 -->
<g id="edge33" class="edge">
<title>Node4&#45;&gt;Node20</title>
<path fill="none" stroke="#191970" d="M1027.2119,-337.5618C1130.4485,-332.3859 1393.9969,-317.0471 1425.9604,-294 1459.0849,-270.1158 1472.3015,-221.0327 1477.2458,-193.7898"/>
<polygon fill="#191970" stroke="#191970" points="1480.7541,-194.0184 1478.8922,-183.5885 1473.8435,-192.9031 1480.7541,-194.0184"/>
</g>
<!-- Node21 -->
<g id="node22" class="node">
<title>Node21</title>
<g id="a_node22"><a xlink:title=" ">
<polygon fill="#ffffff" stroke="#bfbfbf" points="1647.4287,-275.5 1647.4287,-293.5 1748.4922,-293.5 1748.4922,-275.5 1647.4287,-275.5"/>
<text text-anchor="middle" x="1697.9604" y="-281.5" font-family="Helvetica,sans-Serif" font-size="10.00" fill="#000000">dji_hard_driver.hpp</text>
</a>
</g>
</g>
<!-- Node4&#45;&gt;Node21 -->
<g id="edge36" class="edge">
<title>Node4&#45;&gt;Node21</title>
<path fill="none" stroke="#191970" d="M1027.3352,-337.9122C1129.2712,-333.7233 1400.8141,-320.8819 1636.9971,-294.1399"/>
<polygon fill="#191970" stroke="#191970" points="1637.6142,-297.5922 1647.1519,-292.9789 1636.819,-290.6375 1637.6142,-297.5922"/>
</g>
<!-- Node22 -->
<g id="node23" class="node">
<title>Node22</title>
<g id="a_node23"><a xlink:href="dji__hardware__sync_8hpp.html" target="_top" xlink:title="Hardware Sync API for DJI OSDK.">
<polygon fill="#ffffff" stroke="#000000" points="1051.5396,-220.5 1051.5396,-238.5 1170.3813,-238.5 1170.3813,-220.5 1051.5396,-220.5"/>
<text text-anchor="middle" x="1110.9604" y="-226.5" font-family="Helvetica,sans-Serif" font-size="10.00" fill="#000000">dji_hardware_sync.hpp</text>
</a>
</g>
</g>
<!-- Node4&#45;&gt;Node22 -->
<g id="edge37" class="edge">
<title>Node4&#45;&gt;Node22</title>
<path fill="none" stroke="#191970" d="M996.1897,-330.4982C1017.3405,-311.8856 1066.13,-268.9508 1092.7787,-245.4999"/>
<polygon fill="#191970" stroke="#191970" points="1095.3949,-247.86 1100.5898,-238.6261 1090.7705,-242.6049 1095.3949,-247.86"/>
</g>
<!-- Node23 -->
<g id="node24" class="node">
<title>Node23</title>
<g id="a_node24"><a xlink:href="dji__mission__manager_8hpp.html" target="_top" xlink:title="Mission&#45;Manager API for DJI OSDK library.">
<polygon fill="#ffffff" stroke="#000000" points="1167.2563,-275.5 1167.2563,-293.5 1296.6646,-293.5 1296.6646,-275.5 1167.2563,-275.5"/>
<text text-anchor="middle" x="1231.9604" y="-281.5" font-family="Helvetica,sans-Serif" font-size="10.00" fill="#000000">dji_mission_manager.hpp</text>
</a>
</g>
</g>
<!-- Node4&#45;&gt;Node23 -->
<g id="edge40" class="edge">
<title>Node4&#45;&gt;Node23</title>
<path fill="none" stroke="#191970" d="M1026.3069,-330.4795C1068.7593,-320.9881 1135.6605,-306.0305 1181.5583,-295.7688"/>
<polygon fill="#191970" stroke="#191970" points="1182.5966,-299.1231 1191.592,-293.5255 1181.0692,-292.2918 1182.5966,-299.1231"/>
</g>
<!-- Node27 -->
<g id="node28" class="node">
<title>Node27</title>
<g id="a_node28"><a xlink:href="dji__mobile__communication_8hpp.html" target="_top" xlink:title="Implementation of DJI Mobile&#45;Onboard SDK Communication (MOC)">
<polygon fill="#ffffff" stroke="#000000" points="318.3105,-275.5 318.3105,-293.5 471.6104,-293.5 471.6104,-275.5 318.3105,-275.5"/>
<text text-anchor="middle" x="394.9604" y="-281.5" font-family="Helvetica,sans-Serif" font-size="10.00" fill="#000000">dji_mobile_communication.hpp</text>
</a>
</g>
</g>
<!-- Node4&#45;&gt;Node27 -->
<g id="edge49" class="edge">
<title>Node4&#45;&gt;Node27</title>
<path fill="none" stroke="#191970" d="M944.8717,-335.6762C849.4878,-326.7995 611.3436,-304.6372 481.9509,-292.5956"/>
<polygon fill="#191970" stroke="#191970" points="481.9641,-289.0817 471.6828,-291.64 481.3154,-296.0516 481.9641,-289.0817"/>
</g>
<!-- Node29 -->
<g id="node30" class="node">
<title>Node29</title>
<g id="a_node30"><a xlink:href="dji__mobile__device_8hpp.html" target="_top" xlink:title="Implementation of DJI Mobile Device Abstraction.">
<polygon fill="#ffffff" stroke="#000000" points="112.4829,-220.5 112.4829,-238.5 227.438,-238.5 227.438,-220.5 112.4829,-220.5"/>
<text text-anchor="middle" x="169.9604" y="-226.5" font-family="Helvetica,sans-Serif" font-size="10.00" fill="#000000">dji_mobile_device.hpp</text>
</a>
</g>
</g>
<!-- Node4&#45;&gt;Node29 -->
<g id="edge52" class="edge">
<title>Node4&#45;&gt;Node29</title>
<path fill="none" stroke="#191970" d="M944.6306,-338.5746C797.6889,-335.0657 305.842,-321.3727 240.9604,-294 217.1034,-283.935 196.035,-262.303 183.1684,-246.8674"/>
<polygon fill="#191970" stroke="#191970" points="185.5601,-244.2541 176.5815,-238.6296 180.0929,-248.6256 185.5601,-244.2541"/>
</g>
<!-- Node30 -->
<g id="node31" class="node">
<title>Node30</title>
<g id="a_node31"><a xlink:title=" ">
<polygon fill="#ffffff" stroke="#bfbfbf" points="1766.1431,-275.5 1766.1431,-293.5 1897.7778,-293.5 1897.7778,-275.5 1766.1431,-275.5"/>
<text text-anchor="middle" x="1831.9604" y="-281.5" font-family="Helvetica,sans-Serif" font-size="10.00" fill="#000000">dji_platform_manager.hpp</text>
</a>
</g>
</g>
<!-- Node4&#45;&gt;Node30 -->
<g id="edge55" class="edge">
<title>Node4&#45;&gt;Node30</title>
<path fill="none" stroke="#191970" d="M1027.0453,-338.0748C1141.0847,-333.9066 1471.3809,-320.3946 1755.7257,-294.1586"/>
<polygon fill="#191970" stroke="#191970" points="1756.1879,-297.6308 1765.8209,-293.2199 1755.5397,-290.6609 1756.1879,-297.6308"/>
</g>
<!-- Node31 -->
<g id="node32" class="node">
<title>Node31</title>
<g id="a_node32"><a xlink:href="dji__status_8hpp.html" target="_top" xlink:title="Status information for DJI Vehicle.">
<polygon fill="#ffffff" stroke="#000000" points="1916.106,-275.5 1916.106,-293.5 1993.8149,-293.5 1993.8149,-275.5 1916.106,-275.5"/>
<text text-anchor="middle" x="1954.9604" y="-281.5" font-family="Helvetica,sans-Serif" font-size="10.00" fill="#000000">dji_status.hpp</text>
</a>
</g>
</g>
<!-- Node4&#45;&gt;Node31 -->
<g id="edge56" class="edge">
<title>Node4&#45;&gt;Node31</title>
<path fill="none" stroke="#191970" d="M1027.2128,-338.2644C1179.9221,-333.5678 1713.7469,-316.0308 1906.0161,-293.8968"/>
<polygon fill="#191970" stroke="#191970" points="1906.49,-297.3652 1916.0045,-292.7044 1905.6601,-290.4146 1906.49,-297.3652"/>
</g>
<!-- Node32 -->
<g id="node33" class="node">
<title>Node32</title>
<g id="a_node33"><a xlink:href="dji__subscription_8hpp.html" target="_top" xlink:title="Telemetry Subscription API for DJI OSDK library.">
<polygon fill="#ffffff" stroke="#000000" points="535.7661,-220.5 535.7661,-238.5 640.1548,-238.5 640.1548,-220.5 535.7661,-220.5"/>
<text text-anchor="middle" x="587.9604" y="-226.5" font-family="Helvetica,sans-Serif" font-size="10.00" fill="#000000">dji_subscription.hpp</text>
</a>
</g>
</g>
<!-- Node4&#45;&gt;Node32 -->
<g id="edge57" class="edge">
<title>Node4&#45;&gt;Node32</title>
<path fill="none" stroke="#191970" d="M944.6654,-335.1707C875.0717,-327.5319 737.5552,-310.8679 691.9604,-294 660.0225,-282.1844 627.3092,-259.8803 607.3111,-244.8531"/>
<polygon fill="#191970" stroke="#191970" points="609.3769,-242.0266 599.3121,-238.7174 605.1165,-247.5808 609.3769,-242.0266"/>
</g>
<!-- Node33 -->
<g id="node34" class="node">
<title>Node33</title>
<g id="a_node34"><a xlink:title=" ">
<polygon fill="#ffffff" stroke="#bfbfbf" points="2012.0273,-275.5 2012.0273,-293.5 2135.8936,-293.5 2135.8936,-275.5 2012.0273,-275.5"/>
<text text-anchor="middle" x="2073.9604" y="-281.5" font-family="Helvetica,sans-Serif" font-size="10.00" fill="#000000">dji_thread_manager.hpp</text>
</a>
</g>
</g>
<!-- Node4&#45;&gt;Node33 -->
<g id="edge61" class="edge">
<title>Node4&#45;&gt;Node33</title>
<path fill="none" stroke="#191970" d="M1027.2197,-338.9602C1164.2519,-336.8914 1616.8594,-327.8437 2001.4431,-294.0575"/>
<polygon fill="#191970" stroke="#191970" points="2002.0049,-297.5215 2011.6571,-293.1529 2001.3873,-290.5488 2002.0049,-297.5215"/>
</g>
<!-- Node34 -->
<g id="node35" class="node">
<title>Node34</title>
<g id="a_node35"><a xlink:href="dji__virtual__rc_8hpp.html" target="_top" xlink:title="Virtual Radio Control API for DJI onboardSDK library.">
<polygon fill="#ffffff" stroke="#000000" points="866.1626,-275.5 866.1626,-293.5 957.7583,-293.5 957.7583,-275.5 866.1626,-275.5"/>
<text text-anchor="middle" x="911.9604" y="-281.5" font-family="Helvetica,sans-Serif" font-size="10.00" fill="#000000">dji_virtual_rc.hpp</text>
</a>
</g>
</g>
<!-- Node4&#45;&gt;Node34 -->
<g id="edge65" class="edge">
<title>Node4&#45;&gt;Node34</title>
<path fill="none" stroke="#191970" d="M973.7409,-330.4179C962.4935,-322.0584 945.5923,-309.4966 932.309,-299.6239"/>
<polygon fill="#191970" stroke="#191970" points="934.312,-296.7518 924.1982,-293.5956 930.1363,-302.37 934.312,-296.7518"/>
</g>
<!-- Node6&#45;&gt;Node2 -->
<g id="edge11" class="edge">
<title>Node6&#45;&gt;Node2</title>
<path fill="none" stroke="#191970" d="M465.7869,-220.4982C457.4563,-202.5302 438.6165,-161.8954 427.5399,-138.0046"/>
<polygon fill="#191970" stroke="#191970" points="430.5733,-136.2263 423.1917,-128.6261 424.2227,-139.1707 430.5733,-136.2263"/>
</g>
<!-- Node7 -->
<g id="node8" class="node">
<title>Node7</title>
<g id="a_node8"><a xlink:href="dji__telemetry_8hpp.html" target="_top" xlink:title="Enumeration of all telemetry data types, structures and maps.">
<polygon fill="#ffffff" stroke="#000000" points="651.2529,-165.5 651.2529,-183.5 742.668,-183.5 742.668,-165.5 651.2529,-165.5"/>
<text text-anchor="middle" x="696.9604" y="-171.5" font-family="Helvetica,sans-Serif" font-size="10.00" fill="#000000">dji_telemetry.hpp</text>
</a>
</g>
</g>
<!-- Node6&#45;&gt;Node7 -->
<g id="edge7" class="edge">
<title>Node6&#45;&gt;Node7</title>
<path fill="none" stroke="#191970" d="M507.1907,-220.4795C546.1996,-211.0279 607.5799,-196.1561 649.9162,-185.8984"/>
<polygon fill="#191970" stroke="#191970" points="650.8153,-189.2819 659.7099,-183.5255 649.1669,-182.4787 650.8153,-189.2819"/>
</g>
<!-- Node7&#45;&gt;Node8 -->
<g id="edge8" class="edge">
<title>Node7&#45;&gt;Node8</title>
<path fill="none" stroke="#191970" d="M743.1146,-169.4733C839.4543,-158.9809 1060.917,-134.8612 1156.5814,-124.4423"/>
<polygon fill="#191970" stroke="#191970" points="1157.2342,-127.892 1166.7965,-123.3297 1156.4763,-120.9331 1157.2342,-127.892"/>
</g>
<!-- Node9 -->
<g id="node10" class="node">
<title>Node9</title>
<g id="a_node10"><a xlink:title=" ">
<polygon fill="#ffffff" stroke="#bfbfbf" points="1173.8989,-55.5 1173.8989,-73.5 1216.022,-73.5 1216.022,-55.5 1173.8989,-55.5"/>
<text text-anchor="middle" x="1194.9604" y="-61.5" font-family="Helvetica,sans-Serif" font-size="10.00" fill="#000000">cstdio</text>
</a>
</g>
</g>
<!-- Node8&#45;&gt;Node9 -->
<g id="edge9" class="edge">
<title>Node8&#45;&gt;Node9</title>
<path fill="none" stroke="#191970" d="M1200.8045,-110.4179C1199.888,-103.2164 1198.5745,-92.8962 1197.4249,-83.8632"/>
<polygon fill="#191970" stroke="#191970" points="1200.8761,-83.2575 1196.1415,-73.7795 1193.9321,-84.1414 1200.8761,-83.2575"/>
</g>
<!-- Node10 -->
<g id="node11" class="node">
<title>Node10</title>
<g id="a_node11"><a xlink:title=" ">
<polygon fill="#ffffff" stroke="#bfbfbf" points="1257.8398,-.5 1257.8398,-18.5 1306.0811,-18.5 1306.0811,-.5 1257.8398,-.5"/>
<text text-anchor="middle" x="1281.9604" y="-6.5" font-family="Helvetica,sans-Serif" font-size="10.00" fill="#000000">stdint.h</text>
</a>
</g>
</g>
<!-- Node8&#45;&gt;Node10 -->
<g id="edge10" class="edge">
<title>Node8&#45;&gt;Node10</title>
<path fill="none" stroke="#191970" d="M1208.5072,-110.4982C1221.8093,-92.2079 1252.1929,-50.4304 1269.4256,-26.7354"/>
<polygon fill="#191970" stroke="#191970" points="1272.2721,-28.7721 1275.3233,-18.6261 1266.6109,-24.6549 1272.2721,-28.7721"/>
</g>
<!-- Node11&#45;&gt;Node8 -->
<g id="edge17" class="edge">
<title>Node11&#45;&gt;Node8</title>
<path fill="none" stroke="#191970" d="M1537.6858,-166.4708C1534.7355,-165.958 1531.8051,-165.4626 1528.9604,-165 1475.7378,-156.3449 1324.1129,-135.8344 1247.479,-125.5703"/>
<polygon fill="#191970" stroke="#191970" points="1247.5572,-122.0497 1237.1813,-124.1923 1246.6287,-128.9878 1247.5572,-122.0497"/>
</g>
<!-- Node11&#45;&gt;Node12 -->
<g id="edge13" class="edge">
<title>Node11&#45;&gt;Node12</title>
<path fill="none" stroke="#191970" d="M1539.286,-165.4795C1496.3986,-155.9681 1428.7599,-140.9676 1382.4811,-130.7042"/>
<polygon fill="#191970" stroke="#191970" points="1383.1777,-127.2737 1372.6571,-128.5255 1381.6621,-134.1077 1383.1777,-127.2737"/>
</g>
<!-- Node12&#45;&gt;Node10 -->
<g id="edge16" class="edge">
<title>Node12&#45;&gt;Node10</title>
<path fill="none" stroke="#191970" d="M1324.3867,-110.2648C1317.4578,-101.4244 1307.3424,-87.4765 1300.9604,-74 1294.0125,-59.3283 1289.0065,-41.5637 1285.8828,-28.3956"/>
<polygon fill="#191970" stroke="#191970" points="1289.2883,-27.5858 1283.7003,-18.5844 1282.4553,-29.1058 1289.2883,-27.5858"/>
</g>
<!-- Node13 -->
<g id="node14" class="node">
<title>Node13</title>
<g id="a_node14"><a xlink:href="dji__error_8hpp.html" target="_top" xlink:title="All DJI OSDK OpenProtocol ACK Error Codes.">
<polygon fill="#ffffff" stroke="#000000" points="1310.1626,-55.5 1310.1626,-73.5 1381.7583,-73.5 1381.7583,-55.5 1310.1626,-55.5"/>
<text text-anchor="middle" x="1345.9604" y="-61.5" font-family="Helvetica,sans-Serif" font-size="10.00" fill="#000000">dji_error.hpp</text>
</a>
</g>
</g>
<!-- Node12&#45;&gt;Node13 -->
<g id="edge14" class="edge">
<title>Node12&#45;&gt;Node13</title>
<path fill="none" stroke="#191970" d="M1334.2723,-110.4179C1336.1255,-103.1372 1338.7902,-92.669 1341.1073,-83.5659"/>
<polygon fill="#191970" stroke="#191970" points="1344.5234,-84.3338 1343.5984,-73.7795 1337.7397,-82.607 1344.5234,-84.3338"/>
</g>
<!-- Node13&#45;&gt;Node10 -->
<g id="edge15" class="edge">
<title>Node13&#45;&gt;Node10</title>
<path fill="none" stroke="#191970" d="M1335.3922,-55.4179C1325.9072,-47.2667 1311.773,-35.1201 1300.4238,-25.3669"/>
<polygon fill="#191970" stroke="#191970" points="1302.6238,-22.6427 1292.7584,-18.7795 1298.0614,-27.9516 1302.6238,-22.6427"/>
</g>
<!-- Node15&#45;&gt;Node2 -->
<g id="edge32" class="edge">
<title>Node15&#45;&gt;Node2</title>
<path fill="none" stroke="#191970" d="M768.685,-275.3888C741.9066,-262.7692 691.8943,-239.3384 648.9604,-220 577.8547,-187.9722 493.7619,-151.6087 449.5906,-132.6239"/>
<polygon fill="#191970" stroke="#191970" points="450.8461,-129.354 440.2764,-128.624 448.0839,-135.786 450.8461,-129.354"/>
</g>
<!-- Node15&#45;&gt;Node3 -->
<g id="edge30" class="edge">
<title>Node15&#45;&gt;Node3</title>
<path fill="none" stroke="#191970" d="M773.4311,-275.3889C746.6741,-258.4178 688.1229,-220.3794 641.9604,-184 598.1516,-149.4754 550.3169,-104.5427 525.6912,-80.8221"/>
<polygon fill="#191970" stroke="#191970" points="527.8882,-78.0775 518.269,-73.6366 523.0193,-83.1069 527.8882,-78.0775"/>
</g>
<!-- Node15&#45;&gt;Node8 -->
<g id="edge31" class="edge">
<title>Node15&#45;&gt;Node8</title>
<path fill="none" stroke="#191970" d="M787.961,-275.2041C788.5122,-252.3468 793.3812,-193.217 827.9604,-165 853.025,-144.5471 1062.7037,-128.5331 1156.6927,-122.3118"/>
<polygon fill="#191970" stroke="#191970" points="1157.009,-125.7987 1166.7594,-121.6537 1156.5523,-118.8136 1157.009,-125.7987"/>
</g>
<!-- Node16 -->
<g id="node17" class="node">
<title>Node16</title>
<g id="a_node17"><a xlink:href="dji__ack_8hpp.html" target="_top" xlink:title="All DJI OSDK ACK parsing.">
<polygon fill="#ffffff" stroke="#000000" points="891.665,-220.5 891.665,-238.5 958.2559,-238.5 958.2559,-220.5 891.665,-220.5"/>
<text text-anchor="middle" x="924.9604" y="-226.5" font-family="Helvetica,sans-Serif" font-size="10.00" fill="#000000">dji_ack.hpp</text>
</a>
</g>
</g>
<!-- Node15&#45;&gt;Node16 -->
<g id="edge21" class="edge">
<title>Node15&#45;&gt;Node16</title>
<path fill="none" stroke="#191970" d="M810.5832,-275.4179C832.9924,-266.4215 867.5249,-252.5581 892.785,-242.4172"/>
<polygon fill="#191970" stroke="#191970" points="894.328,-245.5693 902.3041,-238.5956 891.72,-239.0732 894.328,-245.5693"/>
</g>
<!-- Node16&#45;&gt;Node8 -->
<g id="edge25" class="edge">
<title>Node16&#45;&gt;Node8</title>
<path fill="none" stroke="#191970" d="M941.5438,-220.4944C972.3476,-203.8019 1036.2507,-169.3514 1046.9604,-165 1083.0659,-150.3302 1125.6447,-138.1798 1157.0308,-130.1362"/>
<polygon fill="#191970" stroke="#191970" points="1157.965,-133.5103 1166.8054,-127.6709 1156.2531,-126.7228 1157.965,-133.5103"/>
</g>
<!-- Node16&#45;&gt;Node12 -->
<g id="edge22" class="edge">
<title>Node16&#45;&gt;Node12</title>
<path fill="none" stroke="#191970" d="M958.3197,-224.2102C1002.3847,-216.8856 1082.2155,-202.4457 1148.9604,-184 1202.8279,-169.1131 1263.7328,-146.4328 1299.9308,-132.3124"/>
<polygon fill="#191970" stroke="#191970" points="1301.4305,-135.4837 1309.4589,-128.5703 1298.8716,-128.9682 1301.4305,-135.4837"/>
</g>
<!-- Node17 -->
<g id="node18" class="node">
<title>Node17</title>
<g id="a_node18"><a xlink:href="dji__mission__type_8hpp.html" target="_top" xlink:title="Mission related data struct for DJI OSDK library.">
<polygon fill="#ffffff" stroke="#000000" points="890.2661,-165.5 890.2661,-183.5 999.6548,-183.5 999.6548,-165.5 890.2661,-165.5"/>
<text text-anchor="middle" x="944.9604" y="-171.5" font-family="Helvetica,sans-Serif" font-size="10.00" fill="#000000">dji_mission_type.hpp</text>
</a>
</g>
</g>
<!-- Node16&#45;&gt;Node17 -->
<g id="edge23" class="edge">
<title>Node16&#45;&gt;Node17</title>
<path fill="none" stroke="#191970" d="M928.263,-220.4179C930.9393,-213.0581 934.8001,-202.441 938.1352,-193.2695"/>
<polygon fill="#191970" stroke="#191970" points="941.4579,-194.3735 941.5861,-183.7795 934.8793,-191.9813 941.4579,-194.3735"/>
</g>
<!-- Node16&#45;&gt;Node18 -->
<g id="edge26" class="edge">
<title>Node16&#45;&gt;Node18</title>
<path fill="none" stroke="#191970" d="M953.5279,-220.4179C982.5383,-211.1949 1027.6385,-196.8567 1059.7173,-186.6582"/>
<polygon fill="#191970" stroke="#191970" points="1061.1686,-189.8695 1069.6381,-183.5042 1059.0477,-183.1985 1061.1686,-189.8695"/>
</g>
<!-- Node19 -->
<g id="node20" class="node">
<title>Node19</title>
<g id="a_node20"><a xlink:title=" ">
<polygon fill="#ffffff" stroke="#bfbfbf" points="837.2339,-165.5 837.2339,-183.5 872.687,-183.5 872.687,-165.5 837.2339,-165.5"/>
<text text-anchor="middle" x="854.9604" y="-171.5" font-family="Helvetica,sans-Serif" font-size="10.00" fill="#000000">map</text>
</a>
</g>
</g>
<!-- Node16&#45;&gt;Node19 -->
<g id="edge29" class="edge">
<title>Node16&#45;&gt;Node19</title>
<path fill="none" stroke="#191970" d="M913.4014,-220.4179C902.9265,-212.1876 887.2672,-199.8839 874.7941,-190.0836"/>
<polygon fill="#191970" stroke="#191970" points="876.7963,-187.2056 866.7707,-183.7795 872.4715,-192.7098 876.7963,-187.2056"/>
</g>
<!-- Node17&#45;&gt;Node8 -->
<g id="edge24" class="edge">
<title>Node17&#45;&gt;Node8</title>
<path fill="none" stroke="#191970" d="M987.111,-165.4795C1033.9081,-155.4645 1109.1428,-139.3637 1157.0312,-129.1152"/>
<polygon fill="#191970" stroke="#191970" points="1157.7688,-132.5367 1166.8149,-127.0214 1156.3039,-125.6917 1157.7688,-132.5367"/>
</g>
<!-- Node18&#45;&gt;Node5 -->
<g id="edge28" class="edge">
<title>Node18&#45;&gt;Node5</title>
<path fill="none" stroke="#191970" d="M1056.1538,-169.0253C972.698,-158.0966 786.9664,-133.7746 711.1554,-123.847"/>
<polygon fill="#191970" stroke="#191970" points="711.1628,-120.3181 700.793,-122.49 710.2539,-127.2589 711.1628,-120.3181"/>
</g>
<!-- Node18&#45;&gt;Node12 -->
<g id="edge27" class="edge">
<title>Node18&#45;&gt;Node12</title>
<path fill="none" stroke="#191970" d="M1136.3388,-165.4795C1176.6355,-156.008 1240.0907,-141.0933 1283.7415,-130.8335"/>
<polygon fill="#191970" stroke="#191970" points="1284.6273,-134.2208 1293.5612,-128.5255 1283.0256,-127.4065 1284.6273,-134.2208"/>
</g>
<!-- Node20&#45;&gt;Node8 -->
<g id="edge35" class="edge">
<title>Node20&#45;&gt;Node8</title>
<path fill="none" stroke="#191970" d="M1439.5369,-166.5025C1388.3235,-156.3704 1300.3276,-138.9611 1247.0076,-128.4122"/>
<polygon fill="#191970" stroke="#191970" points="1247.6387,-124.9693 1237.1495,-126.4619 1246.2801,-131.8362 1247.6387,-124.9693"/>
</g>
<!-- Node20&#45;&gt;Node12 -->
<g id="edge34" class="edge">
<title>Node20&#45;&gt;Node12</title>
<path fill="none" stroke="#191970" d="M1455.5213,-165.4179C1431.0985,-156.3419 1393.3463,-142.3123 1365.9973,-132.1488"/>
<polygon fill="#191970" stroke="#191970" points="1367.0288,-128.7984 1356.4359,-128.5956 1364.5904,-135.3599 1367.0288,-128.7984"/>
</g>
<!-- Node22&#45;&gt;Node8 -->
<g id="edge38" class="edge">
<title>Node22&#45;&gt;Node8</title>
<path fill="none" stroke="#191970" d="M1132.8353,-220.4668C1148.6098,-212.9019 1169.2775,-200.6566 1181.9604,-184 1191.9482,-170.883 1196.9981,-152.714 1199.5212,-139.0013"/>
<polygon fill="#191970" stroke="#191970" points="1203.0385,-139.1553 1201.0992,-128.7395 1196.1199,-138.0913 1203.0385,-139.1553"/>
</g>
<!-- Node24 -->
<g id="node25" class="node">
<title>Node24</title>
<g id="a_node25"><a xlink:href="dji__hotpoint_8hpp.html" target="_top" xlink:title="Implementation of HotPoint (Point of Interest) Missions for DJI OSDK.">
<polygon fill="#ffffff" stroke="#000000" points="1188.6528,-220.5 1188.6528,-238.5 1275.2681,-238.5 1275.2681,-220.5 1188.6528,-220.5"/>
<text text-anchor="middle" x="1231.9604" y="-226.5" font-family="Helvetica,sans-Serif" font-size="10.00" fill="#000000">dji_hotpoint.hpp</text>
</a>
</g>
</g>
<!-- Node23&#45;&gt;Node24 -->
<g id="edge41" class="edge">
<title>Node23&#45;&gt;Node24</title>
<path fill="none" stroke="#191970" d="M1231.9604,-275.4179C1231.9604,-268.2164 1231.9604,-257.8962 1231.9604,-248.8632"/>
<polygon fill="#191970" stroke="#191970" points="1235.4605,-248.7794 1231.9604,-238.7795 1228.4605,-248.7795 1235.4605,-248.7794"/>
</g>
<!-- Node26 -->
<g id="node27" class="node">
<title>Node26</title>
<g id="a_node27"><a xlink:href="dji__waypoint_8hpp.html" target="_top" xlink:title="Implementation of GPS Waypoint Missions for DJI OSDK.">
<polygon fill="#ffffff" stroke="#000000" points="1293.7119,-220.5 1293.7119,-238.5 1384.209,-238.5 1384.209,-220.5 1293.7119,-220.5"/>
<text text-anchor="middle" x="1338.9604" y="-226.5" font-family="Helvetica,sans-Serif" font-size="10.00" fill="#000000">dji_waypoint.hpp</text>
</a>
</g>
</g>
<!-- Node23&#45;&gt;Node26 -->
<g id="edge47" class="edge">
<title>Node23&#45;&gt;Node26</title>
<path fill="none" stroke="#191970" d="M1249.6293,-275.4179C1266.6668,-266.6603 1292.6766,-253.2907 1312.2444,-243.2326"/>
<polygon fill="#191970" stroke="#191970" points="1313.9716,-246.2801 1321.2653,-238.5956 1310.7714,-240.0544 1313.9716,-246.2801"/>
</g>
<!-- Node24&#45;&gt;Node7 -->
<g id="edge46" class="edge">
<title>Node24&#45;&gt;Node7</title>
<path fill="none" stroke="#191970" d="M1188.6212,-221.4285C1185.357,-220.9135 1182.1095,-220.4301 1178.9604,-220 1097.981,-208.9398 861.8731,-188.4256 753.0644,-179.2043"/>
<polygon fill="#191970" stroke="#191970" points="753.2009,-175.7034 742.9414,-178.3478 752.6108,-182.6785 753.2009,-175.7034"/>
</g>
<!-- Node25 -->
<g id="node26" class="node">
<title>Node25</title>
<g id="a_node26"><a xlink:href="dji__mission__base_8hpp.html" target="_top" xlink:title="Mission&#45;Base abstract class for DJI OSDK library.">
<polygon fill="#ffffff" stroke="#000000" points="1271.8745,-165.5 1271.8745,-183.5 1384.0464,-183.5 1384.0464,-165.5 1271.8745,-165.5"/>
<text text-anchor="middle" x="1327.9604" y="-171.5" font-family="Helvetica,sans-Serif" font-size="10.00" fill="#000000">dji_mission_base.hpp</text>
</a>
</g>
</g>
<!-- Node24&#45;&gt;Node25 -->
<g id="edge42" class="edge">
<title>Node24&#45;&gt;Node25</title>
<path fill="none" stroke="#191970" d="M1247.8129,-220.4179C1262.8209,-211.8195 1285.5889,-198.7754 1303.0276,-188.7844"/>
<polygon fill="#191970" stroke="#191970" points="1305.1475,-191.6037 1312.0845,-183.5956 1301.6677,-185.5299 1305.1475,-191.6037"/>
</g>
<!-- Node25&#45;&gt;Node2 -->
<g id="edge45" class="edge">
<title>Node25&#45;&gt;Node2</title>
<path fill="none" stroke="#191970" d="M1271.7844,-171.101C1114.001,-161.5542 666.8873,-134.5011 491.1575,-123.8684"/>
<polygon fill="#191970" stroke="#191970" points="491.1764,-120.3632 480.9832,-123.2528 490.7536,-127.3504 491.1764,-120.3632"/>
</g>
<!-- Node25&#45;&gt;Node8 -->
<g id="edge44" class="edge">
<title>Node25&#45;&gt;Node8</title>
<path fill="none" stroke="#191970" d="M1307.1541,-165.4179C1286.7266,-156.5011 1255.3456,-142.803 1232.1713,-132.6873"/>
<polygon fill="#191970" stroke="#191970" points="1233.3628,-129.3885 1222.7977,-128.5956 1230.5624,-135.804 1233.3628,-129.3885"/>
</g>
<!-- Node25&#45;&gt;Node12 -->
<g id="edge43" class="edge">
<title>Node25&#45;&gt;Node12</title>
<path fill="none" stroke="#191970" d="M1328.621,-165.4179C1329.1447,-158.2164 1329.8953,-147.8962 1330.5522,-138.8632"/>
<polygon fill="#191970" stroke="#191970" points="1334.0509,-139.007 1331.2856,-128.7795 1327.0694,-138.4992 1334.0509,-139.007"/>
</g>
<!-- Node26&#45;&gt;Node25 -->
<g id="edge48" class="edge">
<title>Node26&#45;&gt;Node25</title>
<path fill="none" stroke="#191970" d="M1337.144,-220.4179C1335.7037,-213.2164 1333.6397,-202.8962 1331.8331,-193.8632"/>
<polygon fill="#191970" stroke="#191970" points="1335.2096,-192.8988 1329.8163,-183.7795 1328.3455,-194.2717 1335.2096,-192.8988"/>
</g>
<!-- Node27&#45;&gt;Node2 -->
<g id="edge51" class="edge">
<title>Node27&#45;&gt;Node2</title>
<path fill="none" stroke="#191970" d="M396.3196,-275.1561C400.1313,-248.9504 410.9814,-174.3557 416.1529,-138.8021"/>
<polygon fill="#191970" stroke="#191970" points="419.6403,-139.1411 417.6162,-128.7414 412.7132,-138.1334 419.6403,-139.1411"/>
</g>
<!-- Node28 -->
<g id="node29" class="node">
<title>Node28</title>
<g id="a_node29"><a xlink:title=" ">
<polygon fill="#ffffff" stroke="#bfbfbf" points="283.0542,-220.5 283.0542,-238.5 366.8667,-238.5 366.8667,-220.5 283.0542,-220.5"/>
<text text-anchor="middle" x="324.9604" y="-226.5" font-family="Helvetica,sans-Serif" font-size="10.00" fill="#000000">dji_macros.hpp</text>
</a>
</g>
</g>
<!-- Node27&#45;&gt;Node28 -->
<g id="edge50" class="edge">
<title>Node27&#45;&gt;Node28</title>
<path fill="none" stroke="#191970" d="M383.4014,-275.4179C372.9265,-267.1876 357.2672,-254.8839 344.7941,-245.0836"/>
<polygon fill="#191970" stroke="#191970" points="346.7963,-242.2056 336.7707,-238.7795 342.4715,-247.7098 346.7963,-242.2056"/>
</g>
<!-- Node29&#45;&gt;Node2 -->
<g id="edge53" class="edge">
<title>Node29&#45;&gt;Node2</title>
<path fill="none" stroke="#191970" d="M177.6386,-220.049C189.6461,-205.9065 214.2731,-179.3674 240.9604,-165 273.5391,-147.461 313.1407,-136.4745 346.7116,-129.7035"/>
<polygon fill="#191970" stroke="#191970" points="347.7656,-133.0649 356.9221,-127.7349 346.4403,-126.1915 347.7656,-133.0649"/>
</g>
<!-- Node32&#45;&gt;Node2 -->
<g id="edge60" class="edge">
<title>Node32&#45;&gt;Node2</title>
<path fill="none" stroke="#191970" d="M565.7051,-220.4796C546.3226,-212.1942 517.8232,-198.9584 494.9604,-184 472.9666,-169.6102 450.3201,-149.5928 435.5362,-135.6898"/>
<polygon fill="#191970" stroke="#191970" points="437.8349,-133.0454 428.1859,-128.6695 433.0001,-138.1074 437.8349,-133.0454"/>
</g>
<!-- Node32&#45;&gt;Node3 -->
<g id="edge58" class="edge">
<title>Node32&#45;&gt;Node3</title>
<path fill="none" stroke="#191970" d="M583.4867,-220.1561C570.8311,-193.7235 534.6045,-118.0604 517.7642,-82.8875"/>
<polygon fill="#191970" stroke="#191970" points="520.8604,-81.2494 513.3851,-73.7414 514.5468,-84.2724 520.8604,-81.2494"/>
</g>
<!-- Node32&#45;&gt;Node7 -->
<g id="edge59" class="edge">
<title>Node32&#45;&gt;Node7</title>
<path fill="none" stroke="#191970" d="M605.9596,-220.4179C623.3155,-211.6603 649.8115,-198.2907 669.745,-188.2326"/>
<polygon fill="#191970" stroke="#191970" points="671.5835,-191.2253 678.9346,-183.5956 668.43,-184.9758 671.5835,-191.2253"/>
</g>
<!-- Node34&#45;&gt;Node3 -->
<g id="edge67" class="edge">
<title>Node34&#45;&gt;Node3</title>
<path fill="none" stroke="#191970" d="M904.1844,-275.1553C879.1882,-245.7698 797.3571,-154.5548 708.9604,-110 667.4807,-89.0928 616.3445,-77.6785 576.1627,-71.5112"/>
<polygon fill="#191970" stroke="#191970" points="576.5967,-68.0375 566.1955,-70.0537 575.5838,-74.9638 576.5967,-68.0375"/>
</g>
<!-- Node34&#45;&gt;Node7 -->
<g id="edge69" class="edge">
<title>Node34&#45;&gt;Node7</title>
<path fill="none" stroke="#191970" d="M894.3661,-275.4982C856.8057,-256.2813 768.5695,-211.1372 723.8918,-188.2788"/>
<polygon fill="#191970" stroke="#191970" points="725.2946,-185.0651 714.7979,-183.6261 722.1062,-191.2968 725.2946,-185.0651"/>
</g>
<!-- Node34&#45;&gt;Node8 -->
<g id="edge68" class="edge">
<title>Node34&#45;&gt;Node8</title>
<path fill="none" stroke="#191970" d="M928.5945,-275.4356C953.1627,-262.25 1000.7991,-237.4521 1042.9604,-220 1088.9316,-200.9709 1108.0428,-212.3055 1148.9604,-184 1166.7557,-171.6898 1181.8208,-151.8008 1191.2878,-137.3596"/>
<polygon fill="#191970" stroke="#191970" points="1194.3153,-139.12 1196.673,-128.7908 1188.3885,-135.3952 1194.3153,-139.12"/>
</g>
<!-- Node34&#45;&gt;Node16 -->
<g id="edge66" class="edge">
<title>Node34&#45;&gt;Node16</title>
<path fill="none" stroke="#191970" d="M914.1071,-275.4179C915.828,-268.1372 918.3023,-257.669 920.454,-248.5659"/>
<polygon fill="#191970" stroke="#191970" points="923.8729,-249.3164 922.7671,-238.7795 917.0606,-247.7062 923.8729,-249.3164"/>
</g>
</g>
</svg>
