<?xml version="1.0" encoding="UTF-8" standalone="no"?>
<!DOCTYPE svg PUBLIC "-//W3C//DTD SVG 1.1//EN"
 "http://www.w3.org/Graphics/SVG/1.1/DTD/svg11.dtd">
<!-- Generated by graphviz version 2.40.1 (20161225.0304)
 -->
<!-- Title: osdk&#45;core/api/src/dji_mobile_device.cpp Pages: 1 -->
<!--zoomable 422 -->
<svg id="main" version="1.1" xmlns="http://www.w3.org/2000/svg" xmlns:xlink="http://www.w3.org/1999/xlink" xml:space="preserve" onload="init(evt)">
<style type="text/css"><![CDATA[
.edge:hover path { stroke: red; }
.edge:hover polygon { stroke: red; fill: red; }
]]></style>
<script type="text/javascript"><![CDATA[
var edges = document.getElementsByTagName('g');
if (edges && edges.length) {
  for (var i=0;i<edges.length;i++) {
    if (edges[i].id.substr(0,4)=='edge') {
      edges[i].setAttribute('class','edge');
    }
  }
}
]]></script>
        <defs>
                <circle id="rim" cx="0" cy="0" r="7"/>
                <circle id="rim2" cx="0" cy="0" r="3.5"/>
                <g id="zoomPlus">
                        <use xlink:href="#rim" fill="#404040">
                                <set attributeName="fill" to="#808080" begin="zoomplus.mouseover" end="zoomplus.mouseout"/>
                        </use>
                        <path d="M-4,0h8M0,-4v8" fill="none" stroke="white" stroke-width="1.5" pointer-events="none"/>
                </g>
                <g id="zoomMin">
                        <use xlink:href="#rim" fill="#404040">
                                <set attributeName="fill" to="#808080" begin="zoomminus.mouseover" end="zoomminus.mouseout"/>
                        </use>
                        <path d="M-4,0h8" fill="none" stroke="white" stroke-width="1.5" pointer-events="none"/>
                </g>
                <g id="dirArrow">
                        <path fill="none" stroke="white" stroke-width="1.5" d="M0,-3.0v7 M-2.5,-0.5L0,-3.0L2.5,-0.5"/>
                </g>
               <g id="resetDef">
                       <use xlink:href="#rim2" fill="#404040">
                               <set attributeName="fill" to="#808080" begin="reset.mouseover" end="reset.mouseout"/>
                       </use>
               </g>
        </defs>

<script type="text/javascript">
var viewWidth = 1889;
var viewHeight = 422;
var sectionId = 'dynsection-0';
</script>
<script xlink:href="svgpan.js"/>
<svg id="graph" class="graph">
<g id="viewport">
<title>osdk&#45;core/api/src/dji_mobile_device.cpp</title>
<polygon fill="#ffffff" stroke="transparent" points="-4,4 -4,-418 1884.5976,-418 1884.5976,4 -4,4"/>
<!-- Node0 -->
<g id="node1" class="node">
<title>Node0</title>
<g id="a_node1"><a xlink:title="Implementation of DJI Mobile Device Abstraction.">
<polygon fill="#bfbfbf" stroke="#000000" points="438.0171,-385.5 438.0171,-413.5 542.938,-413.5 542.938,-385.5 438.0171,-385.5"/>
<text text-anchor="start" x="446.0171" y="-401.5" font-family="Helvetica,sans-Serif" font-size="10.00" fill="#000000">osdk&#45;core/api/src/dji</text>
<text text-anchor="middle" x="490.4775" y="-391.5" font-family="Helvetica,sans-Serif" font-size="10.00" fill="#000000">_mobile_device.cpp</text>
</a>
</g>
</g>
<!-- Node1 -->
<g id="node2" class="node">
<title>Node1</title>
<g id="a_node2"><a xlink:href="dji__mobile__device_8hpp.html" target="_top" xlink:title="Implementation of DJI Mobile Device Abstraction.">
<polygon fill="#ffffff" stroke="#000000" points="0,-275.5 0,-293.5 114.9551,-293.5 114.9551,-275.5 0,-275.5"/>
<text text-anchor="middle" x="57.4775" y="-281.5" font-family="Helvetica,sans-Serif" font-size="10.00" fill="#000000">dji_mobile_device.hpp</text>
</a>
</g>
</g>
<!-- Node0&#45;&gt;Node1 -->
<g id="edge1" class="edge">
<title>Node0&#45;&gt;Node1</title>
<path fill="none" stroke="#191970" d="M437.8161,-385.5137C351.4693,-362.581 181.3893,-317.4096 101.2325,-296.1208"/>
<polygon fill="#191970" stroke="#191970" points="102.0181,-292.7082 91.4547,-293.524 100.2212,-299.4737 102.0181,-292.7082"/>
</g>
<!-- Node4 -->
<g id="node5" class="node">
<title>Node4</title>
<g id="a_node5"><a xlink:href="dji__vehicle_8hpp.html" target="_top" xlink:title="Vehicle API for DJI onboardSDK library.">
<polygon fill="#ffffff" stroke="#000000" points="856.3989,-330.5 856.3989,-348.5 938.5562,-348.5 938.5562,-330.5 856.3989,-330.5"/>
<text text-anchor="middle" x="897.4775" y="-336.5" font-family="Helvetica,sans-Serif" font-size="10.00" fill="#000000">dji_vehicle.hpp</text>
</a>
</g>
</g>
<!-- Node0&#45;&gt;Node4 -->
<g id="edge4" class="edge">
<title>Node0&#45;&gt;Node4</title>
<path fill="none" stroke="#191970" d="M543.2684,-391.7176C621.7981,-380.1407 768.4483,-358.5215 846.1322,-347.0693"/>
<polygon fill="#191970" stroke="#191970" points="846.7837,-350.5112 856.1663,-345.5901 845.7628,-343.5861 846.7837,-350.5112"/>
</g>
<!-- Node2 -->
<g id="node3" class="node">
<title>Node2</title>
<g id="a_node3"><a xlink:href="dji__vehicle__callback_8hpp.html" target="_top" xlink:title="Type definition for new Vehicle&#45;style callbacks.">
<polygon fill="#ffffff" stroke="#000000" points="294.5542,-110.5 294.5542,-128.5 418.4009,-128.5 418.4009,-110.5 294.5542,-110.5"/>
<text text-anchor="middle" x="356.4775" y="-116.5" font-family="Helvetica,sans-Serif" font-size="10.00" fill="#000000">dji_vehicle_callback.hpp</text>
</a>
</g>
</g>
<!-- Node1&#45;&gt;Node2 -->
<g id="edge2" class="edge">
<title>Node1&#45;&gt;Node2</title>
<path fill="none" stroke="#191970" d="M58.6508,-275.2617C62.0573,-252.536 74.1336,-193.6826 110.4775,-165 136.9201,-144.1316 221.6339,-131.8476 284.296,-125.4066"/>
<polygon fill="#191970" stroke="#191970" points="284.939,-128.8599 294.5423,-124.3848 284.2443,-121.8945 284.939,-128.8599"/>
</g>
<!-- Node3 -->
<g id="node4" class="node">
<title>Node3</title>
<g id="a_node4"><a xlink:title=" ">
<polygon fill="#ffffff" stroke="#bfbfbf" points="427.271,-55.5 427.271,-73.5 541.6841,-73.5 541.6841,-55.5 427.271,-55.5"/>
<text text-anchor="middle" x="484.4775" y="-61.5" font-family="Helvetica,sans-Serif" font-size="10.00" fill="#000000">dji_open_protocol.hpp</text>
</a>
</g>
</g>
<!-- Node2&#45;&gt;Node3 -->
<g id="edge3" class="edge">
<title>Node2&#45;&gt;Node3</title>
<path fill="none" stroke="#191970" d="M377.6141,-110.4179C398.4586,-101.4613 430.5298,-87.6806 454.102,-77.552"/>
<polygon fill="#191970" stroke="#191970" points="455.5036,-80.7592 463.3095,-73.5956 452.74,-74.3278 455.5036,-80.7592"/>
</g>
<!-- Node4&#45;&gt;Node1 -->
<g id="edge53" class="edge">
<title>Node4&#45;&gt;Node1</title>
<path fill="none" stroke="#191970" d="M856.1307,-338.1296C740.7788,-334.0741 405.7081,-320.7118 128.4775,-294 127.3944,-293.8956 126.3023,-293.7873 125.2032,-293.6754"/>
<polygon fill="#191970" stroke="#191970" points="125.4926,-290.1863 115.1723,-292.5825 124.7344,-297.1451 125.4926,-290.1863"/>
</g>
<!-- Node4&#45;&gt;Node2 -->
<g id="edge63" class="edge">
<title>Node4&#45;&gt;Node2</title>
<path fill="none" stroke="#191970" d="M856.3198,-339.0537C712.3457,-337.1989 236.8636,-328.4949 178.4775,-294 147.1539,-275.4937 123.999,-250.7285 143.4775,-220 175.8015,-169.0071 241.6981,-143.4037 291.6856,-130.8656"/>
<polygon fill="#191970" stroke="#191970" points="292.5449,-134.2588 301.4563,-128.5285 290.9164,-127.4509 292.5449,-134.2588"/>
</g>
<!-- Node4&#45;&gt;Node3 -->
<g id="edge54" class="edge">
<title>Node4&#45;&gt;Node3</title>
<path fill="none" stroke="#191970" d="M856.1376,-336.5029C786.1871,-330.8678 647.9417,-317.1323 605.4775,-294 524.7212,-250.0081 495.8137,-130.2133 487.4183,-83.5056"/>
<polygon fill="#191970" stroke="#191970" points="490.8503,-82.8084 485.7424,-73.5262 483.947,-83.9678 490.8503,-82.8084"/>
</g>
<!-- Node5 -->
<g id="node6" class="node">
<title>Node5</title>
<g id="a_node6"><a xlink:title=" ">
<polygon fill="#ffffff" stroke="#bfbfbf" points="538.0269,-110.5 538.0269,-128.5 582.9282,-128.5 582.9282,-110.5 538.0269,-110.5"/>
<text text-anchor="middle" x="560.4775" y="-116.5" font-family="Helvetica,sans-Serif" font-size="10.00" fill="#000000">cstdint</text>
</a>
</g>
</g>
<!-- Node4&#45;&gt;Node5 -->
<g id="edge5" class="edge">
<title>Node4&#45;&gt;Node5</title>
<path fill="none" stroke="#191970" d="M856.2902,-335.0254C810.022,-329.1402 733.194,-316.768 670.4775,-294 622.4325,-276.5582 597.217,-281.9309 569.4775,-239 549.7965,-208.5406 552.7438,-164.1599 556.6293,-138.9361"/>
<polygon fill="#191970" stroke="#191970" points="560.1245,-139.2677 558.4026,-128.8137 553.2295,-138.0597 560.1245,-139.2677"/>
</g>
<!-- Node6 -->
<g id="node7" class="node">
<title>Node6</title>
<g id="a_node7"><a xlink:href="dji__broadcast_8hpp.html" target="_top" xlink:title="Broadcast Telemetry API for DJI onboardSDK library.">
<polygon fill="#ffffff" stroke="#000000" points="578.0049,-220.5 578.0049,-238.5 672.9502,-238.5 672.9502,-220.5 578.0049,-220.5"/>
<text text-anchor="middle" x="625.4775" y="-226.5" font-family="Helvetica,sans-Serif" font-size="10.00" fill="#000000">dji_broadcast.hpp</text>
</a>
</g>
</g>
<!-- Node4&#45;&gt;Node6 -->
<g id="edge6" class="edge">
<title>Node4&#45;&gt;Node6</title>
<path fill="none" stroke="#191970" d="M856.2486,-335.3847C815.6531,-330.0819 752.7491,-318.4519 703.4775,-294 679.0409,-281.8729 655.5567,-260.7331 640.857,-245.9721"/>
<polygon fill="#191970" stroke="#191970" points="643.1155,-243.2732 633.6439,-238.5255 638.0875,-248.1435 643.1155,-243.2732"/>
</g>
<!-- Node8 -->
<g id="node9" class="node">
<title>Node8</title>
<g id="a_node9"><a xlink:href="dji__type_8hpp.html" target="_top" xlink:title="Data type and Data Structure definitions for use throughout DJI OSDK.">
<polygon fill="#ffffff" stroke="#000000" points="1180.5122,-110.5 1180.5122,-128.5 1250.4429,-128.5 1250.4429,-110.5 1180.5122,-110.5"/>
<text text-anchor="middle" x="1215.4775" y="-116.5" font-family="Helvetica,sans-Serif" font-size="10.00" fill="#000000">dji_type.hpp</text>
</a>
</g>
</g>
<!-- Node4&#45;&gt;Node8 -->
<g id="edge62" class="edge">
<title>Node4&#45;&gt;Node8</title>
<path fill="none" stroke="#191970" d="M938.6789,-335.9615C987.5797,-330.8069 1070.9928,-318.9787 1138.4775,-294 1154.3491,-288.1253 1155.5334,-280.6749 1171.4775,-275 1265.2329,-241.6304 1319.0889,-306.214 1392.4775,-239 1417.1617,-216.3927 1427.2231,-191.2681 1406.4775,-165 1397.3972,-153.5024 1314.3727,-136.9272 1260.8154,-127.2796"/>
<polygon fill="#191970" stroke="#191970" points="1261.3143,-123.8134 1250.8551,-125.5038 1260.0856,-130.7048 1261.3143,-123.8134"/>
</g>
<!-- Node11 -->
<g id="node12" class="node">
<title>Node11</title>
<g id="a_node12"><a xlink:href="dji__camera_8hpp.html" target="_top" xlink:title="Camera/Gimbal API for DJI onboardSDK library.">
<polygon fill="#ffffff" stroke="#000000" points="1453.2905,-165.5 1453.2905,-183.5 1537.6646,-183.5 1537.6646,-165.5 1453.2905,-165.5"/>
<text text-anchor="middle" x="1495.4775" y="-171.5" font-family="Helvetica,sans-Serif" font-size="10.00" fill="#000000">dji_camera.hpp</text>
</a>
</g>
</g>
<!-- Node4&#45;&gt;Node11 -->
<g id="edge12" class="edge">
<title>Node4&#45;&gt;Node11</title>
<path fill="none" stroke="#191970" d="M938.5929,-335.9253C992.8328,-330.4772 1090.8532,-318.0866 1171.4775,-294 1191.4969,-288.0192 1194.4715,-281.0251 1214.4775,-275 1305.569,-247.5663 1340.097,-280.9576 1425.4775,-239 1448.2897,-227.7897 1468.9592,-206.766 1481.8256,-191.7683"/>
<polygon fill="#191970" stroke="#191970" points="1484.7785,-193.6898 1488.4567,-183.7539 1479.3852,-189.2274 1484.7785,-193.6898"/>
</g>
<!-- Node12 -->
<g id="node13" class="node">
<title>Node12</title>
<g id="a_node13"><a xlink:href="dji__command_8hpp.html" target="_top" xlink:title="All DJI OSDK OpenProtocol Command IDs.">
<polygon fill="#ffffff" stroke="#000000" points="1298.0098,-110.5 1298.0098,-128.5 1392.9453,-128.5 1392.9453,-110.5 1298.0098,-110.5"/>
<text text-anchor="middle" x="1345.4775" y="-116.5" font-family="Helvetica,sans-Serif" font-size="10.00" fill="#000000">dji_command.hpp</text>
</a>
</g>
</g>
<!-- Node4&#45;&gt;Node12 -->
<g id="edge19" class="edge">
<title>Node4&#45;&gt;Node12</title>
<path fill="none" stroke="#191970" d="M938.7449,-339.145C1120.2186,-337.3863 1839.7733,-328.266 1872.4775,-294 1890.9095,-274.6878 1873.3862,-240.9027 1849.4775,-220 1783.3778,-162.2109 1521.029,-133.8778 1403.2468,-123.8654"/>
<polygon fill="#191970" stroke="#191970" points="1403.2435,-120.353 1392.9869,-123.0086 1402.6609,-127.3287 1403.2435,-120.353"/>
</g>
<!-- Node14 -->
<g id="node15" class="node">
<title>Node14</title>
<g id="a_node15"><a xlink:title=" ">
<polygon fill="#ffffff" stroke="#bfbfbf" points="1223.6445,-275.5 1223.6445,-293.5 1337.3105,-293.5 1337.3105,-275.5 1223.6445,-275.5"/>
<text text-anchor="middle" x="1280.4775" y="-281.5" font-family="Helvetica,sans-Serif" font-size="10.00" fill="#000000">dji_circular_buffer.hpp</text>
</a>
</g>
</g>
<!-- Node4&#45;&gt;Node14 -->
<g id="edge18" class="edge">
<title>Node4&#45;&gt;Node14</title>
<path fill="none" stroke="#191970" d="M938.8291,-333.5618C1004.6383,-324.1114 1133.8458,-305.5568 1213.1363,-294.1704"/>
<polygon fill="#191970" stroke="#191970" points="1214.1032,-297.5676 1223.5041,-292.6816 1213.1081,-290.6386 1214.1032,-297.5676"/>
</g>
<!-- Node15 -->
<g id="node16" class="node">
<title>Node15</title>
<g id="a_node16"><a xlink:href="dji__control_8hpp.html" target="_top" xlink:title="Control API for DJI OSDK library.">
<polygon fill="#ffffff" stroke="#000000" points="712.9556,-275.5 712.9556,-293.5 793.9995,-293.5 793.9995,-275.5 712.9556,-275.5"/>
<text text-anchor="middle" x="753.4775" y="-281.5" font-family="Helvetica,sans-Serif" font-size="10.00" fill="#000000">dji_control.hpp</text>
</a>
</g>
</g>
<!-- Node4&#45;&gt;Node15 -->
<g id="edge20" class="edge">
<title>Node4&#45;&gt;Node15</title>
<path fill="none" stroke="#191970" d="M873.6989,-330.4179C850.0404,-321.3817 813.5263,-307.4353 786.9451,-297.2828"/>
<polygon fill="#191970" stroke="#191970" points="787.8822,-293.8941 777.2915,-293.5956 785.3845,-300.4334 787.8822,-293.8941"/>
</g>
<!-- Node18 -->
<g id="node19" class="node">
<title>Node18</title>
<g id="a_node19"><a xlink:href="dji__version_8hpp.html" target="_top" xlink:title="Drone/SDK Version definition for DJI onboardSDK library.">
<polygon fill="#ffffff" stroke="#000000" points="850.8447,-165.5 850.8447,-183.5 934.1104,-183.5 934.1104,-165.5 850.8447,-165.5"/>
<text text-anchor="middle" x="892.4775" y="-171.5" font-family="Helvetica,sans-Serif" font-size="10.00" fill="#000000">dji_version.hpp</text>
</a>
</g>
</g>
<!-- Node4&#45;&gt;Node18 -->
<g id="edge64" class="edge">
<title>Node4&#45;&gt;Node18</title>
<path fill="none" stroke="#191970" d="M879.739,-330.4258C866.7572,-322.6967 850.1284,-310.259 842.4775,-294 825.5065,-257.9346 855.9998,-214.5295 876.3706,-191.234"/>
<polygon fill="#191970" stroke="#191970" points="879.166,-193.3625 883.311,-183.6121 873.9903,-188.6495 879.166,-193.3625"/>
</g>
<!-- Node20 -->
<g id="node21" class="node">
<title>Node20</title>
<g id="a_node21"><a xlink:href="dji__gimbal_8hpp.html" target="_top" xlink:title="Gimbal API for OSDK library.">
<polygon fill="#ffffff" stroke="#000000" points="1555.2339,-165.5 1555.2339,-183.5 1635.7212,-183.5 1635.7212,-165.5 1555.2339,-165.5"/>
<text text-anchor="middle" x="1595.4775" y="-171.5" font-family="Helvetica,sans-Serif" font-size="10.00" fill="#000000">dji_gimbal.hpp</text>
</a>
</g>
</g>
<!-- Node4&#45;&gt;Node20 -->
<g id="edge33" class="edge">
<title>Node4&#45;&gt;Node20</title>
<path fill="none" stroke="#191970" d="M938.7978,-339.1025C1118.0152,-337.1805 1820.5128,-327.524 1852.4775,-294 1918.1804,-225.0923 1737.7363,-192.0811 1645.7071,-180.0691"/>
<polygon fill="#191970" stroke="#191970" points="1646.1086,-176.5921 1635.7476,-178.806 1645.2278,-183.5365 1646.1086,-176.5921"/>
</g>
<!-- Node21 -->
<g id="node22" class="node">
<title>Node21</title>
<g id="a_node22"><a xlink:title=" ">
<polygon fill="#ffffff" stroke="#bfbfbf" points="1354.9458,-275.5 1354.9458,-293.5 1456.0093,-293.5 1456.0093,-275.5 1354.9458,-275.5"/>
<text text-anchor="middle" x="1405.4775" y="-281.5" font-family="Helvetica,sans-Serif" font-size="10.00" fill="#000000">dji_hard_driver.hpp</text>
</a>
</g>
</g>
<!-- Node4&#45;&gt;Node21 -->
<g id="edge36" class="edge">
<title>Node4&#45;&gt;Node21</title>
<path fill="none" stroke="#191970" d="M938.7376,-336.134C1016.2436,-329.6344 1189.1008,-314.3027 1344.4504,-294.2076"/>
<polygon fill="#191970" stroke="#191970" points="1345.1928,-297.6405 1354.6565,-292.8771 1344.2879,-290.6992 1345.1928,-297.6405"/>
</g>
<!-- Node22 -->
<g id="node23" class="node">
<title>Node22</title>
<g id="a_node23"><a xlink:href="dji__hardware__sync_8hpp.html" target="_top" xlink:title="Hardware Sync API for DJI OSDK.">
<polygon fill="#ffffff" stroke="#000000" points="1051.0566,-220.5 1051.0566,-238.5 1169.8984,-238.5 1169.8984,-220.5 1051.0566,-220.5"/>
<text text-anchor="middle" x="1110.4775" y="-226.5" font-family="Helvetica,sans-Serif" font-size="10.00" fill="#000000">dji_hardware_sync.hpp</text>
</a>
</g>
</g>
<!-- Node4&#45;&gt;Node22 -->
<g id="edge37" class="edge">
<title>Node4&#45;&gt;Node22</title>
<path fill="none" stroke="#191970" d="M908.6431,-330.4001C925.5462,-316.9472 959.0045,-291.5617 990.4775,-275 1016.184,-261.4728 1046.8307,-249.9228 1070.7183,-241.8445"/>
<polygon fill="#191970" stroke="#191970" points="1072.1172,-245.0681 1080.5079,-238.5993 1069.9146,-238.4237 1072.1172,-245.0681"/>
</g>
<!-- Node23 -->
<g id="node24" class="node">
<title>Node23</title>
<g id="a_node24"><a xlink:href="dji__mfio_8hpp.html" target="_top" xlink:title="MFIO API for DJI OSDK library.">
<polygon fill="#ffffff" stroke="#000000" points="292.5171,-220.5 292.5171,-238.5 362.438,-238.5 362.438,-220.5 292.5171,-220.5"/>
<text text-anchor="middle" x="327.4775" y="-226.5" font-family="Helvetica,sans-Serif" font-size="10.00" fill="#000000">dji_mfio.hpp</text>
</a>
</g>
</g>
<!-- Node4&#45;&gt;Node23 -->
<g id="edge39" class="edge">
<title>Node4&#45;&gt;Node23</title>
<path fill="none" stroke="#191970" d="M856.1883,-336.8508C763.2594,-330.6103 540.1273,-313.995 467.4775,-294 424.7788,-282.2483 378.7807,-258.7366 351.592,-243.5801"/>
<polygon fill="#191970" stroke="#191970" points="353.2222,-240.4811 342.7956,-238.6004 349.7737,-246.5727 353.2222,-240.4811"/>
</g>
<!-- Node24 -->
<g id="node25" class="node">
<title>Node24</title>
<g id="a_node25"><a xlink:href="dji__mission__manager_8hpp.html" target="_top" xlink:title="Mission&#45;Manager API for DJI OSDK library.">
<polygon fill="#ffffff" stroke="#000000" points="999.7734,-275.5 999.7734,-293.5 1129.1816,-293.5 1129.1816,-275.5 999.7734,-275.5"/>
<text text-anchor="middle" x="1064.4775" y="-281.5" font-family="Helvetica,sans-Serif" font-size="10.00" fill="#000000">dji_mission_manager.hpp</text>
</a>
</g>
</g>
<!-- Node4&#45;&gt;Node24 -->
<g id="edge41" class="edge">
<title>Node4&#45;&gt;Node24</title>
<path fill="none" stroke="#191970" d="M925.0542,-330.4179C953.0585,-321.1949 996.5945,-306.8567 1027.5608,-296.6582"/>
<polygon fill="#191970" stroke="#191970" points="1028.7342,-299.9568 1037.1375,-293.5042 1026.5445,-293.3081 1028.7342,-299.9568"/>
</g>
<!-- Node28 -->
<g id="node29" class="node">
<title>Node28</title>
<g id="a_node29"><a xlink:href="dji__mobile__communication_8hpp.html" target="_top" xlink:title="Implementation of DJI Mobile&#45;Onboard SDK Communication (MOC)">
<polygon fill="#ffffff" stroke="#000000" points="187.8276,-275.5 187.8276,-293.5 341.1274,-293.5 341.1274,-275.5 187.8276,-275.5"/>
<text text-anchor="middle" x="264.4775" y="-281.5" font-family="Helvetica,sans-Serif" font-size="10.00" fill="#000000">dji_mobile_communication.hpp</text>
</a>
</g>
</g>
<!-- Node4&#45;&gt;Node28 -->
<g id="edge50" class="edge">
<title>Node4&#45;&gt;Node28</title>
<path fill="none" stroke="#191970" d="M856.2969,-335.9492C767.762,-328.3111 552.7083,-309.7368 372.4775,-294 365.6744,-293.406 358.6304,-292.7895 351.5504,-292.1689"/>
<polygon fill="#191970" stroke="#191970" points="351.4431,-288.6462 341.1754,-291.2588 350.8313,-295.6194 351.4431,-288.6462"/>
</g>
<!-- Node30 -->
<g id="node31" class="node">
<title>Node30</title>
<g id="a_node31"><a xlink:title=" ">
<polygon fill="#ffffff" stroke="#bfbfbf" points="1473.6602,-275.5 1473.6602,-293.5 1605.2949,-293.5 1605.2949,-275.5 1473.6602,-275.5"/>
<text text-anchor="middle" x="1539.4775" y="-281.5" font-family="Helvetica,sans-Serif" font-size="10.00" fill="#000000">dji_platform_manager.hpp</text>
</a>
</g>
</g>
<!-- Node4&#45;&gt;Node30 -->
<g id="edge55" class="edge">
<title>Node4&#45;&gt;Node30</title>
<path fill="none" stroke="#191970" d="M938.8755,-336.8639C1031.145,-330.8422 1260.8923,-315.0382 1463.1138,-294.2099"/>
<polygon fill="#191970" stroke="#191970" points="1463.7453,-297.6632 1473.3311,-293.1507 1463.0235,-290.7006 1463.7453,-297.6632"/>
</g>
<!-- Node31 -->
<g id="node32" class="node">
<title>Node31</title>
<g id="a_node32"><a xlink:href="dji__status_8hpp.html" target="_top" xlink:title="Status information for DJI Vehicle.">
<polygon fill="#ffffff" stroke="#000000" points="1623.623,-275.5 1623.623,-293.5 1701.332,-293.5 1701.332,-275.5 1623.623,-275.5"/>
<text text-anchor="middle" x="1662.4775" y="-281.5" font-family="Helvetica,sans-Serif" font-size="10.00" fill="#000000">dji_status.hpp</text>
</a>
</g>
</g>
<!-- Node4&#45;&gt;Node31 -->
<g id="edge56" class="edge">
<title>Node4&#45;&gt;Node31</title>
<path fill="none" stroke="#191970" d="M938.8839,-338.7818C1047.7743,-336.4863 1351.2277,-327.4649 1613.4224,-293.9627"/>
<polygon fill="#191970" stroke="#191970" points="1614.0469,-297.4112 1623.5158,-292.6582 1613.1496,-290.4689 1614.0469,-297.4112"/>
</g>
<!-- Node32 -->
<g id="node33" class="node">
<title>Node32</title>
<g id="a_node33"><a xlink:href="dji__subscription_8hpp.html" target="_top" xlink:title="Telemetry Subscription API for DJI OSDK library.">
<polygon fill="#ffffff" stroke="#000000" points="380.2832,-220.5 380.2832,-238.5 484.6719,-238.5 484.6719,-220.5 380.2832,-220.5"/>
<text text-anchor="middle" x="432.4775" y="-226.5" font-family="Helvetica,sans-Serif" font-size="10.00" fill="#000000">dji_subscription.hpp</text>
</a>
</g>
</g>
<!-- Node4&#45;&gt;Node32 -->
<g id="edge57" class="edge">
<title>Node4&#45;&gt;Node32</title>
<path fill="none" stroke="#191970" d="M856.2622,-338.1667C767.4789,-334.756 561.1307,-323.7815 498.4775,-294 476.221,-283.4206 456.8835,-262.2698 444.9918,-247.0699"/>
<polygon fill="#191970" stroke="#191970" points="447.6869,-244.83 438.8849,-238.933 442.0883,-249.0319 447.6869,-244.83"/>
</g>
<!-- Node33 -->
<g id="node34" class="node">
<title>Node33</title>
<g id="a_node34"><a xlink:title=" ">
<polygon fill="#ffffff" stroke="#bfbfbf" points="1719.5444,-275.5 1719.5444,-293.5 1843.4106,-293.5 1843.4106,-275.5 1719.5444,-275.5"/>
<text text-anchor="middle" x="1781.4775" y="-281.5" font-family="Helvetica,sans-Serif" font-size="10.00" fill="#000000">dji_thread_manager.hpp</text>
</a>
</g>
</g>
<!-- Node4&#45;&gt;Node33 -->
<g id="edge61" class="edge">
<title>Node4&#45;&gt;Node33</title>
<path fill="none" stroke="#191970" d="M938.5921,-338.3198C1056.6978,-334.6913 1407.2887,-322.2511 1708.9124,-294.0793"/>
<polygon fill="#191970" stroke="#191970" points="1709.5428,-297.5355 1719.1706,-293.1133 1708.8864,-290.5663 1709.5428,-297.5355"/>
</g>
<!-- Node34 -->
<g id="node35" class="node">
<title>Node34</title>
<g id="a_node35"><a xlink:href="dji__virtual__rc_8hpp.html" target="_top" xlink:title="Virtual Radio Control API for DJI onboardSDK library.">
<polygon fill="#ffffff" stroke="#000000" points="851.6797,-275.5 851.6797,-293.5 943.2754,-293.5 943.2754,-275.5 851.6797,-275.5"/>
<text text-anchor="middle" x="897.4775" y="-281.5" font-family="Helvetica,sans-Serif" font-size="10.00" fill="#000000">dji_virtual_rc.hpp</text>
</a>
</g>
</g>
<!-- Node4&#45;&gt;Node34 -->
<g id="edge65" class="edge">
<title>Node4&#45;&gt;Node34</title>
<path fill="none" stroke="#191970" d="M897.4775,-330.4179C897.4775,-323.2164 897.4775,-312.8962 897.4775,-303.8632"/>
<polygon fill="#191970" stroke="#191970" points="900.9776,-303.7794 897.4775,-293.7795 893.9776,-303.7795 900.9776,-303.7794"/>
</g>
<!-- Node6&#45;&gt;Node2 -->
<g id="edge11" class="edge">
<title>Node6&#45;&gt;Node2</title>
<path fill="none" stroke="#191970" d="M603.4641,-220.4982C555.8788,-201.0396 443.2847,-154.9974 388.0898,-132.4269"/>
<polygon fill="#191970" stroke="#191970" points="389.3759,-129.1716 378.7951,-128.6261 386.7264,-135.6508 389.3759,-129.1716"/>
</g>
<!-- Node7 -->
<g id="node8" class="node">
<title>Node7</title>
<g id="a_node8"><a xlink:href="dji__telemetry_8hpp.html" target="_top" xlink:title="Enumeration of all telemetry data types, structures and maps.">
<polygon fill="#ffffff" stroke="#000000" points="664.77,-165.5 664.77,-183.5 756.1851,-183.5 756.1851,-165.5 664.77,-165.5"/>
<text text-anchor="middle" x="710.4775" y="-171.5" font-family="Helvetica,sans-Serif" font-size="10.00" fill="#000000">dji_telemetry.hpp</text>
</a>
</g>
</g>
<!-- Node6&#45;&gt;Node7 -->
<g id="edge7" class="edge">
<title>Node6&#45;&gt;Node7</title>
<path fill="none" stroke="#191970" d="M639.5136,-220.4179C652.6789,-211.8992 672.5883,-199.0166 687.9715,-189.0627"/>
<polygon fill="#191970" stroke="#191970" points="689.9263,-191.9667 696.4207,-183.5956 686.1236,-186.0897 689.9263,-191.9667"/>
</g>
<!-- Node7&#45;&gt;Node8 -->
<g id="edge8" class="edge">
<title>Node7&#45;&gt;Node8</title>
<path fill="none" stroke="#191970" d="M756.3022,-166.978C761.0837,-166.2729 765.8759,-165.5991 770.4775,-165 916.2209,-146.0257 1089.6781,-130.239 1170.2216,-123.2968"/>
<polygon fill="#191970" stroke="#191970" points="1170.8331,-126.7573 1180.4975,-122.4157 1170.235,-119.7829 1170.8331,-126.7573"/>
</g>
<!-- Node9 -->
<g id="node10" class="node">
<title>Node9</title>
<g id="a_node10"><a xlink:title=" ">
<polygon fill="#ffffff" stroke="#bfbfbf" points="1187.416,-55.5 1187.416,-73.5 1229.5391,-73.5 1229.5391,-55.5 1187.416,-55.5"/>
<text text-anchor="middle" x="1208.4775" y="-61.5" font-family="Helvetica,sans-Serif" font-size="10.00" fill="#000000">cstdio</text>
</a>
</g>
</g>
<!-- Node8&#45;&gt;Node9 -->
<g id="edge9" class="edge">
<title>Node8&#45;&gt;Node9</title>
<path fill="none" stroke="#191970" d="M1214.3216,-110.4179C1213.4051,-103.2164 1212.0916,-92.8962 1210.9419,-83.8632"/>
<polygon fill="#191970" stroke="#191970" points="1214.3932,-83.2575 1209.6586,-73.7795 1207.4492,-84.1414 1214.3932,-83.2575"/>
</g>
<!-- Node10 -->
<g id="node11" class="node">
<title>Node10</title>
<g id="a_node11"><a xlink:title=" ">
<polygon fill="#ffffff" stroke="#bfbfbf" points="1271.3569,-.5 1271.3569,-18.5 1319.5981,-18.5 1319.5981,-.5 1271.3569,-.5"/>
<text text-anchor="middle" x="1295.4775" y="-6.5" font-family="Helvetica,sans-Serif" font-size="10.00" fill="#000000">stdint.h</text>
</a>
</g>
</g>
<!-- Node8&#45;&gt;Node10 -->
<g id="edge10" class="edge">
<title>Node8&#45;&gt;Node10</title>
<path fill="none" stroke="#191970" d="M1222.0243,-110.4982C1235.3264,-92.2079 1265.71,-50.4304 1282.9427,-26.7354"/>
<polygon fill="#191970" stroke="#191970" points="1285.7892,-28.7721 1288.8403,-18.6261 1280.128,-24.6549 1285.7892,-28.7721"/>
</g>
<!-- Node11&#45;&gt;Node8 -->
<g id="edge17" class="edge">
<title>Node11&#45;&gt;Node8</title>
<path fill="none" stroke="#191970" d="M1453.2555,-166.2064C1401.2997,-156.0008 1313.4586,-138.7463 1260.3264,-128.3096"/>
<polygon fill="#191970" stroke="#191970" points="1260.992,-124.8735 1250.5049,-126.3804 1259.6427,-131.7423 1260.992,-124.8735"/>
</g>
<!-- Node11&#45;&gt;Node12 -->
<g id="edge13" class="edge">
<title>Node11&#45;&gt;Node12</title>
<path fill="none" stroke="#191970" d="M1470.7081,-165.4179C1445.8812,-156.3147 1407.4637,-142.2283 1379.7256,-132.0576"/>
<polygon fill="#191970" stroke="#191970" points="1380.6282,-128.6608 1370.0345,-128.5042 1378.2183,-135.2329 1380.6282,-128.6608"/>
</g>
<!-- Node12&#45;&gt;Node10 -->
<g id="edge16" class="edge">
<title>Node12&#45;&gt;Node10</title>
<path fill="none" stroke="#191970" d="M1337.9038,-110.2648C1330.9749,-101.4244 1320.8595,-87.4765 1314.4775,-74 1307.5296,-59.3283 1302.5235,-41.5637 1299.3999,-28.3956"/>
<polygon fill="#191970" stroke="#191970" points="1302.8054,-27.5858 1297.2174,-18.5844 1295.9724,-29.1058 1302.8054,-27.5858"/>
</g>
<!-- Node13 -->
<g id="node14" class="node">
<title>Node13</title>
<g id="a_node14"><a xlink:href="dji__error_8hpp.html" target="_top" xlink:title="All DJI OSDK OpenProtocol ACK Error Codes.">
<polygon fill="#ffffff" stroke="#000000" points="1323.6797,-55.5 1323.6797,-73.5 1395.2754,-73.5 1395.2754,-55.5 1323.6797,-55.5"/>
<text text-anchor="middle" x="1359.4775" y="-61.5" font-family="Helvetica,sans-Serif" font-size="10.00" fill="#000000">dji_error.hpp</text>
</a>
</g>
</g>
<!-- Node12&#45;&gt;Node13 -->
<g id="edge14" class="edge">
<title>Node12&#45;&gt;Node13</title>
<path fill="none" stroke="#191970" d="M1347.7894,-110.4179C1349.6426,-103.1372 1352.3073,-92.669 1354.6244,-83.5659"/>
<polygon fill="#191970" stroke="#191970" points="1358.0405,-84.3338 1357.1155,-73.7795 1351.2568,-82.607 1358.0405,-84.3338"/>
</g>
<!-- Node13&#45;&gt;Node10 -->
<g id="edge15" class="edge">
<title>Node13&#45;&gt;Node10</title>
<path fill="none" stroke="#191970" d="M1348.9092,-55.4179C1339.4243,-47.2667 1325.2901,-35.1201 1313.9409,-25.3669"/>
<polygon fill="#191970" stroke="#191970" points="1316.1409,-22.6427 1306.2755,-18.7795 1311.5785,-27.9516 1316.1409,-22.6427"/>
</g>
<!-- Node15&#45;&gt;Node2 -->
<g id="edge32" class="edge">
<title>Node15&#45;&gt;Node2</title>
<path fill="none" stroke="#191970" d="M745.5672,-275.2245C733.2286,-261.3113 708.046,-235.0675 681.4775,-220 597.0635,-172.1271 487.1198,-144.3054 419.1958,-130.5175"/>
<polygon fill="#191970" stroke="#191970" points="419.5673,-127.0229 409.0766,-128.5042 418.2014,-133.8883 419.5673,-127.0229"/>
</g>
<!-- Node15&#45;&gt;Node3 -->
<g id="edge30" class="edge">
<title>Node15&#45;&gt;Node3</title>
<path fill="none" stroke="#191970" d="M748.5578,-275.3874C741.1077,-262.1416 725.9644,-237.2696 708.4775,-220 688.2167,-199.9909 676.75,-202.93 655.4775,-184 622.994,-155.0935 626.6155,-135.6143 591.4775,-110 571.622,-95.526 546.4576,-84.5295 525.5219,-76.9758"/>
<polygon fill="#191970" stroke="#191970" points="526.5259,-73.6195 515.9311,-73.6459 524.2299,-80.2323 526.5259,-73.6195"/>
</g>
<!-- Node15&#45;&gt;Node8 -->
<g id="edge31" class="edge">
<title>Node15&#45;&gt;Node8</title>
<path fill="none" stroke="#191970" d="M757.1331,-275.3328C766.8747,-252.2421 795.8674,-191.6356 841.4775,-165 896.365,-132.9467 1083.4692,-123.3377 1170.4035,-120.5686"/>
<polygon fill="#191970" stroke="#191970" points="1170.6034,-124.0642 1180.4931,-120.2637 1170.3919,-117.0674 1170.6034,-124.0642"/>
</g>
<!-- Node16 -->
<g id="node17" class="node">
<title>Node16</title>
<g id="a_node17"><a xlink:href="dji__ack_8hpp.html" target="_top" xlink:title="All DJI OSDK ACK parsing.">
<polygon fill="#ffffff" stroke="#000000" points="929.1821,-220.5 929.1821,-238.5 995.7729,-238.5 995.7729,-220.5 929.1821,-220.5"/>
<text text-anchor="middle" x="962.4775" y="-226.5" font-family="Helvetica,sans-Serif" font-size="10.00" fill="#000000">dji_ack.hpp</text>
</a>
</g>
</g>
<!-- Node15&#45;&gt;Node16 -->
<g id="edge21" class="edge">
<title>Node15&#45;&gt;Node16</title>
<path fill="none" stroke="#191970" d="M787.9896,-275.4179C823.8567,-265.9792 880.0815,-251.1832 918.9694,-240.9495"/>
<polygon fill="#191970" stroke="#191970" points="920.1724,-244.2522 928.9524,-238.3224 918.3909,-237.4826 920.1724,-244.2522"/>
</g>
<!-- Node16&#45;&gt;Node8 -->
<g id="edge25" class="edge">
<title>Node16&#45;&gt;Node8</title>
<path fill="none" stroke="#191970" d="M970.2865,-220.0399C982.4928,-205.8857 1007.5048,-179.3313 1034.4775,-165 1077.3705,-142.2099 1132.0934,-130.5086 1170.084,-124.7241"/>
<polygon fill="#191970" stroke="#191970" points="1170.9344,-128.1377 1180.3319,-123.2452 1169.9345,-121.2095 1170.9344,-128.1377"/>
</g>
<!-- Node16&#45;&gt;Node12 -->
<g id="edge22" class="edge">
<title>Node16&#45;&gt;Node12</title>
<path fill="none" stroke="#191970" d="M996.0421,-223.0948C1036.0202,-215.1834 1104.6626,-200.705 1162.4775,-184 1216.02,-168.5295 1276.7895,-146.1158 1313.0819,-132.1948"/>
<polygon fill="#191970" stroke="#191970" points="1314.5727,-135.3711 1322.6428,-128.5064 1312.0532,-128.8403 1314.5727,-135.3711"/>
</g>
<!-- Node17 -->
<g id="node18" class="node">
<title>Node17</title>
<g id="a_node18"><a xlink:href="dji__mission__type_8hpp.html" target="_top" xlink:title="Mission related data struct for DJI OSDK library.">
<polygon fill="#ffffff" stroke="#000000" points="1043.7832,-165.5 1043.7832,-183.5 1153.1719,-183.5 1153.1719,-165.5 1043.7832,-165.5"/>
<text text-anchor="middle" x="1098.4775" y="-171.5" font-family="Helvetica,sans-Serif" font-size="10.00" fill="#000000">dji_mission_type.hpp</text>
</a>
</g>
</g>
<!-- Node16&#45;&gt;Node17 -->
<g id="edge23" class="edge">
<title>Node16&#45;&gt;Node17</title>
<path fill="none" stroke="#191970" d="M984.9352,-220.4179C1007.1808,-211.4215 1041.4612,-197.5581 1066.5369,-187.4172"/>
<polygon fill="#191970" stroke="#191970" points="1068.0282,-190.5895 1075.9865,-183.5956 1065.4037,-184.1001 1068.0282,-190.5895"/>
</g>
<!-- Node16&#45;&gt;Node18 -->
<g id="edge26" class="edge">
<title>Node16&#45;&gt;Node18</title>
<path fill="none" stroke="#191970" d="M950.9185,-220.4179C940.4435,-212.1876 924.7843,-199.8839 912.3111,-190.0836"/>
<polygon fill="#191970" stroke="#191970" points="914.3133,-187.2056 904.2878,-183.7795 909.9886,-192.7098 914.3133,-187.2056"/>
</g>
<!-- Node19 -->
<g id="node20" class="node">
<title>Node19</title>
<g id="a_node20"><a xlink:title=" ">
<polygon fill="#ffffff" stroke="#bfbfbf" points="951.751,-165.5 951.751,-183.5 987.2041,-183.5 987.2041,-165.5 951.751,-165.5"/>
<text text-anchor="middle" x="969.4775" y="-171.5" font-family="Helvetica,sans-Serif" font-size="10.00" fill="#000000">map</text>
</a>
</g>
</g>
<!-- Node16&#45;&gt;Node19 -->
<g id="edge29" class="edge">
<title>Node16&#45;&gt;Node19</title>
<path fill="none" stroke="#191970" d="M963.6334,-220.4179C964.55,-213.2164 965.8635,-202.8962 967.0131,-193.8632"/>
<polygon fill="#191970" stroke="#191970" points="970.5059,-194.1414 968.2965,-183.7795 963.5619,-193.2575 970.5059,-194.1414"/>
</g>
<!-- Node17&#45;&gt;Node8 -->
<g id="edge24" class="edge">
<title>Node17&#45;&gt;Node8</title>
<path fill="none" stroke="#191970" d="M1117.7977,-165.4179C1136.5968,-156.5807 1165.3861,-143.0473 1186.8464,-132.9591"/>
<polygon fill="#191970" stroke="#191970" points="1188.5677,-136.0174 1196.1287,-128.5956 1185.5897,-129.6824 1188.5677,-136.0174"/>
</g>
<!-- Node18&#45;&gt;Node5 -->
<g id="edge28" class="edge">
<title>Node18&#45;&gt;Node5</title>
<path fill="none" stroke="#191970" d="M850.7657,-167.5899C783.8986,-156.5125 654.0761,-135.0058 593.3208,-124.9409"/>
<polygon fill="#191970" stroke="#191970" points="593.5904,-121.4379 583.1528,-123.2564 592.4463,-128.3438 593.5904,-121.4379"/>
</g>
<!-- Node18&#45;&gt;Node12 -->
<g id="edge27" class="edge">
<title>Node18&#45;&gt;Node12</title>
<path fill="none" stroke="#191970" d="M934.1792,-166.3334C936.9836,-165.8593 939.7692,-165.4096 942.4775,-165 959.296,-162.4565 1180.4064,-137.8211 1287.7653,-125.8998"/>
<polygon fill="#191970" stroke="#191970" points="1288.2364,-129.3691 1297.7891,-124.7869 1287.4639,-122.4118 1288.2364,-129.3691"/>
</g>
<!-- Node20&#45;&gt;Node8 -->
<g id="edge35" class="edge">
<title>Node20&#45;&gt;Node8</title>
<path fill="none" stroke="#191970" d="M1555.1324,-166.496C1552.2068,-165.9715 1549.2987,-165.467 1546.4775,-165 1492.3943,-156.047 1337.7334,-135.5108 1260.4976,-125.3766"/>
<polygon fill="#191970" stroke="#191970" points="1260.9489,-121.9059 1250.5788,-124.0765 1260.0391,-128.8466 1260.9489,-121.9059"/>
</g>
<!-- Node20&#45;&gt;Node12 -->
<g id="edge34" class="edge">
<title>Node20&#45;&gt;Node12</title>
<path fill="none" stroke="#191970" d="M1555.0329,-165.6022C1511.9025,-156.1135 1443.4885,-141.0624 1396.6413,-130.756"/>
<polygon fill="#191970" stroke="#191970" points="1397.2144,-127.2985 1386.6959,-128.568 1395.7103,-134.135 1397.2144,-127.2985"/>
</g>
<!-- Node22&#45;&gt;Node8 -->
<g id="edge38" class="edge">
<title>Node22&#45;&gt;Node8</title>
<path fill="none" stroke="#191970" d="M1139.4468,-220.453C1157.9039,-213.3007 1180.9875,-201.5567 1195.4775,-184 1206.0768,-171.1575 1211.0712,-152.7113 1213.4174,-138.8325"/>
<polygon fill="#191970" stroke="#191970" points="1216.8916,-139.2593 1214.7877,-128.8754 1209.9569,-138.3048 1216.8916,-139.2593"/>
</g>
<!-- Node23&#45;&gt;Node2 -->
<g id="edge40" class="edge">
<title>Node23&#45;&gt;Node2</title>
<path fill="none" stroke="#191970" d="M329.8507,-220.4982C334.5665,-202.6108 345.2046,-162.2594 351.514,-138.3271"/>
<polygon fill="#191970" stroke="#191970" points="354.9066,-139.188 354.0716,-128.6261 348.1379,-137.4035 354.9066,-139.188"/>
</g>
<!-- Node25 -->
<g id="node26" class="node">
<title>Node25</title>
<g id="a_node26"><a xlink:href="dji__hotpoint_8hpp.html" target="_top" xlink:title="Implementation of HotPoint (Point of Interest) Missions for DJI OSDK.">
<polygon fill="#ffffff" stroke="#000000" points="1188.1699,-220.5 1188.1699,-238.5 1274.7852,-238.5 1274.7852,-220.5 1188.1699,-220.5"/>
<text text-anchor="middle" x="1231.4775" y="-226.5" font-family="Helvetica,sans-Serif" font-size="10.00" fill="#000000">dji_hotpoint.hpp</text>
</a>
</g>
</g>
<!-- Node24&#45;&gt;Node25 -->
<g id="edge42" class="edge">
<title>Node24&#45;&gt;Node25</title>
<path fill="none" stroke="#191970" d="M1092.0542,-275.4179C1120.0585,-266.1949 1163.5945,-251.8567 1194.5608,-241.6582"/>
<polygon fill="#191970" stroke="#191970" points="1195.7342,-244.9568 1204.1375,-238.5042 1193.5445,-238.3081 1195.7342,-244.9568"/>
</g>
<!-- Node27 -->
<g id="node28" class="node">
<title>Node27</title>
<g id="a_node28"><a xlink:href="dji__waypoint_8hpp.html" target="_top" xlink:title="Implementation of GPS Waypoint Missions for DJI OSDK.">
<polygon fill="#ffffff" stroke="#000000" points="1293.229,-220.5 1293.229,-238.5 1383.7261,-238.5 1383.7261,-220.5 1293.229,-220.5"/>
<text text-anchor="middle" x="1338.4775" y="-226.5" font-family="Helvetica,sans-Serif" font-size="10.00" fill="#000000">dji_waypoint.hpp</text>
</a>
</g>
</g>
<!-- Node24&#45;&gt;Node27 -->
<g id="edge48" class="edge">
<title>Node24&#45;&gt;Node27</title>
<path fill="none" stroke="#191970" d="M1109.4162,-275.4795C1157.098,-265.9083 1232.4709,-250.7787 1283.6223,-240.5111"/>
<polygon fill="#191970" stroke="#191970" points="1284.3987,-243.9251 1293.5143,-238.5255 1283.021,-237.062 1284.3987,-243.9251"/>
</g>
<!-- Node25&#45;&gt;Node7 -->
<g id="edge47" class="edge">
<title>Node25&#45;&gt;Node7</title>
<path fill="none" stroke="#191970" d="M1188.137,-221.4385C1184.8731,-220.9212 1181.626,-220.4345 1178.4775,-220 1030.2938,-199.5498 854.4611,-185.0633 766.4864,-178.4809"/>
<polygon fill="#191970" stroke="#191970" points="766.6887,-174.9864 756.457,-177.7363 766.1704,-181.9672 766.6887,-174.9864"/>
</g>
<!-- Node26 -->
<g id="node27" class="node">
<title>Node26</title>
<g id="a_node27"><a xlink:href="dji__mission__base_8hpp.html" target="_top" xlink:title="Mission&#45;Base abstract class for DJI OSDK library.">
<polygon fill="#ffffff" stroke="#000000" points="1285.3916,-165.5 1285.3916,-183.5 1397.5635,-183.5 1397.5635,-165.5 1285.3916,-165.5"/>
<text text-anchor="middle" x="1341.4775" y="-171.5" font-family="Helvetica,sans-Serif" font-size="10.00" fill="#000000">dji_mission_base.hpp</text>
</a>
</g>
</g>
<!-- Node25&#45;&gt;Node26 -->
<g id="edge43" class="edge">
<title>Node25&#45;&gt;Node26</title>
<path fill="none" stroke="#191970" d="M1249.6418,-220.4179C1267.2365,-211.6205 1294.1393,-198.1691 1314.2863,-188.0956"/>
<polygon fill="#191970" stroke="#191970" points="1315.9073,-191.1983 1323.2863,-183.5956 1312.7767,-184.9373 1315.9073,-191.1983"/>
</g>
<!-- Node26&#45;&gt;Node2 -->
<g id="edge46" class="edge">
<title>Node26&#45;&gt;Node2</title>
<path fill="none" stroke="#191970" d="M1285.3401,-171.3654C1116.9242,-161.9615 616.0482,-133.9938 428.4695,-123.5199"/>
<polygon fill="#191970" stroke="#191970" points="428.6176,-120.0228 418.438,-122.9597 428.2273,-127.0119 428.6176,-120.0228"/>
</g>
<!-- Node26&#45;&gt;Node8 -->
<g id="edge45" class="edge">
<title>Node26&#45;&gt;Node8</title>
<path fill="none" stroke="#191970" d="M1320.6712,-165.4179C1300.2436,-156.5011 1268.8627,-142.803 1245.6883,-132.6873"/>
<polygon fill="#191970" stroke="#191970" points="1246.8799,-129.3885 1236.3148,-128.5956 1244.0795,-135.804 1246.8799,-129.3885"/>
</g>
<!-- Node26&#45;&gt;Node12 -->
<g id="edge44" class="edge">
<title>Node26&#45;&gt;Node12</title>
<path fill="none" stroke="#191970" d="M1342.1381,-165.4179C1342.6618,-158.2164 1343.4124,-147.8962 1344.0693,-138.8632"/>
<polygon fill="#191970" stroke="#191970" points="1347.568,-139.007 1344.8027,-128.7795 1340.5864,-138.4992 1347.568,-139.007"/>
</g>
<!-- Node27&#45;&gt;Node26 -->
<g id="edge49" class="edge">
<title>Node27&#45;&gt;Node26</title>
<path fill="none" stroke="#191970" d="M1338.9729,-220.4179C1339.3657,-213.2164 1339.9287,-202.8962 1340.4214,-193.8632"/>
<polygon fill="#191970" stroke="#191970" points="1343.9215,-193.9553 1340.9714,-183.7795 1336.9318,-193.574 1343.9215,-193.9553"/>
</g>
<!-- Node28&#45;&gt;Node2 -->
<g id="edge52" class="edge">
<title>Node28&#45;&gt;Node2</title>
<path fill="none" stroke="#191970" d="M266.1389,-275.3777C268.7006,-262.5441 274.3023,-238.6437 283.4775,-220 299.167,-188.1198 324.9001,-155.6456 341.2491,-136.548"/>
<polygon fill="#191970" stroke="#191970" points="344.1002,-138.6038 348.0307,-128.765 338.8225,-134.0052 344.1002,-138.6038"/>
</g>
<!-- Node29 -->
<g id="node30" class="node">
<title>Node29</title>
<g id="a_node30"><a xlink:title=" ">
<polygon fill="#ffffff" stroke="#bfbfbf" points="152.5713,-220.5 152.5713,-238.5 236.3838,-238.5 236.3838,-220.5 152.5713,-220.5"/>
<text text-anchor="middle" x="194.4775" y="-226.5" font-family="Helvetica,sans-Serif" font-size="10.00" fill="#000000">dji_macros.hpp</text>
</a>
</g>
</g>
<!-- Node28&#45;&gt;Node29 -->
<g id="edge51" class="edge">
<title>Node28&#45;&gt;Node29</title>
<path fill="none" stroke="#191970" d="M252.9185,-275.4179C242.4435,-267.1876 226.7843,-254.8839 214.3111,-245.0836"/>
<polygon fill="#191970" stroke="#191970" points="216.3133,-242.2056 206.2878,-238.7795 211.9886,-247.7098 216.3133,-242.2056"/>
</g>
<!-- Node32&#45;&gt;Node2 -->
<g id="edge60" class="edge">
<title>Node32&#45;&gt;Node2</title>
<path fill="none" stroke="#191970" d="M426.2581,-220.4982C413.6768,-202.2885 385.0107,-160.798 368.6027,-137.0496"/>
<polygon fill="#191970" stroke="#191970" points="371.3468,-134.8639 362.7829,-128.6261 365.5877,-138.843 371.3468,-134.8639"/>
</g>
<!-- Node32&#45;&gt;Node3 -->
<g id="edge58" class="edge">
<title>Node32&#45;&gt;Node3</title>
<path fill="none" stroke="#191970" d="M435.4223,-220.1561C443.7168,-193.837 467.3935,-118.709 478.5393,-83.3426"/>
<polygon fill="#191970" stroke="#191970" points="481.8974,-84.331 481.5651,-73.7414 475.2211,-82.2269 481.8974,-84.331"/>
</g>
<!-- Node32&#45;&gt;Node7 -->
<g id="edge59" class="edge">
<title>Node32&#45;&gt;Node7</title>
<path fill="none" stroke="#191970" d="M478.0723,-220.4795C526.4501,-210.9083 602.9233,-195.7787 654.8215,-185.5111"/>
<polygon fill="#191970" stroke="#191970" points="655.7273,-188.8998 664.8579,-183.5255 654.3687,-182.0329 655.7273,-188.8998"/>
</g>
<!-- Node34&#45;&gt;Node3 -->
<g id="edge67" class="edge">
<title>Node34&#45;&gt;Node3</title>
<path fill="none" stroke="#191970" d="M889.7529,-275.4283C870.7173,-253.5805 819.1849,-197.4565 765.4775,-165 690.8639,-119.9093 592.9359,-90.675 534.5771,-75.9331"/>
<polygon fill="#191970" stroke="#191970" points="535.407,-72.5329 524.8582,-73.5198 533.72,-79.3266 535.407,-72.5329"/>
</g>
<!-- Node34&#45;&gt;Node7 -->
<g id="edge69" class="edge">
<title>Node34&#45;&gt;Node7</title>
<path fill="none" stroke="#191970" d="M882.1745,-275.4982C849.7112,-256.4021 773.7243,-211.704 734.6392,-188.7128"/>
<polygon fill="#191970" stroke="#191970" points="736.3859,-185.6796 725.992,-183.6261 732.8368,-191.7132 736.3859,-185.6796"/>
</g>
<!-- Node34&#45;&gt;Node8 -->
<g id="edge68" class="edge">
<title>Node34&#45;&gt;Node8</title>
<path fill="none" stroke="#191970" d="M919.7847,-275.4833C941.5522,-266.5748 975.525,-252.3785 1004.4775,-239 1021.6184,-231.0795 1024.9251,-226.9609 1042.4775,-220 1094.2375,-199.4732 1116.1231,-214.8498 1162.4775,-184 1180.4911,-172.0116 1195.5199,-152.069 1204.9187,-137.5273"/>
<polygon fill="#191970" stroke="#191970" points="1207.9772,-139.2358 1210.2568,-128.8891 1202.0225,-135.556 1207.9772,-139.2358"/>
</g>
<!-- Node34&#45;&gt;Node16 -->
<g id="edge66" class="edge">
<title>Node34&#45;&gt;Node16</title>
<path fill="none" stroke="#191970" d="M908.211,-275.4179C917.8442,-267.2667 932.1992,-255.1201 943.7257,-245.3669"/>
<polygon fill="#191970" stroke="#191970" points="946.1378,-247.9108 951.5109,-238.7795 941.6162,-242.5671 946.1378,-247.9108"/>
</g>
</g>
</svg>
        <g id="navigator" transform="translate(0 0)" fill="#404254">
                <rect fill="#f2f5e9" fill-opacity="0.5" stroke="#606060" stroke-width=".5" x="0" y="0" width="60" height="60"/>
                <use id="zoomplus" xlink:href="#zoomPlus" x="17" y="9" onmousedown="handleZoom(evt,'in')"/>
                <use id="zoomminus" xlink:href="#zoomMin" x="42" y="9" onmousedown="handleZoom(evt,'out')"/>
                <use id="reset" xlink:href="#resetDef" x="30" y="36" onmousedown="handleReset()"/>
                <g id="arrowUp" xlink:href="#dirArrow" transform="translate(30 24)" onmousedown="handlePan(0,-1)">
                  <use xlink:href="#rim" fill="#404040">
                        <set attributeName="fill" to="#808080" begin="arrowUp.mouseover" end="arrowUp.mouseout"/>
                  </use>
                  <path fill="none" stroke="white" stroke-width="1.5" d="M0,-3.0v7 M-2.5,-0.5L0,-3.0L2.5,-0.5"/>
                </g>
                <g id="arrowRight" xlink:href="#dirArrow" transform="rotate(90) translate(36 -43)" onmousedown="handlePan(1,0)">
                  <use xlink:href="#rim" fill="#404040">
                        <set attributeName="fill" to="#808080" begin="arrowRight.mouseover" end="arrowRight.mouseout"/>
                  </use>
                  <path fill="none" stroke="white" stroke-width="1.5" d="M0,-3.0v7 M-2.5,-0.5L0,-3.0L2.5,-0.5"/>
                </g>
                <g id="arrowDown" xlink:href="#dirArrow" transform="rotate(180) translate(-30 -48)" onmousedown="handlePan(0,1)">
                  <use xlink:href="#rim" fill="#404040">
                        <set attributeName="fill" to="#808080" begin="arrowDown.mouseover" end="arrowDown.mouseout"/>
                  </use>
                  <path fill="none" stroke="white" stroke-width="1.5" d="M0,-3.0v7 M-2.5,-0.5L0,-3.0L2.5,-0.5"/>
                </g>
                <g id="arrowLeft" xlink:href="#dirArrow" transform="rotate(270) translate(-36 17)" onmousedown="handlePan(-1,0)">
                  <use xlink:href="#rim" fill="#404040">
                        <set attributeName="fill" to="#808080" begin="arrowLeft.mouseover" end="arrowLeft.mouseout"/>
                  </use>
                  <path fill="none" stroke="white" stroke-width="1.5" d="M0,-3.0v7 M-2.5,-0.5L0,-3.0L2.5,-0.5"/>
                </g>
        </g>
        <svg viewBox="0 0 15 15" width="100%" height="30px" preserveAspectRatio="xMaxYMin meet">
         <g id="arrow_out" transform="scale(0.3 0.3)">
          <a xlink:href="dji__mobile__device_8cpp__incl_org.svg" target="_base">
           <rect id="button" ry="5" rx="5" y="6" x="6" height="38" width="38"
                fill="#f2f5e9" fill-opacity="0.5" stroke="#606060" stroke-width="1.0"/>
           <path id="arrow"
             d="M 11.500037,31.436501 C 11.940474,20.09759 22.043105,11.32322 32.158766,21.979434 L 37.068811,17.246167 C 37.068811,17.246167 37.088388,32 37.088388,32 L 22.160133,31.978069 C 22.160133,31.978069 26.997745,27.140456 26.997745,27.140456 C 18.528582,18.264221 13.291696,25.230495 11.500037,31.436501 z"
             style="fill:#404040;"/>
          </a>
         </g>
        </svg>
</svg>
