<?xml version="1.0" encoding="UTF-8" standalone="no"?>
<!DOCTYPE svg PUBLIC "-//W3C//DTD SVG 1.1//EN"
 "http://www.w3.org/Graphics/SVG/1.1/DTD/svg11.dtd">
<!-- Generated by graphviz version 2.40.1 (20161225.0304)
 -->
<!-- Title: osdk&#45;core/api/src/dji_hotpoint.cpp Pages: 1 -->
<svg width="1741pt" height="422pt"
 viewBox="0.00 0.00 1741.50 422.00" xmlns="http://www.w3.org/2000/svg" xmlns:xlink="http://www.w3.org/1999/xlink">
<g id="graph0" class="graph" transform="scale(1 1) rotate(0) translate(4 418)">
<title>osdk&#45;core/api/src/dji_hotpoint.cpp</title>
<polygon fill="#ffffff" stroke="transparent" points="-4,4 -4,-418 1737.4995,-418 1737.4995,4 -4,4"/>
<!-- Node0 -->
<g id="node1" class="node">
<title>Node0</title>
<g id="a_node1"><a xlink:title="Implementation of HotPoint (Point of Interest) Missions for DJI OSDK.">
<polygon fill="#bfbfbf" stroke="#000000" points="1375.5396,-385.5 1375.5396,-413.5 1480.4604,-413.5 1480.4604,-385.5 1375.5396,-385.5"/>
<text text-anchor="start" x="1383.5396" y="-401.5" font-family="Helvetica,sans-Serif" font-size="10.00" fill="#000000">osdk&#45;core/api/src/dji</text>
<text text-anchor="middle" x="1428" y="-391.5" font-family="Helvetica,sans-Serif" font-size="10.00" fill="#000000">_hotpoint.cpp</text>
</a>
</g>
</g>
<!-- Node1 -->
<g id="node2" class="node">
<title>Node1</title>
<g id="a_node2"><a xlink:href="dji__hotpoint_8hpp.html" target="_top" xlink:title="Implementation of HotPoint (Point of Interest) Missions for DJI OSDK.">
<polygon fill="#ffffff" stroke="#000000" points="1383.6924,-220.5 1383.6924,-238.5 1470.3076,-238.5 1470.3076,-220.5 1383.6924,-220.5"/>
<text text-anchor="middle" x="1427" y="-226.5" font-family="Helvetica,sans-Serif" font-size="10.00" fill="#000000">dji_hotpoint.hpp</text>
</a>
</g>
</g>
<!-- Node0&#45;&gt;Node1 -->
<g id="edge1" class="edge">
<title>Node0&#45;&gt;Node1</title>
<path fill="none" stroke="#191970" d="M1427.9165,-385.2983C1427.7376,-354.8994 1427.3176,-283.4909 1427.1143,-248.9244"/>
<polygon fill="#191970" stroke="#191970" points="1430.6131,-248.7058 1427.0543,-238.7266 1423.6133,-248.7471 1430.6131,-248.7058"/>
</g>
<!-- Node11 -->
<g id="node12" class="node">
<title>Node11</title>
<g id="a_node12"><a xlink:href="dji__mission__manager_8hpp.html" target="_top" xlink:title="Mission&#45;Manager API for DJI OSDK library.">
<polygon fill="#ffffff" stroke="#000000" points="1456.2959,-275.5 1456.2959,-293.5 1585.7041,-293.5 1585.7041,-275.5 1456.2959,-275.5"/>
<text text-anchor="middle" x="1521" y="-281.5" font-family="Helvetica,sans-Serif" font-size="10.00" fill="#000000">dji_mission_manager.hpp</text>
</a>
</g>
</g>
<!-- Node0&#45;&gt;Node11 -->
<g id="edge14" class="edge">
<title>Node0&#45;&gt;Node11</title>
<path fill="none" stroke="#191970" d="M1439.4036,-385.3987C1456.5211,-364.232 1488.8085,-324.3067 1507.2203,-301.5394"/>
<polygon fill="#191970" stroke="#191970" points="1509.9702,-303.7051 1513.5368,-293.7286 1504.5272,-299.3034 1509.9702,-303.7051"/>
</g>
<!-- Node13 -->
<g id="node14" class="node">
<title>Node13</title>
<g id="a_node14"><a xlink:href="dji__vehicle_8hpp.html" target="_top" xlink:title="Vehicle API for DJI onboardSDK library.">
<polygon fill="#ffffff" stroke="#000000" points="774.9214,-330.5 774.9214,-348.5 857.0786,-348.5 857.0786,-330.5 774.9214,-330.5"/>
<text text-anchor="middle" x="816" y="-336.5" font-family="Helvetica,sans-Serif" font-size="10.00" fill="#000000">dji_vehicle.hpp</text>
</a>
</g>
</g>
<!-- Node0&#45;&gt;Node13 -->
<g id="edge18" class="edge">
<title>Node0&#45;&gt;Node13</title>
<path fill="none" stroke="#191970" d="M1375.2915,-394.3325C1259.1717,-382.9482 982.5012,-355.8236 867.5023,-344.5492"/>
<polygon fill="#191970" stroke="#191970" points="867.5084,-341.0331 857.2145,-343.5406 866.8253,-347.9997 867.5084,-341.0331"/>
</g>
<!-- Node2 -->
<g id="node3" class="node">
<title>Node2</title>
<g id="a_node3"><a xlink:href="dji__mission__base_8hpp.html" target="_top" xlink:title="Mission&#45;Base abstract class for DJI OSDK library.">
<polygon fill="#ffffff" stroke="#000000" points="1381.9141,-165.5 1381.9141,-183.5 1494.0859,-183.5 1494.0859,-165.5 1381.9141,-165.5"/>
<text text-anchor="middle" x="1438" y="-171.5" font-family="Helvetica,sans-Serif" font-size="10.00" fill="#000000">dji_mission_base.hpp</text>
</a>
</g>
</g>
<!-- Node1&#45;&gt;Node2 -->
<g id="edge2" class="edge">
<title>Node1&#45;&gt;Node2</title>
<path fill="none" stroke="#191970" d="M1428.8164,-220.4179C1430.2567,-213.2164 1432.3208,-202.8962 1434.1274,-193.8632"/>
<polygon fill="#191970" stroke="#191970" points="1437.6149,-194.2717 1436.1441,-183.7795 1430.7508,-192.8988 1437.6149,-194.2717"/>
</g>
<!-- Node10 -->
<g id="node11" class="node">
<title>Node10</title>
<g id="a_node11"><a xlink:href="dji__telemetry_8hpp.html" target="_top" xlink:title="Enumeration of all telemetry data types, structures and maps.">
<polygon fill="#ffffff" stroke="#000000" points="837.2925,-165.5 837.2925,-183.5 928.7075,-183.5 928.7075,-165.5 837.2925,-165.5"/>
<text text-anchor="middle" x="883" y="-171.5" font-family="Helvetica,sans-Serif" font-size="10.00" fill="#000000">dji_telemetry.hpp</text>
</a>
</g>
</g>
<!-- Node1&#45;&gt;Node10 -->
<g id="edge12" class="edge">
<title>Node1&#45;&gt;Node10</title>
<path fill="none" stroke="#191970" d="M1383.461,-225.1258C1302.9905,-217.037 1125.5409,-199.1812 976,-184 964.016,-182.7834 951.1639,-181.4737 938.9544,-180.2272"/>
<polygon fill="#191970" stroke="#191970" points="939.1865,-176.7328 928.8826,-179.1984 938.4752,-183.6966 939.1865,-176.7328"/>
</g>
<!-- Node3 -->
<g id="node4" class="node">
<title>Node3</title>
<g id="a_node4"><a xlink:href="dji__command_8hpp.html" target="_top" xlink:title="All DJI OSDK OpenProtocol Command IDs.">
<polygon fill="#ffffff" stroke="#000000" points="1504.5322,-110.5 1504.5322,-128.5 1599.4678,-128.5 1599.4678,-110.5 1504.5322,-110.5"/>
<text text-anchor="middle" x="1552" y="-116.5" font-family="Helvetica,sans-Serif" font-size="10.00" fill="#000000">dji_command.hpp</text>
</a>
</g>
</g>
<!-- Node2&#45;&gt;Node3 -->
<g id="edge3" class="edge">
<title>Node2&#45;&gt;Node3</title>
<path fill="none" stroke="#191970" d="M1456.8248,-165.4179C1475.1418,-156.5807 1503.1929,-143.0473 1524.103,-132.9591"/>
<polygon fill="#191970" stroke="#191970" points="1525.6615,-136.0933 1533.1473,-128.5956 1522.6198,-129.7887 1525.6615,-136.0933"/>
</g>
<!-- Node6 -->
<g id="node7" class="node">
<title>Node6</title>
<g id="a_node7"><a xlink:href="dji__type_8hpp.html" target="_top" xlink:title="Data type and Data Structure definitions for use throughout DJI OSDK.">
<polygon fill="#ffffff" stroke="#000000" points="1281.0347,-110.5 1281.0347,-128.5 1350.9653,-128.5 1350.9653,-110.5 1281.0347,-110.5"/>
<text text-anchor="middle" x="1316" y="-116.5" font-family="Helvetica,sans-Serif" font-size="10.00" fill="#000000">dji_type.hpp</text>
</a>
</g>
</g>
<!-- Node2&#45;&gt;Node6 -->
<g id="edge7" class="edge">
<title>Node2&#45;&gt;Node6</title>
<path fill="none" stroke="#191970" d="M1417.8542,-165.4179C1398.1634,-156.5409 1367.9615,-142.9253 1345.5527,-132.823"/>
<polygon fill="#191970" stroke="#191970" points="1346.7306,-129.5148 1336.1757,-128.5956 1343.8537,-135.8963 1346.7306,-129.5148"/>
</g>
<!-- Node8 -->
<g id="node9" class="node">
<title>Node8</title>
<g id="a_node9"><a xlink:href="dji__vehicle__callback_8hpp.html" target="_top" xlink:title="Type definition for new Vehicle&#45;style callbacks.">
<polygon fill="#ffffff" stroke="#000000" points="318.0767,-110.5 318.0767,-128.5 441.9233,-128.5 441.9233,-110.5 318.0767,-110.5"/>
<text text-anchor="middle" x="380" y="-116.5" font-family="Helvetica,sans-Serif" font-size="10.00" fill="#000000">dji_vehicle_callback.hpp</text>
</a>
</g>
</g>
<!-- Node2&#45;&gt;Node8 -->
<g id="edge10" class="edge">
<title>Node2&#45;&gt;Node8</title>
<path fill="none" stroke="#191970" d="M1381.7527,-170.4783C1355.9367,-168.6921 1324.922,-166.6299 1297,-165 973.1565,-146.0958 891.9908,-145.1857 568,-129 529.8261,-127.0929 487.2933,-124.9456 452.3519,-123.1755"/>
<polygon fill="#191970" stroke="#191970" points="452.4022,-119.6736 442.2379,-122.6629 452.0479,-126.6647 452.4022,-119.6736"/>
</g>
<!-- Node4 -->
<g id="node5" class="node">
<title>Node4</title>
<g id="a_node5"><a xlink:href="dji__error_8hpp.html" target="_top" xlink:title="All DJI OSDK OpenProtocol ACK Error Codes.">
<polygon fill="#ffffff" stroke="#000000" points="1516.2021,-55.5 1516.2021,-73.5 1587.7979,-73.5 1587.7979,-55.5 1516.2021,-55.5"/>
<text text-anchor="middle" x="1552" y="-61.5" font-family="Helvetica,sans-Serif" font-size="10.00" fill="#000000">dji_error.hpp</text>
</a>
</g>
</g>
<!-- Node3&#45;&gt;Node4 -->
<g id="edge4" class="edge">
<title>Node3&#45;&gt;Node4</title>
<path fill="none" stroke="#191970" d="M1552,-110.4179C1552,-103.2164 1552,-92.8962 1552,-83.8632"/>
<polygon fill="#191970" stroke="#191970" points="1555.5001,-83.7794 1552,-73.7795 1548.5001,-83.7795 1555.5001,-83.7794"/>
</g>
<!-- Node5 -->
<g id="node6" class="node">
<title>Node5</title>
<g id="a_node6"><a xlink:title=" ">
<polygon fill="#ffffff" stroke="#bfbfbf" points="1463.8794,-.5 1463.8794,-18.5 1512.1206,-18.5 1512.1206,-.5 1463.8794,-.5"/>
<text text-anchor="middle" x="1488" y="-6.5" font-family="Helvetica,sans-Serif" font-size="10.00" fill="#000000">stdint.h</text>
</a>
</g>
</g>
<!-- Node3&#45;&gt;Node5 -->
<g id="edge6" class="edge">
<title>Node3&#45;&gt;Node5</title>
<path fill="none" stroke="#191970" d="M1540.0037,-110.2741C1529.8382,-101.857 1515.5833,-88.5434 1507,-74 1498.7489,-60.0196 1493.8555,-42.1952 1491.1066,-28.8283"/>
<polygon fill="#191970" stroke="#191970" points="1494.5199,-28.0365 1489.2753,-18.8308 1487.6345,-29.2978 1494.5199,-28.0365"/>
</g>
<!-- Node4&#45;&gt;Node5 -->
<g id="edge5" class="edge">
<title>Node4&#45;&gt;Node5</title>
<path fill="none" stroke="#191970" d="M1541.4317,-55.4179C1531.9467,-47.2667 1517.8125,-35.1201 1506.4634,-25.3669"/>
<polygon fill="#191970" stroke="#191970" points="1508.6633,-22.6427 1498.7979,-18.7795 1504.1009,-27.9516 1508.6633,-22.6427"/>
</g>
<!-- Node6&#45;&gt;Node5 -->
<g id="edge9" class="edge">
<title>Node6&#45;&gt;Node5</title>
<path fill="none" stroke="#191970" d="M1330.0755,-110.4982C1359.6829,-91.5633 1428.6497,-47.4566 1464.8591,-24.2994"/>
<polygon fill="#191970" stroke="#191970" points="1467.1913,-26.9625 1473.73,-18.6261 1463.4198,-21.0654 1467.1913,-26.9625"/>
</g>
<!-- Node7 -->
<g id="node8" class="node">
<title>Node7</title>
<g id="a_node8"><a xlink:title=" ">
<polygon fill="#ffffff" stroke="#bfbfbf" points="1294.9385,-55.5 1294.9385,-73.5 1337.0615,-73.5 1337.0615,-55.5 1294.9385,-55.5"/>
<text text-anchor="middle" x="1316" y="-61.5" font-family="Helvetica,sans-Serif" font-size="10.00" fill="#000000">cstdio</text>
</a>
</g>
</g>
<!-- Node6&#45;&gt;Node7 -->
<g id="edge8" class="edge">
<title>Node6&#45;&gt;Node7</title>
<path fill="none" stroke="#191970" d="M1316,-110.4179C1316,-103.2164 1316,-92.8962 1316,-83.8632"/>
<polygon fill="#191970" stroke="#191970" points="1319.5001,-83.7794 1316,-73.7795 1312.5001,-83.7795 1319.5001,-83.7794"/>
</g>
<!-- Node9 -->
<g id="node10" class="node">
<title>Node9</title>
<g id="a_node10"><a xlink:title=" ">
<polygon fill="#ffffff" stroke="#bfbfbf" points="412.7935,-55.5 412.7935,-73.5 527.2065,-73.5 527.2065,-55.5 412.7935,-55.5"/>
<text text-anchor="middle" x="470" y="-61.5" font-family="Helvetica,sans-Serif" font-size="10.00" fill="#000000">dji_open_protocol.hpp</text>
</a>
</g>
</g>
<!-- Node8&#45;&gt;Node9 -->
<g id="edge11" class="edge">
<title>Node8&#45;&gt;Node9</title>
<path fill="none" stroke="#191970" d="M394.8617,-110.4179C408.8014,-101.8992 429.882,-89.0166 446.1701,-79.0627"/>
<polygon fill="#191970" stroke="#191970" points="448.4085,-81.7967 455.1163,-73.5956 444.7583,-75.8237 448.4085,-81.7967"/>
</g>
<!-- Node10&#45;&gt;Node6 -->
<g id="edge13" class="edge">
<title>Node10&#45;&gt;Node6</title>
<path fill="none" stroke="#191970" d="M928.8372,-167.0702C933.6162,-166.3471 938.4045,-165.6439 943,-165 1060.9865,-148.4685 1200.4581,-132.3681 1270.7163,-124.4967"/>
<polygon fill="#191970" stroke="#191970" points="1271.4272,-127.9392 1280.9769,-123.3506 1270.6501,-120.9824 1271.4272,-127.9392"/>
</g>
<!-- Node11&#45;&gt;Node1 -->
<g id="edge15" class="edge">
<title>Node11&#45;&gt;Node1</title>
<path fill="none" stroke="#191970" d="M1505.4778,-275.4179C1490.7825,-266.8195 1468.4888,-253.7754 1451.4134,-243.7844"/>
<polygon fill="#191970" stroke="#191970" points="1452.9439,-240.6249 1442.5452,-238.5956 1449.4088,-246.6667 1452.9439,-240.6249"/>
</g>
<!-- Node12 -->
<g id="node13" class="node">
<title>Node12</title>
<g id="a_node13"><a xlink:href="dji__waypoint_8hpp.html" target="_top" xlink:title="Implementation of GPS Waypoint Missions for DJI OSDK.">
<polygon fill="#ffffff" stroke="#000000" points="1488.7515,-220.5 1488.7515,-238.5 1579.2485,-238.5 1579.2485,-220.5 1488.7515,-220.5"/>
<text text-anchor="middle" x="1534" y="-226.5" font-family="Helvetica,sans-Serif" font-size="10.00" fill="#000000">dji_waypoint.hpp</text>
</a>
</g>
</g>
<!-- Node11&#45;&gt;Node12 -->
<g id="edge16" class="edge">
<title>Node11&#45;&gt;Node12</title>
<path fill="none" stroke="#191970" d="M1523.1467,-275.4179C1524.8676,-268.1372 1527.3419,-257.669 1529.4935,-248.5659"/>
<polygon fill="#191970" stroke="#191970" points="1532.9125,-249.3164 1531.8067,-238.7795 1526.1002,-247.7062 1532.9125,-249.3164"/>
</g>
<!-- Node12&#45;&gt;Node2 -->
<g id="edge17" class="edge">
<title>Node12&#45;&gt;Node2</title>
<path fill="none" stroke="#191970" d="M1518.1476,-220.4179C1503.1396,-211.8195 1480.3716,-198.7754 1462.9328,-188.7844"/>
<polygon fill="#191970" stroke="#191970" points="1464.2928,-185.5299 1453.876,-183.5956 1460.813,-191.6037 1464.2928,-185.5299"/>
</g>
<!-- Node13&#45;&gt;Node3 -->
<g id="edge27" class="edge">
<title>Node13&#45;&gt;Node3</title>
<path fill="none" stroke="#191970" d="M857.2489,-339.205C1013.8011,-337.815 1565.8768,-330.3564 1635,-294 1695.7678,-262.0383 1761.7246,-219.5282 1720,-165 1706.4849,-147.3377 1652.9677,-134.9437 1609.9189,-127.5989"/>
<polygon fill="#191970" stroke="#191970" points="1610.2294,-124.103 1599.7933,-125.9297 1609.0908,-131.0098 1610.2294,-124.103"/>
</g>
<!-- Node13&#45;&gt;Node6 -->
<g id="edge63" class="edge">
<title>Node13&#45;&gt;Node6</title>
<path fill="none" stroke="#191970" d="M857.1211,-337.6411C982.675,-331.7691 1353.5992,-312.8857 1371,-294 1392.5286,-270.6342 1346.8258,-177.2297 1325.8191,-137.5157"/>
<polygon fill="#191970" stroke="#191970" points="1328.8763,-135.8105 1321.0665,-128.651 1322.707,-139.1181 1328.8763,-135.8105"/>
</g>
<!-- Node13&#45;&gt;Node8 -->
<g id="edge64" class="edge">
<title>Node13&#45;&gt;Node8</title>
<path fill="none" stroke="#191970" d="M774.5103,-338.5932C632.1822,-335.2412 169.1943,-322.2536 109,-294 78.5476,-279.7064 69.4367,-270.2567 57,-239 43.8798,-206.0255 57.9678,-185.4104 87,-165 121.5896,-140.6826 232.436,-128.8383 307.4293,-123.4724"/>
<polygon fill="#191970" stroke="#191970" points="308.027,-126.9395 317.7616,-122.7577 307.5439,-119.9562 308.027,-126.9395"/>
</g>
<!-- Node13&#45;&gt;Node9 -->
<g id="edge55" class="edge">
<title>Node13&#45;&gt;Node9</title>
<path fill="none" stroke="#191970" d="M774.9167,-338.5052C628.8483,-334.7592 139.8944,-320.357 75,-294 34.2668,-277.4561 0,-273.4646 0,-229.5 0,-229.5 0,-229.5 0,-174.5 0,-92.9074 271.937,-71.7969 402.1129,-66.3656"/>
<polygon fill="#191970" stroke="#191970" points="402.5157,-69.8525 412.3688,-65.958 402.2376,-62.858 402.5157,-69.8525"/>
</g>
<!-- Node13&#45;&gt;Node11 -->
<g id="edge49" class="edge">
<title>Node13&#45;&gt;Node11</title>
<path fill="none" stroke="#191970" d="M857.3515,-336.3544C953.362,-329.039 1198.843,-310.2666 1404,-294 1417.5686,-292.9242 1432.021,-291.7631 1445.9724,-290.6344"/>
<polygon fill="#191970" stroke="#191970" points="1446.3383,-294.1163 1456.0229,-289.82 1445.7729,-287.1392 1446.3383,-294.1163"/>
</g>
<!-- Node14 -->
<g id="node15" class="node">
<title>Node14</title>
<g id="a_node15"><a xlink:title=" ">
<polygon fill="#ffffff" stroke="#bfbfbf" points="576.5493,-110.5 576.5493,-128.5 621.4507,-128.5 621.4507,-110.5 576.5493,-110.5"/>
<text text-anchor="middle" x="599" y="-116.5" font-family="Helvetica,sans-Serif" font-size="10.00" fill="#000000">cstdint</text>
</a>
</g>
</g>
<!-- Node13&#45;&gt;Node14 -->
<g id="edge19" class="edge">
<title>Node13&#45;&gt;Node14</title>
<path fill="none" stroke="#191970" d="M774.8297,-337.8485C711.9248,-334.3855 596.3837,-324.0091 570,-294 530.7055,-249.306 567.5161,-172.289 587.7303,-137.4923"/>
<polygon fill="#191970" stroke="#191970" points="590.7668,-139.2343 592.9146,-128.8594 584.7658,-135.6304 590.7668,-139.2343"/>
</g>
<!-- Node15 -->
<g id="node16" class="node">
<title>Node15</title>
<g id="a_node16"><a xlink:href="dji__broadcast_8hpp.html" target="_top" xlink:title="Broadcast Telemetry API for DJI onboardSDK library.">
<polygon fill="#ffffff" stroke="#000000" points="575.5273,-220.5 575.5273,-238.5 670.4727,-238.5 670.4727,-220.5 575.5273,-220.5"/>
<text text-anchor="middle" x="623" y="-226.5" font-family="Helvetica,sans-Serif" font-size="10.00" fill="#000000">dji_broadcast.hpp</text>
</a>
</g>
</g>
<!-- Node13&#45;&gt;Node15 -->
<g id="edge20" class="edge">
<title>Node13&#45;&gt;Node15</title>
<path fill="none" stroke="#191970" d="M774.711,-337.7321C713.3047,-334.1393 602.4963,-323.623 578,-294 564.6899,-277.9043 583.3534,-258.0145 600.5322,-244.6118"/>
<polygon fill="#191970" stroke="#191970" points="602.7219,-247.3459 608.6995,-238.5984 598.5716,-241.7089 602.7219,-247.3459"/>
</g>
<!-- Node16 -->
<g id="node17" class="node">
<title>Node16</title>
<g id="a_node17"><a xlink:href="dji__camera_8hpp.html" target="_top" xlink:title="Camera/Gimbal API for DJI onboardSDK library.">
<polygon fill="#ffffff" stroke="#000000" points="1609.813,-165.5 1609.813,-183.5 1694.187,-183.5 1694.187,-165.5 1609.813,-165.5"/>
<text text-anchor="middle" x="1652" y="-171.5" font-family="Helvetica,sans-Serif" font-size="10.00" fill="#000000">dji_camera.hpp</text>
</a>
</g>
</g>
<!-- Node13&#45;&gt;Node16 -->
<g id="edge23" class="edge">
<title>Node13&#45;&gt;Node16</title>
<path fill="none" stroke="#191970" d="M857.3298,-338.4259C1016.5461,-334.1235 1582.819,-317.2395 1613,-294 1644.0163,-270.1173 1650.7147,-221.0336 1651.9459,-193.7902"/>
<polygon fill="#191970" stroke="#191970" points="1655.4497,-193.6708 1652.1937,-183.5887 1648.4518,-193.5007 1655.4497,-193.6708"/>
</g>
<!-- Node17 -->
<g id="node18" class="node">
<title>Node17</title>
<g id="a_node18"><a xlink:title=" ">
<polygon fill="#ffffff" stroke="#bfbfbf" points="341.167,-275.5 341.167,-293.5 454.833,-293.5 454.833,-275.5 341.167,-275.5"/>
<text text-anchor="middle" x="398" y="-281.5" font-family="Helvetica,sans-Serif" font-size="10.00" fill="#000000">dji_circular_buffer.hpp</text>
</a>
</g>
</g>
<!-- Node13&#45;&gt;Node17 -->
<g id="edge26" class="edge">
<title>Node13&#45;&gt;Node17</title>
<path fill="none" stroke="#191970" d="M774.8652,-334.1419C709.8909,-325.6704 579.5268,-308.6407 469,-294 467.7171,-293.8301 466.4211,-293.6582 465.1153,-293.485"/>
<polygon fill="#191970" stroke="#191970" points="465.3386,-289.9839 454.9645,-292.1354 464.416,-296.9229 465.3386,-289.9839"/>
</g>
<!-- Node18 -->
<g id="node19" class="node">
<title>Node18</title>
<g id="a_node19"><a xlink:href="dji__control_8hpp.html" target="_top" xlink:title="Control API for DJI OSDK library.">
<polygon fill="#ffffff" stroke="#000000" points="706.478,-275.5 706.478,-293.5 787.522,-293.5 787.522,-275.5 706.478,-275.5"/>
<text text-anchor="middle" x="747" y="-281.5" font-family="Helvetica,sans-Serif" font-size="10.00" fill="#000000">dji_control.hpp</text>
</a>
</g>
</g>
<!-- Node13&#45;&gt;Node18 -->
<g id="edge28" class="edge">
<title>Node13&#45;&gt;Node18</title>
<path fill="none" stroke="#191970" d="M804.6061,-330.4179C794.2808,-322.1876 778.8453,-309.8839 766.5503,-300.0836"/>
<polygon fill="#191970" stroke="#191970" points="768.6429,-297.2757 758.6415,-293.7795 764.2796,-302.7495 768.6429,-297.2757"/>
</g>
<!-- Node21 -->
<g id="node22" class="node">
<title>Node21</title>
<g id="a_node22"><a xlink:href="dji__version_8hpp.html" target="_top" xlink:title="Drone/SDK Version definition for DJI onboardSDK library.">
<polygon fill="#ffffff" stroke="#000000" points="985.3672,-165.5 985.3672,-183.5 1068.6328,-183.5 1068.6328,-165.5 985.3672,-165.5"/>
<text text-anchor="middle" x="1027" y="-171.5" font-family="Helvetica,sans-Serif" font-size="10.00" fill="#000000">dji_version.hpp</text>
</a>
</g>
</g>
<!-- Node13&#45;&gt;Node21 -->
<g id="edge65" class="edge">
<title>Node13&#45;&gt;Node21</title>
<path fill="none" stroke="#191970" d="M816.9788,-330.4646C818.7562,-317.3151 823.4624,-292.5617 835,-275 867.045,-226.2236 930.749,-199.6586 975.9804,-186.2963"/>
<polygon fill="#191970" stroke="#191970" points="976.9521,-189.6588 985.6188,-183.5646 975.0433,-182.9241 976.9521,-189.6588"/>
</g>
<!-- Node23 -->
<g id="node24" class="node">
<title>Node23</title>
<g id="a_node24"><a xlink:href="dji__gimbal_8hpp.html" target="_top" xlink:title="Gimbal API for OSDK library.">
<polygon fill="#ffffff" stroke="#000000" points="1511.7563,-165.5 1511.7563,-183.5 1592.2437,-183.5 1592.2437,-165.5 1511.7563,-165.5"/>
<text text-anchor="middle" x="1552" y="-171.5" font-family="Helvetica,sans-Serif" font-size="10.00" fill="#000000">dji_gimbal.hpp</text>
</a>
</g>
</g>
<!-- Node13&#45;&gt;Node23 -->
<g id="edge41" class="edge">
<title>Node13&#45;&gt;Node23</title>
<path fill="none" stroke="#191970" d="M857.1677,-338.6438C1014.396,-335.1768 1569.4797,-321.0544 1595,-294 1622.5936,-264.7477 1589.0449,-216.5225 1567.4681,-191.2056"/>
<polygon fill="#191970" stroke="#191970" points="1569.958,-188.7376 1560.7153,-183.5585 1564.711,-193.371 1569.958,-188.7376"/>
</g>
<!-- Node24 -->
<g id="node25" class="node">
<title>Node24</title>
<g id="a_node25"><a xlink:title=" ">
<polygon fill="#ffffff" stroke="#bfbfbf" points="587.4683,-275.5 587.4683,-293.5 688.5317,-293.5 688.5317,-275.5 587.4683,-275.5"/>
<text text-anchor="middle" x="638" y="-281.5" font-family="Helvetica,sans-Serif" font-size="10.00" fill="#000000">dji_hard_driver.hpp</text>
</a>
</g>
</g>
<!-- Node13&#45;&gt;Node24 -->
<g id="edge44" class="edge">
<title>Node13&#45;&gt;Node24</title>
<path fill="none" stroke="#191970" d="M786.6069,-330.4179C756.6288,-321.155 709.9523,-306.7325 676.9205,-296.526"/>
<polygon fill="#191970" stroke="#191970" points="677.7285,-293.1124 667.1409,-293.5042 675.6619,-299.8005 677.7285,-293.1124"/>
</g>
<!-- Node25 -->
<g id="node26" class="node">
<title>Node25</title>
<g id="a_node26"><a xlink:href="dji__hardware__sync_8hpp.html" target="_top" xlink:title="Hardware Sync API for DJI OSDK.">
<polygon fill="#ffffff" stroke="#000000" points="909.5791,-220.5 909.5791,-238.5 1028.4209,-238.5 1028.4209,-220.5 909.5791,-220.5"/>
<text text-anchor="middle" x="969" y="-226.5" font-family="Helvetica,sans-Serif" font-size="10.00" fill="#000000">dji_hardware_sync.hpp</text>
</a>
</g>
</g>
<!-- Node13&#45;&gt;Node25 -->
<g id="edge45" class="edge">
<title>Node13&#45;&gt;Node25</title>
<path fill="none" stroke="#191970" d="M857.1894,-335.3373C928.0239,-327.7606 1066.7281,-310.9312 1081,-294 1102.1078,-268.9591 1062.7394,-251.5054 1024.9936,-241.1272"/>
<polygon fill="#191970" stroke="#191970" points="1025.517,-237.6468 1014.9578,-238.5141 1023.7532,-244.421 1025.517,-237.6468"/>
</g>
<!-- Node26 -->
<g id="node27" class="node">
<title>Node26</title>
<g id="a_node27"><a xlink:href="dji__mfio_8hpp.html" target="_top" xlink:title="MFIO API for DJI OSDK library.">
<polygon fill="#ffffff" stroke="#000000" points="66.0396,-220.5 66.0396,-238.5 135.9604,-238.5 135.9604,-220.5 66.0396,-220.5"/>
<text text-anchor="middle" x="101" y="-226.5" font-family="Helvetica,sans-Serif" font-size="10.00" fill="#000000">dji_mfio.hpp</text>
</a>
</g>
</g>
<!-- Node13&#45;&gt;Node26 -->
<g id="edge47" class="edge">
<title>Node13&#45;&gt;Node26</title>
<path fill="none" stroke="#191970" d="M774.7111,-339.2663C634.2351,-338.1324 180.6025,-331.569 128,-294 113.5154,-283.655 106.7658,-264.0013 103.6423,-249.0957"/>
<polygon fill="#191970" stroke="#191970" points="107.0269,-248.1232 101.8925,-238.8556 100.1269,-249.3023 107.0269,-248.1232"/>
</g>
<!-- Node27 -->
<g id="node28" class="node">
<title>Node27</title>
<g id="a_node28"><a xlink:href="dji__mobile__communication_8hpp.html" target="_top" xlink:title="Implementation of DJI Mobile&#45;Onboard SDK Communication (MOC)">
<polygon fill="#ffffff" stroke="#000000" points="170.3501,-275.5 170.3501,-293.5 323.6499,-293.5 323.6499,-275.5 170.3501,-275.5"/>
<text text-anchor="middle" x="247" y="-281.5" font-family="Helvetica,sans-Serif" font-size="10.00" fill="#000000">dji_mobile_communication.hpp</text>
</a>
</g>
</g>
<!-- Node13&#45;&gt;Node27 -->
<g id="edge50" class="edge">
<title>Node13&#45;&gt;Node27</title>
<path fill="none" stroke="#191970" d="M774.8617,-335.8783C692.9751,-328.6161 503.5134,-311.548 334.0093,-294.1938"/>
<polygon fill="#191970" stroke="#191970" points="334.2096,-290.6961 323.9044,-293.1565 333.4946,-297.6595 334.2096,-290.6961"/>
</g>
<!-- Node29 -->
<g id="node30" class="node">
<title>Node29</title>
<g id="a_node30"><a xlink:href="dji__mobile__device_8hpp.html" target="_top" xlink:title="Implementation of DJI Mobile Device Abstraction.">
<polygon fill="#ffffff" stroke="#000000" points="106.5225,-165.5 106.5225,-183.5 221.4775,-183.5 221.4775,-165.5 106.5225,-165.5"/>
<text text-anchor="middle" x="164" y="-171.5" font-family="Helvetica,sans-Serif" font-size="10.00" fill="#000000">dji_mobile_device.hpp</text>
</a>
</g>
</g>
<!-- Node13&#45;&gt;Node29 -->
<g id="edge53" class="edge">
<title>Node13&#45;&gt;Node29</title>
<path fill="none" stroke="#191970" d="M774.5613,-338.1629C633.8647,-333.4246 181.9951,-316.5041 161,-294 135.7413,-266.9258 147.1477,-219.545 156.381,-193.3136"/>
<polygon fill="#191970" stroke="#191970" points="159.7208,-194.376 159.9721,-183.7842 153.1705,-191.9075 159.7208,-194.376"/>
</g>
<!-- Node30 -->
<g id="node31" class="node">
<title>Node30</title>
<g id="a_node31"><a xlink:title=" ">
<polygon fill="#ffffff" stroke="#bfbfbf" points="844.1826,-275.5 844.1826,-293.5 975.8174,-293.5 975.8174,-275.5 844.1826,-275.5"/>
<text text-anchor="middle" x="910" y="-281.5" font-family="Helvetica,sans-Serif" font-size="10.00" fill="#000000">dji_platform_manager.hpp</text>
</a>
</g>
</g>
<!-- Node13&#45;&gt;Node30 -->
<g id="edge56" class="edge">
<title>Node13&#45;&gt;Node30</title>
<path fill="none" stroke="#191970" d="M831.5222,-330.4179C846.2175,-321.8195 868.5112,-308.7754 885.5866,-298.7844"/>
<polygon fill="#191970" stroke="#191970" points="887.5912,-301.6667 894.4548,-293.5956 884.0561,-295.6249 887.5912,-301.6667"/>
</g>
<!-- Node31 -->
<g id="node32" class="node">
<title>Node31</title>
<g id="a_node32"><a xlink:href="dji__status_8hpp.html" target="_top" xlink:title="Status information for DJI Vehicle.">
<polygon fill="#ffffff" stroke="#000000" points="994.1455,-275.5 994.1455,-293.5 1071.8545,-293.5 1071.8545,-275.5 994.1455,-275.5"/>
<text text-anchor="middle" x="1033" y="-281.5" font-family="Helvetica,sans-Serif" font-size="10.00" fill="#000000">dji_status.hpp</text>
</a>
</g>
</g>
<!-- Node13&#45;&gt;Node31 -->
<g id="edge57" class="edge">
<title>Node13&#45;&gt;Node31</title>
<path fill="none" stroke="#191970" d="M851.8331,-330.4179C889.0096,-320.9953 947.2511,-306.2336 987.6198,-296.0019"/>
<polygon fill="#191970" stroke="#191970" points="988.6407,-299.3539 997.4743,-293.5042 986.9209,-292.5684 988.6407,-299.3539"/>
</g>
<!-- Node32 -->
<g id="node33" class="node">
<title>Node32</title>
<g id="a_node33"><a xlink:href="dji__subscription_8hpp.html" target="_top" xlink:title="Telemetry Subscription API for DJI OSDK library.">
<polygon fill="#ffffff" stroke="#000000" points="415.8057,-220.5 415.8057,-238.5 520.1943,-238.5 520.1943,-220.5 415.8057,-220.5"/>
<text text-anchor="middle" x="468" y="-226.5" font-family="Helvetica,sans-Serif" font-size="10.00" fill="#000000">dji_subscription.hpp</text>
</a>
</g>
</g>
<!-- Node13&#45;&gt;Node32 -->
<g id="edge58" class="edge">
<title>Node13&#45;&gt;Node32</title>
<path fill="none" stroke="#191970" d="M774.695,-337.7333C700.9075,-333.8835 550.1278,-322.6634 507,-294 490.8637,-283.2755 480.3469,-263.3805 474.3472,-248.5103"/>
<polygon fill="#191970" stroke="#191970" points="477.5015,-246.9476 470.7609,-238.7736 470.9329,-249.367 477.5015,-246.9476"/>
</g>
<!-- Node33 -->
<g id="node34" class="node">
<title>Node33</title>
<g id="a_node34"><a xlink:title=" ">
<polygon fill="#ffffff" stroke="#bfbfbf" points="1128.0669,-275.5 1128.0669,-293.5 1251.9331,-293.5 1251.9331,-275.5 1128.0669,-275.5"/>
<text text-anchor="middle" x="1190" y="-281.5" font-family="Helvetica,sans-Serif" font-size="10.00" fill="#000000">dji_thread_manager.hpp</text>
</a>
</g>
</g>
<!-- Node13&#45;&gt;Node33 -->
<g id="edge62" class="edge">
<title>Node13&#45;&gt;Node33</title>
<path fill="none" stroke="#191970" d="M857.0944,-333.4567C920.0196,-324.203 1041.0839,-306.3994 1118.5801,-295.0029"/>
<polygon fill="#191970" stroke="#191970" points="1119.3613,-298.4258 1128.7457,-293.508 1118.3428,-291.5003 1119.3613,-298.4258"/>
</g>
<!-- Node34 -->
<g id="node35" class="node">
<title>Node34</title>
<g id="a_node35"><a xlink:href="dji__virtual__rc_8hpp.html" target="_top" xlink:title="Virtual Radio Control API for DJI onboardSDK library.">
<polygon fill="#ffffff" stroke="#000000" points="1270.2021,-275.5 1270.2021,-293.5 1361.7979,-293.5 1361.7979,-275.5 1270.2021,-275.5"/>
<text text-anchor="middle" x="1316" y="-281.5" font-family="Helvetica,sans-Serif" font-size="10.00" fill="#000000">dji_virtual_rc.hpp</text>
</a>
</g>
</g>
<!-- Node13&#45;&gt;Node34 -->
<g id="edge66" class="edge">
<title>Node13&#45;&gt;Node34</title>
<path fill="none" stroke="#191970" d="M857.2185,-336.2443C934.2175,-329.9548 1105.3353,-314.9987 1259.9609,-294.0568"/>
<polygon fill="#191970" stroke="#191970" points="1260.6866,-297.4903 1270.1208,-292.6688 1259.739,-290.5547 1260.6866,-297.4903"/>
</g>
<!-- Node15&#45;&gt;Node8 -->
<g id="edge22" class="edge">
<title>Node15&#45;&gt;Node8</title>
<path fill="none" stroke="#191970" d="M603.1143,-220.4982C560.3953,-201.1604 459.6781,-155.5683 409.4918,-132.8502"/>
<polygon fill="#191970" stroke="#191970" points="410.7139,-129.5616 400.1605,-128.6261 407.8272,-135.9386 410.7139,-129.5616"/>
</g>
<!-- Node15&#45;&gt;Node10 -->
<g id="edge21" class="edge">
<title>Node15&#45;&gt;Node10</title>
<path fill="none" stroke="#191970" d="M665.6426,-220.4795C710.6995,-210.9482 781.8142,-195.9047 830.3397,-185.6397"/>
<polygon fill="#191970" stroke="#191970" points="831.275,-189.0194 840.3341,-183.5255 829.8263,-182.1709 831.275,-189.0194"/>
</g>
<!-- Node16&#45;&gt;Node3 -->
<g id="edge24" class="edge">
<title>Node16&#45;&gt;Node3</title>
<path fill="none" stroke="#191970" d="M1635.487,-165.4179C1619.7089,-156.7399 1595.6972,-143.5334 1577.4685,-133.5077"/>
<polygon fill="#191970" stroke="#191970" points="1578.9864,-130.3481 1568.5375,-128.5956 1575.6129,-136.4816 1578.9864,-130.3481"/>
</g>
<!-- Node16&#45;&gt;Node6 -->
<g id="edge25" class="edge">
<title>Node16&#45;&gt;Node6</title>
<path fill="none" stroke="#191970" d="M1609.7143,-166.5362C1606.7667,-166.0079 1603.8399,-165.4911 1601,-165 1516.4064,-150.3711 1417.3845,-134.9427 1361.1401,-126.3379"/>
<polygon fill="#191970" stroke="#191970" points="1361.5627,-122.8619 1351.149,-124.8123 1360.5061,-129.7817 1361.5627,-122.8619"/>
</g>
<!-- Node18&#45;&gt;Node6 -->
<g id="edge39" class="edge">
<title>Node18&#45;&gt;Node6</title>
<path fill="none" stroke="#191970" d="M750.0976,-275.2754C758.4375,-252.0498 783.7743,-191.1531 828,-165 865.5985,-142.7659 1156.8489,-126.9264 1270.6488,-121.5281"/>
<polygon fill="#191970" stroke="#191970" points="1270.9498,-125.018 1280.7748,-121.0532 1270.6218,-118.0257 1270.9498,-125.018"/>
</g>
<!-- Node18&#45;&gt;Node8 -->
<g id="edge40" class="edge">
<title>Node18&#45;&gt;Node8</title>
<path fill="none" stroke="#191970" d="M706.3959,-276.4059C703.5583,-275.9086 700.7387,-275.4344 698,-275 633.6448,-264.793 455.3009,-282.7356 407,-239 378.8569,-213.5169 376.8334,-165.4724 378.1875,-138.7184"/>
<polygon fill="#191970" stroke="#191970" points="381.6827,-138.9088 378.9083,-128.6837 374.7007,-138.4072 381.6827,-138.9088"/>
</g>
<!-- Node18&#45;&gt;Node9 -->
<g id="edge38" class="edge">
<title>Node18&#45;&gt;Node9</title>
<path fill="none" stroke="#191970" d="M743.5248,-275.2508C732.1066,-246.149 692.84,-155.6837 630,-110 603.1374,-90.4713 568.1215,-79.3061 537.6985,-72.9312"/>
<polygon fill="#191970" stroke="#191970" points="538.062,-69.436 527.5755,-70.9478 536.7159,-76.3054 538.062,-69.436"/>
</g>
<!-- Node19 -->
<g id="node20" class="node">
<title>Node19</title>
<g id="a_node20"><a xlink:href="dji__ack_8hpp.html" target="_top" xlink:title="All DJI OSDK ACK parsing.">
<polygon fill="#ffffff" stroke="#000000" points="1116.7046,-220.5 1116.7046,-238.5 1183.2954,-238.5 1183.2954,-220.5 1116.7046,-220.5"/>
<text text-anchor="middle" x="1150" y="-226.5" font-family="Helvetica,sans-Serif" font-size="10.00" fill="#000000">dji_ack.hpp</text>
</a>
</g>
</g>
<!-- Node18&#45;&gt;Node19 -->
<g id="edge29" class="edge">
<title>Node18&#45;&gt;Node19</title>
<path fill="none" stroke="#191970" d="M787.8596,-278.9236C864.2712,-268.4953 1028.1406,-246.1309 1106.5109,-235.4352"/>
<polygon fill="#191970" stroke="#191970" points="1107.0994,-238.8875 1116.5342,-234.0673 1106.1527,-231.9518 1107.0994,-238.8875"/>
</g>
<!-- Node19&#45;&gt;Node3 -->
<g id="edge30" class="edge">
<title>Node19&#45;&gt;Node3</title>
<path fill="none" stroke="#191970" d="M1183.36,-227.9919C1300.264,-222.5486 1685.2971,-203.2192 1703,-184 1734.4541,-149.8517 1664.7726,-133.0475 1609.9069,-125.3402"/>
<polygon fill="#191970" stroke="#191970" points="1610.2364,-121.8533 1599.8624,-124.0048 1609.3139,-128.7922 1610.2364,-121.8533"/>
</g>
<!-- Node19&#45;&gt;Node6 -->
<g id="edge33" class="edge">
<title>Node19&#45;&gt;Node6</title>
<path fill="none" stroke="#191970" d="M1150.1049,-220.2391C1150.7712,-206.345 1154.08,-180.1258 1169,-165 1183.3802,-150.4214 1233.2518,-136.9868 1270.9514,-128.5539"/>
<polygon fill="#191970" stroke="#191970" points="1271.7106,-131.9707 1280.7324,-126.4158 1270.2157,-125.1322 1271.7106,-131.9707"/>
</g>
<!-- Node20 -->
<g id="node21" class="node">
<title>Node20</title>
<g id="a_node21"><a xlink:href="dji__mission__type_8hpp.html" target="_top" xlink:title="Mission related data struct for DJI OSDK library.">
<polygon fill="#ffffff" stroke="#000000" points="1178.3057,-165.5 1178.3057,-183.5 1287.6943,-183.5 1287.6943,-165.5 1178.3057,-165.5"/>
<text text-anchor="middle" x="1233" y="-171.5" font-family="Helvetica,sans-Serif" font-size="10.00" fill="#000000">dji_mission_type.hpp</text>
</a>
</g>
</g>
<!-- Node19&#45;&gt;Node20 -->
<g id="edge31" class="edge">
<title>Node19&#45;&gt;Node20</title>
<path fill="none" stroke="#191970" d="M1163.7058,-220.4179C1176.4411,-211.9788 1195.6395,-199.257 1210.6012,-189.3426"/>
<polygon fill="#191970" stroke="#191970" points="1212.8713,-192.037 1219.2739,-183.5956 1209.0046,-186.2019 1212.8713,-192.037"/>
</g>
<!-- Node19&#45;&gt;Node21 -->
<g id="edge34" class="edge">
<title>Node19&#45;&gt;Node21</title>
<path fill="none" stroke="#191970" d="M1129.6891,-220.4179C1109.7479,-211.5011 1079.1141,-197.803 1056.4915,-187.6873"/>
<polygon fill="#191970" stroke="#191970" points="1057.8988,-184.4826 1047.3411,-183.5956 1055.0413,-190.8728 1057.8988,-184.4826"/>
</g>
<!-- Node22 -->
<g id="node23" class="node">
<title>Node22</title>
<g id="a_node23"><a xlink:title=" ">
<polygon fill="#ffffff" stroke="#bfbfbf" points="1086.2734,-165.5 1086.2734,-183.5 1121.7266,-183.5 1121.7266,-165.5 1086.2734,-165.5"/>
<text text-anchor="middle" x="1104" y="-171.5" font-family="Helvetica,sans-Serif" font-size="10.00" fill="#000000">map</text>
</a>
</g>
</g>
<!-- Node19&#45;&gt;Node22 -->
<g id="edge37" class="edge">
<title>Node19&#45;&gt;Node22</title>
<path fill="none" stroke="#191970" d="M1142.404,-220.4179C1135.8515,-212.5833 1126.2118,-201.0575 1118.2296,-191.5137"/>
<polygon fill="#191970" stroke="#191970" points="1120.8614,-189.2048 1111.761,-183.7795 1115.4918,-193.6957 1120.8614,-189.2048"/>
</g>
<!-- Node20&#45;&gt;Node6 -->
<g id="edge32" class="edge">
<title>Node20&#45;&gt;Node6</title>
<path fill="none" stroke="#191970" d="M1246.7058,-165.4179C1259.4411,-156.9788 1278.6395,-144.257 1293.6012,-134.3426"/>
<polygon fill="#191970" stroke="#191970" points="1295.8713,-137.037 1302.2739,-128.5956 1292.0046,-131.2019 1295.8713,-137.037"/>
</g>
<!-- Node21&#45;&gt;Node3 -->
<g id="edge35" class="edge">
<title>Node21&#45;&gt;Node3</title>
<path fill="none" stroke="#191970" d="M1068.6939,-166.2802C1071.5002,-165.819 1074.2883,-165.3866 1077,-165 1226.6932,-143.656 1404.3921,-129.6182 1494.0662,-123.3183"/>
<polygon fill="#191970" stroke="#191970" points="1494.5638,-126.7922 1504.2967,-122.6064 1494.0778,-119.8091 1494.5638,-126.7922"/>
</g>
<!-- Node21&#45;&gt;Node14 -->
<g id="edge36" class="edge">
<title>Node21&#45;&gt;Node14</title>
<path fill="none" stroke="#191970" d="M985.1823,-169.1262C900.2039,-158.2061 708.889,-133.6213 631.9578,-123.7352"/>
<polygon fill="#191970" stroke="#191970" points="632.2492,-120.244 621.8846,-122.4408 631.3569,-127.1869 632.2492,-120.244"/>
</g>
<!-- Node23&#45;&gt;Node3 -->
<g id="edge42" class="edge">
<title>Node23&#45;&gt;Node3</title>
<path fill="none" stroke="#191970" d="M1552,-165.4179C1552,-158.2164 1552,-147.8962 1552,-138.8632"/>
<polygon fill="#191970" stroke="#191970" points="1555.5001,-138.7794 1552,-128.7795 1548.5001,-138.7795 1555.5001,-138.7794"/>
</g>
<!-- Node23&#45;&gt;Node6 -->
<g id="edge43" class="edge">
<title>Node23&#45;&gt;Node6</title>
<path fill="none" stroke="#191970" d="M1513.2937,-165.4795C1471.5607,-155.7536 1405.1994,-140.288 1361.127,-130.0169"/>
<polygon fill="#191970" stroke="#191970" points="1361.7893,-126.5775 1351.2559,-127.7164 1360.2005,-133.3948 1361.7893,-126.5775"/>
</g>
<!-- Node25&#45;&gt;Node6 -->
<g id="edge46" class="edge">
<title>Node25&#45;&gt;Node6</title>
<path fill="none" stroke="#191970" d="M966.8285,-220.1261C964.1868,-206.0844 961.6862,-179.6752 976,-165 996.279,-144.2091 1183.0686,-128.6844 1270.8342,-122.4722"/>
<polygon fill="#191970" stroke="#191970" points="1271.2964,-125.9486 1281.0286,-121.7611 1270.8092,-118.9655 1271.2964,-125.9486"/>
</g>
<!-- Node26&#45;&gt;Node8 -->
<g id="edge48" class="edge">
<title>Node26&#45;&gt;Node8</title>
<path fill="none" stroke="#191970" d="M97.0771,-220.3412C91.869,-206.5805 84.7722,-180.5331 98,-165 111.5008,-149.1463 228.6741,-134.5098 307.6715,-126.3177"/>
<polygon fill="#191970" stroke="#191970" points="308.4766,-129.7537 318.0682,-125.2537 307.7639,-122.79 308.4766,-129.7537"/>
</g>
<!-- Node27&#45;&gt;Node8 -->
<g id="edge52" class="edge">
<title>Node27&#45;&gt;Node8</title>
<path fill="none" stroke="#191970" d="M248.2912,-275.0713C250.4441,-261.8737 255.6987,-237.5435 267,-220 290.6564,-183.2771 331.2953,-151.8365 356.849,-134.3242"/>
<polygon fill="#191970" stroke="#191970" points="358.8465,-137.1989 365.2059,-128.725 354.9501,-131.3836 358.8465,-137.1989"/>
</g>
<!-- Node28 -->
<g id="node29" class="node">
<title>Node28</title>
<g id="a_node29"><a xlink:title=" ">
<polygon fill="#ffffff" stroke="#bfbfbf" points="276.0938,-220.5 276.0938,-238.5 359.9063,-238.5 359.9063,-220.5 276.0938,-220.5"/>
<text text-anchor="middle" x="318" y="-226.5" font-family="Helvetica,sans-Serif" font-size="10.00" fill="#000000">dji_macros.hpp</text>
</a>
</g>
</g>
<!-- Node27&#45;&gt;Node28 -->
<g id="edge51" class="edge">
<title>Node27&#45;&gt;Node28</title>
<path fill="none" stroke="#191970" d="M258.7242,-275.4179C269.3488,-267.1876 285.2317,-254.8839 297.8831,-245.0836"/>
<polygon fill="#191970" stroke="#191970" points="300.259,-247.6704 306.0211,-238.7795 295.9721,-242.1365 300.259,-247.6704"/>
</g>
<!-- Node29&#45;&gt;Node8 -->
<g id="edge54" class="edge">
<title>Node29&#45;&gt;Node8</title>
<path fill="none" stroke="#191970" d="M199.668,-165.4179C236.6731,-155.9953 294.6462,-141.2336 334.829,-131.0019"/>
<polygon fill="#191970" stroke="#191970" points="335.8109,-134.3636 344.638,-128.5042 334.0836,-127.5801 335.8109,-134.3636"/>
</g>
<!-- Node32&#45;&gt;Node8 -->
<g id="edge61" class="edge">
<title>Node32&#45;&gt;Node8</title>
<path fill="none" stroke="#191970" d="M460.7986,-220.4982C446.1663,-202.2079 412.7443,-160.4304 393.7883,-136.7354"/>
<polygon fill="#191970" stroke="#191970" points="396.2809,-134.2484 387.3009,-128.6261 390.8149,-138.6213 396.2809,-134.2484"/>
</g>
<!-- Node32&#45;&gt;Node9 -->
<g id="edge59" class="edge">
<title>Node32&#45;&gt;Node9</title>
<path fill="none" stroke="#191970" d="M468.1133,-220.1561C468.4309,-193.9504 469.3351,-119.3557 469.766,-83.8021"/>
<polygon fill="#191970" stroke="#191970" points="473.2664,-83.7831 469.888,-73.7414 466.2669,-83.6982 473.2664,-83.7831"/>
</g>
<!-- Node32&#45;&gt;Node10 -->
<g id="edge60" class="edge">
<title>Node32&#45;&gt;Node10</title>
<path fill="none" stroke="#191970" d="M520.56,-222.5342C599.2046,-212.1114 746.8384,-192.5455 827.2839,-181.8841"/>
<polygon fill="#191970" stroke="#191970" points="827.773,-185.3499 837.2264,-180.5664 826.8533,-178.4106 827.773,-185.3499"/>
</g>
<!-- Node34&#45;&gt;Node6 -->
<g id="edge69" class="edge">
<title>Node34&#45;&gt;Node6</title>
<path fill="none" stroke="#191970" d="M1316,-275.1561C1316,-248.9504 1316,-174.3557 1316,-138.8021"/>
<polygon fill="#191970" stroke="#191970" points="1319.5001,-138.7414 1316,-128.7414 1312.5001,-138.7414 1319.5001,-138.7414"/>
</g>
<!-- Node34&#45;&gt;Node9 -->
<g id="edge68" class="edge">
<title>Node34&#45;&gt;Node9</title>
<path fill="none" stroke="#191970" d="M1270.1218,-276.3235C1267.0385,-275.8518 1263.9764,-275.4054 1261,-275 1101.6727,-253.3017 1055.0229,-285.1837 901,-239 782.7476,-203.5421 770.4502,-153.7281 655,-110 614.7114,-94.7402 567.5276,-83.2298 530.8953,-75.6038"/>
<polygon fill="#191970" stroke="#191970" points="531.3553,-72.1257 520.8575,-73.556 529.956,-78.9844 531.3553,-72.1257"/>
</g>
<!-- Node34&#45;&gt;Node10 -->
<g id="edge70" class="edge">
<title>Node34&#45;&gt;Node10</title>
<path fill="none" stroke="#191970" d="M1270.7679,-275.4735C1228.5025,-266.8339 1163.7323,-253.0688 1108,-239 1072.9487,-230.1518 977.9326,-202.4459 923.2372,-186.3695"/>
<polygon fill="#191970" stroke="#191970" points="924.0985,-182.9746 913.5172,-183.5102 922.123,-189.6901 924.0985,-182.9746"/>
</g>
<!-- Node34&#45;&gt;Node19 -->
<g id="edge67" class="edge">
<title>Node34&#45;&gt;Node19</title>
<path fill="none" stroke="#191970" d="M1288.5885,-275.4179C1260.7519,-266.1949 1217.4766,-251.8567 1186.6957,-241.6582"/>
<polygon fill="#191970" stroke="#191970" points="1187.7697,-238.327 1177.1763,-238.5042 1185.5681,-244.9718 1187.7697,-238.327"/>
</g>
</g>
</svg>
