<?xml version="1.0" encoding="UTF-8" standalone="no"?>
<!DOCTYPE svg PUBLIC "-//W3C//DTD SVG 1.1//EN"
 "http://www.w3.org/Graphics/SVG/1.1/DTD/svg11.dtd">
<!-- Generated by graphviz version 2.40.1 (20161225.0304)
 -->
<!-- Title: osdk&#45;core/api/src/dji_hardware_sync.cpp Pages: 1 -->
<svg width="1924pt" height="422pt"
 viewBox="0.00 0.00 1923.55 422.00" xmlns="http://www.w3.org/2000/svg" xmlns:xlink="http://www.w3.org/1999/xlink">
<g id="graph0" class="graph" transform="scale(1 1) rotate(0) translate(4 418)">
<title>osdk&#45;core/api/src/dji_hardware_sync.cpp</title>
<polygon fill="#ffffff" stroke="transparent" points="-4,4 -4,-418 1919.5485,-418 1919.5485,4 -4,4"/>
<!-- Node0 -->
<g id="node1" class="node">
<title>Node0</title>
<g id="a_node1"><a xlink:title="Hardware Sync API for DJI OSDK.">
<polygon fill="#bfbfbf" stroke="#000000" points="467.2832,-385.5 467.2832,-413.5 575.5586,-413.5 575.5586,-385.5 467.2832,-385.5"/>
<text text-anchor="start" x="475.2832" y="-401.5" font-family="Helvetica,sans-Serif" font-size="10.00" fill="#000000">osdk&#45;core/api/src/dji</text>
<text text-anchor="middle" x="521.4209" y="-391.5" font-family="Helvetica,sans-Serif" font-size="10.00" fill="#000000">_hardware_sync.cpp</text>
</a>
</g>
</g>
<!-- Node1 -->
<g id="node2" class="node">
<title>Node1</title>
<g id="a_node2"><a xlink:href="dji__hardware__sync_8hpp.html" target="_top" xlink:title="Hardware Sync API for DJI OSDK.">
<polygon fill="#ffffff" stroke="#000000" points="0,-275.5 0,-293.5 118.8418,-293.5 118.8418,-275.5 0,-275.5"/>
<text text-anchor="middle" x="59.4209" y="-281.5" font-family="Helvetica,sans-Serif" font-size="10.00" fill="#000000">dji_hardware_sync.hpp</text>
</a>
</g>
</g>
<!-- Node0&#45;&gt;Node1 -->
<g id="edge1" class="edge">
<title>Node0&#45;&gt;Node1</title>
<path fill="none" stroke="#191970" d="M467.0651,-385.9699C375.288,-363.1249 191.2359,-317.3111 105.4279,-295.952"/>
<polygon fill="#191970" stroke="#191970" points="106.2587,-292.552 95.7094,-293.5329 104.5678,-299.3448 106.2587,-292.552"/>
</g>
<!-- Node5 -->
<g id="node6" class="node">
<title>Node5</title>
<g id="a_node6"><a xlink:href="dji__vehicle_8hpp.html" target="_top" xlink:title="Vehicle API for DJI onboardSDK library.">
<polygon fill="#ffffff" stroke="#000000" points="873.3423,-330.5 873.3423,-348.5 955.4995,-348.5 955.4995,-330.5 873.3423,-330.5"/>
<text text-anchor="middle" x="914.4209" y="-336.5" font-family="Helvetica,sans-Serif" font-size="10.00" fill="#000000">dji_vehicle.hpp</text>
</a>
</g>
</g>
<!-- Node0&#45;&gt;Node5 -->
<g id="edge5" class="edge">
<title>Node0&#45;&gt;Node5</title>
<path fill="none" stroke="#191970" d="M575.6533,-391.2203C651.672,-379.6143 788.9182,-358.6607 863.2512,-347.3122"/>
<polygon fill="#191970" stroke="#191970" points="863.9522,-350.7458 873.3094,-345.7766 862.8957,-343.826 863.9522,-350.7458"/>
</g>
<!-- Node2 -->
<g id="node3" class="node">
<title>Node2</title>
<g id="a_node3"><a xlink:href="dji__type_8hpp.html" target="_top" xlink:title="Data type and Data Structure definitions for use throughout DJI OSDK.">
<polygon fill="#ffffff" stroke="#000000" points="372.4556,-110.5 372.4556,-128.5 442.3862,-128.5 442.3862,-110.5 372.4556,-110.5"/>
<text text-anchor="middle" x="407.4209" y="-116.5" font-family="Helvetica,sans-Serif" font-size="10.00" fill="#000000">dji_type.hpp</text>
</a>
</g>
</g>
<!-- Node1&#45;&gt;Node2 -->
<g id="edge2" class="edge">
<title>Node1&#45;&gt;Node2</title>
<path fill="none" stroke="#191970" d="M77.5319,-275.4512C118.1221,-255.2266 219.5542,-204.9945 305.4209,-165 329.4385,-153.8132 356.8761,-141.6058 377.2405,-132.6543"/>
<polygon fill="#191970" stroke="#191970" points="378.8705,-135.7613 386.6234,-128.5402 376.0595,-129.3505 378.8705,-135.7613"/>
</g>
<!-- Node3 -->
<g id="node4" class="node">
<title>Node3</title>
<g id="a_node4"><a xlink:title=" ">
<polygon fill="#ffffff" stroke="#bfbfbf" points="390.3594,-55.5 390.3594,-73.5 432.4824,-73.5 432.4824,-55.5 390.3594,-55.5"/>
<text text-anchor="middle" x="411.4209" y="-61.5" font-family="Helvetica,sans-Serif" font-size="10.00" fill="#000000">cstdio</text>
</a>
</g>
</g>
<!-- Node2&#45;&gt;Node3 -->
<g id="edge3" class="edge">
<title>Node2&#45;&gt;Node3</title>
<path fill="none" stroke="#191970" d="M408.0814,-110.4179C408.6052,-103.2164 409.3557,-92.8962 410.0127,-83.8632"/>
<polygon fill="#191970" stroke="#191970" points="413.5114,-84.007 410.746,-73.7795 406.5298,-83.4992 413.5114,-84.007"/>
</g>
<!-- Node4 -->
<g id="node5" class="node">
<title>Node4</title>
<g id="a_node5"><a xlink:title=" ">
<polygon fill="#ffffff" stroke="#bfbfbf" points="300.3003,-.5 300.3003,-18.5 348.5415,-18.5 348.5415,-.5 300.3003,-.5"/>
<text text-anchor="middle" x="324.4209" y="-6.5" font-family="Helvetica,sans-Serif" font-size="10.00" fill="#000000">stdint.h</text>
</a>
</g>
</g>
<!-- Node2&#45;&gt;Node4 -->
<g id="edge4" class="edge">
<title>Node2&#45;&gt;Node4</title>
<path fill="none" stroke="#191970" d="M400.6287,-110.4982C386.8278,-92.2079 355.3047,-50.4304 337.4258,-26.7354"/>
<polygon fill="#191970" stroke="#191970" points="340.1241,-24.5006 331.307,-18.6261 334.5363,-28.7168 340.1241,-24.5006"/>
</g>
<!-- Node5&#45;&gt;Node1 -->
<g id="edge37" class="edge">
<title>Node5&#45;&gt;Node1</title>
<path fill="none" stroke="#191970" d="M873.2208,-338.1385C756.7264,-334.0656 415.0603,-320.5794 132.4209,-294 131.3393,-293.8983 130.2491,-293.7929 129.152,-293.6841"/>
<polygon fill="#191970" stroke="#191970" points="129.4527,-290.1964 119.1397,-292.6239 128.7155,-297.1575 129.4527,-290.1964"/>
</g>
<!-- Node5&#45;&gt;Node2 -->
<g id="edge62" class="edge">
<title>Node5&#45;&gt;Node2</title>
<path fill="none" stroke="#191970" d="M873.0331,-338.1292C770.6684,-334.3435 507.9467,-322.1072 425.4209,-294 382.1181,-279.2517 360.4937,-279.0678 338.4209,-239 322.5515,-210.193 322.8291,-193.9581 338.4209,-165 345.993,-150.9365 360.0256,-140.5006 373.4688,-133.1966"/>
<polygon fill="#191970" stroke="#191970" points="375.2154,-136.2365 382.5949,-128.6342 372.0853,-129.9753 375.2154,-136.2365"/>
</g>
<!-- Node6 -->
<g id="node7" class="node">
<title>Node6</title>
<g id="a_node7"><a xlink:title=" ">
<polygon fill="#ffffff" stroke="#bfbfbf" points="1059.9702,-110.5 1059.9702,-128.5 1104.8716,-128.5 1104.8716,-110.5 1059.9702,-110.5"/>
<text text-anchor="middle" x="1082.4209" y="-116.5" font-family="Helvetica,sans-Serif" font-size="10.00" fill="#000000">cstdint</text>
</a>
</g>
</g>
<!-- Node5&#45;&gt;Node6 -->
<g id="edge6" class="edge">
<title>Node5&#45;&gt;Node6</title>
<path fill="none" stroke="#191970" d="M916.864,-330.1436C921.0024,-316.1249 930.7193,-289.7451 948.4209,-275 989.5716,-240.7223 1028.4074,-279.5265 1063.4209,-239 1087.7064,-210.8906 1087.5071,-164.5966 1085.0612,-138.6521"/>
<polygon fill="#191970" stroke="#191970" points="1088.5241,-138.1282 1083.8999,-128.5958 1081.5703,-138.9314 1088.5241,-138.1282"/>
</g>
<!-- Node7 -->
<g id="node8" class="node">
<title>Node7</title>
<g id="a_node8"><a xlink:href="dji__broadcast_8hpp.html" target="_top" xlink:title="Broadcast Telemetry API for DJI onboardSDK library.">
<polygon fill="#ffffff" stroke="#000000" points="959.9482,-220.5 959.9482,-238.5 1054.8936,-238.5 1054.8936,-220.5 959.9482,-220.5"/>
<text text-anchor="middle" x="1007.4209" y="-226.5" font-family="Helvetica,sans-Serif" font-size="10.00" fill="#000000">dji_broadcast.hpp</text>
</a>
</g>
</g>
<!-- Node5&#45;&gt;Node7 -->
<g id="edge7" class="edge">
<title>Node5&#45;&gt;Node7</title>
<path fill="none" stroke="#191970" d="M908.4433,-330.3698C900.5863,-317.1021 889.0424,-292.203 900.4209,-275 911.7575,-257.8603 930.9981,-247.157 950.0639,-240.4816"/>
<polygon fill="#191970" stroke="#191970" points="951.2009,-243.7929 959.6734,-237.4314 949.0831,-237.1209 951.2009,-243.7929"/>
</g>
<!-- Node9 -->
<g id="node10" class="node">
<title>Node9</title>
<g id="a_node10"><a xlink:href="dji__vehicle__callback_8hpp.html" target="_top" xlink:title="Type definition for new Vehicle&#45;style callbacks.">
<polygon fill="#ffffff" stroke="#000000" points="1189.4976,-110.5 1189.4976,-128.5 1313.3442,-128.5 1313.3442,-110.5 1189.4976,-110.5"/>
<text text-anchor="middle" x="1251.4209" y="-116.5" font-family="Helvetica,sans-Serif" font-size="10.00" fill="#000000">dji_vehicle_callback.hpp</text>
</a>
</g>
</g>
<!-- Node5&#45;&gt;Node9 -->
<g id="edge63" class="edge">
<title>Node5&#45;&gt;Node9</title>
<path fill="none" stroke="#191970" d="M955.6219,-338.5466C1109.0827,-334.798 1639.9605,-319.9893 1664.4209,-294 1769.5928,-182.2544 1467.8544,-139.1318 1323.5511,-125.21"/>
<polygon fill="#191970" stroke="#191970" points="1323.7253,-121.711 1313.4411,-124.2575 1323.0687,-128.6801 1323.7253,-121.711"/>
</g>
<!-- Node10 -->
<g id="node11" class="node">
<title>Node10</title>
<g id="a_node11"><a xlink:title=" ">
<polygon fill="#ffffff" stroke="#bfbfbf" points="1104.2144,-55.5 1104.2144,-73.5 1218.6274,-73.5 1218.6274,-55.5 1104.2144,-55.5"/>
<text text-anchor="middle" x="1161.4209" y="-61.5" font-family="Helvetica,sans-Serif" font-size="10.00" fill="#000000">dji_open_protocol.hpp</text>
</a>
</g>
</g>
<!-- Node5&#45;&gt;Node10 -->
<g id="edge54" class="edge">
<title>Node5&#45;&gt;Node10</title>
<path fill="none" stroke="#191970" d="M955.7221,-338.9126C1137.3722,-336.1608 1857.9273,-323.4209 1895.4209,-294 1918.9313,-275.5515 1914.4209,-259.3846 1914.4209,-229.5 1914.4209,-229.5 1914.4209,-229.5 1914.4209,-174.5 1914.4209,-105.5343 1413.4801,-75.8916 1228.7679,-67.3057"/>
<polygon fill="#191970" stroke="#191970" points="1228.7862,-63.8029 1218.6363,-66.8412 1228.4655,-70.7956 1228.7862,-63.8029"/>
</g>
<!-- Node11 -->
<g id="node12" class="node">
<title>Node11</title>
<g id="a_node12"><a xlink:href="dji__camera_8hpp.html" target="_top" xlink:title="Camera/Gimbal API for DJI onboardSDK library.">
<polygon fill="#ffffff" stroke="#000000" points="33.2339,-165.5 33.2339,-183.5 117.6079,-183.5 117.6079,-165.5 33.2339,-165.5"/>
<text text-anchor="middle" x="75.4209" y="-171.5" font-family="Helvetica,sans-Serif" font-size="10.00" fill="#000000">dji_camera.hpp</text>
</a>
</g>
</g>
<!-- Node5&#45;&gt;Node11 -->
<g id="edge12" class="edge">
<title>Node5&#45;&gt;Node11</title>
<path fill="none" stroke="#191970" d="M872.9178,-338.9475C750.4967,-336.9358 392.5128,-328.2074 281.4209,-294 206.3796,-270.8933 129.3112,-216.308 94.5183,-189.6626"/>
<polygon fill="#191970" stroke="#191970" points="96.6567,-186.8918 86.6105,-183.5266 92.3654,-192.4222 96.6567,-186.8918"/>
</g>
<!-- Node12 -->
<g id="node13" class="node">
<title>Node12</title>
<g id="a_node13"><a xlink:href="dji__command_8hpp.html" target="_top" xlink:title="All DJI OSDK OpenProtocol Command IDs.">
<polygon fill="#ffffff" stroke="#000000" points="226.9531,-110.5 226.9531,-128.5 321.8887,-128.5 321.8887,-110.5 226.9531,-110.5"/>
<text text-anchor="middle" x="274.4209" y="-116.5" font-family="Helvetica,sans-Serif" font-size="10.00" fill="#000000">dji_command.hpp</text>
</a>
</g>
</g>
<!-- Node5&#45;&gt;Node12 -->
<g id="edge19" class="edge">
<title>Node5&#45;&gt;Node12</title>
<path fill="none" stroke="#191970" d="M873.3246,-339.0288C744.8772,-337.2019 352.2874,-328.8378 230.4209,-294 130.6276,-265.4723 77.7984,-273.0134 24.4209,-184 20.0781,-176.7579 19.0107,-171.4837 24.4209,-165 48.3991,-136.2638 150.4134,-125.632 216.4883,-121.7294"/>
<polygon fill="#191970" stroke="#191970" points="216.9762,-125.2078 226.7669,-121.159 216.5883,-118.2185 216.9762,-125.2078"/>
</g>
<!-- Node14 -->
<g id="node15" class="node">
<title>Node14</title>
<g id="a_node15"><a xlink:title=" ">
<polygon fill="#ffffff" stroke="#bfbfbf" points="1018.5879,-275.5 1018.5879,-293.5 1132.2539,-293.5 1132.2539,-275.5 1018.5879,-275.5"/>
<text text-anchor="middle" x="1075.4209" y="-281.5" font-family="Helvetica,sans-Serif" font-size="10.00" fill="#000000">dji_circular_buffer.hpp</text>
</a>
</g>
</g>
<!-- Node5&#45;&gt;Node14 -->
<g id="edge18" class="edge">
<title>Node5&#45;&gt;Node14</title>
<path fill="none" stroke="#191970" d="M941.0068,-330.4179C967.888,-321.2348 1009.6136,-306.9807 1039.4421,-296.7909"/>
<polygon fill="#191970" stroke="#191970" points="1040.7315,-300.0491 1049.0631,-293.5042 1038.4686,-293.4249 1040.7315,-300.0491"/>
</g>
<!-- Node15 -->
<g id="node16" class="node">
<title>Node15</title>
<g id="a_node16"><a xlink:href="dji__control_8hpp.html" target="_top" xlink:title="Control API for DJI OSDK library.">
<polygon fill="#ffffff" stroke="#000000" points="766.8989,-275.5 766.8989,-293.5 847.9429,-293.5 847.9429,-275.5 766.8989,-275.5"/>
<text text-anchor="middle" x="807.4209" y="-281.5" font-family="Helvetica,sans-Serif" font-size="10.00" fill="#000000">dji_control.hpp</text>
</a>
</g>
</g>
<!-- Node5&#45;&gt;Node15 -->
<g id="edge20" class="edge">
<title>Node5&#45;&gt;Node15</title>
<path fill="none" stroke="#191970" d="M896.752,-330.4179C879.7146,-321.6603 853.7047,-308.2907 834.137,-298.2326"/>
<polygon fill="#191970" stroke="#191970" points="835.61,-295.0544 825.116,-293.5956 832.4098,-301.2801 835.61,-295.0544"/>
</g>
<!-- Node18 -->
<g id="node19" class="node">
<title>Node18</title>
<g id="a_node19"><a xlink:href="dji__version_8hpp.html" target="_top" xlink:title="Drone/SDK Version definition for DJI onboardSDK library.">
<polygon fill="#ffffff" stroke="#000000" points="734.7881,-165.5 734.7881,-183.5 818.0537,-183.5 818.0537,-165.5 734.7881,-165.5"/>
<text text-anchor="middle" x="776.4209" y="-171.5" font-family="Helvetica,sans-Serif" font-size="10.00" fill="#000000">dji_version.hpp</text>
</a>
</g>
</g>
<!-- Node5&#45;&gt;Node18 -->
<g id="edge64" class="edge">
<title>Node5&#45;&gt;Node18</title>
<path fill="none" stroke="#191970" d="M873.199,-333.2363C831.5321,-325.9631 771.3565,-312.5476 757.4209,-294 734.9183,-264.05 752.9857,-217.8394 766.0207,-192.5553"/>
<polygon fill="#191970" stroke="#191970" points="769.1439,-194.138 770.8389,-183.6796 762.9919,-190.7983 769.1439,-194.138"/>
</g>
<!-- Node20 -->
<g id="node21" class="node">
<title>Node20</title>
<g id="a_node21"><a xlink:href="dji__gimbal_8hpp.html" target="_top" xlink:title="Gimbal API for OSDK library.">
<polygon fill="#ffffff" stroke="#000000" points="135.1772,-165.5 135.1772,-183.5 215.6646,-183.5 215.6646,-165.5 135.1772,-165.5"/>
<text text-anchor="middle" x="175.4209" y="-171.5" font-family="Helvetica,sans-Serif" font-size="10.00" fill="#000000">dji_gimbal.hpp</text>
</a>
</g>
</g>
<!-- Node5&#45;&gt;Node20 -->
<g id="edge33" class="edge">
<title>Node5&#45;&gt;Node20</title>
<path fill="none" stroke="#191970" d="M873.2125,-338.5281C744.2477,-335.1969 354.0475,-322.8169 305.4209,-294 271.6962,-274.0142 286.0784,-246.7495 257.4209,-220 242.9948,-206.5343 223.8466,-195.6198 207.682,-187.8593"/>
<polygon fill="#191970" stroke="#191970" points="209.1145,-184.6657 198.5676,-183.6591 206.1848,-191.0231 209.1145,-184.6657"/>
</g>
<!-- Node21 -->
<g id="node22" class="node">
<title>Node21</title>
<g id="a_node22"><a xlink:title=" ">
<polygon fill="#ffffff" stroke="#bfbfbf" points="1149.8892,-275.5 1149.8892,-293.5 1250.9526,-293.5 1250.9526,-275.5 1149.8892,-275.5"/>
<text text-anchor="middle" x="1200.4209" y="-281.5" font-family="Helvetica,sans-Serif" font-size="10.00" fill="#000000">dji_hard_driver.hpp</text>
</a>
</g>
</g>
<!-- Node5&#45;&gt;Node21 -->
<g id="edge36" class="edge">
<title>Node5&#45;&gt;Node21</title>
<path fill="none" stroke="#191970" d="M955.7023,-331.5613C1005.0701,-322.0675 1087.9728,-306.1246 1143.4244,-295.4609"/>
<polygon fill="#191970" stroke="#191970" points="1144.2856,-298.8595 1153.4447,-293.5339 1142.9636,-291.9854 1144.2856,-298.8595"/>
</g>
<!-- Node22 -->
<g id="node23" class="node">
<title>Node22</title>
<g id="a_node23"><a xlink:href="dji__mfio_8hpp.html" target="_top" xlink:title="MFIO API for DJI OSDK library.">
<polygon fill="#ffffff" stroke="#000000" points="1270.4604,-220.5 1270.4604,-238.5 1340.3813,-238.5 1340.3813,-220.5 1270.4604,-220.5"/>
<text text-anchor="middle" x="1305.4209" y="-226.5" font-family="Helvetica,sans-Serif" font-size="10.00" fill="#000000">dji_mfio.hpp</text>
</a>
</g>
</g>
<!-- Node5&#45;&gt;Node22 -->
<g id="edge38" class="edge">
<title>Node5&#45;&gt;Node22</title>
<path fill="none" stroke="#191970" d="M926.2522,-330.4705C947.5271,-314.4057 991.6752,-281.895 1009.4209,-275 1112.8273,-234.8219 1147.0473,-257.5626 1256.4209,-239 1257.6944,-238.7839 1258.9857,-238.5607 1260.2884,-238.332"/>
<polygon fill="#191970" stroke="#191970" points="1261.1795,-241.7276 1270.3934,-236.4974 1259.929,-234.8402 1261.1795,-241.7276"/>
</g>
<!-- Node23 -->
<g id="node24" class="node">
<title>Node23</title>
<g id="a_node24"><a xlink:href="dji__mission__manager_8hpp.html" target="_top" xlink:title="Mission&#45;Manager API for DJI OSDK library.">
<polygon fill="#ffffff" stroke="#000000" points="434.7168,-275.5 434.7168,-293.5 564.125,-293.5 564.125,-275.5 434.7168,-275.5"/>
<text text-anchor="middle" x="499.4209" y="-281.5" font-family="Helvetica,sans-Serif" font-size="10.00" fill="#000000">dji_mission_manager.hpp</text>
</a>
</g>
</g>
<!-- Node5&#45;&gt;Node23 -->
<g id="edge40" class="edge">
<title>Node5&#45;&gt;Node23</title>
<path fill="none" stroke="#191970" d="M873.1119,-334.0253C803.4968,-324.7992 661.859,-306.0279 574.3472,-294.43"/>
<polygon fill="#191970" stroke="#191970" points="574.588,-290.9314 564.2148,-293.0871 573.6682,-297.8707 574.588,-290.9314"/>
</g>
<!-- Node27 -->
<g id="node28" class="node">
<title>Node27</title>
<g id="a_node28"><a xlink:href="dji__mobile__communication_8hpp.html" target="_top" xlink:title="Implementation of DJI Mobile&#45;Onboard SDK Communication (MOC)">
<polygon fill="#ffffff" stroke="#000000" points="1732.771,-275.5 1732.771,-293.5 1886.0708,-293.5 1886.0708,-275.5 1732.771,-275.5"/>
<text text-anchor="middle" x="1809.4209" y="-281.5" font-family="Helvetica,sans-Serif" font-size="10.00" fill="#000000">dji_mobile_communication.hpp</text>
</a>
</g>
</g>
<!-- Node5&#45;&gt;Node27 -->
<g id="edge49" class="edge">
<title>Node5&#45;&gt;Node27</title>
<path fill="none" stroke="#191970" d="M955.8918,-337.8491C1074.7531,-332.9672 1426.8175,-317.459 1718.4209,-294 1719.7123,-293.8961 1721.0138,-293.7892 1722.3234,-293.6796"/>
<polygon fill="#191970" stroke="#191970" points="1722.8334,-297.1484 1732.4905,-292.7906 1722.2236,-290.175 1722.8334,-297.1484"/>
</g>
<!-- Node29 -->
<g id="node30" class="node">
<title>Node29</title>
<g id="a_node30"><a xlink:href="dji__mobile__device_8hpp.html" target="_top" xlink:title="Implementation of DJI Mobile Device Abstraction.">
<polygon fill="#ffffff" stroke="#000000" points="1465.9434,-220.5 1465.9434,-238.5 1580.8984,-238.5 1580.8984,-220.5 1465.9434,-220.5"/>
<text text-anchor="middle" x="1523.4209" y="-226.5" font-family="Helvetica,sans-Serif" font-size="10.00" fill="#000000">dji_mobile_device.hpp</text>
</a>
</g>
</g>
<!-- Node5&#45;&gt;Node29 -->
<g id="edge52" class="edge">
<title>Node5&#45;&gt;Node29</title>
<path fill="none" stroke="#191970" d="M955.7226,-338.4838C1107.0429,-334.5631 1623.5853,-319.3611 1647.4209,-294 1671.6266,-268.2451 1628.1471,-250.9175 1586.1671,-240.7649"/>
<polygon fill="#191970" stroke="#191970" points="1586.9471,-237.353 1576.417,-238.5225 1585.3781,-244.1749 1586.9471,-237.353"/>
</g>
<!-- Node30 -->
<g id="node31" class="node">
<title>Node30</title>
<g id="a_node31"><a xlink:title=" ">
<polygon fill="#ffffff" stroke="#bfbfbf" points="1268.6035,-275.5 1268.6035,-293.5 1400.2383,-293.5 1400.2383,-275.5 1268.6035,-275.5"/>
<text text-anchor="middle" x="1334.4209" y="-281.5" font-family="Helvetica,sans-Serif" font-size="10.00" fill="#000000">dji_platform_manager.hpp</text>
</a>
</g>
</g>
<!-- Node5&#45;&gt;Node30 -->
<g id="edge55" class="edge">
<title>Node5&#45;&gt;Node30</title>
<path fill="none" stroke="#191970" d="M955.8416,-334.0759C1026.0851,-324.8773 1169.5713,-306.0874 1258.3208,-294.4655"/>
<polygon fill="#191970" stroke="#191970" points="1258.8698,-297.9236 1268.3307,-293.1547 1257.9609,-290.9828 1258.8698,-297.9236"/>
</g>
<!-- Node31 -->
<g id="node32" class="node">
<title>Node31</title>
<g id="a_node32"><a xlink:href="dji__status_8hpp.html" target="_top" xlink:title="Status information for DJI Vehicle.">
<polygon fill="#ffffff" stroke="#000000" points="1418.5664,-275.5 1418.5664,-293.5 1496.2754,-293.5 1496.2754,-275.5 1418.5664,-275.5"/>
<text text-anchor="middle" x="1457.4209" y="-281.5" font-family="Helvetica,sans-Serif" font-size="10.00" fill="#000000">dji_status.hpp</text>
</a>
</g>
</g>
<!-- Node5&#45;&gt;Node31 -->
<g id="edge56" class="edge">
<title>Node5&#45;&gt;Node31</title>
<path fill="none" stroke="#191970" d="M955.6605,-337.1605C1039.1672,-332.1102 1234.3908,-318.717 1408.3409,-294.0163"/>
<polygon fill="#191970" stroke="#191970" points="1409.0455,-297.4511 1418.4463,-292.565 1408.0503,-290.5222 1409.0455,-297.4511"/>
</g>
<!-- Node32 -->
<g id="node33" class="node">
<title>Node32</title>
<g id="a_node33"><a xlink:href="dji__subscription_8hpp.html" target="_top" xlink:title="Telemetry Subscription API for DJI OSDK library.">
<polygon fill="#ffffff" stroke="#000000" points="1110.2266,-220.5 1110.2266,-238.5 1214.6152,-238.5 1214.6152,-220.5 1110.2266,-220.5"/>
<text text-anchor="middle" x="1162.4209" y="-226.5" font-family="Helvetica,sans-Serif" font-size="10.00" fill="#000000">dji_subscription.hpp</text>
</a>
</g>
</g>
<!-- Node5&#45;&gt;Node32 -->
<g id="edge57" class="edge">
<title>Node5&#45;&gt;Node32</title>
<path fill="none" stroke="#191970" d="M920.4981,-330.4485C930.4608,-316.344 951.6551,-289.2635 976.4209,-275 997.6903,-262.7502 1056.308,-249.4936 1102.1111,-240.4673"/>
<polygon fill="#191970" stroke="#191970" points="1102.8188,-243.8953 1111.9668,-238.5508 1101.4825,-237.0241 1102.8188,-243.8953"/>
</g>
<!-- Node33 -->
<g id="node34" class="node">
<title>Node33</title>
<g id="a_node34"><a xlink:title=" ">
<polygon fill="#ffffff" stroke="#bfbfbf" points="1514.4878,-275.5 1514.4878,-293.5 1638.354,-293.5 1638.354,-275.5 1514.4878,-275.5"/>
<text text-anchor="middle" x="1576.4209" y="-281.5" font-family="Helvetica,sans-Serif" font-size="10.00" fill="#000000">dji_thread_manager.hpp</text>
</a>
</g>
</g>
<!-- Node5&#45;&gt;Node33 -->
<g id="edge61" class="edge">
<title>Node5&#45;&gt;Node33</title>
<path fill="none" stroke="#191970" d="M955.6923,-337.1231C1050.5765,-331.4864 1291.7643,-316.1787 1504.0216,-294.0959"/>
<polygon fill="#191970" stroke="#191970" points="1504.5257,-297.5624 1514.1065,-293.0393 1503.7962,-290.6005 1504.5257,-297.5624"/>
</g>
<!-- Node34 -->
<g id="node35" class="node">
<title>Node34</title>
<g id="a_node35"><a xlink:href="dji__virtual__rc_8hpp.html" target="_top" xlink:title="Virtual Radio Control API for DJI onboardSDK library.">
<polygon fill="#ffffff" stroke="#000000" points="618.623,-275.5 618.623,-293.5 710.2188,-293.5 710.2188,-275.5 618.623,-275.5"/>
<text text-anchor="middle" x="664.4209" y="-281.5" font-family="Helvetica,sans-Serif" font-size="10.00" fill="#000000">dji_virtual_rc.hpp</text>
</a>
</g>
</g>
<!-- Node5&#45;&gt;Node34 -->
<g id="edge65" class="edge">
<title>Node5&#45;&gt;Node34</title>
<path fill="none" stroke="#191970" d="M873.4184,-330.4795C830.1851,-320.9681 762.001,-305.9676 715.3489,-295.7042"/>
<polygon fill="#191970" stroke="#191970" points="715.9643,-292.2559 705.4458,-293.5255 714.4602,-299.0924 715.9643,-292.2559"/>
</g>
<!-- Node8 -->
<g id="node9" class="node">
<title>Node8</title>
<g id="a_node9"><a xlink:href="dji__telemetry_8hpp.html" target="_top" xlink:title="Enumeration of all telemetry data types, structures and maps.">
<polygon fill="#ffffff" stroke="#000000" points="874.7134,-165.5 874.7134,-183.5 966.1284,-183.5 966.1284,-165.5 874.7134,-165.5"/>
<text text-anchor="middle" x="920.4209" y="-171.5" font-family="Helvetica,sans-Serif" font-size="10.00" fill="#000000">dji_telemetry.hpp</text>
</a>
</g>
</g>
<!-- Node7&#45;&gt;Node8 -->
<g id="edge8" class="edge">
<title>Node7&#45;&gt;Node8</title>
<path fill="none" stroke="#191970" d="M993.0546,-220.4179C979.5796,-211.8992 959.2016,-199.0166 943.4565,-189.0627"/>
<polygon fill="#191970" stroke="#191970" points="945.1314,-185.9808 934.8085,-183.5956 941.3908,-191.8977 945.1314,-185.9808"/>
</g>
<!-- Node7&#45;&gt;Node9 -->
<g id="edge10" class="edge">
<title>Node7&#45;&gt;Node9</title>
<path fill="none" stroke="#191970" d="M1027.3884,-220.4982C1070.2832,-201.1604 1171.4149,-155.5683 1221.8077,-132.8502"/>
<polygon fill="#191970" stroke="#191970" points="1223.4995,-135.9268 1231.1775,-128.6261 1220.6226,-129.5453 1223.4995,-135.9268"/>
</g>
<!-- Node8&#45;&gt;Node2 -->
<g id="edge9" class="edge">
<title>Node8&#45;&gt;Node2</title>
<path fill="none" stroke="#191970" d="M874.5973,-166.9695C869.8156,-166.2661 865.023,-165.595 860.4209,-165 711.692,-145.7722 534.5938,-130.0528 452.8723,-123.2029"/>
<polygon fill="#191970" stroke="#191970" points="452.7091,-119.6773 442.4529,-122.3344 452.1275,-126.6531 452.7091,-119.6773"/>
</g>
<!-- Node9&#45;&gt;Node10 -->
<g id="edge11" class="edge">
<title>Node9&#45;&gt;Node10</title>
<path fill="none" stroke="#191970" d="M1236.5592,-110.4179C1222.6195,-101.8992 1201.5389,-89.0166 1185.2508,-79.0627"/>
<polygon fill="#191970" stroke="#191970" points="1186.6626,-75.8237 1176.3046,-73.5956 1183.0124,-81.7967 1186.6626,-75.8237"/>
</g>
<!-- Node11&#45;&gt;Node2 -->
<g id="edge17" class="edge">
<title>Node11&#45;&gt;Node2</title>
<path fill="none" stroke="#191970" d="M117.7078,-166.5435C120.6551,-166.0134 123.5815,-165.4943 126.4209,-165 209.4391,-150.5488 306.5283,-135.163 362.1147,-126.4986"/>
<polygon fill="#191970" stroke="#191970" points="362.9871,-129.905 372.3301,-124.9091 361.9109,-122.9882 362.9871,-129.905"/>
</g>
<!-- Node11&#45;&gt;Node12 -->
<g id="edge13" class="edge">
<title>Node11&#45;&gt;Node12</title>
<path fill="none" stroke="#191970" d="M108.2817,-165.4179C142.0855,-156.0751 194.8809,-141.4834 231.8603,-131.263"/>
<polygon fill="#191970" stroke="#191970" points="233.1358,-134.5418 241.842,-128.5042 231.271,-127.7947 233.1358,-134.5418"/>
</g>
<!-- Node12&#45;&gt;Node4 -->
<g id="edge16" class="edge">
<title>Node12&#45;&gt;Node4</title>
<path fill="none" stroke="#191970" d="M281.9947,-110.2648C288.9235,-101.4244 299.039,-87.4765 305.4209,-74 312.3688,-59.3283 317.3749,-41.5637 320.4986,-28.3956"/>
<polygon fill="#191970" stroke="#191970" points="323.9261,-29.1058 322.681,-18.5844 317.0931,-27.5858 323.9261,-29.1058"/>
</g>
<!-- Node13 -->
<g id="node14" class="node">
<title>Node13</title>
<g id="a_node14"><a xlink:href="dji__error_8hpp.html" target="_top" xlink:title="All DJI OSDK OpenProtocol ACK Error Codes.">
<polygon fill="#ffffff" stroke="#000000" points="224.623,-55.5 224.623,-73.5 296.2188,-73.5 296.2188,-55.5 224.623,-55.5"/>
<text text-anchor="middle" x="260.4209" y="-61.5" font-family="Helvetica,sans-Serif" font-size="10.00" fill="#000000">dji_error.hpp</text>
</a>
</g>
</g>
<!-- Node12&#45;&gt;Node13 -->
<g id="edge14" class="edge">
<title>Node12&#45;&gt;Node13</title>
<path fill="none" stroke="#191970" d="M272.1091,-110.4179C270.2558,-103.1372 267.5912,-92.669 265.274,-83.5659"/>
<polygon fill="#191970" stroke="#191970" points="268.6417,-82.607 262.7829,-73.7795 261.858,-84.3338 268.6417,-82.607"/>
</g>
<!-- Node13&#45;&gt;Node4 -->
<g id="edge15" class="edge">
<title>Node13&#45;&gt;Node4</title>
<path fill="none" stroke="#191970" d="M270.9892,-55.4179C280.4742,-47.2667 294.6084,-35.1201 305.9575,-25.3669"/>
<polygon fill="#191970" stroke="#191970" points="308.32,-27.9516 313.623,-18.7795 303.7576,-22.6427 308.32,-27.9516"/>
</g>
<!-- Node15&#45;&gt;Node2 -->
<g id="edge31" class="edge">
<title>Node15&#45;&gt;Node2</title>
<path fill="none" stroke="#191970" d="M813.3052,-275.3411C826.6548,-253.2999 855.9429,-196.7788 827.4209,-165 802.7036,-137.4603 555.9269,-125.0643 452.5759,-121.0508"/>
<polygon fill="#191970" stroke="#191970" points="452.5754,-117.5484 442.4499,-120.6667 452.31,-124.5433 452.5754,-117.5484"/>
</g>
<!-- Node15&#45;&gt;Node9 -->
<g id="edge32" class="edge">
<title>Node15&#45;&gt;Node9</title>
<path fill="none" stroke="#191970" d="M847.9674,-281.3313C949.8455,-273.2009 1209.4493,-251.373 1223.4209,-239 1251.8958,-213.7833 1254.2746,-165.6336 1253.1052,-138.7916"/>
<polygon fill="#191970" stroke="#191970" points="1256.592,-138.474 1252.4525,-128.7214 1249.6067,-138.9268 1256.592,-138.474"/>
</g>
<!-- Node15&#45;&gt;Node10 -->
<g id="edge30" class="edge">
<title>Node15&#45;&gt;Node10</title>
<path fill="none" stroke="#191970" d="M828.9323,-275.4002C849.5394,-266.5447 881.4065,-252.4872 908.4209,-239 931.1117,-227.6714 990.2776,-201.721 1008.4209,-184 1035.6329,-157.4214 1022.781,-135.0334 1051.4209,-110 1069.1523,-94.5015 1092.8936,-83.7853 1113.7811,-76.6648"/>
<polygon fill="#191970" stroke="#191970" points="1115.0105,-79.9459 1123.4551,-73.5475 1112.8635,-73.2833 1115.0105,-79.9459"/>
</g>
<!-- Node16 -->
<g id="node17" class="node">
<title>Node16</title>
<g id="a_node17"><a xlink:href="dji__ack_8hpp.html" target="_top" xlink:title="All DJI OSDK ACK parsing.">
<polygon fill="#ffffff" stroke="#000000" points="631.1255,-220.5 631.1255,-238.5 697.7163,-238.5 697.7163,-220.5 631.1255,-220.5"/>
<text text-anchor="middle" x="664.4209" y="-226.5" font-family="Helvetica,sans-Serif" font-size="10.00" fill="#000000">dji_ack.hpp</text>
</a>
</g>
</g>
<!-- Node15&#45;&gt;Node16 -->
<g id="edge21" class="edge">
<title>Node15&#45;&gt;Node16</title>
<path fill="none" stroke="#191970" d="M783.8074,-275.4179C760.3132,-266.3817 724.0526,-252.4353 697.6561,-242.2828"/>
<polygon fill="#191970" stroke="#191970" points="698.6594,-238.9188 688.0695,-238.5956 696.1465,-245.4522 698.6594,-238.9188"/>
</g>
<!-- Node16&#45;&gt;Node2 -->
<g id="edge25" class="edge">
<title>Node16&#45;&gt;Node2</title>
<path fill="none" stroke="#191970" d="M662.8746,-220.3981C659.9646,-206.2245 652.2798,-179.0511 634.4209,-165 606.7075,-143.1955 510.3427,-129.9058 452.4545,-123.702"/>
<polygon fill="#191970" stroke="#191970" points="452.7758,-120.2166 442.4667,-122.6609 452.0499,-127.1789 452.7758,-120.2166"/>
</g>
<!-- Node16&#45;&gt;Node12 -->
<g id="edge22" class="edge">
<title>Node16&#45;&gt;Node12</title>
<path fill="none" stroke="#191970" d="M631.048,-226.0653C553.2144,-217.8809 364.2924,-196.9466 338.4209,-184 316.7222,-173.1416 297.9942,-152.047 286.5003,-136.9365"/>
<polygon fill="#191970" stroke="#191970" points="289.3235,-134.8678 280.601,-128.8538 283.6693,-138.9946 289.3235,-134.8678"/>
</g>
<!-- Node17 -->
<g id="node18" class="node">
<title>Node17</title>
<g id="a_node18"><a xlink:href="dji__mission__type_8hpp.html" target="_top" xlink:title="Mission related data struct for DJI OSDK library.">
<polygon fill="#ffffff" stroke="#000000" points="515.7266,-165.5 515.7266,-183.5 625.1152,-183.5 625.1152,-165.5 515.7266,-165.5"/>
<text text-anchor="middle" x="570.4209" y="-171.5" font-family="Helvetica,sans-Serif" font-size="10.00" fill="#000000">dji_mission_type.hpp</text>
</a>
</g>
</g>
<!-- Node16&#45;&gt;Node17 -->
<g id="edge23" class="edge">
<title>Node16&#45;&gt;Node17</title>
<path fill="none" stroke="#191970" d="M648.8987,-220.4179C634.2034,-211.8195 611.9097,-198.7754 594.8343,-188.7844"/>
<polygon fill="#191970" stroke="#191970" points="596.3648,-185.6249 585.9661,-183.5956 592.8297,-191.6667 596.3648,-185.6249"/>
</g>
<!-- Node16&#45;&gt;Node18 -->
<g id="edge26" class="edge">
<title>Node16&#45;&gt;Node18</title>
<path fill="none" stroke="#191970" d="M682.9154,-220.4179C700.8301,-211.6205 728.222,-198.1691 748.7353,-188.0956"/>
<polygon fill="#191970" stroke="#191970" points="750.4656,-191.1452 757.8989,-183.5956 747.38,-184.8619 750.4656,-191.1452"/>
</g>
<!-- Node19 -->
<g id="node20" class="node">
<title>Node19</title>
<g id="a_node20"><a xlink:title=" ">
<polygon fill="#ffffff" stroke="#bfbfbf" points="681.6943,-165.5 681.6943,-183.5 717.1475,-183.5 717.1475,-165.5 681.6943,-165.5"/>
<text text-anchor="middle" x="699.4209" y="-171.5" font-family="Helvetica,sans-Serif" font-size="10.00" fill="#000000">map</text>
</a>
</g>
</g>
<!-- Node16&#45;&gt;Node19 -->
<g id="edge29" class="edge">
<title>Node16&#45;&gt;Node19</title>
<path fill="none" stroke="#191970" d="M670.2004,-220.4179C675.035,-212.8207 682.0783,-201.7527 688.0385,-192.3866"/>
<polygon fill="#191970" stroke="#191970" points="691.0998,-194.0952 693.5158,-183.7795 685.1942,-190.337 691.0998,-194.0952"/>
</g>
<!-- Node17&#45;&gt;Node2 -->
<g id="edge24" class="edge">
<title>Node17&#45;&gt;Node2</title>
<path fill="none" stroke="#191970" d="M543.5048,-165.4179C516.2896,-156.2348 474.0456,-141.9807 443.8466,-131.7909"/>
<polygon fill="#191970" stroke="#191970" points="444.7003,-128.3851 434.1061,-128.5042 442.4622,-135.0177 444.7003,-128.3851"/>
</g>
<!-- Node18&#45;&gt;Node6 -->
<g id="edge28" class="edge">
<title>Node18&#45;&gt;Node6</title>
<path fill="none" stroke="#191970" d="M818.3273,-166.9678C879.9901,-155.8846 993.886,-135.4131 1049.7678,-125.369"/>
<polygon fill="#191970" stroke="#191970" points="1050.5969,-128.7762 1059.82,-123.5623 1049.3585,-121.8866 1050.5969,-128.7762"/>
</g>
<!-- Node18&#45;&gt;Node12 -->
<g id="edge27" class="edge">
<title>Node18&#45;&gt;Node12</title>
<path fill="none" stroke="#191970" d="M734.7255,-166.2907C731.9196,-165.8269 729.1319,-165.3912 726.4209,-165 565.958,-141.846 524.6932,-145.604 363.4209,-129 353.3349,-127.9616 342.6085,-126.8353 332.2234,-125.7335"/>
<polygon fill="#191970" stroke="#191970" points="332.3027,-122.2223 321.9884,-124.644 331.5617,-129.1829 332.3027,-122.2223"/>
</g>
<!-- Node20&#45;&gt;Node2 -->
<g id="edge35" class="edge">
<title>Node20&#45;&gt;Node2</title>
<path fill="none" stroke="#191970" d="M213.4712,-165.4795C254.2914,-155.8022 319.0808,-140.4427 362.4065,-130.1715"/>
<polygon fill="#191970" stroke="#191970" points="363.4664,-133.5173 372.3893,-127.8049 361.8516,-126.7061 363.4664,-133.5173"/>
</g>
<!-- Node20&#45;&gt;Node12 -->
<g id="edge34" class="edge">
<title>Node20&#45;&gt;Node12</title>
<path fill="none" stroke="#191970" d="M191.7687,-165.4179C207.389,-156.7399 231.1607,-143.5334 249.2071,-133.5077"/>
<polygon fill="#191970" stroke="#191970" points="251.007,-136.5117 258.0488,-128.5956 247.6074,-130.3925 251.007,-136.5117"/>
</g>
<!-- Node22&#45;&gt;Node9 -->
<g id="edge39" class="edge">
<title>Node22&#45;&gt;Node9</title>
<path fill="none" stroke="#191970" d="M1301.0019,-220.4982C1292.1416,-202.4496 1272.0541,-161.5306 1260.3477,-137.6843"/>
<polygon fill="#191970" stroke="#191970" points="1263.4496,-136.0605 1255.901,-128.6261 1257.166,-139.1452 1263.4496,-136.0605"/>
</g>
<!-- Node24 -->
<g id="node25" class="node">
<title>Node24</title>
<g id="a_node25"><a xlink:href="dji__hotpoint_8hpp.html" target="_top" xlink:title="Implementation of HotPoint (Point of Interest) Missions for DJI OSDK.">
<polygon fill="#ffffff" stroke="#000000" points="456.1133,-220.5 456.1133,-238.5 542.7285,-238.5 542.7285,-220.5 456.1133,-220.5"/>
<text text-anchor="middle" x="499.4209" y="-226.5" font-family="Helvetica,sans-Serif" font-size="10.00" fill="#000000">dji_hotpoint.hpp</text>
</a>
</g>
</g>
<!-- Node23&#45;&gt;Node24 -->
<g id="edge41" class="edge">
<title>Node23&#45;&gt;Node24</title>
<path fill="none" stroke="#191970" d="M499.4209,-275.4179C499.4209,-268.2164 499.4209,-257.8962 499.4209,-248.8632"/>
<polygon fill="#191970" stroke="#191970" points="502.921,-248.7794 499.4209,-238.7795 495.921,-248.7795 502.921,-248.7794"/>
</g>
<!-- Node26 -->
<g id="node27" class="node">
<title>Node26</title>
<g id="a_node27"><a xlink:href="dji__waypoint_8hpp.html" target="_top" xlink:title="Implementation of GPS Waypoint Missions for DJI OSDK.">
<polygon fill="#ffffff" stroke="#000000" points="347.1724,-220.5 347.1724,-238.5 437.6694,-238.5 437.6694,-220.5 347.1724,-220.5"/>
<text text-anchor="middle" x="392.4209" y="-226.5" font-family="Helvetica,sans-Serif" font-size="10.00" fill="#000000">dji_waypoint.hpp</text>
</a>
</g>
</g>
<!-- Node23&#45;&gt;Node26 -->
<g id="edge47" class="edge">
<title>Node23&#45;&gt;Node26</title>
<path fill="none" stroke="#191970" d="M481.752,-275.4179C464.7146,-266.6603 438.7047,-253.2907 419.137,-243.2326"/>
<polygon fill="#191970" stroke="#191970" points="420.61,-240.0544 410.116,-238.5956 417.4098,-246.2801 420.61,-240.0544"/>
</g>
<!-- Node24&#45;&gt;Node8 -->
<g id="edge46" class="edge">
<title>Node24&#45;&gt;Node8</title>
<path fill="none" stroke="#191970" d="M542.8896,-223.8212C619.8062,-213.7727 779.7636,-192.8757 864.6716,-181.7832"/>
<polygon fill="#191970" stroke="#191970" points="865.1813,-185.2464 874.6436,-180.4804 864.2744,-178.3054 865.1813,-185.2464"/>
</g>
<!-- Node25 -->
<g id="node26" class="node">
<title>Node25</title>
<g id="a_node26"><a xlink:href="dji__mission__base_8hpp.html" target="_top" xlink:title="Mission&#45;Base abstract class for DJI OSDK library.">
<polygon fill="#ffffff" stroke="#000000" points="347.335,-165.5 347.335,-183.5 459.5068,-183.5 459.5068,-165.5 347.335,-165.5"/>
<text text-anchor="middle" x="403.4209" y="-171.5" font-family="Helvetica,sans-Serif" font-size="10.00" fill="#000000">dji_mission_base.hpp</text>
</a>
</g>
</g>
<!-- Node24&#45;&gt;Node25 -->
<g id="edge42" class="edge">
<title>Node24&#45;&gt;Node25</title>
<path fill="none" stroke="#191970" d="M483.5685,-220.4179C468.5605,-211.8195 445.7925,-198.7754 428.3537,-188.7844"/>
<polygon fill="#191970" stroke="#191970" points="429.7137,-185.5299 419.2969,-183.5956 426.2339,-191.6037 429.7137,-185.5299"/>
</g>
<!-- Node25&#45;&gt;Node2 -->
<g id="edge44" class="edge">
<title>Node25&#45;&gt;Node2</title>
<path fill="none" stroke="#191970" d="M404.0814,-165.4179C404.6052,-158.2164 405.3557,-147.8962 406.0127,-138.8632"/>
<polygon fill="#191970" stroke="#191970" points="409.5114,-139.007 406.746,-128.7795 402.5298,-138.4992 409.5114,-139.007"/>
</g>
<!-- Node25&#45;&gt;Node9 -->
<g id="edge45" class="edge">
<title>Node25&#45;&gt;Node9</title>
<path fill="none" stroke="#191970" d="M459.5224,-168.9898C474.732,-167.5876 491.2003,-166.153 506.4209,-165 775.9007,-144.5869 843.7221,-146.2804 1113.4209,-129 1134.7374,-127.6342 1157.9003,-126.0707 1179.0532,-124.6117"/>
<polygon fill="#191970" stroke="#191970" points="1179.5247,-128.0875 1189.259,-123.9052 1179.0412,-121.1042 1179.5247,-128.0875"/>
</g>
<!-- Node25&#45;&gt;Node12 -->
<g id="edge43" class="edge">
<title>Node25&#45;&gt;Node12</title>
<path fill="none" stroke="#191970" d="M382.1192,-165.4179C361.1119,-156.4613 328.7901,-142.6806 305.0338,-132.552"/>
<polygon fill="#191970" stroke="#191970" points="306.3258,-129.2981 295.7543,-128.5956 303.5804,-135.7372 306.3258,-129.2981"/>
</g>
<!-- Node26&#45;&gt;Node25 -->
<g id="edge48" class="edge">
<title>Node26&#45;&gt;Node25</title>
<path fill="none" stroke="#191970" d="M394.2373,-220.4179C395.6776,-213.2164 397.7417,-202.8962 399.5483,-193.8632"/>
<polygon fill="#191970" stroke="#191970" points="403.0358,-194.2717 401.565,-183.7795 396.1717,-192.8988 403.0358,-194.2717"/>
</g>
<!-- Node27&#45;&gt;Node9 -->
<g id="edge51" class="edge">
<title>Node27&#45;&gt;Node9</title>
<path fill="none" stroke="#191970" d="M1815.9515,-275.0673C1824.2053,-261.865 1836.1199,-237.5292 1825.4209,-220 1797.564,-174.3595 1769.7197,-180.0829 1718.4209,-165 1646.4239,-143.8314 1436.1583,-129.5649 1323.9472,-123.2306"/>
<polygon fill="#191970" stroke="#191970" points="1323.9114,-119.7232 1313.7319,-122.6606 1323.5214,-126.7124 1323.9114,-119.7232"/>
</g>
<!-- Node28 -->
<g id="node29" class="node">
<title>Node28</title>
<g id="a_node29"><a xlink:title=" ">
<polygon fill="#ffffff" stroke="#bfbfbf" points="1732.5146,-220.5 1732.5146,-238.5 1816.3271,-238.5 1816.3271,-220.5 1732.5146,-220.5"/>
<text text-anchor="middle" x="1774.4209" y="-226.5" font-family="Helvetica,sans-Serif" font-size="10.00" fill="#000000">dji_macros.hpp</text>
</a>
</g>
</g>
<!-- Node27&#45;&gt;Node28 -->
<g id="edge50" class="edge">
<title>Node27&#45;&gt;Node28</title>
<path fill="none" stroke="#191970" d="M1803.6414,-275.4179C1798.8068,-267.8207 1791.7635,-256.7527 1785.8033,-247.3866"/>
<polygon fill="#191970" stroke="#191970" points="1788.6476,-245.337 1780.326,-238.7795 1782.742,-249.0952 1788.6476,-245.337"/>
</g>
<!-- Node29&#45;&gt;Node9 -->
<g id="edge53" class="edge">
<title>Node29&#45;&gt;Node9</title>
<path fill="none" stroke="#191970" d="M1501.162,-220.4982C1453.046,-201.0396 1339.1962,-154.9974 1283.3857,-132.4269"/>
<polygon fill="#191970" stroke="#191970" points="1284.5702,-129.1306 1273.9874,-128.6261 1281.9457,-135.6201 1284.5702,-129.1306"/>
</g>
<!-- Node32&#45;&gt;Node8 -->
<g id="edge59" class="edge">
<title>Node32&#45;&gt;Node8</title>
<path fill="none" stroke="#191970" d="M1122.7305,-220.4795C1080.9684,-210.9881 1015.155,-196.0305 970.0035,-185.7688"/>
<polygon fill="#191970" stroke="#191970" points="970.66,-182.3288 960.133,-183.5255 969.1086,-189.1547 970.66,-182.3288"/>
</g>
<!-- Node32&#45;&gt;Node9 -->
<g id="edge60" class="edge">
<title>Node32&#45;&gt;Node9</title>
<path fill="none" stroke="#191970" d="M1169.7041,-220.4982C1184.5679,-202.1273 1218.6027,-160.0619 1237.7284,-136.4233"/>
<polygon fill="#191970" stroke="#191970" points="1240.468,-138.6018 1244.037,-128.6261 1235.0261,-134.1988 1240.468,-138.6018"/>
</g>
<!-- Node32&#45;&gt;Node10 -->
<g id="edge58" class="edge">
<title>Node32&#45;&gt;Node10</title>
<path fill="none" stroke="#191970" d="M1162.3643,-220.1561C1162.2054,-193.9504 1161.7534,-119.3557 1161.5379,-83.8021"/>
<polygon fill="#191970" stroke="#191970" points="1165.0375,-83.72 1161.4769,-73.7414 1158.0377,-83.7625 1165.0375,-83.72"/>
</g>
<!-- Node34&#45;&gt;Node2 -->
<g id="edge68" class="edge">
<title>Node34&#45;&gt;Node2</title>
<path fill="none" stroke="#191970" d="M650.0092,-275.4068C622.1901,-257.8378 559.1773,-217.9629 506.4209,-184 479.946,-166.9563 449.6287,-147.1633 429.5942,-134.0449"/>
<polygon fill="#191970" stroke="#191970" points="431.4462,-131.074 421.1635,-128.5211 427.6099,-136.9292 431.4462,-131.074"/>
</g>
<!-- Node34&#45;&gt;Node8 -->
<g id="edge69" class="edge">
<title>Node34&#45;&gt;Node8</title>
<path fill="none" stroke="#191970" d="M685.3705,-275.4982C730.4686,-256.1201 836.9225,-210.3782 889.6811,-187.7085"/>
<polygon fill="#191970" stroke="#191970" points="891.3759,-190.7898 899.1819,-183.6261 888.6124,-184.3583 891.3759,-190.7898"/>
</g>
<!-- Node34&#45;&gt;Node10 -->
<g id="edge67" class="edge">
<title>Node34&#45;&gt;Node10</title>
<path fill="none" stroke="#191970" d="M692.7221,-275.4734C721.3904,-266.3198 767.0053,-251.7285 806.4209,-239 881.5874,-214.7264 911.0791,-229.8186 975.4209,-184 1009.0177,-160.0753 998.0898,-134.2935 1031.4209,-110 1053.3301,-94.0314 1081.332,-83.2826 1105.7324,-76.2623"/>
<polygon fill="#191970" stroke="#191970" points="1106.8639,-79.5815 1115.5875,-73.5689 1105.0185,-72.8291 1106.8639,-79.5815"/>
</g>
<!-- Node34&#45;&gt;Node16 -->
<g id="edge66" class="edge">
<title>Node34&#45;&gt;Node16</title>
<path fill="none" stroke="#191970" d="M664.4209,-275.4179C664.4209,-268.2164 664.4209,-257.8962 664.4209,-248.8632"/>
<polygon fill="#191970" stroke="#191970" points="667.921,-248.7794 664.4209,-238.7795 660.921,-248.7795 667.921,-248.7794"/>
</g>
</g>
</svg>
