<?xml version="1.0" encoding="UTF-8" standalone="no"?>
<!DOCTYPE svg PUBLIC "-//W3C//DTD SVG 1.1//EN"
 "http://www.w3.org/Graphics/SVG/1.1/DTD/svg11.dtd">
<!-- Generated by graphviz version 2.38.0 (20140413.2041)
 -->
<!-- Title: osdk&#45;core/advanced&#45;sensing&#45;2.0.0/inc/dji_advanced_sensing_protocol.hpp Pages: 1 -->
<svg width="875pt" height="330pt"
 viewBox="0.00 0.00 874.50 330.00" xmlns="http://www.w3.org/2000/svg" xmlns:xlink="http://www.w3.org/1999/xlink">
<g id="graph0" class="graph" transform="scale(1 1) rotate(0) translate(4 326)">
<title>osdk&#45;core/advanced&#45;sensing&#45;2.0.0/inc/dji_advanced_sensing_protocol.hpp</title>
<polygon fill="white" stroke="none" points="-4,4 -4,-326 870.5,-326 870.5,4 -4,4"/>
<!-- Node1 -->
<g id="node1" class="node"><title>Node1</title>
<polygon fill="#bfbfbf" stroke="black" points="164.5,-280.5 164.5,-321.5 325.5,-321.5 325.5,-280.5 164.5,-280.5"/>
<text text-anchor="start" x="172.5" y="-309.5" font-family="Helvetica,sans-Serif" font-size="10.00">osdk&#45;core/advanced</text>
<text text-anchor="start" x="172.5" y="-298.5" font-family="Helvetica,sans-Serif" font-size="10.00">&#45;sensing&#45;2.0.0/inc/dji</text>
<text text-anchor="middle" x="245" y="-287.5" font-family="Helvetica,sans-Serif" font-size="10.00">_advanced_sensing_protocol.hpp</text>
</g>
<!-- Node2 -->
<g id="node2" class="node"><title>Node2</title>
<polygon fill="white" stroke="#bfbfbf" points="0,-168.5 0,-187.5 98,-187.5 98,-168.5 0,-168.5"/>
<text text-anchor="middle" x="49" y="-175.5" font-family="Helvetica,sans-Serif" font-size="10.00">dji_hard_driver.hpp</text>
</g>
<!-- Node1&#45;&gt;Node2 -->
<g id="edge1" class="edge"><title>Node1&#45;&gt;Node2</title>
<path fill="none" stroke="midnightblue" d="M164.295,-287.915C114.451,-278.615 57.1997,-263.961 42,-244 31.9178,-230.76 35.6811,-211.363 40.7373,-197.206"/>
<polygon fill="midnightblue" stroke="midnightblue" points="44.1229,-198.172 44.6479,-187.59 37.6386,-195.535 44.1229,-198.172"/>
</g>
<!-- Node3 -->
<g id="node3" class="node"><title>Node3</title>
<polygon fill="white" stroke="#bfbfbf" points="51,-224.5 51,-243.5 171,-243.5 171,-224.5 51,-224.5"/>
<text text-anchor="middle" x="111" y="-231.5" font-family="Helvetica,sans-Serif" font-size="10.00">dji_thread_manager.hpp</text>
</g>
<!-- Node1&#45;&gt;Node3 -->
<g id="edge2" class="edge"><title>Node1&#45;&gt;Node3</title>
<path fill="none" stroke="midnightblue" d="M204.796,-280.498C183.164,-270.005 157.072,-257.348 137.904,-248.051"/>
<polygon fill="midnightblue" stroke="midnightblue" points="139.362,-244.868 128.837,-243.652 136.307,-251.166 139.362,-244.868"/>
</g>
<!-- Node4 -->
<g id="node4" class="node"><title>Node4</title>
<polygon fill="white" stroke="#bfbfbf" points="189.5,-224.5 189.5,-243.5 300.5,-243.5 300.5,-224.5 189.5,-224.5"/>
<text text-anchor="middle" x="245" y="-231.5" font-family="Helvetica,sans-Serif" font-size="10.00">dji_protocol_base.hpp</text>
</g>
<!-- Node1&#45;&gt;Node4 -->
<g id="edge3" class="edge"><title>Node1&#45;&gt;Node4</title>
<path fill="none" stroke="midnightblue" d="M245,-280.498C245,-272.065 245,-262.235 245,-253.874"/>
<polygon fill="midnightblue" stroke="midnightblue" points="248.5,-253.652 245,-243.652 241.5,-253.653 248.5,-253.652"/>
</g>
<!-- Node5 -->
<g id="node5" class="node"><title>Node5</title>
<g id="a_node5"><a xlink:href="linux__usb__device_8hpp.html" target="_top" xlink:title="linux_usb_device.hpp">
<polygon fill="white" stroke="black" points="319,-224.5 319,-243.5 429,-243.5 429,-224.5 319,-224.5"/>
<text text-anchor="middle" x="374" y="-231.5" font-family="Helvetica,sans-Serif" font-size="10.00">linux_usb_device.hpp</text>
</a>
</g>
</g>
<!-- Node1&#45;&gt;Node5 -->
<g id="edge4" class="edge"><title>Node1&#45;&gt;Node5</title>
<path fill="none" stroke="midnightblue" d="M283.704,-280.498C304.433,-270.053 329.418,-257.464 347.846,-248.178"/>
<polygon fill="midnightblue" stroke="midnightblue" points="349.473,-251.278 356.828,-243.652 346.323,-245.027 349.473,-251.278"/>
</g>
<!-- Node11 -->
<g id="node11" class="node"><title>Node11</title>
<g id="a_node11"><a xlink:href="dji__ack_8hpp.html" target="_top" xlink:title="All DJI OSDK ACK parsing. ">
<polygon fill="white" stroke="black" points="652,-224.5 652,-243.5 718,-243.5 718,-224.5 652,-224.5"/>
<text text-anchor="middle" x="685" y="-231.5" font-family="Helvetica,sans-Serif" font-size="10.00">dji_ack.hpp</text>
</a>
</g>
</g>
<!-- Node1&#45;&gt;Node11 -->
<g id="edge11" class="edge"><title>Node1&#45;&gt;Node11</title>
<path fill="none" stroke="midnightblue" d="M325.703,-288.078C418.752,-274.332 568.277,-252.243 641.607,-241.41"/>
<polygon fill="midnightblue" stroke="midnightblue" points="642.477,-244.82 651.858,-239.896 641.454,-237.895 642.477,-244.82"/>
</g>
<!-- Node5&#45;&gt;Node2 -->
<g id="edge10" class="edge"><title>Node5&#45;&gt;Node2</title>
<path fill="none" stroke="midnightblue" d="M322.503,-224.444C264.178,-214.753 169.309,-198.99 108.037,-188.809"/>
<polygon fill="midnightblue" stroke="midnightblue" points="108.567,-185.349 98.1289,-187.163 107.42,-192.255 108.567,-185.349"/>
</g>
<!-- Node6 -->
<g id="node6" class="node"><title>Node6</title>
<polygon fill="white" stroke="#bfbfbf" points="451,-168.5 451,-187.5 497,-187.5 497,-168.5 451,-168.5"/>
<text text-anchor="middle" x="474" y="-175.5" font-family="Helvetica,sans-Serif" font-size="10.00">cstring</text>
</g>
<!-- Node5&#45;&gt;Node6 -->
<g id="edge5" class="edge"><title>Node5&#45;&gt;Node6</title>
<path fill="none" stroke="midnightblue" d="M390.067,-224.324C405.958,-215.743 430.507,-202.486 448.958,-192.522"/>
<polygon fill="midnightblue" stroke="midnightblue" points="450.837,-195.486 457.973,-187.655 447.511,-189.326 450.837,-195.486"/>
</g>
<!-- Node7 -->
<g id="node7" class="node"><title>Node7</title>
<polygon fill="white" stroke="#bfbfbf" points="176,-168.5 176,-187.5 220,-187.5 220,-168.5 176,-168.5"/>
<text text-anchor="middle" x="198" y="-175.5" font-family="Helvetica,sans-Serif" font-size="10.00">fcntl.h</text>
</g>
<!-- Node5&#45;&gt;Node7 -->
<g id="edge6" class="edge"><title>Node5&#45;&gt;Node7</title>
<path fill="none" stroke="midnightblue" d="M346.112,-224.444C314.489,-214.741 263.029,-198.952 229.852,-188.773"/>
<polygon fill="midnightblue" stroke="midnightblue" points="230.771,-185.394 220.185,-185.807 228.718,-192.086 230.771,-185.394"/>
</g>
<!-- Node8 -->
<g id="node8" class="node"><title>Node8</title>
<polygon fill="white" stroke="#bfbfbf" points="238.5,-168.5 238.5,-187.5 295.5,-187.5 295.5,-168.5 238.5,-168.5"/>
<text text-anchor="middle" x="267" y="-175.5" font-family="Helvetica,sans-Serif" font-size="10.00">termios.h</text>
</g>
<!-- Node5&#45;&gt;Node8 -->
<g id="edge7" class="edge"><title>Node5&#45;&gt;Node8</title>
<path fill="none" stroke="midnightblue" d="M356.809,-224.324C339.649,-215.664 313.054,-202.242 293.253,-192.249"/>
<polygon fill="midnightblue" stroke="midnightblue" points="294.653,-189.035 284.149,-187.655 291.499,-195.285 294.653,-189.035"/>
</g>
<!-- Node9 -->
<g id="node9" class="node"><title>Node9</title>
<polygon fill="white" stroke="#bfbfbf" points="313.5,-168.5 313.5,-187.5 364.5,-187.5 364.5,-168.5 313.5,-168.5"/>
<text text-anchor="middle" x="339" y="-175.5" font-family="Helvetica,sans-Serif" font-size="10.00">unistd.h</text>
</g>
<!-- Node5&#45;&gt;Node9 -->
<g id="edge8" class="edge"><title>Node5&#45;&gt;Node9</title>
<path fill="none" stroke="midnightblue" d="M368.22,-224.083C363.328,-216.534 356.173,-205.495 350.167,-196.23"/>
<polygon fill="midnightblue" stroke="midnightblue" points="353.048,-194.239 344.672,-187.751 347.174,-198.046 353.048,-194.239"/>
</g>
<!-- Node10 -->
<g id="node10" class="node"><title>Node10</title>
<polygon fill="white" stroke="#bfbfbf" points="383,-168.5 383,-187.5 433,-187.5 433,-168.5 383,-168.5"/>
<text text-anchor="middle" x="408" y="-175.5" font-family="Helvetica,sans-Serif" font-size="10.00">libusb.h</text>
</g>
<!-- Node5&#45;&gt;Node10 -->
<g id="edge9" class="edge"><title>Node5&#45;&gt;Node10</title>
<path fill="none" stroke="midnightblue" d="M379.614,-224.083C384.367,-216.534 391.318,-205.495 397.152,-196.23"/>
<polygon fill="midnightblue" stroke="midnightblue" points="400.124,-198.078 402.49,-187.751 394.2,-194.349 400.124,-198.078"/>
</g>
<!-- Node12 -->
<g id="node12" class="node"><title>Node12</title>
<g id="a_node12"><a xlink:href="dji__command_8hpp.html" target="_top" xlink:title="All DJI OSDK OpenProtocol Command IDs. ">
<polygon fill="white" stroke="black" points="773.5,-112.5 773.5,-131.5 866.5,-131.5 866.5,-112.5 773.5,-112.5"/>
<text text-anchor="middle" x="820" y="-119.5" font-family="Helvetica,sans-Serif" font-size="10.00">dji_command.hpp</text>
</a>
</g>
</g>
<!-- Node11&#45;&gt;Node12 -->
<g id="edge12" class="edge"><title>Node11&#45;&gt;Node12</title>
<path fill="none" stroke="midnightblue" d="M718.295,-232.652C751.194,-230.31 799.979,-221.026 824,-188 833.751,-174.594 831.02,-155.221 826.906,-141.115"/>
<polygon fill="midnightblue" stroke="midnightblue" points="830.189,-139.896 823.675,-131.54 823.557,-142.135 830.189,-139.896"/>
</g>
<!-- Node15 -->
<g id="node15" class="node"><title>Node15</title>
<g id="a_node15"><a xlink:href="dji__mission__type_8hpp.html" target="_top" xlink:title="Mission related data struct for DJI OSDK library. ">
<polygon fill="white" stroke="black" points="515,-168.5 515,-187.5 623,-187.5 623,-168.5 515,-168.5"/>
<text text-anchor="middle" x="569" y="-175.5" font-family="Helvetica,sans-Serif" font-size="10.00">dji_mission_type.hpp</text>
</a>
</g>
</g>
<!-- Node11&#45;&gt;Node15 -->
<g id="edge16" class="edge"><title>Node11&#45;&gt;Node15</title>
<path fill="none" stroke="midnightblue" d="M666.619,-224.444C647.784,-215.675 618.269,-201.935 596.621,-191.858"/>
<polygon fill="midnightblue" stroke="midnightblue" points="597.838,-188.564 587.295,-187.516 594.883,-194.91 597.838,-188.564"/>
</g>
<!-- Node16 -->
<g id="node16" class="node"><title>Node16</title>
<g id="a_node16"><a xlink:href="dji__type_8hpp.html" target="_top" xlink:title="Data type and Data Structure definitions for use throughout DJI OSDK. ">
<polygon fill="white" stroke="black" points="606.5,-112.5 606.5,-131.5 675.5,-131.5 675.5,-112.5 606.5,-112.5"/>
<text text-anchor="middle" x="641" y="-119.5" font-family="Helvetica,sans-Serif" font-size="10.00">dji_type.hpp</text>
</a>
</g>
</g>
<!-- Node11&#45;&gt;Node16 -->
<g id="edge20" class="edge"><title>Node11&#45;&gt;Node16</title>
<path fill="none" stroke="midnightblue" d="M681.547,-224.368C674.383,-206.456 657.769,-164.923 648.179,-140.948"/>
<polygon fill="midnightblue" stroke="midnightblue" points="651.4,-139.576 644.437,-131.591 644.901,-142.176 651.4,-139.576"/>
</g>
<!-- Node18 -->
<g id="node18" class="node"><title>Node18</title>
<g id="a_node18"><a xlink:href="dji__version_8hpp.html" target="_top" xlink:title="Drone/SDK Version definition for DJI onboardSDK library. ">
<polygon fill="white" stroke="black" points="679,-168.5 679,-187.5 761,-187.5 761,-168.5 679,-168.5"/>
<text text-anchor="middle" x="720" y="-175.5" font-family="Helvetica,sans-Serif" font-size="10.00">dji_version.hpp</text>
</a>
</g>
</g>
<!-- Node11&#45;&gt;Node18 -->
<g id="edge21" class="edge"><title>Node11&#45;&gt;Node18</title>
<path fill="none" stroke="midnightblue" d="M690.78,-224.083C695.672,-216.534 702.827,-205.495 708.833,-196.23"/>
<polygon fill="midnightblue" stroke="midnightblue" points="711.826,-198.046 714.328,-187.751 705.952,-194.239 711.826,-198.046"/>
</g>
<!-- Node20 -->
<g id="node20" class="node"><title>Node20</title>
<polygon fill="white" stroke="#bfbfbf" points="779.5,-168.5 779.5,-187.5 814.5,-187.5 814.5,-168.5 779.5,-168.5"/>
<text text-anchor="middle" x="797" y="-175.5" font-family="Helvetica,sans-Serif" font-size="10.00">map</text>
</g>
<!-- Node11&#45;&gt;Node20 -->
<g id="edge24" class="edge"><title>Node11&#45;&gt;Node20</title>
<path fill="none" stroke="midnightblue" d="M702.995,-224.324C721.144,-215.573 749.379,-201.96 770.17,-191.936"/>
<polygon fill="midnightblue" stroke="midnightblue" points="771.932,-194.972 779.419,-187.476 768.891,-188.667 771.932,-194.972"/>
</g>
<!-- Node13 -->
<g id="node13" class="node"><title>Node13</title>
<g id="a_node13"><a xlink:href="dji__error_8hpp.html" target="_top" xlink:title="All DJI OSDK OpenProtocol ACK Error Codes. ">
<polygon fill="white" stroke="black" points="728,-56.5 728,-75.5 798,-75.5 798,-56.5 728,-56.5"/>
<text text-anchor="middle" x="763" y="-63.5" font-family="Helvetica,sans-Serif" font-size="10.00">dji_error.hpp</text>
</a>
</g>
</g>
<!-- Node12&#45;&gt;Node13 -->
<g id="edge13" class="edge"><title>Node12&#45;&gt;Node13</title>
<path fill="none" stroke="midnightblue" d="M810.842,-112.324C802.499,-104.42 789.968,-92.5482 779.823,-82.9377"/>
<polygon fill="midnightblue" stroke="midnightblue" points="781.991,-80.1705 772.325,-75.8339 777.177,-85.2522 781.991,-80.1705"/>
</g>
<!-- Node14 -->
<g id="node14" class="node"><title>Node14</title>
<polygon fill="white" stroke="#bfbfbf" points="738.5,-0.5 738.5,-19.5 787.5,-19.5 787.5,-0.5 738.5,-0.5"/>
<text text-anchor="middle" x="763" y="-7.5" font-family="Helvetica,sans-Serif" font-size="10.00">stdint.h</text>
</g>
<!-- Node12&#45;&gt;Node14 -->
<g id="edge15" class="edge"><title>Node12&#45;&gt;Node14</title>
<path fill="none" stroke="midnightblue" d="M819.821,-112.489C819.224,-99.561 816.779,-74.5218 807,-56 800.985,-44.6074 791.177,-34.1634 782.346,-26.2108"/>
<polygon fill="midnightblue" stroke="midnightblue" points="784.529,-23.4728 774.647,-19.6521 779.99,-28.8014 784.529,-23.4728"/>
</g>
<!-- Node13&#45;&gt;Node14 -->
<g id="edge14" class="edge"><title>Node13&#45;&gt;Node14</title>
<path fill="none" stroke="midnightblue" d="M763,-56.083C763,-49.0059 763,-38.8611 763,-29.9865"/>
<polygon fill="midnightblue" stroke="midnightblue" points="766.5,-29.751 763,-19.7511 759.5,-29.7511 766.5,-29.751"/>
</g>
<!-- Node15&#45;&gt;Node16 -->
<g id="edge17" class="edge"><title>Node15&#45;&gt;Node16</title>
<path fill="none" stroke="midnightblue" d="M580.568,-168.324C591.42,-160.185 607.881,-147.839 620.883,-138.087"/>
<polygon fill="midnightblue" stroke="midnightblue" points="623.321,-140.634 629.221,-131.834 619.121,-135.034 623.321,-140.634"/>
</g>
<!-- Node16&#45;&gt;Node14 -->
<g id="edge19" class="edge"><title>Node16&#45;&gt;Node14</title>
<path fill="none" stroke="midnightblue" d="M640.955,-112.327C641.341,-98.7277 643.996,-72.2642 658,-56 675.923,-35.1838 705.187,-23.7199 728.275,-17.5817"/>
<polygon fill="midnightblue" stroke="midnightblue" points="729.176,-20.9644 738.061,-15.1935 727.517,-14.164 729.176,-20.9644"/>
</g>
<!-- Node17 -->
<g id="node17" class="node"><title>Node17</title>
<polygon fill="white" stroke="#bfbfbf" points="666.5,-56.5 666.5,-75.5 709.5,-75.5 709.5,-56.5 666.5,-56.5"/>
<text text-anchor="middle" x="688" y="-63.5" font-family="Helvetica,sans-Serif" font-size="10.00">cstdio</text>
</g>
<!-- Node16&#45;&gt;Node17 -->
<g id="edge18" class="edge"><title>Node16&#45;&gt;Node17</title>
<path fill="none" stroke="midnightblue" d="M648.761,-112.083C655.537,-104.298 665.543,-92.8015 673.755,-83.3665"/>
<polygon fill="midnightblue" stroke="midnightblue" points="676.458,-85.592 680.383,-75.7511 671.178,-80.9963 676.458,-85.592"/>
</g>
<!-- Node18&#45;&gt;Node12 -->
<g id="edge22" class="edge"><title>Node18&#45;&gt;Node12</title>
<path fill="none" stroke="midnightblue" d="M736.067,-168.324C751.958,-159.743 776.507,-146.486 794.958,-136.522"/>
<polygon fill="midnightblue" stroke="midnightblue" points="796.837,-139.486 803.973,-131.655 793.511,-133.326 796.837,-139.486"/>
</g>
<!-- Node19 -->
<g id="node19" class="node"><title>Node19</title>
<polygon fill="white" stroke="#bfbfbf" points="697,-112.5 697,-131.5 743,-131.5 743,-112.5 697,-112.5"/>
<text text-anchor="middle" x="720" y="-119.5" font-family="Helvetica,sans-Serif" font-size="10.00">cstdint</text>
</g>
<!-- Node18&#45;&gt;Node19 -->
<g id="edge23" class="edge"><title>Node18&#45;&gt;Node19</title>
<path fill="none" stroke="midnightblue" d="M720,-168.083C720,-161.006 720,-150.861 720,-141.986"/>
<polygon fill="midnightblue" stroke="midnightblue" points="723.5,-141.751 720,-131.751 716.5,-141.751 723.5,-141.751"/>
</g>
</g>
</svg>
