<?xml version="1.0" encoding="UTF-8" standalone="no"?>
<!DOCTYPE svg PUBLIC "-//W3C//DTD SVG 1.1//EN"
 "http://www.w3.org/Graphics/SVG/1.1/DTD/svg11.dtd">
<!-- Generated by graphviz version 2.40.1 (20161225.0304)
 -->
<!-- Title: osdk&#45;core/api/inc/dji_type.hpp Pages: 1 -->
<svg width="116pt" height="92pt"
 viewBox="0.00 0.00 116.31 92.00" xmlns="http://www.w3.org/2000/svg" xmlns:xlink="http://www.w3.org/1999/xlink">
<g id="graph0" class="graph" transform="scale(1 1) rotate(0) translate(4 88)">
<title>osdk&#45;core/api/inc/dji_type.hpp</title>
<polygon fill="#ffffff" stroke="transparent" points="-4,4 -4,-88 112.3076,-88 112.3076,4 -4,4"/>
<!-- Node0 -->
<g id="node1" class="node">
<title>Node0</title>
<g id="a_node1"><a xlink:title="Data type and Data Structure definitions for use throughout DJI OSDK.">
<polygon fill="#bfbfbf" stroke="#000000" points="0,-55.5 0,-83.5 104.374,-83.5 104.374,-55.5 0,-55.5"/>
<text text-anchor="start" x="8" y="-71.5" font-family="Helvetica,sans-Serif" font-size="10.00" fill="#000000">osdk&#45;core/api/inc/dji</text>
<text text-anchor="middle" x="52.187" y="-61.5" font-family="Helvetica,sans-Serif" font-size="10.00" fill="#000000">_type.hpp</text>
</a>
</g>
</g>
<!-- Node1 -->
<g id="node2" class="node">
<title>Node1</title>
<g id="a_node2"><a xlink:title=" ">
<polygon fill="#ffffff" stroke="#bfbfbf" points=".1255,-.5 .1255,-18.5 42.2485,-18.5 42.2485,-.5 .1255,-.5"/>
<text text-anchor="middle" x="21.187" y="-6.5" font-family="Helvetica,sans-Serif" font-size="10.00" fill="#000000">cstdio</text>
</a>
</g>
</g>
<!-- Node0&#45;&gt;Node1 -->
<g id="edge1" class="edge">
<title>Node0&#45;&gt;Node1</title>
<path fill="none" stroke="#191970" d="M44.8404,-55.2808C40.5736,-47.0224 35.1543,-36.5335 30.5798,-27.6796"/>
<polygon fill="#191970" stroke="#191970" points="33.5803,-25.8619 25.8805,-18.5842 27.3613,-29.075 33.5803,-25.8619"/>
</g>
<!-- Node2 -->
<g id="node3" class="node">
<title>Node2</title>
<g id="a_node3"><a xlink:title=" ">
<polygon fill="#ffffff" stroke="#bfbfbf" points="60.0664,-.5 60.0664,-18.5 108.3076,-18.5 108.3076,-.5 60.0664,-.5"/>
<text text-anchor="middle" x="84.187" y="-6.5" font-family="Helvetica,sans-Serif" font-size="10.00" fill="#000000">stdint.h</text>
</a>
</g>
</g>
<!-- Node0&#45;&gt;Node2 -->
<g id="edge2" class="edge">
<title>Node0&#45;&gt;Node2</title>
<path fill="none" stroke="#191970" d="M59.7706,-55.2808C64.1751,-47.0224 69.7692,-36.5335 74.4912,-27.6796"/>
<polygon fill="#191970" stroke="#191970" points="77.7244,-29.0548 79.3421,-18.5842 71.5479,-25.7607 77.7244,-29.0548"/>
</g>
</g>
</svg>
