<?xml version="1.0" encoding="UTF-8" standalone="no"?>
<!DOCTYPE svg PUBLIC "-//W3C//DTD SVG 1.1//EN"
 "http://www.w3.org/Graphics/SVG/1.1/DTD/svg11.dtd">
<!-- Generated by graphviz version 2.40.1 (20161225.0304)
 -->
<!-- Title: osdk&#45;core/api/src/dji_camera.cpp Pages: 1 -->
<!--zoomable 422 -->
<svg id="main" version="1.1" xmlns="http://www.w3.org/2000/svg" xmlns:xlink="http://www.w3.org/1999/xlink" xml:space="preserve" onload="init(evt)">
<style type="text/css"><![CDATA[
.edge:hover path { stroke: red; }
.edge:hover polygon { stroke: red; fill: red; }
]]></style>
<script type="text/javascript"><![CDATA[
var edges = document.getElementsByTagName('g');
if (edges && edges.length) {
  for (var i=0;i<edges.length;i++) {
    if (edges[i].id.substr(0,4)=='edge') {
      edges[i].setAttribute('class','edge');
    }
  }
}
]]></script>
        <defs>
                <circle id="rim" cx="0" cy="0" r="7"/>
                <circle id="rim2" cx="0" cy="0" r="3.5"/>
                <g id="zoomPlus">
                        <use xlink:href="#rim" fill="#404040">
                                <set attributeName="fill" to="#808080" begin="zoomplus.mouseover" end="zoomplus.mouseout"/>
                        </use>
                        <path d="M-4,0h8M0,-4v8" fill="none" stroke="white" stroke-width="1.5" pointer-events="none"/>
                </g>
                <g id="zoomMin">
                        <use xlink:href="#rim" fill="#404040">
                                <set attributeName="fill" to="#808080" begin="zoomminus.mouseover" end="zoomminus.mouseout"/>
                        </use>
                        <path d="M-4,0h8" fill="none" stroke="white" stroke-width="1.5" pointer-events="none"/>
                </g>
                <g id="dirArrow">
                        <path fill="none" stroke="white" stroke-width="1.5" d="M0,-3.0v7 M-2.5,-0.5L0,-3.0L2.5,-0.5"/>
                </g>
               <g id="resetDef">
                       <use xlink:href="#rim2" fill="#404040">
                               <set attributeName="fill" to="#808080" begin="reset.mouseover" end="reset.mouseout"/>
                       </use>
               </g>
        </defs>

<script type="text/javascript">
var viewWidth = 2109;
var viewHeight = 422;
var sectionId = 'dynsection-0';
</script>
<script xlink:href="svgpan.js"/>
<svg id="graph" class="graph">
<g id="viewport">
<title>osdk&#45;core/api/src/dji_camera.cpp</title>
<polygon fill="#ffffff" stroke="transparent" points="-4,4 -4,-418 2105.1229,-418 2105.1229,4 -4,4"/>
<!-- Node0 -->
<g id="node1" class="node">
<title>Node0</title>
<g id="a_node1"><a xlink:title="Camera/Gimbal API for DJI onboardSDK library.">
<polygon fill="#bfbfbf" stroke="#000000" points="524.5348,-385.5 524.5348,-413.5 629.4557,-413.5 629.4557,-385.5 524.5348,-385.5"/>
<text text-anchor="start" x="532.5348" y="-401.5" font-family="Helvetica,sans-Serif" font-size="10.00" fill="#000000">osdk&#45;core/api/src/dji</text>
<text text-anchor="middle" x="576.9953" y="-391.5" font-family="Helvetica,sans-Serif" font-size="10.00" fill="#000000">_camera.cpp</text>
</a>
</g>
</g>
<!-- Node1 -->
<g id="node2" class="node">
<title>Node1</title>
<g id="a_node2"><a xlink:href="dji__camera_8hpp.html" target="_top" xlink:title="Camera/Gimbal API for DJI onboardSDK library.">
<polygon fill="#ffffff" stroke="#000000" points="12.8083,-220.5 12.8083,-238.5 97.1823,-238.5 97.1823,-220.5 12.8083,-220.5"/>
<text text-anchor="middle" x="54.9953" y="-226.5" font-family="Helvetica,sans-Serif" font-size="10.00" fill="#000000">dji_camera.hpp</text>
</a>
</g>
</g>
<!-- Node0&#45;&gt;Node1 -->
<g id="edge1" class="edge">
<title>Node0&#45;&gt;Node1</title>
<path fill="none" stroke="#191970" d="M524.3417,-393.3949C413.7792,-379.7305 161.9662,-343.9196 92.9953,-294 77.4066,-282.7173 67.1385,-262.9097 61.2511,-248.2126"/>
<polygon fill="#191970" stroke="#191970" points="64.4572,-246.7898 57.7249,-238.6089 57.8862,-249.2025 64.4572,-246.7898"/>
</g>
<!-- Node7 -->
<g id="node8" class="node">
<title>Node7</title>
<g id="a_node8"><a xlink:href="dji__vehicle_8hpp.html" target="_top" xlink:title="Vehicle API for DJI onboardSDK library.">
<polygon fill="#ffffff" stroke="#000000" points="1058.9167,-330.5 1058.9167,-348.5 1141.0739,-348.5 1141.0739,-330.5 1058.9167,-330.5"/>
<text text-anchor="middle" x="1099.9953" y="-336.5" font-family="Helvetica,sans-Serif" font-size="10.00" fill="#000000">dji_vehicle.hpp</text>
</a>
</g>
</g>
<!-- Node0&#45;&gt;Node7 -->
<g id="edge9" class="edge">
<title>Node0&#45;&gt;Node7</title>
<path fill="none" stroke="#191970" d="M629.5371,-393.4723C730.1098,-381.9343 948.6864,-356.8586 1048.4633,-345.4119"/>
<polygon fill="#191970" stroke="#191970" points="1049.0637,-348.8661 1058.5996,-344.249 1048.2658,-341.9117 1049.0637,-348.8661"/>
</g>
<!-- Node2 -->
<g id="node3" class="node">
<title>Node2</title>
<g id="a_node3"><a xlink:href="dji__command_8hpp.html" target="_top" xlink:title="All DJI OSDK OpenProtocol Command IDs.">
<polygon fill="#ffffff" stroke="#000000" points="262.5275,-110.5 262.5275,-128.5 357.4631,-128.5 357.4631,-110.5 262.5275,-110.5"/>
<text text-anchor="middle" x="309.9953" y="-116.5" font-family="Helvetica,sans-Serif" font-size="10.00" fill="#000000">dji_command.hpp</text>
</a>
</g>
</g>
<!-- Node1&#45;&gt;Node2 -->
<g id="edge2" class="edge">
<title>Node1&#45;&gt;Node2</title>
<path fill="none" stroke="#191970" d="M45.9901,-220.1749C34.0386,-206.6646 15.9889,-181.4661 29.9953,-165 44.2146,-148.2835 174.3775,-132.7871 252.1325,-124.916"/>
<polygon fill="#191970" stroke="#191970" points="252.6711,-128.3797 262.2734,-123.9025 251.9749,-121.4144 252.6711,-128.3797"/>
</g>
<!-- Node5 -->
<g id="node6" class="node">
<title>Node5</title>
<g id="a_node6"><a xlink:href="dji__type_8hpp.html" target="_top" xlink:title="Data type and Data Structure definitions for use throughout DJI OSDK.">
<polygon fill="#ffffff" stroke="#000000" points="398.0299,-110.5 398.0299,-128.5 467.9606,-128.5 467.9606,-110.5 398.0299,-110.5"/>
<text text-anchor="middle" x="432.9953" y="-116.5" font-family="Helvetica,sans-Serif" font-size="10.00" fill="#000000">dji_type.hpp</text>
</a>
</g>
</g>
<!-- Node1&#45;&gt;Node5 -->
<g id="edge6" class="edge">
<title>Node1&#45;&gt;Node5</title>
<path fill="none" stroke="#191970" d="M52.9647,-220.0782C50.5351,-205.9739 48.4366,-179.484 62.9953,-165 111.0652,-117.1767 298.7566,-137.7602 365.9953,-129 373.0425,-128.0819 380.5003,-127.0672 387.7812,-126.0528"/>
<polygon fill="#191970" stroke="#191970" points="388.4808,-129.4889 397.8953,-124.6292 387.5051,-122.5573 388.4808,-129.4889"/>
</g>
<!-- Node3 -->
<g id="node4" class="node">
<title>Node3</title>
<g id="a_node4"><a xlink:href="dji__error_8hpp.html" target="_top" xlink:title="All DJI OSDK OpenProtocol ACK Error Codes.">
<polygon fill="#ffffff" stroke="#000000" points="306.1974,-55.5 306.1974,-73.5 377.7931,-73.5 377.7931,-55.5 306.1974,-55.5"/>
<text text-anchor="middle" x="341.9953" y="-61.5" font-family="Helvetica,sans-Serif" font-size="10.00" fill="#000000">dji_error.hpp</text>
</a>
</g>
</g>
<!-- Node2&#45;&gt;Node3 -->
<g id="edge3" class="edge">
<title>Node2&#45;&gt;Node3</title>
<path fill="none" stroke="#191970" d="M315.2794,-110.4179C319.6536,-102.8998 326.0052,-91.9829 331.4179,-82.6799"/>
<polygon fill="#191970" stroke="#191970" points="334.5926,-84.1831 336.5963,-73.7795 328.5421,-80.6628 334.5926,-84.1831"/>
</g>
<!-- Node4 -->
<g id="node5" class="node">
<title>Node4</title>
<g id="a_node5"><a xlink:title=" ">
<polygon fill="#ffffff" stroke="#bfbfbf" points="317.8747,-.5 317.8747,-18.5 366.1159,-18.5 366.1159,-.5 317.8747,-.5"/>
<text text-anchor="middle" x="341.9953" y="-6.5" font-family="Helvetica,sans-Serif" font-size="10.00" fill="#000000">stdint.h</text>
</a>
</g>
</g>
<!-- Node2&#45;&gt;Node4 -->
<g id="edge5" class="edge">
<title>Node2&#45;&gt;Node4</title>
<path fill="none" stroke="#191970" d="M304.9575,-110.4231C298.5703,-97.6435 289.2661,-73.8068 296.9953,-55 301.8455,-43.1985 311.4002,-32.8287 320.4624,-24.981"/>
<polygon fill="#191970" stroke="#191970" points="322.9014,-27.5109 328.4973,-18.5144 318.5125,-22.0576 322.9014,-27.5109"/>
</g>
<!-- Node3&#45;&gt;Node4 -->
<g id="edge4" class="edge">
<title>Node3&#45;&gt;Node4</title>
<path fill="none" stroke="#191970" d="M341.9953,-55.4179C341.9953,-48.2164 341.9953,-37.8962 341.9953,-28.8632"/>
<polygon fill="#191970" stroke="#191970" points="345.4954,-28.7794 341.9953,-18.7795 338.4954,-28.7795 345.4954,-28.7794"/>
</g>
<!-- Node5&#45;&gt;Node4 -->
<g id="edge8" class="edge">
<title>Node5&#45;&gt;Node4</title>
<path fill="none" stroke="#191970" d="M427.1773,-110.4016C418.8418,-97.5966 402.7613,-73.7297 386.9953,-55 378.4499,-44.8482 368.083,-34.2651 359.4544,-25.8628"/>
<polygon fill="#191970" stroke="#191970" points="361.7624,-23.2269 352.121,-18.8345 356.9189,-28.2807 361.7624,-23.2269"/>
</g>
<!-- Node6 -->
<g id="node7" class="node">
<title>Node6</title>
<g id="a_node7"><a xlink:title=" ">
<polygon fill="#ffffff" stroke="#bfbfbf" points="433.9338,-55.5 433.9338,-73.5 476.0568,-73.5 476.0568,-55.5 433.9338,-55.5"/>
<text text-anchor="middle" x="454.9953" y="-61.5" font-family="Helvetica,sans-Serif" font-size="10.00" fill="#000000">cstdio</text>
</a>
</g>
</g>
<!-- Node5&#45;&gt;Node6 -->
<g id="edge7" class="edge">
<title>Node5&#45;&gt;Node6</title>
<path fill="none" stroke="#191970" d="M436.6281,-110.4179C439.572,-103.0581 443.8189,-92.441 447.4875,-83.2695"/>
<polygon fill="#191970" stroke="#191970" points="450.8192,-84.3641 451.2835,-73.7795 444.3199,-81.7643 450.8192,-84.3641"/>
</g>
<!-- Node7&#45;&gt;Node1 -->
<g id="edge16" class="edge">
<title>Node7&#45;&gt;Node1</title>
<path fill="none" stroke="#191970" d="M1058.7451,-339.2324C884.2799,-337.8772 211.9753,-330.3223 124.9953,-294 101.2854,-284.0989 80.5543,-262.4317 67.9299,-246.9433"/>
<polygon fill="#191970" stroke="#191970" points="70.3856,-244.4012 61.4724,-238.6736 64.8684,-248.7094 70.3856,-244.4012"/>
</g>
<!-- Node7&#45;&gt;Node2 -->
<g id="edge18" class="edge">
<title>Node7&#45;&gt;Node2</title>
<path fill="none" stroke="#191970" d="M1058.7573,-338.861C881.1462,-335.9432 186.2217,-322.7713 92.9953,-294 48.5639,-280.2877 26.6396,-279.6129 3.9953,-239 -7.7529,-217.9293 10.5602,-174.0346 20.9953,-165 54.6899,-135.8276 178.003,-125.2695 252.2275,-121.514"/>
<polygon fill="#191970" stroke="#191970" points="252.5399,-125.0032 262.3607,-121.028 252.2045,-118.0112 252.5399,-125.0032"/>
</g>
<!-- Node7&#45;&gt;Node5 -->
<g id="edge62" class="edge">
<title>Node7&#45;&gt;Node5</title>
<path fill="none" stroke="#191970" d="M1058.8536,-337.5751C944.851,-332.0307 626.5541,-315.0668 523.9953,-294 374.6204,-263.3166 287.8746,-307.9144 198.9953,-184 194.0735,-177.1382 193.6242,-171.5161 198.9953,-165 204.9921,-157.7248 321.0468,-137.7478 387.4165,-126.8415"/>
<polygon fill="#191970" stroke="#191970" points="388.3138,-130.2413 397.6173,-125.1723 387.1834,-123.3332 388.3138,-130.2413"/>
</g>
<!-- Node8 -->
<g id="node9" class="node">
<title>Node8</title>
<g id="a_node9"><a xlink:title=" ">
<polygon fill="#ffffff" stroke="#bfbfbf" points="1032.5446,-110.5 1032.5446,-128.5 1077.446,-128.5 1077.446,-110.5 1032.5446,-110.5"/>
<text text-anchor="middle" x="1054.9953" y="-116.5" font-family="Helvetica,sans-Serif" font-size="10.00" fill="#000000">cstdint</text>
</a>
</g>
</g>
<!-- Node7&#45;&gt;Node8 -->
<g id="edge10" class="edge">
<title>Node7&#45;&gt;Node8</title>
<path fill="none" stroke="#191970" d="M1098.119,-330.327C1091.3718,-297.3409 1068.2493,-184.2972 1058.9325,-138.7484"/>
<polygon fill="#191970" stroke="#191970" points="1062.3126,-137.8079 1056.8796,-128.7122 1055.4546,-139.2108 1062.3126,-137.8079"/>
</g>
<!-- Node9 -->
<g id="node10" class="node">
<title>Node9</title>
<g id="a_node10"><a xlink:href="dji__broadcast_8hpp.html" target="_top" xlink:title="Broadcast Telemetry API for DJI onboardSDK library.">
<polygon fill="#ffffff" stroke="#000000" points="905.5226,-220.5 905.5226,-238.5 1000.4679,-238.5 1000.4679,-220.5 905.5226,-220.5"/>
<text text-anchor="middle" x="952.9953" y="-226.5" font-family="Helvetica,sans-Serif" font-size="10.00" fill="#000000">dji_broadcast.hpp</text>
</a>
</g>
</g>
<!-- Node7&#45;&gt;Node9 -->
<g id="edge11" class="edge">
<title>Node7&#45;&gt;Node9</title>
<path fill="none" stroke="#191970" d="M1058.7017,-332.1652C1033.542,-325.8215 1002.2528,-314.3348 980.9953,-294 968.2016,-281.7616 960.9171,-262.6884 957.0059,-248.4527"/>
<polygon fill="#191970" stroke="#191970" points="960.3991,-247.5937 954.637,-238.7027 953.5969,-249.2464 960.3991,-247.5937"/>
</g>
<!-- Node11 -->
<g id="node12" class="node">
<title>Node11</title>
<g id="a_node12"><a xlink:href="dji__vehicle__callback_8hpp.html" target="_top" xlink:title="Type definition for new Vehicle&#45;style callbacks.">
<polygon fill="#ffffff" stroke="#000000" points="1212.0719,-110.5 1212.0719,-128.5 1335.9186,-128.5 1335.9186,-110.5 1212.0719,-110.5"/>
<text text-anchor="middle" x="1273.9953" y="-116.5" font-family="Helvetica,sans-Serif" font-size="10.00" fill="#000000">dji_vehicle_callback.hpp</text>
</a>
</g>
</g>
<!-- Node7&#45;&gt;Node11 -->
<g id="edge63" class="edge">
<title>Node7&#45;&gt;Node11</title>
<path fill="none" stroke="#191970" d="M1111.2099,-330.4831C1127.8231,-317.3566 1160.2226,-292.6317 1189.9953,-275 1221.8094,-256.1593 1239.9547,-266.2044 1264.9953,-239 1288.1485,-213.8461 1290.391,-198.9038 1285.9953,-165 1284.8413,-156.0996 1282.4679,-146.459 1280.1341,-138.3525"/>
<polygon fill="#191970" stroke="#191970" points="1283.4737,-137.3047 1277.1949,-128.7708 1276.7815,-139.3576 1283.4737,-137.3047"/>
</g>
<!-- Node12 -->
<g id="node13" class="node">
<title>Node12</title>
<g id="a_node13"><a xlink:title=" ">
<polygon fill="#ffffff" stroke="#bfbfbf" points="1126.7887,-55.5 1126.7887,-73.5 1241.2018,-73.5 1241.2018,-55.5 1126.7887,-55.5"/>
<text text-anchor="middle" x="1183.9953" y="-61.5" font-family="Helvetica,sans-Serif" font-size="10.00" fill="#000000">dji_open_protocol.hpp</text>
</a>
</g>
</g>
<!-- Node7&#45;&gt;Node12 -->
<g id="edge54" class="edge">
<title>Node7&#45;&gt;Node12</title>
<path fill="none" stroke="#191970" d="M1141.2964,-338.9126C1322.9466,-336.1608 2043.5016,-323.4209 2080.9953,-294 2104.5057,-275.5515 2099.9953,-259.3846 2099.9953,-229.5 2099.9953,-229.5 2099.9953,-229.5 2099.9953,-174.5 2099.9953,-89.0077 1462.8695,-69.6054 1251.3408,-65.5197"/>
<polygon fill="#191970" stroke="#191970" points="1251.3592,-62.0195 1241.2952,-65.331 1251.2277,-69.0183 1251.3592,-62.0195"/>
</g>
<!-- Node13 -->
<g id="node14" class="node">
<title>Node13</title>
<g id="a_node14"><a xlink:title=" ">
<polygon fill="#ffffff" stroke="#bfbfbf" points="1242.1623,-275.5 1242.1623,-293.5 1355.8283,-293.5 1355.8283,-275.5 1242.1623,-275.5"/>
<text text-anchor="middle" x="1298.9953" y="-281.5" font-family="Helvetica,sans-Serif" font-size="10.00" fill="#000000">dji_circular_buffer.hpp</text>
</a>
</g>
</g>
<!-- Node7&#45;&gt;Node13 -->
<g id="edge17" class="edge">
<title>Node7&#45;&gt;Node13</title>
<path fill="none" stroke="#191970" d="M1132.8561,-330.4179C1166.6598,-321.0751 1219.4553,-306.4834 1256.4347,-296.263"/>
<polygon fill="#191970" stroke="#191970" points="1257.7102,-299.5418 1266.4164,-293.5042 1255.8454,-292.7947 1257.7102,-299.5418"/>
</g>
<!-- Node14 -->
<g id="node15" class="node">
<title>Node14</title>
<g id="a_node15"><a xlink:href="dji__control_8hpp.html" target="_top" xlink:title="Control API for DJI OSDK library.">
<polygon fill="#ffffff" stroke="#000000" points="990.4733,-275.5 990.4733,-293.5 1071.5173,-293.5 1071.5173,-275.5 990.4733,-275.5"/>
<text text-anchor="middle" x="1030.9953" y="-281.5" font-family="Helvetica,sans-Serif" font-size="10.00" fill="#000000">dji_control.hpp</text>
</a>
</g>
</g>
<!-- Node7&#45;&gt;Node14 -->
<g id="edge19" class="edge">
<title>Node7&#45;&gt;Node14</title>
<path fill="none" stroke="#191970" d="M1088.6013,-330.4179C1078.2761,-322.1876 1062.8405,-309.8839 1050.5456,-300.0836"/>
<polygon fill="#191970" stroke="#191970" points="1052.6381,-297.2757 1042.6368,-293.7795 1048.2749,-302.7495 1052.6381,-297.2757"/>
</g>
<!-- Node17 -->
<g id="node18" class="node">
<title>Node17</title>
<g id="a_node18"><a xlink:href="dji__version_8hpp.html" target="_top" xlink:title="Drone/SDK Version definition for DJI onboardSDK library.">
<polygon fill="#ffffff" stroke="#000000" points="639.3625,-165.5 639.3625,-183.5 722.6281,-183.5 722.6281,-165.5 639.3625,-165.5"/>
<text text-anchor="middle" x="680.9953" y="-171.5" font-family="Helvetica,sans-Serif" font-size="10.00" fill="#000000">dji_version.hpp</text>
</a>
</g>
</g>
<!-- Node7&#45;&gt;Node17 -->
<g id="edge64" class="edge">
<title>Node7&#45;&gt;Node17</title>
<path fill="none" stroke="#191970" d="M1067.9036,-330.4276C1039.7952,-322.1088 998.0748,-308.8533 962.9953,-294 897.4612,-266.2516 886.6182,-247.5378 820.9953,-220 789.1976,-206.6565 752.0268,-194.7389 723.9803,-186.451"/>
<polygon fill="#191970" stroke="#191970" points="724.6671,-183.0055 714.0871,-183.5658 722.7073,-189.7256 724.6671,-183.0055"/>
</g>
<!-- Node19 -->
<g id="node20" class="node">
<title>Node19</title>
<g id="a_node20"><a xlink:href="dji__gimbal_8hpp.html" target="_top" xlink:title="Gimbal API for OSDK library.">
<polygon fill="#ffffff" stroke="#000000" points="71.7516,-165.5 71.7516,-183.5 152.2389,-183.5 152.2389,-165.5 71.7516,-165.5"/>
<text text-anchor="middle" x="111.9953" y="-171.5" font-family="Helvetica,sans-Serif" font-size="10.00" fill="#000000">dji_gimbal.hpp</text>
</a>
</g>
</g>
<!-- Node7&#45;&gt;Node19 -->
<g id="edge32" class="edge">
<title>Node7&#45;&gt;Node19</title>
<path fill="none" stroke="#191970" d="M1058.711,-338.6837C882.8379,-335.0544 203.3659,-319.4312 165.9953,-294 132.0832,-270.9224 119.1576,-221.1349 114.4758,-193.6666"/>
<polygon fill="#191970" stroke="#191970" points="117.927,-193.0795 112.9768,-183.7122 111.005,-194.1219 117.927,-193.0795"/>
</g>
<!-- Node20 -->
<g id="node21" class="node">
<title>Node20</title>
<g id="a_node21"><a xlink:title=" ">
<polygon fill="#ffffff" stroke="#bfbfbf" points="1373.4635,-275.5 1373.4635,-293.5 1474.527,-293.5 1474.527,-275.5 1373.4635,-275.5"/>
<text text-anchor="middle" x="1423.9953" y="-281.5" font-family="Helvetica,sans-Serif" font-size="10.00" fill="#000000">dji_hard_driver.hpp</text>
</a>
</g>
</g>
<!-- Node7&#45;&gt;Node20 -->
<g id="edge35" class="edge">
<title>Node7&#45;&gt;Node20</title>
<path fill="none" stroke="#191970" d="M1141.3592,-332.4783C1197.5507,-322.9397 1298.4155,-305.8176 1363.2199,-294.8168"/>
<polygon fill="#191970" stroke="#191970" points="1364.0255,-298.2302 1373.2987,-293.1059 1362.8539,-291.3289 1364.0255,-298.2302"/>
</g>
<!-- Node21 -->
<g id="node22" class="node">
<title>Node21</title>
<g id="a_node22"><a xlink:href="dji__hardware__sync_8hpp.html" target="_top" xlink:title="Hardware Sync API for DJI OSDK.">
<polygon fill="#ffffff" stroke="#000000" points="207.5744,-165.5 207.5744,-183.5 326.4162,-183.5 326.4162,-165.5 207.5744,-165.5"/>
<text text-anchor="middle" x="266.9953" y="-171.5" font-family="Helvetica,sans-Serif" font-size="10.00" fill="#000000">dji_hardware_sync.hpp</text>
</a>
</g>
</g>
<!-- Node7&#45;&gt;Node21 -->
<g id="edge36" class="edge">
<title>Node7&#45;&gt;Node21</title>
<path fill="none" stroke="#191970" d="M1058.5614,-337.1498C954.0161,-331.0006 681.5569,-313.553 592.9953,-294 522.4344,-278.4213 507.8502,-263.8444 439.9953,-239 391.5047,-221.2456 335.5346,-200.2943 300.701,-187.2004"/>
<polygon fill="#191970" stroke="#191970" points="301.6229,-183.8078 291.0309,-183.5631 299.1585,-190.3596 301.6229,-183.8078"/>
</g>
<!-- Node22 -->
<g id="node23" class="node">
<title>Node22</title>
<g id="a_node23"><a xlink:href="dji__mfio_8hpp.html" target="_top" xlink:title="MFIO API for DJI OSDK library.">
<polygon fill="#ffffff" stroke="#000000" points="1330.0348,-165.5 1330.0348,-183.5 1399.9557,-183.5 1399.9557,-165.5 1330.0348,-165.5"/>
<text text-anchor="middle" x="1364.9953" y="-171.5" font-family="Helvetica,sans-Serif" font-size="10.00" fill="#000000">dji_mfio.hpp</text>
</a>
</g>
</g>
<!-- Node7&#45;&gt;Node22 -->
<g id="edge38" class="edge">
<title>Node7&#45;&gt;Node22</title>
<path fill="none" stroke="#191970" d="M1117.9508,-330.4933C1143.3982,-317.797 1191.4822,-294.0586 1232.9953,-275 1269.5375,-258.2234 1284.3585,-263.8174 1315.9953,-239 1332.3571,-226.165 1346.1661,-206.6366 1354.9121,-192.4301"/>
<polygon fill="#191970" stroke="#191970" points="1358.0592,-193.9838 1360.1273,-183.5927 1352.0307,-190.4261 1358.0592,-193.9838"/>
</g>
<!-- Node23 -->
<g id="node24" class="node">
<title>Node23</title>
<g id="a_node24"><a xlink:href="dji__mission__manager_8hpp.html" target="_top" xlink:title="Mission&#45;Manager API for DJI OSDK library.">
<polygon fill="#ffffff" stroke="#000000" points="712.2912,-275.5 712.2912,-293.5 841.6994,-293.5 841.6994,-275.5 712.2912,-275.5"/>
<text text-anchor="middle" x="776.9953" y="-281.5" font-family="Helvetica,sans-Serif" font-size="10.00" fill="#000000">dji_mission_manager.hpp</text>
</a>
</g>
</g>
<!-- Node7&#45;&gt;Node23 -->
<g id="edge40" class="edge">
<title>Node7&#45;&gt;Node23</title>
<path fill="none" stroke="#191970" d="M1058.759,-332.4783C1003.4674,-323.0634 904.788,-306.2604 840.1145,-295.2478"/>
<polygon fill="#191970" stroke="#191970" points="840.4842,-291.7605 830.0386,-293.5321 839.3091,-298.6612 840.4842,-291.7605"/>
</g>
<!-- Node27 -->
<g id="node28" class="node">
<title>Node27</title>
<g id="a_node28"><a xlink:href="dji__mobile__communication_8hpp.html" target="_top" xlink:title="Implementation of DJI Mobile&#45;Onboard SDK Communication (MOC)">
<polygon fill="#ffffff" stroke="#000000" points="1918.3454,-275.5 1918.3454,-293.5 2071.6452,-293.5 2071.6452,-275.5 1918.3454,-275.5"/>
<text text-anchor="middle" x="1994.9953" y="-281.5" font-family="Helvetica,sans-Serif" font-size="10.00" fill="#000000">dji_mobile_communication.hpp</text>
</a>
</g>
</g>
<!-- Node7&#45;&gt;Node27 -->
<g id="edge49" class="edge">
<title>Node7&#45;&gt;Node27</title>
<path fill="none" stroke="#191970" d="M1141.4662,-337.8491C1260.3275,-332.9672 1612.3919,-317.459 1903.9953,-294 1905.2867,-293.8961 1906.5882,-293.7892 1907.8978,-293.6796"/>
<polygon fill="#191970" stroke="#191970" points="1908.4078,-297.1484 1918.0649,-292.7906 1907.798,-290.175 1908.4078,-297.1484"/>
</g>
<!-- Node29 -->
<g id="node30" class="node">
<title>Node29</title>
<g id="a_node30"><a xlink:href="dji__mobile__device_8hpp.html" target="_top" xlink:title="Implementation of DJI Mobile Device Abstraction.">
<polygon fill="#ffffff" stroke="#000000" points="1654.5177,-220.5 1654.5177,-238.5 1769.4728,-238.5 1769.4728,-220.5 1654.5177,-220.5"/>
<text text-anchor="middle" x="1711.9953" y="-226.5" font-family="Helvetica,sans-Serif" font-size="10.00" fill="#000000">dji_mobile_device.hpp</text>
</a>
</g>
</g>
<!-- Node7&#45;&gt;Node29 -->
<g id="edge52" class="edge">
<title>Node7&#45;&gt;Node29</title>
<path fill="none" stroke="#191970" d="M1141.2736,-338.6154C1297.6059,-335.0676 1845.773,-320.7546 1870.9953,-294 1902.9946,-260.0566 1836.3494,-243.505 1779.7694,-235.769"/>
<polygon fill="#191970" stroke="#191970" points="1780.0765,-232.2797 1769.7104,-234.4691 1779.1793,-239.222 1780.0765,-232.2797"/>
</g>
<!-- Node30 -->
<g id="node31" class="node">
<title>Node30</title>
<g id="a_node31"><a xlink:title=" ">
<polygon fill="#ffffff" stroke="#bfbfbf" points="1492.1779,-275.5 1492.1779,-293.5 1623.8127,-293.5 1623.8127,-275.5 1492.1779,-275.5"/>
<text text-anchor="middle" x="1557.9953" y="-281.5" font-family="Helvetica,sans-Serif" font-size="10.00" fill="#000000">dji_platform_manager.hpp</text>
</a>
</g>
</g>
<!-- Node7&#45;&gt;Node30 -->
<g id="edge55" class="edge">
<title>Node7&#45;&gt;Node30</title>
<path fill="none" stroke="#191970" d="M1141.2107,-334.7498C1209.7552,-326.8207 1351.7852,-310.2676 1481.7066,-294.2747"/>
<polygon fill="#191970" stroke="#191970" points="1482.3381,-297.7234 1491.8347,-293.026 1481.4815,-290.776 1482.3381,-297.7234"/>
</g>
<!-- Node31 -->
<g id="node32" class="node">
<title>Node31</title>
<g id="a_node32"><a xlink:href="dji__status_8hpp.html" target="_top" xlink:title="Status information for DJI Vehicle.">
<polygon fill="#ffffff" stroke="#000000" points="1642.1408,-275.5 1642.1408,-293.5 1719.8498,-293.5 1719.8498,-275.5 1642.1408,-275.5"/>
<text text-anchor="middle" x="1680.9953" y="-281.5" font-family="Helvetica,sans-Serif" font-size="10.00" fill="#000000">dji_status.hpp</text>
</a>
</g>
</g>
<!-- Node7&#45;&gt;Node31 -->
<g id="edge56" class="edge">
<title>Node7&#45;&gt;Node31</title>
<path fill="none" stroke="#191970" d="M1141.2968,-337.5284C1229.515,-332.9828 1443.0065,-320.2025 1631.9084,-294.0055"/>
<polygon fill="#191970" stroke="#191970" points="1632.607,-297.4419 1642.0238,-292.5864 1631.6345,-290.5098 1632.607,-297.4419"/>
</g>
<!-- Node32 -->
<g id="node33" class="node">
<title>Node32</title>
<g id="a_node33"><a xlink:href="dji__subscription_8hpp.html" target="_top" xlink:title="Telemetry Subscription API for DJI OSDK library.">
<polygon fill="#ffffff" stroke="#000000" points="1131.8009,-220.5 1131.8009,-238.5 1236.1896,-238.5 1236.1896,-220.5 1131.8009,-220.5"/>
<text text-anchor="middle" x="1183.9953" y="-226.5" font-family="Helvetica,sans-Serif" font-size="10.00" fill="#000000">dji_subscription.hpp</text>
</a>
</g>
</g>
<!-- Node7&#45;&gt;Node32 -->
<g id="edge57" class="edge">
<title>Node7&#45;&gt;Node32</title>
<path fill="none" stroke="#191970" d="M1106.8694,-330.4982C1120.8365,-312.2079 1152.7393,-270.4304 1170.8337,-246.7354"/>
<polygon fill="#191970" stroke="#191970" points="1173.7387,-248.6981 1177.0262,-238.6261 1168.1754,-244.4496 1173.7387,-248.6981"/>
</g>
<!-- Node33 -->
<g id="node34" class="node">
<title>Node33</title>
<g id="a_node34"><a xlink:title=" ">
<polygon fill="#ffffff" stroke="#bfbfbf" points="1738.0622,-275.5 1738.0622,-293.5 1861.9284,-293.5 1861.9284,-275.5 1738.0622,-275.5"/>
<text text-anchor="middle" x="1799.9953" y="-281.5" font-family="Helvetica,sans-Serif" font-size="10.00" fill="#000000">dji_thread_manager.hpp</text>
</a>
</g>
</g>
<!-- Node7&#45;&gt;Node33 -->
<g id="edge61" class="edge">
<title>Node7&#45;&gt;Node33</title>
<path fill="none" stroke="#191970" d="M1141.2837,-337.3843C1240.4614,-332.1154 1500.1497,-317.2116 1727.5623,-294.0921"/>
<polygon fill="#191970" stroke="#191970" points="1728.0913,-297.5564 1737.6826,-293.0556 1727.378,-290.5928 1728.0913,-297.5564"/>
</g>
<!-- Node34 -->
<g id="node35" class="node">
<title>Node34</title>
<g id="a_node35"><a xlink:href="dji__virtual__rc_8hpp.html" target="_top" xlink:title="Virtual Radio Control API for DJI onboardSDK library.">
<polygon fill="#ffffff" stroke="#000000" points="602.1974,-275.5 602.1974,-293.5 693.7931,-293.5 693.7931,-275.5 602.1974,-275.5"/>
<text text-anchor="middle" x="647.9953" y="-281.5" font-family="Helvetica,sans-Serif" font-size="10.00" fill="#000000">dji_virtual_rc.hpp</text>
</a>
</g>
</g>
<!-- Node7&#45;&gt;Node34 -->
<g id="edge65" class="edge">
<title>Node7&#45;&gt;Node34</title>
<path fill="none" stroke="#191970" d="M1058.7466,-335.5538C988.266,-328.6411 839.9137,-313.3522 704.0551,-294.0809"/>
<polygon fill="#191970" stroke="#191970" points="704.275,-290.5768 693.8804,-292.6267 703.2846,-297.5064 704.275,-290.5768"/>
</g>
<!-- Node10 -->
<g id="node11" class="node">
<title>Node10</title>
<g id="a_node11"><a xlink:href="dji__telemetry_8hpp.html" target="_top" xlink:title="Enumeration of all telemetry data types, structures and maps.">
<polygon fill="#ffffff" stroke="#000000" points="871.2878,-165.5 871.2878,-183.5 962.7028,-183.5 962.7028,-165.5 871.2878,-165.5"/>
<text text-anchor="middle" x="916.9953" y="-171.5" font-family="Helvetica,sans-Serif" font-size="10.00" fill="#000000">dji_telemetry.hpp</text>
</a>
</g>
</g>
<!-- Node9&#45;&gt;Node10 -->
<g id="edge12" class="edge">
<title>Node9&#45;&gt;Node10</title>
<path fill="none" stroke="#191970" d="M947.0506,-220.4179C942.0779,-212.8207 934.8334,-201.7527 928.7029,-192.3866"/>
<polygon fill="#191970" stroke="#191970" points="931.4742,-190.2297 923.0691,-183.7795 925.6173,-194.0633 931.4742,-190.2297"/>
</g>
<!-- Node9&#45;&gt;Node11 -->
<g id="edge14" class="edge">
<title>Node9&#45;&gt;Node11</title>
<path fill="none" stroke="#191970" d="M979.2641,-220.4982C1036.5183,-200.8784 1172.6383,-154.2329 1237.8943,-131.871"/>
<polygon fill="#191970" stroke="#191970" points="1239.0382,-135.1789 1247.3635,-128.6261 1236.7689,-128.557 1239.0382,-135.1789"/>
</g>
<!-- Node10&#45;&gt;Node5 -->
<g id="edge13" class="edge">
<title>Node10&#45;&gt;Node5</title>
<path fill="none" stroke="#191970" d="M871.1143,-166.3442C868.0316,-165.8675 864.9705,-165.4143 861.9953,-165 722.4926,-145.5753 556.4442,-130.136 478.131,-123.3089"/>
<polygon fill="#191970" stroke="#191970" points="478.3884,-119.8182 468.1236,-122.4419 477.7841,-126.7921 478.3884,-119.8182"/>
</g>
<!-- Node11&#45;&gt;Node12 -->
<g id="edge15" class="edge">
<title>Node11&#45;&gt;Node12</title>
<path fill="none" stroke="#191970" d="M1259.1336,-110.4179C1245.1939,-101.8992 1224.1133,-89.0166 1207.8252,-79.0627"/>
<polygon fill="#191970" stroke="#191970" points="1209.237,-75.8237 1198.879,-73.5956 1205.5868,-81.7967 1209.237,-75.8237"/>
</g>
<!-- Node14&#45;&gt;Node5 -->
<g id="edge30" class="edge">
<title>Node14&#45;&gt;Node5</title>
<path fill="none" stroke="#191970" d="M1029.8248,-275.3691C1026.2498,-251.8138 1013.0852,-189.1533 971.9953,-165 929.9092,-140.2611 600.576,-125.6916 478.4036,-121.093"/>
<polygon fill="#191970" stroke="#191970" points="478.3844,-117.59 468.2613,-120.7164 478.1245,-124.5852 478.3844,-117.59"/>
</g>
<!-- Node14&#45;&gt;Node11 -->
<g id="edge31" class="edge">
<title>Node14&#45;&gt;Node11</title>
<path fill="none" stroke="#191970" d="M1071.7371,-280.9636C1126.7619,-275.3542 1220.7524,-262.5598 1244.9953,-239 1272.2016,-212.5603 1275.6108,-165.2461 1275.1513,-138.7776"/>
<polygon fill="#191970" stroke="#191970" points="1278.6391,-138.3899 1274.7577,-128.5316 1271.6442,-138.6586 1278.6391,-138.3899"/>
</g>
<!-- Node14&#45;&gt;Node12 -->
<g id="edge29" class="edge">
<title>Node14&#45;&gt;Node12</title>
<path fill="none" stroke="#191970" d="M1037.3747,-275.327C1060.6066,-241.9216 1140.9395,-126.4103 1171.794,-82.0444"/>
<polygon fill="#191970" stroke="#191970" points="1174.7525,-83.9204 1177.5886,-73.7122 1169.0056,-79.9237 1174.7525,-83.9204"/>
</g>
<!-- Node15 -->
<g id="node16" class="node">
<title>Node15</title>
<g id="a_node16"><a xlink:href="dji__ack_8hpp.html" target="_top" xlink:title="All DJI OSDK ACK parsing.">
<polygon fill="#ffffff" stroke="#000000" points="494.6999,-220.5 494.6999,-238.5 561.2907,-238.5 561.2907,-220.5 494.6999,-220.5"/>
<text text-anchor="middle" x="527.9953" y="-226.5" font-family="Helvetica,sans-Serif" font-size="10.00" fill="#000000">dji_ack.hpp</text>
</a>
</g>
</g>
<!-- Node14&#45;&gt;Node15 -->
<g id="edge20" class="edge">
<title>Node14&#45;&gt;Node15</title>
<path fill="none" stroke="#191970" d="M990.1747,-282.0972C911.2869,-277.1008 732.2819,-264.0486 571.7799,-238.9418"/>
<polygon fill="#191970" stroke="#191970" points="572.1484,-235.4566 561.7239,-237.3489 571.0532,-242.3704 572.1484,-235.4566"/>
</g>
<!-- Node15&#45;&gt;Node2 -->
<g id="edge21" class="edge">
<title>Node15&#45;&gt;Node2</title>
<path fill="none" stroke="#191970" d="M500.382,-220.496C476.2446,-212.2211 440.5366,-198.9915 410.9953,-184 382.0352,-169.3035 350.8412,-148.549 330.9044,-134.5881"/>
<polygon fill="#191970" stroke="#191970" points="332.7689,-131.6197 322.5849,-128.6978 328.724,-137.3328 332.7689,-131.6197"/>
</g>
<!-- Node15&#45;&gt;Node5 -->
<g id="edge24" class="edge">
<title>Node15&#45;&gt;Node5</title>
<path fill="none" stroke="#191970" d="M548.9967,-220.428C573.4215,-208.5859 608.4251,-186.7909 591.9953,-165 578.262,-146.7855 520.32,-133.6529 478.3407,-126.3108"/>
<polygon fill="#191970" stroke="#191970" points="478.7602,-122.8321 468.3161,-124.6132 477.5913,-129.7339 478.7602,-122.8321"/>
</g>
<!-- Node16 -->
<g id="node17" class="node">
<title>Node16</title>
<g id="a_node17"><a xlink:href="dji__mission__type_8hpp.html" target="_top" xlink:title="Mission related data struct for DJI OSDK library.">
<polygon fill="#ffffff" stroke="#000000" points="420.3009,-165.5 420.3009,-183.5 529.6896,-183.5 529.6896,-165.5 420.3009,-165.5"/>
<text text-anchor="middle" x="474.9953" y="-171.5" font-family="Helvetica,sans-Serif" font-size="10.00" fill="#000000">dji_mission_type.hpp</text>
</a>
</g>
</g>
<!-- Node15&#45;&gt;Node16 -->
<g id="edge22" class="edge">
<title>Node15&#45;&gt;Node16</title>
<path fill="none" stroke="#191970" d="M519.2434,-220.4179C511.6174,-212.5041 500.3623,-200.8243 491.1122,-191.2251"/>
<polygon fill="#191970" stroke="#191970" points="493.3965,-188.5516 483.9373,-183.7795 488.356,-193.4089 493.3965,-188.5516"/>
</g>
<!-- Node15&#45;&gt;Node17 -->
<g id="edge25" class="edge">
<title>Node15&#45;&gt;Node17</title>
<path fill="none" stroke="#191970" d="M553.2601,-220.4179C578.6946,-211.2748 618.1134,-197.1046 646.4339,-186.924"/>
<polygon fill="#191970" stroke="#191970" points="647.7208,-190.1808 655.9472,-183.5042 645.3527,-183.5935 647.7208,-190.1808"/>
</g>
<!-- Node18 -->
<g id="node19" class="node">
<title>Node18</title>
<g id="a_node19"><a xlink:title=" ">
<polygon fill="#ffffff" stroke="#bfbfbf" points="547.2687,-165.5 547.2687,-183.5 582.7218,-183.5 582.7218,-165.5 547.2687,-165.5"/>
<text text-anchor="middle" x="564.9953" y="-171.5" font-family="Helvetica,sans-Serif" font-size="10.00" fill="#000000">map</text>
</a>
</g>
</g>
<!-- Node15&#45;&gt;Node18 -->
<g id="edge28" class="edge">
<title>Node15&#45;&gt;Node18</title>
<path fill="none" stroke="#191970" d="M534.1051,-220.4179C539.2692,-212.7415 546.817,-201.5217 553.159,-192.0945"/>
<polygon fill="#191970" stroke="#191970" points="556.075,-194.0303 558.7527,-183.7795 550.2669,-190.1231 556.075,-194.0303"/>
</g>
<!-- Node16&#45;&gt;Node5 -->
<g id="edge23" class="edge">
<title>Node16&#45;&gt;Node5</title>
<path fill="none" stroke="#191970" d="M468.0598,-165.4179C462.1375,-157.6624 453.4531,-146.29 446.2089,-136.8035"/>
<polygon fill="#191970" stroke="#191970" points="448.9323,-134.6029 440.0814,-128.7795 443.3689,-138.8514 448.9323,-134.6029"/>
</g>
<!-- Node17&#45;&gt;Node2 -->
<g id="edge26" class="edge">
<title>Node17&#45;&gt;Node2</title>
<path fill="none" stroke="#191970" d="M639.158,-168.2977C572.7344,-158.4505 442.9879,-139.2159 367.7508,-128.0621"/>
<polygon fill="#191970" stroke="#191970" points="367.9137,-124.5481 357.5085,-126.5437 366.8871,-131.4724 367.9137,-124.5481"/>
</g>
<!-- Node17&#45;&gt;Node8 -->
<g id="edge27" class="edge">
<title>Node17&#45;&gt;Node8</title>
<path fill="none" stroke="#191970" d="M722.7175,-166.5729C725.8543,-166.0245 728.9732,-165.4941 731.9953,-165 837.7481,-147.7106 963.6355,-131.1215 1022.115,-123.6434"/>
<polygon fill="#191970" stroke="#191970" points="1022.7524,-127.0906 1032.23,-122.355 1021.8678,-120.1467 1022.7524,-127.0906"/>
</g>
<!-- Node19&#45;&gt;Node2 -->
<g id="edge33" class="edge">
<title>Node19&#45;&gt;Node2</title>
<path fill="none" stroke="#191970" d="M144.691,-165.4179C178.3248,-156.0751 230.855,-141.4834 267.6485,-131.263"/>
<polygon fill="#191970" stroke="#191970" points="268.8817,-134.553 277.5801,-128.5042 267.0082,-127.8084 268.8817,-134.553"/>
</g>
<!-- Node19&#45;&gt;Node5 -->
<g id="edge34" class="edge">
<title>Node19&#45;&gt;Node5</title>
<path fill="none" stroke="#191970" d="M152.3885,-167.3695C156.9772,-166.5667 161.587,-165.7634 165.9953,-165 243.9648,-151.4982 334.8006,-136.0863 387.8963,-127.1097"/>
<polygon fill="#191970" stroke="#191970" points="388.7203,-130.5202 397.9972,-125.4027 387.5538,-123.6181 388.7203,-130.5202"/>
</g>
<!-- Node21&#45;&gt;Node5 -->
<g id="edge37" class="edge">
<title>Node21&#45;&gt;Node5</title>
<path fill="none" stroke="#191970" d="M294.4068,-165.4179C322.2434,-156.1949 365.5187,-141.8567 396.2996,-131.6582"/>
<polygon fill="#191970" stroke="#191970" points="397.4272,-134.9718 405.8189,-128.5042 395.2256,-128.327 397.4272,-134.9718"/>
</g>
<!-- Node22&#45;&gt;Node11 -->
<g id="edge39" class="edge">
<title>Node22&#45;&gt;Node11</title>
<path fill="none" stroke="#191970" d="M1349.9685,-165.4179C1335.7421,-156.8195 1314.16,-143.7754 1297.6295,-133.7844"/>
<polygon fill="#191970" stroke="#191970" points="1299.4131,-130.7729 1289.0444,-128.5956 1295.7923,-136.7637 1299.4131,-130.7729"/>
</g>
<!-- Node24 -->
<g id="node25" class="node">
<title>Node24</title>
<g id="a_node25"><a xlink:href="dji__hotpoint_8hpp.html" target="_top" xlink:title="Implementation of HotPoint (Point of Interest) Missions for DJI OSDK.">
<polygon fill="#ffffff" stroke="#000000" points="725.6877,-220.5 725.6877,-238.5 812.3029,-238.5 812.3029,-220.5 725.6877,-220.5"/>
<text text-anchor="middle" x="768.9953" y="-226.5" font-family="Helvetica,sans-Serif" font-size="10.00" fill="#000000">dji_hotpoint.hpp</text>
</a>
</g>
</g>
<!-- Node23&#45;&gt;Node24 -->
<g id="edge41" class="edge">
<title>Node23&#45;&gt;Node24</title>
<path fill="none" stroke="#191970" d="M775.6742,-275.4179C774.6267,-268.2164 773.1256,-257.8962 771.8117,-248.8632"/>
<polygon fill="#191970" stroke="#191970" points="775.2481,-248.1715 770.345,-238.7795 768.3209,-249.1791 775.2481,-248.1715"/>
</g>
<!-- Node26 -->
<g id="node27" class="node">
<title>Node26</title>
<g id="a_node27"><a xlink:href="dji__waypoint_8hpp.html" target="_top" xlink:title="Implementation of GPS Waypoint Missions for DJI OSDK.">
<polygon fill="#ffffff" stroke="#000000" points="579.7467,-220.5 579.7467,-238.5 670.2438,-238.5 670.2438,-220.5 579.7467,-220.5"/>
<text text-anchor="middle" x="624.9953" y="-226.5" font-family="Helvetica,sans-Serif" font-size="10.00" fill="#000000">dji_waypoint.hpp</text>
</a>
</g>
</g>
<!-- Node23&#45;&gt;Node26 -->
<g id="edge47" class="edge">
<title>Node23&#45;&gt;Node26</title>
<path fill="none" stroke="#191970" d="M751.8956,-275.4179C726.6273,-266.2748 687.4662,-252.1046 659.3308,-241.924"/>
<polygon fill="#191970" stroke="#191970" points="660.4739,-238.6156 649.8796,-238.5042 658.0921,-245.198 660.4739,-238.6156"/>
</g>
<!-- Node24&#45;&gt;Node10 -->
<g id="edge46" class="edge">
<title>Node24&#45;&gt;Node10</title>
<path fill="none" stroke="#191970" d="M793.4345,-220.4179C817.8572,-211.3419 855.6094,-197.3123 882.9585,-187.1488"/>
<polygon fill="#191970" stroke="#191970" points="884.3653,-190.3599 892.5198,-183.5956 881.9269,-183.7984 884.3653,-190.3599"/>
</g>
<!-- Node25 -->
<g id="node26" class="node">
<title>Node25</title>
<g id="a_node26"><a xlink:href="dji__mission__base_8hpp.html" target="_top" xlink:title="Mission&#45;Base abstract class for DJI OSDK library.">
<polygon fill="#ffffff" stroke="#000000" points="740.9093,-165.5 740.9093,-183.5 853.0812,-183.5 853.0812,-165.5 740.9093,-165.5"/>
<text text-anchor="middle" x="796.9953" y="-171.5" font-family="Helvetica,sans-Serif" font-size="10.00" fill="#000000">dji_mission_base.hpp</text>
</a>
</g>
</g>
<!-- Node24&#45;&gt;Node25 -->
<g id="edge42" class="edge">
<title>Node24&#45;&gt;Node25</title>
<path fill="none" stroke="#191970" d="M773.6189,-220.4179C777.406,-212.9789 782.8872,-202.2123 787.5903,-192.9742"/>
<polygon fill="#191970" stroke="#191970" points="790.8534,-194.279 792.2712,-183.7795 784.6152,-191.1032 790.8534,-194.279"/>
</g>
<!-- Node25&#45;&gt;Node2 -->
<g id="edge43" class="edge">
<title>Node25&#45;&gt;Node2</title>
<path fill="none" stroke="#191970" d="M740.6441,-166.1214C737.7206,-165.7313 734.8242,-165.355 731.9953,-165 579.9066,-145.9125 541.3145,-146.1509 388.9953,-129 382.1702,-128.2315 375.0164,-127.4032 367.9189,-126.5673"/>
<polygon fill="#191970" stroke="#191970" points="367.9484,-123.0463 357.6056,-125.3432 367.1233,-129.9975 367.9484,-123.0463"/>
</g>
<!-- Node25&#45;&gt;Node5 -->
<g id="edge44" class="edge">
<title>Node25&#45;&gt;Node5</title>
<path fill="none" stroke="#191970" d="M740.5197,-165.9666C668.3016,-155.0545 544.6721,-136.3742 478.2924,-126.3443"/>
<polygon fill="#191970" stroke="#191970" points="478.5577,-122.8448 468.147,-124.8114 477.5118,-129.7662 478.5577,-122.8448"/>
</g>
<!-- Node25&#45;&gt;Node11 -->
<g id="edge45" class="edge">
<title>Node25&#45;&gt;Node11</title>
<path fill="none" stroke="#191970" d="M853.3488,-166.1401C856.2718,-165.7452 859.1673,-165.3627 861.9953,-165 980.8776,-149.7527 1119.4613,-135.086 1201.7907,-126.6982"/>
<polygon fill="#191970" stroke="#191970" points="1202.1983,-130.1749 1211.7932,-125.6819 1201.4906,-123.2108 1202.1983,-130.1749"/>
</g>
<!-- Node26&#45;&gt;Node25 -->
<g id="edge48" class="edge">
<title>Node26&#45;&gt;Node25</title>
<path fill="none" stroke="#191970" d="M653.3976,-220.4179C682.2403,-211.1949 727.0798,-196.8567 758.9732,-186.6582"/>
<polygon fill="#191970" stroke="#191970" points="760.3778,-189.8837 768.8367,-183.5042 758.2457,-183.2163 760.3778,-189.8837"/>
</g>
<!-- Node27&#45;&gt;Node11 -->
<g id="edge51" class="edge">
<title>Node27&#45;&gt;Node11</title>
<path fill="none" stroke="#191970" d="M1995.1865,-275.3989C1994.9477,-261.2262 1992.2388,-234.0541 1975.9953,-220 1928.7778,-179.1467 1515.6001,-139.9335 1346.0887,-125.4133"/>
<polygon fill="#191970" stroke="#191970" points="1346.2714,-121.9162 1336.0103,-124.5545 1345.677,-128.891 1346.2714,-121.9162"/>
</g>
<!-- Node28 -->
<g id="node29" class="node">
<title>Node28</title>
<g id="a_node29"><a xlink:title=" ">
<polygon fill="#ffffff" stroke="#bfbfbf" points="1883.089,-220.5 1883.089,-238.5 1966.9015,-238.5 1966.9015,-220.5 1883.089,-220.5"/>
<text text-anchor="middle" x="1924.9953" y="-226.5" font-family="Helvetica,sans-Serif" font-size="10.00" fill="#000000">dji_macros.hpp</text>
</a>
</g>
</g>
<!-- Node27&#45;&gt;Node28 -->
<g id="edge50" class="edge">
<title>Node27&#45;&gt;Node28</title>
<path fill="none" stroke="#191970" d="M1983.4362,-275.4179C1972.9613,-267.1876 1957.3021,-254.8839 1944.8289,-245.0836"/>
<polygon fill="#191970" stroke="#191970" points="1946.8311,-242.2056 1936.8055,-238.7795 1942.5063,-247.7098 1946.8311,-242.2056"/>
</g>
<!-- Node29&#45;&gt;Node11 -->
<g id="edge53" class="edge">
<title>Node29&#45;&gt;Node11</title>
<path fill="none" stroke="#191970" d="M1676.1519,-220.4982C1597.0487,-200.6321 1407.6161,-153.0577 1319.9478,-131.0406"/>
<polygon fill="#191970" stroke="#191970" points="1320.5776,-127.5901 1310.0262,-128.5489 1318.8725,-134.3793 1320.5776,-127.5901"/>
</g>
<!-- Node32&#45;&gt;Node10 -->
<g id="edge59" class="edge">
<title>Node32&#45;&gt;Node10</title>
<path fill="none" stroke="#191970" d="M1140.2046,-220.4795C1093.8379,-210.9282 1020.5997,-195.8417 970.7609,-185.5753"/>
<polygon fill="#191970" stroke="#191970" points="971.3104,-182.1151 960.8098,-183.5255 969.898,-188.9711 971.3104,-182.1151"/>
</g>
<!-- Node32&#45;&gt;Node11 -->
<g id="edge60" class="edge">
<title>Node32&#45;&gt;Node11</title>
<path fill="none" stroke="#191970" d="M1191.3604,-220.4982C1206.3911,-202.1273 1240.8083,-160.0619 1260.1489,-136.4233"/>
<polygon fill="#191970" stroke="#191970" points="1262.9049,-138.5821 1266.5284,-128.6261 1257.4872,-134.1494 1262.9049,-138.5821"/>
</g>
<!-- Node32&#45;&gt;Node12 -->
<g id="edge58" class="edge">
<title>Node32&#45;&gt;Node12</title>
<path fill="none" stroke="#191970" d="M1183.9953,-220.1561C1183.9953,-193.9504 1183.9953,-119.3557 1183.9953,-83.8021"/>
<polygon fill="#191970" stroke="#191970" points="1187.4954,-83.7414 1183.9953,-73.7414 1180.4954,-83.7414 1187.4954,-83.7414"/>
</g>
<!-- Node34&#45;&gt;Node5 -->
<g id="edge68" class="edge">
<title>Node34&#45;&gt;Node5</title>
<path fill="none" stroke="#191970" d="M602.0649,-276.1995C568.7317,-269.0938 523.1577,-257.102 485.9953,-239 448.8338,-220.8984 429.6797,-220.8719 410.9953,-184 403.2608,-168.7367 411.2869,-150.1334 419.7344,-136.8353"/>
<polygon fill="#191970" stroke="#191970" points="422.6355,-138.7938 425.4616,-128.5828 416.8847,-134.8027 422.6355,-138.7938"/>
</g>
<!-- Node34&#45;&gt;Node10 -->
<g id="edge69" class="edge">
<title>Node34&#45;&gt;Node10</title>
<path fill="none" stroke="#191970" d="M654.9739,-275.4189C666.3565,-261.2737 690.3407,-234.1385 716.9953,-220 729.7666,-213.2257 806.814,-196.7369 861.4518,-185.5843"/>
<polygon fill="#191970" stroke="#191970" points="862.2703,-188.9896 871.3726,-183.5675 860.8758,-182.1299 862.2703,-188.9896"/>
</g>
<!-- Node34&#45;&gt;Node12 -->
<g id="edge67" class="edge">
<title>Node34&#45;&gt;Node12</title>
<path fill="none" stroke="#191970" d="M686.421,-275.4711C721.6713,-266.9343 775.2028,-253.3281 820.9953,-239 855.078,-228.3358 943.6473,-205.7198 971.9953,-184 1003.9033,-159.5525 991.2252,-133.2793 1023.9953,-110 1051.0701,-90.7665 1086.1075,-79.6314 1116.4899,-73.1999"/>
<polygon fill="#191970" stroke="#191970" points="1117.4694,-76.5739 1126.5968,-71.1942 1116.1068,-69.7078 1117.4694,-76.5739"/>
</g>
<!-- Node34&#45;&gt;Node15 -->
<g id="edge66" class="edge">
<title>Node34&#45;&gt;Node15</title>
<path fill="none" stroke="#191970" d="M628.1797,-275.4179C608.8118,-266.5409 579.1049,-252.9253 557.0635,-242.823"/>
<polygon fill="#191970" stroke="#191970" points="558.3892,-239.5805 547.8403,-238.5956 555.4726,-245.944 558.3892,-239.5805"/>
</g>
</g>
</svg>
        <g id="navigator" transform="translate(0 0)" fill="#404254">
                <rect fill="#f2f5e9" fill-opacity="0.5" stroke="#606060" stroke-width=".5" x="0" y="0" width="60" height="60"/>
                <use id="zoomplus" xlink:href="#zoomPlus" x="17" y="9" onmousedown="handleZoom(evt,'in')"/>
                <use id="zoomminus" xlink:href="#zoomMin" x="42" y="9" onmousedown="handleZoom(evt,'out')"/>
                <use id="reset" xlink:href="#resetDef" x="30" y="36" onmousedown="handleReset()"/>
                <g id="arrowUp" xlink:href="#dirArrow" transform="translate(30 24)" onmousedown="handlePan(0,-1)">
                  <use xlink:href="#rim" fill="#404040">
                        <set attributeName="fill" to="#808080" begin="arrowUp.mouseover" end="arrowUp.mouseout"/>
                  </use>
                  <path fill="none" stroke="white" stroke-width="1.5" d="M0,-3.0v7 M-2.5,-0.5L0,-3.0L2.5,-0.5"/>
                </g>
                <g id="arrowRight" xlink:href="#dirArrow" transform="rotate(90) translate(36 -43)" onmousedown="handlePan(1,0)">
                  <use xlink:href="#rim" fill="#404040">
                        <set attributeName="fill" to="#808080" begin="arrowRight.mouseover" end="arrowRight.mouseout"/>
                  </use>
                  <path fill="none" stroke="white" stroke-width="1.5" d="M0,-3.0v7 M-2.5,-0.5L0,-3.0L2.5,-0.5"/>
                </g>
                <g id="arrowDown" xlink:href="#dirArrow" transform="rotate(180) translate(-30 -48)" onmousedown="handlePan(0,1)">
                  <use xlink:href="#rim" fill="#404040">
                        <set attributeName="fill" to="#808080" begin="arrowDown.mouseover" end="arrowDown.mouseout"/>
                  </use>
                  <path fill="none" stroke="white" stroke-width="1.5" d="M0,-3.0v7 M-2.5,-0.5L0,-3.0L2.5,-0.5"/>
                </g>
                <g id="arrowLeft" xlink:href="#dirArrow" transform="rotate(270) translate(-36 17)" onmousedown="handlePan(-1,0)">
                  <use xlink:href="#rim" fill="#404040">
                        <set attributeName="fill" to="#808080" begin="arrowLeft.mouseover" end="arrowLeft.mouseout"/>
                  </use>
                  <path fill="none" stroke="white" stroke-width="1.5" d="M0,-3.0v7 M-2.5,-0.5L0,-3.0L2.5,-0.5"/>
                </g>
        </g>
        <svg viewBox="0 0 15 15" width="100%" height="30px" preserveAspectRatio="xMaxYMin meet">
         <g id="arrow_out" transform="scale(0.3 0.3)">
          <a xlink:href="dji__camera_8cpp__incl_org.svg" target="_base">
           <rect id="button" ry="5" rx="5" y="6" x="6" height="38" width="38"
                fill="#f2f5e9" fill-opacity="0.5" stroke="#606060" stroke-width="1.0"/>
           <path id="arrow"
             d="M 11.500037,31.436501 C 11.940474,20.09759 22.043105,11.32322 32.158766,21.979434 L 37.068811,17.246167 C 37.068811,17.246167 37.088388,32 37.088388,32 L 22.160133,31.978069 C 22.160133,31.978069 26.997745,27.140456 26.997745,27.140456 C 18.528582,18.264221 13.291696,25.230495 11.500037,31.436501 z"
             style="fill:#404040;"/>
          </a>
         </g>
        </svg>
</svg>
