<?xml version="1.0" encoding="UTF-8" standalone="no"?>
<!DOCTYPE svg PUBLIC "-//W3C//DTD SVG 1.1//EN"
 "http://www.w3.org/Graphics/SVG/1.1/DTD/svg11.dtd">
<!-- Generated by graphviz version 2.40.1 (20161225.0304)
 -->
<!-- Title: osdk&#45;core/api/inc/dji_command.hpp Pages: 1 -->
<svg width="128pt" height="147pt"
 viewBox="0.00 0.00 127.98 147.00" xmlns="http://www.w3.org/2000/svg" xmlns:xlink="http://www.w3.org/1999/xlink">
<g id="graph0" class="graph" transform="scale(1 1) rotate(0) translate(4 143)">
<title>osdk&#45;core/api/inc/dji_command.hpp</title>
<polygon fill="#ffffff" stroke="transparent" points="-4,4 -4,-143 123.9849,-143 123.9849,4 -4,4"/>
<!-- Node0 -->
<g id="node1" class="node">
<title>Node0</title>
<g id="a_node1"><a xlink:title="All DJI OSDK OpenProtocol Command IDs.">
<polygon fill="#bfbfbf" stroke="#000000" points="15.6108,-110.5 15.6108,-138.5 119.9849,-138.5 119.9849,-110.5 15.6108,-110.5"/>
<text text-anchor="start" x="23.6108" y="-126.5" font-family="Helvetica,sans-Serif" font-size="10.00" fill="#000000">osdk&#45;core/api/inc/dji</text>
<text text-anchor="middle" x="67.7979" y="-116.5" font-family="Helvetica,sans-Serif" font-size="10.00" fill="#000000">_command.hpp</text>
</a>
</g>
</g>
<!-- Node1 -->
<g id="node2" class="node">
<title>Node1</title>
<g id="a_node2"><a xlink:href="dji__error_8hpp.html" target="_top" xlink:title="All DJI OSDK OpenProtocol ACK Error Codes.">
<polygon fill="#ffffff" stroke="#000000" points="0,-55.5 0,-73.5 71.5957,-73.5 71.5957,-55.5 0,-55.5"/>
<text text-anchor="middle" x="35.7979" y="-61.5" font-family="Helvetica,sans-Serif" font-size="10.00" fill="#000000">dji_error.hpp</text>
</a>
</g>
</g>
<!-- Node0&#45;&gt;Node1 -->
<g id="edge1" class="edge">
<title>Node0&#45;&gt;Node1</title>
<path fill="none" stroke="#191970" d="M60.2143,-110.2808C55.8098,-102.0224 50.2157,-91.5335 45.4937,-82.6796"/>
<polygon fill="#191970" stroke="#191970" points="48.4369,-80.7607 40.6428,-73.5842 42.2604,-84.0548 48.4369,-80.7607"/>
</g>
<!-- Node2 -->
<g id="node3" class="node">
<title>Node2</title>
<g id="a_node3"><a xlink:title=" ">
<polygon fill="#ffffff" stroke="#bfbfbf" points="43.6772,-.5 43.6772,-18.5 91.9185,-18.5 91.9185,-.5 43.6772,-.5"/>
<text text-anchor="middle" x="67.7979" y="-6.5" font-family="Helvetica,sans-Serif" font-size="10.00" fill="#000000">stdint.h</text>
</a>
</g>
</g>
<!-- Node0&#45;&gt;Node2 -->
<g id="edge3" class="edge">
<title>Node0&#45;&gt;Node2</title>
<path fill="none" stroke="#191970" d="M73.1487,-110.4524C77.8345,-96.4579 83.505,-74.329 80.7979,-55 79.546,-46.0618 76.9745,-36.4158 74.4466,-28.3156"/>
<polygon fill="#191970" stroke="#191970" points="77.741,-27.1306 71.263,-18.7469 71.099,-29.3405 77.741,-27.1306"/>
</g>
<!-- Node1&#45;&gt;Node2 -->
<g id="edge2" class="edge">
<title>Node1&#45;&gt;Node2</title>
<path fill="none" stroke="#191970" d="M41.082,-55.4179C45.4561,-47.8998 51.8078,-36.9829 57.2205,-27.6799"/>
<polygon fill="#191970" stroke="#191970" points="60.3951,-29.1831 62.3989,-18.7795 54.3447,-25.6628 60.3951,-29.1831"/>
</g>
</g>
</svg>
