<?xml version="1.0" encoding="UTF-8" standalone="no"?>
<!DOCTYPE svg PUBLIC "-//W3C//DTD SVG 1.1//EN"
 "http://www.w3.org/Graphics/SVG/1.1/DTD/svg11.dtd">
<!-- Generated by graphviz version 2.40.1 (20161225.0304)
 -->
<!-- Title: osdk&#45;core/api/inc/dji_camera.hpp Pages: 1 -->
<svg width="216pt" height="202pt"
 viewBox="0.00 0.00 215.86 202.00" xmlns="http://www.w3.org/2000/svg" xmlns:xlink="http://www.w3.org/1999/xlink">
<g id="graph0" class="graph" transform="scale(1 1) rotate(0) translate(4 198)">
<title>osdk&#45;core/api/inc/dji_camera.hpp</title>
<polygon fill="#ffffff" stroke="transparent" points="-4,4 -4,-198 211.8594,-198 211.8594,4 -4,4"/>
<!-- Node0 -->
<g id="node1" class="node">
<title>Node0</title>
<g id="a_node1"><a xlink:title="Camera/Gimbal API for DJI onboardSDK library.">
<polygon fill="#bfbfbf" stroke="#000000" points="59.6108,-165.5 59.6108,-193.5 163.9849,-193.5 163.9849,-165.5 59.6108,-165.5"/>
<text text-anchor="start" x="67.6108" y="-181.5" font-family="Helvetica,sans-Serif" font-size="10.00" fill="#000000">osdk&#45;core/api/inc/dji</text>
<text text-anchor="middle" x="111.7979" y="-171.5" font-family="Helvetica,sans-Serif" font-size="10.00" fill="#000000">_camera.hpp</text>
</a>
</g>
</g>
<!-- Node1 -->
<g id="node2" class="node">
<title>Node1</title>
<g id="a_node2"><a xlink:href="dji__command_8hpp.html" target="_top" xlink:title="All DJI OSDK OpenProtocol Command IDs.">
<polygon fill="#ffffff" stroke="#000000" points="14.3301,-110.5 14.3301,-128.5 109.2656,-128.5 109.2656,-110.5 14.3301,-110.5"/>
<text text-anchor="middle" x="61.7979" y="-116.5" font-family="Helvetica,sans-Serif" font-size="10.00" fill="#000000">dji_command.hpp</text>
</a>
</g>
</g>
<!-- Node0&#45;&gt;Node1 -->
<g id="edge1" class="edge">
<title>Node0&#45;&gt;Node1</title>
<path fill="none" stroke="#191970" d="M99.9485,-165.2808C92.7705,-156.6672 83.5704,-145.6271 76.0034,-136.5466"/>
<polygon fill="#191970" stroke="#191970" points="78.4587,-134.0258 69.368,-128.5842 73.0811,-138.5071 78.4587,-134.0258"/>
</g>
<!-- Node4 -->
<g id="node5" class="node">
<title>Node4</title>
<g id="a_node5"><a xlink:href="dji__type_8hpp.html" target="_top" xlink:title="Data type and Data Structure definitions for use throughout DJI OSDK.">
<polygon fill="#ffffff" stroke="#000000" points="126.8325,-110.5 126.8325,-128.5 196.7632,-128.5 196.7632,-110.5 126.8325,-110.5"/>
<text text-anchor="middle" x="161.7979" y="-116.5" font-family="Helvetica,sans-Serif" font-size="10.00" fill="#000000">dji_type.hpp</text>
</a>
</g>
</g>
<!-- Node0&#45;&gt;Node4 -->
<g id="edge5" class="edge">
<title>Node0&#45;&gt;Node4</title>
<path fill="none" stroke="#191970" d="M123.6472,-165.2808C130.8252,-156.6672 140.0253,-145.6271 147.5923,-136.5466"/>
<polygon fill="#191970" stroke="#191970" points="150.5146,-138.5071 154.2277,-128.5842 145.137,-134.0258 150.5146,-138.5071"/>
</g>
<!-- Node2 -->
<g id="node3" class="node">
<title>Node2</title>
<g id="a_node3"><a xlink:href="dji__error_8hpp.html" target="_top" xlink:title="All DJI OSDK OpenProtocol ACK Error Codes.">
<polygon fill="#ffffff" stroke="#000000" points="0,-55.5 0,-73.5 71.5957,-73.5 71.5957,-55.5 0,-55.5"/>
<text text-anchor="middle" x="35.7979" y="-61.5" font-family="Helvetica,sans-Serif" font-size="10.00" fill="#000000">dji_error.hpp</text>
</a>
</g>
</g>
<!-- Node1&#45;&gt;Node2 -->
<g id="edge2" class="edge">
<title>Node1&#45;&gt;Node2</title>
<path fill="none" stroke="#191970" d="M57.5045,-110.4179C53.9879,-102.9789 48.8982,-92.2123 44.5311,-82.9742"/>
<polygon fill="#191970" stroke="#191970" points="47.6226,-81.3243 40.1845,-73.7795 41.2941,-84.316 47.6226,-81.3243"/>
</g>
<!-- Node3 -->
<g id="node4" class="node">
<title>Node3</title>
<g id="a_node4"><a xlink:title=" ">
<polygon fill="#ffffff" stroke="#bfbfbf" points="75.6772,-.5 75.6772,-18.5 123.9185,-18.5 123.9185,-.5 75.6772,-.5"/>
<text text-anchor="middle" x="99.7979" y="-6.5" font-family="Helvetica,sans-Serif" font-size="10.00" fill="#000000">stdint.h</text>
</a>
</g>
</g>
<!-- Node1&#45;&gt;Node3 -->
<g id="edge4" class="edge">
<title>Node1&#45;&gt;Node3</title>
<path fill="none" stroke="#191970" d="M66.0304,-110.2054C70.097,-101.0909 76.2743,-86.7465 80.7979,-74 86.1125,-59.0243 91.1473,-41.7378 94.6972,-28.8323"/>
<polygon fill="#191970" stroke="#191970" points="98.1816,-29.3534 97.4042,-18.7871 91.4227,-27.5319 98.1816,-29.3534"/>
</g>
<!-- Node2&#45;&gt;Node3 -->
<g id="edge3" class="edge">
<title>Node2&#45;&gt;Node3</title>
<path fill="none" stroke="#191970" d="M46.3661,-55.4179C55.8511,-47.2667 69.9853,-35.1201 81.3345,-25.3669"/>
<polygon fill="#191970" stroke="#191970" points="83.6969,-27.9516 88.9999,-18.7795 79.1345,-22.6427 83.6969,-27.9516"/>
</g>
<!-- Node4&#45;&gt;Node3 -->
<g id="edge7" class="edge">
<title>Node4&#45;&gt;Node3</title>
<path fill="none" stroke="#191970" d="M156.7241,-110.4982C146.5058,-92.369 123.2816,-51.1647 109.8677,-27.3659"/>
<polygon fill="#191970" stroke="#191970" points="112.9009,-25.6191 104.9417,-18.6261 106.8028,-29.0562 112.9009,-25.6191"/>
</g>
<!-- Node5 -->
<g id="node6" class="node">
<title>Node5</title>
<g id="a_node6"><a xlink:title=" ">
<polygon fill="#ffffff" stroke="#bfbfbf" points="165.7363,-55.5 165.7363,-73.5 207.8594,-73.5 207.8594,-55.5 165.7363,-55.5"/>
<text text-anchor="middle" x="186.7979" y="-61.5" font-family="Helvetica,sans-Serif" font-size="10.00" fill="#000000">cstdio</text>
</a>
</g>
</g>
<!-- Node4&#45;&gt;Node5 -->
<g id="edge6" class="edge">
<title>Node4&#45;&gt;Node5</title>
<path fill="none" stroke="#191970" d="M165.9261,-110.4179C169.3074,-102.9789 174.2013,-92.2123 178.4005,-82.9742"/>
<polygon fill="#191970" stroke="#191970" points="181.6281,-84.3315 182.5799,-73.7795 175.2555,-81.4348 181.6281,-84.3315"/>
</g>
</g>
</svg>
