<?xml version="1.0" encoding="UTF-8" standalone="no"?>
<!DOCTYPE svg PUBLIC "-//W3C//DTD SVG 1.1//EN"
 "http://www.w3.org/Graphics/SVG/1.1/DTD/svg11.dtd">
<!-- Generated by graphviz version 2.38.0 (20140413.2041)
 -->
<!-- Title: osdk&#45;core/advanced&#45;sensing&#45;2.0.0/inc/dji_camera_stream.hpp Pages: 1 -->
<svg width="182pt" height="162pt"
 viewBox="0.00 0.00 181.50 162.00" xmlns="http://www.w3.org/2000/svg" xmlns:xlink="http://www.w3.org/1999/xlink">
<g id="graph0" class="graph" transform="scale(1 1) rotate(0) translate(4 158)">
<title>osdk&#45;core/advanced&#45;sensing&#45;2.0.0/inc/dji_camera_stream.hpp</title>
<polygon fill="white" stroke="none" points="-4,4 -4,-158 177.5,-158 177.5,4 -4,4"/>
<!-- Node1 -->
<g id="node1" class="node"><title>Node1</title>
<polygon fill="#bfbfbf" stroke="black" points="14.5,-112.5 14.5,-153.5 122.5,-153.5 122.5,-112.5 14.5,-112.5"/>
<text text-anchor="start" x="22.5" y="-141.5" font-family="Helvetica,sans-Serif" font-size="10.00">osdk&#45;core/advanced</text>
<text text-anchor="start" x="22.5" y="-130.5" font-family="Helvetica,sans-Serif" font-size="10.00">&#45;sensing&#45;2.0.0/inc/dji</text>
<text text-anchor="middle" x="68.5" y="-119.5" font-family="Helvetica,sans-Serif" font-size="10.00">_camera_stream.hpp</text>
</g>
<!-- Node2 -->
<g id="node2" class="node"><title>Node2</title>
<polygon fill="white" stroke="#bfbfbf" points="0,-56.5 0,-75.5 41,-75.5 41,-56.5 0,-56.5"/>
<text text-anchor="middle" x="20.5" y="-63.5" font-family="Helvetica,sans-Serif" font-size="10.00">string</text>
</g>
<!-- Node1&#45;&gt;Node2 -->
<g id="edge1" class="edge"><title>Node1&#45;&gt;Node2</title>
<path fill="none" stroke="midnightblue" d="M54.0984,-112.498C47.376,-103.395 39.4506,-92.6623 32.986,-83.9081"/>
<polygon fill="midnightblue" stroke="midnightblue" points="35.6455,-81.6177 26.8895,-75.6525 30.0145,-85.776 35.6455,-81.6177"/>
</g>
<!-- Node3 -->
<g id="node3" class="node"><title>Node3</title>
<g id="a_node3"><a xlink:href="dji__camera__image_8hpp_source.html" target="_top" xlink:title="dji_camera_image.hpp">
<polygon fill="white" stroke="black" points="59.5,-56.5 59.5,-75.5 173.5,-75.5 173.5,-56.5 59.5,-56.5"/>
<text text-anchor="middle" x="116.5" y="-63.5" font-family="Helvetica,sans-Serif" font-size="10.00">dji_camera_image.hpp</text>
</a>
</g>
</g>
<!-- Node1&#45;&gt;Node3 -->
<g id="edge2" class="edge"><title>Node1&#45;&gt;Node3</title>
<path fill="none" stroke="midnightblue" d="M82.9016,-112.498C89.624,-103.395 97.5494,-92.6623 104.014,-83.9081"/>
<polygon fill="midnightblue" stroke="midnightblue" points="106.986,-85.776 110.11,-75.6525 101.354,-81.6177 106.986,-85.776"/>
</g>
<!-- Node4 -->
<g id="node4" class="node"><title>Node4</title>
<polygon fill="white" stroke="#bfbfbf" points="61.5,-0.5 61.5,-19.5 107.5,-19.5 107.5,-0.5 61.5,-0.5"/>
<text text-anchor="middle" x="84.5" y="-7.5" font-family="Helvetica,sans-Serif" font-size="10.00">cstdint</text>
</g>
<!-- Node3&#45;&gt;Node4 -->
<g id="edge3" class="edge"><title>Node3&#45;&gt;Node4</title>
<path fill="none" stroke="midnightblue" d="M111.216,-56.083C106.789,-48.6127 100.337,-37.7244 94.8821,-28.5199"/>
<polygon fill="midnightblue" stroke="midnightblue" points="97.7949,-26.5697 89.6858,-19.7511 91.7729,-30.1383 97.7949,-26.5697"/>
</g>
<!-- Node5 -->
<g id="node5" class="node"><title>Node5</title>
<polygon fill="white" stroke="#bfbfbf" points="125.5,-0.5 125.5,-19.5 169.5,-19.5 169.5,-0.5 125.5,-0.5"/>
<text text-anchor="middle" x="147.5" y="-7.5" font-family="Helvetica,sans-Serif" font-size="10.00">vector</text>
</g>
<!-- Node3&#45;&gt;Node5 -->
<g id="edge4" class="edge"><title>Node3&#45;&gt;Node5</title>
<path fill="none" stroke="midnightblue" d="M121.619,-56.083C125.908,-48.6127 132.158,-37.7244 137.442,-28.5199"/>
<polygon fill="midnightblue" stroke="midnightblue" points="140.533,-30.1662 142.476,-19.7511 134.462,-26.6811 140.533,-30.1662"/>
</g>
</g>
</svg>
