<?xml version="1.0" encoding="UTF-8" standalone="no"?>
<!DOCTYPE svg PUBLIC "-//W3C//DTD SVG 1.1//EN"
 "http://www.w3.org/Graphics/SVG/1.1/DTD/svg11.dtd">
<!-- Generated by graphviz version 2.40.1 (20161225.0304)
 -->
<!-- Title: osdk&#45;core/api/inc/dji_telemetry_doc.hpp Pages: 1 -->
<svg width="116pt" height="202pt"
 viewBox="0.00 0.00 116.31 202.00" xmlns="http://www.w3.org/2000/svg" xmlns:xlink="http://www.w3.org/1999/xlink">
<g id="graph0" class="graph" transform="scale(1 1) rotate(0) translate(4 198)">
<title>osdk&#45;core/api/inc/dji_telemetry_doc.hpp</title>
<polygon fill="#ffffff" stroke="transparent" points="-4,4 -4,-198 112.3076,-198 112.3076,4 -4,4"/>
<!-- Node0 -->
<g id="node1" class="node">
<title>Node0</title>
<g id="a_node1"><a xlink:title="Enumeration of all telemetry data types, structures and maps.">
<polygon fill="#bfbfbf" stroke="#000000" points="0,-165.5 0,-193.5 104.374,-193.5 104.374,-165.5 0,-165.5"/>
<text text-anchor="start" x="8" y="-181.5" font-family="Helvetica,sans-Serif" font-size="10.00" fill="#000000">osdk&#45;core/api/inc/dji</text>
<text text-anchor="middle" x="52.187" y="-171.5" font-family="Helvetica,sans-Serif" font-size="10.00" fill="#000000">_telemetry_doc.hpp</text>
</a>
</g>
</g>
<!-- Node1 -->
<g id="node2" class="node">
<title>Node1</title>
<g id="a_node2"><a xlink:href="dji__telemetry_8hpp.html" target="_top" xlink:title="Enumeration of all telemetry data types, structures and maps.">
<polygon fill="#ffffff" stroke="#000000" points="6.4795,-110.5 6.4795,-128.5 97.8945,-128.5 97.8945,-110.5 6.4795,-110.5"/>
<text text-anchor="middle" x="52.187" y="-116.5" font-family="Helvetica,sans-Serif" font-size="10.00" fill="#000000">dji_telemetry.hpp</text>
</a>
</g>
</g>
<!-- Node0&#45;&gt;Node1 -->
<g id="edge1" class="edge">
<title>Node0&#45;&gt;Node1</title>
<path fill="none" stroke="#191970" d="M52.187,-165.2808C52.187,-157.3776 52.187,-147.4316 52.187,-138.8308"/>
<polygon fill="#191970" stroke="#191970" points="55.6871,-138.5842 52.187,-128.5842 48.6871,-138.5842 55.6871,-138.5842"/>
</g>
<!-- Node2 -->
<g id="node3" class="node">
<title>Node2</title>
<g id="a_node3"><a xlink:href="dji__type_8hpp.html" target="_top" xlink:title="Data type and Data Structure definitions for use throughout DJI OSDK.">
<polygon fill="#ffffff" stroke="#000000" points="17.2217,-55.5 17.2217,-73.5 87.1523,-73.5 87.1523,-55.5 17.2217,-55.5"/>
<text text-anchor="middle" x="52.187" y="-61.5" font-family="Helvetica,sans-Serif" font-size="10.00" fill="#000000">dji_type.hpp</text>
</a>
</g>
</g>
<!-- Node1&#45;&gt;Node2 -->
<g id="edge2" class="edge">
<title>Node1&#45;&gt;Node2</title>
<path fill="none" stroke="#191970" d="M52.187,-110.4179C52.187,-103.2164 52.187,-92.8962 52.187,-83.8632"/>
<polygon fill="#191970" stroke="#191970" points="55.6871,-83.7794 52.187,-73.7795 48.6871,-83.7795 55.6871,-83.7794"/>
</g>
<!-- Node3 -->
<g id="node4" class="node">
<title>Node3</title>
<g id="a_node4"><a xlink:title=" ">
<polygon fill="#ffffff" stroke="#bfbfbf" points=".1255,-.5 .1255,-18.5 42.2485,-18.5 42.2485,-.5 .1255,-.5"/>
<text text-anchor="middle" x="21.187" y="-6.5" font-family="Helvetica,sans-Serif" font-size="10.00" fill="#000000">cstdio</text>
</a>
</g>
</g>
<!-- Node2&#45;&gt;Node3 -->
<g id="edge3" class="edge">
<title>Node2&#45;&gt;Node3</title>
<path fill="none" stroke="#191970" d="M47.068,-55.4179C42.8305,-47.8998 36.6774,-36.9829 31.4338,-27.6799"/>
<polygon fill="#191970" stroke="#191970" points="34.3765,-25.7724 26.4173,-18.7795 28.2784,-29.2096 34.3765,-25.7724"/>
</g>
<!-- Node4 -->
<g id="node5" class="node">
<title>Node4</title>
<g id="a_node5"><a xlink:title=" ">
<polygon fill="#ffffff" stroke="#bfbfbf" points="60.0664,-.5 60.0664,-18.5 108.3076,-18.5 108.3076,-.5 60.0664,-.5"/>
<text text-anchor="middle" x="84.187" y="-6.5" font-family="Helvetica,sans-Serif" font-size="10.00" fill="#000000">stdint.h</text>
</a>
</g>
</g>
<!-- Node2&#45;&gt;Node4 -->
<g id="edge4" class="edge">
<title>Node2&#45;&gt;Node4</title>
<path fill="none" stroke="#191970" d="M57.4712,-55.4179C61.8453,-47.8998 68.197,-36.9829 73.6096,-27.6799"/>
<polygon fill="#191970" stroke="#191970" points="76.7843,-29.1831 78.7881,-18.7795 70.7338,-25.6628 76.7843,-29.1831"/>
</g>
</g>
</svg>
