<?xml version="1.0" encoding="UTF-8" standalone="no"?>
<!DOCTYPE svg PUBLIC "-//W3C//DTD SVG 1.1//EN"
 "http://www.w3.org/Graphics/SVG/1.1/DTD/svg11.dtd">
<!-- Generated by graphviz version 2.40.1 (20161225.0304)
 -->
<!-- Title: osdk&#45;core/hal/inc/dji_log.hpp Pages: 1 -->
<svg width="432pt" height="92pt"
 viewBox="0.00 0.00 432.14 92.00" xmlns="http://www.w3.org/2000/svg" xmlns:xlink="http://www.w3.org/1999/xlink">
<g id="graph0" class="graph" transform="scale(1 1) rotate(0) translate(4 88)">
<title>osdk&#45;core/hal/inc/dji_log.hpp</title>
<polygon fill="#ffffff" stroke="transparent" points="-4,4 -4,-88 428.1357,-88 428.1357,4 -4,4"/>
<!-- Node0 -->
<g id="node1" class="node">
<title>Node0</title>
<g id="a_node1"><a xlink:title="Logging mechanism for printing status and error messages to the screen.">
<polygon fill="#bfbfbf" stroke="#000000" points="136.0156,-55.5 136.0156,-83.5 240.3896,-83.5 240.3896,-55.5 136.0156,-55.5"/>
<text text-anchor="start" x="144.0156" y="-71.5" font-family="Helvetica,sans-Serif" font-size="10.00" fill="#000000">osdk&#45;core/hal/inc/dji</text>
<text text-anchor="middle" x="188.2026" y="-61.5" font-family="Helvetica,sans-Serif" font-size="10.00" fill="#000000">_log.hpp</text>
</a>
</g>
</g>
<!-- Node1 -->
<g id="node2" class="node">
<title>Node1</title>
<g id="a_node2"><a xlink:title=" ">
<polygon fill="#ffffff" stroke="#bfbfbf" points="0,-.5 0,-18.5 86.4053,-18.5 86.4053,-.5 0,-.5"/>
<text text-anchor="middle" x="43.2026" y="-6.5" font-family="Helvetica,sans-Serif" font-size="10.00" fill="#000000">dji_memory.hpp</text>
</a>
</g>
</g>
<!-- Node0&#45;&gt;Node1 -->
<g id="edge1" class="edge">
<title>Node0&#45;&gt;Node1</title>
<path fill="none" stroke="#191970" d="M154.2066,-55.4327C130.1829,-45.4918 98.2131,-32.263 74.7542,-22.5558"/>
<polygon fill="#191970" stroke="#191970" points="75.8478,-19.2206 65.2694,-18.6311 73.1713,-25.6887 75.8478,-19.2206"/>
</g>
<!-- Node2 -->
<g id="node3" class="node">
<title>Node2</title>
<g id="a_node3"><a xlink:title=" ">
<polygon fill="#ffffff" stroke="#bfbfbf" points="104.2373,-.5 104.2373,-18.5 174.168,-18.5 174.168,-.5 104.2373,-.5"/>
<text text-anchor="middle" x="139.2026" y="-6.5" font-family="Helvetica,sans-Serif" font-size="10.00" fill="#000000">dji_type.hpp</text>
</a>
</g>
</g>
<!-- Node0&#45;&gt;Node2 -->
<g id="edge2" class="edge">
<title>Node0&#45;&gt;Node2</title>
<path fill="none" stroke="#191970" d="M176.5903,-55.2808C169.5558,-46.6672 160.5398,-35.6271 153.124,-26.5466"/>
<polygon fill="#191970" stroke="#191970" points="155.6576,-24.1156 146.6214,-18.5842 150.2359,-28.5434 155.6576,-24.1156"/>
</g>
<!-- Node3 -->
<g id="node4" class="node">
<title>Node3</title>
<g id="a_node4"><a xlink:title=" ">
<polygon fill="#ffffff" stroke="#bfbfbf" points="191.6733,-.5 191.6733,-18.5 282.7319,-18.5 282.7319,-.5 191.6733,-.5"/>
<text text-anchor="middle" x="237.2026" y="-6.5" font-family="Helvetica,sans-Serif" font-size="10.00" fill="#000000">dji_singleton.hpp</text>
</a>
</g>
</g>
<!-- Node0&#45;&gt;Node3 -->
<g id="edge3" class="edge">
<title>Node0&#45;&gt;Node3</title>
<path fill="none" stroke="#191970" d="M199.815,-55.2808C206.8494,-46.6672 215.8655,-35.6271 223.2812,-26.5466"/>
<polygon fill="#191970" stroke="#191970" points="226.1694,-28.5434 229.7839,-18.5842 220.7476,-24.1156 226.1694,-28.5434"/>
</g>
<!-- Node4 -->
<g id="node5" class="node">
<title>Node4</title>
<g id="a_node5"><a xlink:title=" ">
<polygon fill="#ffffff" stroke="#bfbfbf" points="300.2695,-.5 300.2695,-18.5 424.1357,-18.5 424.1357,-.5 300.2695,-.5"/>
<text text-anchor="middle" x="362.2026" y="-6.5" font-family="Helvetica,sans-Serif" font-size="10.00" fill="#000000">dji_thread_manager.hpp</text>
</a>
</g>
</g>
<!-- Node0&#45;&gt;Node4 -->
<g id="edge4" class="edge">
<title>Node0&#45;&gt;Node4</title>
<path fill="none" stroke="#191970" d="M228.9979,-55.4327C258.5597,-45.2389 298.148,-31.5878 326.469,-21.822"/>
<polygon fill="#191970" stroke="#191970" points="327.6689,-25.1105 335.9816,-18.5417 325.3869,-18.4929 327.6689,-25.1105"/>
</g>
</g>
</svg>
