<?xml version="1.0" encoding="UTF-8" standalone="no"?>
<!DOCTYPE svg PUBLIC "-//W3C//DTD SVG 1.1//EN"
 "http://www.w3.org/Graphics/SVG/1.1/DTD/svg11.dtd">
<!-- Generated by graphviz version 2.40.1 (20161225.0304)
 -->
<!-- Title: osdk&#45;core/api/src/dji_error.cpp Pages: 1 -->
<svg width="113pt" height="147pt"
 viewBox="0.00 0.00 112.92 147.00" xmlns="http://www.w3.org/2000/svg" xmlns:xlink="http://www.w3.org/1999/xlink">
<g id="graph0" class="graph" transform="scale(1 1) rotate(0) translate(4 143)">
<title>osdk&#45;core/api/src/dji_error.cpp</title>
<polygon fill="#ffffff" stroke="transparent" points="-4,4 -4,-143 108.9209,-143 108.9209,4 -4,4"/>
<!-- Node0 -->
<g id="node1" class="node">
<title>Node0</title>
<g id="a_node1"><a xlink:title="All DJI OSDK OpenProtocol ACK Error Codes.">
<polygon fill="#bfbfbf" stroke="#000000" points="0,-110.5 0,-138.5 104.9209,-138.5 104.9209,-110.5 0,-110.5"/>
<text text-anchor="start" x="8" y="-126.5" font-family="Helvetica,sans-Serif" font-size="10.00" fill="#000000">osdk&#45;core/api/src/dji</text>
<text text-anchor="middle" x="52.4604" y="-116.5" font-family="Helvetica,sans-Serif" font-size="10.00" fill="#000000">_error.cpp</text>
</a>
</g>
</g>
<!-- Node1 -->
<g id="node2" class="node">
<title>Node1</title>
<g id="a_node2"><a xlink:href="dji__error_8hpp.html" target="_top" xlink:title="All DJI OSDK OpenProtocol ACK Error Codes.">
<polygon fill="#ffffff" stroke="#000000" points="16.6626,-55.5 16.6626,-73.5 88.2583,-73.5 88.2583,-55.5 16.6626,-55.5"/>
<text text-anchor="middle" x="52.4604" y="-61.5" font-family="Helvetica,sans-Serif" font-size="10.00" fill="#000000">dji_error.hpp</text>
</a>
</g>
</g>
<!-- Node0&#45;&gt;Node1 -->
<g id="edge1" class="edge">
<title>Node0&#45;&gt;Node1</title>
<path fill="none" stroke="#191970" d="M52.4604,-110.2808C52.4604,-102.3776 52.4604,-92.4316 52.4604,-83.8308"/>
<polygon fill="#191970" stroke="#191970" points="55.9605,-83.5842 52.4604,-73.5842 48.9605,-83.5842 55.9605,-83.5842"/>
</g>
<!-- Node2 -->
<g id="node3" class="node">
<title>Node2</title>
<g id="a_node3"><a xlink:title=" ">
<polygon fill="#ffffff" stroke="#bfbfbf" points="28.3398,-.5 28.3398,-18.5 76.5811,-18.5 76.5811,-.5 28.3398,-.5"/>
<text text-anchor="middle" x="52.4604" y="-6.5" font-family="Helvetica,sans-Serif" font-size="10.00" fill="#000000">stdint.h</text>
</a>
</g>
</g>
<!-- Node1&#45;&gt;Node2 -->
<g id="edge2" class="edge">
<title>Node1&#45;&gt;Node2</title>
<path fill="none" stroke="#191970" d="M52.4604,-55.4179C52.4604,-48.2164 52.4604,-37.8962 52.4604,-28.8632"/>
<polygon fill="#191970" stroke="#191970" points="55.9605,-28.7794 52.4604,-18.7795 48.9605,-28.7795 55.9605,-28.7794"/>
</g>
</g>
</svg>
