<?xml version="1.0" encoding="UTF-8" standalone="no"?>
<!DOCTYPE svg PUBLIC "-//W3C//DTD SVG 1.1//EN"
 "http://www.w3.org/Graphics/SVG/1.1/DTD/svg11.dtd">
<!-- Generated by graphviz version 2.40.1 (20161225.0304)
 -->
<!-- Title: osdk&#45;core/api/inc/dji_mobile_communication.hpp Pages: 1 -->
<svg width="234pt" height="147pt"
 viewBox="0.00 0.00 233.83 147.00" xmlns="http://www.w3.org/2000/svg" xmlns:xlink="http://www.w3.org/1999/xlink">
<g id="graph0" class="graph" transform="scale(1 1) rotate(0) translate(4 143)">
<title>osdk&#45;core/api/inc/dji_mobile_communication.hpp</title>
<polygon fill="#ffffff" stroke="transparent" points="-4,4 -4,-143 229.8296,-143 229.8296,4 -4,4"/>
<!-- Node0 -->
<g id="node1" class="node">
<title>Node0</title>
<g id="a_node1"><a xlink:title="Implementation of DJI Mobile&#45;Onboard SDK Communication (MOC)">
<polygon fill="#bfbfbf" stroke="#000000" points="31.2588,-110.5 31.2588,-138.5 174.5537,-138.5 174.5537,-110.5 31.2588,-110.5"/>
<text text-anchor="start" x="39.2588" y="-126.5" font-family="Helvetica,sans-Serif" font-size="10.00" fill="#000000">osdk&#45;core/api/inc/dji</text>
<text text-anchor="middle" x="102.9063" y="-116.5" font-family="Helvetica,sans-Serif" font-size="10.00" fill="#000000">_mobile_communication.hpp</text>
</a>
</g>
</g>
<!-- Node1 -->
<g id="node2" class="node">
<title>Node1</title>
<g id="a_node2"><a xlink:title=" ">
<polygon fill="#ffffff" stroke="#bfbfbf" points="0,-55.5 0,-73.5 83.8125,-73.5 83.8125,-55.5 0,-55.5"/>
<text text-anchor="middle" x="41.9063" y="-61.5" font-family="Helvetica,sans-Serif" font-size="10.00" fill="#000000">dji_macros.hpp</text>
</a>
</g>
</g>
<!-- Node0&#45;&gt;Node1 -->
<g id="edge1" class="edge">
<title>Node0&#45;&gt;Node1</title>
<path fill="none" stroke="#191970" d="M88.4501,-110.2808C79.422,-101.4008 67.7721,-89.9419 58.3863,-80.7098"/>
<polygon fill="#191970" stroke="#191970" points="60.7255,-78.1014 51.1418,-73.5842 55.8168,-83.0919 60.7255,-78.1014"/>
</g>
<!-- Node2 -->
<g id="node3" class="node">
<title>Node2</title>
<g id="a_node3"><a xlink:href="dji__vehicle__callback_8hpp.html" target="_top" xlink:title="Type definition for new Vehicle&#45;style callbacks.">
<polygon fill="#ffffff" stroke="#000000" points="101.9829,-55.5 101.9829,-73.5 225.8296,-73.5 225.8296,-55.5 101.9829,-55.5"/>
<text text-anchor="middle" x="163.9063" y="-61.5" font-family="Helvetica,sans-Serif" font-size="10.00" fill="#000000">dji_vehicle_callback.hpp</text>
</a>
</g>
</g>
<!-- Node0&#45;&gt;Node2 -->
<g id="edge2" class="edge">
<title>Node0&#45;&gt;Node2</title>
<path fill="none" stroke="#191970" d="M117.3624,-110.2808C126.3905,-101.4008 138.0404,-89.9419 147.4262,-80.7098"/>
<polygon fill="#191970" stroke="#191970" points="149.9957,-83.0919 154.6707,-73.5842 145.087,-78.1014 149.9957,-83.0919"/>
</g>
<!-- Node3 -->
<g id="node4" class="node">
<title>Node3</title>
<g id="a_node4"><a xlink:title=" ">
<polygon fill="#ffffff" stroke="#bfbfbf" points="106.6997,-.5 106.6997,-18.5 221.1128,-18.5 221.1128,-.5 106.6997,-.5"/>
<text text-anchor="middle" x="163.9063" y="-6.5" font-family="Helvetica,sans-Serif" font-size="10.00" fill="#000000">dji_open_protocol.hpp</text>
</a>
</g>
</g>
<!-- Node2&#45;&gt;Node3 -->
<g id="edge3" class="edge">
<title>Node2&#45;&gt;Node3</title>
<path fill="none" stroke="#191970" d="M163.9063,-55.4179C163.9063,-48.2164 163.9063,-37.8962 163.9063,-28.8632"/>
<polygon fill="#191970" stroke="#191970" points="167.4063,-28.7794 163.9063,-18.7795 160.4063,-28.7795 167.4063,-28.7794"/>
</g>
</g>
</svg>
