<?xml version="1.0" encoding="UTF-8" standalone="no"?>
<!DOCTYPE svg PUBLIC "-//W3C//DTD SVG 1.1//EN"
 "http://www.w3.org/Graphics/SVG/1.1/DTD/svg11.dtd">
<!-- Generated by graphviz version 2.40.1 (20161225.0304)
 -->
<!-- Title: osdk&#45;core/api/inc/dji_hardware_sync.hpp Pages: 1 -->
<svg width="119pt" height="147pt"
 viewBox="0.00 0.00 118.54 147.00" xmlns="http://www.w3.org/2000/svg" xmlns:xlink="http://www.w3.org/1999/xlink">
<g id="graph0" class="graph" transform="scale(1 1) rotate(0) translate(4 143)">
<title>osdk&#45;core/api/inc/dji_hardware_sync.hpp</title>
<polygon fill="#ffffff" stroke="transparent" points="-4,4 -4,-143 114.5391,-143 114.5391,4 -4,4"/>
<!-- Node0 -->
<g id="node1" class="node">
<title>Node0</title>
<g id="a_node1"><a xlink:title="Hardware Sync API for DJI OSDK.">
<polygon fill="#bfbfbf" stroke="#000000" points="0,-110.5 0,-138.5 108.8369,-138.5 108.8369,-110.5 0,-110.5"/>
<text text-anchor="start" x="8" y="-126.5" font-family="Helvetica,sans-Serif" font-size="10.00" fill="#000000">osdk&#45;core/api/inc/dji</text>
<text text-anchor="middle" x="54.4185" y="-116.5" font-family="Helvetica,sans-Serif" font-size="10.00" fill="#000000">_hardware_sync.hpp</text>
</a>
</g>
</g>
<!-- Node1 -->
<g id="node2" class="node">
<title>Node1</title>
<g id="a_node2"><a xlink:href="dji__type_8hpp.html" target="_top" target="_top" xlink:title="Data type and Data Structure definitions for use throughout DJI OSDK.">
<polygon fill="#ffffff" stroke="#000000" points="19.4531,-55.5 19.4531,-73.5 89.3838,-73.5 89.3838,-55.5 19.4531,-55.5"/>
<text text-anchor="middle" x="54.4185" y="-61.5" font-family="Helvetica,sans-Serif" font-size="10.00" fill="#000000">dji_type.hpp</text>
</a>
</g>
</g>
<!-- Node0&#45;&gt;Node1 -->
<g id="edge1" class="edge">
<title>Node0&#45;&gt;Node1</title>
<path fill="none" stroke="#191970" d="M54.4185,-110.2808C54.4185,-102.3776 54.4185,-92.4316 54.4185,-83.8308"/>
<polygon fill="#191970" stroke="#191970" points="57.9186,-83.5842 54.4185,-73.5842 50.9186,-83.5842 57.9186,-83.5842"/>
</g>
<!-- Node2 -->
<g id="node3" class="node">
<title>Node2</title>
<g id="a_node3"><a xlink:title=" ">
<polygon fill="#ffffff" stroke="#bfbfbf" points="2.3569,-.5 2.3569,-18.5 44.48,-18.5 44.48,-.5 2.3569,-.5"/>
<text text-anchor="middle" x="23.4185" y="-6.5" font-family="Helvetica,sans-Serif" font-size="10.00" fill="#000000">cstdio</text>
</a>
</g>
</g>
<!-- Node1&#45;&gt;Node2 -->
<g id="edge2" class="edge">
<title>Node1&#45;&gt;Node2</title>
<path fill="none" stroke="#191970" d="M49.2994,-55.4179C45.062,-47.8998 38.9088,-36.9829 33.6653,-27.6799"/>
<polygon fill="#191970" stroke="#191970" points="36.6079,-25.7724 28.6487,-18.7795 30.5098,-29.2096 36.6079,-25.7724"/>
</g>
<!-- Node3 -->
<g id="node4" class="node">
<title>Node3</title>
<g id="a_node4"><a xlink:title=" ">
<polygon fill="#ffffff" stroke="#bfbfbf" points="62.2979,-.5 62.2979,-18.5 110.5391,-18.5 110.5391,-.5 62.2979,-.5"/>
<text text-anchor="middle" x="86.4185" y="-6.5" font-family="Helvetica,sans-Serif" font-size="10.00" fill="#000000">stdint.h</text>
</a>
</g>
</g>
<!-- Node1&#45;&gt;Node3 -->
<g id="edge3" class="edge">
<title>Node1&#45;&gt;Node3</title>
<path fill="none" stroke="#191970" d="M59.7026,-55.4179C64.0767,-47.8998 70.4284,-36.9829 75.8411,-27.6799"/>
<polygon fill="#191970" stroke="#191970" points="79.0157,-29.1831 81.0195,-18.7795 72.9653,-25.6628 79.0157,-29.1831"/>
</g>
</g>
</svg>
