<?xml version="1.0" encoding="UTF-8" standalone="no"?>
<!DOCTYPE svg PUBLIC "-//W3C//DTD SVG 1.1//EN"
 "http://www.w3.org/Graphics/SVG/1.1/DTD/svg11.dtd">
<!-- Generated by graphviz version 2.40.1 (20161225.0304)
 -->
<!-- Title: osdk&#45;core/api/src/dji_virtual_rc.cpp Pages: 1 -->
<svg width="1991pt" height="422pt"
 viewBox="0.00 0.00 1990.53 422.00" xmlns="http://www.w3.org/2000/svg" xmlns:xlink="http://www.w3.org/1999/xlink">
<g id="graph0" class="graph" transform="scale(1 1) rotate(0) translate(4 418)">
<title>osdk&#45;core/api/src/dji_virtual_rc.cpp</title>
<polygon fill="#ffffff" stroke="transparent" points="-4,4 -4,-418 1986.5284,-418 1986.5284,4 -4,4"/>
<!-- Node0 -->
<g id="node1" class="node">
<title>Node0</title>
<g id="a_node1"><a xlink:title="Virtual Radio Control API for DJI onboardSDK library.">
<polygon fill="#bfbfbf" stroke="#000000" points="683.0679,-385.5 683.0679,-413.5 787.9888,-413.5 787.9888,-385.5 683.0679,-385.5"/>
<text text-anchor="start" x="691.0679" y="-401.5" font-family="Helvetica,sans-Serif" font-size="10.00" fill="#000000">osdk&#45;core/api/src/dji</text>
<text text-anchor="middle" x="735.5284" y="-391.5" font-family="Helvetica,sans-Serif" font-size="10.00" fill="#000000">_virtual_rc.cpp</text>
</a>
</g>
</g>
<!-- Node1 -->
<g id="node2" class="node">
<title>Node1</title>
<g id="a_node2"><a xlink:href="dji__virtual__rc_8hpp.html" target="_top" xlink:title="Virtual Radio Control API for DJI onboardSDK library.">
<polygon fill="#ffffff" stroke="#000000" points="443.7305,-275.5 443.7305,-293.5 535.3262,-293.5 535.3262,-275.5 443.7305,-275.5"/>
<text text-anchor="middle" x="489.5284" y="-281.5" font-family="Helvetica,sans-Serif" font-size="10.00" fill="#000000">dji_virtual_rc.hpp</text>
</a>
</g>
</g>
<!-- Node0&#45;&gt;Node1 -->
<g id="edge1" class="edge">
<title>Node0&#45;&gt;Node1</title>
<path fill="none" stroke="#191970" d="M705.3639,-385.3987C657.5721,-363.057 565.0748,-319.8164 518.2201,-297.9128"/>
<polygon fill="#191970" stroke="#191970" points="519.4884,-294.6422 508.9471,-293.5779 516.5239,-300.9835 519.4884,-294.6422"/>
</g>
<!-- Node14 -->
<g id="node15" class="node">
<title>Node14</title>
<g id="a_node15"><a xlink:href="dji__vehicle_8hpp.html" target="_top" xlink:title="Vehicle API for DJI onboardSDK library.">
<polygon fill="#ffffff" stroke="#000000" points="941.4498,-330.5 941.4498,-348.5 1023.607,-348.5 1023.607,-330.5 941.4498,-330.5"/>
<text text-anchor="middle" x="982.5284" y="-336.5" font-family="Helvetica,sans-Serif" font-size="10.00" fill="#000000">dji_vehicle.hpp</text>
</a>
</g>
</g>
<!-- Node0&#45;&gt;Node14 -->
<g id="edge20" class="edge">
<title>Node0&#45;&gt;Node14</title>
<path fill="none" stroke="#191970" d="M788.2131,-386.7021C831.8916,-376.0919 893.4193,-361.1459 935.466,-350.9322"/>
<polygon fill="#191970" stroke="#191970" points="936.2924,-354.3333 945.1836,-348.5716 934.64,-347.5311 936.2924,-354.3333"/>
</g>
<!-- Node2 -->
<g id="node3" class="node">
<title>Node2</title>
<g id="a_node3"><a xlink:href="dji__ack_8hpp.html" target="_top" xlink:title="All DJI OSDK ACK parsing.">
<polygon fill="#ffffff" stroke="#000000" points="385.233,-220.5 385.233,-238.5 451.8238,-238.5 451.8238,-220.5 385.233,-220.5"/>
<text text-anchor="middle" x="418.5284" y="-226.5" font-family="Helvetica,sans-Serif" font-size="10.00" fill="#000000">dji_ack.hpp</text>
</a>
</g>
</g>
<!-- Node1&#45;&gt;Node2 -->
<g id="edge2" class="edge">
<title>Node1&#45;&gt;Node2</title>
<path fill="none" stroke="#191970" d="M477.8042,-275.4179C467.1796,-267.1876 451.2967,-254.8839 438.6453,-245.0836"/>
<polygon fill="#191970" stroke="#191970" points="440.5562,-242.1365 430.5073,-238.7795 436.2694,-247.6704 440.5562,-242.1365"/>
</g>
<!-- Node7 -->
<g id="node8" class="node">
<title>Node7</title>
<g id="a_node8"><a xlink:href="dji__type_8hpp.html" target="_top" xlink:title="Data type and Data Structure definitions for use throughout DJI OSDK.">
<polygon fill="#ffffff" stroke="#000000" points="329.563,-110.5 329.563,-128.5 399.4937,-128.5 399.4937,-110.5 329.563,-110.5"/>
<text text-anchor="middle" x="364.5284" y="-116.5" font-family="Helvetica,sans-Serif" font-size="10.00" fill="#000000">dji_type.hpp</text>
</a>
</g>
</g>
<!-- Node1&#45;&gt;Node7 -->
<g id="edge17" class="edge">
<title>Node1&#45;&gt;Node7</title>
<path fill="none" stroke="#191970" d="M443.7303,-275.7056C397.1688,-263.9401 328.0797,-237.9476 300.5284,-184 289.9186,-163.2252 312.9205,-144.9296 334.2435,-133.1809"/>
<polygon fill="#191970" stroke="#191970" points="335.9035,-136.2628 343.1763,-128.5584 332.6864,-130.0459 335.9035,-136.2628"/>
</g>
<!-- Node12 -->
<g id="node13" class="node">
<title>Node12</title>
<g id="a_node13"><a xlink:title=" ">
<polygon fill="#ffffff" stroke="#bfbfbf" points="1021.3218,-55.5 1021.3218,-73.5 1135.7349,-73.5 1135.7349,-55.5 1021.3218,-55.5"/>
<text text-anchor="middle" x="1078.5284" y="-61.5" font-family="Helvetica,sans-Serif" font-size="10.00" fill="#000000">dji_open_protocol.hpp</text>
</a>
</g>
</g>
<!-- Node1&#45;&gt;Node12 -->
<g id="edge16" class="edge">
<title>Node1&#45;&gt;Node12</title>
<path fill="none" stroke="#191970" d="M535.4562,-276.5463C609.4238,-263.7251 746.9821,-239.8293 749.5284,-239 802.258,-221.8261 817.3633,-217.5382 861.5284,-184 896.6253,-157.348 890.3686,-133.6913 927.5284,-110 953.3331,-93.5481 985.3899,-82.7887 1013.32,-75.8872"/>
<polygon fill="#191970" stroke="#191970" points="1014.471,-79.2121 1023.4042,-73.5157 1012.8685,-72.398 1014.471,-79.2121"/>
</g>
<!-- Node13 -->
<g id="node14" class="node">
<title>Node13</title>
<g id="a_node14"><a xlink:href="dji__telemetry_8hpp.html" target="_top" xlink:title="Enumeration of all telemetry data types, structures and maps.">
<polygon fill="#ffffff" stroke="#000000" points="760.8209,-165.5 760.8209,-183.5 852.2359,-183.5 852.2359,-165.5 760.8209,-165.5"/>
<text text-anchor="middle" x="806.5284" y="-171.5" font-family="Helvetica,sans-Serif" font-size="10.00" fill="#000000">dji_telemetry.hpp</text>
</a>
</g>
</g>
<!-- Node1&#45;&gt;Node13 -->
<g id="edge18" class="edge">
<title>Node1&#45;&gt;Node13</title>
<path fill="none" stroke="#191970" d="M509.4336,-275.3903C538.8107,-262.1482 595.6865,-237.2807 645.5284,-220 683.5403,-206.8209 727.5502,-194.5833 759.9401,-186.1265"/>
<polygon fill="#191970" stroke="#191970" points="761.2211,-189.4105 770.0257,-183.5173 759.4678,-182.6336 761.2211,-189.4105"/>
</g>
<!-- Node3 -->
<g id="node4" class="node">
<title>Node3</title>
<g id="a_node4"><a xlink:href="dji__command_8hpp.html" target="_top" xlink:title="All DJI OSDK OpenProtocol Command IDs.">
<polygon fill="#ffffff" stroke="#000000" points="126.0606,-110.5 126.0606,-128.5 220.9961,-128.5 220.9961,-110.5 126.0606,-110.5"/>
<text text-anchor="middle" x="173.5284" y="-116.5" font-family="Helvetica,sans-Serif" font-size="10.00" fill="#000000">dji_command.hpp</text>
</a>
</g>
</g>
<!-- Node2&#45;&gt;Node3 -->
<g id="edge3" class="edge">
<title>Node2&#45;&gt;Node3</title>
<path fill="none" stroke="#191970" d="M385.1832,-226.2412C291.1951,-216.9797 30.534,-190.7391 24.5284,-184 -5.863,-149.897 61.9312,-133.1236 115.7809,-125.4054"/>
<polygon fill="#191970" stroke="#191970" points="116.5486,-128.8335 125.9888,-124.0237 115.6096,-121.8967 116.5486,-128.8335"/>
</g>
<!-- Node6 -->
<g id="node7" class="node">
<title>Node6</title>
<g id="a_node7"><a xlink:href="dji__mission__type_8hpp.html" target="_top" xlink:title="Mission related data struct for DJI OSDK library.">
<polygon fill="#ffffff" stroke="#000000" points="309.834,-165.5 309.834,-183.5 419.2227,-183.5 419.2227,-165.5 309.834,-165.5"/>
<text text-anchor="middle" x="364.5284" y="-171.5" font-family="Helvetica,sans-Serif" font-size="10.00" fill="#000000">dji_mission_type.hpp</text>
</a>
</g>
</g>
<!-- Node2&#45;&gt;Node6 -->
<g id="edge7" class="edge">
<title>Node2&#45;&gt;Node6</title>
<path fill="none" stroke="#191970" d="M409.6114,-220.4179C401.7638,-212.425 390.1443,-200.5903 380.6673,-190.9377"/>
<polygon fill="#191970" stroke="#191970" points="383.1425,-188.463 373.6391,-183.7795 378.1476,-193.3672 383.1425,-188.463"/>
</g>
<!-- Node2&#45;&gt;Node7 -->
<g id="edge11" class="edge">
<title>Node2&#45;&gt;Node7</title>
<path fill="none" stroke="#191970" d="M423.3237,-220.1774C429.3302,-207.106 437.7779,-182.9246 428.5284,-165 421.4855,-151.3517 408.2473,-140.9043 395.6303,-133.4837"/>
<polygon fill="#191970" stroke="#191970" points="397.1094,-130.3042 386.6505,-128.6127 393.7718,-136.4573 397.1094,-130.3042"/>
</g>
<!-- Node9 -->
<g id="node10" class="node">
<title>Node9</title>
<g id="a_node10"><a xlink:href="dji__version_8hpp.html" target="_top" xlink:title="Drone/SDK Version definition for DJI onboardSDK library.">
<polygon fill="#ffffff" stroke="#000000" points="528.8956,-165.5 528.8956,-183.5 612.1612,-183.5 612.1612,-165.5 528.8956,-165.5"/>
<text text-anchor="middle" x="570.5284" y="-171.5" font-family="Helvetica,sans-Serif" font-size="10.00" fill="#000000">dji_version.hpp</text>
</a>
</g>
</g>
<!-- Node2&#45;&gt;Node9 -->
<g id="edge12" class="edge">
<title>Node2&#45;&gt;Node9</title>
<path fill="none" stroke="#191970" d="M443.6281,-220.4179C468.8963,-211.2748 508.0575,-197.1046 536.1929,-186.924"/>
<polygon fill="#191970" stroke="#191970" points="537.4316,-190.198 545.644,-183.5042 535.0498,-183.6156 537.4316,-190.198"/>
</g>
<!-- Node11 -->
<g id="node12" class="node">
<title>Node11</title>
<g id="a_node12"><a xlink:title=" ">
<polygon fill="#ffffff" stroke="#bfbfbf" points="475.8018,-165.5 475.8018,-183.5 511.2549,-183.5 511.2549,-165.5 475.8018,-165.5"/>
<text text-anchor="middle" x="493.5284" y="-171.5" font-family="Helvetica,sans-Serif" font-size="10.00" fill="#000000">map</text>
</a>
</g>
</g>
<!-- Node2&#45;&gt;Node11 -->
<g id="edge15" class="edge">
<title>Node2&#45;&gt;Node11</title>
<path fill="none" stroke="#191970" d="M430.9131,-220.4179C442.3124,-212.0584 459.4421,-199.4966 472.9049,-189.6239"/>
<polygon fill="#191970" stroke="#191970" points="475.131,-192.3317 481.1253,-183.5956 470.9914,-186.6869 475.131,-192.3317"/>
</g>
<!-- Node4 -->
<g id="node5" class="node">
<title>Node4</title>
<g id="a_node5"><a xlink:href="dji__error_8hpp.html" target="_top" xlink:title="All DJI OSDK OpenProtocol ACK Error Codes.">
<polygon fill="#ffffff" stroke="#000000" points="137.7305,-55.5 137.7305,-73.5 209.3262,-73.5 209.3262,-55.5 137.7305,-55.5"/>
<text text-anchor="middle" x="173.5284" y="-61.5" font-family="Helvetica,sans-Serif" font-size="10.00" fill="#000000">dji_error.hpp</text>
</a>
</g>
</g>
<!-- Node3&#45;&gt;Node4 -->
<g id="edge4" class="edge">
<title>Node3&#45;&gt;Node4</title>
<path fill="none" stroke="#191970" d="M173.5284,-110.4179C173.5284,-103.2164 173.5284,-92.8962 173.5284,-83.8632"/>
<polygon fill="#191970" stroke="#191970" points="177.0285,-83.7794 173.5284,-73.7795 170.0285,-83.7795 177.0285,-83.7794"/>
</g>
<!-- Node5 -->
<g id="node6" class="node">
<title>Node5</title>
<g id="a_node6"><a xlink:title=" ">
<polygon fill="#ffffff" stroke="#bfbfbf" points="213.4078,-.5 213.4078,-18.5 261.649,-18.5 261.649,-.5 213.4078,-.5"/>
<text text-anchor="middle" x="237.5284" y="-6.5" font-family="Helvetica,sans-Serif" font-size="10.00" fill="#000000">stdint.h</text>
</a>
</g>
</g>
<!-- Node3&#45;&gt;Node5 -->
<g id="edge6" class="edge">
<title>Node3&#45;&gt;Node5</title>
<path fill="none" stroke="#191970" d="M185.5247,-110.2741C195.6902,-101.857 209.9451,-88.5434 218.5284,-74 226.7794,-60.0196 231.6729,-42.1952 234.4217,-28.8283"/>
<polygon fill="#191970" stroke="#191970" points="237.8939,-29.2978 236.253,-18.8308 231.0085,-28.0365 237.8939,-29.2978"/>
</g>
<!-- Node4&#45;&gt;Node5 -->
<g id="edge5" class="edge">
<title>Node4&#45;&gt;Node5</title>
<path fill="none" stroke="#191970" d="M184.0967,-55.4179C193.5817,-47.2667 207.7159,-35.1201 219.065,-25.3669"/>
<polygon fill="#191970" stroke="#191970" points="221.4274,-27.9516 226.7305,-18.7795 216.865,-22.6427 221.4274,-27.9516"/>
</g>
<!-- Node6&#45;&gt;Node7 -->
<g id="edge8" class="edge">
<title>Node6&#45;&gt;Node7</title>
<path fill="none" stroke="#191970" d="M364.5284,-165.4179C364.5284,-158.2164 364.5284,-147.8962 364.5284,-138.8632"/>
<polygon fill="#191970" stroke="#191970" points="368.0285,-138.7794 364.5284,-128.7795 361.0285,-138.7795 368.0285,-138.7794"/>
</g>
<!-- Node7&#45;&gt;Node5 -->
<g id="edge10" class="edge">
<title>Node7&#45;&gt;Node5</title>
<path fill="none" stroke="#191970" d="M364.2321,-110.4187C363.316,-96.7592 359.6851,-70.8424 345.5284,-55 326.5151,-33.7229 295.9207,-22.1029 272.1406,-15.9447"/>
<polygon fill="#191970" stroke="#191970" points="272.6292,-12.4634 262.0909,-13.556 271.0105,-19.2737 272.6292,-12.4634"/>
</g>
<!-- Node8 -->
<g id="node9" class="node">
<title>Node8</title>
<g id="a_node9"><a xlink:title=" ">
<polygon fill="#ffffff" stroke="#bfbfbf" points="294.4669,-55.5 294.4669,-73.5 336.5899,-73.5 336.5899,-55.5 294.4669,-55.5"/>
<text text-anchor="middle" x="315.5284" y="-61.5" font-family="Helvetica,sans-Serif" font-size="10.00" fill="#000000">cstdio</text>
</a>
</g>
</g>
<!-- Node7&#45;&gt;Node8 -->
<g id="edge9" class="edge">
<title>Node7&#45;&gt;Node8</title>
<path fill="none" stroke="#191970" d="M356.437,-110.4179C349.4571,-102.5833 339.1887,-91.0575 330.686,-81.5137"/>
<polygon fill="#191970" stroke="#191970" points="333.0609,-78.9178 323.7955,-73.7795 327.8343,-83.5743 333.0609,-78.9178"/>
</g>
<!-- Node9&#45;&gt;Node3 -->
<g id="edge13" class="edge">
<title>Node9&#45;&gt;Node3</title>
<path fill="none" stroke="#191970" d="M528.8179,-166.3897C526.0156,-165.902 523.2329,-165.4339 520.5284,-165 419.1,-148.7282 300.2934,-134.1035 231.303,-126.0475"/>
<polygon fill="#191970" stroke="#191970" points="231.4184,-122.5375 221.0811,-124.8595 230.6101,-129.4907 231.4184,-122.5375"/>
</g>
<!-- Node10 -->
<g id="node11" class="node">
<title>Node10</title>
<g id="a_node11"><a xlink:title=" ">
<polygon fill="#ffffff" stroke="#bfbfbf" points="936.0777,-110.5 936.0777,-128.5 980.9791,-128.5 980.9791,-110.5 936.0777,-110.5"/>
<text text-anchor="middle" x="958.5284" y="-116.5" font-family="Helvetica,sans-Serif" font-size="10.00" fill="#000000">cstdint</text>
</a>
</g>
</g>
<!-- Node9&#45;&gt;Node10 -->
<g id="edge14" class="edge">
<title>Node9&#45;&gt;Node10</title>
<path fill="none" stroke="#191970" d="M612.2474,-166.5533C615.3849,-166.0094 618.5049,-165.4854 621.5284,-165 732.8826,-147.123 865.7016,-130.5902 925.9452,-123.35"/>
<polygon fill="#191970" stroke="#191970" points="926.4779,-126.8113 935.9913,-122.148 925.6463,-119.8608 926.4779,-126.8113"/>
</g>
<!-- Node13&#45;&gt;Node7 -->
<g id="edge19" class="edge">
<title>Node13&#45;&gt;Node7</title>
<path fill="none" stroke="#191970" d="M760.6418,-166.3834C757.5605,-165.8972 754.5012,-165.4312 751.5284,-165 628.2127,-147.1142 482.0068,-131.4117 409.6872,-124.0098"/>
<polygon fill="#191970" stroke="#191970" points="409.868,-120.5102 399.5647,-122.9786 409.1585,-127.4741 409.868,-120.5102"/>
</g>
<!-- Node14&#45;&gt;Node1 -->
<g id="edge69" class="edge">
<title>Node14&#45;&gt;Node1</title>
<path fill="none" stroke="#191970" d="M941.3543,-336.1569C865.2761,-329.7772 697.3514,-314.7508 545.3933,-294.0359"/>
<polygon fill="#191970" stroke="#191970" points="545.7919,-290.5578 535.4084,-292.6632 544.8385,-297.4926 545.7919,-290.5578"/>
</g>
<!-- Node14&#45;&gt;Node3 -->
<g id="edge30" class="edge">
<title>Node14&#45;&gt;Node3</title>
<path fill="none" stroke="#191970" d="M941.442,-338.4589C787.4004,-334.3811 249.2449,-318.5031 176.5284,-294 88.9786,-264.4985 -42.1522,-238.7224 13.5284,-165 26.1105,-148.341 75.5138,-135.9862 116.1347,-128.3875"/>
<polygon fill="#191970" stroke="#191970" points="116.7616,-131.8309 125.9779,-126.6051 115.5143,-124.943 116.7616,-131.8309"/>
</g>
<!-- Node14&#45;&gt;Node7 -->
<g id="edge66" class="edge">
<title>Node14&#45;&gt;Node7</title>
<path fill="none" stroke="#191970" d="M941.2237,-332.5992C914.3137,-326.3396 879.82,-314.7839 855.5284,-294 828.5627,-270.9282 811.9474,-252.7874 825.5284,-220 836.7086,-193.0086 881.2225,-186.5795 861.5284,-165 831.3727,-131.9575 526.4346,-122.6159 409.6767,-120.2391"/>
<polygon fill="#191970" stroke="#191970" points="409.6986,-116.739 399.632,-120.0425 409.5615,-123.7376 409.6986,-116.739"/>
</g>
<!-- Node14&#45;&gt;Node9 -->
<g id="edge68" class="edge">
<title>Node14&#45;&gt;Node9</title>
<path fill="none" stroke="#191970" d="M941.306,-333.8234C875.0859,-323.3078 742.612,-296.4252 645.5284,-239 622.8296,-225.5736 600.3759,-205.0463 586.0408,-190.7682"/>
<polygon fill="#191970" stroke="#191970" points="588.4672,-188.2438 578.9621,-183.5637 583.474,-193.1498 588.4672,-188.2438"/>
</g>
<!-- Node14&#45;&gt;Node10 -->
<g id="edge21" class="edge">
<title>Node14&#45;&gt;Node10</title>
<path fill="none" stroke="#191970" d="M981.5277,-330.327C977.9292,-297.3409 965.5972,-184.2972 960.6282,-138.7484"/>
<polygon fill="#191970" stroke="#191970" points="964.0973,-138.2736 959.5333,-128.7122 957.1385,-139.0328 964.0973,-138.2736"/>
</g>
<!-- Node14&#45;&gt;Node12 -->
<g id="edge58" class="edge">
<title>Node14&#45;&gt;Node12</title>
<path fill="none" stroke="#191970" d="M1023.6717,-339.389C1194.5964,-338.6753 1843.5233,-333.3736 1925.5284,-294 1960.0156,-277.4414 1982.5284,-267.7564 1982.5284,-229.5 1982.5284,-229.5 1982.5284,-229.5 1982.5284,-174.5 1982.5284,-90.2507 1355.8197,-70.0385 1146.027,-65.6326"/>
<polygon fill="#191970" stroke="#191970" points="1145.8329,-62.128 1135.7634,-65.4228 1145.6898,-69.1266 1145.8329,-62.128"/>
</g>
<!-- Node15 -->
<g id="node16" class="node">
<title>Node15</title>
<g id="a_node16"><a xlink:href="dji__broadcast_8hpp.html" target="_top" xlink:title="Broadcast Telemetry API for DJI onboardSDK library.">
<polygon fill="#ffffff" stroke="#000000" points="834.0557,-220.5 834.0557,-238.5 929.001,-238.5 929.001,-220.5 834.0557,-220.5"/>
<text text-anchor="middle" x="881.5284" y="-226.5" font-family="Helvetica,sans-Serif" font-size="10.00" fill="#000000">dji_broadcast.hpp</text>
</a>
</g>
</g>
<!-- Node14&#45;&gt;Node15 -->
<g id="edge22" class="edge">
<title>Node14&#45;&gt;Node15</title>
<path fill="none" stroke="#191970" d="M946.1135,-330.4353C914.8214,-321.822 873.2469,-308.1206 863.5284,-294 853.8887,-279.994 861.1378,-260.94 869.125,-247.1769"/>
<polygon fill="#191970" stroke="#191970" points="872.1544,-248.9358 874.5741,-238.6209 866.2501,-245.1755 872.1544,-248.9358"/>
</g>
<!-- Node16 -->
<g id="node17" class="node">
<title>Node16</title>
<g id="a_node17"><a xlink:href="dji__vehicle__callback_8hpp.html" target="_top" xlink:title="Type definition for new Vehicle&#45;style callbacks.">
<polygon fill="#ffffff" stroke="#000000" points="1130.605,-110.5 1130.605,-128.5 1254.4517,-128.5 1254.4517,-110.5 1130.605,-110.5"/>
<text text-anchor="middle" x="1192.5284" y="-116.5" font-family="Helvetica,sans-Serif" font-size="10.00" fill="#000000">dji_vehicle_callback.hpp</text>
</a>
</g>
</g>
<!-- Node14&#45;&gt;Node16 -->
<g id="edge67" class="edge">
<title>Node14&#45;&gt;Node16</title>
<path fill="none" stroke="#191970" d="M1023.6367,-339.0342C1198.7206,-336.8532 1874.728,-326.3561 1905.5284,-294 1956.3052,-240.6585 1870.6157,-190.5059 1801.5284,-165 1752.3066,-146.8282 1415.0769,-129.554 1264.6731,-122.6544"/>
<polygon fill="#191970" stroke="#191970" points="1264.7563,-119.1546 1254.6072,-122.1953 1264.4374,-126.1474 1264.7563,-119.1546"/>
</g>
<!-- Node17 -->
<g id="node18" class="node">
<title>Node17</title>
<g id="a_node18"><a xlink:href="dji__camera_8hpp.html" target="_top" xlink:title="Camera/Gimbal API for DJI onboardSDK library.">
<polygon fill="#ffffff" stroke="#000000" points="131.3414,-165.5 131.3414,-183.5 215.7154,-183.5 215.7154,-165.5 131.3414,-165.5"/>
<text text-anchor="middle" x="173.5284" y="-171.5" font-family="Helvetica,sans-Serif" font-size="10.00" fill="#000000">dji_camera.hpp</text>
</a>
</g>
</g>
<!-- Node14&#45;&gt;Node17 -->
<g id="edge26" class="edge">
<title>Node14&#45;&gt;Node17</title>
<path fill="none" stroke="#191970" d="M941.258,-337.6328C821.1877,-332.017 473.4604,-314.4055 361.5284,-294 276.7211,-278.5394 228.1874,-307.252 175.5284,-239 165.7003,-226.2617 166.2694,-207.5175 168.6635,-193.5143"/>
<polygon fill="#191970" stroke="#191970" points="172.1351,-194.0176 170.8109,-183.5058 165.2908,-192.549 172.1351,-194.0176"/>
</g>
<!-- Node18 -->
<g id="node19" class="node">
<title>Node18</title>
<g id="a_node19"><a xlink:title=" ">
<polygon fill="#ffffff" stroke="#bfbfbf" points="1086.6954,-275.5 1086.6954,-293.5 1200.3614,-293.5 1200.3614,-275.5 1086.6954,-275.5"/>
<text text-anchor="middle" x="1143.5284" y="-281.5" font-family="Helvetica,sans-Serif" font-size="10.00" fill="#000000">dji_circular_buffer.hpp</text>
</a>
</g>
</g>
<!-- Node14&#45;&gt;Node18 -->
<g id="edge29" class="edge">
<title>Node14&#45;&gt;Node18</title>
<path fill="none" stroke="#191970" d="M1009.1143,-330.4179C1035.9955,-321.2348 1077.7211,-306.9807 1107.5496,-296.7909"/>
<polygon fill="#191970" stroke="#191970" points="1108.839,-300.0491 1117.1706,-293.5042 1106.5761,-293.4249 1108.839,-300.0491"/>
</g>
<!-- Node19 -->
<g id="node20" class="node">
<title>Node19</title>
<g id="a_node20"><a xlink:href="dji__control_8hpp.html" target="_top" xlink:title="Control API for DJI OSDK library.">
<polygon fill="#ffffff" stroke="#000000" points="873.0064,-275.5 873.0064,-293.5 954.0503,-293.5 954.0503,-275.5 873.0064,-275.5"/>
<text text-anchor="middle" x="913.5284" y="-281.5" font-family="Helvetica,sans-Serif" font-size="10.00" fill="#000000">dji_control.hpp</text>
</a>
</g>
</g>
<!-- Node14&#45;&gt;Node19 -->
<g id="edge31" class="edge">
<title>Node14&#45;&gt;Node19</title>
<path fill="none" stroke="#191970" d="M971.1344,-330.4179C960.8092,-322.1876 945.3736,-309.8839 933.0786,-300.0836"/>
<polygon fill="#191970" stroke="#191970" points="935.1712,-297.2757 925.1699,-293.7795 930.808,-302.7495 935.1712,-297.2757"/>
</g>
<!-- Node20 -->
<g id="node21" class="node">
<title>Node20</title>
<g id="a_node21"><a xlink:href="dji__gimbal_8hpp.html" target="_top" xlink:title="Gimbal API for OSDK library.">
<polygon fill="#ffffff" stroke="#000000" points="33.2847,-165.5 33.2847,-183.5 113.772,-183.5 113.772,-165.5 33.2847,-165.5"/>
<text text-anchor="middle" x="73.5284" y="-171.5" font-family="Helvetica,sans-Serif" font-size="10.00" fill="#000000">dji_gimbal.hpp</text>
</a>
</g>
</g>
<!-- Node14&#45;&gt;Node20 -->
<g id="edge36" class="edge">
<title>Node14&#45;&gt;Node20</title>
<path fill="none" stroke="#191970" d="M941.253,-338.5798C791.5104,-335.0329 282.0996,-321.0761 214.5284,-294 159.1616,-271.8143 109.8598,-218.8431 87.0063,-191.4904"/>
<polygon fill="#191970" stroke="#191970" points="89.5802,-189.1088 80.5415,-183.5813 84.1603,-193.5389 89.5802,-189.1088"/>
</g>
<!-- Node21 -->
<g id="node22" class="node">
<title>Node21</title>
<g id="a_node22"><a xlink:title=" ">
<polygon fill="#ffffff" stroke="#bfbfbf" points="1217.9966,-275.5 1217.9966,-293.5 1319.0601,-293.5 1319.0601,-275.5 1217.9966,-275.5"/>
<text text-anchor="middle" x="1268.5284" y="-281.5" font-family="Helvetica,sans-Serif" font-size="10.00" fill="#000000">dji_hard_driver.hpp</text>
</a>
</g>
</g>
<!-- Node14&#45;&gt;Node21 -->
<g id="edge39" class="edge">
<title>Node14&#45;&gt;Node21</title>
<path fill="none" stroke="#191970" d="M1023.8098,-331.5613C1073.1776,-322.0675 1156.0803,-306.1246 1211.5319,-295.4609"/>
<polygon fill="#191970" stroke="#191970" points="1212.3931,-298.8595 1221.5522,-293.5339 1211.0711,-291.9854 1212.3931,-298.8595"/>
</g>
<!-- Node22 -->
<g id="node23" class="node">
<title>Node22</title>
<g id="a_node23"><a xlink:href="dji__hardware__sync_8hpp.html" target="_top" xlink:title="Hardware Sync API for DJI OSDK.">
<polygon fill="#ffffff" stroke="#000000" points="184.1075,-220.5 184.1075,-238.5 302.9493,-238.5 302.9493,-220.5 184.1075,-220.5"/>
<text text-anchor="middle" x="243.5284" y="-226.5" font-family="Helvetica,sans-Serif" font-size="10.00" fill="#000000">dji_hardware_sync.hpp</text>
</a>
</g>
</g>
<!-- Node14&#45;&gt;Node22 -->
<g id="edge40" class="edge">
<title>Node14&#45;&gt;Node22</title>
<path fill="none" stroke="#191970" d="M941.4172,-337.3828C831.3059,-331.5052 531.5157,-314.0904 434.5284,-294 376.3264,-281.9438 311.2911,-257.4988 274.1014,-242.4074"/>
<polygon fill="#191970" stroke="#191970" points="275.4034,-239.1586 264.8232,-238.6013 272.7466,-245.6348 275.4034,-239.1586"/>
</g>
<!-- Node23 -->
<g id="node24" class="node">
<title>Node23</title>
<g id="a_node24"><a xlink:href="dji__mfio_8hpp.html" target="_top" xlink:title="MFIO API for DJI OSDK library.">
<polygon fill="#ffffff" stroke="#000000" points="1220.5679,-220.5 1220.5679,-238.5 1290.4888,-238.5 1290.4888,-220.5 1220.5679,-220.5"/>
<text text-anchor="middle" x="1255.5284" y="-226.5" font-family="Helvetica,sans-Serif" font-size="10.00" fill="#000000">dji_mfio.hpp</text>
</a>
</g>
</g>
<!-- Node14&#45;&gt;Node23 -->
<g id="edge42" class="edge">
<title>Node14&#45;&gt;Node23</title>
<path fill="none" stroke="#191970" d="M994.7727,-330.4006C1016.2953,-314.5411 1060.2619,-282.7804 1077.5284,-275 1101,-264.4235 1165.6466,-249.0938 1210.2081,-239.2108"/>
<polygon fill="#191970" stroke="#191970" points="1211.2132,-242.5734 1220.2269,-237.0053 1209.7082,-235.7371 1211.2132,-242.5734"/>
</g>
<!-- Node24 -->
<g id="node25" class="node">
<title>Node24</title>
<g id="a_node25"><a xlink:href="dji__mission__manager_8hpp.html" target="_top" xlink:title="Mission&#45;Manager API for DJI OSDK library.">
<polygon fill="#ffffff" stroke="#000000" points="553.8243,-275.5 553.8243,-293.5 683.2325,-293.5 683.2325,-275.5 553.8243,-275.5"/>
<text text-anchor="middle" x="618.5284" y="-281.5" font-family="Helvetica,sans-Serif" font-size="10.00" fill="#000000">dji_mission_manager.hpp</text>
</a>
</g>
</g>
<!-- Node14&#45;&gt;Node24 -->
<g id="edge44" class="edge">
<title>Node14&#45;&gt;Node24</title>
<path fill="none" stroke="#191970" d="M941.1273,-333.2443C879.6402,-323.9537 763.4114,-306.3917 688.5417,-295.0789"/>
<polygon fill="#191970" stroke="#191970" points="688.6725,-291.559 678.2618,-293.5257 687.6266,-298.4805 688.6725,-291.559"/>
</g>
<!-- Node28 -->
<g id="node29" class="node">
<title>Node28</title>
<g id="a_node29"><a xlink:href="dji__mobile__communication_8hpp.html" target="_top" xlink:title="Implementation of DJI Mobile&#45;Onboard SDK Communication (MOC)">
<polygon fill="#ffffff" stroke="#000000" points="1724.8785,-275.5 1724.8785,-293.5 1878.1783,-293.5 1878.1783,-275.5 1724.8785,-275.5"/>
<text text-anchor="middle" x="1801.5284" y="-281.5" font-family="Helvetica,sans-Serif" font-size="10.00" fill="#000000">dji_mobile_communication.hpp</text>
</a>
</g>
</g>
<!-- Node14&#45;&gt;Node28 -->
<g id="edge53" class="edge">
<title>Node14&#45;&gt;Node28</title>
<path fill="none" stroke="#191970" d="M1023.9105,-337.6291C1134.2501,-332.4915 1444.8673,-317.0548 1714.669,-294.0341"/>
<polygon fill="#191970" stroke="#191970" points="1714.9883,-297.5196 1724.6523,-293.1771 1714.3896,-290.5453 1714.9883,-297.5196"/>
</g>
<!-- Node30 -->
<g id="node31" class="node">
<title>Node30</title>
<g id="a_node31"><a xlink:href="dji__mobile__device_8hpp.html" target="_top" xlink:title="Implementation of DJI Mobile Device Abstraction.">
<polygon fill="#ffffff" stroke="#000000" points="1678.0508,-165.5 1678.0508,-183.5 1793.0059,-183.5 1793.0059,-165.5 1678.0508,-165.5"/>
<text text-anchor="middle" x="1735.5284" y="-171.5" font-family="Helvetica,sans-Serif" font-size="10.00" fill="#000000">dji_mobile_device.hpp</text>
</a>
</g>
</g>
<!-- Node14&#45;&gt;Node30 -->
<g id="edge56" class="edge">
<title>Node14&#45;&gt;Node30</title>
<path fill="none" stroke="#191970" d="M1023.7069,-338.9913C1196.7381,-336.6566 1857.3936,-325.6879 1887.5284,-294 1910.5499,-269.792 1880.3186,-242.8187 1852.5284,-220 1833.3808,-204.2778 1808.1678,-193.5467 1786.0518,-186.4743"/>
<polygon fill="#191970" stroke="#191970" points="1787.0518,-183.1202 1776.4666,-183.5705 1785.0223,-189.8196 1787.0518,-183.1202"/>
</g>
<!-- Node31 -->
<g id="node32" class="node">
<title>Node31</title>
<g id="a_node32"><a xlink:title=" ">
<polygon fill="#ffffff" stroke="#bfbfbf" points="1336.711,-275.5 1336.711,-293.5 1468.3458,-293.5 1468.3458,-275.5 1336.711,-275.5"/>
<text text-anchor="middle" x="1402.5284" y="-281.5" font-family="Helvetica,sans-Serif" font-size="10.00" fill="#000000">dji_platform_manager.hpp</text>
</a>
</g>
</g>
<!-- Node14&#45;&gt;Node31 -->
<g id="edge59" class="edge">
<title>Node14&#45;&gt;Node31</title>
<path fill="none" stroke="#191970" d="M1023.949,-334.0759C1094.1926,-324.8773 1237.6788,-306.0874 1326.4283,-294.4655"/>
<polygon fill="#191970" stroke="#191970" points="1326.9773,-297.9236 1336.4382,-293.1547 1326.0684,-290.9828 1326.9773,-297.9236"/>
</g>
<!-- Node32 -->
<g id="node33" class="node">
<title>Node32</title>
<g id="a_node33"><a xlink:href="dji__status_8hpp.html" target="_top" xlink:title="Status information for DJI Vehicle.">
<polygon fill="#ffffff" stroke="#000000" points="1486.6739,-275.5 1486.6739,-293.5 1564.3829,-293.5 1564.3829,-275.5 1486.6739,-275.5"/>
<text text-anchor="middle" x="1525.5284" y="-281.5" font-family="Helvetica,sans-Serif" font-size="10.00" fill="#000000">dji_status.hpp</text>
</a>
</g>
</g>
<!-- Node14&#45;&gt;Node32 -->
<g id="edge60" class="edge">
<title>Node14&#45;&gt;Node32</title>
<path fill="none" stroke="#191970" d="M1023.768,-337.1605C1107.2747,-332.1102 1302.4983,-318.717 1476.4483,-294.0163"/>
<polygon fill="#191970" stroke="#191970" points="1477.153,-297.4511 1486.5538,-292.565 1476.1578,-290.5222 1477.153,-297.4511"/>
</g>
<!-- Node33 -->
<g id="node34" class="node">
<title>Node33</title>
<g id="a_node34"><a xlink:href="dji__subscription_8hpp.html" target="_top" xlink:title="Telemetry Subscription API for DJI OSDK library.">
<polygon fill="#ffffff" stroke="#000000" points="1060.334,-220.5 1060.334,-238.5 1164.7227,-238.5 1164.7227,-220.5 1060.334,-220.5"/>
<text text-anchor="middle" x="1112.5284" y="-226.5" font-family="Helvetica,sans-Serif" font-size="10.00" fill="#000000">dji_subscription.hpp</text>
</a>
</g>
</g>
<!-- Node14&#45;&gt;Node33 -->
<g id="edge61" class="edge">
<title>Node14&#45;&gt;Node33</title>
<path fill="none" stroke="#191970" d="M990.3862,-330.1306C1001.6401,-317.0036 1023.3366,-292.7566 1044.5284,-275 1058.2402,-263.5109 1074.9177,-252.3144 1088.3246,-243.9031"/>
<polygon fill="#191970" stroke="#191970" points="1090.328,-246.7798 1097.0071,-238.5554 1086.657,-240.8195 1090.328,-246.7798"/>
</g>
<!-- Node34 -->
<g id="node35" class="node">
<title>Node34</title>
<g id="a_node35"><a xlink:title=" ">
<polygon fill="#ffffff" stroke="#bfbfbf" points="1582.5953,-275.5 1582.5953,-293.5 1706.4615,-293.5 1706.4615,-275.5 1582.5953,-275.5"/>
<text text-anchor="middle" x="1644.5284" y="-281.5" font-family="Helvetica,sans-Serif" font-size="10.00" fill="#000000">dji_thread_manager.hpp</text>
</a>
</g>
</g>
<!-- Node14&#45;&gt;Node34 -->
<g id="edge65" class="edge">
<title>Node14&#45;&gt;Node34</title>
<path fill="none" stroke="#191970" d="M1023.7998,-337.1231C1118.684,-331.4864 1359.8718,-316.1787 1572.1291,-294.0959"/>
<polygon fill="#191970" stroke="#191970" points="1572.6332,-297.5624 1582.214,-293.0393 1571.9037,-290.6005 1572.6332,-297.5624"/>
</g>
<!-- Node15&#45;&gt;Node13 -->
<g id="edge23" class="edge">
<title>Node15&#45;&gt;Node13</title>
<path fill="none" stroke="#191970" d="M869.1437,-220.4179C857.7443,-212.0584 840.6147,-199.4966 827.1519,-189.6239"/>
<polygon fill="#191970" stroke="#191970" points="829.0654,-186.6869 818.9315,-183.5956 824.9258,-192.3317 829.0654,-186.6869"/>
</g>
<!-- Node15&#45;&gt;Node16 -->
<g id="edge24" class="edge">
<title>Node15&#45;&gt;Node16</title>
<path fill="none" stroke="#191970" d="M906.9788,-220.4982C962.3355,-200.9187 1093.7876,-154.4244 1157.1617,-132.0091"/>
<polygon fill="#191970" stroke="#191970" points="1158.4657,-135.2604 1166.7263,-128.6261 1156.1315,-128.6611 1158.4657,-135.2604"/>
</g>
<!-- Node16&#45;&gt;Node12 -->
<g id="edge25" class="edge">
<title>Node16&#45;&gt;Node12</title>
<path fill="none" stroke="#191970" d="M1173.7036,-110.4179C1155.3865,-101.5807 1127.3355,-88.0473 1106.4254,-77.9591"/>
<polygon fill="#191970" stroke="#191970" points="1107.9086,-74.7887 1097.3811,-73.5956 1104.8668,-81.0933 1107.9086,-74.7887"/>
</g>
<!-- Node17&#45;&gt;Node3 -->
<g id="edge27" class="edge">
<title>Node17&#45;&gt;Node3</title>
<path fill="none" stroke="#191970" d="M173.5284,-165.4179C173.5284,-158.2164 173.5284,-147.8962 173.5284,-138.8632"/>
<polygon fill="#191970" stroke="#191970" points="177.0285,-138.7794 173.5284,-128.7795 170.0285,-138.7795 177.0285,-138.7794"/>
</g>
<!-- Node17&#45;&gt;Node7 -->
<g id="edge28" class="edge">
<title>Node17&#45;&gt;Node7</title>
<path fill="none" stroke="#191970" d="M205.0681,-165.4179C237.3743,-156.115 287.7532,-141.608 323.2229,-131.3943"/>
<polygon fill="#191970" stroke="#191970" points="324.6182,-134.6348 333.2592,-128.5042 322.6812,-127.9081 324.6182,-134.6348"/>
</g>
<!-- Node19&#45;&gt;Node2 -->
<g id="edge32" class="edge">
<title>Node19&#45;&gt;Node2</title>
<path fill="none" stroke="#191970" d="M872.8047,-282.0057C795.0523,-276.897 619.9533,-263.7274 462.5959,-238.9895"/>
<polygon fill="#191970" stroke="#191970" points="462.6839,-235.4595 452.2579,-237.3433 461.5831,-242.3724 462.6839,-235.4595"/>
</g>
<!-- Node19&#45;&gt;Node7 -->
<g id="edge34" class="edge">
<title>Node19&#45;&gt;Node7</title>
<path fill="none" stroke="#191970" d="M920.121,-275.2865C926.0006,-266.4614 934.1803,-252.5238 937.5284,-239 942.3579,-219.4926 939.1349,-171.536 932.5284,-165 895.6762,-128.541 538.385,-121.2826 410.0978,-119.8492"/>
<polygon fill="#191970" stroke="#191970" points="409.8698,-116.3467 399.8336,-119.7416 409.7963,-123.3463 409.8698,-116.3467"/>
</g>
<!-- Node19&#45;&gt;Node12 -->
<g id="edge33" class="edge">
<title>Node19&#45;&gt;Node12</title>
<path fill="none" stroke="#191970" d="M922.0811,-275.3219C930.3768,-266.2937 943.1908,-252.0114 953.5284,-239 997.6256,-183.4972 1045.2061,-114.1305 1066.7457,-82.1483"/>
<polygon fill="#191970" stroke="#191970" points="1069.6689,-84.0732 1072.3347,-73.8192 1063.8563,-80.1727 1069.6689,-84.0732"/>
</g>
<!-- Node19&#45;&gt;Node16 -->
<g id="edge35" class="edge">
<title>Node19&#45;&gt;Node16</title>
<path fill="none" stroke="#191970" d="M954.2374,-279.9841C1023.5056,-271.9226 1158.3175,-254.4496 1173.5284,-239 1199.7186,-212.3988 1198.7039,-165.1473 1195.6333,-138.7322"/>
<polygon fill="#191970" stroke="#191970" points="1199.0562,-137.9335 1194.2166,-128.5087 1192.1224,-138.8945 1199.0562,-137.9335"/>
</g>
<!-- Node20&#45;&gt;Node3 -->
<g id="edge37" class="edge">
<title>Node20&#45;&gt;Node3</title>
<path fill="none" stroke="#191970" d="M90.0413,-165.4179C105.8194,-156.7399 129.8312,-143.5334 148.0599,-133.5077"/>
<polygon fill="#191970" stroke="#191970" points="149.9154,-136.4816 156.9909,-128.5956 146.542,-130.3481 149.9154,-136.4816"/>
</g>
<!-- Node20&#45;&gt;Node7 -->
<g id="edge38" class="edge">
<title>Node20&#45;&gt;Node7</title>
<path fill="none" stroke="#191970" d="M113.9016,-166.6538C116.8207,-166.0922 119.7196,-165.5363 122.5284,-165 191.1334,-151.9002 270.7372,-136.9889 319.3583,-127.9138"/>
<polygon fill="#191970" stroke="#191970" points="320.0597,-131.3434 329.2481,-126.0686 318.7758,-124.4622 320.0597,-131.3434"/>
</g>
<!-- Node22&#45;&gt;Node7 -->
<g id="edge41" class="edge">
<title>Node22&#45;&gt;Node7</title>
<path fill="none" stroke="#191970" d="M244.6927,-220.4573C246.8822,-206.8483 252.7983,-180.9964 267.5284,-165 281.5199,-149.8057 301.6239,-139.232 319.9052,-132.1292"/>
<polygon fill="#191970" stroke="#191970" points="321.3353,-135.3335 329.5392,-128.6293 318.9451,-128.7543 321.3353,-135.3335"/>
</g>
<!-- Node23&#45;&gt;Node16 -->
<g id="edge43" class="edge">
<title>Node23&#45;&gt;Node16</title>
<path fill="none" stroke="#191970" d="M1250.3728,-220.4982C1239.9897,-202.369 1216.3909,-161.1647 1202.7607,-137.3659"/>
<polygon fill="#191970" stroke="#191970" points="1205.7623,-135.5643 1197.7552,-128.6261 1199.6879,-139.0432 1205.7623,-135.5643"/>
</g>
<!-- Node25 -->
<g id="node26" class="node">
<title>Node25</title>
<g id="a_node26"><a xlink:href="dji__hotpoint_8hpp.html" target="_top" xlink:title="Implementation of HotPoint (Point of Interest) Missions for DJI OSDK.">
<polygon fill="#ffffff" stroke="#000000" points="654.2208,-220.5 654.2208,-238.5 740.836,-238.5 740.836,-220.5 654.2208,-220.5"/>
<text text-anchor="middle" x="697.5284" y="-226.5" font-family="Helvetica,sans-Serif" font-size="10.00" fill="#000000">dji_hotpoint.hpp</text>
</a>
</g>
</g>
<!-- Node24&#45;&gt;Node25 -->
<g id="edge45" class="edge">
<title>Node24&#45;&gt;Node25</title>
<path fill="none" stroke="#191970" d="M631.5736,-275.4179C643.6952,-266.9788 661.9684,-254.257 676.2091,-244.3426"/>
<polygon fill="#191970" stroke="#191970" points="678.2566,-247.1818 684.4638,-238.5956 674.257,-241.4369 678.2566,-247.1818"/>
</g>
<!-- Node27 -->
<g id="node28" class="node">
<title>Node27</title>
<g id="a_node28"><a xlink:href="dji__waypoint_8hpp.html" target="_top" xlink:title="Implementation of GPS Waypoint Missions for DJI OSDK.">
<polygon fill="#ffffff" stroke="#000000" points="470.2798,-220.5 470.2798,-238.5 560.7769,-238.5 560.7769,-220.5 470.2798,-220.5"/>
<text text-anchor="middle" x="515.5284" y="-226.5" font-family="Helvetica,sans-Serif" font-size="10.00" fill="#000000">dji_waypoint.hpp</text>
</a>
</g>
</g>
<!-- Node24&#45;&gt;Node27 -->
<g id="edge51" class="edge">
<title>Node24&#45;&gt;Node27</title>
<path fill="none" stroke="#191970" d="M601.52,-275.4179C585.194,-266.7001 560.3094,-253.4122 541.5029,-243.3699"/>
<polygon fill="#191970" stroke="#191970" points="543.0318,-240.2186 532.562,-238.5956 539.7345,-246.3934 543.0318,-240.2186"/>
</g>
<!-- Node25&#45;&gt;Node13 -->
<g id="edge50" class="edge">
<title>Node25&#45;&gt;Node13</title>
<path fill="none" stroke="#191970" d="M715.5275,-220.4179C732.8834,-211.6603 759.3795,-198.2907 779.3129,-188.2326"/>
<polygon fill="#191970" stroke="#191970" points="781.1514,-191.2253 788.5025,-183.5956 777.9979,-184.9758 781.1514,-191.2253"/>
</g>
<!-- Node26 -->
<g id="node27" class="node">
<title>Node26</title>
<g id="a_node27"><a xlink:href="dji__mission__base_8hpp.html" target="_top" xlink:title="Mission&#45;Base abstract class for DJI OSDK library.">
<polygon fill="#ffffff" stroke="#000000" points="630.4424,-165.5 630.4424,-183.5 742.6143,-183.5 742.6143,-165.5 630.4424,-165.5"/>
<text text-anchor="middle" x="686.5284" y="-171.5" font-family="Helvetica,sans-Serif" font-size="10.00" fill="#000000">dji_mission_base.hpp</text>
</a>
</g>
</g>
<!-- Node25&#45;&gt;Node26 -->
<g id="edge46" class="edge">
<title>Node25&#45;&gt;Node26</title>
<path fill="none" stroke="#191970" d="M695.712,-220.4179C694.2716,-213.2164 692.2076,-202.8962 690.401,-193.8632"/>
<polygon fill="#191970" stroke="#191970" points="693.7775,-192.8988 688.3843,-183.7795 686.9135,-194.2717 693.7775,-192.8988"/>
</g>
<!-- Node26&#45;&gt;Node3 -->
<g id="edge47" class="edge">
<title>Node26&#45;&gt;Node3</title>
<path fill="none" stroke="#191970" d="M630.1786,-166.1098C627.2547,-165.7228 624.3579,-165.3503 621.5284,-165 481.5515,-147.6712 316.3627,-132.1687 231.0209,-124.5251"/>
<polygon fill="#191970" stroke="#191970" points="231.2878,-121.0351 221.0162,-123.6324 230.6655,-128.0074 231.2878,-121.0351"/>
</g>
<!-- Node26&#45;&gt;Node7 -->
<g id="edge48" class="edge">
<title>Node26&#45;&gt;Node7</title>
<path fill="none" stroke="#191970" d="M633.7172,-165.4795C571.4413,-154.8423 468.9704,-137.3395 410.0509,-127.2756"/>
<polygon fill="#191970" stroke="#191970" points="410.3738,-123.7801 399.9272,-125.5464 409.1951,-130.6802 410.3738,-123.7801"/>
</g>
<!-- Node26&#45;&gt;Node16 -->
<g id="edge49" class="edge">
<title>Node26&#45;&gt;Node16</title>
<path fill="none" stroke="#191970" d="M742.8788,-166.1153C745.8025,-165.7268 748.6991,-165.3525 751.5284,-165 881.2017,-148.8417 1032.8415,-134.1035 1120.2778,-126.0086"/>
<polygon fill="#191970" stroke="#191970" points="1120.7203,-129.4827 1130.3563,-125.0786 1120.077,-122.5123 1120.7203,-129.4827"/>
</g>
<!-- Node27&#45;&gt;Node26 -->
<g id="edge52" class="edge">
<title>Node27&#45;&gt;Node26</title>
<path fill="none" stroke="#191970" d="M543.7655,-220.4179C572.4406,-211.1949 617.0194,-196.8567 648.7274,-186.6582"/>
<polygon fill="#191970" stroke="#191970" points="650.0854,-189.8981 658.5335,-183.5042 647.9421,-183.2343 650.0854,-189.8981"/>
</g>
<!-- Node28&#45;&gt;Node16 -->
<g id="edge55" class="edge">
<title>Node28&#45;&gt;Node16</title>
<path fill="none" stroke="#191970" d="M1767.9184,-275.3939C1664.5629,-247.3911 1351.4553,-162.559 1235.9422,-131.2624"/>
<polygon fill="#191970" stroke="#191970" points="1236.6018,-127.8149 1226.0345,-128.578 1234.7712,-134.5714 1236.6018,-127.8149"/>
</g>
<!-- Node29 -->
<g id="node30" class="node">
<title>Node29</title>
<g id="a_node30"><a xlink:title=" ">
<polygon fill="#ffffff" stroke="#bfbfbf" points="1759.6221,-220.5 1759.6221,-238.5 1843.4346,-238.5 1843.4346,-220.5 1759.6221,-220.5"/>
<text text-anchor="middle" x="1801.5284" y="-226.5" font-family="Helvetica,sans-Serif" font-size="10.00" fill="#000000">dji_macros.hpp</text>
</a>
</g>
</g>
<!-- Node28&#45;&gt;Node29 -->
<g id="edge54" class="edge">
<title>Node28&#45;&gt;Node29</title>
<path fill="none" stroke="#191970" d="M1801.5284,-275.4179C1801.5284,-268.2164 1801.5284,-257.8962 1801.5284,-248.8632"/>
<polygon fill="#191970" stroke="#191970" points="1805.0285,-248.7794 1801.5284,-238.7795 1798.0285,-248.7795 1805.0285,-248.7794"/>
</g>
<!-- Node30&#45;&gt;Node16 -->
<g id="edge57" class="edge">
<title>Node30&#45;&gt;Node16</title>
<path fill="none" stroke="#191970" d="M1677.9319,-168.6661C1578.2475,-158.5692 1373.7922,-137.8601 1264.7576,-126.816"/>
<polygon fill="#191970" stroke="#191970" points="1264.8123,-123.3038 1254.5105,-125.7781 1264.1069,-130.2681 1264.8123,-123.3038"/>
</g>
<!-- Node33&#45;&gt;Node12 -->
<g id="edge62" class="edge">
<title>Node33&#45;&gt;Node12</title>
<path fill="none" stroke="#191970" d="M1110.603,-220.1561C1105.203,-193.9504 1089.832,-119.3557 1082.5058,-83.8021"/>
<polygon fill="#191970" stroke="#191970" points="1085.8789,-82.8292 1080.4327,-73.7414 1079.023,-84.242 1085.8789,-82.8292"/>
</g>
<!-- Node33&#45;&gt;Node13 -->
<g id="edge63" class="edge">
<title>Node33&#45;&gt;Node13</title>
<path fill="none" stroke="#191970" d="M1062.3414,-220.4795C1007.3186,-210.5897 919.2778,-194.7654 862.1781,-184.5024"/>
<polygon fill="#191970" stroke="#191970" points="862.703,-181.0407 852.2415,-182.7164 861.4646,-187.9303 862.703,-181.0407"/>
</g>
<!-- Node33&#45;&gt;Node16 -->
<g id="edge64" class="edge">
<title>Node33&#45;&gt;Node16</title>
<path fill="none" stroke="#191970" d="M1119.0751,-220.4982C1132.3772,-202.2079 1162.7608,-160.4304 1179.9935,-136.7354"/>
<polygon fill="#191970" stroke="#191970" points="1182.84,-138.7721 1185.8912,-128.6261 1177.1788,-134.6549 1182.84,-138.7721"/>
</g>
</g>
</svg>
