<?xml version="1.0" encoding="UTF-8" standalone="no"?>
<!DOCTYPE svg PUBLIC "-//W3C//DTD SVG 1.1//EN"
 "http://www.w3.org/Graphics/SVG/1.1/DTD/svg11.dtd">
<!-- Generated by graphviz version 2.40.1 (20161225.0304)
 -->
<!-- Title: osdk&#45;core/api/src/dji_control.cpp Pages: 1 -->
<svg width="2153pt" height="422pt"
 viewBox="0.00 0.00 2152.79 422.00" xmlns="http://www.w3.org/2000/svg" xmlns:xlink="http://www.w3.org/1999/xlink">
<g id="graph0" class="graph" transform="scale(1 1) rotate(0) translate(4 418)">
<title>osdk&#45;core/api/src/dji_control.cpp</title>
<polygon fill="#ffffff" stroke="transparent" points="-4,4 -4,-418 2148.7897,-418 2148.7897,4 -4,4"/>
<!-- Node0 -->
<g id="node1" class="node">
<title>Node0</title>
<g id="a_node1"><a xlink:title="Control API for DJI OSDK library.">
<polygon fill="#bfbfbf" stroke="#000000" points="753.3293,-385.5 753.3293,-413.5 858.2502,-413.5 858.2502,-385.5 753.3293,-385.5"/>
<text text-anchor="start" x="761.3293" y="-401.5" font-family="Helvetica,sans-Serif" font-size="10.00" fill="#000000">osdk&#45;core/api/src/dji</text>
<text text-anchor="middle" x="805.7897" y="-391.5" font-family="Helvetica,sans-Serif" font-size="10.00" fill="#000000">_control.cpp</text>
</a>
</g>
</g>
<!-- Node1 -->
<g id="node2" class="node">
<title>Node1</title>
<g id="a_node2"><a xlink:href="dji__control_8hpp.html" target="_top" xlink:title="Control API for DJI OSDK library.">
<polygon fill="#ffffff" stroke="#000000" points="99.2677,-275.5 99.2677,-293.5 180.3117,-293.5 180.3117,-275.5 99.2677,-275.5"/>
<text text-anchor="middle" x="139.7897" y="-281.5" font-family="Helvetica,sans-Serif" font-size="10.00" fill="#000000">dji_control.hpp</text>
</a>
</g>
</g>
<!-- Node0&#45;&gt;Node1 -->
<g id="edge1" class="edge">
<title>Node0&#45;&gt;Node1</title>
<path fill="none" stroke="#191970" d="M753.2518,-390.4281C628.0727,-368.8131 313.4921,-314.4937 190.3425,-293.2291"/>
<polygon fill="#191970" stroke="#191970" points="190.8685,-289.7682 180.4188,-291.5155 189.6774,-296.6661 190.8685,-289.7682"/>
</g>
<!-- Node14 -->
<g id="node15" class="node">
<title>Node14</title>
<g id="a_node15"><a xlink:href="dji__vehicle_8hpp.html" target="_top" xlink:title="Vehicle API for DJI onboardSDK library.">
<polygon fill="#ffffff" stroke="#000000" points="1103.7111,-330.5 1103.7111,-348.5 1185.8683,-348.5 1185.8683,-330.5 1103.7111,-330.5"/>
<text text-anchor="middle" x="1144.7897" y="-336.5" font-family="Helvetica,sans-Serif" font-size="10.00" fill="#000000">dji_vehicle.hpp</text>
</a>
</g>
</g>
<!-- Node0&#45;&gt;Node14 -->
<g id="edge20" class="edge">
<title>Node0&#45;&gt;Node14</title>
<path fill="none" stroke="#191970" d="M858.3865,-390.1908C922.4232,-378.8569 1029.8637,-359.8409 1093.3652,-348.6017"/>
<polygon fill="#191970" stroke="#191970" points="1094.3101,-351.9889 1103.547,-346.7996 1093.0901,-345.0961 1094.3101,-351.9889"/>
</g>
<!-- Node2 -->
<g id="node3" class="node">
<title>Node2</title>
<g id="a_node3"><a xlink:href="dji__ack_8hpp.html" target="_top" xlink:title="All DJI OSDK ACK parsing.">
<polygon fill="#ffffff" stroke="#000000" points="208.4943,-220.5 208.4943,-238.5 275.0851,-238.5 275.0851,-220.5 208.4943,-220.5"/>
<text text-anchor="middle" x="241.7897" y="-226.5" font-family="Helvetica,sans-Serif" font-size="10.00" fill="#000000">dji_ack.hpp</text>
</a>
</g>
</g>
<!-- Node1&#45;&gt;Node2 -->
<g id="edge2" class="edge">
<title>Node1&#45;&gt;Node2</title>
<path fill="none" stroke="#191970" d="M156.6329,-275.4179C172.8004,-266.7001 197.4435,-253.4122 216.0673,-243.3699"/>
<polygon fill="#191970" stroke="#191970" points="217.7807,-246.4225 224.9215,-238.5956 214.4584,-240.2611 217.7807,-246.4225"/>
</g>
<!-- Node7 -->
<g id="node8" class="node">
<title>Node7</title>
<g id="a_node8"><a xlink:href="dji__type_8hpp.html" target="_top" xlink:title="Data type and Data Structure definitions for use throughout DJI OSDK.">
<polygon fill="#ffffff" stroke="#000000" points="454.8244,-110.5 454.8244,-128.5 524.7551,-128.5 524.7551,-110.5 454.8244,-110.5"/>
<text text-anchor="middle" x="489.7897" y="-116.5" font-family="Helvetica,sans-Serif" font-size="10.00" fill="#000000">dji_type.hpp</text>
</a>
</g>
</g>
<!-- Node1&#45;&gt;Node7 -->
<g id="edge17" class="edge">
<title>Node1&#45;&gt;Node7</title>
<path fill="none" stroke="#191970" d="M99.2264,-278.8657C74.9575,-273.1775 45.9676,-261.7829 30.7897,-239 12.5552,-211.6289 8.7106,-189.376 30.7897,-165 58.2286,-134.7067 333.8401,-123.7927 444.329,-120.615"/>
<polygon fill="#191970" stroke="#191970" points="444.5937,-124.109 454.4921,-120.3312 444.3983,-117.1117 444.5937,-124.109"/>
</g>
<!-- Node12 -->
<g id="node13" class="node">
<title>Node12</title>
<g id="a_node13"><a xlink:title=" ">
<polygon fill="#ffffff" stroke="#bfbfbf" points="1151.5832,-55.5 1151.5832,-73.5 1265.9963,-73.5 1265.9963,-55.5 1151.5832,-55.5"/>
<text text-anchor="middle" x="1208.7897" y="-61.5" font-family="Helvetica,sans-Serif" font-size="10.00" fill="#000000">dji_open_protocol.hpp</text>
</a>
</g>
</g>
<!-- Node1&#45;&gt;Node12 -->
<g id="edge16" class="edge">
<title>Node1&#45;&gt;Node12</title>
<path fill="none" stroke="#191970" d="M101.9783,-275.4339C69.7666,-266.8716 27.101,-253.2491 16.7897,-239 -2.4983,-212.3459 -6.9525,-189.693 14.7897,-165 89.5821,-80.0568 900.0698,-66.9057 1141.3825,-64.8717"/>
<polygon fill="#191970" stroke="#191970" points="1141.4532,-68.3713 1151.4247,-64.7907 1141.3967,-61.3715 1141.4532,-68.3713"/>
</g>
<!-- Node13 -->
<g id="node14" class="node">
<title>Node13</title>
<g id="a_node14"><a xlink:href="dji__vehicle__callback_8hpp.html" target="_top" xlink:title="Type definition for new Vehicle&#45;style callbacks.">
<polygon fill="#ffffff" stroke="#000000" points="1236.8664,-110.5 1236.8664,-128.5 1360.7131,-128.5 1360.7131,-110.5 1236.8664,-110.5"/>
<text text-anchor="middle" x="1298.7897" y="-116.5" font-family="Helvetica,sans-Serif" font-size="10.00" fill="#000000">dji_vehicle_callback.hpp</text>
</a>
</g>
</g>
<!-- Node1&#45;&gt;Node13 -->
<g id="edge18" class="edge">
<title>Node1&#45;&gt;Node13</title>
<path fill="none" stroke="#191970" d="M126.0241,-275.2497C95.9051,-253.9575 29.4942,-200.5823 63.7897,-165 84.0731,-143.9555 965.0848,-125.7628 1226.4415,-120.8212"/>
<polygon fill="#191970" stroke="#191970" points="1226.6489,-124.318 1236.5812,-120.6302 1226.517,-117.3192 1226.6489,-124.318"/>
</g>
<!-- Node3 -->
<g id="node4" class="node">
<title>Node3</title>
<g id="a_node4"><a xlink:href="dji__command_8hpp.html" target="_top" xlink:title="All DJI OSDK OpenProtocol Command IDs.">
<polygon fill="#ffffff" stroke="#000000" points="673.3219,-110.5 673.3219,-128.5 768.2575,-128.5 768.2575,-110.5 673.3219,-110.5"/>
<text text-anchor="middle" x="720.7897" y="-116.5" font-family="Helvetica,sans-Serif" font-size="10.00" fill="#000000">dji_command.hpp</text>
</a>
</g>
</g>
<!-- Node2&#45;&gt;Node3 -->
<g id="edge3" class="edge">
<title>Node2&#45;&gt;Node3</title>
<path fill="none" stroke="#191970" d="M254.5014,-220.4351C275.3711,-206.0565 318.694,-178.2914 359.7897,-165 414.8585,-147.1894 576.056,-131.5636 663.2329,-124.1205"/>
<polygon fill="#191970" stroke="#191970" points="663.5592,-127.6055 673.2287,-123.2753 662.9693,-120.6304 663.5592,-127.6055"/>
</g>
<!-- Node6 -->
<g id="node7" class="node">
<title>Node6</title>
<g id="a_node7"><a xlink:href="dji__mission__type_8hpp.html" target="_top" xlink:title="Mission related data struct for DJI OSDK library.">
<polygon fill="#ffffff" stroke="#000000" points="73.0954,-165.5 73.0954,-183.5 182.4841,-183.5 182.4841,-165.5 73.0954,-165.5"/>
<text text-anchor="middle" x="127.7897" y="-171.5" font-family="Helvetica,sans-Serif" font-size="10.00" fill="#000000">dji_mission_type.hpp</text>
</a>
</g>
</g>
<!-- Node2&#45;&gt;Node6 -->
<g id="edge7" class="edge">
<title>Node2&#45;&gt;Node6</title>
<path fill="none" stroke="#191970" d="M222.9649,-220.4179C204.6479,-211.5807 176.5968,-198.0473 155.6867,-187.9591"/>
<polygon fill="#191970" stroke="#191970" points="157.1699,-184.7887 146.6425,-183.5956 154.1282,-191.0933 157.1699,-184.7887"/>
</g>
<!-- Node2&#45;&gt;Node7 -->
<g id="edge11" class="edge">
<title>Node2&#45;&gt;Node7</title>
<path fill="none" stroke="#191970" d="M236.0186,-220.426C228.1455,-206.7761 216.4546,-180.8715 229.7897,-165 256.6518,-133.0289 377.0405,-123.5187 444.1757,-120.6927"/>
<polygon fill="#191970" stroke="#191970" points="444.6137,-124.1784 454.4708,-120.2941 444.3429,-117.1837 444.6137,-124.1784"/>
</g>
<!-- Node9 -->
<g id="node10" class="node">
<title>Node9</title>
<g id="a_node10"><a xlink:href="dji__version_8hpp.html" target="_top" xlink:title="Drone/SDK Version definition for DJI onboardSDK library.">
<polygon fill="#ffffff" stroke="#000000" points="1097.1569,-165.5 1097.1569,-183.5 1180.4225,-183.5 1180.4225,-165.5 1097.1569,-165.5"/>
<text text-anchor="middle" x="1138.7897" y="-171.5" font-family="Helvetica,sans-Serif" font-size="10.00" fill="#000000">dji_version.hpp</text>
</a>
</g>
</g>
<!-- Node2&#45;&gt;Node9 -->
<g id="edge12" class="edge">
<title>Node2&#45;&gt;Node9</title>
<path fill="none" stroke="#191970" d="M275.1985,-227.713C382.3219,-221.943 726.8564,-203.0743 1011.7897,-184 1036.4686,-182.3479 1063.83,-180.3257 1086.8171,-178.5722"/>
<polygon fill="#191970" stroke="#191970" points="1087.3425,-182.0423 1097.0455,-177.7878 1086.8071,-175.0628 1087.3425,-182.0423"/>
</g>
<!-- Node11 -->
<g id="node12" class="node">
<title>Node11</title>
<g id="a_node12"><a xlink:title=" ">
<polygon fill="#ffffff" stroke="#bfbfbf" points="239.0632,-165.5 239.0632,-183.5 274.5163,-183.5 274.5163,-165.5 239.0632,-165.5"/>
<text text-anchor="middle" x="256.7897" y="-171.5" font-family="Helvetica,sans-Serif" font-size="10.00" fill="#000000">map</text>
</a>
</g>
</g>
<!-- Node2&#45;&gt;Node11 -->
<g id="edge15" class="edge">
<title>Node2&#45;&gt;Node11</title>
<path fill="none" stroke="#191970" d="M244.2667,-220.4179C246.2523,-213.1372 249.1073,-202.669 251.5899,-193.5659"/>
<polygon fill="#191970" stroke="#191970" points="255.0044,-194.348 254.259,-183.7795 248.251,-192.5062 255.0044,-194.348"/>
</g>
<!-- Node4 -->
<g id="node5" class="node">
<title>Node4</title>
<g id="a_node5"><a xlink:href="dji__error_8hpp.html" target="_top" xlink:title="All DJI OSDK OpenProtocol ACK Error Codes.">
<polygon fill="#ffffff" stroke="#000000" points="620.9919,-55.5 620.9919,-73.5 692.5876,-73.5 692.5876,-55.5 620.9919,-55.5"/>
<text text-anchor="middle" x="656.7897" y="-61.5" font-family="Helvetica,sans-Serif" font-size="10.00" fill="#000000">dji_error.hpp</text>
</a>
</g>
</g>
<!-- Node3&#45;&gt;Node4 -->
<g id="edge4" class="edge">
<title>Node3&#45;&gt;Node4</title>
<path fill="none" stroke="#191970" d="M710.2214,-110.4179C700.7364,-102.2667 686.6022,-90.1201 675.2531,-80.3669"/>
<polygon fill="#191970" stroke="#191970" points="677.453,-77.6427 667.5876,-73.7795 672.8907,-82.9516 677.453,-77.6427"/>
</g>
<!-- Node5 -->
<g id="node6" class="node">
<title>Node5</title>
<g id="a_node6"><a xlink:title=" ">
<polygon fill="#ffffff" stroke="#bfbfbf" points="632.6691,-.5 632.6691,-18.5 680.9103,-18.5 680.9103,-.5 632.6691,-.5"/>
<text text-anchor="middle" x="656.7897" y="-6.5" font-family="Helvetica,sans-Serif" font-size="10.00" fill="#000000">stdint.h</text>
</a>
</g>
</g>
<!-- Node3&#45;&gt;Node5 -->
<g id="edge6" class="edge">
<title>Node3&#45;&gt;Node5</title>
<path fill="none" stroke="#191970" d="M719.5144,-110.1692C717.4113,-97.0879 712.3511,-72.8949 701.7897,-55 695.2181,-43.8652 685.322,-33.4513 676.4819,-25.4039"/>
<polygon fill="#191970" stroke="#191970" points="678.6328,-22.6363 668.786,-18.7259 674.045,-27.9234 678.6328,-22.6363"/>
</g>
<!-- Node4&#45;&gt;Node5 -->
<g id="edge5" class="edge">
<title>Node4&#45;&gt;Node5</title>
<path fill="none" stroke="#191970" d="M656.7897,-55.4179C656.7897,-48.2164 656.7897,-37.8962 656.7897,-28.8632"/>
<polygon fill="#191970" stroke="#191970" points="660.2898,-28.7794 656.7897,-18.7795 653.2898,-28.7795 660.2898,-28.7794"/>
</g>
<!-- Node6&#45;&gt;Node7 -->
<g id="edge8" class="edge">
<title>Node6&#45;&gt;Node7</title>
<path fill="none" stroke="#191970" d="M182.7697,-166.1467C254.3009,-155.2787 377.9622,-136.4904 444.4199,-126.3932"/>
<polygon fill="#191970" stroke="#191970" points="445.2173,-129.8123 454.578,-124.8498 444.1657,-122.8917 445.2173,-129.8123"/>
</g>
<!-- Node7&#45;&gt;Node5 -->
<g id="edge10" class="edge">
<title>Node7&#45;&gt;Node5</title>
<path fill="none" stroke="#191970" d="M503.456,-110.4982C532.2027,-91.5633 599.1648,-47.4566 634.3215,-24.2994"/>
<polygon fill="#191970" stroke="#191970" points="636.5087,-27.0499 642.9346,-18.6261 632.6581,-21.204 636.5087,-27.0499"/>
</g>
<!-- Node8 -->
<g id="node9" class="node">
<title>Node8</title>
<g id="a_node9"><a xlink:title=" ">
<polygon fill="#ffffff" stroke="#bfbfbf" points="468.7282,-55.5 468.7282,-73.5 510.8512,-73.5 510.8512,-55.5 468.7282,-55.5"/>
<text text-anchor="middle" x="489.7897" y="-61.5" font-family="Helvetica,sans-Serif" font-size="10.00" fill="#000000">cstdio</text>
</a>
</g>
</g>
<!-- Node7&#45;&gt;Node8 -->
<g id="edge9" class="edge">
<title>Node7&#45;&gt;Node8</title>
<path fill="none" stroke="#191970" d="M489.7897,-110.4179C489.7897,-103.2164 489.7897,-92.8962 489.7897,-83.8632"/>
<polygon fill="#191970" stroke="#191970" points="493.2898,-83.7794 489.7897,-73.7795 486.2898,-83.7795 493.2898,-83.7794"/>
</g>
<!-- Node9&#45;&gt;Node3 -->
<g id="edge13" class="edge">
<title>Node9&#45;&gt;Node3</title>
<path fill="none" stroke="#191970" d="M1096.9274,-167.1962C1092.1638,-166.4252 1087.3748,-165.6767 1082.7897,-165 975.5824,-149.1765 849.989,-134.1811 778.4666,-125.9743"/>
<polygon fill="#191970" stroke="#191970" points="778.648,-122.4723 768.3151,-124.8134 777.8526,-129.427 778.648,-122.4723"/>
</g>
<!-- Node10 -->
<g id="node11" class="node">
<title>Node10</title>
<g id="a_node11"><a xlink:title=" ">
<polygon fill="#ffffff" stroke="#bfbfbf" points="1725.339,-110.5 1725.339,-128.5 1770.2404,-128.5 1770.2404,-110.5 1725.339,-110.5"/>
<text text-anchor="middle" x="1747.7897" y="-116.5" font-family="Helvetica,sans-Serif" font-size="10.00" fill="#000000">cstdint</text>
</a>
</g>
</g>
<!-- Node9&#45;&gt;Node10 -->
<g id="edge14" class="edge">
<title>Node9&#45;&gt;Node10</title>
<path fill="none" stroke="#191970" d="M1180.6488,-170.7196C1295.2384,-160.3708 1612.3339,-131.7333 1715.1485,-122.4479"/>
<polygon fill="#191970" stroke="#191970" points="1715.5959,-125.9218 1725.2405,-121.5365 1714.9662,-118.9502 1715.5959,-125.9218"/>
</g>
<!-- Node13&#45;&gt;Node12 -->
<g id="edge19" class="edge">
<title>Node13&#45;&gt;Node12</title>
<path fill="none" stroke="#191970" d="M1283.9281,-110.4179C1269.9883,-101.8992 1248.9077,-89.0166 1232.6196,-79.0627"/>
<polygon fill="#191970" stroke="#191970" points="1234.0314,-75.8237 1223.6735,-73.5956 1230.3812,-81.7967 1234.0314,-75.8237"/>
</g>
<!-- Node14&#45;&gt;Node1 -->
<g id="edge31" class="edge">
<title>Node14&#45;&gt;Node1</title>
<path fill="none" stroke="#191970" d="M1103.3588,-337.4533C979.6123,-331.3068 601.8953,-312.3025 288.7897,-294 256.1794,-292.0938 219.5674,-289.7621 190.7963,-287.8859"/>
<polygon fill="#191970" stroke="#191970" points="190.7804,-284.3774 180.5731,-287.2168 190.3232,-291.3625 190.7804,-284.3774"/>
</g>
<!-- Node14&#45;&gt;Node3 -->
<g id="edge30" class="edge">
<title>Node14&#45;&gt;Node3</title>
<path fill="none" stroke="#191970" d="M1138.9421,-330.0571C1118.171,-296.8273 1047.2949,-186.1539 1011.7897,-165 973.4005,-142.1278 851.7887,-129.2781 778.4858,-123.4269"/>
<polygon fill="#191970" stroke="#191970" points="778.7183,-119.9345 768.4767,-122.6474 778.1747,-126.9134 778.7183,-119.9345"/>
</g>
<!-- Node14&#45;&gt;Node7 -->
<g id="edge62" class="edge">
<title>Node14&#45;&gt;Node7</title>
<path fill="none" stroke="#191970" d="M1103.431,-338.3702C965.8893,-334.3839 529.2808,-319.8083 471.7897,-294 402.5219,-262.905 315.8552,-226.9249 359.7897,-165 369.9465,-150.6842 411.209,-137.8239 444.5594,-129.458"/>
<polygon fill="#191970" stroke="#191970" points="445.7247,-132.7765 454.6123,-127.0093 444.068,-125.9754 445.7247,-132.7765"/>
</g>
<!-- Node14&#45;&gt;Node9 -->
<g id="edge64" class="edge">
<title>Node14&#45;&gt;Node9</title>
<path fill="none" stroke="#191970" d="M1141.4174,-330.2207C1134.5415,-310.1507 1120.0206,-261.1921 1125.7897,-220 1127.0416,-211.0618 1129.613,-201.4158 1132.141,-193.3156"/>
<polygon fill="#191970" stroke="#191970" points="1135.4886,-194.3405 1135.3246,-183.7469 1128.8466,-192.1306 1135.4886,-194.3405"/>
</g>
<!-- Node14&#45;&gt;Node10 -->
<g id="edge21" class="edge">
<title>Node14&#45;&gt;Node10</title>
<path fill="none" stroke="#191970" d="M1185.8889,-339.079C1363.3352,-337.0642 2056.2534,-327.0947 2087.7897,-294 2185.5962,-191.3606 1883.2248,-138.4875 1780.5997,-123.8135"/>
<polygon fill="#191970" stroke="#191970" points="1780.8696,-120.3173 1770.4812,-122.3986 1779.9002,-127.2498 1780.8696,-120.3173"/>
</g>
<!-- Node14&#45;&gt;Node12 -->
<g id="edge54" class="edge">
<title>Node14&#45;&gt;Node12</title>
<path fill="none" stroke="#191970" d="M1186.0819,-338.6525C1365.2249,-334.8352 2067.936,-318.3577 2107.7897,-294 2135.9885,-276.7655 2144.7897,-262.5484 2144.7897,-229.5 2144.7897,-229.5 2144.7897,-229.5 2144.7897,-174.5 2144.7897,-87.0164 1491.5008,-68.9318 1276.489,-65.3489"/>
<polygon fill="#191970" stroke="#191970" points="1276.3377,-61.8461 1266.2826,-65.1842 1276.2248,-68.8451 1276.3377,-61.8461"/>
</g>
<!-- Node14&#45;&gt;Node13 -->
<g id="edge63" class="edge">
<title>Node14&#45;&gt;Node13</title>
<path fill="none" stroke="#191970" d="M1153.9803,-330.2464C1166.5121,-317.6595 1189.7017,-294.477 1209.7897,-275 1226.4922,-258.8055 1234.5024,-258.0966 1247.7897,-239 1270.2458,-206.726 1285.7655,-163.0017 1293.384,-138.3817"/>
<polygon fill="#191970" stroke="#191970" points="1296.8199,-139.1072 1296.3249,-128.5239 1290.1121,-137.106 1296.8199,-139.1072"/>
</g>
<!-- Node15 -->
<g id="node16" class="node">
<title>Node15</title>
<g id="a_node16"><a xlink:href="dji__broadcast_8hpp.html" target="_top" xlink:title="Broadcast Telemetry API for DJI onboardSDK library.">
<polygon fill="#ffffff" stroke="#000000" points="946.3171,-220.5 946.3171,-238.5 1041.2624,-238.5 1041.2624,-220.5 946.3171,-220.5"/>
<text text-anchor="middle" x="993.7897" y="-226.5" font-family="Helvetica,sans-Serif" font-size="10.00" fill="#000000">dji_broadcast.hpp</text>
</a>
</g>
</g>
<!-- Node14&#45;&gt;Node15 -->
<g id="edge22" class="edge">
<title>Node14&#45;&gt;Node15</title>
<path fill="none" stroke="#191970" d="M1121.7254,-330.4708C1102.7609,-322.4488 1075.7036,-309.5935 1054.7897,-294 1036.3714,-280.2673 1018.7204,-260.6586 1007.1878,-246.6729"/>
<polygon fill="#191970" stroke="#191970" points="1009.8427,-244.3892 1000.8456,-238.7942 1004.3899,-248.7787 1009.8427,-244.3892"/>
</g>
<!-- Node17 -->
<g id="node18" class="node">
<title>Node17</title>
<g id="a_node18"><a xlink:href="dji__camera_8hpp.html" target="_top" xlink:title="Camera/Gimbal API for DJI onboardSDK library.">
<polygon fill="#ffffff" stroke="#000000" points="678.6027,-165.5 678.6027,-183.5 762.9767,-183.5 762.9767,-165.5 678.6027,-165.5"/>
<text text-anchor="middle" x="720.7897" y="-171.5" font-family="Helvetica,sans-Serif" font-size="10.00" fill="#000000">dji_camera.hpp</text>
</a>
</g>
</g>
<!-- Node14&#45;&gt;Node17 -->
<g id="edge26" class="edge">
<title>Node14&#45;&gt;Node17</title>
<path fill="none" stroke="#191970" d="M1103.3936,-336.7198C1019.8115,-330.7327 833.7585,-315.4084 773.7897,-294 730.7073,-278.6199 708.8626,-279.0678 686.7897,-239 677.8875,-222.8402 690.1428,-204.1738 702.3498,-191.0932"/>
<polygon fill="#191970" stroke="#191970" points="705.1232,-193.2718 709.7546,-183.7428 700.1917,-188.3038 705.1232,-193.2718"/>
</g>
<!-- Node18 -->
<g id="node19" class="node">
<title>Node18</title>
<g id="a_node19"><a xlink:title=" ">
<polygon fill="#ffffff" stroke="#bfbfbf" points="1286.9567,-275.5 1286.9567,-293.5 1400.6227,-293.5 1400.6227,-275.5 1286.9567,-275.5"/>
<text text-anchor="middle" x="1343.7897" y="-281.5" font-family="Helvetica,sans-Serif" font-size="10.00" fill="#000000">dji_circular_buffer.hpp</text>
</a>
</g>
</g>
<!-- Node14&#45;&gt;Node18 -->
<g id="edge29" class="edge">
<title>Node14&#45;&gt;Node18</title>
<path fill="none" stroke="#191970" d="M1177.6505,-330.4179C1211.4543,-321.0751 1264.2497,-306.4834 1301.2291,-296.263"/>
<polygon fill="#191970" stroke="#191970" points="1302.5046,-299.5418 1311.2109,-293.5042 1300.6398,-292.7947 1302.5046,-299.5418"/>
</g>
<!-- Node19 -->
<g id="node20" class="node">
<title>Node19</title>
<g id="a_node20"><a xlink:href="dji__gimbal_8hpp.html" target="_top" xlink:title="Gimbal API for OSDK library.">
<polygon fill="#ffffff" stroke="#000000" points="580.5461,-165.5 580.5461,-183.5 661.0334,-183.5 661.0334,-165.5 580.5461,-165.5"/>
<text text-anchor="middle" x="620.7897" y="-171.5" font-family="Helvetica,sans-Serif" font-size="10.00" fill="#000000">dji_gimbal.hpp</text>
</a>
</g>
</g>
<!-- Node14&#45;&gt;Node19 -->
<g id="edge32" class="edge">
<title>Node14&#45;&gt;Node19</title>
<path fill="none" stroke="#191970" d="M1103.4965,-336.9162C1002.7786,-330.3591 750.2755,-312.2918 716.7897,-294 674.3363,-270.8095 643.7696,-220.3012 629.6138,-192.9627"/>
<polygon fill="#191970" stroke="#191970" points="632.5998,-191.108 625.0014,-183.7246 626.3371,-194.2349 632.5998,-191.108"/>
</g>
<!-- Node20 -->
<g id="node21" class="node">
<title>Node20</title>
<g id="a_node21"><a xlink:title=" ">
<polygon fill="#ffffff" stroke="#bfbfbf" points="1418.258,-275.5 1418.258,-293.5 1519.3215,-293.5 1519.3215,-275.5 1418.258,-275.5"/>
<text text-anchor="middle" x="1468.7897" y="-281.5" font-family="Helvetica,sans-Serif" font-size="10.00" fill="#000000">dji_hard_driver.hpp</text>
</a>
</g>
</g>
<!-- Node14&#45;&gt;Node20 -->
<g id="edge35" class="edge">
<title>Node14&#45;&gt;Node20</title>
<path fill="none" stroke="#191970" d="M1186.1536,-332.4783C1242.3452,-322.9397 1343.2099,-305.8176 1408.0144,-294.8168"/>
<polygon fill="#191970" stroke="#191970" points="1408.8199,-298.2302 1418.0931,-293.1059 1407.6483,-291.3289 1408.8199,-298.2302"/>
</g>
<!-- Node21 -->
<g id="node22" class="node">
<title>Node21</title>
<g id="a_node22"><a xlink:href="dji__hardware__sync_8hpp.html" target="_top" xlink:title="Hardware Sync API for DJI OSDK.">
<polygon fill="#ffffff" stroke="#000000" points="368.3688,-165.5 368.3688,-183.5 487.2106,-183.5 487.2106,-165.5 368.3688,-165.5"/>
<text text-anchor="middle" x="427.7897" y="-171.5" font-family="Helvetica,sans-Serif" font-size="10.00" fill="#000000">dji_hardware_sync.hpp</text>
</a>
</g>
</g>
<!-- Node14&#45;&gt;Node21 -->
<g id="edge36" class="edge">
<title>Node14&#45;&gt;Node21</title>
<path fill="none" stroke="#191970" d="M1103.3385,-338.8113C968.6562,-336.2693 549.0922,-325.8474 497.7897,-294 460.8201,-271.0501 441.1376,-220.8268 432.7764,-193.361"/>
<polygon fill="#191970" stroke="#191970" points="436.1416,-192.3986 430.0312,-183.7433 429.4104,-194.3199 436.1416,-192.3986"/>
</g>
<!-- Node22 -->
<g id="node23" class="node">
<title>Node22</title>
<g id="a_node23"><a xlink:href="dji__mfio_8hpp.html" target="_top" xlink:title="MFIO API for DJI OSDK library.">
<polygon fill="#ffffff" stroke="#000000" points="1294.8293,-220.5 1294.8293,-238.5 1364.7502,-238.5 1364.7502,-220.5 1294.8293,-220.5"/>
<text text-anchor="middle" x="1329.7897" y="-226.5" font-family="Helvetica,sans-Serif" font-size="10.00" fill="#000000">dji_mfio.hpp</text>
</a>
</g>
</g>
<!-- Node14&#45;&gt;Node22 -->
<g id="edge38" class="edge">
<title>Node14&#45;&gt;Node22</title>
<path fill="none" stroke="#191970" d="M1158.1578,-330.3819C1177.1339,-317.5534 1213.1018,-293.6589 1244.7897,-275 1263.7194,-263.8536 1285.58,-252.1774 1302.3913,-243.4442"/>
<polygon fill="#191970" stroke="#191970" points="1304.3642,-246.3647 1311.6456,-238.6685 1301.1541,-240.1441 1304.3642,-246.3647"/>
</g>
<!-- Node23 -->
<g id="node24" class="node">
<title>Node23</title>
<g id="a_node24"><a xlink:href="dji__mission__manager_8hpp.html" target="_top" xlink:title="Mission&#45;Manager API for DJI OSDK library.">
<polygon fill="#ffffff" stroke="#000000" points="783.0856,-275.5 783.0856,-293.5 912.4938,-293.5 912.4938,-275.5 783.0856,-275.5"/>
<text text-anchor="middle" x="847.7897" y="-281.5" font-family="Helvetica,sans-Serif" font-size="10.00" fill="#000000">dji_mission_manager.hpp</text>
</a>
</g>
</g>
<!-- Node14&#45;&gt;Node23 -->
<g id="edge40" class="edge">
<title>Node14&#45;&gt;Node23</title>
<path fill="none" stroke="#191970" d="M1103.4931,-331.8525C1052.3702,-322.3853 964.9511,-306.1966 906.774,-295.423"/>
<polygon fill="#191970" stroke="#191970" points="907.0954,-291.9231 896.6253,-293.5436 905.8208,-298.8061 907.0954,-291.9231"/>
</g>
<!-- Node27 -->
<g id="node28" class="node">
<title>Node27</title>
<g id="a_node28"><a xlink:href="dji__mobile__communication_8hpp.html" target="_top" xlink:title="Implementation of DJI Mobile&#45;Onboard SDK Communication (MOC)">
<polygon fill="#ffffff" stroke="#000000" points="1925.1398,-275.5 1925.1398,-293.5 2078.4396,-293.5 2078.4396,-275.5 1925.1398,-275.5"/>
<text text-anchor="middle" x="2001.7897" y="-281.5" font-family="Helvetica,sans-Serif" font-size="10.00" fill="#000000">dji_mobile_communication.hpp</text>
</a>
</g>
</g>
<!-- Node14&#45;&gt;Node27 -->
<g id="edge49" class="edge">
<title>Node14&#45;&gt;Node27</title>
<path fill="none" stroke="#191970" d="M1186.214,-337.8008C1300.4339,-332.9567 1629.7102,-317.9205 1914.7925,-294.0419"/>
<polygon fill="#191970" stroke="#191970" points="1915.244,-297.5164 1924.9147,-293.1888 1914.656,-290.5411 1915.244,-297.5164"/>
</g>
<!-- Node29 -->
<g id="node30" class="node">
<title>Node29</title>
<g id="a_node30"><a xlink:href="dji__mobile__device_8hpp.html" target="_top" xlink:title="Implementation of DJI Mobile Device Abstraction.">
<polygon fill="#ffffff" stroke="#000000" points="1382.3122,-220.5 1382.3122,-238.5 1497.2673,-238.5 1497.2673,-220.5 1382.3122,-220.5"/>
<text text-anchor="middle" x="1439.7897" y="-226.5" font-family="Helvetica,sans-Serif" font-size="10.00" fill="#000000">dji_mobile_device.hpp</text>
</a>
</g>
</g>
<!-- Node14&#45;&gt;Node29 -->
<g id="edge52" class="edge">
<title>Node14&#45;&gt;Node29</title>
<path fill="none" stroke="#191970" d="M1165.238,-330.4562C1185.1875,-321.5277 1216.312,-307.317 1242.7897,-294 1258.6022,-286.0471 1261.3894,-281.6568 1277.7897,-275 1313.5725,-260.476 1355.5973,-248.8193 1387.8762,-240.9415"/>
<polygon fill="#191970" stroke="#191970" points="1389.0842,-244.2512 1397.9936,-238.5177 1387.4533,-237.4438 1389.0842,-244.2512"/>
</g>
<!-- Node30 -->
<g id="node31" class="node">
<title>Node30</title>
<g id="a_node31"><a xlink:title=" ">
<polygon fill="#ffffff" stroke="#bfbfbf" points="1536.9723,-275.5 1536.9723,-293.5 1668.6071,-293.5 1668.6071,-275.5 1536.9723,-275.5"/>
<text text-anchor="middle" x="1602.7897" y="-281.5" font-family="Helvetica,sans-Serif" font-size="10.00" fill="#000000">dji_platform_manager.hpp</text>
</a>
</g>
</g>
<!-- Node14&#45;&gt;Node30 -->
<g id="edge55" class="edge">
<title>Node14&#45;&gt;Node30</title>
<path fill="none" stroke="#191970" d="M1186.0051,-334.7498C1254.5496,-326.8207 1396.5797,-310.2676 1526.5011,-294.2747"/>
<polygon fill="#191970" stroke="#191970" points="1527.1325,-297.7234 1536.6291,-293.026 1526.276,-290.776 1527.1325,-297.7234"/>
</g>
<!-- Node31 -->
<g id="node32" class="node">
<title>Node31</title>
<g id="a_node32"><a xlink:href="dji__status_8hpp.html" target="_top" xlink:title="Status information for DJI Vehicle.">
<polygon fill="#ffffff" stroke="#000000" points="1686.9352,-275.5 1686.9352,-293.5 1764.6442,-293.5 1764.6442,-275.5 1686.9352,-275.5"/>
<text text-anchor="middle" x="1725.7897" y="-281.5" font-family="Helvetica,sans-Serif" font-size="10.00" fill="#000000">dji_status.hpp</text>
</a>
</g>
</g>
<!-- Node14&#45;&gt;Node31 -->
<g id="edge56" class="edge">
<title>Node14&#45;&gt;Node31</title>
<path fill="none" stroke="#191970" d="M1186.0912,-337.5284C1274.3094,-332.9828 1487.8009,-320.2025 1676.7028,-294.0055"/>
<polygon fill="#191970" stroke="#191970" points="1677.4015,-297.4419 1686.8182,-292.5864 1676.4289,-290.5098 1677.4015,-297.4419"/>
</g>
<!-- Node32 -->
<g id="node33" class="node">
<title>Node32</title>
<g id="a_node33"><a xlink:href="dji__subscription_8hpp.html" target="_top" xlink:title="Telemetry Subscription API for DJI OSDK library.">
<polygon fill="#ffffff" stroke="#000000" points="1134.5954,-220.5 1134.5954,-238.5 1238.9841,-238.5 1238.9841,-220.5 1134.5954,-220.5"/>
<text text-anchor="middle" x="1186.7897" y="-226.5" font-family="Helvetica,sans-Serif" font-size="10.00" fill="#000000">dji_subscription.hpp</text>
</a>
</g>
</g>
<!-- Node14&#45;&gt;Node32 -->
<g id="edge57" class="edge">
<title>Node14&#45;&gt;Node32</title>
<path fill="none" stroke="#191970" d="M1148.1486,-330.2919C1152.7367,-317.7564 1161.2548,-294.6322 1168.7897,-275 1172.2141,-266.0777 1176.1049,-256.2104 1179.3909,-247.9516"/>
<polygon fill="#191970" stroke="#191970" points="1182.6899,-249.128 1183.149,-238.5431 1176.1893,-246.5314 1182.6899,-249.128"/>
</g>
<!-- Node33 -->
<g id="node34" class="node">
<title>Node33</title>
<g id="a_node34"><a xlink:title=" ">
<polygon fill="#ffffff" stroke="#bfbfbf" points="1782.8566,-275.5 1782.8566,-293.5 1906.7228,-293.5 1906.7228,-275.5 1782.8566,-275.5"/>
<text text-anchor="middle" x="1844.7897" y="-281.5" font-family="Helvetica,sans-Serif" font-size="10.00" fill="#000000">dji_thread_manager.hpp</text>
</a>
</g>
</g>
<!-- Node14&#45;&gt;Node33 -->
<g id="edge61" class="edge">
<title>Node14&#45;&gt;Node33</title>
<path fill="none" stroke="#191970" d="M1186.0781,-337.3843C1285.2558,-332.1154 1544.9441,-317.2116 1772.3568,-294.0921"/>
<polygon fill="#191970" stroke="#191970" points="1772.8857,-297.5564 1782.477,-293.0556 1772.1724,-290.5928 1772.8857,-297.5564"/>
</g>
<!-- Node34 -->
<g id="node35" class="node">
<title>Node34</title>
<g id="a_node35"><a xlink:href="dji__virtual__rc_8hpp.html" target="_top" xlink:title="Virtual Radio Control API for DJI onboardSDK library.">
<polygon fill="#ffffff" stroke="#000000" points="506.9919,-275.5 506.9919,-293.5 598.5876,-293.5 598.5876,-275.5 506.9919,-275.5"/>
<text text-anchor="middle" x="552.7897" y="-281.5" font-family="Helvetica,sans-Serif" font-size="10.00" fill="#000000">dji_virtual_rc.hpp</text>
</a>
</g>
</g>
<!-- Node14&#45;&gt;Node34 -->
<g id="edge65" class="edge">
<title>Node14&#45;&gt;Node34</title>
<path fill="none" stroke="#191970" d="M1103.4614,-336.8902C1014.1116,-331.0421 796.3576,-315.6799 614.7897,-294 612.8434,-293.7676 610.8643,-293.5209 608.8666,-293.2631"/>
<polygon fill="#191970" stroke="#191970" points="609.169,-289.7722 598.7892,-291.896 608.2279,-296.7086 609.169,-289.7722"/>
</g>
<!-- Node15&#45;&gt;Node13 -->
<g id="edge25" class="edge">
<title>Node15&#45;&gt;Node13</title>
<path fill="none" stroke="#191970" d="M1003.9775,-220.4838C1020.417,-206.4276 1054.3459,-179.4121 1087.7897,-165 1131.9821,-145.956 1184.9301,-134.569 1226.7304,-127.949"/>
<polygon fill="#191970" stroke="#191970" points="1227.4742,-131.3761 1236.8316,-126.4071 1226.4179,-124.4562 1227.4742,-131.3761"/>
</g>
<!-- Node16 -->
<g id="node17" class="node">
<title>Node16</title>
<g id="a_node17"><a xlink:href="dji__telemetry_8hpp.html" target="_top" xlink:title="Enumeration of all telemetry data types, structures and maps.">
<polygon fill="#ffffff" stroke="#000000" points="911.0822,-165.5 911.0822,-183.5 1002.4972,-183.5 1002.4972,-165.5 911.0822,-165.5"/>
<text text-anchor="middle" x="956.7897" y="-171.5" font-family="Helvetica,sans-Serif" font-size="10.00" fill="#000000">dji_telemetry.hpp</text>
</a>
</g>
</g>
<!-- Node15&#45;&gt;Node16 -->
<g id="edge23" class="edge">
<title>Node15&#45;&gt;Node16</title>
<path fill="none" stroke="#191970" d="M987.6799,-220.4179C982.5158,-212.7415 974.968,-201.5217 968.626,-192.0945"/>
<polygon fill="#191970" stroke="#191970" points="971.5181,-190.1231 963.0323,-183.7795 965.71,-194.0303 971.5181,-190.1231"/>
</g>
<!-- Node16&#45;&gt;Node7 -->
<g id="edge24" class="edge">
<title>Node16&#45;&gt;Node7</title>
<path fill="none" stroke="#191970" d="M910.9066,-166.3591C907.8245,-165.8788 904.764,-165.4207 901.7897,-165 768.9171,-146.2055 611.0087,-130.6491 535.0425,-123.5859"/>
<polygon fill="#191970" stroke="#191970" points="535.1581,-120.0818 524.8784,-122.6462 534.5136,-127.0521 535.1581,-120.0818"/>
</g>
<!-- Node17&#45;&gt;Node3 -->
<g id="edge27" class="edge">
<title>Node17&#45;&gt;Node3</title>
<path fill="none" stroke="#191970" d="M720.7897,-165.4179C720.7897,-158.2164 720.7897,-147.8962 720.7897,-138.8632"/>
<polygon fill="#191970" stroke="#191970" points="724.2898,-138.7794 720.7897,-128.7795 717.2898,-138.7795 724.2898,-138.7794"/>
</g>
<!-- Node17&#45;&gt;Node7 -->
<g id="edge28" class="edge">
<title>Node17&#45;&gt;Node7</title>
<path fill="none" stroke="#191970" d="M682.9034,-165.4795C642.3776,-155.8305 578.125,-140.5322 534.988,-130.2615"/>
<polygon fill="#191970" stroke="#191970" points="535.5823,-126.8052 525.0435,-127.8938 533.9609,-133.6149 535.5823,-126.8052"/>
</g>
<!-- Node19&#45;&gt;Node3 -->
<g id="edge33" class="edge">
<title>Node19&#45;&gt;Node3</title>
<path fill="none" stroke="#191970" d="M637.3027,-165.4179C653.0808,-156.7399 677.0926,-143.5334 695.3212,-133.5077"/>
<polygon fill="#191970" stroke="#191970" points="697.1768,-136.4816 704.2522,-128.5956 693.8033,-130.3481 697.1768,-136.4816"/>
</g>
<!-- Node19&#45;&gt;Node7 -->
<g id="edge34" class="edge">
<title>Node19&#45;&gt;Node7</title>
<path fill="none" stroke="#191970" d="M599.1577,-165.4179C577.8248,-156.4613 545.0018,-142.6806 520.8772,-132.552"/>
<polygon fill="#191970" stroke="#191970" points="522.0291,-129.2397 511.4538,-128.5956 519.3193,-135.6939 522.0291,-129.2397"/>
</g>
<!-- Node21&#45;&gt;Node7 -->
<g id="edge37" class="edge">
<title>Node21&#45;&gt;Node7</title>
<path fill="none" stroke="#191970" d="M438.0278,-165.4179C447.1271,-157.3458 460.6434,-145.3556 471.5824,-135.6517"/>
<polygon fill="#191970" stroke="#191970" points="474.1711,-138.0339 479.3292,-128.7795 469.5258,-132.7974 474.1711,-138.0339"/>
</g>
<!-- Node22&#45;&gt;Node13 -->
<g id="edge39" class="edge">
<title>Node22&#45;&gt;Node13</title>
<path fill="none" stroke="#191970" d="M1327.2529,-220.4982C1322.2118,-202.6108 1310.8401,-162.2594 1304.0955,-138.3271"/>
<polygon fill="#191970" stroke="#191970" points="1307.443,-137.3018 1301.3616,-128.6261 1300.7055,-139.2006 1307.443,-137.3018"/>
</g>
<!-- Node24 -->
<g id="node25" class="node">
<title>Node24</title>
<g id="a_node25"><a xlink:href="dji__hotpoint_8hpp.html" target="_top" xlink:title="Implementation of HotPoint (Point of Interest) Missions for DJI OSDK.">
<polygon fill="#ffffff" stroke="#000000" points="804.4821,-220.5 804.4821,-238.5 891.0973,-238.5 891.0973,-220.5 804.4821,-220.5"/>
<text text-anchor="middle" x="847.7897" y="-226.5" font-family="Helvetica,sans-Serif" font-size="10.00" fill="#000000">dji_hotpoint.hpp</text>
</a>
</g>
</g>
<!-- Node23&#45;&gt;Node24 -->
<g id="edge41" class="edge">
<title>Node23&#45;&gt;Node24</title>
<path fill="none" stroke="#191970" d="M847.7897,-275.4179C847.7897,-268.2164 847.7897,-257.8962 847.7897,-248.8632"/>
<polygon fill="#191970" stroke="#191970" points="851.2898,-248.7794 847.7897,-238.7795 844.2898,-248.7795 851.2898,-248.7794"/>
</g>
<!-- Node26 -->
<g id="node27" class="node">
<title>Node26</title>
<g id="a_node27"><a xlink:href="dji__waypoint_8hpp.html" target="_top" xlink:title="Implementation of GPS Waypoint Missions for DJI OSDK.">
<polygon fill="#ffffff" stroke="#000000" points="695.5412,-220.5 695.5412,-238.5 786.0383,-238.5 786.0383,-220.5 695.5412,-220.5"/>
<text text-anchor="middle" x="740.7897" y="-226.5" font-family="Helvetica,sans-Serif" font-size="10.00" fill="#000000">dji_waypoint.hpp</text>
</a>
</g>
</g>
<!-- Node23&#45;&gt;Node26 -->
<g id="edge47" class="edge">
<title>Node23&#45;&gt;Node26</title>
<path fill="none" stroke="#191970" d="M830.1208,-275.4179C813.0834,-266.6603 787.0735,-253.2907 767.5058,-243.2326"/>
<polygon fill="#191970" stroke="#191970" points="768.9788,-240.0544 758.4848,-238.5956 765.7786,-246.2801 768.9788,-240.0544"/>
</g>
<!-- Node24&#45;&gt;Node16 -->
<g id="edge46" class="edge">
<title>Node24&#45;&gt;Node16</title>
<path fill="none" stroke="#191970" d="M865.7889,-220.4179C883.1447,-211.6603 909.6408,-198.2907 929.5743,-188.2326"/>
<polygon fill="#191970" stroke="#191970" points="931.4127,-191.2253 938.7638,-183.5956 928.2593,-184.9758 931.4127,-191.2253"/>
</g>
<!-- Node25 -->
<g id="node26" class="node">
<title>Node25</title>
<g id="a_node26"><a xlink:href="dji__mission__base_8hpp.html" target="_top" xlink:title="Mission&#45;Base abstract class for DJI OSDK library.">
<polygon fill="#ffffff" stroke="#000000" points="780.7038,-165.5 780.7038,-183.5 892.8757,-183.5 892.8757,-165.5 780.7038,-165.5"/>
<text text-anchor="middle" x="836.7897" y="-171.5" font-family="Helvetica,sans-Serif" font-size="10.00" fill="#000000">dji_mission_base.hpp</text>
</a>
</g>
</g>
<!-- Node24&#45;&gt;Node25 -->
<g id="edge42" class="edge">
<title>Node24&#45;&gt;Node25</title>
<path fill="none" stroke="#191970" d="M845.9733,-220.4179C844.533,-213.2164 842.469,-202.8962 840.6624,-193.8632"/>
<polygon fill="#191970" stroke="#191970" points="844.0389,-192.8988 838.6456,-183.7795 837.1748,-194.2717 844.0389,-192.8988"/>
</g>
<!-- Node25&#45;&gt;Node3 -->
<g id="edge43" class="edge">
<title>Node25&#45;&gt;Node3</title>
<path fill="none" stroke="#191970" d="M817.6347,-165.4179C798.9963,-156.5807 770.4531,-143.0473 749.1761,-132.9591"/>
<polygon fill="#191970" stroke="#191970" points="750.5085,-129.7174 739.9732,-128.5956 747.5095,-136.0424 750.5085,-129.7174"/>
</g>
<!-- Node25&#45;&gt;Node7 -->
<g id="edge44" class="edge">
<title>Node25&#45;&gt;Node7</title>
<path fill="none" stroke="#191970" d="M780.6525,-165.6022C712.3339,-154.7736 598.3106,-136.7007 535.2325,-126.7027"/>
<polygon fill="#191970" stroke="#191970" points="535.6128,-123.2194 525.1881,-125.1107 534.5169,-130.1331 535.6128,-123.2194"/>
</g>
<!-- Node25&#45;&gt;Node13 -->
<g id="edge45" class="edge">
<title>Node25&#45;&gt;Node13</title>
<path fill="none" stroke="#191970" d="M893.1451,-166.1543C896.0676,-165.7557 898.9625,-165.3685 901.7897,-165 1015.0292,-150.2393 1146.7835,-135.6487 1226.4228,-127.1125"/>
<polygon fill="#191970" stroke="#191970" points="1227.257,-130.5433 1236.8282,-125.9998 1226.5127,-123.583 1227.257,-130.5433"/>
</g>
<!-- Node26&#45;&gt;Node25 -->
<g id="edge48" class="edge">
<title>Node26&#45;&gt;Node25</title>
<path fill="none" stroke="#191970" d="M756.6422,-220.4179C771.6502,-211.8195 794.4181,-198.7754 811.8569,-188.7844"/>
<polygon fill="#191970" stroke="#191970" points="813.9768,-191.6037 820.9137,-183.5956 810.4969,-185.5299 813.9768,-191.6037"/>
</g>
<!-- Node27&#45;&gt;Node13 -->
<g id="edge51" class="edge">
<title>Node27&#45;&gt;Node13</title>
<path fill="none" stroke="#191970" d="M1963.2434,-275.4529C1843.729,-247.4018 1479.5224,-161.9195 1347.3579,-130.8993"/>
<polygon fill="#191970" stroke="#191970" points="1348.0445,-127.4655 1337.5093,-128.5878 1346.4449,-134.2803 1348.0445,-127.4655"/>
</g>
<!-- Node28 -->
<g id="node29" class="node">
<title>Node28</title>
<g id="a_node29"><a xlink:title=" ">
<polygon fill="#ffffff" stroke="#bfbfbf" points="1959.8835,-220.5 1959.8835,-238.5 2043.696,-238.5 2043.696,-220.5 1959.8835,-220.5"/>
<text text-anchor="middle" x="2001.7897" y="-226.5" font-family="Helvetica,sans-Serif" font-size="10.00" fill="#000000">dji_macros.hpp</text>
</a>
</g>
</g>
<!-- Node27&#45;&gt;Node28 -->
<g id="edge50" class="edge">
<title>Node27&#45;&gt;Node28</title>
<path fill="none" stroke="#191970" d="M2001.7897,-275.4179C2001.7897,-268.2164 2001.7897,-257.8962 2001.7897,-248.8632"/>
<polygon fill="#191970" stroke="#191970" points="2005.2898,-248.7794 2001.7897,-238.7795 1998.2898,-248.7795 2005.2898,-248.7794"/>
</g>
<!-- Node29&#45;&gt;Node13 -->
<g id="edge53" class="edge">
<title>Node29&#45;&gt;Node13</title>
<path fill="none" stroke="#191970" d="M1428.2511,-220.4982C1404.1865,-201.7244 1348.4031,-158.2055 1318.5236,-134.8952"/>
<polygon fill="#191970" stroke="#191970" points="1320.5251,-132.0176 1310.4878,-128.6261 1316.2194,-137.5368 1320.5251,-132.0176"/>
</g>
<!-- Node32&#45;&gt;Node12 -->
<g id="edge58" class="edge">
<title>Node32&#45;&gt;Node12</title>
<path fill="none" stroke="#191970" d="M1188.0356,-220.1561C1191.5297,-193.9504 1201.4756,-119.3557 1206.2161,-83.8021"/>
<polygon fill="#191970" stroke="#191970" points="1209.7051,-84.1163 1207.5575,-73.7414 1202.7665,-83.1911 1209.7051,-84.1163"/>
</g>
<!-- Node32&#45;&gt;Node13 -->
<g id="edge60" class="edge">
<title>Node32&#45;&gt;Node13</title>
<path fill="none" stroke="#191970" d="M1195.9552,-220.4982C1214.8242,-201.9662 1258.2436,-159.3221 1282.1877,-135.8056"/>
<polygon fill="#191970" stroke="#191970" points="1284.8156,-138.1303 1289.4976,-128.6261 1279.9107,-133.1362 1284.8156,-138.1303"/>
</g>
<!-- Node32&#45;&gt;Node16 -->
<g id="edge59" class="edge">
<title>Node32&#45;&gt;Node16</title>
<path fill="none" stroke="#191970" d="M1149.0674,-220.4795C1109.543,-211.0279 1047.3515,-196.1561 1004.4557,-185.8984"/>
<polygon fill="#191970" stroke="#191970" points="1005.0724,-182.4473 994.5326,-183.5255 1003.4444,-189.2553 1005.0724,-182.4473"/>
</g>
<!-- Node34&#45;&gt;Node2 -->
<g id="edge66" class="edge">
<title>Node34&#45;&gt;Node2</title>
<path fill="none" stroke="#191970" d="M506.9006,-276.3846C447.2871,-265.842 343.944,-247.5659 285.4466,-237.2207"/>
<polygon fill="#191970" stroke="#191970" points="285.8707,-233.7414 275.4139,-235.4464 284.6516,-240.6345 285.8707,-233.7414"/>
</g>
<!-- Node34&#45;&gt;Node7 -->
<g id="edge68" class="edge">
<title>Node34&#45;&gt;Node7</title>
<path fill="none" stroke="#191970" d="M549.2221,-275.1561C539.1729,-248.837 510.4877,-173.709 496.9842,-138.3426"/>
<polygon fill="#191970" stroke="#191970" points="500.1551,-136.8351 493.3183,-128.7414 493.6156,-139.3321 500.1551,-136.8351"/>
</g>
<!-- Node34&#45;&gt;Node12 -->
<g id="edge67" class="edge">
<title>Node34&#45;&gt;Node12</title>
<path fill="none" stroke="#191970" d="M551.7841,-275.4757C549.8931,-254.2064 547.9276,-200.0895 571.7897,-165 598.7931,-125.2912 619.04,-124.5923 664.7897,-110 751.7351,-82.268 1015.7349,-70.5108 1141.1913,-66.3876"/>
<polygon fill="#191970" stroke="#191970" points="1141.5543,-69.8778 1151.4365,-66.0578 1141.329,-62.8815 1141.5543,-69.8778"/>
</g>
<!-- Node34&#45;&gt;Node16 -->
<g id="edge69" class="edge">
<title>Node34&#45;&gt;Node16</title>
<path fill="none" stroke="#191970" d="M598.6327,-282.4584C680.6138,-278.1617 848.5576,-266.242 899.7897,-239 919.8949,-228.3093 936.2603,-207.494 946.215,-192.3943"/>
<polygon fill="#191970" stroke="#191970" points="949.2114,-194.2038 951.5608,-183.8728 943.2817,-190.4839 949.2114,-194.2038"/>
</g>
</g>
</svg>
