<?xml version="1.0" encoding="UTF-8" standalone="no"?>
<!DOCTYPE svg PUBLIC "-//W3C//DTD SVG 1.1//EN"
 "http://www.w3.org/Graphics/SVG/1.1/DTD/svg11.dtd">
<!-- Generated by graphviz version 2.40.1 (20161225.0304)
 -->
<!-- Title: osdk&#45;core/api/src/dji_version.cpp Pages: 1 -->
<svg width="294pt" height="257pt"
 viewBox="0.00 0.00 294.00 257.00" xmlns="http://www.w3.org/2000/svg" xmlns:xlink="http://www.w3.org/1999/xlink">
<g id="graph0" class="graph" transform="scale(1 1) rotate(0) translate(4 253)">
<title>osdk&#45;core/api/src/dji_version.cpp</title>
<polygon fill="#ffffff" stroke="transparent" points="-4,4 -4,-253 290.0044,-253 290.0044,4 -4,4"/>
<!-- Node0 -->
<g id="node1" class="node">
<title>Node0</title>
<g id="a_node1"><a xlink:title="Drone/SDK Version definition for DJI onboardSDK library.">
<polygon fill="#bfbfbf" stroke="#000000" points="117.3374,-220.5 117.3374,-248.5 222.2583,-248.5 222.2583,-220.5 117.3374,-220.5"/>
<text text-anchor="start" x="125.3374" y="-236.5" font-family="Helvetica,sans-Serif" font-size="10.00" fill="#000000">osdk&#45;core/api/src/dji</text>
<text text-anchor="middle" x="169.7979" y="-226.5" font-family="Helvetica,sans-Serif" font-size="10.00" fill="#000000">_version.cpp</text>
</a>
</g>
</g>
<!-- Node1 -->
<g id="node2" class="node">
<title>Node1</title>
<g id="a_node2"><a xlink:href="dji__version_8hpp.html" target="_top" xlink:title="Drone/SDK Version definition for DJI onboardSDK library.">
<polygon fill="#ffffff" stroke="#000000" points="70.165,-165.5 70.165,-183.5 153.4307,-183.5 153.4307,-165.5 70.165,-165.5"/>
<text text-anchor="middle" x="111.7979" y="-171.5" font-family="Helvetica,sans-Serif" font-size="10.00" fill="#000000">dji_version.hpp</text>
</a>
</g>
</g>
<!-- Node0&#45;&gt;Node1 -->
<g id="edge1" class="edge">
<title>Node0&#45;&gt;Node1</title>
<path fill="none" stroke="#191970" d="M156.0527,-220.2808C147.5544,-211.4896 136.6129,-200.1708 127.7357,-190.9875"/>
<polygon fill="#191970" stroke="#191970" points="130.046,-188.3415 120.5792,-183.5842 125.013,-193.2067 130.046,-188.3415"/>
</g>
<!-- Node6 -->
<g id="node7" class="node">
<title>Node6</title>
<g id="a_node7"><a xlink:title=" ">
<polygon fill="#ffffff" stroke="#bfbfbf" points="171.5913,-165.5 171.5913,-183.5 286.0044,-183.5 286.0044,-165.5 171.5913,-165.5"/>
<text text-anchor="middle" x="228.7979" y="-171.5" font-family="Helvetica,sans-Serif" font-size="10.00" fill="#000000">dji_open_protocol.hpp</text>
</a>
</g>
</g>
<!-- Node0&#45;&gt;Node6 -->
<g id="edge7" class="edge">
<title>Node0&#45;&gt;Node6</title>
<path fill="none" stroke="#191970" d="M183.78,-220.2808C192.4248,-211.4896 203.5549,-200.1708 212.5852,-190.9875"/>
<polygon fill="#191970" stroke="#191970" points="215.3492,-193.1685 219.8651,-183.5842 210.358,-188.2605 215.3492,-193.1685"/>
</g>
<!-- Node2 -->
<g id="node3" class="node">
<title>Node2</title>
<g id="a_node3"><a xlink:href="dji__command_8hpp.html" target="_top" xlink:title="All DJI OSDK OpenProtocol Command IDs.">
<polygon fill="#ffffff" stroke="#000000" points="20.3301,-110.5 20.3301,-128.5 115.2656,-128.5 115.2656,-110.5 20.3301,-110.5"/>
<text text-anchor="middle" x="67.7979" y="-116.5" font-family="Helvetica,sans-Serif" font-size="10.00" fill="#000000">dji_command.hpp</text>
</a>
</g>
</g>
<!-- Node1&#45;&gt;Node2 -->
<g id="edge2" class="edge">
<title>Node1&#45;&gt;Node2</title>
<path fill="none" stroke="#191970" d="M104.5321,-165.4179C98.3278,-157.6624 89.2298,-146.29 81.6407,-136.8035"/>
<polygon fill="#191970" stroke="#191970" points="84.2015,-134.4017 75.2214,-128.7795 78.7354,-138.7746 84.2015,-134.4017"/>
</g>
<!-- Node5 -->
<g id="node6" class="node">
<title>Node5</title>
<g id="a_node6"><a xlink:title=" ">
<polygon fill="#ffffff" stroke="#bfbfbf" points="133.3472,-110.5 133.3472,-128.5 178.2485,-128.5 178.2485,-110.5 133.3472,-110.5"/>
<text text-anchor="middle" x="155.7979" y="-116.5" font-family="Helvetica,sans-Serif" font-size="10.00" fill="#000000">cstdint</text>
</a>
</g>
</g>
<!-- Node1&#45;&gt;Node5 -->
<g id="edge6" class="edge">
<title>Node1&#45;&gt;Node5</title>
<path fill="none" stroke="#191970" d="M119.0636,-165.4179C125.2679,-157.6624 134.3659,-146.29 141.9551,-136.8035"/>
<polygon fill="#191970" stroke="#191970" points="144.8603,-138.7746 148.3743,-128.7795 139.3943,-134.4017 144.8603,-138.7746"/>
</g>
<!-- Node3 -->
<g id="node4" class="node">
<title>Node3</title>
<g id="a_node4"><a xlink:href="dji__error_8hpp.html" target="_top" xlink:title="All DJI OSDK OpenProtocol ACK Error Codes.">
<polygon fill="#ffffff" stroke="#000000" points="0,-55.5 0,-73.5 71.5957,-73.5 71.5957,-55.5 0,-55.5"/>
<text text-anchor="middle" x="35.7979" y="-61.5" font-family="Helvetica,sans-Serif" font-size="10.00" fill="#000000">dji_error.hpp</text>
</a>
</g>
</g>
<!-- Node2&#45;&gt;Node3 -->
<g id="edge3" class="edge">
<title>Node2&#45;&gt;Node3</title>
<path fill="none" stroke="#191970" d="M62.5137,-110.4179C58.1396,-102.8998 51.7879,-91.9829 46.3752,-82.6799"/>
<polygon fill="#191970" stroke="#191970" points="49.251,-80.6628 41.1968,-73.7795 43.2006,-84.1831 49.251,-80.6628"/>
</g>
<!-- Node4 -->
<g id="node5" class="node">
<title>Node4</title>
<g id="a_node5"><a xlink:title=" ">
<polygon fill="#ffffff" stroke="#bfbfbf" points="43.6772,-.5 43.6772,-18.5 91.9185,-18.5 91.9185,-.5 43.6772,-.5"/>
<text text-anchor="middle" x="67.7979" y="-6.5" font-family="Helvetica,sans-Serif" font-size="10.00" fill="#000000">stdint.h</text>
</a>
</g>
</g>
<!-- Node2&#45;&gt;Node4 -->
<g id="edge5" class="edge">
<title>Node2&#45;&gt;Node4</title>
<path fill="none" stroke="#191970" d="M71.6299,-110.3734C76.3962,-97.9303 83.5864,-74.9103 80.7979,-55 79.546,-46.0618 76.9745,-36.4158 74.4466,-28.3156"/>
<polygon fill="#191970" stroke="#191970" points="77.741,-27.1306 71.263,-18.7469 71.099,-29.3405 77.741,-27.1306"/>
</g>
<!-- Node3&#45;&gt;Node4 -->
<g id="edge4" class="edge">
<title>Node3&#45;&gt;Node4</title>
<path fill="none" stroke="#191970" d="M41.082,-55.4179C45.4561,-47.8998 51.8078,-36.9829 57.2205,-27.6799"/>
<polygon fill="#191970" stroke="#191970" points="60.3951,-29.1831 62.3989,-18.7795 54.3447,-25.6628 60.3951,-29.1831"/>
</g>
</g>
</svg>
