<?xml version="1.0" encoding="UTF-8" standalone="no"?>
<!DOCTYPE svg PUBLIC "-//W3C//DTD SVG 1.1//EN"
 "http://www.w3.org/Graphics/SVG/1.1/DTD/svg11.dtd">
<!-- Generated by graphviz version 2.40.1 (20161225.0304)
 -->
<!-- Title: osdk&#45;core/api/inc/dji_control.hpp Pages: 1 -->
<!--zoomable 312 -->
<svg id="main" version="1.1" xmlns="http://www.w3.org/2000/svg" xmlns:xlink="http://www.w3.org/1999/xlink" xml:space="preserve" onload="init(evt)">
<style type="text/css"><![CDATA[
.edge:hover path { stroke: red; }
.edge:hover polygon { stroke: red; fill: red; }
]]></style>
<script type="text/javascript"><![CDATA[
var edges = document.getElementsByTagName('g');
if (edges && edges.length) {
  for (var i=0;i<edges.length;i++) {
    if (edges[i].id.substr(0,4)=='edge') {
      edges[i].setAttribute('class','edge');
    }
  }
}
]]></script>
        <defs>
                <circle id="rim" cx="0" cy="0" r="7"/>
                <circle id="rim2" cx="0" cy="0" r="3.5"/>
                <g id="zoomPlus">
                        <use xlink:href="#rim" fill="#404040">
                                <set attributeName="fill" to="#808080" begin="zoomplus.mouseover" end="zoomplus.mouseout"/>
                        </use>
                        <path d="M-4,0h8M0,-4v8" fill="none" stroke="white" stroke-width="1.5" pointer-events="none"/>
                </g>
                <g id="zoomMin">
                        <use xlink:href="#rim" fill="#404040">
                                <set attributeName="fill" to="#808080" begin="zoomminus.mouseover" end="zoomminus.mouseout"/>
                        </use>
                        <path d="M-4,0h8" fill="none" stroke="white" stroke-width="1.5" pointer-events="none"/>
                </g>
                <g id="dirArrow">
                        <path fill="none" stroke="white" stroke-width="1.5" d="M0,-3.0v7 M-2.5,-0.5L0,-3.0L2.5,-0.5"/>
                </g>
               <g id="resetDef">
                       <use xlink:href="#rim2" fill="#404040">
                               <set attributeName="fill" to="#808080" begin="reset.mouseover" end="reset.mouseout"/>
                       </use>
               </g>
        </defs>

<script type="text/javascript">
var viewWidth = 567;
var viewHeight = 312;
var sectionId = 'dynsection-0';
</script>
<script xlink:href="svgpan.js"/>
<svg id="graph" class="graph">
<g id="viewport">
<title>osdk&#45;core/api/inc/dji_control.hpp</title>
<polygon fill="#ffffff" stroke="transparent" points="-4,4 -4,-308 562.5562,-308 562.5562,4 -4,4"/>
<!-- Node0 -->
<g id="node1" class="node">
<title>Node0</title>
<g id="a_node1"><a xlink:title="Control API for DJI OSDK library.">
<polygon fill="#bfbfbf" stroke="#000000" points="335.4458,-275.5 335.4458,-303.5 439.8198,-303.5 439.8198,-275.5 335.4458,-275.5"/>
<text text-anchor="start" x="343.4458" y="-291.5" font-family="Helvetica,sans-Serif" font-size="10.00" fill="#000000">osdk&#45;core/api/inc/dji</text>
<text text-anchor="middle" x="387.6328" y="-281.5" font-family="Helvetica,sans-Serif" font-size="10.00" fill="#000000">_control.hpp</text>
</a>
</g>
</g>
<!-- Node1 -->
<g id="node2" class="node">
<title>Node1</title>
<g id="a_node2"><a xlink:href="dji__ack_8hpp.html" target="_top" xlink:title="All DJI OSDK ACK parsing.">
<polygon fill="#ffffff" stroke="#000000" points="169.3374,-220.5 169.3374,-238.5 235.9282,-238.5 235.9282,-220.5 169.3374,-220.5"/>
<text text-anchor="middle" x="202.6328" y="-226.5" font-family="Helvetica,sans-Serif" font-size="10.00" fill="#000000">dji_ack.hpp</text>
</a>
</g>
</g>
<!-- Node0&#45;&gt;Node1 -->
<g id="edge1" class="edge">
<title>Node0&#45;&gt;Node1</title>
<path fill="none" stroke="#191970" d="M344.2585,-275.4327C312.6906,-265.1944 270.369,-251.4685 240.2317,-241.6942"/>
<polygon fill="#191970" stroke="#191970" points="241.1035,-238.2976 230.5115,-238.5417 238.9439,-244.9561 241.1035,-238.2976"/>
</g>
<!-- Node6 -->
<g id="node7" class="node">
<title>Node6</title>
<g id="a_node7"><a xlink:href="dji__type_8hpp.html" target="_top" xlink:title="Data type and Data Structure definitions for use throughout DJI OSDK.">
<polygon fill="#ffffff" stroke="#000000" points="286.6675,-110.5 286.6675,-128.5 356.5981,-128.5 356.5981,-110.5 286.6675,-110.5"/>
<text text-anchor="middle" x="321.6328" y="-116.5" font-family="Helvetica,sans-Serif" font-size="10.00" fill="#000000">dji_type.hpp</text>
</a>
</g>
</g>
<!-- Node0&#45;&gt;Node6 -->
<g id="edge16" class="edge">
<title>Node0&#45;&gt;Node6</title>
<path fill="none" stroke="#191970" d="M382.1192,-275.2983C370.266,-244.7672 342.3526,-172.8692 328.9998,-138.4756"/>
<polygon fill="#191970" stroke="#191970" points="332.0969,-136.782 325.2149,-128.7266 325.5714,-139.3155 332.0969,-136.782"/>
</g>
<!-- Node11 -->
<g id="node12" class="node">
<title>Node11</title>
<g id="a_node12"><a xlink:title=" ">
<polygon fill="#ffffff" stroke="#bfbfbf" points="418.4263,-165.5 418.4263,-183.5 532.8394,-183.5 532.8394,-165.5 418.4263,-165.5"/>
<text text-anchor="middle" x="475.6328" y="-171.5" font-family="Helvetica,sans-Serif" font-size="10.00" fill="#000000">dji_open_protocol.hpp</text>
</a>
</g>
</g>
<!-- Node0&#45;&gt;Node11 -->
<g id="edge15" class="edge">
<title>Node0&#45;&gt;Node11</title>
<path fill="none" stroke="#191970" d="M393.6702,-275.353C400.3021,-260.6912 411.8612,-237.5113 425.6328,-220 434.2746,-209.0115 445.6987,-198.3986 455.4453,-190.1905"/>
<polygon fill="#191970" stroke="#191970" points="457.93,-192.6804 463.4666,-183.6473 453.5053,-187.2562 457.93,-192.6804"/>
</g>
<!-- Node12 -->
<g id="node13" class="node">
<title>Node12</title>
<g id="a_node13"><a xlink:href="dji__vehicle__callback_8hpp.html" target="_top" xlink:title="Type definition for new Vehicle&#45;style callbacks.">
<polygon fill="#ffffff" stroke="#000000" points="434.7095,-220.5 434.7095,-238.5 558.5562,-238.5 558.5562,-220.5 434.7095,-220.5"/>
<text text-anchor="middle" x="496.6328" y="-226.5" font-family="Helvetica,sans-Serif" font-size="10.00" fill="#000000">dji_vehicle_callback.hpp</text>
</a>
</g>
</g>
<!-- Node0&#45;&gt;Node12 -->
<g id="edge17" class="edge">
<title>Node0&#45;&gt;Node12</title>
<path fill="none" stroke="#191970" d="M413.1885,-275.4327C430.6027,-265.8468 453.5711,-253.2037 471.0014,-243.609"/>
<polygon fill="#191970" stroke="#191970" points="472.9721,-246.5195 480.0447,-238.6311 469.5964,-240.3872 472.9721,-246.5195"/>
</g>
<!-- Node2 -->
<g id="node3" class="node">
<title>Node2</title>
<g id="a_node3"><a xlink:href="dji__command_8hpp.html" target="_top" xlink:title="All DJI OSDK OpenProtocol Command IDs.">
<polygon fill="#ffffff" stroke="#000000" points="73.165,-110.5 73.165,-128.5 168.1006,-128.5 168.1006,-110.5 73.165,-110.5"/>
<text text-anchor="middle" x="120.6328" y="-116.5" font-family="Helvetica,sans-Serif" font-size="10.00" fill="#000000">dji_command.hpp</text>
</a>
</g>
</g>
<!-- Node1&#45;&gt;Node2 -->
<g id="edge2" class="edge">
<title>Node1&#45;&gt;Node2</title>
<path fill="none" stroke="#191970" d="M178.3259,-220.445C162.1635,-213.1236 141.9056,-201.1865 130.6328,-184 121.8931,-170.6753 119.7376,-152.5268 119.5699,-138.8747"/>
<polygon fill="#191970" stroke="#191970" points="123.0736,-138.7442 119.7957,-128.6692 116.0753,-138.5893 123.0736,-138.7442"/>
</g>
<!-- Node5 -->
<g id="node6" class="node">
<title>Node5</title>
<g id="a_node6"><a xlink:href="dji__mission__type_8hpp.html" target="_top" xlink:title="Mission related data struct for DJI OSDK library.">
<polygon fill="#ffffff" stroke="#000000" points="192.9385,-165.5 192.9385,-183.5 302.3271,-183.5 302.3271,-165.5 192.9385,-165.5"/>
<text text-anchor="middle" x="247.6328" y="-171.5" font-family="Helvetica,sans-Serif" font-size="10.00" fill="#000000">dji_mission_type.hpp</text>
</a>
</g>
</g>
<!-- Node1&#45;&gt;Node5 -->
<g id="edge6" class="edge">
<title>Node1&#45;&gt;Node5</title>
<path fill="none" stroke="#191970" d="M210.0636,-220.4179C216.409,-212.6624 225.7137,-201.29 233.4754,-191.8035"/>
<polygon fill="#191970" stroke="#191970" points="236.417,-193.7354 240.0405,-183.7795 230.9993,-189.3027 236.417,-193.7354"/>
</g>
<!-- Node1&#45;&gt;Node6 -->
<g id="edge10" class="edge">
<title>Node1&#45;&gt;Node6</title>
<path fill="none" stroke="#191970" d="M235.9965,-224.4567C260.7615,-218.8943 293.295,-207.4057 311.6328,-184 321.5588,-171.3308 323.5489,-152.8656 323.3535,-138.9355"/>
<polygon fill="#191970" stroke="#191970" points="326.8482,-138.7401 322.8381,-128.9335 319.8575,-139.1004 326.8482,-138.7401"/>
</g>
<!-- Node8 -->
<g id="node9" class="node">
<title>Node8</title>
<g id="a_node9"><a xlink:href="dji__version_8hpp.html" target="_top" xlink:title="Drone/SDK Version definition for DJI onboardSDK library.">
<polygon fill="#ffffff" stroke="#000000" points="0,-165.5 0,-183.5 83.2656,-183.5 83.2656,-165.5 0,-165.5"/>
<text text-anchor="middle" x="41.6328" y="-171.5" font-family="Helvetica,sans-Serif" font-size="10.00" fill="#000000">dji_version.hpp</text>
</a>
</g>
</g>
<!-- Node1&#45;&gt;Node8 -->
<g id="edge11" class="edge">
<title>Node1&#45;&gt;Node8</title>
<path fill="none" stroke="#191970" d="M176.0469,-220.4179C149.1657,-211.2348 107.4401,-196.9807 77.6116,-186.7909"/>
<polygon fill="#191970" stroke="#191970" points="78.5851,-183.4249 67.9906,-183.5042 76.3222,-190.0491 78.5851,-183.4249"/>
</g>
<!-- Node10 -->
<g id="node11" class="node">
<title>Node10</title>
<g id="a_node11"><a xlink:title=" ">
<polygon fill="#ffffff" stroke="#bfbfbf" points="139.9063,-165.5 139.9063,-183.5 175.3594,-183.5 175.3594,-165.5 139.9063,-165.5"/>
<text text-anchor="middle" x="157.6328" y="-171.5" font-family="Helvetica,sans-Serif" font-size="10.00" fill="#000000">map</text>
</a>
</g>
</g>
<!-- Node1&#45;&gt;Node10 -->
<g id="edge14" class="edge">
<title>Node1&#45;&gt;Node10</title>
<path fill="none" stroke="#191970" d="M195.202,-220.4179C188.8566,-212.6624 179.5519,-201.29 171.7902,-191.8035"/>
<polygon fill="#191970" stroke="#191970" points="174.2664,-189.3027 165.2251,-183.7795 168.8487,-193.7354 174.2664,-189.3027"/>
</g>
<!-- Node3 -->
<g id="node4" class="node">
<title>Node3</title>
<g id="a_node4"><a xlink:href="dji__error_8hpp.html" target="_top" xlink:title="All DJI OSDK OpenProtocol ACK Error Codes.">
<polygon fill="#ffffff" stroke="#000000" points="148.835,-55.5 148.835,-73.5 220.4307,-73.5 220.4307,-55.5 148.835,-55.5"/>
<text text-anchor="middle" x="184.6328" y="-61.5" font-family="Helvetica,sans-Serif" font-size="10.00" fill="#000000">dji_error.hpp</text>
</a>
</g>
</g>
<!-- Node2&#45;&gt;Node3 -->
<g id="edge3" class="edge">
<title>Node2&#45;&gt;Node3</title>
<path fill="none" stroke="#191970" d="M131.2011,-110.4179C140.6861,-102.2667 154.8203,-90.1201 166.1695,-80.3669"/>
<polygon fill="#191970" stroke="#191970" points="168.5319,-82.9516 173.8349,-73.7795 163.9695,-77.6427 168.5319,-82.9516"/>
</g>
<!-- Node4 -->
<g id="node5" class="node">
<title>Node4</title>
<g id="a_node5"><a xlink:title=" ">
<polygon fill="#ffffff" stroke="#bfbfbf" points="160.5122,-.5 160.5122,-18.5 208.7534,-18.5 208.7534,-.5 160.5122,-.5"/>
<text text-anchor="middle" x="184.6328" y="-6.5" font-family="Helvetica,sans-Serif" font-size="10.00" fill="#000000">stdint.h</text>
</a>
</g>
</g>
<!-- Node2&#45;&gt;Node4 -->
<g id="edge5" class="edge">
<title>Node2&#45;&gt;Node4</title>
<path fill="none" stroke="#191970" d="M121.9082,-110.1692C124.0113,-97.0879 129.0715,-72.8949 139.6328,-55 146.2044,-43.8652 156.1006,-33.4513 164.9406,-25.4039"/>
<polygon fill="#191970" stroke="#191970" points="167.3775,-27.9234 172.6365,-18.7259 162.7897,-22.6363 167.3775,-27.9234"/>
</g>
<!-- Node3&#45;&gt;Node4 -->
<g id="edge4" class="edge">
<title>Node3&#45;&gt;Node4</title>
<path fill="none" stroke="#191970" d="M184.6328,-55.4179C184.6328,-48.2164 184.6328,-37.8962 184.6328,-28.8632"/>
<polygon fill="#191970" stroke="#191970" points="188.1329,-28.7794 184.6328,-18.7795 181.1329,-28.7795 188.1329,-28.7794"/>
</g>
<!-- Node5&#45;&gt;Node6 -->
<g id="edge7" class="edge">
<title>Node5&#45;&gt;Node6</title>
<path fill="none" stroke="#191970" d="M259.8524,-165.4179C271.0997,-157.0584 288.001,-144.4966 301.2843,-134.6239"/>
<polygon fill="#191970" stroke="#191970" points="303.4569,-137.37 309.3951,-128.5956 299.2812,-131.7518 303.4569,-137.37"/>
</g>
<!-- Node6&#45;&gt;Node4 -->
<g id="edge9" class="edge">
<title>Node6&#45;&gt;Node4</title>
<path fill="none" stroke="#191970" d="M310.4215,-110.4982C287.0396,-91.7244 232.8387,-48.2055 203.8068,-24.8952"/>
<polygon fill="#191970" stroke="#191970" points="205.9879,-22.1578 195.999,-18.6261 201.6053,-27.6162 205.9879,-22.1578"/>
</g>
<!-- Node7 -->
<g id="node8" class="node">
<title>Node7</title>
<g id="a_node8"><a xlink:title=" ">
<polygon fill="#ffffff" stroke="#bfbfbf" points="300.5713,-55.5 300.5713,-73.5 342.6943,-73.5 342.6943,-55.5 300.5713,-55.5"/>
<text text-anchor="middle" x="321.6328" y="-61.5" font-family="Helvetica,sans-Serif" font-size="10.00" fill="#000000">cstdio</text>
</a>
</g>
</g>
<!-- Node6&#45;&gt;Node7 -->
<g id="edge8" class="edge">
<title>Node6&#45;&gt;Node7</title>
<path fill="none" stroke="#191970" d="M321.6328,-110.4179C321.6328,-103.2164 321.6328,-92.8962 321.6328,-83.8632"/>
<polygon fill="#191970" stroke="#191970" points="325.1329,-83.7794 321.6328,-73.7795 318.1329,-83.7795 325.1329,-83.7794"/>
</g>
<!-- Node8&#45;&gt;Node2 -->
<g id="edge12" class="edge">
<title>Node8&#45;&gt;Node2</title>
<path fill="none" stroke="#191970" d="M54.6781,-165.4179C66.7997,-156.9788 85.0728,-144.257 99.3135,-134.3426"/>
<polygon fill="#191970" stroke="#191970" points="101.361,-137.1818 107.5682,-128.5956 97.3614,-131.4369 101.361,-137.1818"/>
</g>
<!-- Node9 -->
<g id="node10" class="node">
<title>Node9</title>
<g id="a_node10"><a xlink:title=" ">
<polygon fill="#ffffff" stroke="#bfbfbf" points="10.1821,-110.5 10.1821,-128.5 55.0835,-128.5 55.0835,-110.5 10.1821,-110.5"/>
<text text-anchor="middle" x="32.6328" y="-116.5" font-family="Helvetica,sans-Serif" font-size="10.00" fill="#000000">cstdint</text>
</a>
</g>
</g>
<!-- Node8&#45;&gt;Node9 -->
<g id="edge13" class="edge">
<title>Node8&#45;&gt;Node9</title>
<path fill="none" stroke="#191970" d="M40.1466,-165.4179C38.9682,-158.2164 37.2795,-147.8962 35.8013,-138.8632"/>
<polygon fill="#191970" stroke="#191970" points="39.2203,-138.083 34.1513,-128.7795 32.3122,-139.2134 39.2203,-138.083"/>
</g>
<!-- Node12&#45;&gt;Node11 -->
<g id="edge18" class="edge">
<title>Node12&#45;&gt;Node11</title>
<path fill="none" stroke="#191970" d="M493.1651,-220.4179C490.355,-213.0581 486.3012,-202.441 482.7994,-193.2695"/>
<polygon fill="#191970" stroke="#191970" points="486.0127,-191.8732 479.1759,-183.7795 479.4732,-194.3701 486.0127,-191.8732"/>
</g>
</g>
</svg>
        <g id="navigator" transform="translate(0 0)" fill="#404254">
                <rect fill="#f2f5e9" fill-opacity="0.5" stroke="#606060" stroke-width=".5" x="0" y="0" width="60" height="60"/>
                <use id="zoomplus" xlink:href="#zoomPlus" x="17" y="9" onmousedown="handleZoom(evt,'in')"/>
                <use id="zoomminus" xlink:href="#zoomMin" x="42" y="9" onmousedown="handleZoom(evt,'out')"/>
                <use id="reset" xlink:href="#resetDef" x="30" y="36" onmousedown="handleReset()"/>
                <g id="arrowUp" xlink:href="#dirArrow" transform="translate(30 24)" onmousedown="handlePan(0,-1)">
                  <use xlink:href="#rim" fill="#404040">
                        <set attributeName="fill" to="#808080" begin="arrowUp.mouseover" end="arrowUp.mouseout"/>
                  </use>
                  <path fill="none" stroke="white" stroke-width="1.5" d="M0,-3.0v7 M-2.5,-0.5L0,-3.0L2.5,-0.5"/>
                </g>
                <g id="arrowRight" xlink:href="#dirArrow" transform="rotate(90) translate(36 -43)" onmousedown="handlePan(1,0)">
                  <use xlink:href="#rim" fill="#404040">
                        <set attributeName="fill" to="#808080" begin="arrowRight.mouseover" end="arrowRight.mouseout"/>
                  </use>
                  <path fill="none" stroke="white" stroke-width="1.5" d="M0,-3.0v7 M-2.5,-0.5L0,-3.0L2.5,-0.5"/>
                </g>
                <g id="arrowDown" xlink:href="#dirArrow" transform="rotate(180) translate(-30 -48)" onmousedown="handlePan(0,1)">
                  <use xlink:href="#rim" fill="#404040">
                        <set attributeName="fill" to="#808080" begin="arrowDown.mouseover" end="arrowDown.mouseout"/>
                  </use>
                  <path fill="none" stroke="white" stroke-width="1.5" d="M0,-3.0v7 M-2.5,-0.5L0,-3.0L2.5,-0.5"/>
                </g>
                <g id="arrowLeft" xlink:href="#dirArrow" transform="rotate(270) translate(-36 17)" onmousedown="handlePan(-1,0)">
                  <use xlink:href="#rim" fill="#404040">
                        <set attributeName="fill" to="#808080" begin="arrowLeft.mouseover" end="arrowLeft.mouseout"/>
                  </use>
                  <path fill="none" stroke="white" stroke-width="1.5" d="M0,-3.0v7 M-2.5,-0.5L0,-3.0L2.5,-0.5"/>
                </g>
        </g>
        <svg viewBox="0 0 15 15" width="100%" height="30px" preserveAspectRatio="xMaxYMin meet">
         <g id="arrow_out" transform="scale(0.3 0.3)">
          <a xlink:href="dji__control_8hpp__incl_org.svg" target="_base">
           <rect id="button" ry="5" rx="5" y="6" x="6" height="38" width="38"
                fill="#f2f5e9" fill-opacity="0.5" stroke="#606060" stroke-width="1.0"/>
           <path id="arrow"
             d="M 11.500037,31.436501 C 11.940474,20.09759 22.043105,11.32322 32.158766,21.979434 L 37.068811,17.246167 C 37.068811,17.246167 37.088388,32 37.088388,32 L 22.160133,31.978069 C 22.160133,31.978069 26.997745,27.140456 26.997745,27.140456 C 18.528582,18.264221 13.291696,25.230495 11.500037,31.436501 z"
             style="fill:#404040;"/>
          </a>
         </g>
        </svg>
</svg>
