<?xml version="1.0" encoding="UTF-8" standalone="no"?>
<!DOCTYPE svg PUBLIC "-//W3C//DTD SVG 1.1//EN"
 "http://www.w3.org/Graphics/SVG/1.1/DTD/svg11.dtd">
<!-- Generated by graphviz version 2.40.1 (20161225.0304)
 -->
<!-- Title: osdk&#45;core/api/inc/dji_virtual_rc.hpp Pages: 1 -->
<svg width="453pt" height="312pt"
 viewBox="0.00 0.00 453.48 312.00" xmlns="http://www.w3.org/2000/svg" xmlns:xlink="http://www.w3.org/1999/xlink">
<g id="graph0" class="graph" transform="scale(1 1) rotate(0) translate(4 308)">
<title>osdk&#45;core/api/inc/dji_virtual_rc.hpp</title>
<polygon fill="#ffffff" stroke="transparent" points="-4,4 -4,-308 449.4779,-308 449.4779,4 -4,4"/>
<!-- Node0 -->
<g id="node1" class="node">
<title>Node0</title>
<g id="a_node1"><a xlink:title="Virtual Radio Control API for DJI onboardSDK library.">
<polygon fill="#bfbfbf" stroke="#000000" points="262.4458,-275.5 262.4458,-303.5 366.8198,-303.5 366.8198,-275.5 262.4458,-275.5"/>
<text text-anchor="start" x="270.4458" y="-291.5" font-family="Helvetica,sans-Serif" font-size="10.00" fill="#000000">osdk&#45;core/api/inc/dji</text>
<text text-anchor="middle" x="314.6328" y="-281.5" font-family="Helvetica,sans-Serif" font-size="10.00" fill="#000000">_virtual_rc.hpp</text>
</a>
</g>
</g>
<!-- Node1 -->
<g id="node2" class="node">
<title>Node1</title>
<g id="a_node2"><a xlink:href="dji__ack_8hpp.html" target="_top" xlink:title="All DJI OSDK ACK parsing.">
<polygon fill="#ffffff" stroke="#000000" points="124.3374,-220.5 124.3374,-238.5 190.9282,-238.5 190.9282,-220.5 124.3374,-220.5"/>
<text text-anchor="middle" x="157.6328" y="-226.5" font-family="Helvetica,sans-Serif" font-size="10.00" fill="#000000">dji_ack.hpp</text>
</a>
</g>
</g>
<!-- Node0&#45;&gt;Node1 -->
<g id="edge1" class="edge">
<title>Node0&#45;&gt;Node1</title>
<path fill="none" stroke="#191970" d="M277.8233,-275.4327C251.5792,-265.4031 216.5771,-252.0265 191.1173,-242.2966"/>
<polygon fill="#191970" stroke="#191970" points="192.1163,-238.9316 181.5258,-238.6311 189.6174,-245.4704 192.1163,-238.9316"/>
</g>
<!-- Node6 -->
<g id="node7" class="node">
<title>Node6</title>
<g id="a_node7"><a xlink:href="dji__type_8hpp.html" target="_top" xlink:title="Data type and Data Structure definitions for use throughout DJI OSDK.">
<polygon fill="#ffffff" stroke="#000000" points="251.6675,-110.5 251.6675,-128.5 321.5981,-128.5 321.5981,-110.5 251.6675,-110.5"/>
<text text-anchor="middle" x="286.6328" y="-116.5" font-family="Helvetica,sans-Serif" font-size="10.00" fill="#000000">dji_type.hpp</text>
</a>
</g>
</g>
<!-- Node0&#45;&gt;Node6 -->
<g id="edge16" class="edge">
<title>Node0&#45;&gt;Node6</title>
<path fill="none" stroke="#191970" d="M367.0242,-281.6968C409.3808,-272.7376 459.2947,-254.5834 441.6328,-220 418.3338,-174.3789 363.7687,-146.563 326.0234,-132.0937"/>
<polygon fill="#191970" stroke="#191970" points="326.9352,-128.6998 316.3417,-128.5312 324.5179,-135.2692 326.9352,-128.6998"/>
</g>
<!-- Node11 -->
<g id="node12" class="node">
<title>Node11</title>
<g id="a_node12"><a xlink:title=" ">
<polygon fill="#ffffff" stroke="#bfbfbf" points="318.4263,-220.5 318.4263,-238.5 432.8394,-238.5 432.8394,-220.5 318.4263,-220.5"/>
<text text-anchor="middle" x="375.6328" y="-226.5" font-family="Helvetica,sans-Serif" font-size="10.00" fill="#000000">dji_open_protocol.hpp</text>
</a>
</g>
</g>
<!-- Node0&#45;&gt;Node11 -->
<g id="edge15" class="edge">
<title>Node0&#45;&gt;Node11</title>
<path fill="none" stroke="#191970" d="M329.089,-275.2808C338.117,-266.4008 349.7669,-254.9419 359.1528,-245.7098"/>
<polygon fill="#191970" stroke="#191970" points="361.7223,-248.0919 366.3972,-238.5842 356.8136,-243.1014 361.7223,-248.0919"/>
</g>
<!-- Node12 -->
<g id="node13" class="node">
<title>Node12</title>
<g id="a_node13"><a xlink:href="dji__telemetry_8hpp.html" target="_top" xlink:title="Enumeration of all telemetry data types, structures and maps.">
<polygon fill="#ffffff" stroke="#000000" points="208.9253,-220.5 208.9253,-238.5 300.3403,-238.5 300.3403,-220.5 208.9253,-220.5"/>
<text text-anchor="middle" x="254.6328" y="-226.5" font-family="Helvetica,sans-Serif" font-size="10.00" fill="#000000">dji_telemetry.hpp</text>
</a>
</g>
</g>
<!-- Node0&#45;&gt;Node12 -->
<g id="edge17" class="edge">
<title>Node0&#45;&gt;Node12</title>
<path fill="none" stroke="#191970" d="M300.4137,-275.2808C291.5336,-266.4008 280.0747,-254.9419 270.8426,-245.7098"/>
<polygon fill="#191970" stroke="#191970" points="273.263,-243.1804 263.717,-238.5842 268.3132,-248.1302 273.263,-243.1804"/>
</g>
<!-- Node2 -->
<g id="node3" class="node">
<title>Node2</title>
<g id="a_node3"><a xlink:href="dji__command_8hpp.html" target="_top" xlink:title="All DJI OSDK OpenProtocol Command IDs.">
<polygon fill="#ffffff" stroke="#000000" points="64.165,-110.5 64.165,-128.5 159.1006,-128.5 159.1006,-110.5 64.165,-110.5"/>
<text text-anchor="middle" x="111.6328" y="-116.5" font-family="Helvetica,sans-Serif" font-size="10.00" fill="#000000">dji_command.hpp</text>
</a>
</g>
</g>
<!-- Node1&#45;&gt;Node2 -->
<g id="edge2" class="edge">
<title>Node1&#45;&gt;Node2</title>
<path fill="none" stroke="#191970" d="M151.3412,-220.4506C145.3571,-211.5179 136.4313,-197.3042 130.6328,-184 124.1468,-169.1183 119.1009,-151.3718 115.8443,-138.2642"/>
<polygon fill="#191970" stroke="#191970" points="119.245,-137.4356 113.5374,-128.5096 112.4329,-139.0467 119.245,-137.4356"/>
</g>
<!-- Node5 -->
<g id="node6" class="node">
<title>Node5</title>
<g id="a_node6"><a xlink:href="dji__mission__type_8hpp.html" target="_top" xlink:title="Mission related data struct for DJI OSDK library.">
<polygon fill="#ffffff" stroke="#000000" points="231.9385,-165.5 231.9385,-183.5 341.3271,-183.5 341.3271,-165.5 231.9385,-165.5"/>
<text text-anchor="middle" x="286.6328" y="-171.5" font-family="Helvetica,sans-Serif" font-size="10.00" fill="#000000">dji_mission_type.hpp</text>
</a>
</g>
</g>
<!-- Node1&#45;&gt;Node5 -->
<g id="edge6" class="edge">
<title>Node1&#45;&gt;Node5</title>
<path fill="none" stroke="#191970" d="M178.9345,-220.4179C199.9418,-211.4613 232.2637,-197.6806 256.02,-187.552"/>
<polygon fill="#191970" stroke="#191970" points="257.4733,-190.7372 265.2994,-183.5956 254.7279,-184.2981 257.4733,-190.7372"/>
</g>
<!-- Node1&#45;&gt;Node6 -->
<g id="edge10" class="edge">
<title>Node1&#45;&gt;Node6</title>
<path fill="none" stroke="#191970" d="M166.0295,-220.2612C178.0165,-207.2892 200.9854,-183.2254 222.6328,-165 235.7244,-153.978 251.3656,-142.825 263.9082,-134.3196"/>
<polygon fill="#191970" stroke="#191970" points="266.0446,-137.1016 272.4127,-128.6341 262.1542,-131.2822 266.0446,-137.1016"/>
</g>
<!-- Node8 -->
<g id="node9" class="node">
<title>Node8</title>
<g id="a_node9"><a xlink:href="dji__version_8hpp.html" target="_top" xlink:title="Drone/SDK Version definition for DJI onboardSDK library.">
<polygon fill="#ffffff" stroke="#000000" points="0,-165.5 0,-183.5 83.2656,-183.5 83.2656,-165.5 0,-165.5"/>
<text text-anchor="middle" x="41.6328" y="-171.5" font-family="Helvetica,sans-Serif" font-size="10.00" fill="#000000">dji_version.hpp</text>
</a>
</g>
</g>
<!-- Node1&#45;&gt;Node8 -->
<g id="edge11" class="edge">
<title>Node1&#45;&gt;Node8</title>
<path fill="none" stroke="#191970" d="M138.4778,-220.4179C119.8394,-211.5807 91.2962,-198.0473 70.0192,-187.9591"/>
<polygon fill="#191970" stroke="#191970" points="71.3516,-184.7174 60.8163,-183.5956 68.3526,-191.0424 71.3516,-184.7174"/>
</g>
<!-- Node10 -->
<g id="node11" class="node">
<title>Node10</title>
<g id="a_node11"><a xlink:title=" ">
<polygon fill="#ffffff" stroke="#bfbfbf" points="139.9063,-165.5 139.9063,-183.5 175.3594,-183.5 175.3594,-165.5 139.9063,-165.5"/>
<text text-anchor="middle" x="157.6328" y="-171.5" font-family="Helvetica,sans-Serif" font-size="10.00" fill="#000000">map</text>
</a>
</g>
</g>
<!-- Node1&#45;&gt;Node10 -->
<g id="edge14" class="edge">
<title>Node1&#45;&gt;Node10</title>
<path fill="none" stroke="#191970" d="M157.6328,-220.4179C157.6328,-213.2164 157.6328,-202.8962 157.6328,-193.8632"/>
<polygon fill="#191970" stroke="#191970" points="161.1329,-193.7794 157.6328,-183.7795 154.1329,-193.7795 161.1329,-193.7794"/>
</g>
<!-- Node3 -->
<g id="node4" class="node">
<title>Node3</title>
<g id="a_node4"><a xlink:href="dji__error_8hpp.html" target="_top" xlink:title="All DJI OSDK OpenProtocol ACK Error Codes.">
<polygon fill="#ffffff" stroke="#000000" points="138.835,-55.5 138.835,-73.5 210.4307,-73.5 210.4307,-55.5 138.835,-55.5"/>
<text text-anchor="middle" x="174.6328" y="-61.5" font-family="Helvetica,sans-Serif" font-size="10.00" fill="#000000">dji_error.hpp</text>
</a>
</g>
</g>
<!-- Node2&#45;&gt;Node3 -->
<g id="edge3" class="edge">
<title>Node2&#45;&gt;Node3</title>
<path fill="none" stroke="#191970" d="M122.036,-110.4179C131.3728,-102.2667 145.2861,-90.1201 156.458,-80.3669"/>
<polygon fill="#191970" stroke="#191970" points="158.7722,-82.9927 164.0036,-73.7795 154.1686,-77.7194 158.7722,-82.9927"/>
</g>
<!-- Node4 -->
<g id="node5" class="node">
<title>Node4</title>
<g id="a_node5"><a xlink:title=" ">
<polygon fill="#ffffff" stroke="#bfbfbf" points="150.5122,-.5 150.5122,-18.5 198.7534,-18.5 198.7534,-.5 150.5122,-.5"/>
<text text-anchor="middle" x="174.6328" y="-6.5" font-family="Helvetica,sans-Serif" font-size="10.00" fill="#000000">stdint.h</text>
</a>
</g>
</g>
<!-- Node2&#45;&gt;Node4 -->
<g id="edge5" class="edge">
<title>Node2&#45;&gt;Node4</title>
<path fill="none" stroke="#191970" d="M112.7339,-110.1696C114.5991,-97.0888 119.2427,-72.8964 129.6328,-55 136.1245,-43.8185 146.0134,-33.4003 154.8693,-25.3621"/>
<polygon fill="#191970" stroke="#191970" points="157.3064,-27.882 162.5848,-18.6956 152.7298,-22.5852 157.3064,-27.882"/>
</g>
<!-- Node3&#45;&gt;Node4 -->
<g id="edge4" class="edge">
<title>Node3&#45;&gt;Node4</title>
<path fill="none" stroke="#191970" d="M174.6328,-55.4179C174.6328,-48.2164 174.6328,-37.8962 174.6328,-28.8632"/>
<polygon fill="#191970" stroke="#191970" points="178.1329,-28.7794 174.6328,-18.7795 171.1329,-28.7795 178.1329,-28.7794"/>
</g>
<!-- Node5&#45;&gt;Node6 -->
<g id="edge7" class="edge">
<title>Node5&#45;&gt;Node6</title>
<path fill="none" stroke="#191970" d="M286.6328,-165.4179C286.6328,-158.2164 286.6328,-147.8962 286.6328,-138.8632"/>
<polygon fill="#191970" stroke="#191970" points="290.1329,-138.7794 286.6328,-128.7795 283.1329,-138.7795 290.1329,-138.7794"/>
</g>
<!-- Node6&#45;&gt;Node4 -->
<g id="edge9" class="edge">
<title>Node6&#45;&gt;Node4</title>
<path fill="none" stroke="#191970" d="M277.4674,-110.4982C258.5984,-91.9662 215.1789,-49.3221 191.2348,-25.8056"/>
<polygon fill="#191970" stroke="#191970" points="193.5119,-23.1362 183.9249,-18.6261 188.6069,-28.1303 193.5119,-23.1362"/>
</g>
<!-- Node7 -->
<g id="node8" class="node">
<title>Node7</title>
<g id="a_node8"><a xlink:title=" ">
<polygon fill="#ffffff" stroke="#bfbfbf" points="266.5713,-55.5 266.5713,-73.5 308.6943,-73.5 308.6943,-55.5 266.5713,-55.5"/>
<text text-anchor="middle" x="287.6328" y="-61.5" font-family="Helvetica,sans-Serif" font-size="10.00" fill="#000000">cstdio</text>
</a>
</g>
</g>
<!-- Node6&#45;&gt;Node7 -->
<g id="edge8" class="edge">
<title>Node6&#45;&gt;Node7</title>
<path fill="none" stroke="#191970" d="M286.7979,-110.4179C286.9289,-103.2164 287.1165,-92.8962 287.2808,-83.8632"/>
<polygon fill="#191970" stroke="#191970" points="290.7816,-83.8415 287.4641,-73.7795 283.7828,-83.7141 290.7816,-83.8415"/>
</g>
<!-- Node8&#45;&gt;Node2 -->
<g id="edge12" class="edge">
<title>Node8&#45;&gt;Node2</title>
<path fill="none" stroke="#191970" d="M53.1919,-165.4179C63.6668,-157.1876 79.326,-144.8839 91.7992,-135.0836"/>
<polygon fill="#191970" stroke="#191970" points="94.1218,-137.7098 99.8226,-128.7795 89.797,-132.2056 94.1218,-137.7098"/>
</g>
<!-- Node9 -->
<g id="node10" class="node">
<title>Node9</title>
<g id="a_node10"><a xlink:title=" ">
<polygon fill="#ffffff" stroke="#bfbfbf" points="1.1821,-110.5 1.1821,-128.5 46.0835,-128.5 46.0835,-110.5 1.1821,-110.5"/>
<text text-anchor="middle" x="23.6328" y="-116.5" font-family="Helvetica,sans-Serif" font-size="10.00" fill="#000000">cstdint</text>
</a>
</g>
</g>
<!-- Node8&#45;&gt;Node9 -->
<g id="edge13" class="edge">
<title>Node8&#45;&gt;Node9</title>
<path fill="none" stroke="#191970" d="M38.6605,-165.4179C36.2777,-158.1372 32.8518,-147.669 29.8725,-138.5659"/>
<polygon fill="#191970" stroke="#191970" points="33.1066,-137.1948 26.6697,-128.7795 26.4538,-139.3721 33.1066,-137.1948"/>
</g>
<!-- Node12&#45;&gt;Node6 -->
<g id="edge18" class="edge">
<title>Node12&#45;&gt;Node6</title>
<path fill="none" stroke="#191970" d="M297.1079,-220.456C316.9661,-213.8702 338.7995,-202.7037 350.6328,-184 363.3088,-163.9645 339.0425,-145.223 316.8413,-133.1618"/>
<polygon fill="#191970" stroke="#191970" points="318.38,-130.0175 307.8844,-128.5709 315.1871,-136.2469 318.38,-130.0175"/>
</g>
</g>
</svg>
