<?xml version="1.0" encoding="UTF-8" standalone="no"?>
<!DOCTYPE svg PUBLIC "-//W3C//DTD SVG 1.1//EN"
 "http://www.w3.org/Graphics/SVG/1.1/DTD/svg11.dtd">
<!-- Generated by graphviz version 2.40.1 (20161225.0304)
 -->
<!-- Title: osdk&#45;core/api/src/dji_waypoint.cpp Pages: 1 -->
<!--zoomable 422 -->
<svg id="main" version="1.1" xmlns="http://www.w3.org/2000/svg" xmlns:xlink="http://www.w3.org/1999/xlink" xml:space="preserve" onload="init(evt)">
<style type="text/css"><![CDATA[
.edge:hover path { stroke: red; }
.edge:hover polygon { stroke: red; fill: red; }
]]></style>
<script type="text/javascript"><![CDATA[
var edges = document.getElementsByTagName('g');
if (edges && edges.length) {
  for (var i=0;i<edges.length;i++) {
    if (edges[i].id.substr(0,4)=='edge') {
      edges[i].setAttribute('class','edge');
    }
  }
}
]]></script>
        <defs>
                <circle id="rim" cx="0" cy="0" r="7"/>
                <circle id="rim2" cx="0" cy="0" r="3.5"/>
                <g id="zoomPlus">
                        <use xlink:href="#rim" fill="#404040">
                                <set attributeName="fill" to="#808080" begin="zoomplus.mouseover" end="zoomplus.mouseout"/>
                        </use>
                        <path d="M-4,0h8M0,-4v8" fill="none" stroke="white" stroke-width="1.5" pointer-events="none"/>
                </g>
                <g id="zoomMin">
                        <use xlink:href="#rim" fill="#404040">
                                <set attributeName="fill" to="#808080" begin="zoomminus.mouseover" end="zoomminus.mouseout"/>
                        </use>
                        <path d="M-4,0h8" fill="none" stroke="white" stroke-width="1.5" pointer-events="none"/>
                </g>
                <g id="dirArrow">
                        <path fill="none" stroke="white" stroke-width="1.5" d="M0,-3.0v7 M-2.5,-0.5L0,-3.0L2.5,-0.5"/>
                </g>
               <g id="resetDef">
                       <use xlink:href="#rim2" fill="#404040">
                               <set attributeName="fill" to="#808080" begin="reset.mouseover" end="reset.mouseout"/>
                       </use>
               </g>
        </defs>

<script type="text/javascript">
var viewWidth = 1864;
var viewHeight = 422;
var sectionId = 'dynsection-0';
</script>
<script xlink:href="svgpan.js"/>
<svg id="graph" class="graph">
<g id="viewport">
<title>osdk&#45;core/api/src/dji_waypoint.cpp</title>
<polygon fill="#ffffff" stroke="transparent" points="-4,4 -4,-418 1859.8211,-418 1859.8211,4 -4,4"/>
<!-- Node0 -->
<g id="node1" class="node">
<title>Node0</title>
<g id="a_node1"><a xlink:title="Implementation of GPS Waypoint Missions for DJI OSDK.">
<polygon fill="#bfbfbf" stroke="#000000" points="1442.5396,-385.5 1442.5396,-413.5 1547.4604,-413.5 1547.4604,-385.5 1442.5396,-385.5"/>
<text text-anchor="start" x="1450.5396" y="-401.5" font-family="Helvetica,sans-Serif" font-size="10.00" fill="#000000">osdk&#45;core/api/src/dji</text>
<text text-anchor="middle" x="1495" y="-391.5" font-family="Helvetica,sans-Serif" font-size="10.00" fill="#000000">_waypoint.cpp</text>
</a>
</g>
</g>
<!-- Node1 -->
<g id="node2" class="node">
<title>Node1</title>
<g id="a_node2"><a xlink:href="dji__waypoint_8hpp.html" target="_top" xlink:title="Implementation of GPS Waypoint Missions for DJI OSDK.">
<polygon fill="#ffffff" stroke="#000000" points="1541.7515,-220.5 1541.7515,-238.5 1632.2485,-238.5 1632.2485,-220.5 1541.7515,-220.5"/>
<text text-anchor="middle" x="1587" y="-226.5" font-family="Helvetica,sans-Serif" font-size="10.00" fill="#000000">dji_waypoint.hpp</text>
</a>
</g>
</g>
<!-- Node0&#45;&gt;Node1 -->
<g id="edge1" class="edge">
<title>Node0&#45;&gt;Node1</title>
<path fill="none" stroke="#191970" d="M1507.2296,-385.4586C1523.4986,-366.1108 1552.1603,-329.5929 1569,-294 1575.9142,-279.386 1580.6281,-261.6163 1583.4919,-248.4317"/>
<polygon fill="#191970" stroke="#191970" points="1586.9277,-249.099 1585.47,-238.605 1580.0653,-247.7176 1586.9277,-249.099"/>
</g>
<!-- Node10 -->
<g id="node11" class="node">
<title>Node10</title>
<g id="a_node11"><a xlink:href="dji__mission__manager_8hpp.html" target="_top" xlink:title="Mission&#45;Manager API for DJI OSDK library.">
<polygon fill="#ffffff" stroke="#000000" points="1430.2959,-275.5 1430.2959,-293.5 1559.7041,-293.5 1559.7041,-275.5 1430.2959,-275.5"/>
<text text-anchor="middle" x="1495" y="-281.5" font-family="Helvetica,sans-Serif" font-size="10.00" fill="#000000">dji_mission_manager.hpp</text>
</a>
</g>
</g>
<!-- Node0&#45;&gt;Node10 -->
<g id="edge12" class="edge">
<title>Node0&#45;&gt;Node10</title>
<path fill="none" stroke="#191970" d="M1495,-385.3987C1495,-364.9779 1495,-327.0975 1495,-304.0089"/>
<polygon fill="#191970" stroke="#191970" points="1498.5001,-303.7286 1495,-293.7286 1491.5001,-303.7287 1498.5001,-303.7286"/>
</g>
<!-- Node13 -->
<g id="node14" class="node">
<title>Node13</title>
<g id="a_node14"><a xlink:href="dji__vehicle_8hpp.html" target="_top" xlink:title="Vehicle API for DJI onboardSDK library.">
<polygon fill="#ffffff" stroke="#000000" points="786.9214,-330.5 786.9214,-348.5 869.0786,-348.5 869.0786,-330.5 786.9214,-330.5"/>
<text text-anchor="middle" x="828" y="-336.5" font-family="Helvetica,sans-Serif" font-size="10.00" fill="#000000">dji_vehicle.hpp</text>
</a>
</g>
</g>
<!-- Node0&#45;&gt;Node13 -->
<g id="edge18" class="edge">
<title>Node0&#45;&gt;Node13</title>
<path fill="none" stroke="#191970" d="M1442.3832,-394.7669C1317.1657,-383.5029 1002.7149,-355.2165 879.0711,-344.0941"/>
<polygon fill="#191970" stroke="#191970" points="879.3775,-340.6076 869.1041,-343.1975 878.7503,-347.5795 879.3775,-340.6076"/>
</g>
<!-- Node2 -->
<g id="node3" class="node">
<title>Node2</title>
<g id="a_node3"><a xlink:href="dji__mission__base_8hpp.html" target="_top" xlink:title="Mission&#45;Base abstract class for DJI OSDK library.">
<polygon fill="#ffffff" stroke="#000000" points="1530.9141,-165.5 1530.9141,-183.5 1643.0859,-183.5 1643.0859,-165.5 1530.9141,-165.5"/>
<text text-anchor="middle" x="1587" y="-171.5" font-family="Helvetica,sans-Serif" font-size="10.00" fill="#000000">dji_mission_base.hpp</text>
</a>
</g>
</g>
<!-- Node1&#45;&gt;Node2 -->
<g id="edge2" class="edge">
<title>Node1&#45;&gt;Node2</title>
<path fill="none" stroke="#191970" d="M1587,-220.4179C1587,-213.2164 1587,-202.8962 1587,-193.8632"/>
<polygon fill="#191970" stroke="#191970" points="1590.5001,-193.7794 1587,-183.7795 1583.5001,-193.7795 1590.5001,-193.7794"/>
</g>
<!-- Node3 -->
<g id="node4" class="node">
<title>Node3</title>
<g id="a_node4"><a xlink:href="dji__command_8hpp.html" target="_top" xlink:title="All DJI OSDK OpenProtocol Command IDs.">
<polygon fill="#ffffff" stroke="#000000" points="1539.5322,-110.5 1539.5322,-128.5 1634.4678,-128.5 1634.4678,-110.5 1539.5322,-110.5"/>
<text text-anchor="middle" x="1587" y="-116.5" font-family="Helvetica,sans-Serif" font-size="10.00" fill="#000000">dji_command.hpp</text>
</a>
</g>
</g>
<!-- Node2&#45;&gt;Node3 -->
<g id="edge3" class="edge">
<title>Node2&#45;&gt;Node3</title>
<path fill="none" stroke="#191970" d="M1587,-165.4179C1587,-158.2164 1587,-147.8962 1587,-138.8632"/>
<polygon fill="#191970" stroke="#191970" points="1590.5001,-138.7794 1587,-128.7795 1583.5001,-138.7795 1590.5001,-138.7794"/>
</g>
<!-- Node6 -->
<g id="node7" class="node">
<title>Node6</title>
<g id="a_node7"><a xlink:href="dji__type_8hpp.html" target="_top" xlink:title="Data type and Data Structure definitions for use throughout DJI OSDK.">
<polygon fill="#ffffff" stroke="#000000" points="1293.0347,-110.5 1293.0347,-128.5 1362.9653,-128.5 1362.9653,-110.5 1293.0347,-110.5"/>
<text text-anchor="middle" x="1328" y="-116.5" font-family="Helvetica,sans-Serif" font-size="10.00" fill="#000000">dji_type.hpp</text>
</a>
</g>
</g>
<!-- Node2&#45;&gt;Node6 -->
<g id="edge7" class="edge">
<title>Node2&#45;&gt;Node6</title>
<path fill="none" stroke="#191970" d="M1544.5214,-165.4795C1497.2262,-155.4361 1421.1089,-139.2722 1372.8682,-129.028"/>
<polygon fill="#191970" stroke="#191970" points="1373.5267,-125.5898 1363.0177,-126.9362 1372.0725,-132.4372 1373.5267,-125.5898"/>
</g>
<!-- Node8 -->
<g id="node9" class="node">
<title>Node8</title>
<g id="a_node9"><a xlink:href="dji__vehicle__callback_8hpp.html" target="_top" xlink:title="Type definition for new Vehicle&#45;style callbacks.">
<polygon fill="#ffffff" stroke="#000000" points="369.0767,-110.5 369.0767,-128.5 492.9233,-128.5 492.9233,-110.5 369.0767,-110.5"/>
<text text-anchor="middle" x="431" y="-116.5" font-family="Helvetica,sans-Serif" font-size="10.00" fill="#000000">dji_vehicle_callback.hpp</text>
</a>
</g>
</g>
<!-- Node2&#45;&gt;Node8 -->
<g id="edge10" class="edge">
<title>Node2&#45;&gt;Node8</title>
<path fill="none" stroke="#191970" d="M1530.8764,-166.0273C1527.5387,-165.646 1524.2276,-165.2989 1521,-165 1322.456,-146.6145 713.17,-127.6933 503.0919,-121.5546"/>
<polygon fill="#191970" stroke="#191970" points="503.1929,-118.0561 493.0952,-121.2633 502.989,-125.0532 503.1929,-118.0561"/>
</g>
<!-- Node4 -->
<g id="node5" class="node">
<title>Node4</title>
<g id="a_node5"><a xlink:href="dji__error_8hpp.html" target="_top" xlink:title="All DJI OSDK OpenProtocol ACK Error Codes.">
<polygon fill="#ffffff" stroke="#000000" points="1551.2021,-55.5 1551.2021,-73.5 1622.7979,-73.5 1622.7979,-55.5 1551.2021,-55.5"/>
<text text-anchor="middle" x="1587" y="-61.5" font-family="Helvetica,sans-Serif" font-size="10.00" fill="#000000">dji_error.hpp</text>
</a>
</g>
</g>
<!-- Node3&#45;&gt;Node4 -->
<g id="edge4" class="edge">
<title>Node3&#45;&gt;Node4</title>
<path fill="none" stroke="#191970" d="M1587,-110.4179C1587,-103.2164 1587,-92.8962 1587,-83.8632"/>
<polygon fill="#191970" stroke="#191970" points="1590.5001,-83.7794 1587,-73.7795 1583.5001,-83.7795 1590.5001,-83.7794"/>
</g>
<!-- Node5 -->
<g id="node6" class="node">
<title>Node5</title>
<g id="a_node6"><a xlink:title=" ">
<polygon fill="#ffffff" stroke="#bfbfbf" points="1498.8794,-.5 1498.8794,-18.5 1547.1206,-18.5 1547.1206,-.5 1498.8794,-.5"/>
<text text-anchor="middle" x="1523" y="-6.5" font-family="Helvetica,sans-Serif" font-size="10.00" fill="#000000">stdint.h</text>
</a>
</g>
</g>
<!-- Node3&#45;&gt;Node5 -->
<g id="edge6" class="edge">
<title>Node3&#45;&gt;Node5</title>
<path fill="none" stroke="#191970" d="M1575.0037,-110.2741C1564.8382,-101.857 1550.5833,-88.5434 1542,-74 1533.7489,-60.0196 1528.8555,-42.1952 1526.1066,-28.8283"/>
<polygon fill="#191970" stroke="#191970" points="1529.5199,-28.0365 1524.2753,-18.8308 1522.6345,-29.2978 1529.5199,-28.0365"/>
</g>
<!-- Node4&#45;&gt;Node5 -->
<g id="edge5" class="edge">
<title>Node4&#45;&gt;Node5</title>
<path fill="none" stroke="#191970" d="M1576.4317,-55.4179C1566.9467,-47.2667 1552.8125,-35.1201 1541.4634,-25.3669"/>
<polygon fill="#191970" stroke="#191970" points="1543.6633,-22.6427 1533.7979,-18.7795 1539.1009,-27.9516 1543.6633,-22.6427"/>
</g>
<!-- Node6&#45;&gt;Node5 -->
<g id="edge9" class="edge">
<title>Node6&#45;&gt;Node5</title>
<path fill="none" stroke="#191970" d="M1343.9577,-110.4982C1377.8813,-91.3619 1457.382,-46.5153 1498.0621,-23.5675"/>
<polygon fill="#191970" stroke="#191970" points="1499.8317,-26.5878 1506.8218,-18.6261 1496.3924,-20.491 1499.8317,-26.5878"/>
</g>
<!-- Node7 -->
<g id="node8" class="node">
<title>Node7</title>
<g id="a_node8"><a xlink:title=" ">
<polygon fill="#ffffff" stroke="#bfbfbf" points="1306.9385,-55.5 1306.9385,-73.5 1349.0615,-73.5 1349.0615,-55.5 1306.9385,-55.5"/>
<text text-anchor="middle" x="1328" y="-61.5" font-family="Helvetica,sans-Serif" font-size="10.00" fill="#000000">cstdio</text>
</a>
</g>
</g>
<!-- Node6&#45;&gt;Node7 -->
<g id="edge8" class="edge">
<title>Node6&#45;&gt;Node7</title>
<path fill="none" stroke="#191970" d="M1328,-110.4179C1328,-103.2164 1328,-92.8962 1328,-83.8632"/>
<polygon fill="#191970" stroke="#191970" points="1331.5001,-83.7794 1328,-73.7795 1324.5001,-83.7795 1331.5001,-83.7794"/>
</g>
<!-- Node9 -->
<g id="node10" class="node">
<title>Node9</title>
<g id="a_node10"><a xlink:title=" ">
<polygon fill="#ffffff" stroke="#bfbfbf" points="463.7935,-55.5 463.7935,-73.5 578.2065,-73.5 578.2065,-55.5 463.7935,-55.5"/>
<text text-anchor="middle" x="521" y="-61.5" font-family="Helvetica,sans-Serif" font-size="10.00" fill="#000000">dji_open_protocol.hpp</text>
</a>
</g>
</g>
<!-- Node8&#45;&gt;Node9 -->
<g id="edge11" class="edge">
<title>Node8&#45;&gt;Node9</title>
<path fill="none" stroke="#191970" d="M445.8617,-110.4179C459.8014,-101.8992 480.882,-89.0166 497.1701,-79.0627"/>
<polygon fill="#191970" stroke="#191970" points="499.4085,-81.7967 506.1163,-73.5956 495.7583,-75.8237 499.4085,-81.7967"/>
</g>
<!-- Node10&#45;&gt;Node1 -->
<g id="edge17" class="edge">
<title>Node10&#45;&gt;Node1</title>
<path fill="none" stroke="#191970" d="M1510.1919,-275.4179C1524.5746,-266.8195 1546.3939,-253.7754 1563.1061,-243.7844"/>
<polygon fill="#191970" stroke="#191970" points="1564.9983,-246.731 1571.7855,-238.5956 1561.4064,-240.7228 1564.9983,-246.731"/>
</g>
<!-- Node11 -->
<g id="node12" class="node">
<title>Node11</title>
<g id="a_node12"><a xlink:href="dji__hotpoint_8hpp.html" target="_top" xlink:title="Implementation of HotPoint (Point of Interest) Missions for DJI OSDK.">
<polygon fill="#ffffff" stroke="#000000" points="1436.6924,-220.5 1436.6924,-238.5 1523.3076,-238.5 1523.3076,-220.5 1436.6924,-220.5"/>
<text text-anchor="middle" x="1480" y="-226.5" font-family="Helvetica,sans-Serif" font-size="10.00" fill="#000000">dji_hotpoint.hpp</text>
</a>
</g>
</g>
<!-- Node10&#45;&gt;Node11 -->
<g id="edge13" class="edge">
<title>Node10&#45;&gt;Node11</title>
<path fill="none" stroke="#191970" d="M1492.5231,-275.4179C1490.5374,-268.1372 1487.6824,-257.669 1485.1998,-248.5659"/>
<polygon fill="#191970" stroke="#191970" points="1488.5387,-247.5062 1482.5308,-238.7795 1481.7853,-249.348 1488.5387,-247.5062"/>
</g>
<!-- Node11&#45;&gt;Node2 -->
<g id="edge14" class="edge">
<title>Node11&#45;&gt;Node2</title>
<path fill="none" stroke="#191970" d="M1497.6689,-220.4179C1514.7063,-211.6603 1540.7162,-198.2907 1560.2839,-188.2326"/>
<polygon fill="#191970" stroke="#191970" points="1562.0111,-191.2801 1569.3049,-183.5956 1558.8109,-185.0544 1562.0111,-191.2801"/>
</g>
<!-- Node12 -->
<g id="node13" class="node">
<title>Node12</title>
<g id="a_node13"><a xlink:href="dji__telemetry_8hpp.html" target="_top" xlink:title="Enumeration of all telemetry data types, structures and maps.">
<polygon fill="#ffffff" stroke="#000000" points="850.2925,-165.5 850.2925,-183.5 941.7075,-183.5 941.7075,-165.5 850.2925,-165.5"/>
<text text-anchor="middle" x="896" y="-171.5" font-family="Helvetica,sans-Serif" font-size="10.00" fill="#000000">dji_telemetry.hpp</text>
</a>
</g>
</g>
<!-- Node11&#45;&gt;Node12 -->
<g id="edge15" class="edge">
<title>Node11&#45;&gt;Node12</title>
<path fill="none" stroke="#191970" d="M1436.5787,-227.0781C1347.5028,-221.8278 1137.4974,-208.003 951.8549,-184.1523"/>
<polygon fill="#191970" stroke="#191970" points="952.2815,-180.6784 941.9143,-182.8624 951.3807,-187.6202 952.2815,-180.6784"/>
</g>
<!-- Node12&#45;&gt;Node6 -->
<g id="edge16" class="edge">
<title>Node12&#45;&gt;Node6</title>
<path fill="none" stroke="#191970" d="M941.9292,-166.2449C944.6576,-165.8089 947.3634,-165.3903 950,-165 1069.7224,-147.2767 1211.5561,-131.63 1282.6259,-124.1559"/>
<polygon fill="#191970" stroke="#191970" points="1283.4175,-127.5923 1292.9989,-123.0703 1282.6889,-120.6303 1283.4175,-127.5923"/>
</g>
<!-- Node13&#45;&gt;Node3 -->
<g id="edge27" class="edge">
<title>Node13&#45;&gt;Node3</title>
<path fill="none" stroke="#191970" d="M869.2067,-338.1912C1023.7104,-333.1461 1563.5875,-314.2307 1638,-294 1741.1946,-265.9442 1796.2862,-275.281 1852,-184 1856.3994,-176.7921 1857.4425,-171.4566 1852,-165 1838.7643,-149.2981 1718.5092,-133.6837 1644.618,-125.4559"/>
<polygon fill="#191970" stroke="#191970" points="1644.838,-121.9591 1634.5153,-124.3447 1644.0727,-128.9171 1644.838,-121.9591"/>
</g>
<!-- Node13&#45;&gt;Node6 -->
<g id="edge63" class="edge">
<title>Node13&#45;&gt;Node6</title>
<path fill="none" stroke="#191970" d="M869.4019,-338.9931C986.4015,-337.1345 1313.0885,-328.8433 1345,-294 1384.8548,-250.4836 1354.5983,-172.8046 1337.5624,-137.6596"/>
<polygon fill="#191970" stroke="#191970" points="1340.6082,-135.926 1332.9841,-128.569 1334.3563,-139.0746 1340.6082,-135.926"/>
</g>
<!-- Node13&#45;&gt;Node8 -->
<g id="edge64" class="edge">
<title>Node13&#45;&gt;Node8</title>
<path fill="none" stroke="#191970" d="M786.476,-338.1031C646.2127,-333.2019 195.3362,-315.8944 134,-294 94.3919,-279.8616 76.244,-276.3947 57,-239 27.7533,-182.1681 242.0586,-144.4731 358.7802,-128.3754"/>
<polygon fill="#191970" stroke="#191970" points="359.2915,-131.8382 368.7288,-127.0229 358.3485,-124.902 359.2915,-131.8382"/>
</g>
<!-- Node13&#45;&gt;Node9 -->
<g id="edge55" class="edge">
<title>Node13&#45;&gt;Node9</title>
<path fill="none" stroke="#191970" d="M786.7989,-338.3879C640.305,-334.2409 149.8676,-318.6392 84,-294 39.9138,-277.5086 0,-276.5697 0,-229.5 0,-229.5 0,-229.5 0,-174.5 0,-128.673 312.5719,-87.8436 453.5032,-71.7637"/>
<polygon fill="#191970" stroke="#191970" points="454.2107,-75.206 463.7535,-70.6033 453.4233,-68.2504 454.2107,-75.206"/>
</g>
<!-- Node13&#45;&gt;Node10 -->
<g id="edge49" class="edge">
<title>Node13&#45;&gt;Node10</title>
<path fill="none" stroke="#191970" d="M869.4004,-336.9031C965.5136,-330.7415 1211.1957,-314.229 1416,-294 1417.2759,-293.874 1418.5631,-293.7446 1419.8592,-293.6123"/>
<polygon fill="#191970" stroke="#191970" points="1420.3507,-297.0799 1429.9269,-292.5471 1419.6141,-290.1188 1420.3507,-297.0799"/>
</g>
<!-- Node14 -->
<g id="node15" class="node">
<title>Node14</title>
<g id="a_node15"><a xlink:title=" ">
<polygon fill="#ffffff" stroke="#bfbfbf" points="914.5493,-110.5 914.5493,-128.5 959.4507,-128.5 959.4507,-110.5 914.5493,-110.5"/>
<text text-anchor="middle" x="937" y="-116.5" font-family="Helvetica,sans-Serif" font-size="10.00" fill="#000000">cstdint</text>
</a>
</g>
</g>
<!-- Node13&#45;&gt;Node14 -->
<g id="edge19" class="edge">
<title>Node13&#45;&gt;Node14</title>
<path fill="none" stroke="#191970" d="M825.7025,-330.1197C819.4206,-302.127 804.7388,-217.8576 841,-165 855.5917,-143.7299 882.8907,-132.1204 904.6584,-125.9642"/>
<polygon fill="#191970" stroke="#191970" points="905.6973,-129.311 914.5119,-123.4329 903.9556,-122.5311 905.6973,-129.311"/>
</g>
<!-- Node15 -->
<g id="node16" class="node">
<title>Node15</title>
<g id="a_node16"><a xlink:href="dji__broadcast_8hpp.html" target="_top" xlink:title="Broadcast Telemetry API for DJI onboardSDK library.">
<polygon fill="#ffffff" stroke="#000000" points="661.5273,-220.5 661.5273,-238.5 756.4727,-238.5 756.4727,-220.5 661.5273,-220.5"/>
<text text-anchor="middle" x="709" y="-226.5" font-family="Helvetica,sans-Serif" font-size="10.00" fill="#000000">dji_broadcast.hpp</text>
</a>
</g>
</g>
<!-- Node13&#45;&gt;Node15 -->
<g id="edge20" class="edge">
<title>Node13&#45;&gt;Node15</title>
<path fill="none" stroke="#191970" d="M786.6758,-334.7044C739.7302,-328.3066 667.4778,-315.2494 651,-294 636.8691,-275.7772 660.3939,-256.2775 681.583,-243.5482"/>
<polygon fill="#191970" stroke="#191970" points="683.4425,-246.5171 690.4045,-238.5307 679.9817,-240.4325 683.4425,-246.5171"/>
</g>
<!-- Node16 -->
<g id="node17" class="node">
<title>Node16</title>
<g id="a_node17"><a xlink:href="dji__camera_8hpp.html" target="_top" xlink:title="Camera/Gimbal API for DJI onboardSDK library.">
<polygon fill="#ffffff" stroke="#000000" points="1758.813,-165.5 1758.813,-183.5 1843.187,-183.5 1843.187,-165.5 1758.813,-165.5"/>
<text text-anchor="middle" x="1801" y="-171.5" font-family="Helvetica,sans-Serif" font-size="10.00" fill="#000000">dji_camera.hpp</text>
</a>
</g>
</g>
<!-- Node13&#45;&gt;Node16 -->
<g id="edge23" class="edge">
<title>Node13&#45;&gt;Node16</title>
<path fill="none" stroke="#191970" d="M869.0983,-338.2167C1018.8239,-333.3856 1530.005,-315.4702 1600,-294 1673.3948,-271.4869 1748.0341,-217.0291 1782.0317,-190.1044"/>
<polygon fill="#191970" stroke="#191970" points="1784.5387,-192.58 1790.1425,-183.5884 1780.1546,-187.1229 1784.5387,-192.58"/>
</g>
<!-- Node17 -->
<g id="node18" class="node">
<title>Node17</title>
<g id="a_node18"><a xlink:title=" ">
<polygon fill="#ffffff" stroke="#bfbfbf" points="391.167,-275.5 391.167,-293.5 504.833,-293.5 504.833,-275.5 391.167,-275.5"/>
<text text-anchor="middle" x="448" y="-281.5" font-family="Helvetica,sans-Serif" font-size="10.00" fill="#000000">dji_circular_buffer.hpp</text>
</a>
</g>
</g>
<!-- Node13&#45;&gt;Node17 -->
<g id="edge26" class="edge">
<title>Node13&#45;&gt;Node17</title>
<path fill="none" stroke="#191970" d="M786.719,-333.5597C728.4094,-325.164 618.3093,-309.2931 515.0398,-294.2949"/>
<polygon fill="#191970" stroke="#191970" points="515.4686,-290.8205 505.0693,-292.8464 514.4622,-297.7478 515.4686,-290.8205"/>
</g>
<!-- Node18 -->
<g id="node19" class="node">
<title>Node18</title>
<g id="a_node19"><a xlink:href="dji__control_8hpp.html" target="_top" xlink:title="Control API for DJI OSDK library.">
<polygon fill="#ffffff" stroke="#000000" points="522.478,-275.5 522.478,-293.5 603.522,-293.5 603.522,-275.5 522.478,-275.5"/>
<text text-anchor="middle" x="563" y="-281.5" font-family="Helvetica,sans-Serif" font-size="10.00" fill="#000000">dji_control.hpp</text>
</a>
</g>
</g>
<!-- Node13&#45;&gt;Node18 -->
<g id="edge28" class="edge">
<title>Node13&#45;&gt;Node18</title>
<path fill="none" stroke="#191970" d="M786.8845,-330.9666C740.2338,-321.2844 664.1157,-305.4863 613.7919,-295.0417"/>
<polygon fill="#191970" stroke="#191970" points="614.2789,-291.5683 603.7763,-292.963 612.8563,-298.4222 614.2789,-291.5683"/>
</g>
<!-- Node21 -->
<g id="node22" class="node">
<title>Node21</title>
<g id="a_node22"><a xlink:href="dji__version_8hpp.html" target="_top" xlink:title="Drone/SDK Version definition for DJI onboardSDK library.">
<polygon fill="#ffffff" stroke="#000000" points="959.3672,-165.5 959.3672,-183.5 1042.6328,-183.5 1042.6328,-165.5 959.3672,-165.5"/>
<text text-anchor="middle" x="1001" y="-171.5" font-family="Helvetica,sans-Serif" font-size="10.00" fill="#000000">dji_version.hpp</text>
</a>
</g>
</g>
<!-- Node13&#45;&gt;Node21 -->
<g id="edge65" class="edge">
<title>Node13&#45;&gt;Node21</title>
<path fill="none" stroke="#191970" d="M828.7136,-330.279C830.1606,-316.8984 834.4592,-291.8599 847,-275 878.4368,-232.736 933.3181,-203.2053 968.3671,-187.5498"/>
<polygon fill="#191970" stroke="#191970" points="969.9111,-190.6952 977.6908,-183.503 967.124,-184.2739 969.9111,-190.6952"/>
</g>
<!-- Node23 -->
<g id="node24" class="node">
<title>Node23</title>
<g id="a_node24"><a xlink:href="dji__gimbal_8hpp.html" target="_top" xlink:title="Gimbal API for OSDK library.">
<polygon fill="#ffffff" stroke="#000000" points="1660.7563,-165.5 1660.7563,-183.5 1741.2437,-183.5 1741.2437,-165.5 1660.7563,-165.5"/>
<text text-anchor="middle" x="1701" y="-171.5" font-family="Helvetica,sans-Serif" font-size="10.00" fill="#000000">dji_gimbal.hpp</text>
</a>
</g>
</g>
<!-- Node13&#45;&gt;Node23 -->
<g id="edge41" class="edge">
<title>Node13&#45;&gt;Node23</title>
<path fill="none" stroke="#191970" d="M869.2851,-338.3689C1015.4911,-334.1706 1503.4071,-318.4521 1569,-294 1622.8689,-273.9184 1668.1338,-219.9469 1688.8659,-191.9238"/>
<polygon fill="#191970" stroke="#191970" points="1691.9279,-193.6612 1694.9333,-183.5015 1686.2482,-189.5695 1691.9279,-193.6612"/>
</g>
<!-- Node24 -->
<g id="node25" class="node">
<title>Node24</title>
<g id="a_node25"><a xlink:title=" ">
<polygon fill="#ffffff" stroke="#bfbfbf" points="660.4683,-275.5 660.4683,-293.5 761.5317,-293.5 761.5317,-275.5 660.4683,-275.5"/>
<text text-anchor="middle" x="711" y="-281.5" font-family="Helvetica,sans-Serif" font-size="10.00" fill="#000000">dji_hard_driver.hpp</text>
</a>
</g>
</g>
<!-- Node13&#45;&gt;Node24 -->
<g id="edge44" class="edge">
<title>Node13&#45;&gt;Node24</title>
<path fill="none" stroke="#191970" d="M808.6798,-330.4179C789.8807,-321.5807 761.0915,-308.0473 739.6311,-297.9591"/>
<polygon fill="#191970" stroke="#191970" points="740.8878,-294.6824 730.3489,-293.5956 737.9098,-301.0174 740.8878,-294.6824"/>
</g>
<!-- Node25 -->
<g id="node26" class="node">
<title>Node25</title>
<g id="a_node26"><a xlink:href="dji__hardware__sync_8hpp.html" target="_top" xlink:title="Hardware Sync API for DJI OSDK.">
<polygon fill="#ffffff" stroke="#000000" points="1393.5791,-165.5 1393.5791,-183.5 1512.4209,-183.5 1512.4209,-165.5 1393.5791,-165.5"/>
<text text-anchor="middle" x="1453" y="-171.5" font-family="Helvetica,sans-Serif" font-size="10.00" fill="#000000">dji_hardware_sync.hpp</text>
</a>
</g>
</g>
<!-- Node13&#45;&gt;Node25 -->
<g id="edge45" class="edge">
<title>Node13&#45;&gt;Node25</title>
<path fill="none" stroke="#191970" d="M869.4341,-338.1966C990.0025,-334.11 1334.8697,-320.232 1378,-294 1388.0043,-287.9154 1424.9081,-224.2477 1442.9446,-192.4149"/>
<polygon fill="#191970" stroke="#191970" points="1446.0203,-194.0861 1447.8857,-183.6568 1439.9236,-190.6465 1446.0203,-194.0861"/>
</g>
<!-- Node26 -->
<g id="node27" class="node">
<title>Node26</title>
<g id="a_node27"><a xlink:href="dji__mfio_8hpp.html" target="_top" xlink:title="MFIO API for DJI OSDK library.">
<polygon fill="#ffffff" stroke="#000000" points="66.0396,-220.5 66.0396,-238.5 135.9604,-238.5 135.9604,-220.5 66.0396,-220.5"/>
<text text-anchor="middle" x="101" y="-226.5" font-family="Helvetica,sans-Serif" font-size="10.00" fill="#000000">dji_mfio.hpp</text>
</a>
</g>
</g>
<!-- Node13&#45;&gt;Node26 -->
<g id="edge47" class="edge">
<title>Node13&#45;&gt;Node26</title>
<path fill="none" stroke="#191970" d="M786.6289,-338.3971C650.1029,-334.5202 219.3619,-320.3097 163,-294 141.3209,-283.8802 123.2843,-262.5877 112.3552,-247.231"/>
<polygon fill="#191970" stroke="#191970" points="115.0067,-244.9046 106.4998,-238.5893 109.2117,-248.8312 115.0067,-244.9046"/>
</g>
<!-- Node27 -->
<g id="node28" class="node">
<title>Node27</title>
<g id="a_node28"><a xlink:href="dji__mobile__communication_8hpp.html" target="_top" xlink:title="Implementation of DJI Mobile&#45;Onboard SDK Communication (MOC)">
<polygon fill="#ffffff" stroke="#000000" points="181.3501,-275.5 181.3501,-293.5 334.6499,-293.5 334.6499,-275.5 181.3501,-275.5"/>
<text text-anchor="middle" x="258" y="-281.5" font-family="Helvetica,sans-Serif" font-size="10.00" fill="#000000">dji_mobile_communication.hpp</text>
</a>
</g>
</g>
<!-- Node13&#45;&gt;Node27 -->
<g id="edge50" class="edge">
<title>Node13&#45;&gt;Node27</title>
<path fill="none" stroke="#191970" d="M786.661,-335.7039C703.6732,-328.0544 510.8802,-310.1379 349,-294 347.7108,-293.8715 346.4114,-293.7415 345.1037,-293.6103"/>
<polygon fill="#191970" stroke="#191970" points="345.2503,-290.1074 334.949,-292.584 344.5464,-297.0719 345.2503,-290.1074"/>
</g>
<!-- Node29 -->
<g id="node30" class="node">
<title>Node29</title>
<g id="a_node30"><a xlink:href="dji__mobile__device_8hpp.html" target="_top" xlink:title="Implementation of DJI Mobile Device Abstraction.">
<polygon fill="#ffffff" stroke="#000000" points="153.5225,-220.5 153.5225,-238.5 268.4775,-238.5 268.4775,-220.5 153.5225,-220.5"/>
<text text-anchor="middle" x="211" y="-226.5" font-family="Helvetica,sans-Serif" font-size="10.00" fill="#000000">dji_mobile_device.hpp</text>
</a>
</g>
</g>
<!-- Node13&#45;&gt;Node29 -->
<g id="edge53" class="edge">
<title>Node13&#45;&gt;Node29</title>
<path fill="none" stroke="#191970" d="M786.4982,-338.1653C645.5869,-333.435 193.0282,-316.5372 172,-294 158.3163,-279.3343 175.0008,-259.1072 190.5929,-245.2363"/>
<polygon fill="#191970" stroke="#191970" points="193.0648,-247.7313 198.4804,-238.6252 188.5681,-242.3666 193.0648,-247.7313"/>
</g>
<!-- Node30 -->
<g id="node31" class="node">
<title>Node30</title>
<g id="a_node31"><a xlink:title=" ">
<polygon fill="#ffffff" stroke="#bfbfbf" points="856.1826,-275.5 856.1826,-293.5 987.8174,-293.5 987.8174,-275.5 856.1826,-275.5"/>
<text text-anchor="middle" x="922" y="-281.5" font-family="Helvetica,sans-Serif" font-size="10.00" fill="#000000">dji_platform_manager.hpp</text>
</a>
</g>
</g>
<!-- Node13&#45;&gt;Node30 -->
<g id="edge56" class="edge">
<title>Node13&#45;&gt;Node30</title>
<path fill="none" stroke="#191970" d="M843.5222,-330.4179C858.2175,-321.8195 880.5112,-308.7754 897.5866,-298.7844"/>
<polygon fill="#191970" stroke="#191970" points="899.5912,-301.6667 906.4548,-293.5956 896.0561,-295.6249 899.5912,-301.6667"/>
</g>
<!-- Node31 -->
<g id="node32" class="node">
<title>Node31</title>
<g id="a_node32"><a xlink:href="dji__status_8hpp.html" target="_top" xlink:title="Status information for DJI Vehicle.">
<polygon fill="#ffffff" stroke="#000000" points="1006.1455,-275.5 1006.1455,-293.5 1083.8545,-293.5 1083.8545,-275.5 1006.1455,-275.5"/>
<text text-anchor="middle" x="1045" y="-281.5" font-family="Helvetica,sans-Serif" font-size="10.00" fill="#000000">dji_status.hpp</text>
</a>
</g>
</g>
<!-- Node13&#45;&gt;Node31 -->
<g id="edge57" class="edge">
<title>Node13&#45;&gt;Node31</title>
<path fill="none" stroke="#191970" d="M863.8331,-330.4179C901.0096,-320.9953 959.2511,-306.2336 999.6198,-296.0019"/>
<polygon fill="#191970" stroke="#191970" points="1000.6407,-299.3539 1009.4743,-293.5042 998.9209,-292.5684 1000.6407,-299.3539"/>
</g>
<!-- Node32 -->
<g id="node33" class="node">
<title>Node32</title>
<g id="a_node33"><a xlink:href="dji__subscription_8hpp.html" target="_top" xlink:title="Telemetry Subscription API for DJI OSDK library.">
<polygon fill="#ffffff" stroke="#000000" points="463.8057,-220.5 463.8057,-238.5 568.1943,-238.5 568.1943,-220.5 463.8057,-220.5"/>
<text text-anchor="middle" x="516" y="-226.5" font-family="Helvetica,sans-Serif" font-size="10.00" fill="#000000">dji_subscription.hpp</text>
</a>
</g>
</g>
<!-- Node13&#45;&gt;Node32 -->
<g id="edge58" class="edge">
<title>Node13&#45;&gt;Node32</title>
<path fill="none" stroke="#191970" d="M786.6799,-338.3752C681.2896,-335.0822 408.8667,-323.747 382,-294 355.8271,-265.0211 407.3499,-247.7705 453.9,-238.5048"/>
<polygon fill="#191970" stroke="#191970" points="454.5519,-241.9437 463.728,-236.6475 453.252,-235.0654 454.5519,-241.9437"/>
</g>
<!-- Node33 -->
<g id="node34" class="node">
<title>Node33</title>
<g id="a_node34"><a xlink:title=" ">
<polygon fill="#ffffff" stroke="#bfbfbf" points="1102.0669,-275.5 1102.0669,-293.5 1225.9331,-293.5 1225.9331,-275.5 1102.0669,-275.5"/>
<text text-anchor="middle" x="1164" y="-281.5" font-family="Helvetica,sans-Serif" font-size="10.00" fill="#000000">dji_thread_manager.hpp</text>
</a>
</g>
</g>
<!-- Node13&#45;&gt;Node33 -->
<g id="edge62" class="edge">
<title>Node13&#45;&gt;Node33</title>
<path fill="none" stroke="#191970" d="M869.2002,-332.7559C926.4552,-323.3838 1030.6858,-306.3223 1098.6226,-295.2017"/>
<polygon fill="#191970" stroke="#191970" points="1099.4837,-298.6074 1108.787,-293.5378 1098.3529,-291.6993 1099.4837,-298.6074"/>
</g>
<!-- Node34 -->
<g id="node35" class="node">
<title>Node34</title>
<g id="a_node35"><a xlink:href="dji__virtual__rc_8hpp.html" target="_top" xlink:title="Virtual Radio Control API for DJI onboardSDK library.">
<polygon fill="#ffffff" stroke="#000000" points="1244.2021,-275.5 1244.2021,-293.5 1335.7979,-293.5 1335.7979,-275.5 1244.2021,-275.5"/>
<text text-anchor="middle" x="1290" y="-281.5" font-family="Helvetica,sans-Serif" font-size="10.00" fill="#000000">dji_virtual_rc.hpp</text>
</a>
</g>
</g>
<!-- Node13&#45;&gt;Node34 -->
<g id="edge66" class="edge">
<title>Node13&#45;&gt;Node34</title>
<path fill="none" stroke="#191970" d="M869.1192,-335.7224C940.9593,-328.9443 1094.2037,-313.6962 1234.0703,-294.0577"/>
<polygon fill="#191970" stroke="#191970" points="1234.7053,-297.5028 1244.1162,-292.6362 1233.7245,-290.5719 1234.7053,-297.5028"/>
</g>
<!-- Node15&#45;&gt;Node8 -->
<g id="edge22" class="edge">
<title>Node15&#45;&gt;Node8</title>
<path fill="none" stroke="#191970" d="M686.2501,-220.4982C637.0727,-201.0396 520.7115,-154.9974 463.6699,-132.4269"/>
<polygon fill="#191970" stroke="#191970" points="464.6506,-129.051 454.0643,-128.6261 462.075,-135.56 464.6506,-129.051"/>
</g>
<!-- Node15&#45;&gt;Node12 -->
<g id="edge21" class="edge">
<title>Node15&#45;&gt;Node12</title>
<path fill="none" stroke="#191970" d="M739.8792,-220.4179C771.5088,-211.115 820.8327,-196.608 855.5595,-186.3943"/>
<polygon fill="#191970" stroke="#191970" points="856.7796,-189.6837 865.3857,-183.5042 854.8044,-182.9682 856.7796,-189.6837"/>
</g>
<!-- Node16&#45;&gt;Node3 -->
<g id="edge24" class="edge">
<title>Node16&#45;&gt;Node3</title>
<path fill="none" stroke="#191970" d="M1765.6623,-165.4179C1728.9998,-155.9953 1671.5635,-141.2336 1631.7528,-131.0019"/>
<polygon fill="#191970" stroke="#191970" points="1632.5911,-127.6036 1622.0346,-128.5042 1630.8486,-134.3833 1632.5911,-127.6036"/>
</g>
<!-- Node16&#45;&gt;Node6 -->
<g id="edge25" class="edge">
<title>Node16&#45;&gt;Node6</title>
<path fill="none" stroke="#191970" d="M1758.7409,-166.3698C1755.787,-165.8811 1752.8515,-165.4187 1750,-165 1613.5218,-144.9614 1450.9947,-129.8997 1373.4891,-123.251"/>
<polygon fill="#191970" stroke="#191970" points="1373.3894,-119.7299 1363.1285,-122.369 1372.7956,-126.7047 1373.3894,-119.7299"/>
</g>
<!-- Node18&#45;&gt;Node6 -->
<g id="edge39" class="edge">
<title>Node18&#45;&gt;Node6</title>
<path fill="none" stroke="#191970" d="M573.3282,-275.2875C589.3266,-261.4568 621.5458,-235.3191 653,-220 731.2687,-181.8808 755.4906,-181.3463 841,-165 1001.6976,-134.2805 1196.3571,-124.0284 1282.8359,-120.836"/>
<polygon fill="#191970" stroke="#191970" points="1282.9669,-124.3336 1292.8363,-120.4807 1282.7183,-117.338 1282.9669,-124.3336"/>
</g>
<!-- Node18&#45;&gt;Node8 -->
<g id="edge40" class="edge">
<title>Node18&#45;&gt;Node8</title>
<path fill="none" stroke="#191970" d="M522.429,-277.1677C499.3257,-270.8943 471.7368,-259.481 455,-239 431.4387,-210.1678 428.9283,-164.5138 429.6617,-138.7844"/>
<polygon fill="#191970" stroke="#191970" points="433.1578,-138.9467 430.1426,-128.79 426.1659,-138.6102 433.1578,-138.9467"/>
</g>
<!-- Node18&#45;&gt;Node9 -->
<g id="edge38" class="edge">
<title>Node18&#45;&gt;Node9</title>
<path fill="none" stroke="#191970" d="M567.2632,-275.3606C572.5505,-262.9031 580.4683,-239.8668 577,-220 567.9904,-168.3919 543.3477,-111.3024 529.9536,-82.8004"/>
<polygon fill="#191970" stroke="#191970" points="533.0515,-81.1657 525.5776,-73.6563 526.7372,-84.1874 533.0515,-81.1657"/>
</g>
<!-- Node19 -->
<g id="node20" class="node">
<title>Node19</title>
<g id="a_node20"><a xlink:href="dji__ack_8hpp.html" target="_top" xlink:title="All DJI OSDK ACK parsing.">
<polygon fill="#ffffff" stroke="#000000" points="1090.7046,-220.5 1090.7046,-238.5 1157.2954,-238.5 1157.2954,-220.5 1090.7046,-220.5"/>
<text text-anchor="middle" x="1124" y="-226.5" font-family="Helvetica,sans-Serif" font-size="10.00" fill="#000000">dji_ack.hpp</text>
</a>
</g>
</g>
<!-- Node18&#45;&gt;Node19 -->
<g id="edge29" class="edge">
<title>Node18&#45;&gt;Node19</title>
<path fill="none" stroke="#191970" d="M603.7348,-280.0026C618.6055,-278.3871 635.56,-276.576 651,-275 808.9993,-258.8728 996.8574,-241.2699 1080.3127,-233.5312"/>
<polygon fill="#191970" stroke="#191970" points="1080.8028,-237.0009 1090.4373,-232.5933 1080.1571,-230.0307 1080.8028,-237.0009"/>
</g>
<!-- Node19&#45;&gt;Node3 -->
<g id="edge30" class="edge">
<title>Node19&#45;&gt;Node3</title>
<path fill="none" stroke="#191970" d="M1157.3189,-221.0314C1206.884,-208.4868 1303.0059,-184.3637 1385,-165 1436.1201,-152.9275 1494.6919,-139.8133 1535.555,-130.7795"/>
<polygon fill="#191970" stroke="#191970" points="1536.5367,-134.1472 1545.5471,-128.5738 1535.0277,-127.3117 1536.5367,-134.1472"/>
</g>
<!-- Node19&#45;&gt;Node6 -->
<g id="edge33" class="edge">
<title>Node19&#45;&gt;Node6</title>
<path fill="none" stroke="#191970" d="M1123.9947,-220.1271C1124.517,-206.0867 1127.6403,-179.679 1143,-165 1162.8265,-146.0521 1234.5963,-132.5597 1282.6941,-125.4057"/>
<polygon fill="#191970" stroke="#191970" points="1283.4736,-128.8295 1292.8694,-123.9337 1282.4713,-121.9016 1283.4736,-128.8295"/>
</g>
<!-- Node20 -->
<g id="node21" class="node">
<title>Node20</title>
<g id="a_node21"><a xlink:href="dji__mission__type_8hpp.html" target="_top" xlink:title="Mission related data struct for DJI OSDK library.">
<polygon fill="#ffffff" stroke="#000000" points="1152.3057,-165.5 1152.3057,-183.5 1261.6943,-183.5 1261.6943,-165.5 1152.3057,-165.5"/>
<text text-anchor="middle" x="1207" y="-171.5" font-family="Helvetica,sans-Serif" font-size="10.00" fill="#000000">dji_mission_type.hpp</text>
</a>
</g>
</g>
<!-- Node19&#45;&gt;Node20 -->
<g id="edge31" class="edge">
<title>Node19&#45;&gt;Node20</title>
<path fill="none" stroke="#191970" d="M1137.7058,-220.4179C1150.4411,-211.9788 1169.6395,-199.257 1184.6012,-189.3426"/>
<polygon fill="#191970" stroke="#191970" points="1186.8713,-192.037 1193.2739,-183.5956 1183.0046,-186.2019 1186.8713,-192.037"/>
</g>
<!-- Node19&#45;&gt;Node21 -->
<g id="edge34" class="edge">
<title>Node19&#45;&gt;Node21</title>
<path fill="none" stroke="#191970" d="M1103.6891,-220.4179C1083.7479,-211.5011 1053.1141,-197.803 1030.4915,-187.6873"/>
<polygon fill="#191970" stroke="#191970" points="1031.8988,-184.4826 1021.3411,-183.5956 1029.0413,-190.8728 1031.8988,-184.4826"/>
</g>
<!-- Node22 -->
<g id="node23" class="node">
<title>Node22</title>
<g id="a_node23"><a xlink:title=" ">
<polygon fill="#ffffff" stroke="#bfbfbf" points="1060.2734,-165.5 1060.2734,-183.5 1095.7266,-183.5 1095.7266,-165.5 1060.2734,-165.5"/>
<text text-anchor="middle" x="1078" y="-171.5" font-family="Helvetica,sans-Serif" font-size="10.00" fill="#000000">map</text>
</a>
</g>
</g>
<!-- Node19&#45;&gt;Node22 -->
<g id="edge37" class="edge">
<title>Node19&#45;&gt;Node22</title>
<path fill="none" stroke="#191970" d="M1116.404,-220.4179C1109.8515,-212.5833 1100.2118,-201.0575 1092.2296,-191.5137"/>
<polygon fill="#191970" stroke="#191970" points="1094.8614,-189.2048 1085.761,-183.7795 1089.4918,-193.6957 1094.8614,-189.2048"/>
</g>
<!-- Node20&#45;&gt;Node6 -->
<g id="edge32" class="edge">
<title>Node20&#45;&gt;Node6</title>
<path fill="none" stroke="#191970" d="M1226.9807,-165.4179C1246.51,-156.5409 1276.4644,-142.9253 1298.6895,-132.823"/>
<polygon fill="#191970" stroke="#191970" points="1300.3343,-135.92 1307.9896,-128.5956 1297.4376,-129.5474 1300.3343,-135.92"/>
</g>
<!-- Node21&#45;&gt;Node3 -->
<g id="edge35" class="edge">
<title>Node21&#45;&gt;Node3</title>
<path fill="none" stroke="#191970" d="M1042.6891,-166.2462C1045.4966,-165.7932 1048.2863,-165.372 1051,-165 1224.3634,-141.2367 1431.0853,-127.8846 1529.4653,-122.4334"/>
<polygon fill="#191970" stroke="#191970" points="1529.703,-125.9257 1539.4967,-121.8842 1529.3203,-118.9362 1529.703,-125.9257"/>
</g>
<!-- Node21&#45;&gt;Node14 -->
<g id="edge36" class="edge">
<title>Node21&#45;&gt;Node14</title>
<path fill="none" stroke="#191970" d="M990.4317,-165.4179C980.9467,-157.2667 966.8125,-145.1201 955.4634,-135.3669"/>
<polygon fill="#191970" stroke="#191970" points="957.6633,-132.6427 947.7979,-128.7795 953.1009,-137.9516 957.6633,-132.6427"/>
</g>
<!-- Node23&#45;&gt;Node3 -->
<g id="edge42" class="edge">
<title>Node23&#45;&gt;Node3</title>
<path fill="none" stroke="#191970" d="M1682.1752,-165.4179C1663.8582,-156.5807 1635.8071,-143.0473 1614.897,-132.9591"/>
<polygon fill="#191970" stroke="#191970" points="1616.3802,-129.7887 1605.8527,-128.5956 1613.3385,-136.0933 1616.3802,-129.7887"/>
</g>
<!-- Node23&#45;&gt;Node6 -->
<g id="edge43" class="edge">
<title>Node23&#45;&gt;Node6</title>
<path fill="none" stroke="#191970" d="M1660.6534,-166.5054C1657.728,-165.9787 1654.8205,-165.4711 1652,-165 1552.7568,-148.4225 1435.7273,-133.0015 1373.0427,-125.0737"/>
<polygon fill="#191970" stroke="#191970" points="1373.4504,-121.5975 1363.0914,-123.8204 1372.5757,-128.5426 1373.4504,-121.5975"/>
</g>
<!-- Node25&#45;&gt;Node6 -->
<g id="edge46" class="edge">
<title>Node25&#45;&gt;Node6</title>
<path fill="none" stroke="#191970" d="M1432.3588,-165.4179C1412.0934,-156.5011 1380.9615,-142.803 1357.971,-132.6873"/>
<polygon fill="#191970" stroke="#191970" points="1359.2346,-129.4195 1348.6719,-128.5956 1356.4154,-135.8267 1359.2346,-129.4195"/>
</g>
<!-- Node26&#45;&gt;Node8 -->
<g id="edge48" class="edge">
<title>Node26&#45;&gt;Node8</title>
<path fill="none" stroke="#191970" d="M128.0053,-220.4982C186.8648,-200.8784 326.8012,-154.2329 393.8869,-131.871"/>
<polygon fill="#191970" stroke="#191970" points="395.2416,-135.1089 403.6216,-128.6261 393.0279,-128.4681 395.2416,-135.1089"/>
</g>
<!-- Node27&#45;&gt;Node8 -->
<g id="edge52" class="edge">
<title>Node27&#45;&gt;Node8</title>
<path fill="none" stroke="#191970" d="M307.0366,-275.4939C331.2083,-268.8968 359.3166,-257.7088 379,-239 407.9997,-211.4361 421.7474,-164.934 427.4769,-138.8086"/>
<polygon fill="#191970" stroke="#191970" points="430.9742,-139.1705 429.5172,-128.6764 424.1119,-137.7886 430.9742,-139.1705"/>
</g>
<!-- Node28 -->
<g id="node29" class="node">
<title>Node28</title>
<g id="a_node29"><a xlink:title=" ">
<polygon fill="#ffffff" stroke="#bfbfbf" points="286.0938,-220.5 286.0938,-238.5 369.9063,-238.5 369.9063,-220.5 286.0938,-220.5"/>
<text text-anchor="middle" x="328" y="-226.5" font-family="Helvetica,sans-Serif" font-size="10.00" fill="#000000">dji_macros.hpp</text>
</a>
</g>
</g>
<!-- Node27&#45;&gt;Node28 -->
<g id="edge51" class="edge">
<title>Node27&#45;&gt;Node28</title>
<path fill="none" stroke="#191970" d="M269.5591,-275.4179C280.034,-267.1876 295.6932,-254.8839 308.1664,-245.0836"/>
<polygon fill="#191970" stroke="#191970" points="310.489,-247.7098 316.1898,-238.7795 306.1642,-242.2056 310.489,-247.7098"/>
</g>
<!-- Node29&#45;&gt;Node8 -->
<g id="edge54" class="edge">
<title>Node29&#45;&gt;Node8</title>
<path fill="none" stroke="#191970" d="M229.0035,-220.4982C267.518,-201.241 358.1045,-155.9478 403.7292,-133.1354"/>
<polygon fill="#191970" stroke="#191970" points="405.3687,-136.2288 412.7477,-128.6261 402.2382,-129.9678 405.3687,-136.2288"/>
</g>
<!-- Node32&#45;&gt;Node8 -->
<g id="edge61" class="edge">
<title>Node32&#45;&gt;Node8</title>
<path fill="none" stroke="#191970" d="M509.0441,-220.4982C494.9106,-202.2079 462.628,-160.4304 444.3183,-136.7354"/>
<polygon fill="#191970" stroke="#191970" points="446.936,-134.3989 438.052,-128.6261 441.397,-138.6791 446.936,-134.3989"/>
</g>
<!-- Node32&#45;&gt;Node9 -->
<g id="edge59" class="edge">
<title>Node32&#45;&gt;Node9</title>
<path fill="none" stroke="#191970" d="M516.2831,-220.1561C517.0773,-193.9504 519.3377,-119.3557 520.4151,-83.8021"/>
<polygon fill="#191970" stroke="#191970" points="523.9154,-83.8429 520.72,-73.7414 516.9186,-83.6308 523.9154,-83.8429"/>
</g>
<!-- Node32&#45;&gt;Node12 -->
<g id="edge60" class="edge">
<title>Node32&#45;&gt;Node12</title>
<path fill="none" stroke="#191970" d="M568.4384,-221.9102C639.8035,-211.5811 766.9752,-193.1746 840.0966,-182.5913"/>
<polygon fill="#191970" stroke="#191970" points="840.6487,-186.0479 850.0442,-181.1515 839.6459,-179.1201 840.6487,-186.0479"/>
</g>
<!-- Node34&#45;&gt;Node6 -->
<g id="edge69" class="edge">
<title>Node34&#45;&gt;Node6</title>
<path fill="none" stroke="#191970" d="M1291.5002,-275.436C1294.8883,-255.3862 1303.6492,-205.818 1314,-165 1316.2318,-156.1989 1319.1264,-146.5723 1321.7038,-138.4496"/>
<polygon fill="#191970" stroke="#191970" points="1325.0667,-139.4257 1324.827,-128.8336 1318.409,-137.2633 1325.0667,-139.4257"/>
</g>
<!-- Node34&#45;&gt;Node9 -->
<g id="edge68" class="edge">
<title>Node34&#45;&gt;Node9</title>
<path fill="none" stroke="#191970" d="M1244.0861,-276.5567C1241.0114,-276.0287 1237.961,-275.5059 1235,-275 1140.3624,-258.8293 1115.4543,-261.0017 1022,-239 838.8153,-195.8734 628.89,-110.4259 551.6064,-77.6877"/>
<polygon fill="#191970" stroke="#191970" points="552.5853,-74.3006 542.0133,-73.6054 549.8443,-80.7417 552.5853,-74.3006"/>
</g>
<!-- Node34&#45;&gt;Node12 -->
<g id="edge70" class="edge">
<title>Node34&#45;&gt;Node12</title>
<path fill="none" stroke="#191970" d="M1244.171,-276.0959C1201.7676,-267.9382 1137.1494,-254.5352 1082,-239 1027.5721,-223.668 965.8087,-201.2138 928.9239,-187.2468"/>
<polygon fill="#191970" stroke="#191970" points="929.7978,-183.8344 919.2069,-183.5454 927.306,-190.3759 929.7978,-183.8344"/>
</g>
<!-- Node34&#45;&gt;Node19 -->
<g id="edge67" class="edge">
<title>Node34&#45;&gt;Node19</title>
<path fill="none" stroke="#191970" d="M1262.5885,-275.4179C1234.7519,-266.1949 1191.4766,-251.8567 1160.6957,-241.6582"/>
<polygon fill="#191970" stroke="#191970" points="1161.7697,-238.327 1151.1763,-238.5042 1159.5681,-244.9718 1161.7697,-238.327"/>
</g>
</g>
</svg>
        <g id="navigator" transform="translate(0 0)" fill="#404254">
                <rect fill="#f2f5e9" fill-opacity="0.5" stroke="#606060" stroke-width=".5" x="0" y="0" width="60" height="60"/>
                <use id="zoomplus" xlink:href="#zoomPlus" x="17" y="9" onmousedown="handleZoom(evt,'in')"/>
                <use id="zoomminus" xlink:href="#zoomMin" x="42" y="9" onmousedown="handleZoom(evt,'out')"/>
                <use id="reset" xlink:href="#resetDef" x="30" y="36" onmousedown="handleReset()"/>
                <g id="arrowUp" xlink:href="#dirArrow" transform="translate(30 24)" onmousedown="handlePan(0,-1)">
                  <use xlink:href="#rim" fill="#404040">
                        <set attributeName="fill" to="#808080" begin="arrowUp.mouseover" end="arrowUp.mouseout"/>
                  </use>
                  <path fill="none" stroke="white" stroke-width="1.5" d="M0,-3.0v7 M-2.5,-0.5L0,-3.0L2.5,-0.5"/>
                </g>
                <g id="arrowRight" xlink:href="#dirArrow" transform="rotate(90) translate(36 -43)" onmousedown="handlePan(1,0)">
                  <use xlink:href="#rim" fill="#404040">
                        <set attributeName="fill" to="#808080" begin="arrowRight.mouseover" end="arrowRight.mouseout"/>
                  </use>
                  <path fill="none" stroke="white" stroke-width="1.5" d="M0,-3.0v7 M-2.5,-0.5L0,-3.0L2.5,-0.5"/>
                </g>
                <g id="arrowDown" xlink:href="#dirArrow" transform="rotate(180) translate(-30 -48)" onmousedown="handlePan(0,1)">
                  <use xlink:href="#rim" fill="#404040">
                        <set attributeName="fill" to="#808080" begin="arrowDown.mouseover" end="arrowDown.mouseout"/>
                  </use>
                  <path fill="none" stroke="white" stroke-width="1.5" d="M0,-3.0v7 M-2.5,-0.5L0,-3.0L2.5,-0.5"/>
                </g>
                <g id="arrowLeft" xlink:href="#dirArrow" transform="rotate(270) translate(-36 17)" onmousedown="handlePan(-1,0)">
                  <use xlink:href="#rim" fill="#404040">
                        <set attributeName="fill" to="#808080" begin="arrowLeft.mouseover" end="arrowLeft.mouseout"/>
                  </use>
                  <path fill="none" stroke="white" stroke-width="1.5" d="M0,-3.0v7 M-2.5,-0.5L0,-3.0L2.5,-0.5"/>
                </g>
        </g>
        <svg viewBox="0 0 15 15" width="100%" height="30px" preserveAspectRatio="xMaxYMin meet">
         <g id="arrow_out" transform="scale(0.3 0.3)">
          <a xlink:href="dji__waypoint_8cpp__incl_org.svg" target="_base">
           <rect id="button" ry="5" rx="5" y="6" x="6" height="38" width="38"
                fill="#f2f5e9" fill-opacity="0.5" stroke="#606060" stroke-width="1.0"/>
           <path id="arrow"
             d="M 11.500037,31.436501 C 11.940474,20.09759 22.043105,11.32322 32.158766,21.979434 L 37.068811,17.246167 C 37.068811,17.246167 37.088388,32 37.088388,32 L 22.160133,31.978069 C 22.160133,31.978069 26.997745,27.140456 26.997745,27.140456 C 18.528582,18.264221 13.291696,25.230495 11.500037,31.436501 z"
             style="fill:#404040;"/>
          </a>
         </g>
        </svg>
</svg>
