<?xml version="1.0" encoding="UTF-8" standalone="no"?>
<!DOCTYPE svg PUBLIC "-//W3C//DTD SVG 1.1//EN"
 "http://www.w3.org/Graphics/SVG/1.1/DTD/svg11.dtd">
<!-- Generated by graphviz version 2.40.1 (20161225.0304)
 -->
<!-- Title: osdk&#45;core/api/src/dji_mission_manager.cpp Pages: 1 -->
<svg width="346pt" height="367pt"
 viewBox="0.00 0.00 346.18 367.00" xmlns="http://www.w3.org/2000/svg" xmlns:xlink="http://www.w3.org/1999/xlink">
<g id="graph0" class="graph" transform="scale(1 1) rotate(0) translate(4 363)">
<title>osdk&#45;core/api/src/dji_mission_manager.cpp</title>
<polygon fill="#ffffff" stroke="transparent" points="-4,4 -4,-363 342.1753,-363 342.1753,4 -4,4"/>
<!-- Node0 -->
<g id="node1" class="node">
<title>Node0</title>
<g id="a_node1"><a xlink:title="Mission Manager API for DJI OSDK library.">
<polygon fill="#bfbfbf" stroke="#000000" points="166.0469,-330.5 166.0469,-358.5 284.8887,-358.5 284.8887,-330.5 166.0469,-330.5"/>
<text text-anchor="start" x="174.0469" y="-346.5" font-family="Helvetica,sans-Serif" font-size="10.00" fill="#000000">osdk&#45;core/api/src/dji</text>
<text text-anchor="middle" x="225.4678" y="-336.5" font-family="Helvetica,sans-Serif" font-size="10.00" fill="#000000">_mission_manager.cpp</text>
</a>
</g>
</g>
<!-- Node1 -->
<g id="node2" class="node">
<title>Node1</title>
<g id="a_node2"><a xlink:href="dji__mission__manager_8hpp.html" target="_top" xlink:title="Mission&#45;Manager API for DJI OSDK library.">
<polygon fill="#ffffff" stroke="#000000" points="160.7637,-275.5 160.7637,-293.5 290.1719,-293.5 290.1719,-275.5 160.7637,-275.5"/>
<text text-anchor="middle" x="225.4678" y="-281.5" font-family="Helvetica,sans-Serif" font-size="10.00" fill="#000000">dji_mission_manager.hpp</text>
</a>
</g>
</g>
<!-- Node0&#45;&gt;Node1 -->
<g id="edge1" class="edge">
<title>Node0&#45;&gt;Node1</title>
<path fill="none" stroke="#191970" d="M225.4678,-330.2808C225.4678,-322.3776 225.4678,-312.4316 225.4678,-303.8308"/>
<polygon fill="#191970" stroke="#191970" points="228.9679,-303.5842 225.4678,-293.5842 221.9679,-303.5842 228.9679,-303.5842"/>
</g>
<!-- Node2 -->
<g id="node3" class="node">
<title>Node2</title>
<g id="a_node3"><a xlink:href="dji__hotpoint_8hpp.html" target="_top" xlink:title="Implementation of HotPoint (Point of Interest) Missions for DJI OSDK.">
<polygon fill="#ffffff" stroke="#000000" points="236.1602,-220.5 236.1602,-238.5 322.7754,-238.5 322.7754,-220.5 236.1602,-220.5"/>
<text text-anchor="middle" x="279.4678" y="-226.5" font-family="Helvetica,sans-Serif" font-size="10.00" fill="#000000">dji_hotpoint.hpp</text>
</a>
</g>
</g>
<!-- Node1&#45;&gt;Node2 -->
<g id="edge2" class="edge">
<title>Node1&#45;&gt;Node2</title>
<path fill="none" stroke="#191970" d="M234.3848,-275.4179C242.2323,-267.425 253.8518,-255.5903 263.3289,-245.9377"/>
<polygon fill="#191970" stroke="#191970" points="265.8486,-248.3672 270.357,-238.7795 260.8536,-243.463 265.8486,-248.3672"/>
</g>
<!-- Node12 -->
<g id="node13" class="node">
<title>Node12</title>
<g id="a_node13"><a xlink:href="dji__waypoint_8hpp.html" target="_top" xlink:title="Implementation of GPS Waypoint Missions for DJI OSDK.">
<polygon fill="#ffffff" stroke="#000000" points="127.2192,-220.5 127.2192,-238.5 217.7163,-238.5 217.7163,-220.5 127.2192,-220.5"/>
<text text-anchor="middle" x="172.4678" y="-226.5" font-family="Helvetica,sans-Serif" font-size="10.00" fill="#000000">dji_waypoint.hpp</text>
</a>
</g>
</g>
<!-- Node1&#45;&gt;Node12 -->
<g id="edge15" class="edge">
<title>Node1&#45;&gt;Node12</title>
<path fill="none" stroke="#191970" d="M216.7159,-275.4179C209.0899,-267.5041 197.8348,-255.8243 188.5847,-246.2251"/>
<polygon fill="#191970" stroke="#191970" points="190.869,-243.5516 181.4098,-238.7795 185.8285,-248.4089 190.869,-243.5516"/>
</g>
<!-- Node3 -->
<g id="node4" class="node">
<title>Node3</title>
<g id="a_node4"><a xlink:href="dji__mission__base_8hpp.html" target="_top" xlink:title="Mission&#45;Base abstract class for DJI OSDK library.">
<polygon fill="#ffffff" stroke="#000000" points="116.3818,-165.5 116.3818,-183.5 228.5537,-183.5 228.5537,-165.5 116.3818,-165.5"/>
<text text-anchor="middle" x="172.4678" y="-171.5" font-family="Helvetica,sans-Serif" font-size="10.00" fill="#000000">dji_mission_base.hpp</text>
</a>
</g>
</g>
<!-- Node2&#45;&gt;Node3 -->
<g id="edge3" class="edge">
<title>Node2&#45;&gt;Node3</title>
<path fill="none" stroke="#191970" d="M261.7989,-220.4179C244.7615,-211.6603 218.7516,-198.2907 199.1838,-188.2326"/>
<polygon fill="#191970" stroke="#191970" points="200.6568,-185.0544 190.1629,-183.5956 197.4567,-191.2801 200.6568,-185.0544"/>
</g>
<!-- Node11 -->
<g id="node12" class="node">
<title>Node11</title>
<g id="a_node12"><a xlink:href="dji__telemetry_8hpp.html" target="_top" xlink:title="Enumeration of all telemetry data types, structures and maps.">
<polygon fill="#ffffff" stroke="#000000" points="246.7603,-165.5 246.7603,-183.5 338.1753,-183.5 338.1753,-165.5 246.7603,-165.5"/>
<text text-anchor="middle" x="292.4678" y="-171.5" font-family="Helvetica,sans-Serif" font-size="10.00" fill="#000000">dji_telemetry.hpp</text>
</a>
</g>
</g>
<!-- Node2&#45;&gt;Node11 -->
<g id="edge13" class="edge">
<title>Node2&#45;&gt;Node11</title>
<path fill="none" stroke="#191970" d="M281.6145,-220.4179C283.3353,-213.1372 285.8097,-202.669 287.9613,-193.5659"/>
<polygon fill="#191970" stroke="#191970" points="291.3803,-194.3164 290.2744,-183.7795 284.568,-192.7062 291.3803,-194.3164"/>
</g>
<!-- Node4 -->
<g id="node5" class="node">
<title>Node4</title>
<g id="a_node5"><a xlink:href="dji__command_8hpp.html" target="_top" xlink:title="All DJI OSDK OpenProtocol Command IDs.">
<polygon fill="#ffffff" stroke="#000000" points="0,-110.5 0,-128.5 94.9355,-128.5 94.9355,-110.5 0,-110.5"/>
<text text-anchor="middle" x="47.4678" y="-116.5" font-family="Helvetica,sans-Serif" font-size="10.00" fill="#000000">dji_command.hpp</text>
</a>
</g>
</g>
<!-- Node3&#45;&gt;Node4 -->
<g id="edge4" class="edge">
<title>Node3&#45;&gt;Node4</title>
<path fill="none" stroke="#191970" d="M151.8266,-165.4179C131.5611,-156.5011 100.4292,-142.803 77.4388,-132.6873"/>
<polygon fill="#191970" stroke="#191970" points="78.7024,-129.4195 68.1396,-128.5956 75.8832,-135.8267 78.7024,-129.4195"/>
</g>
<!-- Node7 -->
<g id="node8" class="node">
<title>Node7</title>
<g id="a_node8"><a xlink:href="dji__type_8hpp.html" target="_top" xlink:title="Data type and Data Structure definitions for use throughout DJI OSDK.">
<polygon fill="#ffffff" stroke="#000000" points="256.5024,-110.5 256.5024,-128.5 326.4331,-128.5 326.4331,-110.5 256.5024,-110.5"/>
<text text-anchor="middle" x="291.4678" y="-116.5" font-family="Helvetica,sans-Serif" font-size="10.00" fill="#000000">dji_type.hpp</text>
</a>
</g>
</g>
<!-- Node3&#45;&gt;Node7 -->
<g id="edge8" class="edge">
<title>Node3&#45;&gt;Node7</title>
<path fill="none" stroke="#191970" d="M192.1182,-165.4179C211.3248,-156.5409 240.784,-142.9253 262.6418,-132.823"/>
<polygon fill="#191970" stroke="#191970" points="264.1792,-135.9682 271.7882,-128.5956 261.2424,-129.614 264.1792,-135.9682"/>
</g>
<!-- Node9 -->
<g id="node10" class="node">
<title>Node9</title>
<g id="a_node10"><a xlink:href="dji__vehicle__callback_8hpp.html" target="_top" xlink:title="Type definition for new Vehicle&#45;style callbacks.">
<polygon fill="#ffffff" stroke="#000000" points="112.5444,-110.5 112.5444,-128.5 236.3911,-128.5 236.3911,-110.5 112.5444,-110.5"/>
<text text-anchor="middle" x="174.4678" y="-116.5" font-family="Helvetica,sans-Serif" font-size="10.00" fill="#000000">dji_vehicle_callback.hpp</text>
</a>
</g>
</g>
<!-- Node3&#45;&gt;Node9 -->
<g id="edge11" class="edge">
<title>Node3&#45;&gt;Node9</title>
<path fill="none" stroke="#191970" d="M172.798,-165.4179C173.0599,-158.2164 173.4352,-147.8962 173.7637,-138.8632"/>
<polygon fill="#191970" stroke="#191970" points="177.2645,-138.9001 174.1303,-128.7795 170.2692,-138.6456 177.2645,-138.9001"/>
</g>
<!-- Node5 -->
<g id="node6" class="node">
<title>Node5</title>
<g id="a_node6"><a xlink:href="dji__error_8hpp.html" target="_top" xlink:title="All DJI OSDK OpenProtocol ACK Error Codes.">
<polygon fill="#ffffff" stroke="#000000" points="27.6699,-55.5 27.6699,-73.5 99.2656,-73.5 99.2656,-55.5 27.6699,-55.5"/>
<text text-anchor="middle" x="63.4678" y="-61.5" font-family="Helvetica,sans-Serif" font-size="10.00" fill="#000000">dji_error.hpp</text>
</a>
</g>
</g>
<!-- Node4&#45;&gt;Node5 -->
<g id="edge5" class="edge">
<title>Node4&#45;&gt;Node5</title>
<path fill="none" stroke="#191970" d="M50.1098,-110.4179C52.2279,-103.1372 55.2732,-92.669 57.9213,-83.5659"/>
<polygon fill="#191970" stroke="#191970" points="61.3356,-84.3591 60.7683,-73.7795 54.6142,-82.4037 61.3356,-84.3591"/>
</g>
<!-- Node6 -->
<g id="node7" class="node">
<title>Node6</title>
<g id="a_node7"><a xlink:title=" ">
<polygon fill="#ffffff" stroke="#bfbfbf" points="39.3472,-.5 39.3472,-18.5 87.5884,-18.5 87.5884,-.5 39.3472,-.5"/>
<text text-anchor="middle" x="63.4678" y="-6.5" font-family="Helvetica,sans-Serif" font-size="10.00" fill="#000000">stdint.h</text>
</a>
</g>
</g>
<!-- Node4&#45;&gt;Node6 -->
<g id="edge7" class="edge">
<title>Node4&#45;&gt;Node6</title>
<path fill="none" stroke="#191970" d="M38.3352,-110.3957C27.041,-97.978 10.2536,-74.9866 18.4678,-55 23.3179,-43.1985 32.8727,-32.8287 41.9349,-24.981"/>
<polygon fill="#191970" stroke="#191970" points="44.3739,-27.5109 49.9698,-18.5144 39.985,-22.0576 44.3739,-27.5109"/>
</g>
<!-- Node5&#45;&gt;Node6 -->
<g id="edge6" class="edge">
<title>Node5&#45;&gt;Node6</title>
<path fill="none" stroke="#191970" d="M63.4678,-55.4179C63.4678,-48.2164 63.4678,-37.8962 63.4678,-28.8632"/>
<polygon fill="#191970" stroke="#191970" points="66.9679,-28.7794 63.4678,-18.7795 59.9679,-28.7795 66.9679,-28.7794"/>
</g>
<!-- Node7&#45;&gt;Node6 -->
<g id="edge10" class="edge">
<title>Node7&#45;&gt;Node6</title>
<path fill="none" stroke="#191970" d="M296.5747,-110.4239C303.4966,-96.7712 313.5751,-70.8631 300.4678,-55 275.1662,-24.3789 157.3242,-14.157 97.9091,-10.9148"/>
<polygon fill="#191970" stroke="#191970" points="98.0367,-7.4168 87.8715,-10.4033 97.6804,-14.4077 98.0367,-7.4168"/>
</g>
<!-- Node8 -->
<g id="node9" class="node">
<title>Node8</title>
<g id="a_node9"><a xlink:title=" ">
<polygon fill="#ffffff" stroke="#bfbfbf" points="249.4063,-55.5 249.4063,-73.5 291.5293,-73.5 291.5293,-55.5 249.4063,-55.5"/>
<text text-anchor="middle" x="270.4678" y="-61.5" font-family="Helvetica,sans-Serif" font-size="10.00" fill="#000000">cstdio</text>
</a>
</g>
</g>
<!-- Node7&#45;&gt;Node8 -->
<g id="edge9" class="edge">
<title>Node7&#45;&gt;Node8</title>
<path fill="none" stroke="#191970" d="M288.0001,-110.4179C285.19,-103.0581 281.1362,-92.441 277.6343,-83.2695"/>
<polygon fill="#191970" stroke="#191970" points="280.8477,-81.8732 274.0108,-73.7795 274.3082,-84.3701 280.8477,-81.8732"/>
</g>
<!-- Node10 -->
<g id="node11" class="node">
<title>Node10</title>
<g id="a_node11"><a xlink:title=" ">
<polygon fill="#ffffff" stroke="#bfbfbf" points="117.2612,-55.5 117.2612,-73.5 231.6743,-73.5 231.6743,-55.5 117.2612,-55.5"/>
<text text-anchor="middle" x="174.4678" y="-61.5" font-family="Helvetica,sans-Serif" font-size="10.00" fill="#000000">dji_open_protocol.hpp</text>
</a>
</g>
</g>
<!-- Node9&#45;&gt;Node10 -->
<g id="edge12" class="edge">
<title>Node9&#45;&gt;Node10</title>
<path fill="none" stroke="#191970" d="M174.4678,-110.4179C174.4678,-103.2164 174.4678,-92.8962 174.4678,-83.8632"/>
<polygon fill="#191970" stroke="#191970" points="177.9679,-83.7794 174.4678,-73.7795 170.9679,-83.7795 177.9679,-83.7794"/>
</g>
<!-- Node11&#45;&gt;Node7 -->
<g id="edge14" class="edge">
<title>Node11&#45;&gt;Node7</title>
<path fill="none" stroke="#191970" d="M292.3026,-165.4179C292.1717,-158.2164 291.9841,-147.8962 291.8198,-138.8632"/>
<polygon fill="#191970" stroke="#191970" points="295.3178,-138.7141 291.6365,-128.7795 288.319,-138.8415 295.3178,-138.7141"/>
</g>
<!-- Node12&#45;&gt;Node3 -->
<g id="edge16" class="edge">
<title>Node12&#45;&gt;Node3</title>
<path fill="none" stroke="#191970" d="M172.4678,-220.4179C172.4678,-213.2164 172.4678,-202.8962 172.4678,-193.8632"/>
<polygon fill="#191970" stroke="#191970" points="175.9679,-193.7794 172.4678,-183.7795 168.9679,-193.7795 175.9679,-193.7794"/>
</g>
</g>
</svg>
