<?xml version="1.0" encoding="UTF-8" standalone="no"?>
<!DOCTYPE svg PUBLIC "-//W3C//DTD SVG 1.1//EN"
 "http://www.w3.org/Graphics/SVG/1.1/DTD/svg11.dtd">
<!-- Generated by graphviz version 2.40.1 (20161225.0304)
 -->
<!-- Title: osdk&#45;core/api/inc/dji_version.hpp Pages: 1 -->
<svg width="186pt" height="202pt"
 viewBox="0.00 0.00 186.25 202.00" xmlns="http://www.w3.org/2000/svg" xmlns:xlink="http://www.w3.org/1999/xlink">
<g id="graph0" class="graph" transform="scale(1 1) rotate(0) translate(4 198)">
<title>osdk&#45;core/api/inc/dji_version.hpp</title>
<polygon fill="#ffffff" stroke="transparent" points="-4,4 -4,-198 182.2485,-198 182.2485,4 -4,4"/>
<!-- Node0 -->
<g id="node1" class="node">
<title>Node0</title>
<g id="a_node1"><a xlink:title="Drone/SDK Version definition for DJI onboardSDK library.">
<polygon fill="#bfbfbf" stroke="#000000" points="59.6108,-165.5 59.6108,-193.5 163.9849,-193.5 163.9849,-165.5 59.6108,-165.5"/>
<text text-anchor="start" x="67.6108" y="-181.5" font-family="Helvetica,sans-Serif" font-size="10.00" fill="#000000">osdk&#45;core/api/inc/dji</text>
<text text-anchor="middle" x="111.7979" y="-171.5" font-family="Helvetica,sans-Serif" font-size="10.00" fill="#000000">_version.hpp</text>
</a>
</g>
</g>
<!-- Node1 -->
<g id="node2" class="node">
<title>Node1</title>
<g id="a_node2"><a xlink:href="dji__command_8hpp.html" target="_top" xlink:title="All DJI OSDK OpenProtocol Command IDs.">
<polygon fill="#ffffff" stroke="#000000" points="20.3301,-110.5 20.3301,-128.5 115.2656,-128.5 115.2656,-110.5 20.3301,-110.5"/>
<text text-anchor="middle" x="67.7979" y="-116.5" font-family="Helvetica,sans-Serif" font-size="10.00" fill="#000000">dji_command.hpp</text>
</a>
</g>
</g>
<!-- Node0&#45;&gt;Node1 -->
<g id="edge1" class="edge">
<title>Node0&#45;&gt;Node1</title>
<path fill="none" stroke="#191970" d="M101.3705,-165.2808C95.1189,-156.756 87.1244,-145.8545 80.5051,-136.8281"/>
<polygon fill="#191970" stroke="#191970" points="83.1957,-134.5785 74.4596,-128.5842 77.5508,-138.718 83.1957,-134.5785"/>
</g>
<!-- Node4 -->
<g id="node5" class="node">
<title>Node4</title>
<g id="a_node5"><a xlink:title=" ">
<polygon fill="#ffffff" stroke="#bfbfbf" points="133.3472,-110.5 133.3472,-128.5 178.2485,-128.5 178.2485,-110.5 133.3472,-110.5"/>
<text text-anchor="middle" x="155.7979" y="-116.5" font-family="Helvetica,sans-Serif" font-size="10.00" fill="#000000">cstdint</text>
</a>
</g>
</g>
<!-- Node0&#45;&gt;Node4 -->
<g id="edge5" class="edge">
<title>Node0&#45;&gt;Node4</title>
<path fill="none" stroke="#191970" d="M122.2252,-165.2808C128.4768,-156.756 136.4713,-145.8545 143.0906,-136.8281"/>
<polygon fill="#191970" stroke="#191970" points="146.0449,-138.718 149.1361,-128.5842 140.4,-134.5785 146.0449,-138.718"/>
</g>
<!-- Node2 -->
<g id="node3" class="node">
<title>Node2</title>
<g id="a_node3"><a xlink:href="dji__error_8hpp.html" target="_top" xlink:title="All DJI OSDK OpenProtocol ACK Error Codes.">
<polygon fill="#ffffff" stroke="#000000" points="0,-55.5 0,-73.5 71.5957,-73.5 71.5957,-55.5 0,-55.5"/>
<text text-anchor="middle" x="35.7979" y="-61.5" font-family="Helvetica,sans-Serif" font-size="10.00" fill="#000000">dji_error.hpp</text>
</a>
</g>
</g>
<!-- Node1&#45;&gt;Node2 -->
<g id="edge2" class="edge">
<title>Node1&#45;&gt;Node2</title>
<path fill="none" stroke="#191970" d="M62.5137,-110.4179C58.1396,-102.8998 51.7879,-91.9829 46.3752,-82.6799"/>
<polygon fill="#191970" stroke="#191970" points="49.251,-80.6628 41.1968,-73.7795 43.2006,-84.1831 49.251,-80.6628"/>
</g>
<!-- Node3 -->
<g id="node4" class="node">
<title>Node3</title>
<g id="a_node4"><a xlink:title=" ">
<polygon fill="#ffffff" stroke="#bfbfbf" points="43.6772,-.5 43.6772,-18.5 91.9185,-18.5 91.9185,-.5 43.6772,-.5"/>
<text text-anchor="middle" x="67.7979" y="-6.5" font-family="Helvetica,sans-Serif" font-size="10.00" fill="#000000">stdint.h</text>
</a>
</g>
</g>
<!-- Node1&#45;&gt;Node3 -->
<g id="edge4" class="edge">
<title>Node1&#45;&gt;Node3</title>
<path fill="none" stroke="#191970" d="M71.6299,-110.3734C76.3962,-97.9303 83.5864,-74.9103 80.7979,-55 79.546,-46.0618 76.9745,-36.4158 74.4466,-28.3156"/>
<polygon fill="#191970" stroke="#191970" points="77.741,-27.1306 71.263,-18.7469 71.099,-29.3405 77.741,-27.1306"/>
</g>
<!-- Node2&#45;&gt;Node3 -->
<g id="edge3" class="edge">
<title>Node2&#45;&gt;Node3</title>
<path fill="none" stroke="#191970" d="M41.082,-55.4179C45.4561,-47.8998 51.8078,-36.9829 57.2205,-27.6799"/>
<polygon fill="#191970" stroke="#191970" points="60.3951,-29.1831 62.3989,-18.7795 54.3447,-25.6628 60.3951,-29.1831"/>
</g>
</g>
</svg>
