<?xml version="1.0" encoding="UTF-8" standalone="no"?>
<!DOCTYPE svg PUBLIC "-//W3C//DTD SVG 1.1//EN"
 "http://www.w3.org/Graphics/SVG/1.1/DTD/svg11.dtd">
<!-- Generated by graphviz version 2.40.1 (20161225.0304)
 -->
<!-- Title: osdk&#45;core/api/inc/dji_ack.hpp Pages: 1 -->
<svg width="348pt" height="257pt"
 viewBox="0.00 0.00 348.42 257.00" xmlns="http://www.w3.org/2000/svg" xmlns:xlink="http://www.w3.org/1999/xlink">
<g id="graph0" class="graph" transform="scale(1 1) rotate(0) translate(4 253)">
<title>osdk&#45;core/api/inc/dji_ack.hpp</title>
<polygon fill="#ffffff" stroke="transparent" points="-4,4 -4,-253 344.4209,-253 344.4209,4 -4,4"/>
<!-- Node0 -->
<g id="node1" class="node">
<title>Node0</title>
<g id="a_node1"><a xlink:title="All DJI OSDK ACK parsing.">
<polygon fill="#bfbfbf" stroke="#000000" points="123.5073,-220.5 123.5073,-248.5 227.8813,-248.5 227.8813,-220.5 123.5073,-220.5"/>
<text text-anchor="start" x="131.5073" y="-236.5" font-family="Helvetica,sans-Serif" font-size="10.00" fill="#000000">osdk&#45;core/api/inc/dji</text>
<text text-anchor="middle" x="175.6943" y="-226.5" font-family="Helvetica,sans-Serif" font-size="10.00" fill="#000000">_ack.hpp</text>
</a>
</g>
</g>
<!-- Node1 -->
<g id="node2" class="node">
<title>Node1</title>
<g id="a_node2"><a xlink:href="dji__command_8hpp.html" target="_top" xlink:title="All DJI OSDK OpenProtocol Command IDs.">
<polygon fill="#ffffff" stroke="#000000" points="128.2266,-110.5 128.2266,-128.5 223.1621,-128.5 223.1621,-110.5 128.2266,-110.5"/>
<text text-anchor="middle" x="175.6943" y="-116.5" font-family="Helvetica,sans-Serif" font-size="10.00" fill="#000000">dji_command.hpp</text>
</a>
</g>
</g>
<!-- Node0&#45;&gt;Node1 -->
<g id="edge1" class="edge">
<title>Node0&#45;&gt;Node1</title>
<path fill="none" stroke="#191970" d="M175.6943,-220.3987C175.6943,-199.9779 175.6943,-162.0975 175.6943,-139.0089"/>
<polygon fill="#191970" stroke="#191970" points="179.1944,-138.7286 175.6943,-128.7286 172.1944,-138.7287 179.1944,-138.7286"/>
</g>
<!-- Node4 -->
<g id="node5" class="node">
<title>Node4</title>
<g id="a_node5"><a xlink:href="dji__mission__type_8hpp.html" target="_top" xlink:title="Mission related data struct for DJI OSDK library.">
<polygon fill="#ffffff" stroke="#000000" points="0,-165.5 0,-183.5 109.3887,-183.5 109.3887,-165.5 0,-165.5"/>
<text text-anchor="middle" x="54.6943" y="-171.5" font-family="Helvetica,sans-Serif" font-size="10.00" fill="#000000">dji_mission_type.hpp</text>
</a>
</g>
</g>
<!-- Node0&#45;&gt;Node4 -->
<g id="edge5" class="edge">
<title>Node0&#45;&gt;Node4</title>
<path fill="none" stroke="#191970" d="M147.3252,-220.4327C127.6358,-210.6693 101.5503,-197.7344 82.079,-188.0792"/>
<polygon fill="#191970" stroke="#191970" points="83.6226,-184.9379 73.1086,-183.6311 80.5128,-191.2093 83.6226,-184.9379"/>
</g>
<!-- Node5 -->
<g id="node6" class="node">
<title>Node5</title>
<g id="a_node6"><a xlink:href="dji__type_8hpp.html" target="_top" xlink:title="Data type and Data Structure definitions for use throughout DJI OSDK.">
<polygon fill="#ffffff" stroke="#000000" points="29.729,-110.5 29.729,-128.5 99.6597,-128.5 99.6597,-110.5 29.729,-110.5"/>
<text text-anchor="middle" x="64.6943" y="-116.5" font-family="Helvetica,sans-Serif" font-size="10.00" fill="#000000">dji_type.hpp</text>
</a>
</g>
</g>
<!-- Node0&#45;&gt;Node5 -->
<g id="edge9" class="edge">
<title>Node0&#45;&gt;Node5</title>
<path fill="none" stroke="#191970" d="M165.2622,-220.2787C154.3366,-205.7613 136.3414,-182.8829 118.6943,-165 108.0949,-154.2589 95.2037,-143.3275 84.6752,-134.8721"/>
<polygon fill="#191970" stroke="#191970" points="86.8439,-132.1249 76.8271,-128.6729 82.5049,-137.618 86.8439,-132.1249"/>
</g>
<!-- Node7 -->
<g id="node8" class="node">
<title>Node7</title>
<g id="a_node8"><a xlink:href="dji__version_8hpp.html" target="_top" xlink:title="Drone/SDK Version definition for DJI onboardSDK library.">
<polygon fill="#ffffff" stroke="#000000" points="204.0615,-165.5 204.0615,-183.5 287.3271,-183.5 287.3271,-165.5 204.0615,-165.5"/>
<text text-anchor="middle" x="245.6943" y="-171.5" font-family="Helvetica,sans-Serif" font-size="10.00" fill="#000000">dji_version.hpp</text>
</a>
</g>
</g>
<!-- Node0&#45;&gt;Node7 -->
<g id="edge10" class="edge">
<title>Node0&#45;&gt;Node7</title>
<path fill="none" stroke="#191970" d="M192.2834,-220.2808C202.8506,-211.2232 216.5481,-199.4825 227.4259,-190.1586"/>
<polygon fill="#191970" stroke="#191970" points="229.7813,-192.7495 235.0961,-183.5842 225.2257,-187.4347 229.7813,-192.7495"/>
</g>
<!-- Node9 -->
<g id="node10" class="node">
<title>Node9</title>
<g id="a_node10"><a xlink:title=" ">
<polygon fill="#ffffff" stroke="#bfbfbf" points="304.9678,-165.5 304.9678,-183.5 340.4209,-183.5 340.4209,-165.5 304.9678,-165.5"/>
<text text-anchor="middle" x="322.6943" y="-171.5" font-family="Helvetica,sans-Serif" font-size="10.00" fill="#000000">map</text>
</a>
</g>
</g>
<!-- Node0&#45;&gt;Node9 -->
<g id="edge13" class="edge">
<title>Node0&#45;&gt;Node9</title>
<path fill="none" stroke="#191970" d="M210.1593,-220.4327C236.148,-209.8251 271.3091,-195.4736 295.3716,-185.6521"/>
<polygon fill="#191970" stroke="#191970" points="297.0097,-188.7639 304.9456,-181.7444 294.3644,-182.283 297.0097,-188.7639"/>
</g>
<!-- Node2 -->
<g id="node3" class="node">
<title>Node2</title>
<g id="a_node3"><a xlink:href="dji__error_8hpp.html" target="_top" xlink:title="All DJI OSDK OpenProtocol ACK Error Codes.">
<polygon fill="#ffffff" stroke="#000000" points="121.8965,-55.5 121.8965,-73.5 193.4922,-73.5 193.4922,-55.5 121.8965,-55.5"/>
<text text-anchor="middle" x="157.6943" y="-61.5" font-family="Helvetica,sans-Serif" font-size="10.00" fill="#000000">dji_error.hpp</text>
</a>
</g>
</g>
<!-- Node1&#45;&gt;Node2 -->
<g id="edge2" class="edge">
<title>Node1&#45;&gt;Node2</title>
<path fill="none" stroke="#191970" d="M172.722,-110.4179C170.3392,-103.1372 166.9133,-92.669 163.9341,-83.5659"/>
<polygon fill="#191970" stroke="#191970" points="167.1681,-82.1948 160.7312,-73.7795 160.5153,-84.3721 167.1681,-82.1948"/>
</g>
<!-- Node3 -->
<g id="node4" class="node">
<title>Node3</title>
<g id="a_node4"><a xlink:title=" ">
<polygon fill="#ffffff" stroke="#bfbfbf" points="133.5737,-.5 133.5737,-18.5 181.8149,-18.5 181.8149,-.5 133.5737,-.5"/>
<text text-anchor="middle" x="157.6943" y="-6.5" font-family="Helvetica,sans-Serif" font-size="10.00" fill="#000000">stdint.h</text>
</a>
</g>
</g>
<!-- Node1&#45;&gt;Node3 -->
<g id="edge4" class="edge">
<title>Node1&#45;&gt;Node3</title>
<path fill="none" stroke="#191970" d="M184.3359,-110.3298C195.0086,-97.8373 210.816,-74.7616 202.6943,-55 197.8442,-43.1985 188.2894,-32.8287 179.2272,-24.981"/>
<polygon fill="#191970" stroke="#191970" points="181.1771,-22.0576 171.1924,-18.5144 176.7882,-27.5109 181.1771,-22.0576"/>
</g>
<!-- Node2&#45;&gt;Node3 -->
<g id="edge3" class="edge">
<title>Node2&#45;&gt;Node3</title>
<path fill="none" stroke="#191970" d="M157.6943,-55.4179C157.6943,-48.2164 157.6943,-37.8962 157.6943,-28.8632"/>
<polygon fill="#191970" stroke="#191970" points="161.1944,-28.7794 157.6943,-18.7795 154.1944,-28.7795 161.1944,-28.7794"/>
</g>
<!-- Node4&#45;&gt;Node5 -->
<g id="edge6" class="edge">
<title>Node4&#45;&gt;Node5</title>
<path fill="none" stroke="#191970" d="M56.3456,-165.4179C57.655,-158.2164 59.5314,-147.8962 61.1738,-138.8632"/>
<polygon fill="#191970" stroke="#191970" points="64.6618,-139.2443 63.0072,-128.7795 57.7747,-137.992 64.6618,-139.2443"/>
</g>
<!-- Node5&#45;&gt;Node3 -->
<g id="edge8" class="edge">
<title>Node5&#45;&gt;Node3</title>
<path fill="none" stroke="#191970" d="M59.1744,-110.3527C51.9462,-97.0639 41.4425,-72.1386 52.6943,-55 68.2452,-31.3131 99.0596,-19.8967 123.3032,-14.4305"/>
<polygon fill="#191970" stroke="#191970" points="124.1142,-17.8375 133.2273,-12.4337 122.7334,-10.975 124.1142,-17.8375"/>
</g>
<!-- Node6 -->
<g id="node7" class="node">
<title>Node6</title>
<g id="a_node7"><a xlink:title=" ">
<polygon fill="#ffffff" stroke="#bfbfbf" points="61.6328,-55.5 61.6328,-73.5 103.7559,-73.5 103.7559,-55.5 61.6328,-55.5"/>
<text text-anchor="middle" x="82.6943" y="-61.5" font-family="Helvetica,sans-Serif" font-size="10.00" fill="#000000">cstdio</text>
</a>
</g>
</g>
<!-- Node5&#45;&gt;Node6 -->
<g id="edge7" class="edge">
<title>Node5&#45;&gt;Node6</title>
<path fill="none" stroke="#191970" d="M67.6667,-110.4179C70.0494,-103.1372 73.4754,-92.669 76.4546,-83.5659"/>
<polygon fill="#191970" stroke="#191970" points="79.8734,-84.3721 79.6574,-73.7795 73.2206,-82.1948 79.8734,-84.3721"/>
</g>
<!-- Node7&#45;&gt;Node1 -->
<g id="edge11" class="edge">
<title>Node7&#45;&gt;Node1</title>
<path fill="none" stroke="#191970" d="M234.1353,-165.4179C223.6603,-157.1876 208.0011,-144.8839 195.5279,-135.0836"/>
<polygon fill="#191970" stroke="#191970" points="197.5301,-132.2056 187.5046,-128.7795 193.2054,-137.7098 197.5301,-132.2056"/>
</g>
<!-- Node8 -->
<g id="node9" class="node">
<title>Node8</title>
<g id="a_node9"><a xlink:title=" ">
<polygon fill="#ffffff" stroke="#bfbfbf" points="241.2437,-110.5 241.2437,-128.5 286.145,-128.5 286.145,-110.5 241.2437,-110.5"/>
<text text-anchor="middle" x="263.6943" y="-116.5" font-family="Helvetica,sans-Serif" font-size="10.00" fill="#000000">cstdint</text>
</a>
</g>
</g>
<!-- Node7&#45;&gt;Node8 -->
<g id="edge12" class="edge">
<title>Node7&#45;&gt;Node8</title>
<path fill="none" stroke="#191970" d="M248.6667,-165.4179C251.0494,-158.1372 254.4754,-147.669 257.4546,-138.5659"/>
<polygon fill="#191970" stroke="#191970" points="260.8734,-139.3721 260.6574,-128.7795 254.2206,-137.1948 260.8734,-139.3721"/>
</g>
</g>
</svg>
