<?xml version="1.0" encoding="UTF-8" standalone="no"?>
<!DOCTYPE svg PUBLIC "-//W3C//DTD SVG 1.1//EN"
 "http://www.w3.org/Graphics/SVG/1.1/DTD/svg11.dtd">
<!-- Generated by graphviz version 2.40.1 (20161225.0304)
 -->
<!-- Title: osdk&#45;core/api/inc/dji_broadcast.hpp Pages: 1 -->
<svg width="248pt" height="202pt"
 viewBox="0.00 0.00 247.98 202.00" xmlns="http://www.w3.org/2000/svg" xmlns:xlink="http://www.w3.org/1999/xlink">
<g id="graph0" class="graph" transform="scale(1 1) rotate(0) translate(4 198)">
<title>osdk&#45;core/api/inc/dji_broadcast.hpp</title>
<polygon fill="#ffffff" stroke="transparent" points="-4,4 -4,-198 243.9849,-198 243.9849,4 -4,4"/>
<!-- Node0 -->
<g id="node1" class="node">
<title>Node0</title>
<g id="a_node1"><a xlink:title="Broadcast Telemetry API for DJI onboardSDK library.">
<polygon fill="#bfbfbf" stroke="#000000" points="62.8745,-165.5 62.8745,-193.5 167.2485,-193.5 167.2485,-165.5 62.8745,-165.5"/>
<text text-anchor="start" x="70.8745" y="-181.5" font-family="Helvetica,sans-Serif" font-size="10.00" fill="#000000">osdk&#45;core/api/inc/dji</text>
<text text-anchor="middle" x="115.0615" y="-171.5" font-family="Helvetica,sans-Serif" font-size="10.00" fill="#000000">_broadcast.hpp</text>
</a>
</g>
</g>
<!-- Node1 -->
<g id="node2" class="node">
<title>Node1</title>
<g id="a_node2"><a xlink:href="dji__telemetry_8hpp.html" target="_top" xlink:title="Enumeration of all telemetry data types, structures and maps.">
<polygon fill="#ffffff" stroke="#000000" points="6.354,-110.5 6.354,-128.5 97.769,-128.5 97.769,-110.5 6.354,-110.5"/>
<text text-anchor="middle" x="52.0615" y="-116.5" font-family="Helvetica,sans-Serif" font-size="10.00" fill="#000000">dji_telemetry.hpp</text>
</a>
</g>
</g>
<!-- Node0&#45;&gt;Node1 -->
<g id="edge1" class="edge">
<title>Node0&#45;&gt;Node1</title>
<path fill="none" stroke="#191970" d="M100.1314,-165.2808C90.8073,-156.4008 78.7755,-144.9419 69.0819,-135.7098"/>
<polygon fill="#191970" stroke="#191970" points="71.2551,-132.9463 61.5999,-128.5842 66.4275,-138.0153 71.2551,-132.9463"/>
</g>
<!-- Node5 -->
<g id="node6" class="node">
<title>Node5</title>
<g id="a_node6"><a xlink:href="dji__vehicle__callback_8hpp.html" target="_top" xlink:title="Type definition for new Vehicle&#45;style callbacks.">
<polygon fill="#ffffff" stroke="#000000" points="116.1382,-110.5 116.1382,-128.5 239.9849,-128.5 239.9849,-110.5 116.1382,-110.5"/>
<text text-anchor="middle" x="178.0615" y="-116.5" font-family="Helvetica,sans-Serif" font-size="10.00" fill="#000000">dji_vehicle_callback.hpp</text>
</a>
</g>
</g>
<!-- Node0&#45;&gt;Node5 -->
<g id="edge5" class="edge">
<title>Node0&#45;&gt;Node5</title>
<path fill="none" stroke="#191970" d="M129.9916,-165.2808C139.3157,-156.4008 151.3476,-144.9419 161.0412,-135.7098"/>
<polygon fill="#191970" stroke="#191970" points="163.6955,-138.0153 168.5231,-128.5842 158.8679,-132.9463 163.6955,-138.0153"/>
</g>
<!-- Node2 -->
<g id="node3" class="node">
<title>Node2</title>
<g id="a_node3"><a xlink:href="dji__type_8hpp.html" target="_top" xlink:title="Data type and Data Structure definitions for use throughout DJI OSDK.">
<polygon fill="#ffffff" stroke="#000000" points="17.0962,-55.5 17.0962,-73.5 87.0269,-73.5 87.0269,-55.5 17.0962,-55.5"/>
<text text-anchor="middle" x="52.0615" y="-61.5" font-family="Helvetica,sans-Serif" font-size="10.00" fill="#000000">dji_type.hpp</text>
</a>
</g>
</g>
<!-- Node1&#45;&gt;Node2 -->
<g id="edge2" class="edge">
<title>Node1&#45;&gt;Node2</title>
<path fill="none" stroke="#191970" d="M52.0615,-110.4179C52.0615,-103.2164 52.0615,-92.8962 52.0615,-83.8632"/>
<polygon fill="#191970" stroke="#191970" points="55.5616,-83.7794 52.0615,-73.7795 48.5616,-83.7795 55.5616,-83.7794"/>
</g>
<!-- Node3 -->
<g id="node4" class="node">
<title>Node3</title>
<g id="a_node4"><a xlink:title=" ">
<polygon fill="#ffffff" stroke="#bfbfbf" points="0,-.5 0,-18.5 42.123,-18.5 42.123,-.5 0,-.5"/>
<text text-anchor="middle" x="21.0615" y="-6.5" font-family="Helvetica,sans-Serif" font-size="10.00" fill="#000000">cstdio</text>
</a>
</g>
</g>
<!-- Node2&#45;&gt;Node3 -->
<g id="edge3" class="edge">
<title>Node2&#45;&gt;Node3</title>
<path fill="none" stroke="#191970" d="M46.9425,-55.4179C42.7051,-47.8998 36.5519,-36.9829 31.3083,-27.6799"/>
<polygon fill="#191970" stroke="#191970" points="34.251,-25.7724 26.2918,-18.7795 28.1529,-29.2096 34.251,-25.7724"/>
</g>
<!-- Node4 -->
<g id="node5" class="node">
<title>Node4</title>
<g id="a_node5"><a xlink:title=" ">
<polygon fill="#ffffff" stroke="#bfbfbf" points="59.9409,-.5 59.9409,-18.5 108.1821,-18.5 108.1821,-.5 59.9409,-.5"/>
<text text-anchor="middle" x="84.0615" y="-6.5" font-family="Helvetica,sans-Serif" font-size="10.00" fill="#000000">stdint.h</text>
</a>
</g>
</g>
<!-- Node2&#45;&gt;Node4 -->
<g id="edge4" class="edge">
<title>Node2&#45;&gt;Node4</title>
<path fill="none" stroke="#191970" d="M57.3457,-55.4179C61.7198,-47.8998 68.0715,-36.9829 73.4842,-27.6799"/>
<polygon fill="#191970" stroke="#191970" points="76.6588,-29.1831 78.6626,-18.7795 70.6084,-25.6628 76.6588,-29.1831"/>
</g>
<!-- Node6 -->
<g id="node7" class="node">
<title>Node6</title>
<g id="a_node7"><a xlink:title=" ">
<polygon fill="#ffffff" stroke="#bfbfbf" points="120.855,-55.5 120.855,-73.5 235.2681,-73.5 235.2681,-55.5 120.855,-55.5"/>
<text text-anchor="middle" x="178.0615" y="-61.5" font-family="Helvetica,sans-Serif" font-size="10.00" fill="#000000">dji_open_protocol.hpp</text>
</a>
</g>
</g>
<!-- Node5&#45;&gt;Node6 -->
<g id="edge6" class="edge">
<title>Node5&#45;&gt;Node6</title>
<path fill="none" stroke="#191970" d="M178.0615,-110.4179C178.0615,-103.2164 178.0615,-92.8962 178.0615,-83.8632"/>
<polygon fill="#191970" stroke="#191970" points="181.5616,-83.7794 178.0615,-73.7795 174.5616,-83.7795 181.5616,-83.7794"/>
</g>
</g>
</svg>
