<?xml version="1.0" encoding="UTF-8" standalone="no"?>
<!DOCTYPE svg PUBLIC "-//W3C//DTD SVG 1.1//EN"
 "http://www.w3.org/Graphics/SVG/1.1/DTD/svg11.dtd">
<!-- Generated by graphviz version 2.40.1 (20161225.0304)
 -->
<!-- Title: osdk&#45;core/api/inc/dji_mfio.hpp Pages: 1 -->
<svg width="132pt" height="147pt"
 viewBox="0.00 0.00 131.85 147.00" xmlns="http://www.w3.org/2000/svg" xmlns:xlink="http://www.w3.org/1999/xlink">
<g id="graph0" class="graph" transform="scale(1 1) rotate(0) translate(4 143)">
<title>osdk&#45;core/api/inc/dji_mfio.hpp</title>
<polygon fill="#ffffff" stroke="transparent" points="-4,4 -4,-143 127.8467,-143 127.8467,4 -4,4"/>
<!-- Node0 -->
<g id="node1" class="node">
<title>Node0</title>
<g id="a_node1"><a xlink:title="MFIO API for DJI OSDK library.">
<polygon fill="#bfbfbf" stroke="#000000" points="9.7363,-110.5 9.7363,-138.5 114.1104,-138.5 114.1104,-110.5 9.7363,-110.5"/>
<text text-anchor="start" x="17.7363" y="-126.5" font-family="Helvetica,sans-Serif" font-size="10.00" fill="#000000">osdk&#45;core/api/inc/dji</text>
<text text-anchor="middle" x="61.9233" y="-116.5" font-family="Helvetica,sans-Serif" font-size="10.00" fill="#000000">_mfio.hpp</text>
</a>
</g>
</g>
<!-- Node1 -->
<g id="node2" class="node">
<title>Node1</title>
<g id="a_node2"><a xlink:href="dji__vehicle__callback_8hpp.html" target="_top" xlink:title="Type definition for new Vehicle&#45;style callbacks.">
<polygon fill="#ffffff" stroke="#000000" points="0,-55.5 0,-73.5 123.8467,-73.5 123.8467,-55.5 0,-55.5"/>
<text text-anchor="middle" x="61.9233" y="-61.5" font-family="Helvetica,sans-Serif" font-size="10.00" fill="#000000">dji_vehicle_callback.hpp</text>
</a>
</g>
</g>
<!-- Node0&#45;&gt;Node1 -->
<g id="edge1" class="edge">
<title>Node0&#45;&gt;Node1</title>
<path fill="none" stroke="#191970" d="M61.9233,-110.2808C61.9233,-102.3776 61.9233,-92.4316 61.9233,-83.8308"/>
<polygon fill="#191970" stroke="#191970" points="65.4234,-83.5842 61.9233,-73.5842 58.4234,-83.5842 65.4234,-83.5842"/>
</g>
<!-- Node2 -->
<g id="node3" class="node">
<title>Node2</title>
<g id="a_node3"><a xlink:title=" ">
<polygon fill="#ffffff" stroke="#bfbfbf" points="4.7168,-.5 4.7168,-18.5 119.1299,-18.5 119.1299,-.5 4.7168,-.5"/>
<text text-anchor="middle" x="61.9233" y="-6.5" font-family="Helvetica,sans-Serif" font-size="10.00" fill="#000000">dji_open_protocol.hpp</text>
</a>
</g>
</g>
<!-- Node1&#45;&gt;Node2 -->
<g id="edge2" class="edge">
<title>Node1&#45;&gt;Node2</title>
<path fill="none" stroke="#191970" d="M61.9233,-55.4179C61.9233,-48.2164 61.9233,-37.8962 61.9233,-28.8632"/>
<polygon fill="#191970" stroke="#191970" points="65.4234,-28.7794 61.9233,-18.7795 58.4234,-28.7795 65.4234,-28.7794"/>
</g>
</g>
</svg>
