<?xml version="1.0" encoding="UTF-8" standalone="no"?>
<!DOCTYPE svg PUBLIC "-//W3C//DTD SVG 1.1//EN"
 "http://www.w3.org/Graphics/SVG/1.1/DTD/svg11.dtd">
<!-- Generated by graphviz version 2.40.1 (20161225.0304)
 -->
<!-- Title: osdk&#45;core/api/inc/dji_subscription.hpp Pages: 1 -->
<svg width="291pt" height="202pt"
 viewBox="0.00 0.00 291.33 202.00" xmlns="http://www.w3.org/2000/svg" xmlns:xlink="http://www.w3.org/1999/xlink">
<g id="graph0" class="graph" transform="scale(1 1) rotate(0) translate(4 198)">
<title>osdk&#45;core/api/inc/dji_subscription.hpp</title>
<polygon fill="#ffffff" stroke="transparent" points="-4,4 -4,-198 287.3271,-198 287.3271,4 -4,4"/>
<!-- Node0 -->
<g id="node1" class="node">
<title>Node0</title>
<g id="a_node1"><a xlink:title="Telemetry Subscription API for DJI OSDK library.">
<polygon fill="#bfbfbf" stroke="#000000" points="50.0195,-165.5 50.0195,-193.5 154.3936,-193.5 154.3936,-165.5 50.0195,-165.5"/>
<text text-anchor="start" x="58.0195" y="-181.5" font-family="Helvetica,sans-Serif" font-size="10.00" fill="#000000">osdk&#45;core/api/inc/dji</text>
<text text-anchor="middle" x="102.2065" y="-171.5" font-family="Helvetica,sans-Serif" font-size="10.00" fill="#000000">_subscription.hpp</text>
</a>
</g>
</g>
<!-- Node1 -->
<g id="node2" class="node">
<title>Node1</title>
<g id="a_node2"><a xlink:title=" ">
<polygon fill="#ffffff" stroke="#bfbfbf" points="0,-55.5 0,-73.5 114.4131,-73.5 114.4131,-55.5 0,-55.5"/>
<text text-anchor="middle" x="57.2065" y="-61.5" font-family="Helvetica,sans-Serif" font-size="10.00" fill="#000000">dji_open_protocol.hpp</text>
</a>
</g>
</g>
<!-- Node0&#45;&gt;Node1 -->
<g id="edge1" class="edge">
<title>Node0&#45;&gt;Node1</title>
<path fill="none" stroke="#191970" d="M70.0591,-165.3356C55.3811,-157.0339 39.4592,-144.9971 31.2065,-129 23.291,-113.6564 32.3313,-95.3287 41.8545,-82.1384"/>
<polygon fill="#191970" stroke="#191970" points="44.8839,-83.9486 48.3221,-73.9272 39.3849,-79.6172 44.8839,-83.9486"/>
</g>
<!-- Node2 -->
<g id="node3" class="node">
<title>Node2</title>
<g id="a_node3"><a xlink:href="dji__telemetry_8hpp.html" target="_top" xlink:title="Enumeration of all telemetry data types, structures and maps.">
<polygon fill="#ffffff" stroke="#000000" points="182.499,-110.5 182.499,-128.5 273.9141,-128.5 273.9141,-110.5 182.499,-110.5"/>
<text text-anchor="middle" x="228.2065" y="-116.5" font-family="Helvetica,sans-Serif" font-size="10.00" fill="#000000">dji_telemetry.hpp</text>
</a>
</g>
</g>
<!-- Node0&#45;&gt;Node2 -->
<g id="edge2" class="edge">
<title>Node0&#45;&gt;Node2</title>
<path fill="none" stroke="#191970" d="M131.7479,-165.4327C152.3441,-155.625 179.6614,-142.6167 199.9664,-132.9477"/>
<polygon fill="#191970" stroke="#191970" points="201.5075,-136.0905 209.0313,-128.6311 198.4979,-129.7704 201.5075,-136.0905"/>
</g>
<!-- Node6 -->
<g id="node7" class="node">
<title>Node6</title>
<g id="a_node7"><a xlink:href="dji__vehicle__callback_8hpp.html" target="_top" xlink:title="Type definition for new Vehicle&#45;style callbacks.">
<polygon fill="#ffffff" stroke="#000000" points="40.2832,-110.5 40.2832,-128.5 164.1299,-128.5 164.1299,-110.5 40.2832,-110.5"/>
<text text-anchor="middle" x="102.2065" y="-116.5" font-family="Helvetica,sans-Serif" font-size="10.00" fill="#000000">dji_vehicle_callback.hpp</text>
</a>
</g>
</g>
<!-- Node0&#45;&gt;Node6 -->
<g id="edge6" class="edge">
<title>Node0&#45;&gt;Node6</title>
<path fill="none" stroke="#191970" d="M102.2065,-165.2808C102.2065,-157.3776 102.2065,-147.4316 102.2065,-138.8308"/>
<polygon fill="#191970" stroke="#191970" points="105.7066,-138.5842 102.2065,-128.5842 98.7066,-138.5842 105.7066,-138.5842"/>
</g>
<!-- Node3 -->
<g id="node4" class="node">
<title>Node3</title>
<g id="a_node4"><a xlink:href="dji__type_8hpp.html" target="_top" xlink:title="Data type and Data Structure definitions for use throughout DJI OSDK.">
<polygon fill="#ffffff" stroke="#000000" points="193.2412,-55.5 193.2412,-73.5 263.1719,-73.5 263.1719,-55.5 193.2412,-55.5"/>
<text text-anchor="middle" x="228.2065" y="-61.5" font-family="Helvetica,sans-Serif" font-size="10.00" fill="#000000">dji_type.hpp</text>
</a>
</g>
</g>
<!-- Node2&#45;&gt;Node3 -->
<g id="edge3" class="edge">
<title>Node2&#45;&gt;Node3</title>
<path fill="none" stroke="#191970" d="M228.2065,-110.4179C228.2065,-103.2164 228.2065,-92.8962 228.2065,-83.8632"/>
<polygon fill="#191970" stroke="#191970" points="231.7066,-83.7794 228.2065,-73.7795 224.7066,-83.7795 231.7066,-83.7794"/>
</g>
<!-- Node4 -->
<g id="node5" class="node">
<title>Node4</title>
<g id="a_node5"><a xlink:title=" ">
<polygon fill="#ffffff" stroke="#bfbfbf" points="175.145,-.5 175.145,-18.5 217.2681,-18.5 217.2681,-.5 175.145,-.5"/>
<text text-anchor="middle" x="196.2065" y="-6.5" font-family="Helvetica,sans-Serif" font-size="10.00" fill="#000000">cstdio</text>
</a>
</g>
</g>
<!-- Node3&#45;&gt;Node4 -->
<g id="edge4" class="edge">
<title>Node3&#45;&gt;Node4</title>
<path fill="none" stroke="#191970" d="M222.9224,-55.4179C218.5483,-47.8998 212.1966,-36.9829 206.7839,-27.6799"/>
<polygon fill="#191970" stroke="#191970" points="209.6597,-25.6628 201.6055,-18.7795 203.6093,-29.1831 209.6597,-25.6628"/>
</g>
<!-- Node5 -->
<g id="node6" class="node">
<title>Node5</title>
<g id="a_node6"><a xlink:title=" ">
<polygon fill="#ffffff" stroke="#bfbfbf" points="235.0859,-.5 235.0859,-18.5 283.3271,-18.5 283.3271,-.5 235.0859,-.5"/>
<text text-anchor="middle" x="259.2065" y="-6.5" font-family="Helvetica,sans-Serif" font-size="10.00" fill="#000000">stdint.h</text>
</a>
</g>
</g>
<!-- Node3&#45;&gt;Node5 -->
<g id="edge5" class="edge">
<title>Node3&#45;&gt;Node5</title>
<path fill="none" stroke="#191970" d="M233.3256,-55.4179C237.563,-47.8998 243.7162,-36.9829 248.9597,-27.6799"/>
<polygon fill="#191970" stroke="#191970" points="252.1152,-29.2096 253.9763,-18.7795 246.0171,-25.7724 252.1152,-29.2096"/>
</g>
<!-- Node6&#45;&gt;Node1 -->
<g id="edge7" class="edge">
<title>Node6&#45;&gt;Node1</title>
<path fill="none" stroke="#191970" d="M94.7757,-110.4179C88.4303,-102.6624 79.1256,-91.29 71.364,-81.8035"/>
<polygon fill="#191970" stroke="#191970" points="73.8401,-79.3027 64.7988,-73.7795 68.4224,-83.7354 73.8401,-79.3027"/>
</g>
</g>
</svg>
