<?xml version="1.0" encoding="UTF-8" standalone="no"?>
<!DOCTYPE svg PUBLIC "-//W3C//DTD SVG 1.1//EN"
 "http://www.w3.org/Graphics/SVG/1.1/DTD/svg11.dtd">
<!-- Generated by graphviz version 2.40.1 (20161225.0304)
 -->
<!-- Title: osdk&#45;core/api/src/dji_broadcast.cpp Pages: 1 -->
<svg width="1939pt" height="422pt"
 viewBox="0.00 0.00 1938.82 422.00" xmlns="http://www.w3.org/2000/svg" xmlns:xlink="http://www.w3.org/1999/xlink">
<g id="graph0" class="graph" transform="scale(1 1) rotate(0) translate(4 418)">
<title>osdk&#45;core/api/src/dji_broadcast.cpp</title>
<polygon fill="#ffffff" stroke="transparent" points="-4,4 -4,-418 1934.8196,-418 1934.8196,4 -4,4"/>
<!-- Node0 -->
<g id="node1" class="node">
<title>Node0</title>
<g id="a_node1"><a xlink:title="Broadcast Telemetry API for DJI onboardSDK library.">
<polygon fill="#bfbfbf" stroke="#000000" points="1295.3987,-385.5 1295.3987,-413.5 1400.3196,-413.5 1400.3196,-385.5 1295.3987,-385.5"/>
<text text-anchor="start" x="1303.3987" y="-401.5" font-family="Helvetica,sans-Serif" font-size="10.00" fill="#000000">osdk&#45;core/api/src/dji</text>
<text text-anchor="middle" x="1347.8591" y="-391.5" font-family="Helvetica,sans-Serif" font-size="10.00" fill="#000000">_broadcast.cpp</text>
</a>
</g>
</g>
<!-- Node1 -->
<g id="node2" class="node">
<title>Node1</title>
<g id="a_node2"><a xlink:href="dji__broadcast_8hpp.html" target="_top" xlink:title="Broadcast Telemetry API for DJI onboardSDK library.">
<polygon fill="#ffffff" stroke="#000000" points="1404.3864,-220.5 1404.3864,-238.5 1499.3318,-238.5 1499.3318,-220.5 1404.3864,-220.5"/>
<text text-anchor="middle" x="1451.8591" y="-226.5" font-family="Helvetica,sans-Serif" font-size="10.00" fill="#000000">dji_broadcast.hpp</text>
</a>
</g>
</g>
<!-- Node0&#45;&gt;Node1 -->
<g id="edge1" class="edge">
<title>Node0&#45;&gt;Node1</title>
<path fill="none" stroke="#191970" d="M1400.4796,-390.9014C1487.0768,-375.5587 1653.4914,-340.6483 1687.8591,-294 1692.8679,-287.2014 1693.2354,-281.5118 1687.8591,-275 1665.6824,-248.1393 1572.0547,-236.9617 1509.6048,-232.4357"/>
<polygon fill="#191970" stroke="#191970" points="1509.6991,-228.9341 1499.4826,-231.7401 1509.2191,-235.9176 1509.6991,-228.9341"/>
</g>
<!-- Node8 -->
<g id="node9" class="node">
<title>Node8</title>
<g id="a_node9"><a xlink:href="dji__vehicle_8hpp.html" target="_top" xlink:title="Vehicle API for DJI onboardSDK library.">
<polygon fill="#ffffff" stroke="#000000" points="947.7805,-330.5 947.7805,-348.5 1029.9377,-348.5 1029.9377,-330.5 947.7805,-330.5"/>
<text text-anchor="middle" x="988.8591" y="-336.5" font-family="Helvetica,sans-Serif" font-size="10.00" fill="#000000">dji_vehicle.hpp</text>
</a>
</g>
</g>
<!-- Node0&#45;&gt;Node8 -->
<g id="edge8" class="edge">
<title>Node0&#45;&gt;Node8</title>
<path fill="none" stroke="#191970" d="M1295.2729,-390.7112C1226.824,-379.2713 1107.9646,-359.4062 1040.1558,-348.0733"/>
<polygon fill="#191970" stroke="#191970" points="1040.5704,-344.5941 1030.1302,-346.3977 1039.4165,-351.4983 1040.5704,-344.5941"/>
</g>
<!-- Node2 -->
<g id="node3" class="node">
<title>Node2</title>
<g id="a_node3"><a xlink:href="dji__telemetry_8hpp.html" target="_top" xlink:title="Enumeration of all telemetry data types, structures and maps.">
<polygon fill="#ffffff" stroke="#000000" points="952.1516,-165.5 952.1516,-183.5 1043.5666,-183.5 1043.5666,-165.5 952.1516,-165.5"/>
<text text-anchor="middle" x="997.8591" y="-171.5" font-family="Helvetica,sans-Serif" font-size="10.00" fill="#000000">dji_telemetry.hpp</text>
</a>
</g>
</g>
<!-- Node1&#45;&gt;Node2 -->
<g id="edge2" class="edge">
<title>Node1&#45;&gt;Node2</title>
<path fill="none" stroke="#191970" d="M1404.3013,-221.3873C1401.1086,-220.9002 1397.9389,-220.4328 1394.8591,-220 1273.5546,-202.9513 1130.7194,-187.7748 1053.7632,-179.9986"/>
<polygon fill="#191970" stroke="#191970" points="1054.1042,-176.5153 1043.804,-178.9964 1053.4033,-183.4801 1054.1042,-176.5153"/>
</g>
<!-- Node6 -->
<g id="node7" class="node">
<title>Node6</title>
<g id="a_node7"><a xlink:href="dji__vehicle__callback_8hpp.html" target="_top" xlink:title="Type definition for new Vehicle&#45;style callbacks.">
<polygon fill="#ffffff" stroke="#000000" points="1275.9358,-110.5 1275.9358,-128.5 1399.7824,-128.5 1399.7824,-110.5 1275.9358,-110.5"/>
<text text-anchor="middle" x="1337.8591" y="-116.5" font-family="Helvetica,sans-Serif" font-size="10.00" fill="#000000">dji_vehicle_callback.hpp</text>
</a>
</g>
</g>
<!-- Node1&#45;&gt;Node6 -->
<g id="edge6" class="edge">
<title>Node1&#45;&gt;Node6</title>
<path fill="none" stroke="#191970" d="M1442.53,-220.4982C1423.324,-201.9662 1379.1292,-159.3221 1354.7576,-135.8056"/>
<polygon fill="#191970" stroke="#191970" points="1356.9436,-133.0512 1347.3171,-128.6261 1352.083,-138.0885 1356.9436,-133.0512"/>
</g>
<!-- Node3 -->
<g id="node4" class="node">
<title>Node3</title>
<g id="a_node4"><a xlink:href="dji__type_8hpp.html" target="_top" xlink:title="Data type and Data Structure definitions for use throughout DJI OSDK.">
<polygon fill="#ffffff" stroke="#000000" points="450.8938,-110.5 450.8938,-128.5 520.8244,-128.5 520.8244,-110.5 450.8938,-110.5"/>
<text text-anchor="middle" x="485.8591" y="-116.5" font-family="Helvetica,sans-Serif" font-size="10.00" fill="#000000">dji_type.hpp</text>
</a>
</g>
</g>
<!-- Node2&#45;&gt;Node3 -->
<g id="edge3" class="edge">
<title>Node2&#45;&gt;Node3</title>
<path fill="none" stroke="#191970" d="M951.9392,-166.1797C949.2085,-165.7601 946.4996,-165.3629 943.8591,-165 793.1692,-144.2895 613.3431,-129.2212 531.0313,-122.8554"/>
<polygon fill="#191970" stroke="#191970" points="531.2535,-119.3623 521.0149,-122.0866 530.7177,-126.3417 531.2535,-119.3623"/>
</g>
<!-- Node4 -->
<g id="node5" class="node">
<title>Node4</title>
<g id="a_node5"><a xlink:title=" ">
<polygon fill="#ffffff" stroke="#bfbfbf" points="489.7976,-55.5 489.7976,-73.5 531.9206,-73.5 531.9206,-55.5 489.7976,-55.5"/>
<text text-anchor="middle" x="510.8591" y="-61.5" font-family="Helvetica,sans-Serif" font-size="10.00" fill="#000000">cstdio</text>
</a>
</g>
</g>
<!-- Node3&#45;&gt;Node4 -->
<g id="edge4" class="edge">
<title>Node3&#45;&gt;Node4</title>
<path fill="none" stroke="#191970" d="M489.9873,-110.4179C493.3687,-102.9789 498.2626,-92.2123 502.4618,-82.9742"/>
<polygon fill="#191970" stroke="#191970" points="505.6894,-84.3315 506.6412,-73.7795 499.3168,-81.4348 505.6894,-84.3315"/>
</g>
<!-- Node5 -->
<g id="node6" class="node">
<title>Node5</title>
<g id="a_node6"><a xlink:title=" ">
<polygon fill="#ffffff" stroke="#bfbfbf" points="399.7385,-.5 399.7385,-18.5 447.9797,-18.5 447.9797,-.5 399.7385,-.5"/>
<text text-anchor="middle" x="423.8591" y="-6.5" font-family="Helvetica,sans-Serif" font-size="10.00" fill="#000000">stdint.h</text>
</a>
</g>
</g>
<!-- Node3&#45;&gt;Node5 -->
<g id="edge5" class="edge">
<title>Node3&#45;&gt;Node5</title>
<path fill="none" stroke="#191970" d="M480.7854,-110.4982C470.5671,-92.369 447.3429,-51.1647 433.929,-27.3659"/>
<polygon fill="#191970" stroke="#191970" points="436.9621,-25.6191 429.0029,-18.6261 430.8641,-29.0562 436.9621,-25.6191"/>
</g>
<!-- Node7 -->
<g id="node8" class="node">
<title>Node7</title>
<g id="a_node8"><a xlink:title=" ">
<polygon fill="#ffffff" stroke="#bfbfbf" points="1128.6526,-55.5 1128.6526,-73.5 1243.0656,-73.5 1243.0656,-55.5 1128.6526,-55.5"/>
<text text-anchor="middle" x="1185.8591" y="-61.5" font-family="Helvetica,sans-Serif" font-size="10.00" fill="#000000">dji_open_protocol.hpp</text>
</a>
</g>
</g>
<!-- Node6&#45;&gt;Node7 -->
<g id="edge7" class="edge">
<title>Node6&#45;&gt;Node7</title>
<path fill="none" stroke="#191970" d="M1312.7594,-110.4179C1287.4911,-101.2748 1248.33,-87.1046 1220.1946,-76.924"/>
<polygon fill="#191970" stroke="#191970" points="1221.3377,-73.6156 1210.7435,-73.5042 1218.9559,-80.198 1221.3377,-73.6156"/>
</g>
<!-- Node8&#45;&gt;Node1 -->
<g id="edge10" class="edge">
<title>Node8&#45;&gt;Node1</title>
<path fill="none" stroke="#191970" d="M1030.0479,-334.0011C1076.3998,-327.1979 1153.6153,-314.0056 1217.8591,-294 1238.1967,-287.6668 1241.6485,-281.7276 1261.8591,-275 1305.5821,-260.4456 1356.4097,-248.5245 1394.4867,-240.5409"/>
<polygon fill="#191970" stroke="#191970" points="1395.2911,-243.9487 1404.375,-238.4958 1393.8733,-237.0937 1395.2911,-243.9487"/>
</g>
<!-- Node8&#45;&gt;Node3 -->
<g id="edge62" class="edge">
<title>Node8&#45;&gt;Node3</title>
<path fill="none" stroke="#191970" d="M947.6307,-337.5784C824.1099,-331.6357 462.5151,-312.8188 412.8591,-294 369.6588,-277.6277 325.8362,-264.0191 339.8591,-220 348.9549,-191.4476 355.5211,-183.7967 378.8591,-165 397.4524,-150.0247 421.7035,-139.175 442.4161,-131.8352"/>
<polygon fill="#191970" stroke="#191970" points="443.6025,-135.1288 451.9542,-128.6096 441.3599,-128.4977 443.6025,-135.1288"/>
</g>
<!-- Node8&#45;&gt;Node6 -->
<g id="edge63" class="edge">
<title>Node8&#45;&gt;Node6</title>
<path fill="none" stroke="#191970" d="M1030.0016,-339.0122C1147.0894,-337.2004 1475.7811,-329.0133 1507.8591,-294 1530.0763,-269.7498 1524.1565,-248.567 1507.8591,-220 1481.02,-172.955 1422.5694,-145.7016 1381.7418,-131.7282"/>
<polygon fill="#191970" stroke="#191970" points="1382.6227,-128.3336 1372.0298,-128.5389 1380.4387,-134.9842 1382.6227,-128.3336"/>
</g>
<!-- Node8&#45;&gt;Node7 -->
<g id="edge54" class="edge">
<title>Node8&#45;&gt;Node7</title>
<path fill="none" stroke="#191970" d="M1030.1929,-332.1187C1071.3762,-324.0036 1130.8599,-309.9766 1147.8591,-294 1203.6026,-241.61 1189.9891,-205.1896 1196.8591,-129 1197.6175,-120.5897 1197.8583,-118.3851 1196.8591,-110 1195.8145,-101.2342 1193.6759,-91.7153 1191.5598,-83.6607"/>
<polygon fill="#191970" stroke="#191970" points="1194.8629,-82.4766 1188.7929,-73.7929 1188.1228,-84.3665 1194.8629,-82.4766"/>
</g>
<!-- Node9 -->
<g id="node10" class="node">
<title>Node9</title>
<g id="a_node10"><a xlink:title=" ">
<polygon fill="#ffffff" stroke="#bfbfbf" points="863.4084,-110.5 863.4084,-128.5 908.3098,-128.5 908.3098,-110.5 863.4084,-110.5"/>
<text text-anchor="middle" x="885.8591" y="-116.5" font-family="Helvetica,sans-Serif" font-size="10.00" fill="#000000">cstdint</text>
</a>
</g>
</g>
<!-- Node8&#45;&gt;Node9 -->
<g id="edge9" class="edge">
<title>Node8&#45;&gt;Node9</title>
<path fill="none" stroke="#191970" d="M965.0063,-330.3158C940.3389,-319.2898 907.0831,-299.2217 919.8591,-275 955.6467,-207.151 1099.4286,-225.9551 1052.8591,-165 1036.6376,-143.7676 962.3636,-130.0773 918.5205,-123.6967"/>
<polygon fill="#191970" stroke="#191970" points="918.7355,-120.1927 908.3458,-122.2674 917.7616,-127.1246 918.7355,-120.1927"/>
</g>
<!-- Node10 -->
<g id="node11" class="node">
<title>Node10</title>
<g id="a_node11"><a xlink:href="dji__camera_8hpp.html" target="_top" xlink:title="Camera/Gimbal API for DJI onboardSDK library.">
<polygon fill="#ffffff" stroke="#000000" points="12.6721,-165.5 12.6721,-183.5 97.0461,-183.5 97.0461,-165.5 12.6721,-165.5"/>
<text text-anchor="middle" x="54.8591" y="-171.5" font-family="Helvetica,sans-Serif" font-size="10.00" fill="#000000">dji_camera.hpp</text>
</a>
</g>
</g>
<!-- Node8&#45;&gt;Node10 -->
<g id="edge11" class="edge">
<title>Node8&#45;&gt;Node10</title>
<path fill="none" stroke="#191970" d="M947.7654,-338.1321C802.226,-333.1278 316.4376,-315.0075 249.8591,-294 178.2553,-271.4069 106.035,-216.9872 73.1793,-190.088"/>
<polygon fill="#191970" stroke="#191970" points="75.2714,-187.2759 65.3427,-183.5784 70.7985,-192.6605 75.2714,-187.2759"/>
</g>
<!-- Node11 -->
<g id="node12" class="node">
<title>Node11</title>
<g id="a_node12"><a xlink:href="dji__command_8hpp.html" target="_top" xlink:title="All DJI OSDK OpenProtocol Command IDs.">
<polygon fill="#ffffff" stroke="#000000" points="313.3913,-110.5 313.3913,-128.5 408.3269,-128.5 408.3269,-110.5 313.3913,-110.5"/>
<text text-anchor="middle" x="360.8591" y="-116.5" font-family="Helvetica,sans-Serif" font-size="10.00" fill="#000000">dji_command.hpp</text>
</a>
</g>
</g>
<!-- Node8&#45;&gt;Node11 -->
<g id="edge18" class="edge">
<title>Node8&#45;&gt;Node11</title>
<path fill="none" stroke="#191970" d="M947.7132,-338.2047C795.9632,-333.2797 272.7263,-314.9355 200.8591,-294 104.5809,-265.9534 54.6209,-270.4832 3.8591,-184 -.4155,-176.7174 -1.7218,-171.3374 3.8591,-165 23.2818,-142.9447 206.9841,-128.7318 303.0039,-122.7468"/>
<polygon fill="#191970" stroke="#191970" points="303.3716,-126.231 313.1386,-122.1254 302.9431,-119.2441 303.3716,-126.231"/>
</g>
<!-- Node13 -->
<g id="node14" class="node">
<title>Node13</title>
<g id="a_node14"><a xlink:title=" ">
<polygon fill="#ffffff" stroke="#bfbfbf" points="680.0261,-275.5 680.0261,-293.5 793.6921,-293.5 793.6921,-275.5 680.0261,-275.5"/>
<text text-anchor="middle" x="736.8591" y="-281.5" font-family="Helvetica,sans-Serif" font-size="10.00" fill="#000000">dji_circular_buffer.hpp</text>
</a>
</g>
</g>
<!-- Node8&#45;&gt;Node13 -->
<g id="edge17" class="edge">
<title>Node8&#45;&gt;Node13</title>
<path fill="none" stroke="#191970" d="M947.5286,-330.4795C903.9494,-320.9681 835.2198,-305.9676 788.1946,-295.7042"/>
<polygon fill="#191970" stroke="#191970" points="788.7285,-292.2384 778.2122,-293.5255 787.2358,-299.0774 788.7285,-292.2384"/>
</g>
<!-- Node14 -->
<g id="node15" class="node">
<title>Node14</title>
<g id="a_node15"><a xlink:href="dji__control_8hpp.html" target="_top" xlink:title="Control API for DJI OSDK library.">
<polygon fill="#ffffff" stroke="#000000" points="1057.3371,-275.5 1057.3371,-293.5 1138.3811,-293.5 1138.3811,-275.5 1057.3371,-275.5"/>
<text text-anchor="middle" x="1097.8591" y="-281.5" font-family="Helvetica,sans-Serif" font-size="10.00" fill="#000000">dji_control.hpp</text>
</a>
</g>
</g>
<!-- Node8&#45;&gt;Node14 -->
<g id="edge19" class="edge">
<title>Node8&#45;&gt;Node14</title>
<path fill="none" stroke="#191970" d="M1006.8582,-330.4179C1024.2141,-321.6603 1050.7102,-308.2907 1070.6437,-298.2326"/>
<polygon fill="#191970" stroke="#191970" points="1072.4821,-301.2253 1079.8332,-293.5956 1069.3287,-294.9758 1072.4821,-301.2253"/>
</g>
<!-- Node17 -->
<g id="node18" class="node">
<title>Node17</title>
<g id="a_node18"><a xlink:href="dji__version_8hpp.html" target="_top" xlink:title="Drone/SDK Version definition for DJI onboardSDK library.">
<polygon fill="#ffffff" stroke="#000000" points="632.2263,-165.5 632.2263,-183.5 715.4919,-183.5 715.4919,-165.5 632.2263,-165.5"/>
<text text-anchor="middle" x="673.8591" y="-171.5" font-family="Helvetica,sans-Serif" font-size="10.00" fill="#000000">dji_version.hpp</text>
</a>
</g>
</g>
<!-- Node8&#45;&gt;Node17 -->
<g id="edge64" class="edge">
<title>Node8&#45;&gt;Node17</title>
<path fill="none" stroke="#191970" d="M955.9478,-330.4827C928.9092,-322.5097 889.972,-309.7165 857.8591,-294 794.6888,-263.0836 726.9242,-214.5997 694.0542,-189.9724"/>
<polygon fill="#191970" stroke="#191970" points="695.8303,-186.9278 685.7412,-183.6933 691.6112,-192.5135 695.8303,-186.9278"/>
</g>
<!-- Node19 -->
<g id="node20" class="node">
<title>Node19</title>
<g id="a_node20"><a xlink:href="dji__gimbal_8hpp.html" target="_top" xlink:title="Gimbal API for OSDK library.">
<polygon fill="#ffffff" stroke="#000000" points="114.6154,-165.5 114.6154,-183.5 195.1028,-183.5 195.1028,-165.5 114.6154,-165.5"/>
<text text-anchor="middle" x="154.8591" y="-171.5" font-family="Helvetica,sans-Serif" font-size="10.00" fill="#000000">dji_gimbal.hpp</text>
</a>
</g>
</g>
<!-- Node8&#45;&gt;Node19 -->
<g id="edge32" class="edge">
<title>Node8&#45;&gt;Node19</title>
<path fill="none" stroke="#191970" d="M947.7381,-338.4104C806.6643,-334.4563 347.668,-319.7261 286.8591,-294 234.168,-271.7082 188.6713,-219.1892 167.5067,-191.8005"/>
<polygon fill="#191970" stroke="#191970" points="170.1033,-189.4308 161.2867,-183.5555 164.5151,-193.6465 170.1033,-189.4308"/>
</g>
<!-- Node20 -->
<g id="node21" class="node">
<title>Node20</title>
<g id="a_node21"><a xlink:title=" ">
<polygon fill="#ffffff" stroke="#bfbfbf" points="938.3274,-275.5 938.3274,-293.5 1039.3908,-293.5 1039.3908,-275.5 938.3274,-275.5"/>
<text text-anchor="middle" x="988.8591" y="-281.5" font-family="Helvetica,sans-Serif" font-size="10.00" fill="#000000">dji_hard_driver.hpp</text>
</a>
</g>
</g>
<!-- Node8&#45;&gt;Node20 -->
<g id="edge35" class="edge">
<title>Node8&#45;&gt;Node20</title>
<path fill="none" stroke="#191970" d="M988.8591,-330.4179C988.8591,-323.2164 988.8591,-312.8962 988.8591,-303.8632"/>
<polygon fill="#191970" stroke="#191970" points="992.3592,-303.7794 988.8591,-293.7795 985.3592,-303.7795 992.3592,-303.7794"/>
</g>
<!-- Node21 -->
<g id="node22" class="node">
<title>Node21</title>
<g id="a_node22"><a xlink:href="dji__hardware__sync_8hpp.html" target="_top" xlink:title="Hardware Sync API for DJI OSDK.">
<polygon fill="#ffffff" stroke="#000000" points="213.4382,-165.5 213.4382,-183.5 332.28,-183.5 332.28,-165.5 213.4382,-165.5"/>
<text text-anchor="middle" x="272.8591" y="-171.5" font-family="Helvetica,sans-Serif" font-size="10.00" fill="#000000">dji_hardware_sync.hpp</text>
</a>
</g>
</g>
<!-- Node8&#45;&gt;Node21 -->
<g id="edge36" class="edge">
<title>Node8&#45;&gt;Node21</title>
<path fill="none" stroke="#191970" d="M947.4424,-338.0451C803.4273,-332.8174 331.8567,-314.2191 306.8591,-294 276.7767,-269.6681 272.1582,-220.7647 272.0886,-193.6694"/>
<polygon fill="#191970" stroke="#191970" points="275.5905,-193.5906 272.2762,-183.5276 268.5917,-193.4611 275.5905,-193.5906"/>
</g>
<!-- Node22 -->
<g id="node23" class="node">
<title>Node22</title>
<g id="a_node23"><a xlink:href="dji__mfio_8hpp.html" target="_top" xlink:title="MFIO API for DJI OSDK library.">
<polygon fill="#ffffff" stroke="#000000" points="1860.8987,-220.5 1860.8987,-238.5 1930.8196,-238.5 1930.8196,-220.5 1860.8987,-220.5"/>
<text text-anchor="middle" x="1895.8591" y="-226.5" font-family="Helvetica,sans-Serif" font-size="10.00" fill="#000000">dji_mfio.hpp</text>
</a>
</g>
</g>
<!-- Node8&#45;&gt;Node22 -->
<g id="edge38" class="edge">
<title>Node8&#45;&gt;Node22</title>
<path fill="none" stroke="#191970" d="M1030.2195,-338.9984C1204.0148,-336.6924 1867.5879,-325.8243 1897.8591,-294 1909.0575,-282.227 1906.9256,-263.092 1902.9732,-248.715"/>
<polygon fill="#191970" stroke="#191970" points="1906.1908,-247.2893 1899.7865,-238.8491 1899.5296,-249.4409 1906.1908,-247.2893"/>
</g>
<!-- Node23 -->
<g id="node24" class="node">
<title>Node23</title>
<g id="a_node24"><a xlink:href="dji__mission__manager_8hpp.html" target="_top" xlink:title="Mission&#45;Manager API for DJI OSDK library.">
<polygon fill="#ffffff" stroke="#000000" points="422.155,-275.5 422.155,-293.5 551.5632,-293.5 551.5632,-275.5 422.155,-275.5"/>
<text text-anchor="middle" x="486.8591" y="-281.5" font-family="Helvetica,sans-Serif" font-size="10.00" fill="#000000">dji_mission_manager.hpp</text>
</a>
</g>
</g>
<!-- Node8&#45;&gt;Node23 -->
<g id="edge40" class="edge">
<title>Node8&#45;&gt;Node23</title>
<path fill="none" stroke="#191970" d="M947.5089,-335.4063C872.8072,-327.945 710.1321,-311.3968 562.0075,-294.1134"/>
<polygon fill="#191970" stroke="#191970" points="562.1605,-290.6075 551.8214,-292.921 561.3466,-297.56 562.1605,-290.6075"/>
</g>
<!-- Node27 -->
<g id="node28" class="node">
<title>Node27</title>
<g id="a_node28"><a xlink:href="dji__mobile__communication_8hpp.html" target="_top" xlink:title="Implementation of DJI Mobile&#45;Onboard SDK Communication (MOC)">
<polygon fill="#ffffff" stroke="#000000" points="1735.2092,-275.5 1735.2092,-293.5 1888.509,-293.5 1888.509,-275.5 1735.2092,-275.5"/>
<text text-anchor="middle" x="1811.8591" y="-281.5" font-family="Helvetica,sans-Serif" font-size="10.00" fill="#000000">dji_mobile_communication.hpp</text>
</a>
</g>
</g>
<!-- Node8&#45;&gt;Node27 -->
<g id="edge49" class="edge">
<title>Node8&#45;&gt;Node27</title>
<path fill="none" stroke="#191970" d="M1030.2328,-336.973C1138.356,-330.3329 1438.2702,-311.6835 1687.8591,-294 1699.9248,-293.1451 1712.6481,-292.2095 1725.1634,-291.2693"/>
<polygon fill="#191970" stroke="#191970" points="1725.4312,-294.7591 1735.1392,-290.5158 1724.9039,-287.779 1725.4312,-294.7591"/>
</g>
<!-- Node29 -->
<g id="node30" class="node">
<title>Node29</title>
<g id="a_node30"><a xlink:href="dji__mobile__device_8hpp.html" target="_top" xlink:title="Implementation of DJI Mobile Device Abstraction.">
<polygon fill="#ffffff" stroke="#000000" points="1271.3816,-220.5 1271.3816,-238.5 1386.3366,-238.5 1386.3366,-220.5 1271.3816,-220.5"/>
<text text-anchor="middle" x="1328.8591" y="-226.5" font-family="Helvetica,sans-Serif" font-size="10.00" fill="#000000">dji_mobile_device.hpp</text>
</a>
</g>
</g>
<!-- Node8&#45;&gt;Node29 -->
<g id="edge52" class="edge">
<title>Node8&#45;&gt;Node29</title>
<path fill="none" stroke="#191970" d="M1030.2774,-331.9079C1069.5697,-324.1865 1130.0003,-310.9579 1180.8591,-294 1203.8875,-286.3216 1263.5096,-259.5048 1299.6625,-242.9638"/>
<polygon fill="#191970" stroke="#191970" points="1301.5568,-245.9456 1309.1873,-238.5953 1298.6385,-239.5829 1301.5568,-245.9456"/>
</g>
<!-- Node30 -->
<g id="node31" class="node">
<title>Node30</title>
<g id="a_node31"><a xlink:title=" ">
<polygon fill="#ffffff" stroke="#bfbfbf" points="1271.0417,-275.5 1271.0417,-293.5 1402.6765,-293.5 1402.6765,-275.5 1271.0417,-275.5"/>
<text text-anchor="middle" x="1336.8591" y="-281.5" font-family="Helvetica,sans-Serif" font-size="10.00" fill="#000000">dji_platform_manager.hpp</text>
</a>
</g>
</g>
<!-- Node8&#45;&gt;Node30 -->
<g id="edge55" class="edge">
<title>Node8&#45;&gt;Node30</title>
<path fill="none" stroke="#191970" d="M1030.1458,-332.9748C1089.263,-323.6316 1198.7003,-306.3354 1269.6023,-295.1297"/>
<polygon fill="#191970" stroke="#191970" points="1270.442,-298.5405 1279.773,-293.5222 1269.3492,-291.6263 1270.442,-298.5405"/>
</g>
<!-- Node31 -->
<g id="node32" class="node">
<title>Node31</title>
<g id="a_node32"><a xlink:href="dji__status_8hpp.html" target="_top" xlink:title="Status information for DJI Vehicle.">
<polygon fill="#ffffff" stroke="#000000" points="1421.0046,-275.5 1421.0046,-293.5 1498.7136,-293.5 1498.7136,-275.5 1421.0046,-275.5"/>
<text text-anchor="middle" x="1459.8591" y="-281.5" font-family="Helvetica,sans-Serif" font-size="10.00" fill="#000000">dji_status.hpp</text>
</a>
</g>
</g>
<!-- Node8&#45;&gt;Node31 -->
<g id="edge56" class="edge">
<title>Node8&#45;&gt;Node31</title>
<path fill="none" stroke="#191970" d="M1030.1462,-336.277C1104.305,-330.2238 1265.1411,-315.8944 1410.8578,-294.0329"/>
<polygon fill="#191970" stroke="#191970" points="1411.5145,-297.4735 1420.877,-292.5141 1410.4653,-290.5525 1411.5145,-297.4735"/>
</g>
<!-- Node32 -->
<g id="node33" class="node">
<title>Node32</title>
<g id="a_node33"><a xlink:href="dji__subscription_8hpp.html" target="_top" xlink:title="Telemetry Subscription API for DJI OSDK library.">
<polygon fill="#ffffff" stroke="#000000" points="1035.6648,-220.5 1035.6648,-238.5 1140.0534,-238.5 1140.0534,-220.5 1035.6648,-220.5"/>
<text text-anchor="middle" x="1087.8591" y="-226.5" font-family="Helvetica,sans-Serif" font-size="10.00" fill="#000000">dji_subscription.hpp</text>
</a>
</g>
</g>
<!-- Node8&#45;&gt;Node32 -->
<g id="edge57" class="edge">
<title>Node8&#45;&gt;Node32</title>
<path fill="none" stroke="#191970" d="M969.4036,-330.4266C946.3143,-318.4096 912.8384,-296.2484 928.8591,-275 940.7598,-259.216 985.8582,-247.2481 1024.999,-239.5576"/>
<polygon fill="#191970" stroke="#191970" points="1026.1493,-242.9018 1035.3214,-237.5987 1024.8442,-236.0246 1026.1493,-242.9018"/>
</g>
<!-- Node33 -->
<g id="node34" class="node">
<title>Node33</title>
<g id="a_node34"><a xlink:title=" ">
<polygon fill="#ffffff" stroke="#bfbfbf" points="1554.926,-275.5 1554.926,-293.5 1678.7922,-293.5 1678.7922,-275.5 1554.926,-275.5"/>
<text text-anchor="middle" x="1616.8591" y="-281.5" font-family="Helvetica,sans-Serif" font-size="10.00" fill="#000000">dji_thread_manager.hpp</text>
</a>
</g>
</g>
<!-- Node8&#45;&gt;Node33 -->
<g id="edge61" class="edge">
<title>Node8&#45;&gt;Node33</title>
<path fill="none" stroke="#191970" d="M1030.1158,-336.6961C1121.9743,-330.3222 1350.2849,-313.7563 1540.8591,-294 1542.1239,-293.8689 1543.4002,-293.7343 1544.6854,-293.5967"/>
<polygon fill="#191970" stroke="#191970" points="1545.1165,-297.0705 1554.67,-292.4901 1544.3453,-290.1131 1545.1165,-297.0705"/>
</g>
<!-- Node34 -->
<g id="node35" class="node">
<title>Node34</title>
<g id="a_node35"><a xlink:href="dji__virtual__rc_8hpp.html" target="_top" xlink:title="Virtual Radio Control API for DJI onboardSDK library.">
<polygon fill="#ffffff" stroke="#000000" points="570.0612,-275.5 570.0612,-293.5 661.657,-293.5 661.657,-275.5 570.0612,-275.5"/>
<text text-anchor="middle" x="615.8591" y="-281.5" font-family="Helvetica,sans-Serif" font-size="10.00" fill="#000000">dji_virtual_rc.hpp</text>
</a>
</g>
</g>
<!-- Node8&#45;&gt;Node34 -->
<g id="edge65" class="edge">
<title>Node8&#45;&gt;Node34</title>
<path fill="none" stroke="#191970" d="M947.6375,-333.9897C888.8456,-326.0455 777.2714,-310.655 671.9315,-294.1325"/>
<polygon fill="#191970" stroke="#191970" points="672.1816,-290.6289 661.7588,-292.5303 671.0924,-297.5436 672.1816,-290.6289"/>
</g>
<!-- Node10&#45;&gt;Node3 -->
<g id="edge16" class="edge">
<title>Node10&#45;&gt;Node3</title>
<path fill="none" stroke="#191970" d="M97.122,-166.3955C100.075,-165.9007 103.0093,-165.4298 105.8591,-165 243.448,-144.2472 278.8175,-146.4903 416.8591,-129 424.6192,-128.0168 432.8632,-126.9239 440.8511,-125.8395"/>
<polygon fill="#191970" stroke="#191970" points="441.3442,-129.3047 450.7764,-124.4794 440.3938,-122.3695 441.3442,-129.3047"/>
</g>
<!-- Node10&#45;&gt;Node11 -->
<g id="edge12" class="edge">
<title>Node10&#45;&gt;Node11</title>
<path fill="none" stroke="#191970" d="M97.1553,-166.5957C100.1004,-166.0532 103.0238,-165.517 105.8591,-165 173.6715,-152.6344 251.6973,-138.7646 303.3946,-129.6251"/>
<polygon fill="#191970" stroke="#191970" points="304.1337,-133.0488 313.3722,-127.8621 302.9157,-126.1556 304.1337,-133.0488"/>
</g>
<!-- Node11&#45;&gt;Node5 -->
<g id="edge15" class="edge">
<title>Node11&#45;&gt;Node5</title>
<path fill="none" stroke="#191970" d="M372.5809,-110.2189C382.5154,-101.7665 396.4505,-88.4319 404.8591,-74 413.0315,-59.9735 417.9317,-42.153 420.7032,-28.7995"/>
<polygon fill="#191970" stroke="#191970" points="424.1728,-29.2851 422.5557,-18.8144 417.2902,-28.0081 424.1728,-29.2851"/>
</g>
<!-- Node12 -->
<g id="node13" class="node">
<title>Node12</title>
<g id="a_node13"><a xlink:href="dji__error_8hpp.html" target="_top" xlink:title="All DJI OSDK OpenProtocol ACK Error Codes.">
<polygon fill="#ffffff" stroke="#000000" points="324.0612,-55.5 324.0612,-73.5 395.657,-73.5 395.657,-55.5 324.0612,-55.5"/>
<text text-anchor="middle" x="359.8591" y="-61.5" font-family="Helvetica,sans-Serif" font-size="10.00" fill="#000000">dji_error.hpp</text>
</a>
</g>
</g>
<!-- Node11&#45;&gt;Node12 -->
<g id="edge13" class="edge">
<title>Node11&#45;&gt;Node12</title>
<path fill="none" stroke="#191970" d="M360.694,-110.4179C360.563,-103.2164 360.3754,-92.8962 360.2112,-83.8632"/>
<polygon fill="#191970" stroke="#191970" points="363.7091,-83.7141 360.0278,-73.7795 356.7103,-83.8415 363.7091,-83.7141"/>
</g>
<!-- Node12&#45;&gt;Node5 -->
<g id="edge14" class="edge">
<title>Node12&#45;&gt;Node5</title>
<path fill="none" stroke="#191970" d="M370.4274,-55.4179C379.9124,-47.2667 394.0466,-35.1201 405.3958,-25.3669"/>
<polygon fill="#191970" stroke="#191970" points="407.7582,-27.9516 413.0612,-18.7795 403.1958,-22.6427 407.7582,-27.9516"/>
</g>
<!-- Node14&#45;&gt;Node3 -->
<g id="edge30" class="edge">
<title>Node14&#45;&gt;Node3</title>
<path fill="none" stroke="#191970" d="M1071.9804,-275.3954C1055.8536,-268.2187 1036.4126,-256.4692 1026.8591,-239 1010.1329,-208.415 1076.5023,-190.6165 1052.8591,-165 1035.211,-145.8789 662.203,-127.3978 531.0101,-121.4668"/>
<polygon fill="#191970" stroke="#191970" points="531.0423,-117.9648 520.8954,-121.0128 530.7284,-124.9578 531.0423,-117.9648"/>
</g>
<!-- Node14&#45;&gt;Node6 -->
<g id="edge31" class="edge">
<title>Node14&#45;&gt;Node6</title>
<path fill="none" stroke="#191970" d="M1116.6935,-275.3704C1134.0432,-266.7123 1160.2865,-252.9816 1181.8591,-239 1234.009,-205.2007 1290.9275,-158.9981 1319.4249,-135.156"/>
<polygon fill="#191970" stroke="#191970" points="1321.9214,-137.6295 1327.3197,-128.513 1317.4146,-132.2733 1321.9214,-137.6295"/>
</g>
<!-- Node14&#45;&gt;Node7 -->
<g id="edge29" class="edge">
<title>Node14&#45;&gt;Node7</title>
<path fill="none" stroke="#191970" d="M1112.2562,-275.4762C1123.9539,-267.3709 1139.9284,-254.3959 1148.8591,-239 1178.1882,-188.4386 1184.3823,-117.5765 1185.6126,-83.8337"/>
<polygon fill="#191970" stroke="#191970" points="1189.1188,-83.6251 1185.8705,-73.5406 1182.121,-83.4497 1189.1188,-83.6251"/>
</g>
<!-- Node15 -->
<g id="node16" class="node">
<title>Node15</title>
<g id="a_node16"><a xlink:href="dji__ack_8hpp.html" target="_top" xlink:title="All DJI OSDK ACK parsing.">
<polygon fill="#ffffff" stroke="#000000" points="837.5637,-220.5 837.5637,-238.5 904.1545,-238.5 904.1545,-220.5 837.5637,-220.5"/>
<text text-anchor="middle" x="870.8591" y="-226.5" font-family="Helvetica,sans-Serif" font-size="10.00" fill="#000000">dji_ack.hpp</text>
</a>
</g>
</g>
<!-- Node14&#45;&gt;Node15 -->
<g id="edge20" class="edge">
<title>Node14&#45;&gt;Node15</title>
<path fill="none" stroke="#191970" d="M1060.6289,-275.4795C1020.4555,-265.7458 956.5552,-250.2634 914.164,-239.9924"/>
<polygon fill="#191970" stroke="#191970" points="914.9497,-236.5815 904.4067,-237.6283 913.3013,-243.3847 914.9497,-236.5815"/>
</g>
<!-- Node15&#45;&gt;Node3 -->
<g id="edge24" class="edge">
<title>Node15&#45;&gt;Node3</title>
<path fill="none" stroke="#191970" d="M871.0811,-220.363C870.8843,-206.1413 868.232,-178.9032 851.8591,-165 827.8027,-144.5723 623.7276,-128.6227 531.175,-122.3693"/>
<polygon fill="#191970" stroke="#191970" points="531.1987,-118.8632 520.9879,-121.6898 530.7327,-125.8476 531.1987,-118.8632"/>
</g>
<!-- Node15&#45;&gt;Node11 -->
<g id="edge21" class="edge">
<title>Node15&#45;&gt;Node11</title>
<path fill="none" stroke="#191970" d="M837.4394,-224.023C789.6877,-216.0488 699.2563,-200.3966 622.8591,-184 545.5696,-167.4118 456.3317,-144.6664 404.4814,-131.0891"/>
<polygon fill="#191970" stroke="#191970" points="405.1856,-127.6554 394.6245,-128.5004 403.4074,-134.4258 405.1856,-127.6554"/>
</g>
<!-- Node16 -->
<g id="node17" class="node">
<title>Node16</title>
<g id="a_node17"><a xlink:href="dji__mission__type_8hpp.html" target="_top" xlink:title="Mission related data struct for DJI OSDK library.">
<polygon fill="#ffffff" stroke="#000000" points="733.1648,-165.5 733.1648,-183.5 842.5534,-183.5 842.5534,-165.5 733.1648,-165.5"/>
<text text-anchor="middle" x="787.8591" y="-171.5" font-family="Helvetica,sans-Serif" font-size="10.00" fill="#000000">dji_mission_type.hpp</text>
</a>
</g>
</g>
<!-- Node15&#45;&gt;Node16 -->
<g id="edge22" class="edge">
<title>Node15&#45;&gt;Node16</title>
<path fill="none" stroke="#191970" d="M857.1533,-220.4179C844.418,-211.9788 825.2196,-199.257 810.2579,-189.3426"/>
<polygon fill="#191970" stroke="#191970" points="811.8545,-186.2019 801.5852,-183.5956 807.9878,-192.037 811.8545,-186.2019"/>
</g>
<!-- Node15&#45;&gt;Node17 -->
<g id="edge25" class="edge">
<title>Node15&#45;&gt;Node17</title>
<path fill="none" stroke="#191970" d="M838.3286,-220.4179C804.8645,-211.0751 752.5997,-196.4834 715.992,-186.263"/>
<polygon fill="#191970" stroke="#191970" points="716.6834,-182.8222 706.1105,-183.5042 714.801,-189.5644 716.6834,-182.8222"/>
</g>
<!-- Node18 -->
<g id="node19" class="node">
<title>Node18</title>
<g id="a_node19"><a xlink:title=" ">
<polygon fill="#ffffff" stroke="#bfbfbf" points="899.1325,-165.5 899.1325,-183.5 934.5857,-183.5 934.5857,-165.5 899.1325,-165.5"/>
<text text-anchor="middle" x="916.8591" y="-171.5" font-family="Helvetica,sans-Serif" font-size="10.00" fill="#000000">map</text>
</a>
</g>
</g>
<!-- Node15&#45;&gt;Node18 -->
<g id="edge28" class="edge">
<title>Node15&#45;&gt;Node18</title>
<path fill="none" stroke="#191970" d="M878.4551,-220.4179C885.0076,-212.5833 894.6473,-201.0575 902.6295,-191.5137"/>
<polygon fill="#191970" stroke="#191970" points="905.3673,-193.6957 909.0981,-183.7795 899.9977,-189.2048 905.3673,-193.6957"/>
</g>
<!-- Node16&#45;&gt;Node3 -->
<g id="edge23" class="edge">
<title>Node16&#45;&gt;Node3</title>
<path fill="none" stroke="#191970" d="M738.3281,-165.4795C680.8289,-155.0077 586.7949,-137.8824 531.1623,-127.7506"/>
<polygon fill="#191970" stroke="#191970" points="531.7042,-124.2918 521.2389,-125.9433 530.4499,-131.1785 531.7042,-124.2918"/>
</g>
<!-- Node17&#45;&gt;Node9 -->
<g id="edge27" class="edge">
<title>Node17&#45;&gt;Node9</title>
<path fill="none" stroke="#191970" d="M708.8666,-165.4179C749.027,-154.9989 814.3495,-138.052 853.4049,-127.9197"/>
<polygon fill="#191970" stroke="#191970" points="854.4085,-131.2753 863.2091,-125.3762 852.6506,-124.4996 854.4085,-131.2753"/>
</g>
<!-- Node17&#45;&gt;Node11 -->
<g id="edge26" class="edge">
<title>Node17&#45;&gt;Node11</title>
<path fill="none" stroke="#191970" d="M631.9713,-167.1395C576.9791,-157.4764 480.1926,-140.4691 418.369,-129.6056"/>
<polygon fill="#191970" stroke="#191970" points="418.837,-126.1343 408.3821,-127.8507 417.6255,-133.0286 418.837,-126.1343"/>
</g>
<!-- Node19&#45;&gt;Node3 -->
<g id="edge34" class="edge">
<title>Node19&#45;&gt;Node3</title>
<path fill="none" stroke="#191970" d="M195.2299,-166.7319C198.4858,-166.1351 201.7263,-165.5511 204.8591,-165 287.8512,-150.3994 384.949,-135.0632 440.5442,-126.4486"/>
<polygon fill="#191970" stroke="#191970" points="441.4136,-129.8559 450.7613,-124.8688 440.3438,-122.9381 441.4136,-129.8559"/>
</g>
<!-- Node19&#45;&gt;Node11 -->
<g id="edge33" class="edge">
<title>Node19&#45;&gt;Node11</title>
<path fill="none" stroke="#191970" d="M188.8758,-165.4179C224.0182,-156.0352 278.9887,-141.3586 317.2912,-131.1322"/>
<polygon fill="#191970" stroke="#191970" points="318.3755,-134.4654 327.1342,-128.5042 316.5698,-127.7023 318.3755,-134.4654"/>
</g>
<!-- Node21&#45;&gt;Node3 -->
<g id="edge37" class="edge">
<title>Node21&#45;&gt;Node3</title>
<path fill="none" stroke="#191970" d="M308.0317,-165.4179C344.4456,-156.0152 401.4487,-141.2961 441.0633,-131.067"/>
<polygon fill="#191970" stroke="#191970" points="442.1809,-134.3933 450.9883,-128.5042 440.4307,-127.6156 442.1809,-134.3933"/>
</g>
<!-- Node22&#45;&gt;Node6 -->
<g id="edge39" class="edge">
<title>Node22&#45;&gt;Node6</title>
<path fill="none" stroke="#191970" d="M1889.3188,-220.4731C1878.1685,-205.884 1853.9403,-177.4982 1825.8591,-165 1753.4172,-132.7581 1527.803,-123.3461 1410.4397,-120.6114"/>
<polygon fill="#191970" stroke="#191970" points="1410.1917,-117.1051 1400.1163,-120.3816 1410.0359,-124.1033 1410.1917,-117.1051"/>
</g>
<!-- Node24 -->
<g id="node25" class="node">
<title>Node24</title>
<g id="a_node25"><a xlink:href="dji__hotpoint_8hpp.html" target="_top" xlink:title="Implementation of HotPoint (Point of Interest) Missions for DJI OSDK.">
<polygon fill="#ffffff" stroke="#000000" points="457.5515,-220.5 457.5515,-238.5 544.1667,-238.5 544.1667,-220.5 457.5515,-220.5"/>
<text text-anchor="middle" x="500.8591" y="-226.5" font-family="Helvetica,sans-Serif" font-size="10.00" fill="#000000">dji_hotpoint.hpp</text>
</a>
</g>
</g>
<!-- Node23&#45;&gt;Node24 -->
<g id="edge41" class="edge">
<title>Node23&#45;&gt;Node24</title>
<path fill="none" stroke="#191970" d="M489.1709,-275.4179C491.0242,-268.1372 493.6888,-257.669 496.006,-248.5659"/>
<polygon fill="#191970" stroke="#191970" points="499.422,-249.3338 498.4971,-238.7795 492.6383,-247.607 499.422,-249.3338"/>
</g>
<!-- Node26 -->
<g id="node27" class="node">
<title>Node26</title>
<g id="a_node27"><a xlink:href="dji__waypoint_8hpp.html" target="_top" xlink:title="Implementation of GPS Waypoint Missions for DJI OSDK.">
<polygon fill="#ffffff" stroke="#000000" points="348.6106,-220.5 348.6106,-238.5 439.1076,-238.5 439.1076,-220.5 348.6106,-220.5"/>
<text text-anchor="middle" x="393.8591" y="-226.5" font-family="Helvetica,sans-Serif" font-size="10.00" fill="#000000">dji_waypoint.hpp</text>
</a>
</g>
</g>
<!-- Node23&#45;&gt;Node26 -->
<g id="edge47" class="edge">
<title>Node23&#45;&gt;Node26</title>
<path fill="none" stroke="#191970" d="M471.502,-275.4179C456.963,-266.8195 434.9066,-253.7754 418.0128,-243.7844"/>
<polygon fill="#191970" stroke="#191970" points="419.6281,-240.6735 409.239,-238.5956 416.0647,-246.6987 419.6281,-240.6735"/>
</g>
<!-- Node24&#45;&gt;Node2 -->
<g id="edge46" class="edge">
<title>Node24&#45;&gt;Node2</title>
<path fill="none" stroke="#191970" d="M544.3713,-226.0745C622.1925,-219.7211 790.5442,-204.9494 941.988,-184.1862"/>
<polygon fill="#191970" stroke="#191970" points="942.5117,-187.6471 951.9377,-182.8099 941.5525,-180.7132 942.5117,-187.6471"/>
</g>
<!-- Node25 -->
<g id="node26" class="node">
<title>Node25</title>
<g id="a_node26"><a xlink:href="dji__mission__base_8hpp.html" target="_top" xlink:title="Mission&#45;Base abstract class for DJI OSDK library.">
<polygon fill="#ffffff" stroke="#000000" points="387.7732,-165.5 387.7732,-183.5 499.945,-183.5 499.945,-165.5 387.7732,-165.5"/>
<text text-anchor="middle" x="443.8591" y="-171.5" font-family="Helvetica,sans-Serif" font-size="10.00" fill="#000000">dji_mission_base.hpp</text>
</a>
</g>
</g>
<!-- Node24&#45;&gt;Node25 -->
<g id="edge42" class="edge">
<title>Node24&#45;&gt;Node25</title>
<path fill="none" stroke="#191970" d="M491.4467,-220.4179C483.1632,-212.425 470.8982,-200.5903 460.8946,-190.9377"/>
<polygon fill="#191970" stroke="#191970" points="463.1025,-188.2045 453.476,-183.7795 458.2419,-193.2419 463.1025,-188.2045"/>
</g>
<!-- Node25&#45;&gt;Node3 -->
<g id="edge44" class="edge">
<title>Node25&#45;&gt;Node3</title>
<path fill="none" stroke="#191970" d="M450.7945,-165.4179C456.7169,-157.6624 465.4013,-146.29 472.6455,-136.8035"/>
<polygon fill="#191970" stroke="#191970" points="475.4855,-138.8514 478.773,-128.7795 469.9221,-134.6029 475.4855,-138.8514"/>
</g>
<!-- Node25&#45;&gt;Node6 -->
<g id="edge45" class="edge">
<title>Node25&#45;&gt;Node6</title>
<path fill="none" stroke="#191970" d="M500.1215,-171.0387C655.8869,-161.4558 1092.6784,-134.5838 1265.8345,-123.931"/>
<polygon fill="#191970" stroke="#191970" points="1266.0982,-127.4215 1275.8644,-123.314 1265.6683,-120.4347 1266.0982,-127.4215"/>
</g>
<!-- Node25&#45;&gt;Node11 -->
<g id="edge43" class="edge">
<title>Node25&#45;&gt;Node11</title>
<path fill="none" stroke="#191970" d="M430.1533,-165.4179C417.418,-156.9788 398.2196,-144.257 383.2579,-134.3426"/>
<polygon fill="#191970" stroke="#191970" points="384.8545,-131.2019 374.5852,-128.5956 380.9878,-137.037 384.8545,-131.2019"/>
</g>
<!-- Node26&#45;&gt;Node25 -->
<g id="edge48" class="edge">
<title>Node26&#45;&gt;Node25</title>
<path fill="none" stroke="#191970" d="M402.1156,-220.4179C409.3099,-212.5041 419.9279,-200.8243 428.6545,-191.2251"/>
<polygon fill="#191970" stroke="#191970" points="431.2863,-193.5332 435.4232,-183.7795 426.1067,-188.8245 431.2863,-193.5332"/>
</g>
<!-- Node27&#45;&gt;Node6 -->
<g id="edge51" class="edge">
<title>Node27&#45;&gt;Node6</title>
<path fill="none" stroke="#191970" d="M1811.9079,-275.0811C1811.4424,-260.9806 1808.3922,-234.4954 1792.8591,-220 1738.0312,-168.8347 1523.9646,-139.0669 1410.0702,-126.54"/>
<polygon fill="#191970" stroke="#191970" points="1410.3576,-123.0507 1400.0387,-125.4528 1409.6033,-130.01 1410.3576,-123.0507"/>
</g>
<!-- Node28 -->
<g id="node29" class="node">
<title>Node28</title>
<g id="a_node29"><a xlink:title=" ">
<polygon fill="#ffffff" stroke="#bfbfbf" points="1699.9529,-220.5 1699.9529,-238.5 1783.7654,-238.5 1783.7654,-220.5 1699.9529,-220.5"/>
<text text-anchor="middle" x="1741.8591" y="-226.5" font-family="Helvetica,sans-Serif" font-size="10.00" fill="#000000">dji_macros.hpp</text>
</a>
</g>
</g>
<!-- Node27&#45;&gt;Node28 -->
<g id="edge50" class="edge">
<title>Node27&#45;&gt;Node28</title>
<path fill="none" stroke="#191970" d="M1800.3,-275.4179C1789.8251,-267.1876 1774.1659,-254.8839 1761.6927,-245.0836"/>
<polygon fill="#191970" stroke="#191970" points="1763.6949,-242.2056 1753.6693,-238.7795 1759.3701,-247.7098 1763.6949,-242.2056"/>
</g>
<!-- Node29&#45;&gt;Node6 -->
<g id="edge53" class="edge">
<title>Node29&#45;&gt;Node6</title>
<path fill="none" stroke="#191970" d="M1329.5956,-220.4982C1331.0525,-202.6913 1334.3309,-162.6225 1336.2922,-138.6515"/>
<polygon fill="#191970" stroke="#191970" points="1339.7852,-138.8783 1337.1124,-128.6261 1332.8085,-138.3074 1339.7852,-138.8783"/>
</g>
<!-- Node32&#45;&gt;Node2 -->
<g id="edge59" class="edge">
<title>Node32&#45;&gt;Node2</title>
<path fill="none" stroke="#191970" d="M1072.9974,-220.4179C1059.0577,-211.8992 1037.9771,-199.0166 1021.689,-189.0627"/>
<polygon fill="#191970" stroke="#191970" points="1023.1008,-185.8237 1012.7428,-183.5956 1019.4506,-191.7967 1023.1008,-185.8237"/>
</g>
<!-- Node32&#45;&gt;Node6 -->
<g id="edge60" class="edge">
<title>Node32&#45;&gt;Node6</title>
<path fill="none" stroke="#191970" d="M1108.3177,-220.4982C1152.3588,-201.1201 1256.3177,-155.3782 1307.8397,-132.7085"/>
<polygon fill="#191970" stroke="#191970" points="1309.3743,-135.8572 1317.1179,-128.6261 1306.5551,-129.45 1309.3743,-135.8572"/>
</g>
<!-- Node32&#45;&gt;Node7 -->
<g id="edge58" class="edge">
<title>Node32&#45;&gt;Node7</title>
<path fill="none" stroke="#191970" d="M1095.8477,-220.4772C1103.5298,-211.5642 1115.2176,-197.3646 1123.8591,-184 1145.9688,-149.8059 1166.6999,-106.8079 1177.6889,-82.8254"/>
<polygon fill="#191970" stroke="#191970" points="1180.9666,-84.0715 1181.9003,-73.5179 1174.5891,-81.1858 1180.9666,-84.0715"/>
</g>
<!-- Node34&#45;&gt;Node2 -->
<g id="edge69" class="edge">
<title>Node34&#45;&gt;Node2</title>
<path fill="none" stroke="#191970" d="M661.7618,-276.4888C664.8392,-275.9772 667.8933,-275.4767 670.8591,-275 778.2204,-257.7447 812.6361,-281.1848 912.8591,-239 939.6116,-227.7396 965.4583,-206.1004 981.4861,-191.0057"/>
<polygon fill="#191970" stroke="#191970" points="984.1786,-193.2704 988.9254,-183.7983 979.3078,-188.2429 984.1786,-193.2704"/>
</g>
<!-- Node34&#45;&gt;Node3 -->
<g id="edge68" class="edge">
<title>Node34&#45;&gt;Node3</title>
<path fill="none" stroke="#191970" d="M608.4973,-275.1561C587.4928,-248.4967 527.0319,-171.7578 499.6397,-136.9907"/>
<polygon fill="#191970" stroke="#191970" points="502.0782,-134.4303 493.1402,-128.7414 496.5797,-138.7624 502.0782,-134.4303"/>
</g>
<!-- Node34&#45;&gt;Node7 -->
<g id="edge67" class="edge">
<title>Node34&#45;&gt;Node7</title>
<path fill="none" stroke="#191970" d="M613.1475,-275.4099C607.2273,-253.5215 595.737,-197.3139 622.8591,-165 685.4587,-90.4173 982.6265,-71.1255 1118.1759,-66.1814"/>
<polygon fill="#191970" stroke="#191970" points="1118.562,-69.6702 1128.4338,-65.8235 1118.3178,-62.6744 1118.562,-69.6702"/>
</g>
<!-- Node34&#45;&gt;Node15 -->
<g id="edge66" class="edge">
<title>Node34&#45;&gt;Node15</title>
<path fill="none" stroke="#191970" d="M657.6816,-275.4795C704.5439,-265.3719 780.1469,-249.0654 827.5907,-238.8324"/>
<polygon fill="#191970" stroke="#191970" points="828.5198,-242.2126 837.5571,-236.6828 827.0439,-235.3699 828.5198,-242.2126"/>
</g>
</g>
</svg>
