<?xml version="1.0" encoding="UTF-8" standalone="no"?>
<!DOCTYPE svg PUBLIC "-//W3C//DTD SVG 1.1//EN"
 "http://www.w3.org/Graphics/SVG/1.1/DTD/svg11.dtd">
<!-- Generated by graphviz version 2.38.0 (20140413.2041)
 -->
<!-- Title: osdk&#45;core/advanced&#45;sensing&#45;2.0.0/inc/dji_advanced_sensing.hpp Pages: 1 -->
<svg width="928pt" height="397pt"
 viewBox="0.00 0.00 927.92 397.00" xmlns="http://www.w3.org/2000/svg" xmlns:xlink="http://www.w3.org/1999/xlink">
<g id="graph0" class="graph" transform="scale(1 1) rotate(0) translate(4 393)">
<title>osdk&#45;core/advanced&#45;sensing&#45;2.0.0/inc/dji_advanced_sensing.hpp</title>
<polygon fill="white" stroke="none" points="-4,4 -4,-393 923.92,-393 923.92,4 -4,4"/>
<!-- Node1 -->
<g id="node1" class="node"><title>Node1</title>
<polygon fill="#bfbfbf" stroke="black" points="242.92,-347.5 242.92,-388.5 364.92,-388.5 364.92,-347.5 242.92,-347.5"/>
<text text-anchor="start" x="250.92" y="-376.5" font-family="Helvetica,sans-Serif" font-size="10.00">osdk&#45;core/advanced</text>
<text text-anchor="start" x="250.92" y="-365.5" font-family="Helvetica,sans-Serif" font-size="10.00">&#45;sensing&#45;2.0.0/inc/dji</text>
<text text-anchor="middle" x="303.92" y="-354.5" font-family="Helvetica,sans-Serif" font-size="10.00">_advanced_sensing.hpp</text>
</g>
<!-- Node2 -->
<g id="node2" class="node"><title>Node2</title>
<g id="a_node2"><a xlink:href="dji__type_8hpp.html" target="_top" xlink:title="Data type and Data Structure definitions for use throughout DJI OSDK. ">
<polygon fill="white" stroke="black" points="460.42,-112.5 460.42,-131.5 529.42,-131.5 529.42,-112.5 460.42,-112.5"/>
<text text-anchor="middle" x="494.92" y="-119.5" font-family="Helvetica,sans-Serif" font-size="10.00">dji_type.hpp</text>
</a>
</g>
</g>
<!-- Node1&#45;&gt;Node2 -->
<g id="edge1" class="edge"><title>Node1&#45;&gt;Node2</title>
<path fill="none" stroke="midnightblue" d="M242.515,-351.437C137.118,-321.985 -59.7426,-253.334 17.9203,-168 46.6952,-136.383 336.87,-126.526 450.051,-123.87"/>
<polygon fill="midnightblue" stroke="midnightblue" points="450.203,-127.367 460.121,-123.642 450.044,-120.369 450.203,-127.367"/>
</g>
<!-- Node5 -->
<g id="node5" class="node"><title>Node5</title>
<polygon fill="white" stroke="#bfbfbf" points="26.9203,-168.5 26.9203,-187.5 72.9203,-187.5 72.9203,-168.5 26.9203,-168.5"/>
<text text-anchor="middle" x="49.9203" y="-175.5" font-family="Helvetica,sans-Serif" font-size="10.00">cstring</text>
</g>
<!-- Node1&#45;&gt;Node5 -->
<g id="edge4" class="edge"><title>Node1&#45;&gt;Node5</title>
<path fill="none" stroke="midnightblue" d="M257.103,-347.348C211.451,-326.537 141.924,-290.303 92.9203,-244 78.5171,-230.391 66.5205,-211.08 58.8909,-197.044"/>
<polygon fill="midnightblue" stroke="midnightblue" points="61.859,-195.166 54.1352,-187.914 55.6507,-198.4 61.859,-195.166"/>
</g>
<!-- Node6 -->
<g id="node6" class="node"><title>Node6</title>
<g id="a_node6"><a xlink:href="dji__advanced__sensing__protocol_8hpp.html" target="_top" xlink:title="dji_advanced_sensing\l_protocol.hpp">
<polygon fill="white" stroke="black" points="247.42,-280.5 247.42,-310.5 360.42,-310.5 360.42,-280.5 247.42,-280.5"/>
<text text-anchor="start" x="255.42" y="-298.5" font-family="Helvetica,sans-Serif" font-size="10.00">dji_advanced_sensing</text>
<text text-anchor="middle" x="303.92" y="-287.5" font-family="Helvetica,sans-Serif" font-size="10.00">_protocol.hpp</text>
</a>
</g>
</g>
<!-- Node1&#45;&gt;Node6 -->
<g id="edge5" class="edge"><title>Node1&#45;&gt;Node6</title>
<path fill="none" stroke="midnightblue" d="M303.92,-347.362C303.92,-339.226 303.92,-329.7 303.92,-321.105"/>
<polygon fill="midnightblue" stroke="midnightblue" points="307.42,-320.892 303.92,-310.892 300.42,-320.892 307.42,-320.892"/>
</g>
<!-- Node19 -->
<g id="node19" class="node"><title>Node19</title>
<g id="a_node19"><a xlink:href="dji__version_8hpp.html" target="_top" xlink:title="Drone/SDK Version definition for DJI onboardSDK library. ">
<polygon fill="white" stroke="black" points="737.92,-168.5 737.92,-187.5 819.92,-187.5 819.92,-168.5 737.92,-168.5"/>
<text text-anchor="middle" x="778.92" y="-175.5" font-family="Helvetica,sans-Serif" font-size="10.00">dji_version.hpp</text>
</a>
</g>
</g>
<!-- Node1&#45;&gt;Node19 -->
<g id="edge28" class="edge"><title>Node1&#45;&gt;Node19</title>
<path fill="none" stroke="midnightblue" d="M354.923,-347.452C417.477,-323.406 526.693,-281.197 619.92,-244 664.909,-226.05 716.814,-204.712 748.75,-191.511"/>
<polygon fill="midnightblue" stroke="midnightblue" points="750.481,-194.583 758.383,-187.525 747.805,-188.114 750.481,-194.583"/>
</g>
<!-- Node22 -->
<g id="node22" class="node"><title>Node22</title>
<g id="a_node22"><a xlink:href="dji__camera__stream_8hpp.html" target="_top" xlink:title="The high level APIs to interact with the camera. ">
<polygon fill="white" stroke="black" points="685.92,-286 685.92,-305 803.92,-305 803.92,-286 685.92,-286"/>
<text text-anchor="middle" x="744.92" y="-293" font-family="Helvetica,sans-Serif" font-size="10.00">dji_camera_stream.hpp</text>
</a>
</g>
</g>
<!-- Node1&#45;&gt;Node22 -->
<g id="edge29" class="edge"><title>Node1&#45;&gt;Node22</title>
<path fill="none" stroke="midnightblue" d="M365.206,-358.211C437.631,-347.677 561.727,-329.162 667.92,-311 675.379,-309.724 683.231,-308.319 690.955,-306.899"/>
<polygon fill="midnightblue" stroke="midnightblue" points="691.797,-310.303 700.989,-305.036 690.518,-303.421 691.797,-310.303"/>
</g>
<!-- Node3 -->
<g id="node3" class="node"><title>Node3</title>
<polygon fill="white" stroke="#bfbfbf" points="473.42,-56.5 473.42,-75.5 516.42,-75.5 516.42,-56.5 473.42,-56.5"/>
<text text-anchor="middle" x="494.92" y="-63.5" font-family="Helvetica,sans-Serif" font-size="10.00">cstdio</text>
</g>
<!-- Node2&#45;&gt;Node3 -->
<g id="edge2" class="edge"><title>Node2&#45;&gt;Node3</title>
<path fill="none" stroke="midnightblue" d="M494.92,-112.083C494.92,-105.006 494.92,-94.8611 494.92,-85.9865"/>
<polygon fill="midnightblue" stroke="midnightblue" points="498.42,-85.751 494.92,-75.7511 491.42,-85.7511 498.42,-85.751"/>
</g>
<!-- Node4 -->
<g id="node4" class="node"><title>Node4</title>
<polygon fill="white" stroke="#bfbfbf" points="568.42,-0.5 568.42,-19.5 617.42,-19.5 617.42,-0.5 568.42,-0.5"/>
<text text-anchor="middle" x="592.92" y="-7.5" font-family="Helvetica,sans-Serif" font-size="10.00">stdint.h</text>
</g>
<!-- Node2&#45;&gt;Node4 -->
<g id="edge3" class="edge"><title>Node2&#45;&gt;Node4</title>
<path fill="none" stroke="midnightblue" d="M502.61,-112.368C518.926,-94.0547 557.24,-51.0489 578.343,-27.3624"/>
<polygon fill="midnightblue" stroke="midnightblue" points="581.227,-29.3863 585.266,-19.5914 576.001,-24.7298 581.227,-29.3863"/>
</g>
<!-- Node7 -->
<g id="node7" class="node"><title>Node7</title>
<polygon fill="white" stroke="#bfbfbf" points="90.9203,-168.5 90.9203,-187.5 188.92,-187.5 188.92,-168.5 90.9203,-168.5"/>
<text text-anchor="middle" x="139.92" y="-175.5" font-family="Helvetica,sans-Serif" font-size="10.00">dji_hard_driver.hpp</text>
</g>
<!-- Node6&#45;&gt;Node7 -->
<g id="edge6" class="edge"><title>Node6&#45;&gt;Node7</title>
<path fill="none" stroke="midnightblue" d="M247.239,-288.178C193.637,-280.894 118.814,-266.89 100.92,-244 88.428,-228.019 105.116,-207.719 120.375,-194.094"/>
<polygon fill="midnightblue" stroke="midnightblue" points="122.657,-196.748 128.062,-187.636 118.154,-191.389 122.657,-196.748"/>
</g>
<!-- Node8 -->
<g id="node8" class="node"><title>Node8</title>
<polygon fill="white" stroke="#bfbfbf" points="109.92,-224.5 109.92,-243.5 229.92,-243.5 229.92,-224.5 109.92,-224.5"/>
<text text-anchor="middle" x="169.92" y="-231.5" font-family="Helvetica,sans-Serif" font-size="10.00">dji_thread_manager.hpp</text>
</g>
<!-- Node6&#45;&gt;Node8 -->
<g id="edge7" class="edge"><title>Node6&#45;&gt;Node8</title>
<path fill="none" stroke="midnightblue" d="M272.164,-280.399C249.882,-270.505 220.33,-257.383 198.729,-247.792"/>
<polygon fill="midnightblue" stroke="midnightblue" points="199.978,-244.517 189.419,-243.658 197.138,-250.915 199.978,-244.517"/>
</g>
<!-- Node9 -->
<g id="node9" class="node"><title>Node9</title>
<polygon fill="white" stroke="#bfbfbf" points="248.42,-224.5 248.42,-243.5 359.42,-243.5 359.42,-224.5 248.42,-224.5"/>
<text text-anchor="middle" x="303.92" y="-231.5" font-family="Helvetica,sans-Serif" font-size="10.00">dji_protocol_base.hpp</text>
</g>
<!-- Node6&#45;&gt;Node9 -->
<g id="edge8" class="edge"><title>Node6&#45;&gt;Node9</title>
<path fill="none" stroke="midnightblue" d="M303.92,-280.399C303.92,-272.466 303.92,-262.458 303.92,-253.858"/>
<polygon fill="midnightblue" stroke="midnightblue" points="307.42,-253.658 303.92,-243.658 300.42,-253.658 307.42,-253.658"/>
</g>
<!-- Node10 -->
<g id="node10" class="node"><title>Node10</title>
<g id="a_node10"><a xlink:href="linux__usb__device_8hpp.html" target="_top" xlink:title="linux_usb_device.hpp">
<polygon fill="white" stroke="black" points="377.92,-224.5 377.92,-243.5 487.92,-243.5 487.92,-224.5 377.92,-224.5"/>
<text text-anchor="middle" x="432.92" y="-231.5" font-family="Helvetica,sans-Serif" font-size="10.00">linux_usb_device.hpp</text>
</a>
</g>
</g>
<!-- Node6&#45;&gt;Node10 -->
<g id="edge9" class="edge"><title>Node6&#45;&gt;Node10</title>
<path fill="none" stroke="midnightblue" d="M334.492,-280.399C355.846,-270.55 384.136,-257.501 404.905,-247.922"/>
<polygon fill="midnightblue" stroke="midnightblue" points="406.535,-251.024 414.15,-243.658 403.603,-244.668 406.535,-251.024"/>
</g>
<!-- Node15 -->
<g id="node15" class="node"><title>Node15</title>
<g id="a_node15"><a xlink:href="dji__ack_8hpp.html" target="_top" xlink:title="All DJI OSDK ACK parsing. ">
<polygon fill="white" stroke="black" points="544.92,-224.5 544.92,-243.5 610.92,-243.5 610.92,-224.5 544.92,-224.5"/>
<text text-anchor="middle" x="577.92" y="-231.5" font-family="Helvetica,sans-Serif" font-size="10.00">dji_ack.hpp</text>
</a>
</g>
</g>
<!-- Node6&#45;&gt;Node15 -->
<g id="edge16" class="edge"><title>Node6&#45;&gt;Node15</title>
<path fill="none" stroke="midnightblue" d="M360.693,-282.172C412.536,-270.914 488.043,-254.517 535.01,-244.318"/>
<polygon fill="midnightblue" stroke="midnightblue" points="535.838,-247.72 544.867,-242.178 534.352,-240.879 535.838,-247.72"/>
</g>
<!-- Node10&#45;&gt;Node5 -->
<g id="edge10" class="edge"><title>Node10&#45;&gt;Node5</title>
<path fill="none" stroke="midnightblue" d="M377.608,-225.294C374.331,-224.852 371.083,-224.418 367.92,-224 244.135,-207.64 209.246,-213.114 83.2751,-188.017"/>
<polygon fill="midnightblue" stroke="midnightblue" points="83.7358,-184.539 73.2411,-185.992 82.3512,-191.401 83.7358,-184.539"/>
</g>
<!-- Node10&#45;&gt;Node7 -->
<g id="edge15" class="edge"><title>Node10&#45;&gt;Node7</title>
<path fill="none" stroke="midnightblue" d="M386.494,-224.444C334.845,-214.925 251.408,-199.547 196.113,-189.356"/>
<polygon fill="midnightblue" stroke="midnightblue" points="196.599,-185.887 186.13,-187.516 195.33,-192.771 196.599,-185.887"/>
</g>
<!-- Node11 -->
<g id="node11" class="node"><title>Node11</title>
<polygon fill="white" stroke="#bfbfbf" points="206.92,-168.5 206.92,-187.5 250.92,-187.5 250.92,-168.5 206.92,-168.5"/>
<text text-anchor="middle" x="228.92" y="-175.5" font-family="Helvetica,sans-Serif" font-size="10.00">fcntl.h</text>
</g>
<!-- Node10&#45;&gt;Node11 -->
<g id="edge11" class="edge"><title>Node10&#45;&gt;Node11</title>
<path fill="none" stroke="midnightblue" d="M399.033,-224.485C366.079,-216.138 314.372,-202.867 260.898,-188.217"/>
<polygon fill="midnightblue" stroke="midnightblue" points="261.82,-184.841 251.25,-185.564 259.964,-191.59 261.82,-184.841"/>
</g>
<!-- Node12 -->
<g id="node12" class="node"><title>Node12</title>
<polygon fill="white" stroke="#bfbfbf" points="269.42,-168.5 269.42,-187.5 326.42,-187.5 326.42,-168.5 269.42,-168.5"/>
<text text-anchor="middle" x="297.92" y="-175.5" font-family="Helvetica,sans-Serif" font-size="10.00">termios.h</text>
</g>
<!-- Node10&#45;&gt;Node12 -->
<g id="edge12" class="edge"><title>Node10&#45;&gt;Node12</title>
<path fill="none" stroke="midnightblue" d="M411.529,-224.444C389.213,-215.517 354.017,-201.439 328.712,-191.317"/>
<polygon fill="midnightblue" stroke="midnightblue" points="329.796,-187.981 319.211,-187.516 327.196,-194.48 329.796,-187.981"/>
</g>
<!-- Node13 -->
<g id="node13" class="node"><title>Node13</title>
<polygon fill="white" stroke="#bfbfbf" points="344.42,-168.5 344.42,-187.5 395.42,-187.5 395.42,-168.5 344.42,-168.5"/>
<text text-anchor="middle" x="369.92" y="-175.5" font-family="Helvetica,sans-Serif" font-size="10.00">unistd.h</text>
</g>
<!-- Node10&#45;&gt;Node13 -->
<g id="edge13" class="edge"><title>Node10&#45;&gt;Node13</title>
<path fill="none" stroke="midnightblue" d="M422.798,-224.324C413.394,-216.263 399.176,-204.077 387.851,-194.369"/>
<polygon fill="midnightblue" stroke="midnightblue" points="390.097,-191.684 380.227,-187.834 385.541,-196.999 390.097,-191.684"/>
</g>
<!-- Node14 -->
<g id="node14" class="node"><title>Node14</title>
<polygon fill="white" stroke="#bfbfbf" points="413.92,-168.5 413.92,-187.5 463.92,-187.5 463.92,-168.5 413.92,-168.5"/>
<text text-anchor="middle" x="438.92" y="-175.5" font-family="Helvetica,sans-Serif" font-size="10.00">libusb.h</text>
</g>
<!-- Node10&#45;&gt;Node14 -->
<g id="edge14" class="edge"><title>Node10&#45;&gt;Node14</title>
<path fill="none" stroke="midnightblue" d="M433.911,-224.083C434.706,-216.927 435.85,-206.635 436.844,-197.691"/>
<polygon fill="midnightblue" stroke="midnightblue" points="440.322,-198.076 437.948,-187.751 433.365,-197.303 440.322,-198.076"/>
</g>
<!-- Node15&#45;&gt;Node2 -->
<g id="edge23" class="edge"><title>Node15&#45;&gt;Node2</title>
<path fill="none" stroke="midnightblue" d="M557.623,-224.346C542.514,-216.875 522.565,-204.649 510.92,-188 501.449,-174.459 497.563,-155.908 495.98,-142.09"/>
<polygon fill="midnightblue" stroke="midnightblue" points="499.441,-141.482 495.119,-131.809 492.466,-142.066 499.441,-141.482"/>
</g>
<!-- Node16 -->
<g id="node16" class="node"><title>Node16</title>
<g id="a_node16"><a xlink:href="dji__command_8hpp.html" target="_top" xlink:title="All DJI OSDK OpenProtocol Command IDs. ">
<polygon fill="white" stroke="black" points="609.42,-112.5 609.42,-131.5 702.42,-131.5 702.42,-112.5 609.42,-112.5"/>
<text text-anchor="middle" x="655.92" y="-119.5" font-family="Helvetica,sans-Serif" font-size="10.00">dji_command.hpp</text>
</a>
</g>
</g>
<!-- Node15&#45;&gt;Node16 -->
<g id="edge17" class="edge"><title>Node15&#45;&gt;Node16</title>
<path fill="none" stroke="midnightblue" d="M594.263,-224.437C607.605,-216.641 625.981,-203.929 636.92,-188 646.384,-174.22 651.197,-155.695 653.605,-141.948"/>
<polygon fill="midnightblue" stroke="midnightblue" points="657.115,-142.136 655.112,-131.732 650.19,-141.114 657.115,-142.136"/>
</g>
<!-- Node18 -->
<g id="node18" class="node"><title>Node18</title>
<g id="a_node18"><a xlink:href="dji__mission__type_8hpp.html" target="_top" xlink:title="Mission related data struct for DJI OSDK library. ">
<polygon fill="white" stroke="black" points="519.92,-168.5 519.92,-187.5 627.92,-187.5 627.92,-168.5 519.92,-168.5"/>
<text text-anchor="middle" x="573.92" y="-175.5" font-family="Helvetica,sans-Serif" font-size="10.00">dji_mission_type.hpp</text>
</a>
</g>
</g>
<!-- Node15&#45;&gt;Node18 -->
<g id="edge21" class="edge"><title>Node15&#45;&gt;Node18</title>
<path fill="none" stroke="midnightblue" d="M577.26,-224.083C576.736,-217.006 575.984,-206.861 575.327,-197.986"/>
<polygon fill="midnightblue" stroke="midnightblue" points="578.798,-197.465 574.569,-187.751 571.817,-197.982 578.798,-197.465"/>
</g>
<!-- Node15&#45;&gt;Node19 -->
<g id="edge24" class="edge"><title>Node15&#45;&gt;Node19</title>
<path fill="none" stroke="midnightblue" d="M609.769,-224.444C644.319,-215.162 699.603,-200.309 737.503,-190.127"/>
<polygon fill="midnightblue" stroke="midnightblue" points="738.471,-193.491 747.22,-187.516 736.655,-186.731 738.471,-193.491"/>
</g>
<!-- Node21 -->
<g id="node21" class="node"><title>Node21</title>
<polygon fill="white" stroke="#bfbfbf" points="684.42,-168.5 684.42,-187.5 719.42,-187.5 719.42,-168.5 684.42,-168.5"/>
<text text-anchor="middle" x="701.92" y="-175.5" font-family="Helvetica,sans-Serif" font-size="10.00">map</text>
</g>
<!-- Node15&#45;&gt;Node21 -->
<g id="edge27" class="edge"><title>Node15&#45;&gt;Node21</title>
<path fill="none" stroke="midnightblue" d="M597.568,-224.444C618.482,-215.336 651.712,-200.865 675.041,-190.705"/>
<polygon fill="midnightblue" stroke="midnightblue" points="676.598,-193.845 684.369,-186.643 673.803,-187.427 676.598,-193.845"/>
</g>
<!-- Node16&#45;&gt;Node4 -->
<g id="edge20" class="edge"><title>Node16&#45;&gt;Node4</title>
<path fill="none" stroke="midnightblue" d="M644.578,-112.179C634.613,-103.859 620.416,-90.5244 611.92,-76 603.48,-61.5704 598.554,-43.1178 595.843,-29.5626"/>
<polygon fill="midnightblue" stroke="midnightblue" points="599.254,-28.7564 594.057,-19.5238 592.362,-29.9822 599.254,-28.7564"/>
</g>
<!-- Node17 -->
<g id="node17" class="node"><title>Node17</title>
<g id="a_node17"><a xlink:href="dji__error_8hpp.html" target="_top" xlink:title="All DJI OSDK OpenProtocol ACK Error Codes. ">
<polygon fill="white" stroke="black" points="620.92,-56.5 620.92,-75.5 690.92,-75.5 690.92,-56.5 620.92,-56.5"/>
<text text-anchor="middle" x="655.92" y="-63.5" font-family="Helvetica,sans-Serif" font-size="10.00">dji_error.hpp</text>
</a>
</g>
</g>
<!-- Node16&#45;&gt;Node17 -->
<g id="edge18" class="edge"><title>Node16&#45;&gt;Node17</title>
<path fill="none" stroke="midnightblue" d="M655.92,-112.083C655.92,-105.006 655.92,-94.8611 655.92,-85.9865"/>
<polygon fill="midnightblue" stroke="midnightblue" points="659.42,-85.751 655.92,-75.7511 652.42,-85.7511 659.42,-85.751"/>
</g>
<!-- Node17&#45;&gt;Node4 -->
<g id="edge19" class="edge"><title>Node17&#45;&gt;Node4</title>
<path fill="none" stroke="midnightblue" d="M645.798,-56.324C636.394,-48.2631 622.176,-36.0765 610.851,-26.3695"/>
<polygon fill="midnightblue" stroke="midnightblue" points="613.097,-23.6844 603.227,-19.8339 608.541,-28.9993 613.097,-23.6844"/>
</g>
<!-- Node18&#45;&gt;Node2 -->
<g id="edge22" class="edge"><title>Node18&#45;&gt;Node2</title>
<path fill="none" stroke="midnightblue" d="M561.228,-168.324C549.019,-159.979 530.342,-147.212 515.917,-137.352"/>
<polygon fill="midnightblue" stroke="midnightblue" points="517.812,-134.408 507.582,-131.655 513.862,-140.187 517.812,-134.408"/>
</g>
<!-- Node19&#45;&gt;Node16 -->
<g id="edge25" class="edge"><title>Node19&#45;&gt;Node16</title>
<path fill="none" stroke="midnightblue" d="M759.431,-168.444C739.278,-159.596 707.597,-145.687 684.589,-135.586"/>
<polygon fill="midnightblue" stroke="midnightblue" points="685.882,-132.332 675.319,-131.516 683.068,-138.741 685.882,-132.332"/>
</g>
<!-- Node20 -->
<g id="node20" class="node"><title>Node20</title>
<polygon fill="white" stroke="#bfbfbf" points="789.92,-112.5 789.92,-131.5 835.92,-131.5 835.92,-112.5 789.92,-112.5"/>
<text text-anchor="middle" x="812.92" y="-119.5" font-family="Helvetica,sans-Serif" font-size="10.00">cstdint</text>
</g>
<!-- Node19&#45;&gt;Node20 -->
<g id="edge26" class="edge"><title>Node19&#45;&gt;Node20</title>
<path fill="none" stroke="midnightblue" d="M784.535,-168.083C789.288,-160.534 796.238,-149.495 802.072,-140.23"/>
<polygon fill="midnightblue" stroke="midnightblue" points="805.044,-142.078 807.41,-131.751 799.12,-138.349 805.044,-142.078"/>
</g>
<!-- Node23 -->
<g id="node23" class="node"><title>Node23</title>
<polygon fill="white" stroke="#bfbfbf" points="724.42,-224.5 724.42,-243.5 765.42,-243.5 765.42,-224.5 724.42,-224.5"/>
<text text-anchor="middle" x="744.92" y="-231.5" font-family="Helvetica,sans-Serif" font-size="10.00">string</text>
</g>
<!-- Node22&#45;&gt;Node23 -->
<g id="edge30" class="edge"><title>Node22&#45;&gt;Node23</title>
<path fill="none" stroke="midnightblue" d="M744.92,-285.975C744.92,-277.58 744.92,-264.481 744.92,-253.663"/>
<polygon fill="midnightblue" stroke="midnightblue" points="748.42,-253.509 744.92,-243.509 741.42,-253.509 748.42,-253.509"/>
</g>
<!-- Node24 -->
<g id="node24" class="node"><title>Node24</title>
<g id="a_node24"><a xlink:href="dji__camera__image_8hpp_source.html" target="_top" xlink:title="dji_camera_image.hpp">
<polygon fill="white" stroke="black" points="790.92,-224.5 790.92,-243.5 904.92,-243.5 904.92,-224.5 790.92,-224.5"/>
<text text-anchor="middle" x="847.92" y="-231.5" font-family="Helvetica,sans-Serif" font-size="10.00">dji_camera_image.hpp</text>
</a>
</g>
</g>
<!-- Node22&#45;&gt;Node24 -->
<g id="edge31" class="edge"><title>Node22&#45;&gt;Node24</title>
<path fill="none" stroke="midnightblue" d="M759.678,-285.975C776.581,-276.211 804.503,-260.081 824.411,-248.581"/>
<polygon fill="midnightblue" stroke="midnightblue" points="826.282,-251.542 833.19,-243.509 822.78,-245.481 826.282,-251.542"/>
</g>
<!-- Node24&#45;&gt;Node20 -->
<g id="edge32" class="edge"><title>Node24&#45;&gt;Node20</title>
<path fill="none" stroke="midnightblue" d="M845.498,-224.12C842.033,-211.558 835.364,-187.911 828.92,-168 826.044,-159.114 822.602,-149.336 819.648,-141.171"/>
<polygon fill="midnightblue" stroke="midnightblue" points="822.86,-139.764 816.135,-131.577 816.287,-142.171 822.86,-139.764"/>
</g>
<!-- Node25 -->
<g id="node25" class="node"><title>Node25</title>
<polygon fill="white" stroke="#bfbfbf" points="875.92,-168.5 875.92,-187.5 919.92,-187.5 919.92,-168.5 875.92,-168.5"/>
<text text-anchor="middle" x="897.92" y="-175.5" font-family="Helvetica,sans-Serif" font-size="10.00">vector</text>
</g>
<!-- Node24&#45;&gt;Node25 -->
<g id="edge33" class="edge"><title>Node24&#45;&gt;Node25</title>
<path fill="none" stroke="midnightblue" d="M856.177,-224.083C863.385,-216.298 874.03,-204.801 882.766,-195.367"/>
<polygon fill="midnightblue" stroke="midnightblue" points="885.592,-197.467 889.817,-187.751 880.455,-192.711 885.592,-197.467"/>
</g>
</g>
</svg>
