<?xml version="1.0" encoding="UTF-8" standalone="no"?>
<!DOCTYPE svg PUBLIC "-//W3C//DTD SVG 1.1//EN"
 "http://www.w3.org/Graphics/SVG/1.1/DTD/svg11.dtd">
<!-- Generated by graphviz version 2.40.1 (20161225.0304)
 -->
<!-- Title: osdk&#45;core/hal/src/dji_log.cpp Pages: 1 -->
<svg width="503pt" height="147pt"
 viewBox="0.00 0.00 502.93 147.00" xmlns="http://www.w3.org/2000/svg" xmlns:xlink="http://www.w3.org/1999/xlink">
<g id="graph0" class="graph" transform="scale(1 1) rotate(0) translate(4 143)">
<title>osdk&#45;core/hal/src/dji_log.cpp</title>
<polygon fill="#ffffff" stroke="transparent" points="-4,4 -4,-143 498.9341,-143 498.9341,4 -4,4"/>
<!-- Node0 -->
<g id="node1" class="node">
<title>Node0</title>
<g id="a_node1"><a xlink:title="Logging mechanism for printing status and error messages to the screen.">
<polygon fill="#bfbfbf" stroke="#000000" points="299.7422,-110.5 299.7422,-138.5 404.6631,-138.5 404.6631,-110.5 299.7422,-110.5"/>
<text text-anchor="start" x="307.7422" y="-126.5" font-family="Helvetica,sans-Serif" font-size="10.00" fill="#000000">osdk&#45;core/hal/src/dji</text>
<text text-anchor="middle" x="352.2026" y="-116.5" font-family="Helvetica,sans-Serif" font-size="10.00" fill="#000000">_log.cpp</text>
</a>
</g>
</g>
<!-- Node1 -->
<g id="node2" class="node">
<title>Node1</title>
<g id="a_node2"><a xlink:href="dji__log_8hpp.html" target="_top" xlink:title="Logging mechanism for printing status and error messages to the screen.">
<polygon fill="#ffffff" stroke="#000000" points="156.0156,-55.5 156.0156,-73.5 220.3896,-73.5 220.3896,-55.5 156.0156,-55.5"/>
<text text-anchor="middle" x="188.2026" y="-61.5" font-family="Helvetica,sans-Serif" font-size="10.00" fill="#000000">dji_log.hpp</text>
</a>
</g>
</g>
<!-- Node0&#45;&gt;Node1 -->
<g id="edge1" class="edge">
<title>Node0&#45;&gt;Node1</title>
<path fill="none" stroke="#191970" d="M313.7519,-110.4327C286.2164,-100.3587 249.4512,-86.908 222.8277,-77.1677"/>
<polygon fill="#191970" stroke="#191970" points="223.7547,-73.78 213.1609,-73.6311 221.3495,-80.3539 223.7547,-73.78"/>
</g>
<!-- Node6 -->
<g id="node7" class="node">
<title>Node6</title>
<g id="a_node7"><a xlink:title=" ">
<polygon fill="#ffffff" stroke="#bfbfbf" points="238.8384,-55.5 238.8384,-73.5 361.5669,-73.5 361.5669,-55.5 238.8384,-55.5"/>
<text text-anchor="middle" x="300.2026" y="-61.5" font-family="Helvetica,sans-Serif" font-size="10.00" fill="#000000">dji_memory_default.hpp</text>
</a>
</g>
</g>
<!-- Node0&#45;&gt;Node6 -->
<g id="edge6" class="edge">
<title>Node0&#45;&gt;Node6</title>
<path fill="none" stroke="#191970" d="M339.8794,-110.2808C332.3372,-101.5784 322.6486,-90.3992 314.7335,-81.2664"/>
<polygon fill="#191970" stroke="#191970" points="317.2699,-78.8488 308.0756,-73.5842 311.98,-83.4334 317.2699,-78.8488"/>
</g>
<!-- Node7 -->
<g id="node8" class="node">
<title>Node7</title>
<g id="a_node8"><a xlink:title=" ">
<polygon fill="#ffffff" stroke="#bfbfbf" points="379.1362,-55.5 379.1362,-73.5 431.269,-73.5 431.269,-55.5 379.1362,-55.5"/>
<text text-anchor="middle" x="405.2026" y="-61.5" font-family="Helvetica,sans-Serif" font-size="10.00" fill="#000000">stdarg.h</text>
</a>
</g>
</g>
<!-- Node0&#45;&gt;Node7 -->
<g id="edge7" class="edge">
<title>Node0&#45;&gt;Node7</title>
<path fill="none" stroke="#191970" d="M364.7629,-110.2808C372.4501,-101.5784 382.325,-90.3992 390.3923,-81.2664"/>
<polygon fill="#191970" stroke="#191970" points="393.1811,-83.3961 397.1783,-73.5842 387.9347,-78.7618 393.1811,-83.3961"/>
</g>
<!-- Node8 -->
<g id="node9" class="node">
<title>Node8</title>
<g id="a_node9"><a xlink:title=" ">
<polygon fill="#ffffff" stroke="#bfbfbf" points="449.4712,-55.5 449.4712,-73.5 494.9341,-73.5 494.9341,-55.5 449.4712,-55.5"/>
<text text-anchor="middle" x="472.2026" y="-61.5" font-family="Helvetica,sans-Serif" font-size="10.00" fill="#000000">stdio.h</text>
</a>
</g>
</g>
<!-- Node0&#45;&gt;Node8 -->
<g id="edge8" class="edge">
<title>Node0&#45;&gt;Node8</title>
<path fill="none" stroke="#191970" d="M380.3373,-110.4327C399.7752,-100.7137 425.4988,-87.8519 444.7806,-78.211"/>
<polygon fill="#191970" stroke="#191970" points="446.5615,-81.2337 453.9405,-73.6311 443.431,-74.9728 446.5615,-81.2337"/>
</g>
<!-- Node2 -->
<g id="node3" class="node">
<title>Node2</title>
<g id="a_node3"><a xlink:title=" ">
<polygon fill="#ffffff" stroke="#bfbfbf" points="0,-.5 0,-18.5 86.4053,-18.5 86.4053,-.5 0,-.5"/>
<text text-anchor="middle" x="43.2026" y="-6.5" font-family="Helvetica,sans-Serif" font-size="10.00" fill="#000000">dji_memory.hpp</text>
</a>
</g>
</g>
<!-- Node1&#45;&gt;Node2 -->
<g id="edge2" class="edge">
<title>Node1&#45;&gt;Node2</title>
<path fill="none" stroke="#191970" d="M164.2588,-55.4179C140.3312,-46.3419 103.3442,-32.3123 76.5495,-22.1488"/>
<polygon fill="#191970" stroke="#191970" points="77.7733,-18.8697 67.182,-18.5956 75.2907,-25.4147 77.7733,-18.8697"/>
</g>
<!-- Node3 -->
<g id="node4" class="node">
<title>Node3</title>
<g id="a_node4"><a xlink:title=" ">
<polygon fill="#ffffff" stroke="#bfbfbf" points="104.2373,-.5 104.2373,-18.5 174.168,-18.5 174.168,-.5 104.2373,-.5"/>
<text text-anchor="middle" x="139.2026" y="-6.5" font-family="Helvetica,sans-Serif" font-size="10.00" fill="#000000">dji_type.hpp</text>
</a>
</g>
</g>
<!-- Node1&#45;&gt;Node3 -->
<g id="edge3" class="edge">
<title>Node1&#45;&gt;Node3</title>
<path fill="none" stroke="#191970" d="M180.1113,-55.4179C173.1314,-47.5833 162.863,-36.0575 154.3603,-26.5137"/>
<polygon fill="#191970" stroke="#191970" points="156.7352,-23.9178 147.4698,-18.7795 151.5086,-28.5743 156.7352,-23.9178"/>
</g>
<!-- Node4 -->
<g id="node5" class="node">
<title>Node4</title>
<g id="a_node5"><a xlink:title=" ">
<polygon fill="#ffffff" stroke="#bfbfbf" points="191.6733,-.5 191.6733,-18.5 282.7319,-18.5 282.7319,-.5 191.6733,-.5"/>
<text text-anchor="middle" x="237.2026" y="-6.5" font-family="Helvetica,sans-Serif" font-size="10.00" fill="#000000">dji_singleton.hpp</text>
</a>
</g>
</g>
<!-- Node1&#45;&gt;Node4 -->
<g id="edge4" class="edge">
<title>Node1&#45;&gt;Node4</title>
<path fill="none" stroke="#191970" d="M196.294,-55.4179C203.2739,-47.5833 213.5423,-36.0575 222.045,-26.5137"/>
<polygon fill="#191970" stroke="#191970" points="224.8967,-28.5743 228.9355,-18.7795 219.6701,-23.9178 224.8967,-28.5743"/>
</g>
<!-- Node5 -->
<g id="node6" class="node">
<title>Node5</title>
<g id="a_node6"><a xlink:title=" ">
<polygon fill="#ffffff" stroke="#bfbfbf" points="300.2695,-.5 300.2695,-18.5 424.1357,-18.5 424.1357,-.5 300.2695,-.5"/>
<text text-anchor="middle" x="362.2026" y="-6.5" font-family="Helvetica,sans-Serif" font-size="10.00" fill="#000000">dji_thread_manager.hpp</text>
</a>
</g>
</g>
<!-- Node1&#45;&gt;Node5 -->
<g id="edge5" class="edge">
<title>Node1&#45;&gt;Node5</title>
<path fill="none" stroke="#191970" d="M216.9352,-55.4179C246.2396,-46.155 291.8672,-31.7325 324.1568,-21.526"/>
<polygon fill="#191970" stroke="#191970" points="325.2365,-24.8555 333.7166,-18.5042 323.1267,-18.181 325.2365,-24.8555"/>
</g>
</g>
</svg>
