<?xml version="1.0" encoding="UTF-8" standalone="no"?>
<!DOCTYPE svg PUBLIC "-//W3C//DTD SVG 1.1//EN"
 "http://www.w3.org/Graphics/SVG/1.1/DTD/svg11.dtd">
<!-- Generated by graphviz version 2.40.1 (20161225.0304)
 -->
<!-- Title: osdk&#45;core/api/src/dji_gimbal.cpp Pages: 1 -->
<!--zoomable 422 -->
<svg id="main" version="1.1" xmlns="http://www.w3.org/2000/svg" xmlns:xlink="http://www.w3.org/1999/xlink" xml:space="preserve" onload="init(evt)">
<style type="text/css"><![CDATA[
.edge:hover path { stroke: red; }
.edge:hover polygon { stroke: red; fill: red; }
]]></style>
<script type="text/javascript"><![CDATA[
var edges = document.getElementsByTagName('g');
if (edges && edges.length) {
  for (var i=0;i<edges.length;i++) {
    if (edges[i].id.substr(0,4)=='edge') {
      edges[i].setAttribute('class','edge');
    }
  }
}
]]></script>
        <defs>
                <circle id="rim" cx="0" cy="0" r="7"/>
                <circle id="rim2" cx="0" cy="0" r="3.5"/>
                <g id="zoomPlus">
                        <use xlink:href="#rim" fill="#404040">
                                <set attributeName="fill" to="#808080" begin="zoomplus.mouseover" end="zoomplus.mouseout"/>
                        </use>
                        <path d="M-4,0h8M0,-4v8" fill="none" stroke="white" stroke-width="1.5" pointer-events="none"/>
                </g>
                <g id="zoomMin">
                        <use xlink:href="#rim" fill="#404040">
                                <set attributeName="fill" to="#808080" begin="zoomminus.mouseover" end="zoomminus.mouseout"/>
                        </use>
                        <path d="M-4,0h8" fill="none" stroke="white" stroke-width="1.5" pointer-events="none"/>
                </g>
                <g id="dirArrow">
                        <path fill="none" stroke="white" stroke-width="1.5" d="M0,-3.0v7 M-2.5,-0.5L0,-3.0L2.5,-0.5"/>
                </g>
               <g id="resetDef">
                       <use xlink:href="#rim2" fill="#404040">
                               <set attributeName="fill" to="#808080" begin="reset.mouseover" end="reset.mouseout"/>
                       </use>
               </g>
        </defs>

<script type="text/javascript">
var viewWidth = 2110;
var viewHeight = 422;
var sectionId = 'dynsection-0';
</script>
<script xlink:href="svgpan.js"/>
<svg id="graph" class="graph">
<g id="viewport">
<title>osdk&#45;core/api/src/dji_gimbal.cpp</title>
<polygon fill="#ffffff" stroke="transparent" points="-4,4 -4,-418 2105.5677,-418 2105.5677,4 -4,4"/>
<!-- Node0 -->
<g id="node1" class="node">
<title>Node0</title>
<g id="a_node1"><a xlink:title="Gimbal API for OSDK library.">
<polygon fill="#bfbfbf" stroke="#000000" points="524.9796,-385.5 524.9796,-413.5 629.9005,-413.5 629.9005,-385.5 524.9796,-385.5"/>
<text text-anchor="start" x="532.9796" y="-401.5" font-family="Helvetica,sans-Serif" font-size="10.00" fill="#000000">osdk&#45;core/api/src/dji</text>
<text text-anchor="middle" x="577.4401" y="-391.5" font-family="Helvetica,sans-Serif" font-size="10.00" fill="#000000">_gimbal.cpp</text>
</a>
</g>
</g>
<!-- Node1 -->
<g id="node2" class="node">
<title>Node1</title>
<g id="a_node2"><a xlink:href="dji__gimbal_8hpp.html" target="_top" xlink:title="Gimbal API for OSDK library.">
<polygon fill="#ffffff" stroke="#000000" points="13.1964,-220.5 13.1964,-238.5 93.6837,-238.5 93.6837,-220.5 13.1964,-220.5"/>
<text text-anchor="middle" x="53.4401" y="-226.5" font-family="Helvetica,sans-Serif" font-size="10.00" fill="#000000">dji_gimbal.hpp</text>
</a>
</g>
</g>
<!-- Node0&#45;&gt;Node1 -->
<g id="edge1" class="edge">
<title>Node0&#45;&gt;Node1</title>
<path fill="none" stroke="#191970" d="M524.7222,-393.3468C414.0177,-379.589 161.8424,-343.6074 92.4401,-294 76.6776,-282.7333 66.1022,-262.9233 59.9866,-248.2211"/>
<polygon fill="#191970" stroke="#191970" points="63.1533,-246.703 56.3113,-238.6137 56.6153,-249.2041 63.1533,-246.703"/>
</g>
<!-- Node7 -->
<g id="node8" class="node">
<title>Node7</title>
<g id="a_node8"><a xlink:href="dji__vehicle_8hpp.html" target="_top" xlink:title="Vehicle API for DJI onboardSDK library.">
<polygon fill="#ffffff" stroke="#000000" points="1059.3615,-330.5 1059.3615,-348.5 1141.5187,-348.5 1141.5187,-330.5 1059.3615,-330.5"/>
<text text-anchor="middle" x="1100.4401" y="-336.5" font-family="Helvetica,sans-Serif" font-size="10.00" fill="#000000">dji_vehicle.hpp</text>
</a>
</g>
</g>
<!-- Node0&#45;&gt;Node7 -->
<g id="edge9" class="edge">
<title>Node0&#45;&gt;Node7</title>
<path fill="none" stroke="#191970" d="M629.9819,-393.4723C730.5546,-381.9343 949.1312,-356.8586 1048.9081,-345.4119"/>
<polygon fill="#191970" stroke="#191970" points="1049.5085,-348.8661 1059.0444,-344.249 1048.7106,-341.9117 1049.5085,-348.8661"/>
</g>
<!-- Node2 -->
<g id="node3" class="node">
<title>Node2</title>
<g id="a_node3"><a xlink:href="dji__command_8hpp.html" target="_top" xlink:title="All DJI OSDK OpenProtocol Command IDs.">
<polygon fill="#ffffff" stroke="#000000" points="262.9723,-110.5 262.9723,-128.5 357.9078,-128.5 357.9078,-110.5 262.9723,-110.5"/>
<text text-anchor="middle" x="310.4401" y="-116.5" font-family="Helvetica,sans-Serif" font-size="10.00" fill="#000000">dji_command.hpp</text>
</a>
</g>
</g>
<!-- Node1&#45;&gt;Node2 -->
<g id="edge2" class="edge">
<title>Node1&#45;&gt;Node2</title>
<path fill="none" stroke="#191970" d="M43.9658,-220.2178C31.3713,-206.7608 12.2638,-181.6283 26.4401,-165 40.9344,-147.9987 173.9583,-132.5315 252.7045,-124.7622"/>
<polygon fill="#191970" stroke="#191970" points="253.3536,-128.2156 262.9673,-123.7628 252.6751,-121.2486 253.3536,-128.2156"/>
</g>
<!-- Node5 -->
<g id="node6" class="node">
<title>Node5</title>
<g id="a_node6"><a xlink:href="dji__type_8hpp.html" target="_top" xlink:title="Data type and Data Structure definitions for use throughout DJI OSDK.">
<polygon fill="#ffffff" stroke="#000000" points="398.4747,-110.5 398.4747,-128.5 468.4054,-128.5 468.4054,-110.5 398.4747,-110.5"/>
<text text-anchor="middle" x="433.4401" y="-116.5" font-family="Helvetica,sans-Serif" font-size="10.00" fill="#000000">dji_type.hpp</text>
</a>
</g>
</g>
<!-- Node1&#45;&gt;Node5 -->
<g id="edge6" class="edge">
<title>Node1&#45;&gt;Node5</title>
<path fill="none" stroke="#191970" d="M51.07,-220.1187C48.1411,-206.0674 45.1414,-179.6457 59.4401,-165 107.4253,-115.8503 298.3193,-137.8222 366.4401,-129 373.488,-128.0872 380.9462,-127.0754 388.2272,-126.0623"/>
<polygon fill="#191970" stroke="#191970" points="388.9266,-129.4984 398.3414,-124.6393 387.9513,-122.5667 388.9266,-129.4984"/>
</g>
<!-- Node3 -->
<g id="node4" class="node">
<title>Node3</title>
<g id="a_node4"><a xlink:href="dji__error_8hpp.html" target="_top" xlink:title="All DJI OSDK OpenProtocol ACK Error Codes.">
<polygon fill="#ffffff" stroke="#000000" points="306.6422,-55.5 306.6422,-73.5 378.2379,-73.5 378.2379,-55.5 306.6422,-55.5"/>
<text text-anchor="middle" x="342.4401" y="-61.5" font-family="Helvetica,sans-Serif" font-size="10.00" fill="#000000">dji_error.hpp</text>
</a>
</g>
</g>
<!-- Node2&#45;&gt;Node3 -->
<g id="edge3" class="edge">
<title>Node2&#45;&gt;Node3</title>
<path fill="none" stroke="#191970" d="M315.7242,-110.4179C320.0984,-102.8998 326.45,-91.9829 331.8627,-82.6799"/>
<polygon fill="#191970" stroke="#191970" points="335.0374,-84.1831 337.0411,-73.7795 328.9869,-80.6628 335.0374,-84.1831"/>
</g>
<!-- Node4 -->
<g id="node5" class="node">
<title>Node4</title>
<g id="a_node5"><a xlink:title=" ">
<polygon fill="#ffffff" stroke="#bfbfbf" points="318.3195,-.5 318.3195,-18.5 366.5607,-18.5 366.5607,-.5 318.3195,-.5"/>
<text text-anchor="middle" x="342.4401" y="-6.5" font-family="Helvetica,sans-Serif" font-size="10.00" fill="#000000">stdint.h</text>
</a>
</g>
</g>
<!-- Node2&#45;&gt;Node4 -->
<g id="edge5" class="edge">
<title>Node2&#45;&gt;Node4</title>
<path fill="none" stroke="#191970" d="M305.4023,-110.4231C299.015,-97.6435 289.7108,-73.8068 297.4401,-55 302.2902,-43.1985 311.845,-32.8287 320.9072,-24.981"/>
<polygon fill="#191970" stroke="#191970" points="323.3462,-27.5109 328.9421,-18.5144 318.9573,-22.0576 323.3462,-27.5109"/>
</g>
<!-- Node3&#45;&gt;Node4 -->
<g id="edge4" class="edge">
<title>Node3&#45;&gt;Node4</title>
<path fill="none" stroke="#191970" d="M342.4401,-55.4179C342.4401,-48.2164 342.4401,-37.8962 342.4401,-28.8632"/>
<polygon fill="#191970" stroke="#191970" points="345.9402,-28.7794 342.4401,-18.7795 338.9402,-28.7795 345.9402,-28.7794"/>
</g>
<!-- Node5&#45;&gt;Node4 -->
<g id="edge8" class="edge">
<title>Node5&#45;&gt;Node4</title>
<path fill="none" stroke="#191970" d="M427.6221,-110.4016C419.2866,-97.5966 403.2061,-73.7297 387.4401,-55 378.8946,-44.8482 368.5278,-34.2651 359.8992,-25.8628"/>
<polygon fill="#191970" stroke="#191970" points="362.2072,-23.2269 352.5657,-18.8345 357.3637,-28.2807 362.2072,-23.2269"/>
</g>
<!-- Node6 -->
<g id="node7" class="node">
<title>Node6</title>
<g id="a_node7"><a xlink:title=" ">
<polygon fill="#ffffff" stroke="#bfbfbf" points="434.3785,-55.5 434.3785,-73.5 476.5016,-73.5 476.5016,-55.5 434.3785,-55.5"/>
<text text-anchor="middle" x="455.4401" y="-61.5" font-family="Helvetica,sans-Serif" font-size="10.00" fill="#000000">cstdio</text>
</a>
</g>
</g>
<!-- Node5&#45;&gt;Node6 -->
<g id="edge7" class="edge">
<title>Node5&#45;&gt;Node6</title>
<path fill="none" stroke="#191970" d="M437.0729,-110.4179C440.0168,-103.0581 444.2637,-92.441 447.9323,-83.2695"/>
<polygon fill="#191970" stroke="#191970" points="451.264,-84.3641 451.7283,-73.7795 444.7646,-81.7643 451.264,-84.3641"/>
</g>
<!-- Node7&#45;&gt;Node1 -->
<g id="edge34" class="edge">
<title>Node7&#45;&gt;Node1</title>
<path fill="none" stroke="#191970" d="M1059.2029,-339.2011C884.7907,-337.7174 212.6726,-329.7117 125.4401,-294 101.0659,-284.0216 79.5176,-262.0374 66.4907,-246.5175"/>
<polygon fill="#191970" stroke="#191970" points="69.1691,-244.2633 60.1663,-238.6776 63.7209,-248.6584 69.1691,-244.2633"/>
</g>
<!-- Node7&#45;&gt;Node2 -->
<g id="edge20" class="edge">
<title>Node7&#45;&gt;Node2</title>
<path fill="none" stroke="#191970" d="M1059.1575,-338.8741C881.3549,-336.0109 185.6863,-323.034 92.4401,-294 48.4037,-280.2885 26.7984,-279.34 4.4401,-239 -6.1964,-219.8093 5.0778,-176.4332 17.4401,-165 50.7376,-134.2048 177.0179,-124.2463 252.4995,-121.0302"/>
<polygon fill="#191970" stroke="#191970" points="252.9455,-124.5152 262.7982,-120.6196 252.6666,-117.5208 252.9455,-124.5152"/>
</g>
<!-- Node7&#45;&gt;Node5 -->
<g id="edge62" class="edge">
<title>Node7&#45;&gt;Node5</title>
<path fill="none" stroke="#191970" d="M1059.2984,-337.5751C945.2958,-332.0307 626.9989,-315.0668 524.4401,-294 375.0652,-263.3166 288.3194,-307.9144 199.4401,-184 194.5183,-177.1382 194.0689,-171.5161 199.4401,-165 205.4369,-157.7248 321.4916,-137.7478 387.8613,-126.8415"/>
<polygon fill="#191970" stroke="#191970" points="388.7586,-130.2413 398.0621,-125.1723 387.6282,-123.3332 388.7586,-130.2413"/>
</g>
<!-- Node8 -->
<g id="node9" class="node">
<title>Node8</title>
<g id="a_node9"><a xlink:title=" ">
<polygon fill="#ffffff" stroke="#bfbfbf" points="1032.9894,-110.5 1032.9894,-128.5 1077.8908,-128.5 1077.8908,-110.5 1032.9894,-110.5"/>
<text text-anchor="middle" x="1055.4401" y="-116.5" font-family="Helvetica,sans-Serif" font-size="10.00" fill="#000000">cstdint</text>
</a>
</g>
</g>
<!-- Node7&#45;&gt;Node8 -->
<g id="edge10" class="edge">
<title>Node7&#45;&gt;Node8</title>
<path fill="none" stroke="#191970" d="M1098.5638,-330.327C1091.8166,-297.3409 1068.6941,-184.2972 1059.3772,-138.7484"/>
<polygon fill="#191970" stroke="#191970" points="1062.7574,-137.8079 1057.3244,-128.7122 1055.8994,-139.2108 1062.7574,-137.8079"/>
</g>
<!-- Node9 -->
<g id="node10" class="node">
<title>Node9</title>
<g id="a_node10"><a xlink:href="dji__broadcast_8hpp.html" target="_top" xlink:title="Broadcast Telemetry API for DJI onboardSDK library.">
<polygon fill="#ffffff" stroke="#000000" points="905.9674,-220.5 905.9674,-238.5 1000.9127,-238.5 1000.9127,-220.5 905.9674,-220.5"/>
<text text-anchor="middle" x="953.4401" y="-226.5" font-family="Helvetica,sans-Serif" font-size="10.00" fill="#000000">dji_broadcast.hpp</text>
</a>
</g>
</g>
<!-- Node7&#45;&gt;Node9 -->
<g id="edge11" class="edge">
<title>Node7&#45;&gt;Node9</title>
<path fill="none" stroke="#191970" d="M1059.1465,-332.1652C1033.9868,-325.8215 1002.6976,-314.3348 981.4401,-294 968.6464,-281.7616 961.3619,-262.6884 957.4506,-248.4527"/>
<polygon fill="#191970" stroke="#191970" points="960.8439,-247.5937 955.0818,-238.7027 954.0417,-249.2464 960.8439,-247.5937"/>
</g>
<!-- Node11 -->
<g id="node12" class="node">
<title>Node11</title>
<g id="a_node12"><a xlink:href="dji__vehicle__callback_8hpp.html" target="_top" xlink:title="Type definition for new Vehicle&#45;style callbacks.">
<polygon fill="#ffffff" stroke="#000000" points="1212.5167,-110.5 1212.5167,-128.5 1336.3634,-128.5 1336.3634,-110.5 1212.5167,-110.5"/>
<text text-anchor="middle" x="1274.4401" y="-116.5" font-family="Helvetica,sans-Serif" font-size="10.00" fill="#000000">dji_vehicle_callback.hpp</text>
</a>
</g>
</g>
<!-- Node7&#45;&gt;Node11 -->
<g id="edge63" class="edge">
<title>Node7&#45;&gt;Node11</title>
<path fill="none" stroke="#191970" d="M1111.6547,-330.4831C1128.2679,-317.3566 1160.6674,-292.6317 1190.4401,-275 1222.2542,-256.1593 1240.3995,-266.2044 1265.4401,-239 1288.5933,-213.8461 1290.8357,-198.9038 1286.4401,-165 1285.2861,-156.0996 1282.9127,-146.459 1280.5789,-138.3525"/>
<polygon fill="#191970" stroke="#191970" points="1283.9185,-137.3047 1277.6397,-128.7708 1277.2263,-139.3576 1283.9185,-137.3047"/>
</g>
<!-- Node12 -->
<g id="node13" class="node">
<title>Node12</title>
<g id="a_node13"><a xlink:title=" ">
<polygon fill="#ffffff" stroke="#bfbfbf" points="1127.2335,-55.5 1127.2335,-73.5 1241.6466,-73.5 1241.6466,-55.5 1127.2335,-55.5"/>
<text text-anchor="middle" x="1184.4401" y="-61.5" font-family="Helvetica,sans-Serif" font-size="10.00" fill="#000000">dji_open_protocol.hpp</text>
</a>
</g>
</g>
<!-- Node7&#45;&gt;Node12 -->
<g id="edge54" class="edge">
<title>Node7&#45;&gt;Node12</title>
<path fill="none" stroke="#191970" d="M1141.7412,-338.9126C1323.3914,-336.1608 2043.9464,-323.4209 2081.4401,-294 2104.9505,-275.5515 2100.4401,-259.3846 2100.4401,-229.5 2100.4401,-229.5 2100.4401,-229.5 2100.4401,-174.5 2100.4401,-89.0077 1463.3142,-69.6054 1251.7856,-65.5197"/>
<polygon fill="#191970" stroke="#191970" points="1251.804,-62.0195 1241.74,-65.331 1251.6725,-69.0183 1251.804,-62.0195"/>
</g>
<!-- Node13 -->
<g id="node14" class="node">
<title>Node13</title>
<g id="a_node14"><a xlink:href="dji__camera_8hpp.html" target="_top" xlink:title="Camera/Gimbal API for DJI onboardSDK library.">
<polygon fill="#ffffff" stroke="#000000" points="68.2531,-165.5 68.2531,-183.5 152.6271,-183.5 152.6271,-165.5 68.2531,-165.5"/>
<text text-anchor="middle" x="110.4401" y="-171.5" font-family="Helvetica,sans-Serif" font-size="10.00" fill="#000000">dji_camera.hpp</text>
</a>
</g>
</g>
<!-- Node7&#45;&gt;Node13 -->
<g id="edge16" class="edge">
<title>Node7&#45;&gt;Node13</title>
<path fill="none" stroke="#191970" d="M1059.1646,-338.6706C883.3281,-334.9872 203.9854,-319.1725 166.4401,-294 132.1522,-271.0115 118.3891,-221.1877 113.2441,-193.69"/>
<polygon fill="#191970" stroke="#191970" points="116.6791,-193.0098 111.5772,-183.7243 109.775,-194.1647 116.6791,-193.0098"/>
</g>
<!-- Node14 -->
<g id="node15" class="node">
<title>Node14</title>
<g id="a_node15"><a xlink:title=" ">
<polygon fill="#ffffff" stroke="#bfbfbf" points="1242.6071,-275.5 1242.6071,-293.5 1356.2731,-293.5 1356.2731,-275.5 1242.6071,-275.5"/>
<text text-anchor="middle" x="1299.4401" y="-281.5" font-family="Helvetica,sans-Serif" font-size="10.00" fill="#000000">dji_circular_buffer.hpp</text>
</a>
</g>
</g>
<!-- Node7&#45;&gt;Node14 -->
<g id="edge19" class="edge">
<title>Node7&#45;&gt;Node14</title>
<path fill="none" stroke="#191970" d="M1133.3009,-330.4179C1167.1046,-321.0751 1219.9001,-306.4834 1256.8795,-296.263"/>
<polygon fill="#191970" stroke="#191970" points="1258.155,-299.5418 1266.8612,-293.5042 1256.2901,-292.7947 1258.155,-299.5418"/>
</g>
<!-- Node15 -->
<g id="node16" class="node">
<title>Node15</title>
<g id="a_node16"><a xlink:href="dji__control_8hpp.html" target="_top" xlink:title="Control API for DJI OSDK library.">
<polygon fill="#ffffff" stroke="#000000" points="990.9181,-275.5 990.9181,-293.5 1071.962,-293.5 1071.962,-275.5 990.9181,-275.5"/>
<text text-anchor="middle" x="1031.4401" y="-281.5" font-family="Helvetica,sans-Serif" font-size="10.00" fill="#000000">dji_control.hpp</text>
</a>
</g>
</g>
<!-- Node7&#45;&gt;Node15 -->
<g id="edge21" class="edge">
<title>Node7&#45;&gt;Node15</title>
<path fill="none" stroke="#191970" d="M1089.0461,-330.4179C1078.7208,-322.1876 1063.2853,-309.8839 1050.9903,-300.0836"/>
<polygon fill="#191970" stroke="#191970" points="1053.0829,-297.2757 1043.0816,-293.7795 1048.7197,-302.7495 1053.0829,-297.2757"/>
</g>
<!-- Node18 -->
<g id="node19" class="node">
<title>Node18</title>
<g id="a_node19"><a xlink:href="dji__version_8hpp.html" target="_top" xlink:title="Drone/SDK Version definition for DJI onboardSDK library.">
<polygon fill="#ffffff" stroke="#000000" points="639.8073,-165.5 639.8073,-183.5 723.0729,-183.5 723.0729,-165.5 639.8073,-165.5"/>
<text text-anchor="middle" x="681.4401" y="-171.5" font-family="Helvetica,sans-Serif" font-size="10.00" fill="#000000">dji_version.hpp</text>
</a>
</g>
</g>
<!-- Node7&#45;&gt;Node18 -->
<g id="edge64" class="edge">
<title>Node7&#45;&gt;Node18</title>
<path fill="none" stroke="#191970" d="M1068.3484,-330.4276C1040.24,-322.1088 998.5195,-308.8533 963.4401,-294 897.906,-266.2516 887.063,-247.5378 821.4401,-220 789.6424,-206.6565 752.4716,-194.7389 724.4251,-186.451"/>
<polygon fill="#191970" stroke="#191970" points="725.1119,-183.0055 714.5319,-183.5658 723.1521,-189.7256 725.1119,-183.0055"/>
</g>
<!-- Node20 -->
<g id="node21" class="node">
<title>Node20</title>
<g id="a_node21"><a xlink:title=" ">
<polygon fill="#ffffff" stroke="#bfbfbf" points="1373.9083,-275.5 1373.9083,-293.5 1474.9718,-293.5 1474.9718,-275.5 1373.9083,-275.5"/>
<text text-anchor="middle" x="1424.4401" y="-281.5" font-family="Helvetica,sans-Serif" font-size="10.00" fill="#000000">dji_hard_driver.hpp</text>
</a>
</g>
</g>
<!-- Node7&#45;&gt;Node20 -->
<g id="edge35" class="edge">
<title>Node7&#45;&gt;Node20</title>
<path fill="none" stroke="#191970" d="M1141.804,-332.4783C1197.9955,-322.9397 1298.8603,-305.8176 1363.6647,-294.8168"/>
<polygon fill="#191970" stroke="#191970" points="1364.4703,-298.2302 1373.7434,-293.1059 1363.2987,-291.3289 1364.4703,-298.2302"/>
</g>
<!-- Node21 -->
<g id="node22" class="node">
<title>Node21</title>
<g id="a_node22"><a xlink:href="dji__hardware__sync_8hpp.html" target="_top" xlink:title="Hardware Sync API for DJI OSDK.">
<polygon fill="#ffffff" stroke="#000000" points="208.0192,-165.5 208.0192,-183.5 326.861,-183.5 326.861,-165.5 208.0192,-165.5"/>
<text text-anchor="middle" x="267.4401" y="-171.5" font-family="Helvetica,sans-Serif" font-size="10.00" fill="#000000">dji_hardware_sync.hpp</text>
</a>
</g>
</g>
<!-- Node7&#45;&gt;Node21 -->
<g id="edge36" class="edge">
<title>Node7&#45;&gt;Node21</title>
<path fill="none" stroke="#191970" d="M1059.0062,-337.1498C954.4609,-331.0006 682.0017,-313.553 593.4401,-294 522.8792,-278.4213 508.295,-263.8444 440.4401,-239 391.9495,-221.2456 335.9794,-200.2943 301.1458,-187.2004"/>
<polygon fill="#191970" stroke="#191970" points="302.0677,-183.8078 291.4757,-183.5631 299.6032,-190.3596 302.0677,-183.8078"/>
</g>
<!-- Node22 -->
<g id="node23" class="node">
<title>Node22</title>
<g id="a_node23"><a xlink:href="dji__mfio_8hpp.html" target="_top" xlink:title="MFIO API for DJI OSDK library.">
<polygon fill="#ffffff" stroke="#000000" points="1330.4796,-165.5 1330.4796,-183.5 1400.4005,-183.5 1400.4005,-165.5 1330.4796,-165.5"/>
<text text-anchor="middle" x="1365.4401" y="-171.5" font-family="Helvetica,sans-Serif" font-size="10.00" fill="#000000">dji_mfio.hpp</text>
</a>
</g>
</g>
<!-- Node7&#45;&gt;Node22 -->
<g id="edge38" class="edge">
<title>Node7&#45;&gt;Node22</title>
<path fill="none" stroke="#191970" d="M1118.3956,-330.4933C1143.843,-317.797 1191.927,-294.0586 1233.4401,-275 1269.9823,-258.2234 1284.8032,-263.8174 1316.4401,-239 1332.8019,-226.165 1346.6109,-206.6366 1355.3569,-192.4301"/>
<polygon fill="#191970" stroke="#191970" points="1358.504,-193.9838 1360.5721,-183.5927 1352.4755,-190.4261 1358.504,-193.9838"/>
</g>
<!-- Node23 -->
<g id="node24" class="node">
<title>Node23</title>
<g id="a_node24"><a xlink:href="dji__mission__manager_8hpp.html" target="_top" xlink:title="Mission&#45;Manager API for DJI OSDK library.">
<polygon fill="#ffffff" stroke="#000000" points="712.736,-275.5 712.736,-293.5 842.1442,-293.5 842.1442,-275.5 712.736,-275.5"/>
<text text-anchor="middle" x="777.4401" y="-281.5" font-family="Helvetica,sans-Serif" font-size="10.00" fill="#000000">dji_mission_manager.hpp</text>
</a>
</g>
</g>
<!-- Node7&#45;&gt;Node23 -->
<g id="edge40" class="edge">
<title>Node7&#45;&gt;Node23</title>
<path fill="none" stroke="#191970" d="M1059.2038,-332.4783C1003.9122,-323.0634 905.2328,-306.2604 840.5592,-295.2478"/>
<polygon fill="#191970" stroke="#191970" points="840.929,-291.7605 830.4834,-293.5321 839.7539,-298.6612 840.929,-291.7605"/>
</g>
<!-- Node27 -->
<g id="node28" class="node">
<title>Node27</title>
<g id="a_node28"><a xlink:href="dji__mobile__communication_8hpp.html" target="_top" xlink:title="Implementation of DJI Mobile&#45;Onboard SDK Communication (MOC)">
<polygon fill="#ffffff" stroke="#000000" points="1918.7902,-275.5 1918.7902,-293.5 2072.09,-293.5 2072.09,-275.5 1918.7902,-275.5"/>
<text text-anchor="middle" x="1995.4401" y="-281.5" font-family="Helvetica,sans-Serif" font-size="10.00" fill="#000000">dji_mobile_communication.hpp</text>
</a>
</g>
</g>
<!-- Node7&#45;&gt;Node27 -->
<g id="edge49" class="edge">
<title>Node7&#45;&gt;Node27</title>
<path fill="none" stroke="#191970" d="M1141.911,-337.8491C1260.7723,-332.9672 1612.8367,-317.459 1904.4401,-294 1905.7315,-293.8961 1907.033,-293.7892 1908.3426,-293.6796"/>
<polygon fill="#191970" stroke="#191970" points="1908.8526,-297.1484 1918.5097,-292.7906 1908.2428,-290.175 1908.8526,-297.1484"/>
</g>
<!-- Node29 -->
<g id="node30" class="node">
<title>Node29</title>
<g id="a_node30"><a xlink:href="dji__mobile__device_8hpp.html" target="_top" xlink:title="Implementation of DJI Mobile Device Abstraction.">
<polygon fill="#ffffff" stroke="#000000" points="1654.9625,-220.5 1654.9625,-238.5 1769.9176,-238.5 1769.9176,-220.5 1654.9625,-220.5"/>
<text text-anchor="middle" x="1712.4401" y="-226.5" font-family="Helvetica,sans-Serif" font-size="10.00" fill="#000000">dji_mobile_device.hpp</text>
</a>
</g>
</g>
<!-- Node7&#45;&gt;Node29 -->
<g id="edge52" class="edge">
<title>Node7&#45;&gt;Node29</title>
<path fill="none" stroke="#191970" d="M1141.7184,-338.6154C1298.0507,-335.0676 1846.2178,-320.7546 1871.4401,-294 1903.4394,-260.0566 1836.7942,-243.505 1780.2142,-235.769"/>
<polygon fill="#191970" stroke="#191970" points="1780.5213,-232.2797 1770.1552,-234.4691 1779.6241,-239.222 1780.5213,-232.2797"/>
</g>
<!-- Node30 -->
<g id="node31" class="node">
<title>Node30</title>
<g id="a_node31"><a xlink:title=" ">
<polygon fill="#ffffff" stroke="#bfbfbf" points="1492.6227,-275.5 1492.6227,-293.5 1624.2575,-293.5 1624.2575,-275.5 1492.6227,-275.5"/>
<text text-anchor="middle" x="1558.4401" y="-281.5" font-family="Helvetica,sans-Serif" font-size="10.00" fill="#000000">dji_platform_manager.hpp</text>
</a>
</g>
</g>
<!-- Node7&#45;&gt;Node30 -->
<g id="edge55" class="edge">
<title>Node7&#45;&gt;Node30</title>
<path fill="none" stroke="#191970" d="M1141.6555,-334.7498C1210.2,-326.8207 1352.23,-310.2676 1482.1514,-294.2747"/>
<polygon fill="#191970" stroke="#191970" points="1482.7829,-297.7234 1492.2795,-293.026 1481.9263,-290.776 1482.7829,-297.7234"/>
</g>
<!-- Node31 -->
<g id="node32" class="node">
<title>Node31</title>
<g id="a_node32"><a xlink:href="dji__status_8hpp.html" target="_top" xlink:title="Status information for DJI Vehicle.">
<polygon fill="#ffffff" stroke="#000000" points="1642.5856,-275.5 1642.5856,-293.5 1720.2946,-293.5 1720.2946,-275.5 1642.5856,-275.5"/>
<text text-anchor="middle" x="1681.4401" y="-281.5" font-family="Helvetica,sans-Serif" font-size="10.00" fill="#000000">dji_status.hpp</text>
</a>
</g>
</g>
<!-- Node7&#45;&gt;Node31 -->
<g id="edge56" class="edge">
<title>Node7&#45;&gt;Node31</title>
<path fill="none" stroke="#191970" d="M1141.7415,-337.5284C1229.9598,-332.9828 1443.4513,-320.2025 1632.3532,-294.0055"/>
<polygon fill="#191970" stroke="#191970" points="1633.0518,-297.4419 1642.4686,-292.5864 1632.0792,-290.5098 1633.0518,-297.4419"/>
</g>
<!-- Node32 -->
<g id="node33" class="node">
<title>Node32</title>
<g id="a_node33"><a xlink:href="dji__subscription_8hpp.html" target="_top" xlink:title="Telemetry Subscription API for DJI OSDK library.">
<polygon fill="#ffffff" stroke="#000000" points="1132.2457,-220.5 1132.2457,-238.5 1236.6344,-238.5 1236.6344,-220.5 1132.2457,-220.5"/>
<text text-anchor="middle" x="1184.4401" y="-226.5" font-family="Helvetica,sans-Serif" font-size="10.00" fill="#000000">dji_subscription.hpp</text>
</a>
</g>
</g>
<!-- Node7&#45;&gt;Node32 -->
<g id="edge57" class="edge">
<title>Node7&#45;&gt;Node32</title>
<path fill="none" stroke="#191970" d="M1107.3141,-330.4982C1121.2813,-312.2079 1153.1841,-270.4304 1171.2785,-246.7354"/>
<polygon fill="#191970" stroke="#191970" points="1174.1835,-248.6981 1177.471,-238.6261 1168.6201,-244.4496 1174.1835,-248.6981"/>
</g>
<!-- Node33 -->
<g id="node34" class="node">
<title>Node33</title>
<g id="a_node34"><a xlink:title=" ">
<polygon fill="#ffffff" stroke="#bfbfbf" points="1738.507,-275.5 1738.507,-293.5 1862.3732,-293.5 1862.3732,-275.5 1738.507,-275.5"/>
<text text-anchor="middle" x="1800.4401" y="-281.5" font-family="Helvetica,sans-Serif" font-size="10.00" fill="#000000">dji_thread_manager.hpp</text>
</a>
</g>
</g>
<!-- Node7&#45;&gt;Node33 -->
<g id="edge61" class="edge">
<title>Node7&#45;&gt;Node33</title>
<path fill="none" stroke="#191970" d="M1141.7285,-337.3843C1240.9062,-332.1154 1500.5945,-317.2116 1728.0071,-294.0921"/>
<polygon fill="#191970" stroke="#191970" points="1728.5361,-297.5564 1738.1274,-293.0556 1727.8228,-290.5928 1728.5361,-297.5564"/>
</g>
<!-- Node34 -->
<g id="node35" class="node">
<title>Node34</title>
<g id="a_node35"><a xlink:href="dji__virtual__rc_8hpp.html" target="_top" xlink:title="Virtual Radio Control API for DJI onboardSDK library.">
<polygon fill="#ffffff" stroke="#000000" points="602.6422,-275.5 602.6422,-293.5 694.2379,-293.5 694.2379,-275.5 602.6422,-275.5"/>
<text text-anchor="middle" x="648.4401" y="-281.5" font-family="Helvetica,sans-Serif" font-size="10.00" fill="#000000">dji_virtual_rc.hpp</text>
</a>
</g>
</g>
<!-- Node7&#45;&gt;Node34 -->
<g id="edge65" class="edge">
<title>Node7&#45;&gt;Node34</title>
<path fill="none" stroke="#191970" d="M1059.1914,-335.5538C988.7108,-328.6411 840.3585,-313.3522 704.4999,-294.0809"/>
<polygon fill="#191970" stroke="#191970" points="704.7198,-290.5768 694.3252,-292.6267 703.7294,-297.5064 704.7198,-290.5768"/>
</g>
<!-- Node10 -->
<g id="node11" class="node">
<title>Node10</title>
<g id="a_node11"><a xlink:href="dji__telemetry_8hpp.html" target="_top" xlink:title="Enumeration of all telemetry data types, structures and maps.">
<polygon fill="#ffffff" stroke="#000000" points="871.7325,-165.5 871.7325,-183.5 963.1476,-183.5 963.1476,-165.5 871.7325,-165.5"/>
<text text-anchor="middle" x="917.4401" y="-171.5" font-family="Helvetica,sans-Serif" font-size="10.00" fill="#000000">dji_telemetry.hpp</text>
</a>
</g>
</g>
<!-- Node9&#45;&gt;Node10 -->
<g id="edge12" class="edge">
<title>Node9&#45;&gt;Node10</title>
<path fill="none" stroke="#191970" d="M947.4954,-220.4179C942.5227,-212.8207 935.2782,-201.7527 929.1477,-192.3866"/>
<polygon fill="#191970" stroke="#191970" points="931.919,-190.2297 923.5139,-183.7795 926.0621,-194.0633 931.919,-190.2297"/>
</g>
<!-- Node9&#45;&gt;Node11 -->
<g id="edge14" class="edge">
<title>Node9&#45;&gt;Node11</title>
<path fill="none" stroke="#191970" d="M979.7088,-220.4982C1036.9631,-200.8784 1173.0831,-154.2329 1238.3391,-131.871"/>
<polygon fill="#191970" stroke="#191970" points="1239.483,-135.1789 1247.8083,-128.6261 1237.2137,-128.557 1239.483,-135.1789"/>
</g>
<!-- Node10&#45;&gt;Node5 -->
<g id="edge13" class="edge">
<title>Node10&#45;&gt;Node5</title>
<path fill="none" stroke="#191970" d="M871.5591,-166.3442C868.4764,-165.8675 865.4153,-165.4143 862.4401,-165 722.9374,-145.5753 556.889,-130.136 478.5757,-123.3089"/>
<polygon fill="#191970" stroke="#191970" points="478.8332,-119.8182 468.5683,-122.4419 478.2289,-126.7921 478.8332,-119.8182"/>
</g>
<!-- Node11&#45;&gt;Node12 -->
<g id="edge15" class="edge">
<title>Node11&#45;&gt;Node12</title>
<path fill="none" stroke="#191970" d="M1259.5784,-110.4179C1245.6387,-101.8992 1224.5581,-89.0166 1208.27,-79.0627"/>
<polygon fill="#191970" stroke="#191970" points="1209.6817,-75.8237 1199.3238,-73.5956 1206.0316,-81.7967 1209.6817,-75.8237"/>
</g>
<!-- Node13&#45;&gt;Node2 -->
<g id="edge17" class="edge">
<title>Node13&#45;&gt;Node2</title>
<path fill="none" stroke="#191970" d="M143.466,-165.4179C177.4396,-156.0751 230.5004,-141.4834 267.6656,-131.263"/>
<polygon fill="#191970" stroke="#191970" points="268.9835,-134.5306 277.6975,-128.5042 267.1274,-127.7811 268.9835,-134.5306"/>
</g>
<!-- Node13&#45;&gt;Node5 -->
<g id="edge18" class="edge">
<title>Node13&#45;&gt;Node5</title>
<path fill="none" stroke="#191970" d="M152.6667,-167.3097C213.5728,-156.9387 325.6141,-137.8605 388.1723,-127.2081"/>
<polygon fill="#191970" stroke="#191970" points="388.8722,-130.6394 398.1428,-125.5104 387.6971,-123.7387 388.8722,-130.6394"/>
</g>
<!-- Node15&#45;&gt;Node5 -->
<g id="edge32" class="edge">
<title>Node15&#45;&gt;Node5</title>
<path fill="none" stroke="#191970" d="M1030.2696,-275.3691C1026.6946,-251.8138 1013.53,-189.1533 972.4401,-165 930.354,-140.2611 601.0208,-125.6916 478.8484,-121.093"/>
<polygon fill="#191970" stroke="#191970" points="478.8292,-117.59 468.7061,-120.7164 478.5693,-124.5852 478.8292,-117.59"/>
</g>
<!-- Node15&#45;&gt;Node11 -->
<g id="edge33" class="edge">
<title>Node15&#45;&gt;Node11</title>
<path fill="none" stroke="#191970" d="M1072.1819,-280.9636C1127.2067,-275.3542 1221.1971,-262.5598 1245.4401,-239 1272.6464,-212.5603 1276.0556,-165.2461 1275.5961,-138.7776"/>
<polygon fill="#191970" stroke="#191970" points="1279.0839,-138.3899 1275.2025,-128.5316 1272.089,-138.6586 1279.0839,-138.3899"/>
</g>
<!-- Node15&#45;&gt;Node12 -->
<g id="edge31" class="edge">
<title>Node15&#45;&gt;Node12</title>
<path fill="none" stroke="#191970" d="M1037.8195,-275.327C1061.0514,-241.9216 1141.3843,-126.4103 1172.2387,-82.0444"/>
<polygon fill="#191970" stroke="#191970" points="1175.1973,-83.9204 1178.0334,-73.7122 1169.4504,-79.9237 1175.1973,-83.9204"/>
</g>
<!-- Node16 -->
<g id="node17" class="node">
<title>Node16</title>
<g id="a_node17"><a xlink:href="dji__ack_8hpp.html" target="_top" xlink:title="All DJI OSDK ACK parsing.">
<polygon fill="#ffffff" stroke="#000000" points="495.1447,-220.5 495.1447,-238.5 561.7355,-238.5 561.7355,-220.5 495.1447,-220.5"/>
<text text-anchor="middle" x="528.4401" y="-226.5" font-family="Helvetica,sans-Serif" font-size="10.00" fill="#000000">dji_ack.hpp</text>
</a>
</g>
</g>
<!-- Node15&#45;&gt;Node16 -->
<g id="edge22" class="edge">
<title>Node15&#45;&gt;Node16</title>
<path fill="none" stroke="#191970" d="M990.6195,-282.0972C911.7317,-277.1008 732.7267,-264.0486 572.2247,-238.9418"/>
<polygon fill="#191970" stroke="#191970" points="572.5932,-235.4566 562.1687,-237.3489 571.498,-242.3704 572.5932,-235.4566"/>
</g>
<!-- Node16&#45;&gt;Node2 -->
<g id="edge23" class="edge">
<title>Node16&#45;&gt;Node2</title>
<path fill="none" stroke="#191970" d="M500.8268,-220.496C476.6894,-212.2211 440.9814,-198.9915 411.4401,-184 382.48,-169.3035 351.286,-148.549 331.3492,-134.5881"/>
<polygon fill="#191970" stroke="#191970" points="333.2137,-131.6197 323.0297,-128.6978 329.1688,-137.3328 333.2137,-131.6197"/>
</g>
<!-- Node16&#45;&gt;Node5 -->
<g id="edge26" class="edge">
<title>Node16&#45;&gt;Node5</title>
<path fill="none" stroke="#191970" d="M549.4415,-220.428C573.8662,-208.5859 608.8699,-186.7909 592.4401,-165 578.7068,-146.7855 520.7648,-133.6529 478.7855,-126.3108"/>
<polygon fill="#191970" stroke="#191970" points="479.205,-122.8321 468.7609,-124.6132 478.0361,-129.7339 479.205,-122.8321"/>
</g>
<!-- Node17 -->
<g id="node18" class="node">
<title>Node17</title>
<g id="a_node18"><a xlink:href="dji__mission__type_8hpp.html" target="_top" xlink:title="Mission related data struct for DJI OSDK library.">
<polygon fill="#ffffff" stroke="#000000" points="420.7457,-165.5 420.7457,-183.5 530.1344,-183.5 530.1344,-165.5 420.7457,-165.5"/>
<text text-anchor="middle" x="475.4401" y="-171.5" font-family="Helvetica,sans-Serif" font-size="10.00" fill="#000000">dji_mission_type.hpp</text>
</a>
</g>
</g>
<!-- Node16&#45;&gt;Node17 -->
<g id="edge24" class="edge">
<title>Node16&#45;&gt;Node17</title>
<path fill="none" stroke="#191970" d="M519.6882,-220.4179C512.0622,-212.5041 500.8071,-200.8243 491.557,-191.2251"/>
<polygon fill="#191970" stroke="#191970" points="493.8413,-188.5516 484.3821,-183.7795 488.8008,-193.4089 493.8413,-188.5516"/>
</g>
<!-- Node16&#45;&gt;Node18 -->
<g id="edge27" class="edge">
<title>Node16&#45;&gt;Node18</title>
<path fill="none" stroke="#191970" d="M553.7049,-220.4179C579.1394,-211.2748 618.5582,-197.1046 646.8787,-186.924"/>
<polygon fill="#191970" stroke="#191970" points="648.1656,-190.1808 656.392,-183.5042 645.7975,-183.5935 648.1656,-190.1808"/>
</g>
<!-- Node19 -->
<g id="node20" class="node">
<title>Node19</title>
<g id="a_node20"><a xlink:title=" ">
<polygon fill="#ffffff" stroke="#bfbfbf" points="547.7135,-165.5 547.7135,-183.5 583.1666,-183.5 583.1666,-165.5 547.7135,-165.5"/>
<text text-anchor="middle" x="565.4401" y="-171.5" font-family="Helvetica,sans-Serif" font-size="10.00" fill="#000000">map</text>
</a>
</g>
</g>
<!-- Node16&#45;&gt;Node19 -->
<g id="edge30" class="edge">
<title>Node16&#45;&gt;Node19</title>
<path fill="none" stroke="#191970" d="M534.5499,-220.4179C539.7139,-212.7415 547.2618,-201.5217 553.6038,-192.0945"/>
<polygon fill="#191970" stroke="#191970" points="556.5197,-194.0303 559.1975,-183.7795 550.7117,-190.1231 556.5197,-194.0303"/>
</g>
<!-- Node17&#45;&gt;Node5 -->
<g id="edge25" class="edge">
<title>Node17&#45;&gt;Node5</title>
<path fill="none" stroke="#191970" d="M468.5046,-165.4179C462.5823,-157.6624 453.8979,-146.29 446.6536,-136.8035"/>
<polygon fill="#191970" stroke="#191970" points="449.3771,-134.6029 440.5262,-128.7795 443.8137,-138.8514 449.3771,-134.6029"/>
</g>
<!-- Node18&#45;&gt;Node2 -->
<g id="edge28" class="edge">
<title>Node18&#45;&gt;Node2</title>
<path fill="none" stroke="#191970" d="M639.6028,-168.2977C573.1792,-158.4505 443.4327,-139.2159 368.1956,-128.0621"/>
<polygon fill="#191970" stroke="#191970" points="368.3585,-124.5481 357.9533,-126.5437 367.3319,-131.4724 368.3585,-124.5481"/>
</g>
<!-- Node18&#45;&gt;Node8 -->
<g id="edge29" class="edge">
<title>Node18&#45;&gt;Node8</title>
<path fill="none" stroke="#191970" d="M723.1623,-166.5729C726.2991,-166.0245 729.418,-165.4941 732.4401,-165 838.1929,-147.7106 964.0803,-131.1215 1022.5598,-123.6434"/>
<polygon fill="#191970" stroke="#191970" points="1023.1972,-127.0906 1032.6747,-122.355 1022.3126,-120.1467 1023.1972,-127.0906"/>
</g>
<!-- Node21&#45;&gt;Node5 -->
<g id="edge37" class="edge">
<title>Node21&#45;&gt;Node5</title>
<path fill="none" stroke="#191970" d="M294.8516,-165.4179C322.6882,-156.1949 365.9635,-141.8567 396.7444,-131.6582"/>
<polygon fill="#191970" stroke="#191970" points="397.872,-134.9718 406.2637,-128.5042 395.6704,-128.327 397.872,-134.9718"/>
</g>
<!-- Node22&#45;&gt;Node11 -->
<g id="edge39" class="edge">
<title>Node22&#45;&gt;Node11</title>
<path fill="none" stroke="#191970" d="M1350.4133,-165.4179C1336.1869,-156.8195 1314.6048,-143.7754 1298.0743,-133.7844"/>
<polygon fill="#191970" stroke="#191970" points="1299.8579,-130.7729 1289.4892,-128.5956 1296.2371,-136.7637 1299.8579,-130.7729"/>
</g>
<!-- Node24 -->
<g id="node25" class="node">
<title>Node24</title>
<g id="a_node25"><a xlink:href="dji__hotpoint_8hpp.html" target="_top" xlink:title="Implementation of HotPoint (Point of Interest) Missions for DJI OSDK.">
<polygon fill="#ffffff" stroke="#000000" points="726.1325,-220.5 726.1325,-238.5 812.7477,-238.5 812.7477,-220.5 726.1325,-220.5"/>
<text text-anchor="middle" x="769.4401" y="-226.5" font-family="Helvetica,sans-Serif" font-size="10.00" fill="#000000">dji_hotpoint.hpp</text>
</a>
</g>
</g>
<!-- Node23&#45;&gt;Node24 -->
<g id="edge41" class="edge">
<title>Node23&#45;&gt;Node24</title>
<path fill="none" stroke="#191970" d="M776.119,-275.4179C775.0715,-268.2164 773.5704,-257.8962 772.2565,-248.8632"/>
<polygon fill="#191970" stroke="#191970" points="775.6928,-248.1715 770.7898,-238.7795 768.7657,-249.1791 775.6928,-248.1715"/>
</g>
<!-- Node26 -->
<g id="node27" class="node">
<title>Node26</title>
<g id="a_node27"><a xlink:href="dji__waypoint_8hpp.html" target="_top" xlink:title="Implementation of GPS Waypoint Missions for DJI OSDK.">
<polygon fill="#ffffff" stroke="#000000" points="580.1915,-220.5 580.1915,-238.5 670.6886,-238.5 670.6886,-220.5 580.1915,-220.5"/>
<text text-anchor="middle" x="625.4401" y="-226.5" font-family="Helvetica,sans-Serif" font-size="10.00" fill="#000000">dji_waypoint.hpp</text>
</a>
</g>
</g>
<!-- Node23&#45;&gt;Node26 -->
<g id="edge47" class="edge">
<title>Node23&#45;&gt;Node26</title>
<path fill="none" stroke="#191970" d="M752.3404,-275.4179C727.0721,-266.2748 687.9109,-252.1046 659.7756,-241.924"/>
<polygon fill="#191970" stroke="#191970" points="660.9187,-238.6156 650.3244,-238.5042 658.5369,-245.198 660.9187,-238.6156"/>
</g>
<!-- Node24&#45;&gt;Node10 -->
<g id="edge46" class="edge">
<title>Node24&#45;&gt;Node10</title>
<path fill="none" stroke="#191970" d="M793.8793,-220.4179C818.302,-211.3419 856.0542,-197.3123 883.4033,-187.1488"/>
<polygon fill="#191970" stroke="#191970" points="884.8101,-190.3599 892.9646,-183.5956 882.3717,-183.7984 884.8101,-190.3599"/>
</g>
<!-- Node25 -->
<g id="node26" class="node">
<title>Node25</title>
<g id="a_node26"><a xlink:href="dji__mission__base_8hpp.html" target="_top" xlink:title="Mission&#45;Base abstract class for DJI OSDK library.">
<polygon fill="#ffffff" stroke="#000000" points="741.3541,-165.5 741.3541,-183.5 853.526,-183.5 853.526,-165.5 741.3541,-165.5"/>
<text text-anchor="middle" x="797.4401" y="-171.5" font-family="Helvetica,sans-Serif" font-size="10.00" fill="#000000">dji_mission_base.hpp</text>
</a>
</g>
</g>
<!-- Node24&#45;&gt;Node25 -->
<g id="edge42" class="edge">
<title>Node24&#45;&gt;Node25</title>
<path fill="none" stroke="#191970" d="M774.0637,-220.4179C777.8508,-212.9789 783.332,-202.2123 788.035,-192.9742"/>
<polygon fill="#191970" stroke="#191970" points="791.2982,-194.279 792.716,-183.7795 785.06,-191.1032 791.2982,-194.279"/>
</g>
<!-- Node25&#45;&gt;Node2 -->
<g id="edge43" class="edge">
<title>Node25&#45;&gt;Node2</title>
<path fill="none" stroke="#191970" d="M741.0889,-166.1214C738.1653,-165.7313 735.269,-165.355 732.4401,-165 580.3514,-145.9125 541.7593,-146.1509 389.4401,-129 382.615,-128.2315 375.4612,-127.4032 368.3637,-126.5673"/>
<polygon fill="#191970" stroke="#191970" points="368.3932,-123.0463 358.0503,-125.3432 367.5681,-129.9975 368.3932,-123.0463"/>
</g>
<!-- Node25&#45;&gt;Node5 -->
<g id="edge44" class="edge">
<title>Node25&#45;&gt;Node5</title>
<path fill="none" stroke="#191970" d="M740.9645,-165.9666C668.7464,-155.0545 545.1169,-136.3742 478.7371,-126.3443"/>
<polygon fill="#191970" stroke="#191970" points="479.0025,-122.8448 468.5918,-124.8114 477.9566,-129.7662 479.0025,-122.8448"/>
</g>
<!-- Node25&#45;&gt;Node11 -->
<g id="edge45" class="edge">
<title>Node25&#45;&gt;Node11</title>
<path fill="none" stroke="#191970" d="M853.7936,-166.1401C856.7165,-165.7452 859.6121,-165.3627 862.4401,-165 981.3224,-149.7527 1119.9061,-135.086 1202.2355,-126.6982"/>
<polygon fill="#191970" stroke="#191970" points="1202.6431,-130.1749 1212.238,-125.6819 1201.9354,-123.2108 1202.6431,-130.1749"/>
</g>
<!-- Node26&#45;&gt;Node25 -->
<g id="edge48" class="edge">
<title>Node26&#45;&gt;Node25</title>
<path fill="none" stroke="#191970" d="M653.8424,-220.4179C682.6851,-211.1949 727.5246,-196.8567 759.418,-186.6582"/>
<polygon fill="#191970" stroke="#191970" points="760.8226,-189.8837 769.2814,-183.5042 758.6905,-183.2163 760.8226,-189.8837"/>
</g>
<!-- Node27&#45;&gt;Node11 -->
<g id="edge51" class="edge">
<title>Node27&#45;&gt;Node11</title>
<path fill="none" stroke="#191970" d="M1995.6313,-275.3989C1995.3925,-261.2262 1992.6836,-234.0541 1976.4401,-220 1929.2225,-179.1467 1516.0449,-139.9335 1346.5335,-125.4133"/>
<polygon fill="#191970" stroke="#191970" points="1346.7162,-121.9162 1336.4551,-124.5545 1346.1218,-128.891 1346.7162,-121.9162"/>
</g>
<!-- Node28 -->
<g id="node29" class="node">
<title>Node28</title>
<g id="a_node29"><a xlink:title=" ">
<polygon fill="#ffffff" stroke="#bfbfbf" points="1883.5338,-220.5 1883.5338,-238.5 1967.3463,-238.5 1967.3463,-220.5 1883.5338,-220.5"/>
<text text-anchor="middle" x="1925.4401" y="-226.5" font-family="Helvetica,sans-Serif" font-size="10.00" fill="#000000">dji_macros.hpp</text>
</a>
</g>
</g>
<!-- Node27&#45;&gt;Node28 -->
<g id="edge50" class="edge">
<title>Node27&#45;&gt;Node28</title>
<path fill="none" stroke="#191970" d="M1983.881,-275.4179C1973.4061,-267.1876 1957.7469,-254.8839 1945.2737,-245.0836"/>
<polygon fill="#191970" stroke="#191970" points="1947.2759,-242.2056 1937.2503,-238.7795 1942.9511,-247.7098 1947.2759,-242.2056"/>
</g>
<!-- Node29&#45;&gt;Node11 -->
<g id="edge53" class="edge">
<title>Node29&#45;&gt;Node11</title>
<path fill="none" stroke="#191970" d="M1676.5967,-220.4982C1597.4935,-200.6321 1408.0609,-153.0577 1320.3926,-131.0406"/>
<polygon fill="#191970" stroke="#191970" points="1321.0224,-127.5901 1310.471,-128.5489 1319.3173,-134.3793 1321.0224,-127.5901"/>
</g>
<!-- Node32&#45;&gt;Node10 -->
<g id="edge59" class="edge">
<title>Node32&#45;&gt;Node10</title>
<path fill="none" stroke="#191970" d="M1140.6494,-220.4795C1094.2827,-210.9282 1021.0445,-195.8417 971.2057,-185.5753"/>
<polygon fill="#191970" stroke="#191970" points="971.7552,-182.1151 961.2546,-183.5255 970.3428,-188.9711 971.7552,-182.1151"/>
</g>
<!-- Node32&#45;&gt;Node11 -->
<g id="edge60" class="edge">
<title>Node32&#45;&gt;Node11</title>
<path fill="none" stroke="#191970" d="M1191.8051,-220.4982C1206.8359,-202.1273 1241.2531,-160.0619 1260.5937,-136.4233"/>
<polygon fill="#191970" stroke="#191970" points="1263.3497,-138.5821 1266.9732,-128.6261 1257.932,-134.1494 1263.3497,-138.5821"/>
</g>
<!-- Node32&#45;&gt;Node12 -->
<g id="edge58" class="edge">
<title>Node32&#45;&gt;Node12</title>
<path fill="none" stroke="#191970" d="M1184.4401,-220.1561C1184.4401,-193.9504 1184.4401,-119.3557 1184.4401,-83.8021"/>
<polygon fill="#191970" stroke="#191970" points="1187.9402,-83.7414 1184.4401,-73.7414 1180.9402,-83.7414 1187.9402,-83.7414"/>
</g>
<!-- Node34&#45;&gt;Node5 -->
<g id="edge68" class="edge">
<title>Node34&#45;&gt;Node5</title>
<path fill="none" stroke="#191970" d="M602.5096,-276.1995C569.1765,-269.0938 523.6025,-257.102 486.4401,-239 449.2786,-220.8984 430.1245,-220.8719 411.4401,-184 403.7056,-168.7367 411.7316,-150.1334 420.1792,-136.8353"/>
<polygon fill="#191970" stroke="#191970" points="423.0803,-138.7938 425.9064,-128.5828 417.3295,-134.8027 423.0803,-138.7938"/>
</g>
<!-- Node34&#45;&gt;Node10 -->
<g id="edge69" class="edge">
<title>Node34&#45;&gt;Node10</title>
<path fill="none" stroke="#191970" d="M655.4187,-275.4189C666.8013,-261.2737 690.7855,-234.1385 717.4401,-220 730.2114,-213.2257 807.2588,-196.7369 861.8966,-185.5843"/>
<polygon fill="#191970" stroke="#191970" points="862.7151,-188.9896 871.8174,-183.5675 861.3205,-182.1299 862.7151,-188.9896"/>
</g>
<!-- Node34&#45;&gt;Node12 -->
<g id="edge67" class="edge">
<title>Node34&#45;&gt;Node12</title>
<path fill="none" stroke="#191970" d="M686.8658,-275.4711C722.1161,-266.9343 775.6476,-253.3281 821.4401,-239 855.5228,-228.3358 944.0921,-205.7198 972.4401,-184 1004.3481,-159.5525 991.67,-133.2793 1024.4401,-110 1051.5149,-90.7665 1086.5522,-79.6314 1116.9347,-73.1999"/>
<polygon fill="#191970" stroke="#191970" points="1117.9142,-76.5739 1127.0416,-71.1942 1116.5516,-69.7078 1117.9142,-76.5739"/>
</g>
<!-- Node34&#45;&gt;Node16 -->
<g id="edge66" class="edge">
<title>Node34&#45;&gt;Node16</title>
<path fill="none" stroke="#191970" d="M628.6245,-275.4179C609.2565,-266.5409 579.5497,-252.9253 557.5083,-242.823"/>
<polygon fill="#191970" stroke="#191970" points="558.834,-239.5805 548.2851,-238.5956 555.9174,-245.944 558.834,-239.5805"/>
</g>
</g>
</svg>
        <g id="navigator" transform="translate(0 0)" fill="#404254">
                <rect fill="#f2f5e9" fill-opacity="0.5" stroke="#606060" stroke-width=".5" x="0" y="0" width="60" height="60"/>
                <use id="zoomplus" xlink:href="#zoomPlus" x="17" y="9" onmousedown="handleZoom(evt,'in')"/>
                <use id="zoomminus" xlink:href="#zoomMin" x="42" y="9" onmousedown="handleZoom(evt,'out')"/>
                <use id="reset" xlink:href="#resetDef" x="30" y="36" onmousedown="handleReset()"/>
                <g id="arrowUp" xlink:href="#dirArrow" transform="translate(30 24)" onmousedown="handlePan(0,-1)">
                  <use xlink:href="#rim" fill="#404040">
                        <set attributeName="fill" to="#808080" begin="arrowUp.mouseover" end="arrowUp.mouseout"/>
                  </use>
                  <path fill="none" stroke="white" stroke-width="1.5" d="M0,-3.0v7 M-2.5,-0.5L0,-3.0L2.5,-0.5"/>
                </g>
                <g id="arrowRight" xlink:href="#dirArrow" transform="rotate(90) translate(36 -43)" onmousedown="handlePan(1,0)">
                  <use xlink:href="#rim" fill="#404040">
                        <set attributeName="fill" to="#808080" begin="arrowRight.mouseover" end="arrowRight.mouseout"/>
                  </use>
                  <path fill="none" stroke="white" stroke-width="1.5" d="M0,-3.0v7 M-2.5,-0.5L0,-3.0L2.5,-0.5"/>
                </g>
                <g id="arrowDown" xlink:href="#dirArrow" transform="rotate(180) translate(-30 -48)" onmousedown="handlePan(0,1)">
                  <use xlink:href="#rim" fill="#404040">
                        <set attributeName="fill" to="#808080" begin="arrowDown.mouseover" end="arrowDown.mouseout"/>
                  </use>
                  <path fill="none" stroke="white" stroke-width="1.5" d="M0,-3.0v7 M-2.5,-0.5L0,-3.0L2.5,-0.5"/>
                </g>
                <g id="arrowLeft" xlink:href="#dirArrow" transform="rotate(270) translate(-36 17)" onmousedown="handlePan(-1,0)">
                  <use xlink:href="#rim" fill="#404040">
                        <set attributeName="fill" to="#808080" begin="arrowLeft.mouseover" end="arrowLeft.mouseout"/>
                  </use>
                  <path fill="none" stroke="white" stroke-width="1.5" d="M0,-3.0v7 M-2.5,-0.5L0,-3.0L2.5,-0.5"/>
                </g>
        </g>
        <svg viewBox="0 0 15 15" width="100%" height="30px" preserveAspectRatio="xMaxYMin meet">
         <g id="arrow_out" transform="scale(0.3 0.3)">
          <a xlink:href="dji__gimbal_8cpp__incl_org.svg" target="_base">
           <rect id="button" ry="5" rx="5" y="6" x="6" height="38" width="38"
                fill="#f2f5e9" fill-opacity="0.5" stroke="#606060" stroke-width="1.0"/>
           <path id="arrow"
             d="M 11.500037,31.436501 C 11.940474,20.09759 22.043105,11.32322 32.158766,21.979434 L 37.068811,17.246167 C 37.068811,17.246167 37.088388,32 37.088388,32 L 22.160133,31.978069 C 22.160133,31.978069 26.997745,27.140456 26.997745,27.140456 C 18.528582,18.264221 13.291696,25.230495 11.500037,31.436501 z"
             style="fill:#404040;"/>
          </a>
         </g>
        </svg>
</svg>
