<?xml version="1.0" encoding="UTF-8" standalone="no"?>
<!DOCTYPE svg PUBLIC "-//W3C//DTD SVG 1.1//EN"
 "http://www.w3.org/Graphics/SVG/1.1/DTD/svg11.dtd">
<!-- Generated by graphviz version 2.40.1 (20161225.0304)
 -->
<!-- Title: osdk&#45;core/api/src/dji_mobile_communication.cpp Pages: 1 -->
<svg width="1826pt" height="422pt"
 viewBox="0.00 0.00 1825.74 422.00" xmlns="http://www.w3.org/2000/svg" xmlns:xlink="http://www.w3.org/1999/xlink">
<g id="graph0" class="graph" transform="scale(1 1) rotate(0) translate(4 418)">
<title>osdk&#45;core/api/src/dji_mobile_communication.cpp</title>
<polygon fill="#ffffff" stroke="transparent" points="-4,4 -4,-418 1821.738,-418 1821.738,4 -4,4"/>
<!-- Node0 -->
<g id="node1" class="node">
<title>Node0</title>
<g id="a_node1"><a xlink:title="Implementation of DJI Mobile&#45;Onboard SDK Communication (MOC)">
<polygon fill="#bfbfbf" stroke="#000000" points="428.5396,-385.5 428.5396,-413.5 571.2729,-413.5 571.2729,-385.5 428.5396,-385.5"/>
<text text-anchor="start" x="436.5396" y="-401.5" font-family="Helvetica,sans-Serif" font-size="10.00" fill="#000000">osdk&#45;core/api/src/dji</text>
<text text-anchor="middle" x="499.9063" y="-391.5" font-family="Helvetica,sans-Serif" font-size="10.00" fill="#000000">_mobile_communication.cpp</text>
</a>
</g>
</g>
<!-- Node1 -->
<g id="node2" class="node">
<title>Node1</title>
<g id="a_node2"><a xlink:href="dji__mobile__communication_8hpp.html" target="_top" xlink:title="Implementation of DJI Mobile&#45;Onboard SDK Communication (MOC)">
<polygon fill="#ffffff" stroke="#000000" points="39.2563,-275.5 39.2563,-293.5 192.5562,-293.5 192.5562,-275.5 39.2563,-275.5"/>
<text text-anchor="middle" x="115.9063" y="-281.5" font-family="Helvetica,sans-Serif" font-size="10.00" fill="#000000">dji_mobile_communication.hpp</text>
</a>
</g>
</g>
<!-- Node0&#45;&gt;Node1 -->
<g id="edge1" class="edge">
<title>Node0&#45;&gt;Node1</title>
<path fill="none" stroke="#191970" d="M452.8203,-385.3987C376.5622,-362.561 227.3874,-317.8863 155.9292,-296.486"/>
<polygon fill="#191970" stroke="#191970" points="156.5518,-293.019 145.9681,-293.5029 154.5436,-299.7247 156.5518,-293.019"/>
</g>
<!-- Node5 -->
<g id="node6" class="node">
<title>Node5</title>
<g id="a_node6"><a xlink:href="dji__vehicle_8hpp.html" target="_top" xlink:title="Vehicle API for DJI onboardSDK library.">
<polygon fill="#ffffff" stroke="#000000" points="810.8276,-330.5 810.8276,-348.5 892.9849,-348.5 892.9849,-330.5 810.8276,-330.5"/>
<text text-anchor="middle" x="851.9063" y="-336.5" font-family="Helvetica,sans-Serif" font-size="10.00" fill="#000000">dji_vehicle.hpp</text>
</a>
</g>
</g>
<!-- Node0&#45;&gt;Node5 -->
<g id="edge5" class="edge">
<title>Node0&#45;&gt;Node5</title>
<path fill="none" stroke="#191970" d="M571.563,-387.2858C639.5908,-375.6901 740.1691,-358.5461 800.5464,-348.2545"/>
<polygon fill="#191970" stroke="#191970" points="801.3377,-351.6702 810.6074,-346.5396 800.1614,-344.7697 801.3377,-351.6702"/>
</g>
<!-- Node2 -->
<g id="node3" class="node">
<title>Node2</title>
<g id="a_node3"><a xlink:title=" ">
<polygon fill="#ffffff" stroke="#bfbfbf" points="0,-220.5 0,-238.5 83.8125,-238.5 83.8125,-220.5 0,-220.5"/>
<text text-anchor="middle" x="41.9063" y="-226.5" font-family="Helvetica,sans-Serif" font-size="10.00" fill="#000000">dji_macros.hpp</text>
</a>
</g>
</g>
<!-- Node1&#45;&gt;Node2 -->
<g id="edge2" class="edge">
<title>Node1&#45;&gt;Node2</title>
<path fill="none" stroke="#191970" d="M103.6867,-275.4179C92.4393,-267.0584 75.5381,-254.4966 62.2548,-244.6239"/>
<polygon fill="#191970" stroke="#191970" points="64.2578,-241.7518 54.144,-238.5956 60.0821,-247.37 64.2578,-241.7518"/>
</g>
<!-- Node3 -->
<g id="node4" class="node">
<title>Node3</title>
<g id="a_node4"><a xlink:href="dji__vehicle__callback_8hpp.html" target="_top" xlink:title="Type definition for new Vehicle&#45;style callbacks.">
<polygon fill="#ffffff" stroke="#000000" points="295.9829,-110.5 295.9829,-128.5 419.8296,-128.5 419.8296,-110.5 295.9829,-110.5"/>
<text text-anchor="middle" x="357.9063" y="-116.5" font-family="Helvetica,sans-Serif" font-size="10.00" fill="#000000">dji_vehicle_callback.hpp</text>
</a>
</g>
</g>
<!-- Node1&#45;&gt;Node3 -->
<g id="edge3" class="edge">
<title>Node1&#45;&gt;Node3</title>
<path fill="none" stroke="#191970" d="M116.5092,-275.3975C118.5041,-252.9818 126.8712,-194.78 160.9063,-165 179.5267,-148.7075 237.3782,-136.5612 285.6073,-128.9353"/>
<polygon fill="#191970" stroke="#191970" points="286.3839,-132.3571 295.7352,-127.3767 285.3192,-125.4385 286.3839,-132.3571"/>
</g>
<!-- Node4 -->
<g id="node5" class="node">
<title>Node4</title>
<g id="a_node5"><a xlink:title=" ">
<polygon fill="#ffffff" stroke="#bfbfbf" points="459.6997,-55.5 459.6997,-73.5 574.1128,-73.5 574.1128,-55.5 459.6997,-55.5"/>
<text text-anchor="middle" x="516.9063" y="-61.5" font-family="Helvetica,sans-Serif" font-size="10.00" fill="#000000">dji_open_protocol.hpp</text>
</a>
</g>
</g>
<!-- Node3&#45;&gt;Node4 -->
<g id="edge4" class="edge">
<title>Node3&#45;&gt;Node4</title>
<path fill="none" stroke="#191970" d="M384.1619,-110.4179C410.7092,-101.2348 451.9165,-86.9807 481.3744,-76.7909"/>
<polygon fill="#191970" stroke="#191970" points="482.5695,-80.081 490.8759,-73.5042 480.2811,-73.4656 482.5695,-80.081"/>
</g>
<!-- Node5&#45;&gt;Node1 -->
<g id="edge51" class="edge">
<title>Node5&#45;&gt;Node1</title>
<path fill="none" stroke="#191970" d="M810.476,-336.794C709.4661,-330.1363 442.4779,-312.1757 219.9063,-294 214.3721,-293.5481 208.6738,-293.0683 202.9296,-292.5739"/>
<polygon fill="#191970" stroke="#191970" points="202.8324,-289.0522 192.5663,-291.6708 202.2247,-296.0258 202.8324,-289.0522"/>
</g>
<!-- Node5&#45;&gt;Node3 -->
<g id="edge63" class="edge">
<title>Node5&#45;&gt;Node3</title>
<path fill="none" stroke="#191970" d="M810.6627,-336.3065C725.8749,-329.4568 534.6933,-312.4681 471.9063,-294 418.321,-278.2385 392.6574,-283.5046 358.9063,-239 336.7475,-209.7812 344.7102,-163.9447 351.7637,-138.3655"/>
<polygon fill="#191970" stroke="#191970" points="355.1271,-139.3344 354.6406,-128.7508 348.4208,-137.3278 355.1271,-139.3344"/>
</g>
<!-- Node5&#45;&gt;Node4 -->
<g id="edge54" class="edge">
<title>Node5&#45;&gt;Node4</title>
<path fill="none" stroke="#191970" d="M810.5808,-334.6007C748.6894,-326.8432 635.2021,-310.8735 597.9063,-294 555.9783,-275.0309 516.9063,-275.5193 516.9063,-229.5 516.9063,-229.5 516.9063,-229.5 516.9063,-174.5 516.9063,-142.7718 516.9063,-105.8957 516.9063,-83.917"/>
<polygon fill="#191970" stroke="#191970" points="520.4063,-83.6266 516.9063,-73.6267 513.4063,-83.6267 520.4063,-83.6266"/>
</g>
<!-- Node6 -->
<g id="node7" class="node">
<title>Node6</title>
<g id="a_node7"><a xlink:title=" ">
<polygon fill="#ffffff" stroke="#bfbfbf" points="676.4556,-110.5 676.4556,-128.5 721.3569,-128.5 721.3569,-110.5 676.4556,-110.5"/>
<text text-anchor="middle" x="698.9063" y="-116.5" font-family="Helvetica,sans-Serif" font-size="10.00" fill="#000000">cstdint</text>
</a>
</g>
</g>
<!-- Node5&#45;&gt;Node6 -->
<g id="edge6" class="edge">
<title>Node5&#45;&gt;Node6</title>
<path fill="none" stroke="#191970" d="M834.3969,-330.4406C807.1594,-315.376 755.0594,-282.4802 728.9063,-239 709.775,-207.194 702.7957,-163.6033 700.2843,-138.8161"/>
<polygon fill="#191970" stroke="#191970" points="703.7472,-138.2361 699.3967,-128.5757 696.7734,-138.8406 703.7472,-138.2361"/>
</g>
<!-- Node7 -->
<g id="node8" class="node">
<title>Node7</title>
<g id="a_node8"><a xlink:href="dji__broadcast_8hpp.html" target="_top" xlink:title="Broadcast Telemetry API for DJI onboardSDK library.">
<polygon fill="#ffffff" stroke="#000000" points="544.4336,-220.5 544.4336,-238.5 639.3789,-238.5 639.3789,-220.5 544.4336,-220.5"/>
<text text-anchor="middle" x="591.9063" y="-226.5" font-family="Helvetica,sans-Serif" font-size="10.00" fill="#000000">dji_broadcast.hpp</text>
</a>
</g>
</g>
<!-- Node5&#45;&gt;Node7 -->
<g id="edge7" class="edge">
<title>Node5&#45;&gt;Node7</title>
<path fill="none" stroke="#191970" d="M810.7063,-336.4719C750.8337,-331.2787 643.766,-318.7541 614.9063,-294 601.6751,-282.6511 596.0552,-263.1434 593.6683,-248.5459"/>
<polygon fill="#191970" stroke="#191970" points="597.1318,-248.0364 592.4007,-238.5566 590.1875,-248.9177 597.1318,-248.0364"/>
</g>
<!-- Node9 -->
<g id="node10" class="node">
<title>Node9</title>
<g id="a_node10"><a xlink:href="dji__type_8hpp.html" target="_top" xlink:title="Data type and Data Structure definitions for use throughout DJI OSDK.">
<polygon fill="#ffffff" stroke="#000000" points="1292.9409,-110.5 1292.9409,-128.5 1362.8716,-128.5 1362.8716,-110.5 1292.9409,-110.5"/>
<text text-anchor="middle" x="1327.9063" y="-116.5" font-family="Helvetica,sans-Serif" font-size="10.00" fill="#000000">dji_type.hpp</text>
</a>
</g>
</g>
<!-- Node5&#45;&gt;Node9 -->
<g id="edge62" class="edge">
<title>Node5&#45;&gt;Node9</title>
<path fill="none" stroke="#191970" d="M893.0288,-334.0126C934.8126,-327.5829 1000.891,-315.0406 1054.9063,-294 1070.676,-287.8572 1071.8295,-280.2874 1087.9063,-275 1222.603,-230.7002 1287.2624,-318.1556 1404.9063,-239 1434.3506,-219.1887 1454.4843,-194.5999 1434.9063,-165 1427.071,-153.1539 1395.5194,-140.5831 1368.6918,-131.6637"/>
<polygon fill="#191970" stroke="#191970" points="1369.6662,-128.3004 1359.0744,-128.5509 1367.5106,-134.9602 1369.6662,-128.3004"/>
</g>
<!-- Node12 -->
<g id="node13" class="node">
<title>Node12</title>
<g id="a_node13"><a xlink:href="dji__camera_8hpp.html" target="_top" xlink:title="Camera/Gimbal API for DJI onboardSDK library.">
<polygon fill="#ffffff" stroke="#000000" points="1617.7192,-165.5 1617.7192,-183.5 1702.0933,-183.5 1702.0933,-165.5 1617.7192,-165.5"/>
<text text-anchor="middle" x="1659.9063" y="-171.5" font-family="Helvetica,sans-Serif" font-size="10.00" fill="#000000">dji_camera.hpp</text>
</a>
</g>
</g>
<!-- Node5&#45;&gt;Node12 -->
<g id="edge13" class="edge">
<title>Node5&#45;&gt;Node12</title>
<path fill="none" stroke="#191970" d="M893.1179,-339.0533C1069.4384,-336.9446 1752.7811,-326.6817 1783.9063,-294 1822.1003,-253.8958 1740.0972,-209.2618 1691.8456,-187.651"/>
<polygon fill="#191970" stroke="#191970" points="1692.9684,-184.322 1682.4039,-183.5214 1690.1632,-190.7354 1692.9684,-184.322"/>
</g>
<!-- Node13 -->
<g id="node14" class="node">
<title>Node13</title>
<g id="a_node14"><a xlink:href="dji__command_8hpp.html" target="_top" xlink:title="All DJI OSDK OpenProtocol Command IDs.">
<polygon fill="#ffffff" stroke="#000000" points="1381.4385,-110.5 1381.4385,-128.5 1476.374,-128.5 1476.374,-110.5 1381.4385,-110.5"/>
<text text-anchor="middle" x="1428.9063" y="-116.5" font-family="Helvetica,sans-Serif" font-size="10.00" fill="#000000">dji_command.hpp</text>
</a>
</g>
</g>
<!-- Node5&#45;&gt;Node13 -->
<g id="edge20" class="edge">
<title>Node5&#45;&gt;Node13</title>
<path fill="none" stroke="#191970" d="M893.0103,-339.0941C1071.2903,-337.1367 1770.1126,-327.3528 1801.9063,-294 1850.3178,-243.2143 1774.8663,-193.8441 1710.9063,-165 1671.8577,-147.3903 1557.0929,-132.8274 1486.5836,-125.2185"/>
<polygon fill="#191970" stroke="#191970" points="1486.8303,-121.725 1476.5159,-124.1468 1486.0892,-128.6857 1486.8303,-121.725"/>
</g>
<!-- Node15 -->
<g id="node16" class="node">
<title>Node15</title>
<g id="a_node16"><a xlink:title=" ">
<polygon fill="#ffffff" stroke="#bfbfbf" points="1140.0732,-275.5 1140.0732,-293.5 1253.7393,-293.5 1253.7393,-275.5 1140.0732,-275.5"/>
<text text-anchor="middle" x="1196.9063" y="-281.5" font-family="Helvetica,sans-Serif" font-size="10.00" fill="#000000">dji_circular_buffer.hpp</text>
</a>
</g>
</g>
<!-- Node5&#45;&gt;Node15 -->
<g id="edge19" class="edge">
<title>Node5&#45;&gt;Node15</title>
<path fill="none" stroke="#191970" d="M893.1786,-332.9203C951.9062,-323.558 1060.2257,-306.2897 1130.3758,-295.1063"/>
<polygon fill="#191970" stroke="#191970" points="1131.1142,-298.5329 1140.4385,-293.5021 1130.0121,-291.6202 1131.1142,-298.5329"/>
</g>
<!-- Node16 -->
<g id="node17" class="node">
<title>Node16</title>
<g id="a_node17"><a xlink:href="dji__control_8hpp.html" target="_top" xlink:title="Control API for DJI OSDK library.">
<polygon fill="#ffffff" stroke="#000000" points="624.3843,-275.5 624.3843,-293.5 705.4282,-293.5 705.4282,-275.5 624.3843,-275.5"/>
<text text-anchor="middle" x="664.9063" y="-281.5" font-family="Helvetica,sans-Serif" font-size="10.00" fill="#000000">dji_control.hpp</text>
</a>
</g>
</g>
<!-- Node5&#45;&gt;Node16 -->
<g id="edge21" class="edge">
<title>Node5&#45;&gt;Node16</title>
<path fill="none" stroke="#191970" d="M821.027,-330.4179C789.3974,-321.115 740.0736,-306.608 705.3467,-296.3943"/>
<polygon fill="#191970" stroke="#191970" points="706.1018,-292.9682 695.5206,-293.5042 704.1266,-299.6837 706.1018,-292.9682"/>
</g>
<!-- Node19 -->
<g id="node20" class="node">
<title>Node19</title>
<g id="a_node20"><a xlink:href="dji__version_8hpp.html" target="_top" xlink:title="Drone/SDK Version definition for DJI onboardSDK library.">
<polygon fill="#ffffff" stroke="#000000" points="918.2734,-165.5 918.2734,-183.5 1001.5391,-183.5 1001.5391,-165.5 918.2734,-165.5"/>
<text text-anchor="middle" x="959.9063" y="-171.5" font-family="Helvetica,sans-Serif" font-size="10.00" fill="#000000">dji_version.hpp</text>
</a>
</g>
</g>
<!-- Node5&#45;&gt;Node19 -->
<g id="edge64" class="edge">
<title>Node5&#45;&gt;Node19</title>
<path fill="none" stroke="#191970" d="M834.0423,-330.3627C813.6374,-318.6205 784.5684,-297.1015 796.9063,-275 822.7502,-228.7042 879.6554,-201.0865 918.8902,-186.8424"/>
<polygon fill="#191970" stroke="#191970" points="920.1656,-190.1044 928.4547,-183.5059 917.8599,-183.495 920.1656,-190.1044"/>
</g>
<!-- Node21 -->
<g id="node22" class="node">
<title>Node21</title>
<g id="a_node22"><a xlink:href="dji__gimbal_8hpp.html" target="_top" xlink:title="Gimbal API for OSDK library.">
<polygon fill="#ffffff" stroke="#000000" points="1519.6626,-165.5 1519.6626,-183.5 1600.1499,-183.5 1600.1499,-165.5 1519.6626,-165.5"/>
<text text-anchor="middle" x="1559.9063" y="-171.5" font-family="Helvetica,sans-Serif" font-size="10.00" fill="#000000">dji_gimbal.hpp</text>
</a>
</g>
</g>
<!-- Node5&#45;&gt;Node21 -->
<g id="edge34" class="edge">
<title>Node5&#45;&gt;Node21</title>
<path fill="none" stroke="#191970" d="M893.0409,-339.0201C1067.4479,-336.788 1738.328,-326.1331 1768.9063,-294 1774.7275,-287.8827 1773.401,-282.1488 1768.9063,-275 1749.3368,-243.8753 1651.3182,-206.0102 1596.7431,-186.8629"/>
<polygon fill="#191970" stroke="#191970" points="1597.6819,-183.484 1587.0871,-183.5114 1595.3865,-190.097 1597.6819,-183.484"/>
</g>
<!-- Node22 -->
<g id="node23" class="node">
<title>Node22</title>
<g id="a_node23"><a xlink:title=" ">
<polygon fill="#ffffff" stroke="#bfbfbf" points="1271.3745,-275.5 1271.3745,-293.5 1372.438,-293.5 1372.438,-275.5 1271.3745,-275.5"/>
<text text-anchor="middle" x="1321.9063" y="-281.5" font-family="Helvetica,sans-Serif" font-size="10.00" fill="#000000">dji_hard_driver.hpp</text>
</a>
</g>
</g>
<!-- Node5&#45;&gt;Node22 -->
<g id="edge37" class="edge">
<title>Node5&#45;&gt;Node22</title>
<path fill="none" stroke="#191970" d="M893.1157,-335.6178C965.5038,-328.6506 1120.4387,-313.0799 1260.9878,-294.2112"/>
<polygon fill="#191970" stroke="#191970" points="1261.6401,-297.655 1271.0812,-292.8471 1260.7025,-290.7181 1261.6401,-297.655"/>
</g>
<!-- Node23 -->
<g id="node24" class="node">
<title>Node23</title>
<g id="a_node24"><a xlink:href="dji__hardware__sync_8hpp.html" target="_top" xlink:title="Hardware Sync API for DJI OSDK.">
<polygon fill="#ffffff" stroke="#000000" points="1451.4854,-220.5 1451.4854,-238.5 1570.3271,-238.5 1570.3271,-220.5 1451.4854,-220.5"/>
<text text-anchor="middle" x="1510.9063" y="-226.5" font-family="Helvetica,sans-Serif" font-size="10.00" fill="#000000">dji_hardware_sync.hpp</text>
</a>
</g>
</g>
<!-- Node5&#45;&gt;Node23 -->
<g id="edge38" class="edge">
<title>Node5&#45;&gt;Node23</title>
<path fill="none" stroke="#191970" d="M893.1039,-334.4299C940.7548,-327.91 1021.2033,-314.8723 1087.9063,-294 1107.8464,-287.7604 1110.7496,-280.5004 1130.9063,-275 1263.4396,-238.8338 1301.566,-255.8647 1437.9063,-239 1438.9844,-238.8666 1440.0714,-238.7317 1441.1655,-238.5953"/>
<polygon fill="#191970" stroke="#191970" points="1441.6715,-242.0593 1451.1564,-237.3383 1440.7977,-235.1141 1441.6715,-242.0593"/>
</g>
<!-- Node24 -->
<g id="node25" class="node">
<title>Node24</title>
<g id="a_node25"><a xlink:href="dji__mfio_8hpp.html" target="_top" xlink:title="MFIO API for DJI OSDK library.">
<polygon fill="#ffffff" stroke="#000000" points="158.9458,-220.5 158.9458,-238.5 228.8667,-238.5 228.8667,-220.5 158.9458,-220.5"/>
<text text-anchor="middle" x="193.9063" y="-226.5" font-family="Helvetica,sans-Serif" font-size="10.00" fill="#000000">dji_mfio.hpp</text>
</a>
</g>
</g>
<!-- Node5&#45;&gt;Node24 -->
<g id="edge40" class="edge">
<title>Node5&#45;&gt;Node24</title>
<path fill="none" stroke="#191970" d="M810.6203,-337.8689C685.1272,-332.6942 313.7143,-315.7001 263.9063,-294 240.3506,-283.7374 219.5864,-262.1478 206.9122,-246.7761"/>
<polygon fill="#191970" stroke="#191970" points="209.3744,-244.2471 200.4247,-238.5766 203.8848,-248.5905 209.3744,-244.2471"/>
</g>
<!-- Node25 -->
<g id="node26" class="node">
<title>Node25</title>
<g id="a_node26"><a xlink:href="dji__mission__manager_8hpp.html" target="_top" xlink:title="Mission&#45;Manager API for DJI OSDK library.">
<polygon fill="#ffffff" stroke="#000000" points="916.2021,-275.5 916.2021,-293.5 1045.6104,-293.5 1045.6104,-275.5 916.2021,-275.5"/>
<text text-anchor="middle" x="980.9063" y="-281.5" font-family="Helvetica,sans-Serif" font-size="10.00" fill="#000000">dji_mission_manager.hpp</text>
</a>
</g>
</g>
<!-- Node5&#45;&gt;Node25 -->
<g id="edge42" class="edge">
<title>Node5&#45;&gt;Node25</title>
<path fill="none" stroke="#191970" d="M873.208,-330.4179C894.2153,-321.4613 926.5371,-307.6806 950.2934,-297.552"/>
<polygon fill="#191970" stroke="#191970" points="951.7468,-300.7372 959.5729,-293.5956 949.0013,-294.2981 951.7468,-300.7372"/>
</g>
<!-- Node29 -->
<g id="node30" class="node">
<title>Node29</title>
<g id="a_node30"><a xlink:href="dji__mobile__device_8hpp.html" target="_top" xlink:title="Implementation of DJI Mobile Device Abstraction.">
<polygon fill="#ffffff" stroke="#000000" points="177.4287,-165.5 177.4287,-183.5 292.3838,-183.5 292.3838,-165.5 177.4287,-165.5"/>
<text text-anchor="middle" x="234.9063" y="-171.5" font-family="Helvetica,sans-Serif" font-size="10.00" fill="#000000">dji_mobile_device.hpp</text>
</a>
</g>
</g>
<!-- Node5&#45;&gt;Node29 -->
<g id="edge52" class="edge">
<title>Node5&#45;&gt;Node29</title>
<path fill="none" stroke="#191970" d="M810.6598,-338.2453C690.643,-334.294 347.3929,-320.7523 304.9063,-294 268.247,-270.917 248.5156,-221.1317 240.0432,-193.6651"/>
<polygon fill="#191970" stroke="#191970" points="243.3057,-192.3472 237.1676,-183.7115 236.5807,-194.29 243.3057,-192.3472"/>
</g>
<!-- Node30 -->
<g id="node31" class="node">
<title>Node30</title>
<g id="a_node31"><a xlink:title=" ">
<polygon fill="#ffffff" stroke="#bfbfbf" points="1390.0889,-275.5 1390.0889,-293.5 1521.7236,-293.5 1521.7236,-275.5 1390.0889,-275.5"/>
<text text-anchor="middle" x="1455.9063" y="-281.5" font-family="Helvetica,sans-Serif" font-size="10.00" fill="#000000">dji_platform_manager.hpp</text>
</a>
</g>
</g>
<!-- Node5&#45;&gt;Node30 -->
<g id="edge55" class="edge">
<title>Node5&#45;&gt;Node30</title>
<path fill="none" stroke="#191970" d="M893.196,-336.5494C980.9015,-330.1536 1192.4768,-314.0461 1379.7307,-294.2008"/>
<polygon fill="#191970" stroke="#191970" points="1380.1852,-297.6723 1389.7578,-293.132 1379.4432,-290.7117 1380.1852,-297.6723"/>
</g>
<!-- Node31 -->
<g id="node32" class="node">
<title>Node31</title>
<g id="a_node32"><a xlink:href="dji__status_8hpp.html" target="_top" xlink:title="Status information for DJI Vehicle.">
<polygon fill="#ffffff" stroke="#000000" points="1540.0518,-275.5 1540.0518,-293.5 1617.7607,-293.5 1617.7607,-275.5 1540.0518,-275.5"/>
<text text-anchor="middle" x="1578.9063" y="-281.5" font-family="Helvetica,sans-Serif" font-size="10.00" fill="#000000">dji_status.hpp</text>
</a>
</g>
</g>
<!-- Node5&#45;&gt;Node31 -->
<g id="edge56" class="edge">
<title>Node5&#45;&gt;Node31</title>
<path fill="none" stroke="#191970" d="M893.0356,-338.5834C997.6643,-335.8593 1282.5607,-325.9874 1529.6887,-293.9899"/>
<polygon fill="#191970" stroke="#191970" points="1530.4823,-297.4159 1539.9429,-292.6465 1529.573,-290.4752 1530.4823,-297.4159"/>
</g>
<!-- Node32 -->
<g id="node33" class="node">
<title>Node32</title>
<g id="a_node33"><a xlink:href="dji__subscription_8hpp.html" target="_top" xlink:title="Telemetry Subscription API for DJI OSDK library.">
<polygon fill="#ffffff" stroke="#000000" points="384.7119,-220.5 384.7119,-238.5 489.1006,-238.5 489.1006,-220.5 384.7119,-220.5"/>
<text text-anchor="middle" x="436.9063" y="-226.5" font-family="Helvetica,sans-Serif" font-size="10.00" fill="#000000">dji_subscription.hpp</text>
</a>
</g>
</g>
<!-- Node5&#45;&gt;Node32 -->
<g id="edge57" class="edge">
<title>Node5&#45;&gt;Node32</title>
<path fill="none" stroke="#191970" d="M810.7242,-337.3933C730.4974,-332.7616 556.4361,-319.975 502.9063,-294 480.7356,-283.2418 461.3807,-262.127 449.4616,-246.9844"/>
<polygon fill="#191970" stroke="#191970" points="452.1598,-244.7496 443.3379,-238.8822 446.5754,-248.9703 452.1598,-244.7496"/>
</g>
<!-- Node33 -->
<g id="node34" class="node">
<title>Node33</title>
<g id="a_node34"><a xlink:title=" ">
<polygon fill="#ffffff" stroke="#bfbfbf" points="1635.9731,-275.5 1635.9731,-293.5 1759.8394,-293.5 1759.8394,-275.5 1635.9731,-275.5"/>
<text text-anchor="middle" x="1697.9063" y="-281.5" font-family="Helvetica,sans-Serif" font-size="10.00" fill="#000000">dji_thread_manager.hpp</text>
</a>
</g>
</g>
<!-- Node5&#45;&gt;Node33 -->
<g id="edge61" class="edge">
<title>Node5&#45;&gt;Node33</title>
<path fill="none" stroke="#191970" d="M893.1581,-338.159C1007.6596,-334.2065 1339.2835,-321.1978 1625.4385,-294.0744"/>
<polygon fill="#191970" stroke="#191970" points="1625.9766,-297.539 1635.5983,-293.1036 1625.3107,-290.5708 1625.9766,-297.539"/>
</g>
<!-- Node34 -->
<g id="node35" class="node">
<title>Node34</title>
<g id="a_node35"><a xlink:href="dji__virtual__rc_8hpp.html" target="_top" xlink:title="Virtual Radio Control API for DJI onboardSDK library.">
<polygon fill="#ffffff" stroke="#000000" points="806.1084,-275.5 806.1084,-293.5 897.7041,-293.5 897.7041,-275.5 806.1084,-275.5"/>
<text text-anchor="middle" x="851.9063" y="-281.5" font-family="Helvetica,sans-Serif" font-size="10.00" fill="#000000">dji_virtual_rc.hpp</text>
</a>
</g>
</g>
<!-- Node5&#45;&gt;Node34 -->
<g id="edge65" class="edge">
<title>Node5&#45;&gt;Node34</title>
<path fill="none" stroke="#191970" d="M851.9063,-330.4179C851.9063,-323.2164 851.9063,-312.8962 851.9063,-303.8632"/>
<polygon fill="#191970" stroke="#191970" points="855.4063,-303.7794 851.9063,-293.7795 848.4063,-303.7795 855.4063,-303.7794"/>
</g>
<!-- Node7&#45;&gt;Node3 -->
<g id="edge12" class="edge">
<title>Node7&#45;&gt;Node3</title>
<path fill="none" stroke="#191970" d="M572.757,-220.4982C531.7059,-201.2007 435.0372,-155.7581 386.6085,-132.9925"/>
<polygon fill="#191970" stroke="#191970" points="387.859,-129.713 377.32,-128.6261 384.881,-136.0479 387.859,-129.713"/>
</g>
<!-- Node8 -->
<g id="node9" class="node">
<title>Node8</title>
<g id="a_node9"><a xlink:href="dji__telemetry_8hpp.html" target="_top" xlink:title="Enumeration of all telemetry data types, structures and maps.">
<polygon fill="#ffffff" stroke="#000000" points="809.1987,-165.5 809.1987,-183.5 900.6138,-183.5 900.6138,-165.5 809.1987,-165.5"/>
<text text-anchor="middle" x="854.9063" y="-171.5" font-family="Helvetica,sans-Serif" font-size="10.00" fill="#000000">dji_telemetry.hpp</text>
</a>
</g>
</g>
<!-- Node7&#45;&gt;Node8 -->
<g id="edge8" class="edge">
<title>Node7&#45;&gt;Node8</title>
<path fill="none" stroke="#191970" d="M635.0408,-220.4795C680.713,-210.9282 752.854,-195.8417 801.9461,-185.5753"/>
<polygon fill="#191970" stroke="#191970" points="802.6763,-188.9984 811.7481,-183.5255 801.2434,-182.1466 802.6763,-188.9984"/>
</g>
<!-- Node8&#45;&gt;Node9 -->
<g id="edge9" class="edge">
<title>Node8&#45;&gt;Node9</title>
<path fill="none" stroke="#191970" d="M900.8302,-166.2084C903.5599,-165.7816 906.2674,-165.375 908.9063,-165 1044.3431,-145.7543 1205.4292,-130.352 1282.4679,-123.4439"/>
<polygon fill="#191970" stroke="#191970" points="1283.1193,-126.8998 1292.7691,-122.526 1282.4979,-119.9274 1283.1193,-126.8998"/>
</g>
<!-- Node10 -->
<g id="node11" class="node">
<title>Node10</title>
<g id="a_node11"><a xlink:title=" ">
<polygon fill="#ffffff" stroke="#bfbfbf" points="1281.8447,-55.5 1281.8447,-73.5 1323.9678,-73.5 1323.9678,-55.5 1281.8447,-55.5"/>
<text text-anchor="middle" x="1302.9063" y="-61.5" font-family="Helvetica,sans-Serif" font-size="10.00" fill="#000000">cstdio</text>
</a>
</g>
</g>
<!-- Node9&#45;&gt;Node10 -->
<g id="edge10" class="edge">
<title>Node9&#45;&gt;Node10</title>
<path fill="none" stroke="#191970" d="M1323.778,-110.4179C1320.3967,-102.9789 1315.5028,-92.2123 1311.3036,-82.9742"/>
<polygon fill="#191970" stroke="#191970" points="1314.4486,-81.4348 1307.1242,-73.7795 1308.076,-84.3315 1314.4486,-81.4348"/>
</g>
<!-- Node11 -->
<g id="node12" class="node">
<title>Node11</title>
<g id="a_node12"><a xlink:title=" ">
<polygon fill="#ffffff" stroke="#bfbfbf" points="1365.7856,-.5 1365.7856,-18.5 1414.0269,-18.5 1414.0269,-.5 1365.7856,-.5"/>
<text text-anchor="middle" x="1389.9063" y="-6.5" font-family="Helvetica,sans-Serif" font-size="10.00" fill="#000000">stdint.h</text>
</a>
</g>
</g>
<!-- Node9&#45;&gt;Node11 -->
<g id="edge11" class="edge">
<title>Node9&#45;&gt;Node11</title>
<path fill="none" stroke="#191970" d="M1332.98,-110.4982C1343.1983,-92.369 1366.4225,-51.1647 1379.8364,-27.3659"/>
<polygon fill="#191970" stroke="#191970" points="1382.9013,-29.0562 1384.7624,-18.6261 1376.8032,-25.6191 1382.9013,-29.0562"/>
</g>
<!-- Node12&#45;&gt;Node9 -->
<g id="edge18" class="edge">
<title>Node12&#45;&gt;Node9</title>
<path fill="none" stroke="#191970" d="M1617.6245,-166.5136C1614.6759,-165.9906 1611.7479,-165.4813 1608.9063,-165 1507.4607,-147.819 1479.0052,-147.9413 1373.3662,-128.9892"/>
<polygon fill="#191970" stroke="#191970" points="1373.7057,-125.4939 1363.2422,-127.1574 1372.4592,-132.382 1373.7057,-125.4939"/>
</g>
<!-- Node12&#45;&gt;Node13 -->
<g id="edge14" class="edge">
<title>Node12&#45;&gt;Node13</title>
<path fill="none" stroke="#191970" d="M1622.02,-165.4795C1582.3236,-156.0279 1519.8618,-141.1561 1476.7794,-130.8984"/>
<polygon fill="#191970" stroke="#191970" points="1477.352,-127.4369 1466.8132,-128.5255 1475.7306,-134.2466 1477.352,-127.4369"/>
</g>
<!-- Node13&#45;&gt;Node11 -->
<g id="edge17" class="edge">
<title>Node13&#45;&gt;Node11</title>
<path fill="none" stroke="#191970" d="M1424.4145,-110.2313C1420.1068,-101.136 1413.585,-86.8054 1408.9063,-74 1403.3977,-58.9236 1398.3253,-41.4351 1394.8097,-28.4751"/>
<polygon fill="#191970" stroke="#191970" points="1398.1922,-27.5758 1392.2473,-18.806 1391.4258,-29.369 1398.1922,-27.5758"/>
</g>
<!-- Node14 -->
<g id="node15" class="node">
<title>Node14</title>
<g id="a_node15"><a xlink:href="dji__error_8hpp.html" target="_top" xlink:title="All DJI OSDK OpenProtocol ACK Error Codes.">
<polygon fill="#ffffff" stroke="#000000" points="1418.1084,-55.5 1418.1084,-73.5 1489.7041,-73.5 1489.7041,-55.5 1418.1084,-55.5"/>
<text text-anchor="middle" x="1453.9063" y="-61.5" font-family="Helvetica,sans-Serif" font-size="10.00" fill="#000000">dji_error.hpp</text>
</a>
</g>
</g>
<!-- Node13&#45;&gt;Node14 -->
<g id="edge15" class="edge">
<title>Node13&#45;&gt;Node14</title>
<path fill="none" stroke="#191970" d="M1433.0345,-110.4179C1436.4158,-102.9789 1441.3097,-92.2123 1445.5089,-82.9742"/>
<polygon fill="#191970" stroke="#191970" points="1448.7365,-84.3315 1449.6883,-73.7795 1442.3639,-81.4348 1448.7365,-84.3315"/>
</g>
<!-- Node14&#45;&gt;Node11 -->
<g id="edge16" class="edge">
<title>Node14&#45;&gt;Node11</title>
<path fill="none" stroke="#191970" d="M1443.338,-55.4179C1433.853,-47.2667 1419.7188,-35.1201 1408.3696,-25.3669"/>
<polygon fill="#191970" stroke="#191970" points="1410.5696,-22.6427 1400.7042,-18.7795 1406.0072,-27.9516 1410.5696,-22.6427"/>
</g>
<!-- Node16&#45;&gt;Node3 -->
<g id="edge33" class="edge">
<title>Node16&#45;&gt;Node3</title>
<path fill="none" stroke="#191970" d="M624.1513,-280.7484C548.6672,-273.4185 393.1775,-256.3866 375.9063,-239 349.5131,-212.4307 351.1748,-164.8147 354.5998,-138.4197"/>
<polygon fill="#191970" stroke="#191970" points="358.0606,-138.9417 356.0989,-128.53 351.1396,-137.8925 358.0606,-138.9417"/>
</g>
<!-- Node16&#45;&gt;Node4 -->
<g id="edge31" class="edge">
<title>Node16&#45;&gt;Node4</title>
<path fill="none" stroke="#191970" d="M663.7788,-275.2803C661.9132,-262.3311 657.4047,-238.2941 647.9063,-220 617.8527,-162.117 562.9437,-106.7872 534.7114,-80.4758"/>
<polygon fill="#191970" stroke="#191970" points="536.9124,-77.7451 527.1801,-73.5577 532.177,-82.9002 536.9124,-77.7451"/>
</g>
<!-- Node16&#45;&gt;Node9 -->
<g id="edge32" class="edge">
<title>Node16&#45;&gt;Node9</title>
<path fill="none" stroke="#191970" d="M671.8241,-275.1736C689.842,-251.7093 740.9374,-190.2985 799.9063,-165 843.7146,-146.2056 1162.6298,-128.0218 1282.5148,-121.7773"/>
<polygon fill="#191970" stroke="#191970" points="1283.0068,-125.2566 1292.8127,-121.2448 1282.6453,-118.266 1283.0068,-125.2566"/>
</g>
<!-- Node17 -->
<g id="node18" class="node">
<title>Node17</title>
<g id="a_node18"><a xlink:href="dji__ack_8hpp.html" target="_top" xlink:title="All DJI OSDK ACK parsing.">
<polygon fill="#ffffff" stroke="#000000" points="1003.6108,-220.5 1003.6108,-238.5 1070.2017,-238.5 1070.2017,-220.5 1003.6108,-220.5"/>
<text text-anchor="middle" x="1036.9063" y="-226.5" font-family="Helvetica,sans-Serif" font-size="10.00" fill="#000000">dji_ack.hpp</text>
</a>
</g>
</g>
<!-- Node16&#45;&gt;Node17 -->
<g id="edge22" class="edge">
<title>Node16&#45;&gt;Node17</title>
<path fill="none" stroke="#191970" d="M705.7809,-278.4567C776.4792,-268.004 920.9621,-246.6423 993.428,-235.9282"/>
<polygon fill="#191970" stroke="#191970" points="994.1993,-239.3523 1003.5798,-234.4273 993.1754,-232.4276 994.1993,-239.3523"/>
</g>
<!-- Node17&#45;&gt;Node9 -->
<g id="edge26" class="edge">
<title>Node17&#45;&gt;Node9</title>
<path fill="none" stroke="#191970" d="M1070.4371,-221.177C1101.9651,-212.9811 1150.2596,-199.4691 1190.9063,-184 1212.0945,-175.9363 1266.9183,-149.4608 1300.4375,-133.0429"/>
<polygon fill="#191970" stroke="#191970" points="1302.2534,-136.0505 1309.6882,-128.5023 1299.169,-129.7667 1302.2534,-136.0505"/>
</g>
<!-- Node17&#45;&gt;Node13 -->
<g id="edge23" class="edge">
<title>Node17&#45;&gt;Node13</title>
<path fill="none" stroke="#191970" d="M1070.5216,-222.0265C1108.0887,-213.5108 1170.6379,-198.843 1223.9063,-184 1283.5064,-167.3927 1351.9103,-145.2366 1392.7044,-131.6887"/>
<polygon fill="#191970" stroke="#191970" points="1393.8308,-135.0026 1402.2117,-128.521 1391.618,-128.3616 1393.8308,-135.0026"/>
</g>
<!-- Node18 -->
<g id="node19" class="node">
<title>Node18</title>
<g id="a_node19"><a xlink:href="dji__mission__type_8hpp.html" target="_top" xlink:title="Mission related data struct for DJI OSDK library.">
<polygon fill="#ffffff" stroke="#000000" points="1072.2119,-165.5 1072.2119,-183.5 1181.6006,-183.5 1181.6006,-165.5 1072.2119,-165.5"/>
<text text-anchor="middle" x="1126.9063" y="-171.5" font-family="Helvetica,sans-Serif" font-size="10.00" fill="#000000">dji_mission_type.hpp</text>
</a>
</g>
</g>
<!-- Node17&#45;&gt;Node18 -->
<g id="edge24" class="edge">
<title>Node17&#45;&gt;Node18</title>
<path fill="none" stroke="#191970" d="M1051.7679,-220.4179C1065.7076,-211.8992 1086.7882,-199.0166 1103.0763,-189.0627"/>
<polygon fill="#191970" stroke="#191970" points="1105.3148,-191.7967 1112.0225,-183.5956 1101.6646,-185.8237 1105.3148,-191.7967"/>
</g>
<!-- Node17&#45;&gt;Node19 -->
<g id="edge27" class="edge">
<title>Node17&#45;&gt;Node19</title>
<path fill="none" stroke="#191970" d="M1024.1913,-220.4179C1012.488,-212.0584 994.9015,-199.4966 981.0797,-189.6239"/>
<polygon fill="#191970" stroke="#191970" points="982.8118,-186.56 972.6401,-183.5956 978.7431,-192.2561 982.8118,-186.56"/>
</g>
<!-- Node20 -->
<g id="node21" class="node">
<title>Node20</title>
<g id="a_node21"><a xlink:title=" ">
<polygon fill="#ffffff" stroke="#bfbfbf" points="1019.1797,-165.5 1019.1797,-183.5 1054.6328,-183.5 1054.6328,-165.5 1019.1797,-165.5"/>
<text text-anchor="middle" x="1036.9063" y="-171.5" font-family="Helvetica,sans-Serif" font-size="10.00" fill="#000000">map</text>
</a>
</g>
</g>
<!-- Node17&#45;&gt;Node20 -->
<g id="edge30" class="edge">
<title>Node17&#45;&gt;Node20</title>
<path fill="none" stroke="#191970" d="M1036.9063,-220.4179C1036.9063,-213.2164 1036.9063,-202.8962 1036.9063,-193.8632"/>
<polygon fill="#191970" stroke="#191970" points="1040.4063,-193.7794 1036.9063,-183.7795 1033.4063,-193.7795 1040.4063,-193.7794"/>
</g>
<!-- Node18&#45;&gt;Node9 -->
<g id="edge25" class="edge">
<title>Node18&#45;&gt;Node9</title>
<path fill="none" stroke="#191970" d="M1160.0973,-165.4179C1194.2408,-156.0751 1247.5669,-141.4834 1284.9179,-131.263"/>
<polygon fill="#191970" stroke="#191970" points="1286.2783,-134.5195 1295,-128.5042 1284.4308,-127.7677 1286.2783,-134.5195"/>
</g>
<!-- Node19&#45;&gt;Node6 -->
<g id="edge29" class="edge">
<title>Node19&#45;&gt;Node6</title>
<path fill="none" stroke="#191970" d="M918.2614,-165.7243C866.3465,-154.7843 778.7034,-136.3155 731.4437,-126.3565"/>
<polygon fill="#191970" stroke="#191970" points="731.9536,-122.8872 721.4468,-124.2499 730.5102,-129.7368 731.9536,-122.8872"/>
</g>
<!-- Node19&#45;&gt;Node13 -->
<g id="edge28" class="edge">
<title>Node19&#45;&gt;Node13</title>
<path fill="none" stroke="#191970" d="M1001.6018,-166.2916C1004.4077,-165.8276 1007.1953,-165.3916 1009.9063,-165 1166.6466,-142.3614 1209.8728,-149.97 1371.0732,-129.0202"/>
<polygon fill="#191970" stroke="#191970" points="1371.8983,-132.4419 1381.3557,-127.6663 1370.9844,-125.5018 1371.8983,-132.4419"/>
</g>
<!-- Node21&#45;&gt;Node9 -->
<g id="edge36" class="edge">
<title>Node21&#45;&gt;Node9</title>
<path fill="none" stroke="#191970" d="M1521.856,-165.4795C1481.0357,-155.8022 1416.2463,-140.4427 1372.9207,-130.1715"/>
<polygon fill="#191970" stroke="#191970" points="1373.4756,-126.7061 1362.9379,-127.8049 1371.8608,-133.5173 1373.4756,-126.7061"/>
</g>
<!-- Node21&#45;&gt;Node13 -->
<g id="edge35" class="edge">
<title>Node21&#45;&gt;Node13</title>
<path fill="none" stroke="#191970" d="M1538.2743,-165.4179C1516.9413,-156.4613 1484.1183,-142.6806 1459.9937,-132.552"/>
<polygon fill="#191970" stroke="#191970" points="1461.1456,-129.2397 1450.5704,-128.5956 1458.4358,-135.6939 1461.1456,-129.2397"/>
</g>
<!-- Node23&#45;&gt;Node9 -->
<g id="edge39" class="edge">
<title>Node23&#45;&gt;Node9</title>
<path fill="none" stroke="#191970" d="M1507.098,-220.156C1500.9256,-206.1534 1487.4275,-179.7944 1467.9063,-165 1452.751,-153.5145 1407.9091,-140.0074 1373.0146,-130.7099"/>
<polygon fill="#191970" stroke="#191970" points="1373.5708,-127.2375 1363.01,-128.0857 1371.7947,-134.0084 1373.5708,-127.2375"/>
</g>
<!-- Node24&#45;&gt;Node3 -->
<g id="edge41" class="edge">
<title>Node24&#45;&gt;Node3</title>
<path fill="none" stroke="#191970" d="M185.0672,-220.311C173.3228,-206.9701 155.5284,-181.9807 168.9063,-165 183.5,-146.476 238.4806,-134.6174 285.4063,-127.6671"/>
<polygon fill="#191970" stroke="#191970" points="286.1807,-131.0922 295.5866,-126.2157 285.1927,-124.1622 286.1807,-131.0922"/>
</g>
<!-- Node26 -->
<g id="node27" class="node">
<title>Node26</title>
<g id="a_node27"><a xlink:href="dji__hotpoint_8hpp.html" target="_top" xlink:title="Implementation of HotPoint (Point of Interest) Missions for DJI OSDK.">
<polygon fill="#ffffff" stroke="#000000" points="1200.5986,-220.5 1200.5986,-238.5 1287.2139,-238.5 1287.2139,-220.5 1200.5986,-220.5"/>
<text text-anchor="middle" x="1243.9063" y="-226.5" font-family="Helvetica,sans-Serif" font-size="10.00" fill="#000000">dji_hotpoint.hpp</text>
</a>
</g>
</g>
<!-- Node25&#45;&gt;Node26 -->
<g id="edge43" class="edge">
<title>Node25&#45;&gt;Node26</title>
<path fill="none" stroke="#191970" d="M1024.0408,-275.4795C1069.713,-265.9282 1141.854,-250.8417 1190.9461,-240.5753"/>
<polygon fill="#191970" stroke="#191970" points="1191.6763,-243.9984 1200.7481,-238.5255 1190.2434,-237.1466 1191.6763,-243.9984"/>
</g>
<!-- Node28 -->
<g id="node29" class="node">
<title>Node28</title>
<g id="a_node29"><a xlink:href="dji__waypoint_8hpp.html" target="_top" xlink:title="Implementation of GPS Waypoint Missions for DJI OSDK.">
<polygon fill="#ffffff" stroke="#000000" points="1305.6577,-220.5 1305.6577,-238.5 1396.1548,-238.5 1396.1548,-220.5 1305.6577,-220.5"/>
<text text-anchor="middle" x="1350.9063" y="-226.5" font-family="Helvetica,sans-Serif" font-size="10.00" fill="#000000">dji_waypoint.hpp</text>
</a>
</g>
</g>
<!-- Node25&#45;&gt;Node28 -->
<g id="edge49" class="edge">
<title>Node25&#45;&gt;Node28</title>
<path fill="none" stroke="#191970" d="M1045.8386,-275.6539C1107.3428,-267.1536 1202.5603,-253.6815 1295.458,-239.033"/>
<polygon fill="#191970" stroke="#191970" points="1296.2721,-242.4478 1305.6019,-237.4272 1295.1776,-235.5338 1296.2721,-242.4478"/>
</g>
<!-- Node26&#45;&gt;Node8 -->
<g id="edge48" class="edge">
<title>Node26&#45;&gt;Node8</title>
<path fill="none" stroke="#191970" d="M1200.4623,-224.1512C1138.3799,-216.3863 1020.4639,-201.1892 910.7522,-184.2462"/>
<polygon fill="#191970" stroke="#191970" points="911.2614,-180.7834 900.8427,-182.7075 910.1872,-187.7005 911.2614,-180.7834"/>
</g>
<!-- Node27 -->
<g id="node28" class="node">
<title>Node27</title>
<g id="a_node28"><a xlink:href="dji__mission__base_8hpp.html" target="_top" xlink:title="Mission&#45;Base abstract class for DJI OSDK library.">
<polygon fill="#ffffff" stroke="#000000" points="1313.8203,-165.5 1313.8203,-183.5 1425.9922,-183.5 1425.9922,-165.5 1313.8203,-165.5"/>
<text text-anchor="middle" x="1369.9063" y="-171.5" font-family="Helvetica,sans-Serif" font-size="10.00" fill="#000000">dji_mission_base.hpp</text>
</a>
</g>
</g>
<!-- Node26&#45;&gt;Node27 -->
<g id="edge44" class="edge">
<title>Node26&#45;&gt;Node27</title>
<path fill="none" stroke="#191970" d="M1264.7126,-220.4179C1285.1401,-211.5011 1316.5211,-197.803 1339.6954,-187.6873"/>
<polygon fill="#191970" stroke="#191970" points="1341.3043,-190.804 1349.069,-183.5956 1338.5039,-184.3885 1341.3043,-190.804"/>
</g>
<!-- Node27&#45;&gt;Node3 -->
<g id="edge47" class="edge">
<title>Node27&#45;&gt;Node3</title>
<path fill="none" stroke="#191970" d="M1313.6923,-171.4449C1141.5977,-162.0919 622.0138,-133.8537 430.1303,-123.4252"/>
<polygon fill="#191970" stroke="#191970" points="430.0513,-119.9159 419.876,-122.8679 429.6713,-126.9055 430.0513,-119.9159"/>
</g>
<!-- Node27&#45;&gt;Node9 -->
<g id="edge46" class="edge">
<title>Node27&#45;&gt;Node9</title>
<path fill="none" stroke="#191970" d="M1362.9708,-165.4179C1357.0484,-157.6624 1348.3641,-146.29 1341.1198,-136.8035"/>
<polygon fill="#191970" stroke="#191970" points="1343.8432,-134.6029 1334.9924,-128.7795 1338.2799,-138.8514 1343.8432,-134.6029"/>
</g>
<!-- Node27&#45;&gt;Node13 -->
<g id="edge45" class="edge">
<title>Node27&#45;&gt;Node13</title>
<path fill="none" stroke="#191970" d="M1379.6489,-165.4179C1388.308,-157.3458 1401.1702,-145.3556 1411.5799,-135.6517"/>
<polygon fill="#191970" stroke="#191970" points="1414.0238,-138.1584 1418.9519,-128.7795 1409.2506,-133.0381 1414.0238,-138.1584"/>
</g>
<!-- Node28&#45;&gt;Node27 -->
<g id="edge50" class="edge">
<title>Node28&#45;&gt;Node27</title>
<path fill="none" stroke="#191970" d="M1354.0437,-220.4179C1356.5862,-213.0581 1360.2539,-202.441 1363.4222,-193.2695"/>
<polygon fill="#191970" stroke="#191970" points="1366.7435,-194.3742 1366.7006,-183.7795 1360.1272,-192.0885 1366.7435,-194.3742"/>
</g>
<!-- Node29&#45;&gt;Node3 -->
<g id="edge53" class="edge">
<title>Node29&#45;&gt;Node3</title>
<path fill="none" stroke="#191970" d="M255.2172,-165.4179C275.1584,-156.5011 305.7922,-142.803 328.4147,-132.6873"/>
<polygon fill="#191970" stroke="#191970" points="329.8649,-135.8728 337.5651,-128.5956 327.0075,-129.4826 329.8649,-135.8728"/>
</g>
<!-- Node32&#45;&gt;Node3 -->
<g id="edge60" class="edge">
<title>Node32&#45;&gt;Node3</title>
<path fill="none" stroke="#191970" d="M430.4413,-220.4982C417.3634,-202.2885 387.5657,-160.798 370.5101,-137.0496"/>
<polygon fill="#191970" stroke="#191970" points="373.1367,-134.7068 364.4605,-128.6261 367.451,-138.7902 373.1367,-134.7068"/>
</g>
<!-- Node32&#45;&gt;Node4 -->
<g id="edge58" class="edge">
<title>Node32&#45;&gt;Node4</title>
<path fill="none" stroke="#191970" d="M441.4366,-220.1561C454.2524,-193.7235 490.9376,-118.0604 507.9911,-82.8875"/>
<polygon fill="#191970" stroke="#191970" points="511.2121,-84.2665 512.4256,-73.7414 504.9134,-81.2126 511.2121,-84.2665"/>
</g>
<!-- Node32&#45;&gt;Node8 -->
<g id="edge59" class="edge">
<title>Node32&#45;&gt;Node8</title>
<path fill="none" stroke="#191970" d="M489.423,-222.5899C568.592,-212.1729 717.8551,-192.533 798.9826,-181.8584"/>
<polygon fill="#191970" stroke="#191970" points="799.5494,-185.314 809.0074,-180.5393 798.6362,-178.3739 799.5494,-185.314"/>
</g>
<!-- Node34&#45;&gt;Node4 -->
<g id="edge67" class="edge">
<title>Node34&#45;&gt;Node4</title>
<path fill="none" stroke="#191970" d="M846.6019,-275.1275C827.7502,-242.1355 763.3318,-132.1655 729.9063,-110 706.2955,-94.343 637.3501,-81.4264 584.23,-73.4062"/>
<polygon fill="#191970" stroke="#191970" points="584.5777,-69.9196 574.1729,-71.9172 583.5524,-76.8442 584.5777,-69.9196"/>
</g>
<!-- Node34&#45;&gt;Node8 -->
<g id="edge69" class="edge">
<title>Node34&#45;&gt;Node8</title>
<path fill="none" stroke="#191970" d="M852.1518,-275.4982C852.6374,-257.6913 853.7302,-217.6225 854.3839,-193.6515"/>
<polygon fill="#191970" stroke="#191970" points="857.8833,-193.7179 854.6574,-183.6261 850.8859,-193.527 857.8833,-193.7179"/>
</g>
<!-- Node34&#45;&gt;Node9 -->
<g id="edge68" class="edge">
<title>Node34&#45;&gt;Node9</title>
<path fill="none" stroke="#191970" d="M897.9694,-276.1955C954.1053,-265.9127 1045.5911,-248.5865 1078.9063,-239 1145.1433,-219.9402 1162.1106,-214.5273 1223.9063,-184 1253.7738,-169.2453 1286.069,-148.3681 1306.6135,-134.4035"/>
<polygon fill="#191970" stroke="#191970" points="1308.6552,-137.2472 1314.9163,-128.7003 1304.6918,-131.4773 1308.6552,-137.2472"/>
</g>
<!-- Node34&#45;&gt;Node17 -->
<g id="edge66" class="edge">
<title>Node34&#45;&gt;Node17</title>
<path fill="none" stroke="#191970" d="M882.4552,-275.4179C913.7465,-266.115 962.5429,-251.608 996.8983,-241.3943"/>
<polygon fill="#191970" stroke="#191970" points="998.0314,-244.7089 1006.6194,-238.5042 996.0366,-237.9991 998.0314,-244.7089"/>
</g>
</g>
</svg>
