<?xml version="1.0" encoding="UTF-8" standalone="no"?>
<!DOCTYPE svg PUBLIC "-//W3C//DTD SVG 1.1//EN"
 "http://www.w3.org/Graphics/SVG/1.1/DTD/svg11.dtd">
<!-- Generated by graphviz version 2.40.1 (20161225.0304)
 -->
<!-- Title: osdk&#45;core/api/inc/dji_vehicle.hpp Pages: 1 -->
<!--zoomable 367 -->
<svg id="main" version="1.1" xmlns="http://www.w3.org/2000/svg" xmlns:xlink="http://www.w3.org/1999/xlink" xml:space="preserve" onload="init(evt)">
<style type="text/css"><![CDATA[
.edge:hover path { stroke: red; }
.edge:hover polygon { stroke: red; fill: red; }
]]></style>
<script type="text/javascript"><![CDATA[
var edges = document.getElementsByTagName('g');
if (edges && edges.length) {
  for (var i=0;i<edges.length;i++) {
    if (edges[i].id.substr(0,4)=='edge') {
      edges[i].setAttribute('class','edge');
    }
  }
}
]]></script>
        <defs>
                <circle id="rim" cx="0" cy="0" r="7"/>
                <circle id="rim2" cx="0" cy="0" r="3.5"/>
                <g id="zoomPlus">
                        <use xlink:href="#rim" fill="#404040">
                                <set attributeName="fill" to="#808080" begin="zoomplus.mouseover" end="zoomplus.mouseout"/>
                        </use>
                        <path d="M-4,0h8M0,-4v8" fill="none" stroke="white" stroke-width="1.5" pointer-events="none"/>
                </g>
                <g id="zoomMin">
                        <use xlink:href="#rim" fill="#404040">
                                <set attributeName="fill" to="#808080" begin="zoomminus.mouseover" end="zoomminus.mouseout"/>
                        </use>
                        <path d="M-4,0h8" fill="none" stroke="white" stroke-width="1.5" pointer-events="none"/>
                </g>
                <g id="dirArrow">
                        <path fill="none" stroke="white" stroke-width="1.5" d="M0,-3.0v7 M-2.5,-0.5L0,-3.0L2.5,-0.5"/>
                </g>
               <g id="resetDef">
                       <use xlink:href="#rim2" fill="#404040">
                               <set attributeName="fill" to="#808080" begin="reset.mouseover" end="reset.mouseout"/>
                       </use>
               </g>
        </defs>

<script type="text/javascript">
var viewWidth = 2092;
var viewHeight = 367;
var sectionId = 'dynsection-0';
</script>
<script xlink:href="svgpan.js"/>
<svg id="graph" class="graph">
<g id="viewport">
<title>osdk&#45;core/api/inc/dji_vehicle.hpp</title>
<polygon fill="#ffffff" stroke="transparent" points="-4,4 -4,-363 2087.5504,-363 2087.5504,4 -4,4"/>
<!-- Node0 -->
<g id="node1" class="node">
<title>Node0</title>
<g id="a_node1"><a xlink:title="Vehicle API for DJI onboardSDK library.">
<polygon fill="#bfbfbf" stroke="#000000" points="1147.2637,-330.5 1147.2637,-358.5 1251.6377,-358.5 1251.6377,-330.5 1147.2637,-330.5"/>
<text text-anchor="start" x="1155.2637" y="-346.5" font-family="Helvetica,sans-Serif" font-size="10.00" fill="#000000">osdk&#45;core/api/inc/dji</text>
<text text-anchor="middle" x="1199.4507" y="-336.5" font-family="Helvetica,sans-Serif" font-size="10.00" fill="#000000">_vehicle.hpp</text>
</a>
</g>
</g>
<!-- Node1 -->
<g id="node2" class="node">
<title>Node1</title>
<g id="a_node2"><a xlink:title=" ">
<polygon fill="#ffffff" stroke="#bfbfbf" points="0,-110.5 0,-128.5 44.9014,-128.5 44.9014,-110.5 0,-110.5"/>
<text text-anchor="middle" x="22.4507" y="-116.5" font-family="Helvetica,sans-Serif" font-size="10.00" fill="#000000">cstdint</text>
</a>
</g>
</g>
<!-- Node0&#45;&gt;Node1 -->
<g id="edge1" class="edge">
<title>Node0&#45;&gt;Node1</title>
<path fill="none" stroke="#191970" d="M1146.929,-343.3609C932.9075,-338.5593 135.6744,-319.0563 88.4507,-294 34.5852,-265.4197 25.6493,-241.8769 6.4507,-184 1.4061,-168.7924 6.5433,-151.1031 12.2999,-138.1"/>
<polygon fill="#191970" stroke="#191970" points="15.5945,-139.3315 16.8668,-128.8133 9.313,-136.2424 15.5945,-139.3315"/>
</g>
<!-- Node2 -->
<g id="node3" class="node">
<title>Node2</title>
<g id="a_node3"><a xlink:href="dji__broadcast_8hpp.html" target="_top" xlink:title="Broadcast Telemetry API for DJI onboardSDK library.">
<polygon fill="#ffffff" stroke="#000000" points="1339.978,-220.5 1339.978,-238.5 1434.9233,-238.5 1434.9233,-220.5 1339.978,-220.5"/>
<text text-anchor="middle" x="1387.4507" y="-226.5" font-family="Helvetica,sans-Serif" font-size="10.00" fill="#000000">dji_broadcast.hpp</text>
</a>
</g>
</g>
<!-- Node0&#45;&gt;Node2 -->
<g id="edge2" class="edge">
<title>Node0&#45;&gt;Node2</title>
<path fill="none" stroke="#191970" d="M1251.5587,-330.4522C1276.4856,-322.2353 1305.9425,-310.2374 1329.4507,-294 1347.9501,-281.2223 1364.5986,-261.411 1375.2632,-247.1159"/>
<polygon fill="#191970" stroke="#191970" points="1378.3588,-248.8069 1381.3666,-238.6479 1372.6801,-244.7139 1378.3588,-248.8069"/>
</g>
<!-- Node4 -->
<g id="node5" class="node">
<title>Node4</title>
<g id="a_node5"><a xlink:href="dji__type_8hpp.html" target="_top" xlink:title="Data type and Data Structure definitions for use throughout DJI OSDK.">
<polygon fill="#ffffff" stroke="#000000" points="588.4854,-110.5 588.4854,-128.5 658.416,-128.5 658.416,-110.5 588.4854,-110.5"/>
<text text-anchor="middle" x="623.4507" y="-116.5" font-family="Helvetica,sans-Serif" font-size="10.00" fill="#000000">dji_type.hpp</text>
</a>
</g>
</g>
<!-- Node0&#45;&gt;Node4 -->
<g id="edge60" class="edge">
<title>Node0&#45;&gt;Node4</title>
<path fill="none" stroke="#191970" d="M1156.8009,-330.4034C1136.5123,-322.1469 1112.9311,-310.1293 1095.4507,-294 1046.5452,-248.8746 1075.243,-201.2666 1019.4507,-165 990.5152,-146.1911 766.2267,-129.0677 668.6022,-122.4237"/>
<polygon fill="#191970" stroke="#191970" points="668.6635,-118.9199 658.4508,-121.7396 668.1928,-125.9041 668.6635,-118.9199"/>
</g>
<!-- Node7 -->
<g id="node8" class="node">
<title>Node7</title>
<g id="a_node8"><a xlink:href="dji__vehicle__callback_8hpp.html" target="_top" xlink:title="Type definition for new Vehicle&#45;style callbacks.">
<polygon fill="#ffffff" stroke="#000000" points="1325.5273,-110.5 1325.5273,-128.5 1449.374,-128.5 1449.374,-110.5 1325.5273,-110.5"/>
<text text-anchor="middle" x="1387.4507" y="-116.5" font-family="Helvetica,sans-Serif" font-size="10.00" fill="#000000">dji_vehicle_callback.hpp</text>
</a>
</g>
</g>
<!-- Node0&#45;&gt;Node7 -->
<g id="edge61" class="edge">
<title>Node0&#45;&gt;Node7</title>
<path fill="none" stroke="#191970" d="M1251.8502,-331.0829C1290.2904,-321.1338 1343.7146,-307.0854 1390.4507,-294 1400.8273,-291.0947 1570.0013,-247.6325 1576.4507,-239 1581.5048,-232.2351 1580.7998,-227.2384 1576.4507,-220 1547.0014,-170.9865 1484.6784,-144.5859 1439.6358,-131.3216"/>
<polygon fill="#191970" stroke="#191970" points="1440.3087,-127.875 1429.7343,-128.5334 1438.4112,-134.613 1440.3087,-127.875"/>
</g>
<!-- Node8 -->
<g id="node9" class="node">
<title>Node8</title>
<g id="a_node9"><a xlink:title=" ">
<polygon fill="#ffffff" stroke="#bfbfbf" points="1175.2441,-55.5 1175.2441,-73.5 1289.6572,-73.5 1289.6572,-55.5 1175.2441,-55.5"/>
<text text-anchor="middle" x="1232.4507" y="-61.5" font-family="Helvetica,sans-Serif" font-size="10.00" fill="#000000">dji_open_protocol.hpp</text>
</a>
</g>
</g>
<!-- Node0&#45;&gt;Node8 -->
<g id="edge52" class="edge">
<title>Node0&#45;&gt;Node8</title>
<path fill="none" stroke="#191970" d="M1251.9053,-343.0885C1434.3038,-337.967 2031.5756,-319.3235 2063.4507,-294 2086.8497,-275.4104 2082.4507,-259.3846 2082.4507,-229.5 2082.4507,-229.5 2082.4507,-229.5 2082.4507,-174.5 2082.4507,-95.7497 1501.2084,-72.0219 1300.018,-66.1676"/>
<polygon fill="#191970" stroke="#191970" points="1299.9693,-62.6649 1289.8735,-65.8782 1299.7696,-69.662 1299.9693,-62.6649"/>
</g>
<!-- Node9 -->
<g id="node10" class="node">
<title>Node9</title>
<g id="a_node10"><a xlink:href="dji__camera_8hpp.html" target="_top" xlink:title="Camera/Gimbal API for DJI onboardSDK library.">
<polygon fill="#ffffff" stroke="#000000" points="253.2637,-165.5 253.2637,-183.5 337.6377,-183.5 337.6377,-165.5 253.2637,-165.5"/>
<text text-anchor="middle" x="295.4507" y="-171.5" font-family="Helvetica,sans-Serif" font-size="10.00" fill="#000000">dji_camera.hpp</text>
</a>
</g>
</g>
<!-- Node0&#45;&gt;Node9 -->
<g id="edge9" class="edge">
<title>Node0&#45;&gt;Node9</title>
<path fill="none" stroke="#191970" d="M1146.8662,-341.9232C1021.6498,-335.4808 708.66,-317.4903 606.4507,-294 497.3937,-268.9359 375.559,-213.5094 322.5392,-187.9239"/>
<polygon fill="#191970" stroke="#191970" points="323.9823,-184.7338 313.4587,-183.5078 320.9209,-191.0288 323.9823,-184.7338"/>
</g>
<!-- Node10 -->
<g id="node11" class="node">
<title>Node10</title>
<g id="a_node11"><a xlink:href="dji__command_8hpp.html" target="_top" xlink:title="All DJI OSDK OpenProtocol Command IDs.">
<polygon fill="#ffffff" stroke="#000000" points="247.9829,-110.5 247.9829,-128.5 342.9185,-128.5 342.9185,-110.5 247.9829,-110.5"/>
<text text-anchor="middle" x="295.4507" y="-116.5" font-family="Helvetica,sans-Serif" font-size="10.00" fill="#000000">dji_command.hpp</text>
</a>
</g>
</g>
<!-- Node0&#45;&gt;Node10 -->
<g id="edge16" class="edge">
<title>Node0&#45;&gt;Node10</title>
<path fill="none" stroke="#191970" d="M1147.1084,-342.7624C1001.0707,-337.6231 591.252,-321.1357 459.4507,-294 315.028,-264.2658 231.6952,-304.3137 146.4507,-184 120.3264,-147.1283 185.3519,-131.1424 237.6122,-124.3434"/>
<polygon fill="#191970" stroke="#191970" points="238.3563,-127.779 247.8633,-123.1026 237.5151,-120.8297 238.3563,-127.779"/>
</g>
<!-- Node12 -->
<g id="node13" class="node">
<title>Node12</title>
<g id="a_node13"><a xlink:title=" ">
<polygon fill="#ffffff" stroke="#bfbfbf" points="824.6177,-275.5 824.6177,-293.5 938.2837,-293.5 938.2837,-275.5 824.6177,-275.5"/>
<text text-anchor="middle" x="881.4507" y="-281.5" font-family="Helvetica,sans-Serif" font-size="10.00" fill="#000000">dji_circular_buffer.hpp</text>
</a>
</g>
</g>
<!-- Node0&#45;&gt;Node12 -->
<g id="edge15" class="edge">
<title>Node0&#45;&gt;Node12</title>
<path fill="none" stroke="#191970" d="M1146.9395,-334.5922C1089.7405,-323.8 998.5137,-306.5874 939.2974,-295.4145"/>
<polygon fill="#191970" stroke="#191970" points="939.8299,-291.9533 929.3543,-293.5384 938.532,-298.8319 939.8299,-291.9533"/>
</g>
<!-- Node13 -->
<g id="node14" class="node">
<title>Node13</title>
<g id="a_node14"><a xlink:href="dji__control_8hpp.html" target="_top" xlink:title="Control API for DJI OSDK library.">
<polygon fill="#ffffff" stroke="#000000" points="1104.9287,-275.5 1104.9287,-293.5 1185.9727,-293.5 1185.9727,-275.5 1104.9287,-275.5"/>
<text text-anchor="middle" x="1145.4507" y="-281.5" font-family="Helvetica,sans-Serif" font-size="10.00" fill="#000000">dji_control.hpp</text>
</a>
</g>
</g>
<!-- Node0&#45;&gt;Node13 -->
<g id="edge17" class="edge">
<title>Node0&#45;&gt;Node13</title>
<path fill="none" stroke="#191970" d="M1186.6534,-330.2808C1178.8212,-321.5784 1168.76,-310.3992 1160.5404,-301.2664"/>
<polygon fill="#191970" stroke="#191970" points="1162.9177,-298.6758 1153.6265,-293.5842 1157.7146,-303.3585 1162.9177,-298.6758"/>
</g>
<!-- Node16 -->
<g id="node17" class="node">
<title>Node16</title>
<g id="a_node17"><a xlink:href="dji__version_8hpp.html" target="_top" xlink:title="Drone/SDK Version definition for DJI onboardSDK library.">
<polygon fill="#ffffff" stroke="#000000" points="15.8179,-165.5 15.8179,-183.5 99.0835,-183.5 99.0835,-165.5 15.8179,-165.5"/>
<text text-anchor="middle" x="57.4507" y="-171.5" font-family="Helvetica,sans-Serif" font-size="10.00" fill="#000000">dji_version.hpp</text>
</a>
</g>
</g>
<!-- Node0&#45;&gt;Node16 -->
<g id="edge62" class="edge">
<title>Node0&#45;&gt;Node16</title>
<path fill="none" stroke="#191970" d="M1147.25,-343.5653C936.4087,-339.5993 156.8397,-323.021 113.4507,-294 79.1375,-271.0494 65.3847,-221.2102 60.2481,-193.7"/>
<polygon fill="#191970" stroke="#191970" points="63.6826,-193.017 58.5844,-183.7294 56.778,-194.1691 63.6826,-193.017"/>
</g>
<!-- Node18 -->
<g id="node19" class="node">
<title>Node18</title>
<g id="a_node19"><a xlink:href="dji__gimbal_8hpp.html" target="_top" xlink:title="Gimbal API for OSDK library.">
<polygon fill="#ffffff" stroke="#000000" points="155.207,-165.5 155.207,-183.5 235.6943,-183.5 235.6943,-165.5 155.207,-165.5"/>
<text text-anchor="middle" x="195.4507" y="-171.5" font-family="Helvetica,sans-Serif" font-size="10.00" fill="#000000">dji_gimbal.hpp</text>
</a>
</g>
</g>
<!-- Node0&#45;&gt;Node18 -->
<g id="edge30" class="edge">
<title>Node0&#45;&gt;Node18</title>
<path fill="none" stroke="#191970" d="M1147.0157,-342.2354C1012.0803,-336.1282 655.3295,-318.1364 539.4507,-294 419.2129,-268.9556 283.3707,-213.1086 224.843,-187.6285"/>
<polygon fill="#191970" stroke="#191970" points="226.0434,-184.3332 215.4796,-183.5231 223.2325,-190.7441 226.0434,-184.3332"/>
</g>
<!-- Node19 -->
<g id="node20" class="node">
<title>Node19</title>
<g id="a_node20"><a xlink:title=" ">
<polygon fill="#ffffff" stroke="#bfbfbf" points="1203.9189,-275.5 1203.9189,-293.5 1304.9824,-293.5 1304.9824,-275.5 1203.9189,-275.5"/>
<text text-anchor="middle" x="1254.4507" y="-281.5" font-family="Helvetica,sans-Serif" font-size="10.00" fill="#000000">dji_hard_driver.hpp</text>
</a>
</g>
</g>
<!-- Node0&#45;&gt;Node19 -->
<g id="edge33" class="edge">
<title>Node0&#45;&gt;Node19</title>
<path fill="none" stroke="#191970" d="M1212.4849,-330.2808C1220.5436,-321.4896 1230.9191,-310.1708 1239.3372,-300.9875"/>
<polygon fill="#191970" stroke="#191970" points="1241.9463,-303.3208 1246.1235,-293.5842 1236.7862,-298.5907 1241.9463,-303.3208"/>
</g>
<!-- Node20 -->
<g id="node21" class="node">
<title>Node20</title>
<g id="a_node21"><a xlink:href="dji__hardware__sync_8hpp.html" target="_top" xlink:title="Hardware Sync API for DJI OSDK.">
<polygon fill="#ffffff" stroke="#000000" points="356.0298,-165.5 356.0298,-183.5 474.8716,-183.5 474.8716,-165.5 356.0298,-165.5"/>
<text text-anchor="middle" x="415.4507" y="-171.5" font-family="Helvetica,sans-Serif" font-size="10.00" fill="#000000">dji_hardware_sync.hpp</text>
</a>
</g>
</g>
<!-- Node0&#45;&gt;Node20 -->
<g id="edge34" class="edge">
<title>Node0&#45;&gt;Node20</title>
<path fill="none" stroke="#191970" d="M1147.0575,-341.8437C1031.2906,-335.5992 756.8974,-318.632 667.4507,-294 578.0768,-269.3881 481.439,-214.753 438.3884,-188.7663"/>
<polygon fill="#191970" stroke="#191970" points="440.1618,-185.7484 429.8014,-183.5319 436.5183,-191.7254 440.1618,-185.7484"/>
</g>
<!-- Node21 -->
<g id="node22" class="node">
<title>Node21</title>
<g id="a_node22"><a xlink:href="dji__mfio_8hpp.html" target="_top" xlink:title="MFIO API for DJI OSDK library.">
<polygon fill="#ffffff" stroke="#000000" points="1815.4902,-220.5 1815.4902,-238.5 1885.4111,-238.5 1885.4111,-220.5 1815.4902,-220.5"/>
<text text-anchor="middle" x="1850.4507" y="-226.5" font-family="Helvetica,sans-Serif" font-size="10.00" fill="#000000">dji_mfio.hpp</text>
</a>
</g>
</g>
<!-- Node0&#45;&gt;Node21 -->
<g id="edge36" class="edge">
<title>Node0&#45;&gt;Node21</title>
<path fill="none" stroke="#191970" d="M1251.7721,-342.5649C1408.06,-336.5338 1862.0008,-317.0919 1883.4507,-294 1896.4521,-280.0033 1882.4123,-259.9127 1868.8405,-245.8849"/>
<polygon fill="#191970" stroke="#191970" points="1871.1399,-243.2394 1861.5234,-238.7927 1866.268,-248.2658 1871.1399,-243.2394"/>
</g>
<!-- Node22 -->
<g id="node23" class="node">
<title>Node22</title>
<g id="a_node23"><a xlink:href="dji__mission__manager_8hpp.html" target="_top" xlink:title="Mission&#45;Manager API for DJI OSDK library.">
<polygon fill="#ffffff" stroke="#000000" points="676.7466,-275.5 676.7466,-293.5 806.1548,-293.5 806.1548,-275.5 676.7466,-275.5"/>
<text text-anchor="middle" x="741.4507" y="-281.5" font-family="Helvetica,sans-Serif" font-size="10.00" fill="#000000">dji_mission_manager.hpp</text>
</a>
</g>
</g>
<!-- Node0&#45;&gt;Node22 -->
<g id="edge38" class="edge">
<title>Node0&#45;&gt;Node22</title>
<path fill="none" stroke="#191970" d="M1146.9123,-337.6172C1065.7212,-326.9808 909.4399,-306.5073 816.4057,-294.3194"/>
<polygon fill="#191970" stroke="#191970" points="816.5868,-290.8133 806.2168,-292.9846 815.6775,-297.754 816.5868,-290.8133"/>
</g>
<!-- Node26 -->
<g id="node27" class="node">
<title>Node26</title>
<g id="a_node27"><a xlink:href="dji__mobile__communication_8hpp.html" target="_top" xlink:title="Implementation of DJI Mobile&#45;Onboard SDK Communication (MOC)">
<polygon fill="#ffffff" stroke="#000000" points="1475.8008,-275.5 1475.8008,-293.5 1629.1006,-293.5 1629.1006,-275.5 1475.8008,-275.5"/>
<text text-anchor="middle" x="1552.4507" y="-281.5" font-family="Helvetica,sans-Serif" font-size="10.00" fill="#000000">dji_mobile_communication.hpp</text>
</a>
</g>
</g>
<!-- Node0&#45;&gt;Node26 -->
<g id="edge47" class="edge">
<title>Node0&#45;&gt;Node26</title>
<path fill="none" stroke="#191970" d="M1251.9172,-335.5822C1315.2166,-324.8231 1421.5537,-306.7488 1489.2915,-295.2353"/>
<polygon fill="#191970" stroke="#191970" points="1490.1351,-298.6422 1499.4072,-293.5159 1488.9621,-291.7411 1490.1351,-298.6422"/>
</g>
<!-- Node28 -->
<g id="node29" class="node">
<title>Node28</title>
<g id="a_node29"><a xlink:href="dji__mobile__device_8hpp.html" target="_top" xlink:title="Implementation of DJI Mobile Device Abstraction.">
<polygon fill="#ffffff" stroke="#000000" points="1452.9731,-220.5 1452.9731,-238.5 1567.9282,-238.5 1567.9282,-220.5 1452.9731,-220.5"/>
<text text-anchor="middle" x="1510.4507" y="-226.5" font-family="Helvetica,sans-Serif" font-size="10.00" fill="#000000">dji_mobile_device.hpp</text>
</a>
</g>
</g>
<!-- Node0&#45;&gt;Node28 -->
<g id="edge50" class="edge">
<title>Node0&#45;&gt;Node28</title>
<path fill="none" stroke="#191970" d="M1245.2365,-330.4491C1276.0263,-320.7649 1317.4165,-307.29 1353.4507,-294 1398.1061,-277.5303 1448.9107,-256.1671 1480.3285,-242.6416"/>
<polygon fill="#191970" stroke="#191970" points="1482.0245,-245.7216 1489.8155,-238.5418 1479.2476,-239.2959 1482.0245,-245.7216"/>
</g>
<!-- Node29 -->
<g id="node30" class="node">
<title>Node29</title>
<g id="a_node30"><a xlink:title=" ">
<polygon fill="#ffffff" stroke="#bfbfbf" points="1646.6333,-275.5 1646.6333,-293.5 1778.2681,-293.5 1778.2681,-275.5 1646.6333,-275.5"/>
<text text-anchor="middle" x="1712.4507" y="-281.5" font-family="Helvetica,sans-Serif" font-size="10.00" fill="#000000">dji_platform_manager.hpp</text>
</a>
</g>
</g>
<!-- Node0&#45;&gt;Node29 -->
<g id="edge53" class="edge">
<title>Node0&#45;&gt;Node29</title>
<path fill="none" stroke="#191970" d="M1251.8484,-338.6979C1332.3403,-329.7351 1491.5375,-311.8124 1636.3344,-294.2473"/>
<polygon fill="#191970" stroke="#191970" points="1636.7868,-297.7182 1646.2914,-293.0372 1635.9422,-290.7693 1636.7868,-297.7182"/>
</g>
<!-- Node30 -->
<g id="node31" class="node">
<title>Node30</title>
<g id="a_node31"><a xlink:href="dji__status_8hpp.html" target="_top" xlink:title="Status information for DJI Vehicle.">
<polygon fill="#ffffff" stroke="#000000" points="1796.5962,-275.5 1796.5962,-293.5 1874.3052,-293.5 1874.3052,-275.5 1796.5962,-275.5"/>
<text text-anchor="middle" x="1835.4507" y="-281.5" font-family="Helvetica,sans-Serif" font-size="10.00" fill="#000000">dji_status.hpp</text>
</a>
</g>
</g>
<!-- Node0&#45;&gt;Node30 -->
<g id="edge54" class="edge">
<title>Node0&#45;&gt;Node30</title>
<path fill="none" stroke="#191970" d="M1251.9787,-341.9266C1353.3916,-336.5376 1583.3273,-322.2756 1786.5181,-293.9859"/>
<polygon fill="#191970" stroke="#191970" points="1787.064,-297.4437 1796.4789,-292.5847 1786.0888,-290.5119 1787.064,-297.4437"/>
</g>
<!-- Node31 -->
<g id="node32" class="node">
<title>Node31</title>
<g id="a_node32"><a xlink:href="dji__subscription_8hpp.html" target="_top" xlink:title="Telemetry Subscription API for DJI OSDK library.">
<polygon fill="#ffffff" stroke="#000000" points="1180.2563,-220.5 1180.2563,-238.5 1284.645,-238.5 1284.645,-220.5 1180.2563,-220.5"/>
<text text-anchor="middle" x="1232.4507" y="-226.5" font-family="Helvetica,sans-Serif" font-size="10.00" fill="#000000">dji_subscription.hpp</text>
</a>
</g>
</g>
<!-- Node0&#45;&gt;Node31 -->
<g id="edge55" class="edge">
<title>Node0&#45;&gt;Node31</title>
<path fill="none" stroke="#191970" d="M1251.7086,-334.9872C1275.0656,-327.8507 1300.4415,-315.4523 1314.4507,-294 1329.1122,-271.5488 1299.3928,-253.4938 1271.7203,-242.2588"/>
<polygon fill="#191970" stroke="#191970" points="1272.684,-238.8801 1262.0936,-238.5732 1270.1812,-245.4174 1272.684,-238.8801"/>
</g>
<!-- Node32 -->
<g id="node33" class="node">
<title>Node32</title>
<g id="a_node33"><a xlink:title=" ">
<polygon fill="#ffffff" stroke="#bfbfbf" points="1930.5176,-275.5 1930.5176,-293.5 2054.3838,-293.5 2054.3838,-275.5 1930.5176,-275.5"/>
<text text-anchor="middle" x="1992.4507" y="-281.5" font-family="Helvetica,sans-Serif" font-size="10.00" fill="#000000">dji_thread_manager.hpp</text>
</a>
</g>
</g>
<!-- Node0&#45;&gt;Node32 -->
<g id="edge59" class="edge">
<title>Node0&#45;&gt;Node32</title>
<path fill="none" stroke="#191970" d="M1251.7109,-341.7895C1370.1564,-335.434 1668.0569,-318.2542 1916.4507,-294 1917.7162,-293.8764 1918.9932,-293.7488 1920.2791,-293.6177"/>
<polygon fill="#191970" stroke="#191970" points="1920.6961,-297.0932 1930.2677,-292.5506 1919.9524,-290.1328 1920.6961,-297.0932"/>
</g>
<!-- Node33 -->
<g id="node34" class="node">
<title>Node33</title>
<g id="a_node34"><a xlink:href="dji__virtual__rc_8hpp.html" target="_top" xlink:title="Virtual Radio Control API for DJI onboardSDK library.">
<polygon fill="#ffffff" stroke="#000000" points="956.6528,-275.5 956.6528,-293.5 1048.2485,-293.5 1048.2485,-275.5 956.6528,-275.5"/>
<text text-anchor="middle" x="1002.4507" y="-281.5" font-family="Helvetica,sans-Serif" font-size="10.00" fill="#000000">dji_virtual_rc.hpp</text>
</a>
</g>
</g>
<!-- Node0&#45;&gt;Node33 -->
<g id="edge63" class="edge">
<title>Node0&#45;&gt;Node33</title>
<path fill="none" stroke="#191970" d="M1153.2629,-330.4327C1119.5012,-320.1499 1074.1885,-306.3491 1042.0706,-296.567"/>
<polygon fill="#191970" stroke="#191970" points="1042.7236,-293.1072 1032.1377,-293.5417 1040.6841,-299.8035 1042.7236,-293.1072"/>
</g>
<!-- Node3 -->
<g id="node4" class="node">
<title>Node3</title>
<g id="a_node4"><a xlink:href="dji__telemetry_8hpp.html" target="_top" xlink:title="Enumeration of all telemetry data types, structures and maps.">
<polygon fill="#ffffff" stroke="#000000" points="918.7432,-165.5 918.7432,-183.5 1010.1582,-183.5 1010.1582,-165.5 918.7432,-165.5"/>
<text text-anchor="middle" x="964.4507" y="-171.5" font-family="Helvetica,sans-Serif" font-size="10.00" fill="#000000">dji_telemetry.hpp</text>
</a>
</g>
</g>
<!-- Node2&#45;&gt;Node3 -->
<g id="edge3" class="edge">
<title>Node2&#45;&gt;Node3</title>
<path fill="none" stroke="#191970" d="M1339.7495,-223.2977C1261.0359,-213.0631 1104.3307,-192.6877 1020.4724,-181.7841"/>
<polygon fill="#191970" stroke="#191970" points="1020.7384,-178.2894 1010.3705,-180.4707 1019.8358,-185.2309 1020.7384,-178.2894"/>
</g>
<!-- Node2&#45;&gt;Node7 -->
<g id="edge7" class="edge">
<title>Node2&#45;&gt;Node7</title>
<path fill="none" stroke="#191970" d="M1387.4507,-220.4982C1387.4507,-202.6913 1387.4507,-162.6225 1387.4507,-138.6515"/>
<polygon fill="#191970" stroke="#191970" points="1390.9508,-138.6261 1387.4507,-128.6261 1383.9508,-138.6262 1390.9508,-138.6261"/>
</g>
<!-- Node3&#45;&gt;Node4 -->
<g id="edge4" class="edge">
<title>Node3&#45;&gt;Node4</title>
<path fill="none" stroke="#191970" d="M918.5423,-166.5235C915.4663,-166.0035 912.4141,-165.4916 909.4507,-165 824.4693,-150.9015 725.1308,-135.2936 668.7193,-126.5119"/>
<polygon fill="#191970" stroke="#191970" points="669.1179,-123.0319 658.6988,-124.9535 668.0421,-129.9488 669.1179,-123.0319"/>
</g>
<!-- Node5 -->
<g id="node6" class="node">
<title>Node5</title>
<g id="a_node6"><a xlink:title=" ">
<polygon fill="#ffffff" stroke="#bfbfbf" points="602.3892,-55.5 602.3892,-73.5 644.5122,-73.5 644.5122,-55.5 602.3892,-55.5"/>
<text text-anchor="middle" x="623.4507" y="-61.5" font-family="Helvetica,sans-Serif" font-size="10.00" fill="#000000">cstdio</text>
</a>
</g>
</g>
<!-- Node4&#45;&gt;Node5 -->
<g id="edge5" class="edge">
<title>Node4&#45;&gt;Node5</title>
<path fill="none" stroke="#191970" d="M623.4507,-110.4179C623.4507,-103.2164 623.4507,-92.8962 623.4507,-83.8632"/>
<polygon fill="#191970" stroke="#191970" points="626.9508,-83.7794 623.4507,-73.7795 619.9508,-83.7795 626.9508,-83.7794"/>
</g>
<!-- Node6 -->
<g id="node7" class="node">
<title>Node6</title>
<g id="a_node7"><a xlink:title=" ">
<polygon fill="#ffffff" stroke="#bfbfbf" points="335.3301,-.5 335.3301,-18.5 383.5713,-18.5 383.5713,-.5 335.3301,-.5"/>
<text text-anchor="middle" x="359.4507" y="-6.5" font-family="Helvetica,sans-Serif" font-size="10.00" fill="#000000">stdint.h</text>
</a>
</g>
</g>
<!-- Node4&#45;&gt;Node6 -->
<g id="edge6" class="edge">
<title>Node4&#45;&gt;Node6</title>
<path fill="none" stroke="#191970" d="M601.8465,-110.4982C555.2423,-91.0798 445.1016,-45.1879 390.8125,-22.5674"/>
<polygon fill="#191970" stroke="#191970" points="391.9304,-19.2416 381.3534,-18.6261 389.238,-25.7031 391.9304,-19.2416"/>
</g>
<!-- Node7&#45;&gt;Node8 -->
<g id="edge8" class="edge">
<title>Node7&#45;&gt;Node8</title>
<path fill="none" stroke="#191970" d="M1361.8556,-110.4179C1336.0886,-101.2748 1296.1545,-87.1046 1267.4639,-76.924"/>
<polygon fill="#191970" stroke="#191970" points="1268.4209,-73.5499 1257.8262,-73.5042 1266.08,-80.1469 1268.4209,-73.5499"/>
</g>
<!-- Node9&#45;&gt;Node4 -->
<g id="edge14" class="edge">
<title>Node9&#45;&gt;Node4</title>
<path fill="none" stroke="#191970" d="M337.7252,-166.7136C341.0148,-166.127 344.2861,-165.5499 347.4507,-165 428.5846,-150.9022 523.3314,-135.5173 578.0589,-126.736"/>
<polygon fill="#191970" stroke="#191970" points="578.8071,-130.1608 588.1273,-125.1226 577.6994,-123.249 578.8071,-130.1608"/>
</g>
<!-- Node9&#45;&gt;Node10 -->
<g id="edge10" class="edge">
<title>Node9&#45;&gt;Node10</title>
<path fill="none" stroke="#191970" d="M295.4507,-165.4179C295.4507,-158.2164 295.4507,-147.8962 295.4507,-138.8632"/>
<polygon fill="#191970" stroke="#191970" points="298.9508,-138.7794 295.4507,-128.7795 291.9508,-138.7795 298.9508,-138.7794"/>
</g>
<!-- Node10&#45;&gt;Node6 -->
<g id="edge13" class="edge">
<title>Node10&#45;&gt;Node6</title>
<path fill="none" stroke="#191970" d="M307.447,-110.2741C317.6125,-101.857 331.8674,-88.5434 340.4507,-74 348.7017,-60.0196 353.5952,-42.1952 356.344,-28.8283"/>
<polygon fill="#191970" stroke="#191970" points="359.8162,-29.2978 358.1753,-18.8308 352.9308,-28.0365 359.8162,-29.2978"/>
</g>
<!-- Node11 -->
<g id="node12" class="node">
<title>Node11</title>
<g id="a_node12"><a xlink:href="dji__error_8hpp.html" target="_top" xlink:title="All DJI OSDK OpenProtocol ACK Error Codes.">
<polygon fill="#ffffff" stroke="#000000" points="259.6528,-55.5 259.6528,-73.5 331.2485,-73.5 331.2485,-55.5 259.6528,-55.5"/>
<text text-anchor="middle" x="295.4507" y="-61.5" font-family="Helvetica,sans-Serif" font-size="10.00" fill="#000000">dji_error.hpp</text>
</a>
</g>
</g>
<!-- Node10&#45;&gt;Node11 -->
<g id="edge11" class="edge">
<title>Node10&#45;&gt;Node11</title>
<path fill="none" stroke="#191970" d="M295.4507,-110.4179C295.4507,-103.2164 295.4507,-92.8962 295.4507,-83.8632"/>
<polygon fill="#191970" stroke="#191970" points="298.9508,-83.7794 295.4507,-73.7795 291.9508,-83.7795 298.9508,-83.7794"/>
</g>
<!-- Node11&#45;&gt;Node6 -->
<g id="edge12" class="edge">
<title>Node11&#45;&gt;Node6</title>
<path fill="none" stroke="#191970" d="M306.019,-55.4179C315.504,-47.2667 329.6382,-35.1201 340.9873,-25.3669"/>
<polygon fill="#191970" stroke="#191970" points="343.3497,-27.9516 348.6528,-18.7795 338.7874,-22.6427 343.3497,-27.9516"/>
</g>
<!-- Node13&#45;&gt;Node4 -->
<g id="edge28" class="edge">
<title>Node13&#45;&gt;Node4</title>
<path fill="none" stroke="#191970" d="M1144.3143,-275.3927C1140.9204,-252.4423 1128.602,-192.1381 1090.4507,-165 1056.5296,-140.871 779.0461,-126.2661 668.5768,-121.3592"/>
<polygon fill="#191970" stroke="#191970" points="668.565,-117.8554 658.4214,-120.9146 668.2588,-124.8487 668.565,-117.8554"/>
</g>
<!-- Node13&#45;&gt;Node7 -->
<g id="edge29" class="edge">
<title>Node13&#45;&gt;Node7</title>
<path fill="none" stroke="#191970" d="M1183.7459,-275.4969C1221.3341,-266.1737 1275.551,-251.2792 1293.4507,-239 1332.8243,-211.9897 1363.488,-163.4855 1378.0919,-137.3487"/>
<polygon fill="#191970" stroke="#191970" points="1381.1908,-138.9763 1382.8873,-128.5182 1375.0393,-135.6357 1381.1908,-138.9763"/>
</g>
<!-- Node13&#45;&gt;Node8 -->
<g id="edge27" class="edge">
<title>Node13&#45;&gt;Node8</title>
<path fill="none" stroke="#191970" d="M1149.0782,-275.327C1162.178,-242.2011 1207.2057,-128.3378 1225.0663,-83.173"/>
<polygon fill="#191970" stroke="#191970" points="1228.3849,-84.2986 1228.8077,-73.7122 1221.8754,-81.7243 1228.3849,-84.2986"/>
</g>
<!-- Node14 -->
<g id="node15" class="node">
<title>Node14</title>
<g id="a_node15"><a xlink:href="dji__ack_8hpp.html" target="_top" xlink:title="All DJI OSDK ACK parsing.">
<polygon fill="#ffffff" stroke="#000000" points="652.1553,-220.5 652.1553,-238.5 718.7461,-238.5 718.7461,-220.5 652.1553,-220.5"/>
<text text-anchor="middle" x="685.4507" y="-226.5" font-family="Helvetica,sans-Serif" font-size="10.00" fill="#000000">dji_ack.hpp</text>
</a>
</g>
</g>
<!-- Node13&#45;&gt;Node14 -->
<g id="edge18" class="edge">
<title>Node13&#45;&gt;Node14</title>
<path fill="none" stroke="#191970" d="M1104.8506,-280.0991C1010.4635,-269.8644 780.8749,-244.9487 729.1084,-238.6285"/>
<polygon fill="#191970" stroke="#191970" points="729.5572,-235.1575 719.1846,-237.3164 728.6395,-242.0971 729.5572,-235.1575"/>
</g>
<!-- Node14&#45;&gt;Node4 -->
<g id="edge22" class="edge">
<title>Node14&#45;&gt;Node4</title>
<path fill="none" stroke="#191970" d="M688.4414,-220.1209C692.0563,-206.9822 696.5954,-182.7215 687.4507,-165 680.4078,-151.3517 667.1696,-140.9043 654.5526,-133.4837"/>
<polygon fill="#191970" stroke="#191970" points="656.0317,-130.3042 645.5728,-128.6127 652.6941,-136.4573 656.0317,-130.3042"/>
</g>
<!-- Node14&#45;&gt;Node10 -->
<g id="edge19" class="edge">
<title>Node14&#45;&gt;Node10</title>
<path fill="none" stroke="#191970" d="M659.1625,-220.4407C620.7906,-207.3693 547.0796,-182.8337 483.4507,-165 437.2941,-152.0634 384.1595,-139.4071 346.1793,-130.7406"/>
<polygon fill="#191970" stroke="#191970" points="346.9029,-127.3159 336.3762,-128.5155 345.3534,-134.1423 346.9029,-127.3159"/>
</g>
<!-- Node15 -->
<g id="node16" class="node">
<title>Node15</title>
<g id="a_node16"><a xlink:href="dji__mission__type_8hpp.html" target="_top" xlink:title="Mission related data struct for DJI OSDK library.">
<polygon fill="#ffffff" stroke="#000000" points="568.7563,-165.5 568.7563,-183.5 678.145,-183.5 678.145,-165.5 568.7563,-165.5"/>
<text text-anchor="middle" x="623.4507" y="-171.5" font-family="Helvetica,sans-Serif" font-size="10.00" fill="#000000">dji_mission_type.hpp</text>
</a>
</g>
</g>
<!-- Node14&#45;&gt;Node15 -->
<g id="edge20" class="edge">
<title>Node14&#45;&gt;Node15</title>
<path fill="none" stroke="#191970" d="M675.2126,-220.4179C666.1133,-212.3458 652.597,-200.3556 641.658,-190.6517"/>
<polygon fill="#191970" stroke="#191970" points="643.7146,-187.7974 633.9112,-183.7795 639.0693,-193.0339 643.7146,-187.7974"/>
</g>
<!-- Node14&#45;&gt;Node16 -->
<g id="edge23" class="edge">
<title>Node14&#45;&gt;Node16</title>
<path fill="none" stroke="#191970" d="M651.9974,-226.9348C567.3182,-220.3855 337.624,-202.2698 146.4507,-184 134.3658,-182.8451 121.3681,-181.5103 109.1403,-180.213"/>
<polygon fill="#191970" stroke="#191970" points="109.4028,-176.7212 99.087,-179.1369 108.6577,-183.6814 109.4028,-176.7212"/>
</g>
<!-- Node17 -->
<g id="node18" class="node">
<title>Node17</title>
<g id="a_node18"><a xlink:title=" ">
<polygon fill="#ffffff" stroke="#bfbfbf" points="734.7241,-165.5 734.7241,-183.5 770.1772,-183.5 770.1772,-165.5 734.7241,-165.5"/>
<text text-anchor="middle" x="752.4507" y="-171.5" font-family="Helvetica,sans-Serif" font-size="10.00" fill="#000000">map</text>
</a>
</g>
</g>
<!-- Node14&#45;&gt;Node17 -->
<g id="edge26" class="edge">
<title>Node14&#45;&gt;Node17</title>
<path fill="none" stroke="#191970" d="M696.5144,-220.4179C706.444,-212.2667 721.2407,-200.1201 733.1219,-190.3669"/>
<polygon fill="#191970" stroke="#191970" points="735.6381,-192.8297 741.1466,-183.7795 731.1966,-187.4192 735.6381,-192.8297"/>
</g>
<!-- Node15&#45;&gt;Node4 -->
<g id="edge21" class="edge">
<title>Node15&#45;&gt;Node4</title>
<path fill="none" stroke="#191970" d="M623.4507,-165.4179C623.4507,-158.2164 623.4507,-147.8962 623.4507,-138.8632"/>
<polygon fill="#191970" stroke="#191970" points="626.9508,-138.7794 623.4507,-128.7795 619.9508,-138.7795 626.9508,-138.7794"/>
</g>
<!-- Node16&#45;&gt;Node1 -->
<g id="edge25" class="edge">
<title>Node16&#45;&gt;Node1</title>
<path fill="none" stroke="#191970" d="M51.6711,-165.4179C46.8366,-157.8207 39.7933,-146.7527 33.8331,-137.3866"/>
<polygon fill="#191970" stroke="#191970" points="36.6774,-135.337 28.3558,-128.7795 30.7718,-139.0952 36.6774,-135.337"/>
</g>
<!-- Node16&#45;&gt;Node10 -->
<g id="edge24" class="edge">
<title>Node16&#45;&gt;Node10</title>
<path fill="none" stroke="#191970" d="M96.485,-165.4795C137.4706,-156.008 202.0105,-141.0933 246.4075,-130.8335"/>
<polygon fill="#191970" stroke="#191970" points="247.4399,-134.1873 256.395,-128.5255 245.8637,-127.367 247.4399,-134.1873"/>
</g>
<!-- Node18&#45;&gt;Node4 -->
<g id="edge32" class="edge">
<title>Node18&#45;&gt;Node4</title>
<path fill="none" stroke="#191970" d="M235.7869,-166.441C238.7147,-165.9294 241.6256,-165.4428 244.4507,-165 364.5756,-146.1696 507.1918,-130.9591 578.3559,-123.8522"/>
<polygon fill="#191970" stroke="#191970" points="578.7203,-127.3333 588.3259,-122.863 578.0291,-120.3675 578.7203,-127.3333"/>
</g>
<!-- Node18&#45;&gt;Node10 -->
<g id="edge31" class="edge">
<title>Node18&#45;&gt;Node10</title>
<path fill="none" stroke="#191970" d="M211.9636,-165.4179C227.7417,-156.7399 251.7535,-143.5334 269.9822,-133.5077"/>
<polygon fill="#191970" stroke="#191970" points="271.8377,-136.4816 278.9132,-128.5956 268.4643,-130.3481 271.8377,-136.4816"/>
</g>
<!-- Node20&#45;&gt;Node4 -->
<g id="edge35" class="edge">
<title>Node20&#45;&gt;Node4</title>
<path fill="none" stroke="#191970" d="M449.7977,-165.4179C485.2812,-156.0352 540.7854,-141.3586 579.4598,-131.1322"/>
<polygon fill="#191970" stroke="#191970" points="580.6254,-134.4444 589.3984,-128.5042 578.8359,-127.6769 580.6254,-134.4444"/>
</g>
<!-- Node21&#45;&gt;Node7 -->
<g id="edge37" class="edge">
<title>Node21&#45;&gt;Node7</title>
<path fill="none" stroke="#191970" d="M1825.756,-220.465C1787.8432,-206.866 1712.8168,-181.0271 1647.4507,-165 1584.5239,-149.571 1511.7975,-137.3059 1459.2907,-129.4161"/>
<polygon fill="#191970" stroke="#191970" points="1459.8047,-125.9541 1449.3987,-127.9455 1458.7753,-132.878 1459.8047,-125.9541"/>
</g>
<!-- Node23 -->
<g id="node24" class="node">
<title>Node23</title>
<g id="a_node24"><a xlink:href="dji__hotpoint_8hpp.html" target="_top" xlink:title="Implementation of HotPoint (Point of Interest) Missions for DJI OSDK.">
<polygon fill="#ffffff" stroke="#000000" points="846.1431,-220.5 846.1431,-238.5 932.7583,-238.5 932.7583,-220.5 846.1431,-220.5"/>
<text text-anchor="middle" x="889.4507" y="-226.5" font-family="Helvetica,sans-Serif" font-size="10.00" fill="#000000">dji_hotpoint.hpp</text>
</a>
</g>
</g>
<!-- Node22&#45;&gt;Node23 -->
<g id="edge39" class="edge">
<title>Node22&#45;&gt;Node23</title>
<path fill="none" stroke="#191970" d="M765.8899,-275.4179C790.3126,-266.3419 828.0648,-252.3123 855.4139,-242.1488"/>
<polygon fill="#191970" stroke="#191970" points="856.8207,-245.3599 864.9752,-238.5956 854.3823,-238.7984 856.8207,-245.3599"/>
</g>
<!-- Node25 -->
<g id="node26" class="node">
<title>Node25</title>
<g id="a_node26"><a xlink:href="dji__waypoint_8hpp.html" target="_top" xlink:title="Implementation of GPS Waypoint Missions for DJI OSDK.">
<polygon fill="#ffffff" stroke="#000000" points="737.2021,-220.5 737.2021,-238.5 827.6992,-238.5 827.6992,-220.5 737.2021,-220.5"/>
<text text-anchor="middle" x="782.4507" y="-226.5" font-family="Helvetica,sans-Serif" font-size="10.00" fill="#000000">dji_waypoint.hpp</text>
</a>
</g>
</g>
<!-- Node22&#45;&gt;Node25 -->
<g id="edge45" class="edge">
<title>Node22&#45;&gt;Node25</title>
<path fill="none" stroke="#191970" d="M748.221,-275.4179C754.0024,-267.6624 762.48,-256.29 769.5517,-246.8035"/>
<polygon fill="#191970" stroke="#191970" points="772.3627,-248.8888 775.5333,-238.7795 766.7505,-244.7051 772.3627,-248.8888"/>
</g>
<!-- Node23&#45;&gt;Node3 -->
<g id="edge44" class="edge">
<title>Node23&#45;&gt;Node3</title>
<path fill="none" stroke="#191970" d="M901.8354,-220.4179C913.2347,-212.0584 930.3644,-199.4966 943.8272,-189.6239"/>
<polygon fill="#191970" stroke="#191970" points="946.0533,-192.3317 952.0476,-183.5956 941.9137,-186.6869 946.0533,-192.3317"/>
</g>
<!-- Node24 -->
<g id="node25" class="node">
<title>Node24</title>
<g id="a_node25"><a xlink:href="dji__mission__base_8hpp.html" target="_top" xlink:title="Mission&#45;Base abstract class for DJI OSDK library.">
<polygon fill="#ffffff" stroke="#000000" points="788.3647,-165.5 788.3647,-183.5 900.5366,-183.5 900.5366,-165.5 788.3647,-165.5"/>
<text text-anchor="middle" x="844.4507" y="-171.5" font-family="Helvetica,sans-Serif" font-size="10.00" fill="#000000">dji_mission_base.hpp</text>
</a>
</g>
</g>
<!-- Node23&#45;&gt;Node24 -->
<g id="edge40" class="edge">
<title>Node23&#45;&gt;Node24</title>
<path fill="none" stroke="#191970" d="M882.0198,-220.4179C875.6745,-212.6624 866.3698,-201.29 858.6081,-191.8035"/>
<polygon fill="#191970" stroke="#191970" points="861.0842,-189.3027 852.043,-183.7795 855.6665,-193.7354 861.0842,-189.3027"/>
</g>
<!-- Node24&#45;&gt;Node4 -->
<g id="edge42" class="edge">
<title>Node24&#45;&gt;Node4</title>
<path fill="none" stroke="#191970" d="M807.957,-165.4179C769.6753,-155.8907 709.4616,-140.9054 668.306,-130.6631"/>
<polygon fill="#191970" stroke="#191970" points="669.0867,-127.2507 658.5375,-128.232 667.3962,-134.0435 669.0867,-127.2507"/>
</g>
<!-- Node24&#45;&gt;Node7 -->
<g id="edge43" class="edge">
<title>Node24&#45;&gt;Node7</title>
<path fill="none" stroke="#191970" d="M900.7978,-166.0879C903.7224,-165.7066 906.62,-165.3414 909.4507,-165 1053.0388,-147.6841 1221.549,-132.9406 1315.2505,-125.2359"/>
<polygon fill="#191970" stroke="#191970" points="1315.7867,-128.7038 1325.4677,-124.3994 1315.2154,-121.7272 1315.7867,-128.7038"/>
</g>
<!-- Node24&#45;&gt;Node10 -->
<g id="edge41" class="edge">
<title>Node24&#45;&gt;Node10</title>
<path fill="none" stroke="#191970" d="M788.1041,-166.0839C785.1794,-165.7037 782.2815,-165.3397 779.4507,-165 625.7412,-146.5548 443.8152,-131.1824 353.0243,-123.9492"/>
<polygon fill="#191970" stroke="#191970" points="353.1855,-120.4511 342.9401,-123.1495 352.6321,-127.4292 353.1855,-120.4511"/>
</g>
<!-- Node25&#45;&gt;Node24 -->
<g id="edge46" class="edge">
<title>Node25&#45;&gt;Node24</title>
<path fill="none" stroke="#191970" d="M792.6887,-220.4179C801.7881,-212.3458 815.3044,-200.3556 826.2433,-190.6517"/>
<polygon fill="#191970" stroke="#191970" points="828.8321,-193.0339 833.9902,-183.7795 824.1868,-187.7974 828.8321,-193.0339"/>
</g>
<!-- Node26&#45;&gt;Node7 -->
<g id="edge49" class="edge">
<title>Node26&#45;&gt;Node7</title>
<path fill="none" stroke="#191970" d="M1571.0943,-275.4275C1584.4967,-267.7723 1601.5434,-255.4295 1609.4507,-239 1623.7136,-209.3648 1630.2413,-190.4839 1609.4507,-165 1590.7106,-142.0295 1517.1019,-130.3358 1459.7188,-124.6023"/>
<polygon fill="#191970" stroke="#191970" points="1459.8611,-121.1001 1449.5735,-123.6329 1459.1952,-128.0683 1459.8611,-121.1001"/>
</g>
<!-- Node27 -->
<g id="node28" class="node">
<title>Node27</title>
<g id="a_node28"><a xlink:title=" ">
<polygon fill="#ffffff" stroke="#bfbfbf" points="1661.5444,-220.5 1661.5444,-238.5 1745.3569,-238.5 1745.3569,-220.5 1661.5444,-220.5"/>
<text text-anchor="middle" x="1703.4507" y="-226.5" font-family="Helvetica,sans-Serif" font-size="10.00" fill="#000000">dji_macros.hpp</text>
</a>
</g>
</g>
<!-- Node26&#45;&gt;Node27 -->
<g id="edge48" class="edge">
<title>Node26&#45;&gt;Node27</title>
<path fill="none" stroke="#191970" d="M1577.3853,-275.4179C1602.3777,-266.3147 1641.0513,-252.2283 1668.9743,-242.0576"/>
<polygon fill="#191970" stroke="#191970" points="1670.5318,-245.2153 1678.73,-238.5042 1668.136,-238.6381 1670.5318,-245.2153"/>
</g>
<!-- Node28&#45;&gt;Node7 -->
<g id="edge51" class="edge">
<title>Node28&#45;&gt;Node7</title>
<path fill="none" stroke="#191970" d="M1500.3851,-220.4982C1479.5727,-201.8856 1431.5638,-158.9508 1405.3415,-135.4999"/>
<polygon fill="#191970" stroke="#191970" points="1407.4426,-132.6834 1397.6554,-128.6261 1402.7762,-137.9013 1407.4426,-132.6834"/>
</g>
<!-- Node31&#45;&gt;Node3 -->
<g id="edge57" class="edge">
<title>Node31&#45;&gt;Node3</title>
<path fill="none" stroke="#191970" d="M1188.496,-220.4795C1141.9556,-210.9282 1068.4431,-195.8417 1018.4177,-185.5753"/>
<polygon fill="#191970" stroke="#191970" points="1018.9288,-182.1073 1008.4293,-183.5255 1017.5215,-188.9644 1018.9288,-182.1073"/>
</g>
<!-- Node31&#45;&gt;Node7 -->
<g id="edge58" class="edge">
<title>Node31&#45;&gt;Node7</title>
<path fill="none" stroke="#191970" d="M1240.2562,-220.2718C1251.9177,-206.8821 1275.0342,-181.8324 1298.4507,-165 1316.2844,-152.1807 1338.2377,-140.9158 1355.8784,-132.8016"/>
<polygon fill="#191970" stroke="#191970" points="1357.4903,-135.9146 1365.1816,-128.628 1354.6251,-129.5278 1357.4903,-135.9146"/>
</g>
<!-- Node31&#45;&gt;Node8 -->
<g id="edge56" class="edge">
<title>Node31&#45;&gt;Node8</title>
<path fill="none" stroke="#191970" d="M1232.4507,-220.1561C1232.4507,-193.9504 1232.4507,-119.3557 1232.4507,-83.8021"/>
<polygon fill="#191970" stroke="#191970" points="1235.9508,-83.7414 1232.4507,-73.7414 1228.9508,-83.7414 1235.9508,-83.7414"/>
</g>
<!-- Node33&#45;&gt;Node3 -->
<g id="edge67" class="edge">
<title>Node33&#45;&gt;Node3</title>
<path fill="none" stroke="#191970" d="M999.341,-275.4982C993.1617,-257.6108 979.2221,-217.2594 970.9546,-193.3271"/>
<polygon fill="#191970" stroke="#191970" points="974.1768,-191.9352 967.6034,-183.6261 967.5605,-194.2209 974.1768,-191.9352"/>
</g>
<!-- Node33&#45;&gt;Node4 -->
<g id="edge66" class="edge">
<title>Node33&#45;&gt;Node4</title>
<path fill="none" stroke="#191970" d="M956.5637,-276.3863C953.4825,-275.8994 950.4233,-275.4324 947.4507,-275 812.8126,-255.4143 771.3134,-285.4988 643.4507,-239 601.5136,-223.7491 580.6698,-223.2563 559.4507,-184 548.3584,-163.4787 571.4352,-145.1438 592.9076,-133.3166"/>
<polygon fill="#191970" stroke="#191970" points="594.6351,-136.3636 601.9076,-128.6588 591.4177,-130.1468 594.6351,-136.3636"/>
</g>
<!-- Node33&#45;&gt;Node8 -->
<g id="edge65" class="edge">
<title>Node33&#45;&gt;Node8</title>
<path fill="none" stroke="#191970" d="M1012.0407,-275.327C1047.3298,-241.5721 1170.262,-123.9848 1215.5397,-80.6757"/>
<polygon fill="#191970" stroke="#191970" points="1218.0126,-83.1537 1222.8198,-73.7122 1213.174,-78.0952 1218.0126,-83.1537"/>
</g>
<!-- Node33&#45;&gt;Node14 -->
<g id="edge64" class="edge">
<title>Node33&#45;&gt;Node14</title>
<path fill="none" stroke="#191970" d="M956.5394,-276.5412C953.464,-276.0169 950.4128,-275.4993 947.4507,-275 853.3177,-259.1336 826.99,-257.7244 728.8013,-238.9761"/>
<polygon fill="#191970" stroke="#191970" points="729.2289,-235.4943 718.7481,-237.0443 727.9079,-242.3685 729.2289,-235.4943"/>
</g>
</g>
</svg>
        <g id="navigator" transform="translate(0 0)" fill="#404254">
                <rect fill="#f2f5e9" fill-opacity="0.5" stroke="#606060" stroke-width=".5" x="0" y="0" width="60" height="60"/>
                <use id="zoomplus" xlink:href="#zoomPlus" x="17" y="9" onmousedown="handleZoom(evt,'in')"/>
                <use id="zoomminus" xlink:href="#zoomMin" x="42" y="9" onmousedown="handleZoom(evt,'out')"/>
                <use id="reset" xlink:href="#resetDef" x="30" y="36" onmousedown="handleReset()"/>
                <g id="arrowUp" xlink:href="#dirArrow" transform="translate(30 24)" onmousedown="handlePan(0,-1)">
                  <use xlink:href="#rim" fill="#404040">
                        <set attributeName="fill" to="#808080" begin="arrowUp.mouseover" end="arrowUp.mouseout"/>
                  </use>
                  <path fill="none" stroke="white" stroke-width="1.5" d="M0,-3.0v7 M-2.5,-0.5L0,-3.0L2.5,-0.5"/>
                </g>
                <g id="arrowRight" xlink:href="#dirArrow" transform="rotate(90) translate(36 -43)" onmousedown="handlePan(1,0)">
                  <use xlink:href="#rim" fill="#404040">
                        <set attributeName="fill" to="#808080" begin="arrowRight.mouseover" end="arrowRight.mouseout"/>
                  </use>
                  <path fill="none" stroke="white" stroke-width="1.5" d="M0,-3.0v7 M-2.5,-0.5L0,-3.0L2.5,-0.5"/>
                </g>
                <g id="arrowDown" xlink:href="#dirArrow" transform="rotate(180) translate(-30 -48)" onmousedown="handlePan(0,1)">
                  <use xlink:href="#rim" fill="#404040">
                        <set attributeName="fill" to="#808080" begin="arrowDown.mouseover" end="arrowDown.mouseout"/>
                  </use>
                  <path fill="none" stroke="white" stroke-width="1.5" d="M0,-3.0v7 M-2.5,-0.5L0,-3.0L2.5,-0.5"/>
                </g>
                <g id="arrowLeft" xlink:href="#dirArrow" transform="rotate(270) translate(-36 17)" onmousedown="handlePan(-1,0)">
                  <use xlink:href="#rim" fill="#404040">
                        <set attributeName="fill" to="#808080" begin="arrowLeft.mouseover" end="arrowLeft.mouseout"/>
                  </use>
                  <path fill="none" stroke="white" stroke-width="1.5" d="M0,-3.0v7 M-2.5,-0.5L0,-3.0L2.5,-0.5"/>
                </g>
        </g>
        <svg viewBox="0 0 15 15" width="100%" height="30px" preserveAspectRatio="xMaxYMin meet">
         <g id="arrow_out" transform="scale(0.3 0.3)">
          <a xlink:href="dji__vehicle_8hpp__incl_org.svg" target="_base">
           <rect id="button" ry="5" rx="5" y="6" x="6" height="38" width="38"
                fill="#f2f5e9" fill-opacity="0.5" stroke="#606060" stroke-width="1.0"/>
           <path id="arrow"
             d="M 11.500037,31.436501 C 11.940474,20.09759 22.043105,11.32322 32.158766,21.979434 L 37.068811,17.246167 C 37.068811,17.246167 37.088388,32 37.088388,32 L 22.160133,31.978069 C 22.160133,31.978069 26.997745,27.140456 26.997745,27.140456 C 18.528582,18.264221 13.291696,25.230495 11.500037,31.436501 z"
             style="fill:#404040;"/>
          </a>
         </g>
        </svg>
</svg>
