<?xml version="1.0" encoding="UTF-8" standalone="no"?>
<!DOCTYPE svg PUBLIC "-//W3C//DTD SVG 1.1//EN"
 "http://www.w3.org/Graphics/SVG/1.1/DTD/svg11.dtd">
<!-- Generated by graphviz version 2.40.1 (20161225.0304)
 -->
<!-- Title: osdk&#45;core/api/src/dji_ack.cpp Pages: 1 -->
<!--zoomable 312 -->
<svg id="main" version="1.1" xmlns="http://www.w3.org/2000/svg" xmlns:xlink="http://www.w3.org/1999/xlink" xml:space="preserve" onload="init(evt)">
<style type="text/css"><![CDATA[
.edge:hover path { stroke: red; }
.edge:hover polygon { stroke: red; fill: red; }
]]></style>
<script type="text/javascript"><![CDATA[
var edges = document.getElementsByTagName('g');
if (edges && edges.length) {
  for (var i=0;i<edges.length;i++) {
    if (edges[i].id.substr(0,4)=='edge') {
      edges[i].setAttribute('class','edge');
    }
  }
}
]]></script>
        <defs>
                <circle id="rim" cx="0" cy="0" r="7"/>
                <circle id="rim2" cx="0" cy="0" r="3.5"/>
                <g id="zoomPlus">
                        <use xlink:href="#rim" fill="#404040">
                                <set attributeName="fill" to="#808080" begin="zoomplus.mouseover" end="zoomplus.mouseout"/>
                        </use>
                        <path d="M-4,0h8M0,-4v8" fill="none" stroke="white" stroke-width="1.5" pointer-events="none"/>
                </g>
                <g id="zoomMin">
                        <use xlink:href="#rim" fill="#404040">
                                <set attributeName="fill" to="#808080" begin="zoomminus.mouseover" end="zoomminus.mouseout"/>
                        </use>
                        <path d="M-4,0h8" fill="none" stroke="white" stroke-width="1.5" pointer-events="none"/>
                </g>
                <g id="dirArrow">
                        <path fill="none" stroke="white" stroke-width="1.5" d="M0,-3.0v7 M-2.5,-0.5L0,-3.0L2.5,-0.5"/>
                </g>
               <g id="resetDef">
                       <use xlink:href="#rim2" fill="#404040">
                               <set attributeName="fill" to="#808080" begin="reset.mouseover" end="reset.mouseout"/>
                       </use>
               </g>
        </defs>

<script type="text/javascript">
var viewWidth = 791;
var viewHeight = 312;
var sectionId = 'dynsection-0';
</script>
<script xlink:href="svgpan.js"/>
<svg id="graph" class="graph">
<g id="viewport">
<title>osdk&#45;core/api/src/dji_ack.cpp</title>
<polygon fill="#ffffff" stroke="transparent" points="-4,4 -4,-308 786.9292,-308 786.9292,4 -4,4"/>
<!-- Node0 -->
<g id="node1" class="node">
<title>Node0</title>
<g id="a_node1"><a xlink:title="All DJI OSDK ACK parsing.">
<polygon fill="#bfbfbf" stroke="#000000" points="439.2661,-275.5 439.2661,-303.5 544.187,-303.5 544.187,-275.5 439.2661,-275.5"/>
<text text-anchor="start" x="447.2661" y="-291.5" font-family="Helvetica,sans-Serif" font-size="10.00" fill="#000000">osdk&#45;core/api/src/dji</text>
<text text-anchor="middle" x="491.7266" y="-281.5" font-family="Helvetica,sans-Serif" font-size="10.00" fill="#000000">_ack.cpp</text>
</a>
</g>
</g>
<!-- Node1 -->
<g id="node2" class="node">
<title>Node1</title>
<g id="a_node2"><a xlink:href="dji__ack_8hpp.html" target="_top" xlink:title="All DJI OSDK ACK parsing.">
<polygon fill="#ffffff" stroke="#000000" points="176.4312,-220.5 176.4312,-238.5 243.022,-238.5 243.022,-220.5 176.4312,-220.5"/>
<text text-anchor="middle" x="209.7266" y="-226.5" font-family="Helvetica,sans-Serif" font-size="10.00" fill="#000000">dji_ack.hpp</text>
</a>
</g>
</g>
<!-- Node0&#45;&gt;Node1 -->
<g id="edge1" class="edge">
<title>Node0&#45;&gt;Node1</title>
<path fill="none" stroke="#191970" d="M439.0153,-278.2848C385.3245,-266.8613 303.0546,-249.357 253.0372,-238.715"/>
<polygon fill="#191970" stroke="#191970" points="253.6882,-235.2753 243.1787,-236.6175 252.2314,-242.122 253.6882,-235.2753"/>
</g>
<!-- Node11 -->
<g id="node12" class="node">
<title>Node11</title>
<g id="a_node12"><a xlink:href="dji__log_8hpp.html" target="_top" xlink:title="Logging mechanism for printing status and error messages to the screen.">
<polygon fill="#ffffff" stroke="#000000" points="459.5396,-220.5 459.5396,-238.5 523.9136,-238.5 523.9136,-220.5 459.5396,-220.5"/>
<text text-anchor="middle" x="491.7266" y="-226.5" font-family="Helvetica,sans-Serif" font-size="10.00" fill="#000000">dji_log.hpp</text>
</a>
</g>
</g>
<!-- Node0&#45;&gt;Node11 -->
<g id="edge15" class="edge">
<title>Node0&#45;&gt;Node11</title>
<path fill="none" stroke="#191970" d="M491.7266,-275.2808C491.7266,-267.3776 491.7266,-257.4316 491.7266,-248.8308"/>
<polygon fill="#191970" stroke="#191970" points="495.2267,-248.5842 491.7266,-238.5842 488.2267,-248.5842 495.2267,-248.5842"/>
</g>
<!-- Node16 -->
<g id="node17" class="node">
<title>Node16</title>
<g id="a_node17"><a xlink:title=" ">
<polygon fill="#ffffff" stroke="#bfbfbf" points="542.3301,-220.5 542.3301,-238.5 591.123,-238.5 591.123,-220.5 542.3301,-220.5"/>
<text text-anchor="middle" x="566.7266" y="-226.5" font-family="Helvetica,sans-Serif" font-size="10.00" fill="#000000">string.h</text>
</a>
</g>
</g>
<!-- Node0&#45;&gt;Node16 -->
<g id="edge20" class="edge">
<title>Node0&#45;&gt;Node16</title>
<path fill="none" stroke="#191970" d="M509.5005,-275.2808C520.9336,-266.1344 535.7865,-254.252 547.4952,-244.8851"/>
<polygon fill="#191970" stroke="#191970" points="549.7491,-247.5642 555.3713,-238.5842 545.3762,-242.0981 549.7491,-247.5642"/>
</g>
<!-- Node2 -->
<g id="node3" class="node">
<title>Node2</title>
<g id="a_node3"><a xlink:href="dji__command_8hpp.html" target="_top" xlink:title="All DJI OSDK OpenProtocol Command IDs.">
<polygon fill="#ffffff" stroke="#000000" points="181.2588,-110.5 181.2588,-128.5 276.1943,-128.5 276.1943,-110.5 181.2588,-110.5"/>
<text text-anchor="middle" x="228.7266" y="-116.5" font-family="Helvetica,sans-Serif" font-size="10.00" fill="#000000">dji_command.hpp</text>
</a>
</g>
</g>
<!-- Node1&#45;&gt;Node2 -->
<g id="edge2" class="edge">
<title>Node1&#45;&gt;Node2</title>
<path fill="none" stroke="#191970" d="M211.2814,-220.4982C214.3572,-202.6913 221.2781,-162.6225 225.4186,-138.6515"/>
<polygon fill="#191970" stroke="#191970" points="228.897,-139.076 227.1502,-128.6261 221.9991,-137.8845 228.897,-139.076"/>
</g>
<!-- Node5 -->
<g id="node6" class="node">
<title>Node5</title>
<g id="a_node6"><a xlink:href="dji__mission__type_8hpp.html" target="_top" xlink:title="Mission related data struct for DJI OSDK library.">
<polygon fill="#ffffff" stroke="#000000" points="53.0322,-165.5 53.0322,-183.5 162.4209,-183.5 162.4209,-165.5 53.0322,-165.5"/>
<text text-anchor="middle" x="107.7266" y="-171.5" font-family="Helvetica,sans-Serif" font-size="10.00" fill="#000000">dji_mission_type.hpp</text>
</a>
</g>
</g>
<!-- Node1&#45;&gt;Node5 -->
<g id="edge6" class="edge">
<title>Node1&#45;&gt;Node5</title>
<path fill="none" stroke="#191970" d="M192.8833,-220.4179C176.7159,-211.7001 152.0728,-198.4122 133.449,-188.3699"/>
<polygon fill="#191970" stroke="#191970" points="135.0579,-185.2611 124.5948,-183.5956 131.7356,-191.4225 135.0579,-185.2611"/>
</g>
<!-- Node6 -->
<g id="node7" class="node">
<title>Node6</title>
<g id="a_node7"><a xlink:href="dji__type_8hpp.html" target="_top" xlink:title="Data type and Data Structure definitions for use throughout DJI OSDK.">
<polygon fill="#ffffff" stroke="#000000" points="82.7612,-110.5 82.7612,-128.5 152.6919,-128.5 152.6919,-110.5 82.7612,-110.5"/>
<text text-anchor="middle" x="117.7266" y="-116.5" font-family="Helvetica,sans-Serif" font-size="10.00" fill="#000000">dji_type.hpp</text>
</a>
</g>
</g>
<!-- Node1&#45;&gt;Node6 -->
<g id="edge10" class="edge">
<title>Node1&#45;&gt;Node6</title>
<path fill="none" stroke="#191970" d="M205.4512,-220.1069C199.1961,-206.9517 186.6568,-182.6716 171.7266,-165 162.1125,-153.6207 149.4586,-142.7925 138.8169,-134.5562"/>
<polygon fill="#191970" stroke="#191970" points="140.9089,-131.7502 130.8104,-128.5454 136.7063,-137.3482 140.9089,-131.7502"/>
</g>
<!-- Node8 -->
<g id="node9" class="node">
<title>Node8</title>
<g id="a_node9"><a xlink:href="dji__version_8hpp.html" target="_top" xlink:title="Drone/SDK Version definition for DJI onboardSDK library.">
<polygon fill="#ffffff" stroke="#000000" points="257.0938,-165.5 257.0938,-183.5 340.3594,-183.5 340.3594,-165.5 257.0938,-165.5"/>
<text text-anchor="middle" x="298.7266" y="-171.5" font-family="Helvetica,sans-Serif" font-size="10.00" fill="#000000">dji_version.hpp</text>
</a>
</g>
</g>
<!-- Node1&#45;&gt;Node8 -->
<g id="edge11" class="edge">
<title>Node1&#45;&gt;Node8</title>
<path fill="none" stroke="#191970" d="M224.4231,-220.4179C238.2079,-211.8992 259.0543,-199.0166 275.1614,-189.0627"/>
<polygon fill="#191970" stroke="#191970" points="277.3414,-191.83 284.0082,-183.5956 273.6615,-185.8753 277.3414,-191.83"/>
</g>
<!-- Node10 -->
<g id="node11" class="node">
<title>Node10</title>
<g id="a_node11"><a xlink:title=" ">
<polygon fill="#ffffff" stroke="#bfbfbf" points="0,-165.5 0,-183.5 35.4531,-183.5 35.4531,-165.5 0,-165.5"/>
<text text-anchor="middle" x="17.7266" y="-171.5" font-family="Helvetica,sans-Serif" font-size="10.00" fill="#000000">map</text>
</a>
</g>
</g>
<!-- Node1&#45;&gt;Node10 -->
<g id="edge14" class="edge">
<title>Node1&#45;&gt;Node10</title>
<path fill="none" stroke="#191970" d="M176.4189,-221.236C144.7714,-213.1939 95.6759,-200.228 45.3114,-184.3441"/>
<polygon fill="#191970" stroke="#191970" points="46.1527,-180.9389 35.5621,-181.2372 44.0272,-187.6084 46.1527,-180.9389"/>
</g>
<!-- Node3 -->
<g id="node4" class="node">
<title>Node3</title>
<g id="a_node4"><a xlink:href="dji__error_8hpp.html" target="_top" xlink:title="All DJI OSDK OpenProtocol ACK Error Codes.">
<polygon fill="#ffffff" stroke="#000000" points="174.9287,-55.5 174.9287,-73.5 246.5244,-73.5 246.5244,-55.5 174.9287,-55.5"/>
<text text-anchor="middle" x="210.7266" y="-61.5" font-family="Helvetica,sans-Serif" font-size="10.00" fill="#000000">dji_error.hpp</text>
</a>
</g>
</g>
<!-- Node2&#45;&gt;Node3 -->
<g id="edge3" class="edge">
<title>Node2&#45;&gt;Node3</title>
<path fill="none" stroke="#191970" d="M225.7542,-110.4179C223.3715,-103.1372 219.9455,-92.669 216.9663,-83.5659"/>
<polygon fill="#191970" stroke="#191970" points="220.2003,-82.1948 213.7635,-73.7795 213.5475,-84.3721 220.2003,-82.1948"/>
</g>
<!-- Node4 -->
<g id="node5" class="node">
<title>Node4</title>
<g id="a_node5"><a xlink:title=" ">
<polygon fill="#ffffff" stroke="#bfbfbf" points="186.606,-.5 186.606,-18.5 234.8472,-18.5 234.8472,-.5 186.606,-.5"/>
<text text-anchor="middle" x="210.7266" y="-6.5" font-family="Helvetica,sans-Serif" font-size="10.00" fill="#000000">stdint.h</text>
</a>
</g>
</g>
<!-- Node2&#45;&gt;Node4 -->
<g id="edge5" class="edge">
<title>Node2&#45;&gt;Node4</title>
<path fill="none" stroke="#191970" d="M237.3682,-110.3298C248.0409,-97.8373 263.8482,-74.7616 255.7266,-55 250.8764,-43.1985 241.3216,-32.8287 232.2594,-24.981"/>
<polygon fill="#191970" stroke="#191970" points="234.2094,-22.0576 224.2246,-18.5144 229.8204,-27.5109 234.2094,-22.0576"/>
</g>
<!-- Node3&#45;&gt;Node4 -->
<g id="edge4" class="edge">
<title>Node3&#45;&gt;Node4</title>
<path fill="none" stroke="#191970" d="M210.7266,-55.4179C210.7266,-48.2164 210.7266,-37.8962 210.7266,-28.8632"/>
<polygon fill="#191970" stroke="#191970" points="214.2267,-28.7794 210.7266,-18.7795 207.2267,-28.7795 214.2267,-28.7794"/>
</g>
<!-- Node5&#45;&gt;Node6 -->
<g id="edge7" class="edge">
<title>Node5&#45;&gt;Node6</title>
<path fill="none" stroke="#191970" d="M109.3779,-165.4179C110.6872,-158.2164 112.5636,-147.8962 114.206,-138.8632"/>
<polygon fill="#191970" stroke="#191970" points="117.694,-139.2443 116.0394,-128.7795 110.8069,-137.992 117.694,-139.2443"/>
</g>
<!-- Node6&#45;&gt;Node4 -->
<g id="edge9" class="edge">
<title>Node6&#45;&gt;Node4</title>
<path fill="none" stroke="#191970" d="M112.2066,-110.3527C104.9784,-97.0639 94.4747,-72.1386 105.7266,-55 121.2774,-31.3131 152.0919,-19.8967 176.3354,-14.4305"/>
<polygon fill="#191970" stroke="#191970" points="177.1464,-17.8375 186.2596,-12.4337 175.7656,-10.975 177.1464,-17.8375"/>
</g>
<!-- Node7 -->
<g id="node8" class="node">
<title>Node7</title>
<g id="a_node8"><a xlink:title=" ">
<polygon fill="#ffffff" stroke="#bfbfbf" points="114.665,-55.5 114.665,-73.5 156.7881,-73.5 156.7881,-55.5 114.665,-55.5"/>
<text text-anchor="middle" x="135.7266" y="-61.5" font-family="Helvetica,sans-Serif" font-size="10.00" fill="#000000">cstdio</text>
</a>
</g>
</g>
<!-- Node6&#45;&gt;Node7 -->
<g id="edge8" class="edge">
<title>Node6&#45;&gt;Node7</title>
<path fill="none" stroke="#191970" d="M120.6989,-110.4179C123.0817,-103.1372 126.5076,-92.669 129.4868,-83.5659"/>
<polygon fill="#191970" stroke="#191970" points="132.9056,-84.3721 132.6896,-73.7795 126.2528,-82.1948 132.9056,-84.3721"/>
</g>
<!-- Node8&#45;&gt;Node2 -->
<g id="edge12" class="edge">
<title>Node8&#45;&gt;Node2</title>
<path fill="none" stroke="#191970" d="M287.1675,-165.4179C276.6926,-157.1876 261.0333,-144.8839 248.5602,-135.0836"/>
<polygon fill="#191970" stroke="#191970" points="250.5624,-132.2056 240.5368,-128.7795 246.2376,-137.7098 250.5624,-132.2056"/>
</g>
<!-- Node9 -->
<g id="node10" class="node">
<title>Node9</title>
<g id="a_node10"><a xlink:title=" ">
<polygon fill="#ffffff" stroke="#bfbfbf" points="294.2759,-110.5 294.2759,-128.5 339.1772,-128.5 339.1772,-110.5 294.2759,-110.5"/>
<text text-anchor="middle" x="316.7266" y="-116.5" font-family="Helvetica,sans-Serif" font-size="10.00" fill="#000000">cstdint</text>
</a>
</g>
</g>
<!-- Node8&#45;&gt;Node9 -->
<g id="edge13" class="edge">
<title>Node8&#45;&gt;Node9</title>
<path fill="none" stroke="#191970" d="M301.6989,-165.4179C304.0817,-158.1372 307.5076,-147.669 310.4868,-138.5659"/>
<polygon fill="#191970" stroke="#191970" points="313.9056,-139.3721 313.6896,-128.7795 307.2528,-137.1948 313.9056,-139.3721"/>
</g>
<!-- Node12 -->
<g id="node13" class="node">
<title>Node12</title>
<g id="a_node13"><a xlink:title=" ">
<polygon fill="#ffffff" stroke="#bfbfbf" points="696.5239,-165.5 696.5239,-183.5 782.9292,-183.5 782.9292,-165.5 696.5239,-165.5"/>
<text text-anchor="middle" x="739.7266" y="-171.5" font-family="Helvetica,sans-Serif" font-size="10.00" fill="#000000">dji_memory.hpp</text>
</a>
</g>
</g>
<!-- Node11&#45;&gt;Node12 -->
<g id="edge16" class="edge">
<title>Node11&#45;&gt;Node12</title>
<path fill="none" stroke="#191970" d="M524.2822,-222.1191C527.473,-221.4009 530.6623,-220.685 533.7266,-220 586.5603,-208.19 647.0592,-194.8492 688.7577,-185.6825"/>
<polygon fill="#191970" stroke="#191970" points="689.6582,-189.0682 698.6739,-183.5034 688.1557,-182.2313 689.6582,-189.0682"/>
</g>
<!-- Node13 -->
<g id="node14" class="node">
<title>Node13</title>
<g id="a_node14"><a xlink:title=" ">
<polygon fill="#ffffff" stroke="#bfbfbf" points="358.7612,-165.5 358.7612,-183.5 428.6919,-183.5 428.6919,-165.5 358.7612,-165.5"/>
<text text-anchor="middle" x="393.7266" y="-171.5" font-family="Helvetica,sans-Serif" font-size="10.00" fill="#000000">dji_type.hpp</text>
</a>
</g>
</g>
<!-- Node11&#45;&gt;Node13 -->
<g id="edge17" class="edge">
<title>Node11&#45;&gt;Node13</title>
<path fill="none" stroke="#191970" d="M475.5439,-220.4179C460.0813,-211.7399 436.5498,-198.5334 418.6857,-188.5077"/>
<polygon fill="#191970" stroke="#191970" points="420.3668,-185.4377 409.9333,-183.5956 416.9409,-191.542 420.3668,-185.4377"/>
</g>
<!-- Node14 -->
<g id="node15" class="node">
<title>Node14</title>
<g id="a_node15"><a xlink:title=" ">
<polygon fill="#ffffff" stroke="#bfbfbf" points="446.1973,-165.5 446.1973,-183.5 537.2559,-183.5 537.2559,-165.5 446.1973,-165.5"/>
<text text-anchor="middle" x="491.7266" y="-171.5" font-family="Helvetica,sans-Serif" font-size="10.00" fill="#000000">dji_singleton.hpp</text>
</a>
</g>
</g>
<!-- Node11&#45;&gt;Node14 -->
<g id="edge18" class="edge">
<title>Node11&#45;&gt;Node14</title>
<path fill="none" stroke="#191970" d="M491.7266,-220.4179C491.7266,-213.2164 491.7266,-202.8962 491.7266,-193.8632"/>
<polygon fill="#191970" stroke="#191970" points="495.2267,-193.7794 491.7266,-183.7795 488.2267,-193.7795 495.2267,-193.7794"/>
</g>
<!-- Node15 -->
<g id="node16" class="node">
<title>Node15</title>
<g id="a_node16"><a xlink:title=" ">
<polygon fill="#ffffff" stroke="#bfbfbf" points="554.7935,-165.5 554.7935,-183.5 678.6597,-183.5 678.6597,-165.5 554.7935,-165.5"/>
<text text-anchor="middle" x="616.7266" y="-171.5" font-family="Helvetica,sans-Serif" font-size="10.00" fill="#000000">dji_thread_manager.hpp</text>
</a>
</g>
</g>
<!-- Node11&#45;&gt;Node15 -->
<g id="edge19" class="edge">
<title>Node11&#45;&gt;Node15</title>
<path fill="none" stroke="#191970" d="M512.3678,-220.4179C532.6332,-211.5011 563.7651,-197.803 586.7555,-187.6873"/>
<polygon fill="#191970" stroke="#191970" points="588.3111,-190.8267 596.0547,-183.5956 585.4919,-184.4195 588.3111,-190.8267"/>
</g>
</g>
</svg>
        <g id="navigator" transform="translate(0 0)" fill="#404254">
                <rect fill="#f2f5e9" fill-opacity="0.5" stroke="#606060" stroke-width=".5" x="0" y="0" width="60" height="60"/>
                <use id="zoomplus" xlink:href="#zoomPlus" x="17" y="9" onmousedown="handleZoom(evt,'in')"/>
                <use id="zoomminus" xlink:href="#zoomMin" x="42" y="9" onmousedown="handleZoom(evt,'out')"/>
                <use id="reset" xlink:href="#resetDef" x="30" y="36" onmousedown="handleReset()"/>
                <g id="arrowUp" xlink:href="#dirArrow" transform="translate(30 24)" onmousedown="handlePan(0,-1)">
                  <use xlink:href="#rim" fill="#404040">
                        <set attributeName="fill" to="#808080" begin="arrowUp.mouseover" end="arrowUp.mouseout"/>
                  </use>
                  <path fill="none" stroke="white" stroke-width="1.5" d="M0,-3.0v7 M-2.5,-0.5L0,-3.0L2.5,-0.5"/>
                </g>
                <g id="arrowRight" xlink:href="#dirArrow" transform="rotate(90) translate(36 -43)" onmousedown="handlePan(1,0)">
                  <use xlink:href="#rim" fill="#404040">
                        <set attributeName="fill" to="#808080" begin="arrowRight.mouseover" end="arrowRight.mouseout"/>
                  </use>
                  <path fill="none" stroke="white" stroke-width="1.5" d="M0,-3.0v7 M-2.5,-0.5L0,-3.0L2.5,-0.5"/>
                </g>
                <g id="arrowDown" xlink:href="#dirArrow" transform="rotate(180) translate(-30 -48)" onmousedown="handlePan(0,1)">
                  <use xlink:href="#rim" fill="#404040">
                        <set attributeName="fill" to="#808080" begin="arrowDown.mouseover" end="arrowDown.mouseout"/>
                  </use>
                  <path fill="none" stroke="white" stroke-width="1.5" d="M0,-3.0v7 M-2.5,-0.5L0,-3.0L2.5,-0.5"/>
                </g>
                <g id="arrowLeft" xlink:href="#dirArrow" transform="rotate(270) translate(-36 17)" onmousedown="handlePan(-1,0)">
                  <use xlink:href="#rim" fill="#404040">
                        <set attributeName="fill" to="#808080" begin="arrowLeft.mouseover" end="arrowLeft.mouseout"/>
                  </use>
                  <path fill="none" stroke="white" stroke-width="1.5" d="M0,-3.0v7 M-2.5,-0.5L0,-3.0L2.5,-0.5"/>
                </g>
        </g>
        <svg viewBox="0 0 15 15" width="100%" height="30px" preserveAspectRatio="xMaxYMin meet">
         <g id="arrow_out" transform="scale(0.3 0.3)">
          <a xlink:href="dji__ack_8cpp__incl_org.svg" target="_base">
           <rect id="button" ry="5" rx="5" y="6" x="6" height="38" width="38"
                fill="#f2f5e9" fill-opacity="0.5" stroke="#606060" stroke-width="1.0"/>
           <path id="arrow"
             d="M 11.500037,31.436501 C 11.940474,20.09759 22.043105,11.32322 32.158766,21.979434 L 37.068811,17.246167 C 37.068811,17.246167 37.088388,32 37.088388,32 L 22.160133,31.978069 C 22.160133,31.978069 26.997745,27.140456 26.997745,27.140456 C 18.528582,18.264221 13.291696,25.230495 11.500037,31.436501 z"
             style="fill:#404040;"/>
          </a>
         </g>
        </svg>
</svg>
