<?xml version="1.0" encoding="UTF-8" standalone="no"?>
<!DOCTYPE svg PUBLIC "-//W3C//DTD SVG 1.1//EN"
 "http://www.w3.org/Graphics/SVG/1.1/DTD/svg11.dtd">
<!-- Generated by graphviz version 2.40.1 (20161225.0304)
 -->
<!-- Title: osdk&#45;core/api/inc/dji_waypoint.hpp Pages: 1 -->
<svg width="362pt" height="257pt"
 viewBox="0.00 0.00 361.72 257.00" xmlns="http://www.w3.org/2000/svg" xmlns:xlink="http://www.w3.org/1999/xlink">
<g id="graph0" class="graph" transform="scale(1 1) rotate(0) translate(4 253)">
<title>osdk&#45;core/api/inc/dji_waypoint.hpp</title>
<polygon fill="#ffffff" stroke="transparent" points="-4,4 -4,-253 357.7212,-253 357.7212,4 -4,4"/>
<!-- Node0 -->
<g id="node1" class="node">
<title>Node0</title>
<g id="a_node1"><a xlink:title="Implementation of GPS Waypoint Missions for DJI OSDK.">
<polygon fill="#bfbfbf" stroke="#000000" points="124.6108,-220.5 124.6108,-248.5 228.9849,-248.5 228.9849,-220.5 124.6108,-220.5"/>
<text text-anchor="start" x="132.6108" y="-236.5" font-family="Helvetica,sans-Serif" font-size="10.00" fill="#000000">osdk&#45;core/api/inc/dji</text>
<text text-anchor="middle" x="176.7979" y="-226.5" font-family="Helvetica,sans-Serif" font-size="10.00" fill="#000000">_waypoint.hpp</text>
</a>
</g>
</g>
<!-- Node1 -->
<g id="node2" class="node">
<title>Node1</title>
<g id="a_node2"><a xlink:href="dji__mission__base_8hpp.html" target="_top" xlink:title="Mission&#45;Base abstract class for DJI OSDK library.">
<polygon fill="#ffffff" stroke="#000000" points="120.7119,-165.5 120.7119,-183.5 232.8838,-183.5 232.8838,-165.5 120.7119,-165.5"/>
<text text-anchor="middle" x="176.7979" y="-171.5" font-family="Helvetica,sans-Serif" font-size="10.00" fill="#000000">dji_mission_base.hpp</text>
</a>
</g>
</g>
<!-- Node0&#45;&gt;Node1 -->
<g id="edge1" class="edge">
<title>Node0&#45;&gt;Node1</title>
<path fill="none" stroke="#191970" d="M176.7979,-220.2808C176.7979,-212.3776 176.7979,-202.4316 176.7979,-193.8308"/>
<polygon fill="#191970" stroke="#191970" points="180.2979,-193.5842 176.7979,-183.5842 173.2979,-193.5842 180.2979,-193.5842"/>
</g>
<!-- Node2 -->
<g id="node3" class="node">
<title>Node2</title>
<g id="a_node3"><a xlink:href="dji__command_8hpp.html" target="_top" xlink:title="All DJI OSDK OpenProtocol Command IDs.">
<polygon fill="#ffffff" stroke="#000000" points="29.3301,-110.5 29.3301,-128.5 124.2656,-128.5 124.2656,-110.5 29.3301,-110.5"/>
<text text-anchor="middle" x="76.7979" y="-116.5" font-family="Helvetica,sans-Serif" font-size="10.00" fill="#000000">dji_command.hpp</text>
</a>
</g>
</g>
<!-- Node1&#45;&gt;Node2 -->
<g id="edge2" class="edge">
<title>Node1&#45;&gt;Node2</title>
<path fill="none" stroke="#191970" d="M160.2849,-165.4179C144.5068,-156.7399 120.495,-143.5334 102.2664,-133.5077"/>
<polygon fill="#191970" stroke="#191970" points="103.7843,-130.3481 93.3353,-128.5956 100.4108,-136.4816 103.7843,-130.3481"/>
</g>
<!-- Node5 -->
<g id="node6" class="node">
<title>Node5</title>
<g id="a_node6"><a xlink:href="dji__type_8hpp.html" target="_top" xlink:title="Data type and Data Structure definitions for use throughout DJI OSDK.">
<polygon fill="#ffffff" stroke="#000000" points="141.8325,-110.5 141.8325,-128.5 211.7632,-128.5 211.7632,-110.5 141.8325,-110.5"/>
<text text-anchor="middle" x="176.7979" y="-116.5" font-family="Helvetica,sans-Serif" font-size="10.00" fill="#000000">dji_type.hpp</text>
</a>
</g>
</g>
<!-- Node1&#45;&gt;Node5 -->
<g id="edge6" class="edge">
<title>Node1&#45;&gt;Node5</title>
<path fill="none" stroke="#191970" d="M176.7979,-165.4179C176.7979,-158.2164 176.7979,-147.8962 176.7979,-138.8632"/>
<polygon fill="#191970" stroke="#191970" points="180.298,-138.7794 176.7979,-128.7795 173.298,-138.7795 180.298,-138.7794"/>
</g>
<!-- Node7 -->
<g id="node8" class="node">
<title>Node7</title>
<g id="a_node8"><a xlink:href="dji__vehicle__callback_8hpp.html" target="_top" xlink:title="Type definition for new Vehicle&#45;style callbacks.">
<polygon fill="#ffffff" stroke="#000000" points="229.8745,-110.5 229.8745,-128.5 353.7212,-128.5 353.7212,-110.5 229.8745,-110.5"/>
<text text-anchor="middle" x="291.7979" y="-116.5" font-family="Helvetica,sans-Serif" font-size="10.00" fill="#000000">dji_vehicle_callback.hpp</text>
</a>
</g>
</g>
<!-- Node1&#45;&gt;Node7 -->
<g id="edge9" class="edge">
<title>Node1&#45;&gt;Node7</title>
<path fill="none" stroke="#191970" d="M195.7878,-165.4179C214.2655,-156.5807 242.5626,-143.0473 263.6562,-132.9591"/>
<polygon fill="#191970" stroke="#191970" points="265.2685,-136.0677 272.7797,-128.5956 262.2483,-129.7528 265.2685,-136.0677"/>
</g>
<!-- Node3 -->
<g id="node4" class="node">
<title>Node3</title>
<g id="a_node4"><a xlink:href="dji__error_8hpp.html" target="_top" xlink:title="All DJI OSDK OpenProtocol ACK Error Codes.">
<polygon fill="#ffffff" stroke="#000000" points="0,-55.5 0,-73.5 71.5957,-73.5 71.5957,-55.5 0,-55.5"/>
<text text-anchor="middle" x="35.7979" y="-61.5" font-family="Helvetica,sans-Serif" font-size="10.00" fill="#000000">dji_error.hpp</text>
</a>
</g>
</g>
<!-- Node2&#45;&gt;Node3 -->
<g id="edge3" class="edge">
<title>Node2&#45;&gt;Node3</title>
<path fill="none" stroke="#191970" d="M70.0275,-110.4179C64.2462,-102.6624 55.7686,-91.29 48.6968,-81.8035"/>
<polygon fill="#191970" stroke="#191970" points="51.4981,-79.7051 42.7153,-73.7795 45.8858,-83.8888 51.4981,-79.7051"/>
</g>
<!-- Node4 -->
<g id="node5" class="node">
<title>Node4</title>
<g id="a_node5"><a xlink:title=" ">
<polygon fill="#ffffff" stroke="#bfbfbf" points="75.6772,-.5 75.6772,-18.5 123.9185,-18.5 123.9185,-.5 75.6772,-.5"/>
<text text-anchor="middle" x="99.7979" y="-6.5" font-family="Helvetica,sans-Serif" font-size="10.00" fill="#000000">stdint.h</text>
</a>
</g>
</g>
<!-- Node2&#45;&gt;Node4 -->
<g id="edge5" class="edge">
<title>Node2&#45;&gt;Node4</title>
<path fill="none" stroke="#191970" d="M78.68,-110.4982C82.4033,-92.6913 90.7813,-52.6225 95.7935,-28.6515"/>
<polygon fill="#191970" stroke="#191970" points="99.2688,-29.1308 97.8897,-18.6261 92.417,-27.6981 99.2688,-29.1308"/>
</g>
<!-- Node3&#45;&gt;Node4 -->
<g id="edge4" class="edge">
<title>Node3&#45;&gt;Node4</title>
<path fill="none" stroke="#191970" d="M46.3661,-55.4179C55.8511,-47.2667 69.9853,-35.1201 81.3345,-25.3669"/>
<polygon fill="#191970" stroke="#191970" points="83.6969,-27.9516 88.9999,-18.7795 79.1345,-22.6427 83.6969,-27.9516"/>
</g>
<!-- Node5&#45;&gt;Node4 -->
<g id="edge8" class="edge">
<title>Node5&#45;&gt;Node4</title>
<path fill="none" stroke="#191970" d="M170.4966,-110.4982C157.7498,-92.2885 128.7065,-50.798 112.0826,-27.0496"/>
<polygon fill="#191970" stroke="#191970" points="114.7881,-24.8113 106.1862,-18.6261 109.0535,-28.8256 114.7881,-24.8113"/>
</g>
<!-- Node6 -->
<g id="node7" class="node">
<title>Node6</title>
<g id="a_node7"><a xlink:title=" ">
<polygon fill="#ffffff" stroke="#bfbfbf" points="165.7363,-55.5 165.7363,-73.5 207.8594,-73.5 207.8594,-55.5 165.7363,-55.5"/>
<text text-anchor="middle" x="186.7979" y="-61.5" font-family="Helvetica,sans-Serif" font-size="10.00" fill="#000000">cstdio</text>
</a>
</g>
</g>
<!-- Node5&#45;&gt;Node6 -->
<g id="edge7" class="edge">
<title>Node5&#45;&gt;Node6</title>
<path fill="none" stroke="#191970" d="M178.4491,-110.4179C179.7585,-103.2164 181.6349,-92.8962 183.2773,-83.8632"/>
<polygon fill="#191970" stroke="#191970" points="186.7653,-84.2443 185.1107,-73.7795 179.8782,-82.992 186.7653,-84.2443"/>
</g>
<!-- Node8 -->
<g id="node9" class="node">
<title>Node8</title>
<g id="a_node9"><a xlink:title=" ">
<polygon fill="#ffffff" stroke="#bfbfbf" points="234.5913,-55.5 234.5913,-73.5 349.0044,-73.5 349.0044,-55.5 234.5913,-55.5"/>
<text text-anchor="middle" x="291.7979" y="-61.5" font-family="Helvetica,sans-Serif" font-size="10.00" fill="#000000">dji_open_protocol.hpp</text>
</a>
</g>
</g>
<!-- Node7&#45;&gt;Node8 -->
<g id="edge10" class="edge">
<title>Node7&#45;&gt;Node8</title>
<path fill="none" stroke="#191970" d="M291.7979,-110.4179C291.7979,-103.2164 291.7979,-92.8962 291.7979,-83.8632"/>
<polygon fill="#191970" stroke="#191970" points="295.298,-83.7794 291.7979,-73.7795 288.298,-83.7795 295.298,-83.7794"/>
</g>
</g>
</svg>
