<?xml version="1.0" encoding="UTF-8" standalone="no"?>
<!DOCTYPE svg PUBLIC "-//W3C//DTD SVG 1.1//EN"
 "http://www.w3.org/Graphics/SVG/1.1/DTD/svg11.dtd">
<!-- Generated by graphviz version 2.40.1 (20161225.0304)
 -->
<!-- Title: Graphical Class Hierarchy Pages: 1 -->
<svg width="317pt" height="64pt"
 viewBox="0.00 0.00 316.81 64.00" xmlns="http://www.w3.org/2000/svg" xmlns:xlink="http://www.w3.org/1999/xlink">
<g id="graph0" class="graph" transform="scale(1 1) rotate(0) translate(4 60)">
<title>Graphical Class Hierarchy</title>
<polygon fill="#ffffff" stroke="transparent" points="-4,4 -4,-60 312.8105,-60 312.8105,4 -4,4"/>
<!-- Node0 -->
<g id="node1" class="node">
<title>Node0</title>
<g id="a_node1"><a xlink:href="classDJI_1_1OSDK_1_1MissionBase.html" target="_top" xlink:title="Mission Base class for commonality between SDK Missions.">
<polygon fill="#ffffff" stroke="#000000" points="0,-18.5 0,-36.5 127.1426,-36.5 127.1426,-18.5 0,-18.5"/>
<text text-anchor="middle" x="63.5713" y="-24.5" font-family="Helvetica,sans-Serif" font-size="10.00" fill="#000000">DJI::OSDK::MissionBase</text>
</a>
</g>
</g>
<!-- Node1 -->
<g id="node2" class="node">
<title>Node1</title>
<g id="a_node2"><a xlink:href="classDJI_1_1OSDK_1_1HotpointMission.html" target="_top" xlink:title="APIs for Hotpoint (Point of Interest) Missions.">
<polygon fill="#ffffff" stroke="#000000" points="165.1787,-37.5 165.1787,-55.5 306.7744,-55.5 306.7744,-37.5 165.1787,-37.5"/>
<text text-anchor="middle" x="235.9766" y="-43.5" font-family="Helvetica,sans-Serif" font-size="10.00" fill="#000000">DJI::OSDK::HotpointMission</text>
</a>
</g>
</g>
<!-- Node0&#45;&gt;Node1 -->
<g id="edge1" class="edge">
<title>Node0&#45;&gt;Node1</title>
<path fill="none" stroke="#191970" d="M137.475,-35.6446C146.5964,-36.6498 155.9053,-37.6757 164.9819,-38.676"/>
<polygon fill="#191970" stroke="#191970" points="137.6021,-32.1375 127.2788,-34.5209 136.8352,-39.0954 137.6021,-32.1375"/>
</g>
<!-- Node2 -->
<g id="node3" class="node">
<title>Node2</title>
<g id="a_node3"><a xlink:href="classDJI_1_1OSDK_1_1WaypointMission.html" target="_top" xlink:title="APIs for GPS Waypoint Missions.">
<polygon fill="#ffffff" stroke="#000000" points="163.1426,-.5 163.1426,-18.5 308.8105,-18.5 308.8105,-.5 163.1426,-.5"/>
<text text-anchor="middle" x="235.9766" y="-6.5" font-family="Helvetica,sans-Serif" font-size="10.00" fill="#000000">DJI::OSDK::WaypointMission</text>
</a>
</g>
</g>
<!-- Node0&#45;&gt;Node2 -->
<g id="edge2" class="edge">
<title>Node0&#45;&gt;Node2</title>
<path fill="none" stroke="#191970" d="M137.4681,-19.7848C145.9051,-18.9039 154.5027,-18.0063 162.9286,-17.1266"/>
<polygon fill="#191970" stroke="#191970" points="136.8613,-16.329 127.2788,-20.8486 137.5882,-23.2912 136.8613,-16.329"/>
</g>
</g>
</svg>
