<?xml version="1.0" encoding="UTF-8" standalone="no"?>
<!DOCTYPE svg PUBLIC "-//W3C//DTD SVG 1.1//EN"
 "http://www.w3.org/Graphics/SVG/1.1/DTD/svg11.dtd">
<!-- Generated by graphviz version 2.40.1 (20161225.0304)
 -->
<!-- Title: osdk&#45;core/platform/linux/src/linux_serial_device.cpp Pages: 1 -->
<svg width="464pt" height="157pt"
 viewBox="0.00 0.00 464.26 157.00" xmlns="http://www.w3.org/2000/svg" xmlns:xlink="http://www.w3.org/1999/xlink">
<g id="graph0" class="graph" transform="scale(1 1) rotate(0) translate(4 153)">
<title>osdk&#45;core/platform/linux/src/linux_serial_device.cpp</title>
<polygon fill="#ffffff" stroke="transparent" points="-4,4 -4,-153 460.2583,-153 460.2583,4 -4,4"/>
<!-- Node0 -->
<g id="node1" class="node">
<title>Node0</title>
<g id="a_node1"><a xlink:title="Serial device hardware implementation for Linux machines. This is a generic Linux serial device imple...">
<polygon fill="#bfbfbf" stroke="#000000" points="241.5986,-110.5 241.5986,-148.5 349.8545,-148.5 349.8545,-110.5 241.5986,-110.5"/>
<text text-anchor="start" x="249.5986" y="-136.5" font-family="Helvetica,sans-Serif" font-size="10.00" fill="#000000">osdk&#45;core/platform</text>
<text text-anchor="start" x="249.5986" y="-126.5" font-family="Helvetica,sans-Serif" font-size="10.00" fill="#000000">/linux/src/linux_serial</text>
<text text-anchor="middle" x="295.7266" y="-116.5" font-family="Helvetica,sans-Serif" font-size="10.00" fill="#000000">_device.cpp</text>
</a>
</g>
</g>
<!-- Node1 -->
<g id="node2" class="node">
<title>Node1</title>
<g id="a_node2"><a xlink:href="linux__serial__device_8hpp.html" target="_top" xlink:title="Serial device hardware implementation for *NIX machines.">
<polygon fill="#ffffff" stroke="#000000" points="128.749,-55.5 128.749,-73.5 248.7041,-73.5 248.7041,-55.5 128.749,-55.5"/>
<text text-anchor="middle" x="188.7266" y="-61.5" font-family="Helvetica,sans-Serif" font-size="10.00" fill="#000000">linux_serial_device.hpp</text>
</a>
</g>
</g>
<!-- Node0&#45;&gt;Node1 -->
<g id="edge1" class="edge">
<title>Node0&#45;&gt;Node1</title>
<path fill="none" stroke="#191970" d="M264.2018,-110.3494C247.6616,-100.3016 227.7296,-88.1934 212.5032,-78.9437"/>
<polygon fill="#191970" stroke="#191970" points="214.0668,-75.7984 203.703,-73.5978 210.4325,-81.7811 214.0668,-75.7984"/>
</g>
<!-- Node8 -->
<g id="node9" class="node">
<title>Node8</title>
<g id="a_node9"><a xlink:title=" ">
<polygon fill="#ffffff" stroke="#bfbfbf" points="267.1626,-55.5 267.1626,-73.5 324.2905,-73.5 324.2905,-55.5 267.1626,-55.5"/>
<text text-anchor="middle" x="295.7266" y="-61.5" font-family="Helvetica,sans-Serif" font-size="10.00" fill="#000000">algorithm</text>
</a>
</g>
</g>
<!-- Node0&#45;&gt;Node8 -->
<g id="edge8" class="edge">
<title>Node0&#45;&gt;Node8</title>
<path fill="none" stroke="#191970" d="M295.7266,-110.3494C295.7266,-102.0079 295.7266,-92.2463 295.7266,-83.879"/>
<polygon fill="#191970" stroke="#191970" points="299.2267,-83.5978 295.7266,-73.5978 292.2267,-83.5979 299.2267,-83.5978"/>
</g>
<!-- Node9 -->
<g id="node10" class="node">
<title>Node9</title>
<g id="a_node10"><a xlink:title=" ">
<polygon fill="#ffffff" stroke="#bfbfbf" points="342.165,-55.5 342.165,-73.5 389.2881,-73.5 389.2881,-55.5 342.165,-55.5"/>
<text text-anchor="middle" x="365.7266" y="-61.5" font-family="Helvetica,sans-Serif" font-size="10.00" fill="#000000">iterator</text>
</a>
</g>
</g>
<!-- Node0&#45;&gt;Node9 -->
<g id="edge9" class="edge">
<title>Node0&#45;&gt;Node9</title>
<path fill="none" stroke="#191970" d="M316.3503,-110.3494C326.5585,-100.8704 338.7415,-89.5576 348.4516,-80.541"/>
<polygon fill="#191970" stroke="#191970" points="350.9825,-82.9672 355.9289,-73.5978 346.2193,-77.8376 350.9825,-82.9672"/>
</g>
<!-- Node2 -->
<g id="node3" class="node">
<title>Node2</title>
<g id="a_node3"><a xlink:title=" ">
<polygon fill="#ffffff" stroke="#bfbfbf" points="0,-.5 0,-18.5 45.4531,-18.5 45.4531,-.5 0,-.5"/>
<text text-anchor="middle" x="22.7266" y="-6.5" font-family="Helvetica,sans-Serif" font-size="10.00" fill="#000000">cstring</text>
</a>
</g>
</g>
<!-- Node1&#45;&gt;Node2 -->
<g id="edge2" class="edge">
<title>Node1&#45;&gt;Node2</title>
<path fill="none" stroke="#191970" d="M161.315,-55.4179C132.2752,-45.7962 86.4331,-30.6076 55.503,-20.3597"/>
<polygon fill="#191970" stroke="#191970" points="56.2245,-16.9117 45.6311,-17.0889 54.0229,-23.5564 56.2245,-16.9117"/>
</g>
<!-- Node3 -->
<g id="node4" class="node">
<title>Node3</title>
<g id="a_node4"><a xlink:title=" ">
<polygon fill="#ffffff" stroke="#bfbfbf" points="63.3867,-.5 63.3867,-18.5 106.0664,-18.5 106.0664,-.5 63.3867,-.5"/>
<text text-anchor="middle" x="84.7266" y="-6.5" font-family="Helvetica,sans-Serif" font-size="10.00" fill="#000000">fcntl.h</text>
</a>
</g>
</g>
<!-- Node1&#45;&gt;Node3 -->
<g id="edge3" class="edge">
<title>Node1&#45;&gt;Node3</title>
<path fill="none" stroke="#191970" d="M171.5531,-55.4179C155.0686,-46.7001 129.9423,-33.4122 110.9533,-23.3699"/>
<polygon fill="#191970" stroke="#191970" points="112.4018,-20.1767 101.9256,-18.5956 109.1293,-26.3646 112.4018,-20.1767"/>
</g>
<!-- Node4 -->
<g id="node5" class="node">
<title>Node4</title>
<g id="a_node5"><a xlink:title=" ">
<polygon fill="#ffffff" stroke="#bfbfbf" points="124.165,-.5 124.165,-18.5 181.2881,-18.5 181.2881,-.5 124.165,-.5"/>
<text text-anchor="middle" x="152.7266" y="-6.5" font-family="Helvetica,sans-Serif" font-size="10.00" fill="#000000">termios.h</text>
</a>
</g>
</g>
<!-- Node1&#45;&gt;Node4 -->
<g id="edge4" class="edge">
<title>Node1&#45;&gt;Node4</title>
<path fill="none" stroke="#191970" d="M182.7819,-55.4179C177.8092,-47.8207 170.5647,-36.7527 164.4342,-27.3866"/>
<polygon fill="#191970" stroke="#191970" points="167.2055,-25.2297 158.8004,-18.7795 161.3486,-29.0633 167.2055,-25.2297"/>
</g>
<!-- Node5 -->
<g id="node6" class="node">
<title>Node5</title>
<g id="a_node6"><a xlink:title=" ">
<polygon fill="#ffffff" stroke="#bfbfbf" points="199.2144,-.5 199.2144,-18.5 250.2388,-18.5 250.2388,-.5 199.2144,-.5"/>
<text text-anchor="middle" x="224.7266" y="-6.5" font-family="Helvetica,sans-Serif" font-size="10.00" fill="#000000">unistd.h</text>
</a>
</g>
</g>
<!-- Node1&#45;&gt;Node5 -->
<g id="edge5" class="edge">
<title>Node1&#45;&gt;Node5</title>
<path fill="none" stroke="#191970" d="M194.6712,-55.4179C199.6439,-47.8207 206.8885,-36.7527 213.019,-27.3866"/>
<polygon fill="#191970" stroke="#191970" points="216.1046,-29.0633 218.6527,-18.7795 210.2476,-25.2297 216.1046,-29.0633"/>
</g>
<!-- Node6 -->
<g id="node7" class="node">
<title>Node6</title>
<g id="a_node7"><a xlink:title=" ">
<polygon fill="#ffffff" stroke="#bfbfbf" points="268.606,-.5 268.606,-18.5 336.8472,-18.5 336.8472,-.5 268.606,-.5"/>
<text text-anchor="middle" x="302.7266" y="-6.5" font-family="Helvetica,sans-Serif" font-size="10.00" fill="#000000">sys/select.h</text>
</a>
</g>
</g>
<!-- Node1&#45;&gt;Node6 -->
<g id="edge6" class="edge">
<title>Node1&#45;&gt;Node6</title>
<path fill="none" stroke="#191970" d="M207.5513,-55.4179C225.8684,-46.5807 253.9195,-33.0473 274.8296,-22.9591"/>
<polygon fill="#191970" stroke="#191970" points="276.3881,-26.0933 283.8738,-18.5956 273.3464,-19.7887 276.3881,-26.0933"/>
</g>
<!-- Node7 -->
<g id="node8" class="node">
<title>Node7</title>
<g id="a_node8"><a xlink:title=" ">
<polygon fill="#ffffff" stroke="#bfbfbf" points="355.1948,-.5 355.1948,-18.5 456.2583,-18.5 456.2583,-.5 355.1948,-.5"/>
<text text-anchor="middle" x="405.7266" y="-6.5" font-family="Helvetica,sans-Serif" font-size="10.00" fill="#000000">dji_hard_driver.hpp</text>
</a>
</g>
</g>
<!-- Node1&#45;&gt;Node7 -->
<g id="edge7" class="edge">
<title>Node1&#45;&gt;Node7</title>
<path fill="none" stroke="#191970" d="M224.5597,-55.4179C261.7361,-45.9953 319.9776,-31.2336 360.3464,-21.0019"/>
<polygon fill="#191970" stroke="#191970" points="361.3673,-24.3539 370.2009,-18.5042 359.6474,-17.5684 361.3673,-24.3539"/>
</g>
</g>
</svg>
