<?xml version="1.0" encoding="UTF-8" standalone="no"?>
<!DOCTYPE svg PUBLIC "-//W3C//DTD SVG 1.1//EN"
 "http://www.w3.org/Graphics/SVG/1.1/DTD/svg11.dtd">
<!-- Generated by graphviz version 2.40.1 (20161225.0304)
 -->
<!-- Title: osdk&#45;core/platform/linux/inc/linux_serial_device.hpp Pages: 1 -->
<svg width="464pt" height="102pt"
 viewBox="0.00 0.00 464.26 102.00" xmlns="http://www.w3.org/2000/svg" xmlns:xlink="http://www.w3.org/1999/xlink">
<g id="graph0" class="graph" transform="scale(1 1) rotate(0) translate(4 98)">
<title>osdk&#45;core/platform/linux/inc/linux_serial_device.hpp</title>
<polygon fill="#ffffff" stroke="transparent" points="-4,4 -4,-98 460.2583,-98 460.2583,4 -4,4"/>
<!-- Node0 -->
<g id="node1" class="node">
<title>Node0</title>
<g id="a_node1"><a xlink:title="Serial device hardware implementation for *NIX machines.">
<polygon fill="#bfbfbf" stroke="#000000" points="134.8721,-55.5 134.8721,-93.5 242.5811,-93.5 242.5811,-55.5 134.8721,-55.5"/>
<text text-anchor="start" x="142.8721" y="-81.5" font-family="Helvetica,sans-Serif" font-size="10.00" fill="#000000">osdk&#45;core/platform</text>
<text text-anchor="start" x="142.8721" y="-71.5" font-family="Helvetica,sans-Serif" font-size="10.00" fill="#000000">/linux/inc/linux_serial</text>
<text text-anchor="middle" x="188.7266" y="-61.5" font-family="Helvetica,sans-Serif" font-size="10.00" fill="#000000">_device.hpp</text>
</a>
</g>
</g>
<!-- Node1 -->
<g id="node2" class="node">
<title>Node1</title>
<g id="a_node2"><a xlink:title=" ">
<polygon fill="#ffffff" stroke="#bfbfbf" points="0,-.5 0,-18.5 45.4531,-18.5 45.4531,-.5 0,-.5"/>
<text text-anchor="middle" x="22.7266" y="-6.5" font-family="Helvetica,sans-Serif" font-size="10.00" fill="#000000">cstring</text>
</a>
</g>
</g>
<!-- Node0&#45;&gt;Node1 -->
<g id="edge1" class="edge">
<title>Node0&#45;&gt;Node1</title>
<path fill="none" stroke="#191970" d="M139.8189,-55.3494C112.4168,-44.6197 79.0142,-31.5403 54.9086,-22.1014"/>
<polygon fill="#191970" stroke="#191970" points="56.1021,-18.81 45.5143,-18.4229 53.5498,-25.3282 56.1021,-18.81"/>
</g>
<!-- Node2 -->
<g id="node3" class="node">
<title>Node2</title>
<g id="a_node3"><a xlink:title=" ">
<polygon fill="#ffffff" stroke="#bfbfbf" points="63.3867,-.5 63.3867,-18.5 106.0664,-18.5 106.0664,-.5 63.3867,-.5"/>
<text text-anchor="middle" x="84.7266" y="-6.5" font-family="Helvetica,sans-Serif" font-size="10.00" fill="#000000">fcntl.h</text>
</a>
</g>
</g>
<!-- Node0&#45;&gt;Node2 -->
<g id="edge2" class="edge">
<title>Node0&#45;&gt;Node2</title>
<path fill="none" stroke="#191970" d="M158.0856,-55.3494C142.0092,-45.3016 122.6361,-33.1934 107.8365,-23.9437"/>
<polygon fill="#191970" stroke="#191970" points="109.6181,-20.9299 99.2831,-18.5978 105.9081,-26.8659 109.6181,-20.9299"/>
</g>
<!-- Node3 -->
<g id="node4" class="node">
<title>Node3</title>
<g id="a_node4"><a xlink:title=" ">
<polygon fill="#ffffff" stroke="#bfbfbf" points="124.165,-.5 124.165,-18.5 181.2881,-18.5 181.2881,-.5 124.165,-.5"/>
<text text-anchor="middle" x="152.7266" y="-6.5" font-family="Helvetica,sans-Serif" font-size="10.00" fill="#000000">termios.h</text>
</a>
</g>
</g>
<!-- Node0&#45;&gt;Node3 -->
<g id="edge3" class="edge">
<title>Node0&#45;&gt;Node3</title>
<path fill="none" stroke="#191970" d="M178.1201,-55.3494C173.2377,-46.5339 167.4768,-36.1324 162.6774,-27.4668"/>
<polygon fill="#191970" stroke="#191970" points="165.6722,-25.65 157.7654,-18.5978 159.5486,-29.0415 165.6722,-25.65"/>
</g>
<!-- Node4 -->
<g id="node5" class="node">
<title>Node4</title>
<g id="a_node5"><a xlink:title=" ">
<polygon fill="#ffffff" stroke="#bfbfbf" points="199.2144,-.5 199.2144,-18.5 250.2388,-18.5 250.2388,-.5 199.2144,-.5"/>
<text text-anchor="middle" x="224.7266" y="-6.5" font-family="Helvetica,sans-Serif" font-size="10.00" fill="#000000">unistd.h</text>
</a>
</g>
</g>
<!-- Node0&#45;&gt;Node4 -->
<g id="edge4" class="edge">
<title>Node0&#45;&gt;Node4</title>
<path fill="none" stroke="#191970" d="M199.333,-55.3494C204.2155,-46.5339 209.9763,-36.1324 214.7757,-27.4668"/>
<polygon fill="#191970" stroke="#191970" points="217.9045,-29.0415 219.6878,-18.5978 211.7809,-25.65 217.9045,-29.0415"/>
</g>
<!-- Node5 -->
<g id="node6" class="node">
<title>Node5</title>
<g id="a_node6"><a xlink:title=" ">
<polygon fill="#ffffff" stroke="#bfbfbf" points="268.606,-.5 268.606,-18.5 336.8472,-18.5 336.8472,-.5 268.606,-.5"/>
<text text-anchor="middle" x="302.7266" y="-6.5" font-family="Helvetica,sans-Serif" font-size="10.00" fill="#000000">sys/select.h</text>
</a>
</g>
</g>
<!-- Node0&#45;&gt;Node5 -->
<g id="edge5" class="edge">
<title>Node0&#45;&gt;Node5</title>
<path fill="none" stroke="#191970" d="M222.3137,-55.3494C240.1022,-45.2069 261.5729,-32.9648 277.8523,-23.6827"/>
<polygon fill="#191970" stroke="#191970" points="279.8168,-26.5916 286.7703,-18.5978 276.3496,-20.5106 279.8168,-26.5916"/>
</g>
<!-- Node6 -->
<g id="node7" class="node">
<title>Node6</title>
<g id="a_node7"><a xlink:title=" ">
<polygon fill="#ffffff" stroke="#bfbfbf" points="355.1948,-.5 355.1948,-18.5 456.2583,-18.5 456.2583,-.5 355.1948,-.5"/>
<text text-anchor="middle" x="405.7266" y="-6.5" font-family="Helvetica,sans-Serif" font-size="10.00" fill="#000000">dji_hard_driver.hpp</text>
</a>
</g>
</g>
<!-- Node0&#45;&gt;Node6 -->
<g id="edge6" class="edge">
<title>Node0&#45;&gt;Node6</title>
<path fill="none" stroke="#191970" d="M242.6458,-58.3491C280.8036,-46.9193 331.1395,-31.8417 365.741,-21.4772"/>
<polygon fill="#191970" stroke="#191970" points="366.9259,-24.776 375.501,-18.5537 364.9172,-18.0704 366.9259,-24.776"/>
</g>
</g>
</svg>
