<?xml version="1.0" encoding="UTF-8" standalone="no"?>
<!DOCTYPE svg PUBLIC "-//W3C//DTD SVG 1.1//EN"
 "http://www.w3.org/Graphics/SVG/1.1/DTD/svg11.dtd">
<!-- Generated by graphviz version 2.38.0 (20140413.2041)
 -->
<!-- Title: osdk&#45;core/advanced&#45;sensing&#45;2.0.0/inc/linux_usb_device.hpp Pages: 1 -->
<svg width="445pt" height="106pt"
 viewBox="0.00 0.00 445.00 106.00" xmlns="http://www.w3.org/2000/svg" xmlns:xlink="http://www.w3.org/1999/xlink">
<g id="graph0" class="graph" transform="scale(1 1) rotate(0) translate(4 102)">
<title>osdk&#45;core/advanced&#45;sensing&#45;2.0.0/inc/linux_usb_device.hpp</title>
<polygon fill="white" stroke="none" points="-4,4 -4,-102 441,-102 441,4 -4,4"/>
<!-- Node1 -->
<g id="node1" class="node"><title>Node1</title>
<polygon fill="#bfbfbf" stroke="black" points="132.5,-56.5 132.5,-97.5 249.5,-97.5 249.5,-56.5 132.5,-56.5"/>
<text text-anchor="start" x="140.5" y="-85.5" font-family="Helvetica,sans-Serif" font-size="10.00">osdk&#45;core/advanced</text>
<text text-anchor="start" x="140.5" y="-74.5" font-family="Helvetica,sans-Serif" font-size="10.00">&#45;sensing&#45;2.0.0/inc/linux</text>
<text text-anchor="middle" x="191" y="-63.5" font-family="Helvetica,sans-Serif" font-size="10.00">_usb_device.hpp</text>
</g>
<!-- Node2 -->
<g id="node2" class="node"><title>Node2</title>
<polygon fill="white" stroke="#bfbfbf" points="0,-0.5 0,-19.5 46,-19.5 46,-0.5 0,-0.5"/>
<text text-anchor="middle" x="23" y="-7.5" font-family="Helvetica,sans-Serif" font-size="10.00">cstring</text>
</g>
<!-- Node1&#45;&gt;Node2 -->
<g id="edge1" class="edge"><title>Node1&#45;&gt;Node2</title>
<path fill="none" stroke="midnightblue" d="M140.594,-56.4979C112.732,-45.7176 78.9648,-32.6531 54.7756,-23.2941"/>
<polygon fill="midnightblue" stroke="midnightblue" points="55.9526,-19.9967 45.3634,-19.6525 53.4267,-26.5251 55.9526,-19.9967"/>
</g>
<!-- Node3 -->
<g id="node3" class="node"><title>Node3</title>
<polygon fill="white" stroke="#bfbfbf" points="64,-0.5 64,-19.5 108,-19.5 108,-0.5 64,-0.5"/>
<text text-anchor="middle" x="86" y="-7.5" font-family="Helvetica,sans-Serif" font-size="10.00">fcntl.h</text>
</g>
<!-- Node1&#45;&gt;Node3 -->
<g id="edge2" class="edge"><title>Node1&#45;&gt;Node3</title>
<path fill="none" stroke="midnightblue" d="M159.497,-56.4979C143.088,-46.3405 123.404,-34.1551 108.538,-24.9523"/>
<polygon fill="midnightblue" stroke="midnightblue" points="110.322,-21.9402 99.9771,-19.6525 106.638,-27.892 110.322,-21.9402"/>
</g>
<!-- Node4 -->
<g id="node4" class="node"><title>Node4</title>
<polygon fill="white" stroke="#bfbfbf" points="126.5,-0.5 126.5,-19.5 183.5,-19.5 183.5,-0.5 126.5,-0.5"/>
<text text-anchor="middle" x="155" y="-7.5" font-family="Helvetica,sans-Serif" font-size="10.00">termios.h</text>
</g>
<!-- Node1&#45;&gt;Node4 -->
<g id="edge3" class="edge"><title>Node1&#45;&gt;Node4</title>
<path fill="none" stroke="midnightblue" d="M180.199,-56.4979C175.263,-47.5862 169.463,-37.1135 164.672,-28.4636"/>
<polygon fill="midnightblue" stroke="midnightblue" points="167.699,-26.7046 159.792,-19.6525 161.575,-30.0962 167.699,-26.7046"/>
</g>
<!-- Node5 -->
<g id="node5" class="node"><title>Node5</title>
<polygon fill="white" stroke="#bfbfbf" points="201.5,-0.5 201.5,-19.5 252.5,-19.5 252.5,-0.5 201.5,-0.5"/>
<text text-anchor="middle" x="227" y="-7.5" font-family="Helvetica,sans-Serif" font-size="10.00">unistd.h</text>
</g>
<!-- Node1&#45;&gt;Node5 -->
<g id="edge4" class="edge"><title>Node1&#45;&gt;Node5</title>
<path fill="none" stroke="midnightblue" d="M201.801,-56.4979C206.737,-47.5862 212.537,-37.1135 217.328,-28.4636"/>
<polygon fill="midnightblue" stroke="midnightblue" points="220.425,-30.0962 222.208,-19.6525 214.301,-26.7046 220.425,-30.0962"/>
</g>
<!-- Node6 -->
<g id="node6" class="node"><title>Node6</title>
<polygon fill="white" stroke="#bfbfbf" points="271,-0.5 271,-19.5 321,-19.5 321,-0.5 271,-0.5"/>
<text text-anchor="middle" x="296" y="-7.5" font-family="Helvetica,sans-Serif" font-size="10.00">libusb.h</text>
</g>
<!-- Node1&#45;&gt;Node6 -->
<g id="edge5" class="edge"><title>Node1&#45;&gt;Node6</title>
<path fill="none" stroke="midnightblue" d="M222.503,-56.4979C238.912,-46.3405 258.596,-34.1551 273.462,-24.9523"/>
<polygon fill="midnightblue" stroke="midnightblue" points="275.362,-27.892 282.023,-19.6525 271.678,-21.9402 275.362,-27.892"/>
</g>
<!-- Node7 -->
<g id="node7" class="node"><title>Node7</title>
<polygon fill="white" stroke="#bfbfbf" points="339,-0.5 339,-19.5 437,-19.5 437,-0.5 339,-0.5"/>
<text text-anchor="middle" x="388" y="-7.5" font-family="Helvetica,sans-Serif" font-size="10.00">dji_hard_driver.hpp</text>
</g>
<!-- Node1&#45;&gt;Node7 -->
<g id="edge6" class="edge"><title>Node1&#45;&gt;Node7</title>
<path fill="none" stroke="midnightblue" d="M249.573,-56.6738C283.054,-45.6269 323.943,-32.1357 352.568,-22.6908"/>
<polygon fill="midnightblue" stroke="midnightblue" points="353.749,-25.9866 362.149,-19.5294 351.556,-19.3391 353.749,-25.9866"/>
</g>
</g>
</svg>
