<?xml version="1.0" encoding="UTF-8" standalone="no"?>
<!DOCTYPE svg PUBLIC "-//W3C//DTD SVG 1.1//EN"
 "http://www.w3.org/Graphics/SVG/1.1/DTD/svg11.dtd">
<!-- Generated by graphviz version 2.40.1 (20161225.0304)
 -->
<!-- Title: osdk&#45;core/platform/linux/src/posix_thread_manager.cpp Pages: 1 -->
<svg width="208pt" height="157pt"
 viewBox="0.00 0.00 208.06 157.00" xmlns="http://www.w3.org/2000/svg" xmlns:xlink="http://www.w3.org/1999/xlink">
<g id="graph0" class="graph" transform="scale(1 1) rotate(0) translate(4 153)">
<title>osdk&#45;core/platform/linux/src/posix_thread_manager.cpp</title>
<polygon fill="#ffffff" stroke="transparent" points="-4,4 -4,-153 204.061,-153 204.061,4 -4,4"/>
<!-- Node0 -->
<g id="node1" class="node">
<title>Node0</title>
<g id="a_node1"><a xlink:title="Thread safety and data protection for DJI Onboard SDK on linux platforms.">
<polygon fill="#bfbfbf" stroke="#000000" points="58.187,-110.5 58.187,-148.5 173.6792,-148.5 173.6792,-110.5 58.187,-110.5"/>
<text text-anchor="start" x="66.187" y="-136.5" font-family="Helvetica,sans-Serif" font-size="10.00" fill="#000000">osdk&#45;core/platform</text>
<text text-anchor="start" x="66.187" y="-126.5" font-family="Helvetica,sans-Serif" font-size="10.00" fill="#000000">/linux/src/posix_thread</text>
<text text-anchor="middle" x="115.9331" y="-116.5" font-family="Helvetica,sans-Serif" font-size="10.00" fill="#000000">_manager.cpp</text>
</a>
</g>
</g>
<!-- Node1 -->
<g id="node2" class="node">
<title>Node1</title>
<g id="a_node2"><a xlink:href="posix__thread__manager_8hpp.html" target="_top" xlink:title="Thread safety and data protection for DJI Onboard SDK on linux platforms.">
<polygon fill="#ffffff" stroke="#000000" points="47.3301,-55.5 47.3301,-73.5 184.5361,-73.5 184.5361,-55.5 47.3301,-55.5"/>
<text text-anchor="middle" x="115.9331" y="-61.5" font-family="Helvetica,sans-Serif" font-size="10.00" fill="#000000">posix_thread_manager.hpp</text>
</a>
</g>
</g>
<!-- Node0&#45;&gt;Node1 -->
<g id="edge1" class="edge">
<title>Node0&#45;&gt;Node1</title>
<path fill="none" stroke="#191970" d="M115.9331,-110.3494C115.9331,-102.0079 115.9331,-92.2463 115.9331,-83.879"/>
<polygon fill="#191970" stroke="#191970" points="119.4332,-83.5978 115.9331,-73.5978 112.4332,-83.5979 119.4332,-83.5978"/>
</g>
<!-- Node2 -->
<g id="node3" class="node">
<title>Node2</title>
<g id="a_node3"><a xlink:title=" ">
<polygon fill="#ffffff" stroke="#bfbfbf" points="0,-.5 0,-18.5 123.8662,-18.5 123.8662,-.5 0,-.5"/>
<text text-anchor="middle" x="61.9331" y="-6.5" font-family="Helvetica,sans-Serif" font-size="10.00" fill="#000000">dji_thread_manager.hpp</text>
</a>
</g>
</g>
<!-- Node1&#45;&gt;Node2 -->
<g id="edge2" class="edge">
<title>Node1&#45;&gt;Node2</title>
<path fill="none" stroke="#191970" d="M107.0161,-55.4179C99.1685,-47.425 87.5491,-35.5903 78.072,-25.9377"/>
<polygon fill="#191970" stroke="#191970" points="80.5473,-23.463 71.0438,-18.7795 75.5523,-28.3672 80.5473,-23.463"/>
</g>
<!-- Node3 -->
<g id="node4" class="node">
<title>Node3</title>
<g id="a_node4"><a xlink:title=" ">
<polygon fill="#ffffff" stroke="#bfbfbf" points="141.8052,-.5 141.8052,-18.5 200.061,-18.5 200.061,-.5 141.8052,-.5"/>
<text text-anchor="middle" x="170.9331" y="-6.5" font-family="Helvetica,sans-Serif" font-size="10.00" fill="#000000">pthread.h</text>
</a>
</g>
</g>
<!-- Node1&#45;&gt;Node3 -->
<g id="edge3" class="edge">
<title>Node1&#45;&gt;Node3</title>
<path fill="none" stroke="#191970" d="M125.0152,-55.4179C133.0081,-47.425 144.8428,-35.5903 154.4954,-25.9377"/>
<polygon fill="#191970" stroke="#191970" points="157.0574,-28.3254 161.6536,-18.7795 152.1077,-23.3757 157.0574,-28.3254"/>
</g>
</g>
</svg>
