<?xml version="1.0" encoding="UTF-8" standalone="no"?>
<!DOCTYPE svg PUBLIC "-//W3C//DTD SVG 1.1//EN"
 "http://www.w3.org/Graphics/SVG/1.1/DTD/svg11.dtd">
<!-- Generated by graphviz version 2.40.1 (20161225.0304)
 -->
<!-- Title: osdk&#45;core/platform/linux/inc/posix_thread_manager.hpp Pages: 1 -->
<svg width="208pt" height="102pt"
 viewBox="0.00 0.00 208.06 102.00" xmlns="http://www.w3.org/2000/svg" xmlns:xlink="http://www.w3.org/1999/xlink">
<g id="graph0" class="graph" transform="scale(1 1) rotate(0) translate(4 98)">
<title>osdk&#45;core/platform/linux/inc/posix_thread_manager.hpp</title>
<polygon fill="#ffffff" stroke="transparent" points="-4,4 -4,-98 204.061,-98 204.061,4 -4,4"/>
<!-- Node0 -->
<g id="node1" class="node">
<title>Node0</title>
<g id="a_node1"><a xlink:title="Thread safety and data protection for DJI Onboard SDK on linux platforms.">
<polygon fill="#bfbfbf" stroke="#000000" points="58.4604,-55.5 58.4604,-93.5 173.4058,-93.5 173.4058,-55.5 58.4604,-55.5"/>
<text text-anchor="start" x="66.4604" y="-81.5" font-family="Helvetica,sans-Serif" font-size="10.00" fill="#000000">osdk&#45;core/platform</text>
<text text-anchor="start" x="66.4604" y="-71.5" font-family="Helvetica,sans-Serif" font-size="10.00" fill="#000000">/linux/inc/posix_thread</text>
<text text-anchor="middle" x="115.9331" y="-61.5" font-family="Helvetica,sans-Serif" font-size="10.00" fill="#000000">_manager.hpp</text>
</a>
</g>
</g>
<!-- Node1 -->
<g id="node2" class="node">
<title>Node1</title>
<g id="a_node2"><a xlink:title=" ">
<polygon fill="#ffffff" stroke="#bfbfbf" points="0,-.5 0,-18.5 123.8662,-18.5 123.8662,-.5 0,-.5"/>
<text text-anchor="middle" x="61.9331" y="-6.5" font-family="Helvetica,sans-Serif" font-size="10.00" fill="#000000">dji_thread_manager.hpp</text>
</a>
</g>
</g>
<!-- Node0&#45;&gt;Node1 -->
<g id="edge1" class="edge">
<title>Node0&#45;&gt;Node1</title>
<path fill="none" stroke="#191970" d="M100.0234,-55.3494C92.3847,-46.1548 83.3127,-35.2347 75.9387,-26.3586"/>
<polygon fill="#191970" stroke="#191970" points="78.5737,-24.0532 69.4913,-18.5978 73.1894,-28.5264 78.5737,-24.0532"/>
</g>
<!-- Node2 -->
<g id="node3" class="node">
<title>Node2</title>
<g id="a_node3"><a xlink:title=" ">
<polygon fill="#ffffff" stroke="#bfbfbf" points="141.8052,-.5 141.8052,-18.5 200.061,-18.5 200.061,-.5 141.8052,-.5"/>
<text text-anchor="middle" x="170.9331" y="-6.5" font-family="Helvetica,sans-Serif" font-size="10.00" fill="#000000">pthread.h</text>
</a>
</g>
</g>
<!-- Node0&#45;&gt;Node2 -->
<g id="edge2" class="edge">
<title>Node0&#45;&gt;Node2</title>
<path fill="none" stroke="#191970" d="M132.1374,-55.3494C139.9175,-46.1548 149.1576,-35.2347 156.6681,-26.3586"/>
<polygon fill="#191970" stroke="#191970" points="159.4473,-28.4925 163.2349,-18.5978 154.1036,-23.9709 159.4473,-28.4925"/>
</g>
</g>
</svg>
