<?xml version="1.0" encoding="UTF-8" standalone="no"?>
<!DOCTYPE svg PUBLIC "-//W3C//DTD SVG 1.1//EN"
 "http://www.w3.org/Graphics/SVG/1.1/DTD/svg11.dtd">
<!-- Generated by graphviz version 2.40.1 (20161225.0304)
 -->
<!-- Title: osdk&#45;core/platform/linux/inc/posix_thread.hpp Pages: 1 -->
<svg width="481pt" height="147pt"
 viewBox="0.00 0.00 481.43 147.00" xmlns="http://www.w3.org/2000/svg" xmlns:xlink="http://www.w3.org/1999/xlink">
<g id="graph0" class="graph" transform="scale(1 1) rotate(0) translate(4 143)">
<title>osdk&#45;core/platform/linux/inc/posix_thread.hpp</title>
<polygon fill="#ffffff" stroke="transparent" points="-4,4 -4,-143 477.4292,-143 477.4292,4 -4,4"/>
<!-- Node0 -->
<g id="node1" class="node">
<title>Node0</title>
<g id="a_node1"><a xlink:title="Pthread&#45;based threading for DJI Onboard SDK Linux/*NIX platforms.">
<polygon fill="#bfbfbf" stroke="#000000" points="289.9985,-110.5 289.9985,-138.5 424.4067,-138.5 424.4067,-110.5 289.9985,-110.5"/>
<text text-anchor="start" x="297.9985" y="-126.5" font-family="Helvetica,sans-Serif" font-size="10.00" fill="#000000">osdk&#45;core/platform</text>
<text text-anchor="middle" x="357.2026" y="-116.5" font-family="Helvetica,sans-Serif" font-size="10.00" fill="#000000">/linux/inc/posix_thread.hpp</text>
</a>
</g>
</g>
<!-- Node1 -->
<g id="node2" class="node">
<title>Node1</title>
<g id="a_node2"><a xlink:href="dji__log_8hpp.html" target="_top" xlink:title="Logging mechanism for printing status and error messages to the screen.">
<polygon fill="#ffffff" stroke="#000000" points="205.0156,-55.5 205.0156,-73.5 269.3896,-73.5 269.3896,-55.5 205.0156,-55.5"/>
<text text-anchor="middle" x="237.2026" y="-61.5" font-family="Helvetica,sans-Serif" font-size="10.00" fill="#000000">dji_log.hpp</text>
</a>
</g>
</g>
<!-- Node0&#45;&gt;Node1 -->
<g id="edge1" class="edge">
<title>Node0&#45;&gt;Node1</title>
<path fill="none" stroke="#191970" d="M329.068,-110.4327C309.6301,-100.7137 283.9064,-87.8519 264.6247,-78.211"/>
<polygon fill="#191970" stroke="#191970" points="265.9743,-74.9728 255.4648,-73.6311 262.8438,-81.2337 265.9743,-74.9728"/>
</g>
<!-- Node5 -->
<g id="node6" class="node">
<title>Node5</title>
<g id="a_node6"><a xlink:title=" ">
<polygon fill="#ffffff" stroke="#bfbfbf" points="300.2695,-.5 300.2695,-18.5 424.1357,-18.5 424.1357,-.5 300.2695,-.5"/>
<text text-anchor="middle" x="362.2026" y="-6.5" font-family="Helvetica,sans-Serif" font-size="10.00" fill="#000000">dji_thread_manager.hpp</text>
</a>
</g>
</g>
<!-- Node0&#45;&gt;Node5 -->
<g id="edge6" class="edge">
<title>Node0&#45;&gt;Node5</title>
<path fill="none" stroke="#191970" d="M353.0665,-110.3667C349.4946,-96.3071 345.3261,-74.13 348.2026,-55 349.5527,-46.0213 352.3223,-36.3695 355.0444,-28.2759"/>
<polygon fill="#191970" stroke="#191970" points="358.3897,-29.3158 358.4722,-18.7213 351.8009,-26.952 358.3897,-29.3158"/>
</g>
<!-- Node6 -->
<g id="node7" class="node">
<title>Node6</title>
<g id="a_node7"><a xlink:title=" ">
<polygon fill="#ffffff" stroke="#bfbfbf" points="357.0747,-55.5 357.0747,-73.5 415.3306,-73.5 415.3306,-55.5 357.0747,-55.5"/>
<text text-anchor="middle" x="386.2026" y="-61.5" font-family="Helvetica,sans-Serif" font-size="10.00" fill="#000000">pthread.h</text>
</a>
</g>
</g>
<!-- Node0&#45;&gt;Node6 -->
<g id="edge7" class="edge">
<title>Node0&#45;&gt;Node6</title>
<path fill="none" stroke="#191970" d="M364.0752,-110.2808C368.0668,-102.0224 373.1365,-91.5335 377.4158,-82.6796"/>
<polygon fill="#191970" stroke="#191970" points="380.6114,-84.1108 381.8119,-73.5842 374.309,-81.0646 380.6114,-84.1108"/>
</g>
<!-- Node7 -->
<g id="node8" class="node">
<title>Node7</title>
<g id="a_node8"><a xlink:title=" ">
<polygon fill="#ffffff" stroke="#bfbfbf" points="432.9761,-55.5 432.9761,-73.5 473.4292,-73.5 473.4292,-55.5 432.9761,-55.5"/>
<text text-anchor="middle" x="453.2026" y="-61.5" font-family="Helvetica,sans-Serif" font-size="10.00" fill="#000000">string</text>
</a>
</g>
</g>
<!-- Node0&#45;&gt;Node7 -->
<g id="edge8" class="edge">
<title>Node0&#45;&gt;Node7</title>
<path fill="none" stroke="#191970" d="M379.9533,-110.2808C395.0139,-100.868 414.7106,-88.5575 429.8856,-79.0732"/>
<polygon fill="#191970" stroke="#191970" points="432.0429,-81.8522 438.6679,-73.5842 428.3329,-75.9162 432.0429,-81.8522"/>
</g>
<!-- Node2 -->
<g id="node3" class="node">
<title>Node2</title>
<g id="a_node3"><a xlink:title=" ">
<polygon fill="#ffffff" stroke="#bfbfbf" points="0,-.5 0,-18.5 86.4053,-18.5 86.4053,-.5 0,-.5"/>
<text text-anchor="middle" x="43.2026" y="-6.5" font-family="Helvetica,sans-Serif" font-size="10.00" fill="#000000">dji_memory.hpp</text>
</a>
</g>
</g>
<!-- Node1&#45;&gt;Node2 -->
<g id="edge2" class="edge">
<title>Node1&#45;&gt;Node2</title>
<path fill="none" stroke="#191970" d="M205.1675,-55.4179C172.2131,-46.0751 120.7441,-31.4834 84.6939,-21.263"/>
<polygon fill="#191970" stroke="#191970" points="85.5384,-17.8645 74.9629,-18.5042 83.6291,-24.5991 85.5384,-17.8645"/>
</g>
<!-- Node3 -->
<g id="node4" class="node">
<title>Node3</title>
<g id="a_node4"><a xlink:title=" ">
<polygon fill="#ffffff" stroke="#bfbfbf" points="104.2373,-.5 104.2373,-18.5 174.168,-18.5 174.168,-.5 104.2373,-.5"/>
<text text-anchor="middle" x="139.2026" y="-6.5" font-family="Helvetica,sans-Serif" font-size="10.00" fill="#000000">dji_type.hpp</text>
</a>
</g>
</g>
<!-- Node1&#45;&gt;Node3 -->
<g id="edge3" class="edge">
<title>Node1&#45;&gt;Node3</title>
<path fill="none" stroke="#191970" d="M221.0199,-55.4179C205.5574,-46.7399 182.0259,-33.5334 164.1618,-23.5077"/>
<polygon fill="#191970" stroke="#191970" points="165.8429,-20.4377 155.4094,-18.5956 162.4169,-26.542 165.8429,-20.4377"/>
</g>
<!-- Node4 -->
<g id="node5" class="node">
<title>Node4</title>
<g id="a_node5"><a xlink:title=" ">
<polygon fill="#ffffff" stroke="#bfbfbf" points="191.6733,-.5 191.6733,-18.5 282.7319,-18.5 282.7319,-.5 191.6733,-.5"/>
<text text-anchor="middle" x="237.2026" y="-6.5" font-family="Helvetica,sans-Serif" font-size="10.00" fill="#000000">dji_singleton.hpp</text>
</a>
</g>
</g>
<!-- Node1&#45;&gt;Node4 -->
<g id="edge4" class="edge">
<title>Node1&#45;&gt;Node4</title>
<path fill="none" stroke="#191970" d="M237.2026,-55.4179C237.2026,-48.2164 237.2026,-37.8962 237.2026,-28.8632"/>
<polygon fill="#191970" stroke="#191970" points="240.7027,-28.7794 237.2026,-18.7795 233.7027,-28.7795 240.7027,-28.7794"/>
</g>
<!-- Node1&#45;&gt;Node5 -->
<g id="edge5" class="edge">
<title>Node1&#45;&gt;Node5</title>
<path fill="none" stroke="#191970" d="M257.8438,-55.4179C278.1093,-46.5011 309.2412,-32.803 332.2316,-22.6873"/>
<polygon fill="#191970" stroke="#191970" points="333.7872,-25.8267 341.5308,-18.5956 330.968,-19.4195 333.7872,-25.8267"/>
</g>
</g>
</svg>
